%TF.GenerationSoftware,KiCad,Pcbnew,(6.0.1)*%
%TF.CreationDate,2022-01-24T17:08:06-05:00*%
%TF.ProjectId,zuko-teensy-motor-controller,7a756b6f-2d74-4656-956e-73792d6d6f74,rev?*%
%TF.SameCoordinates,Original*%
%TF.FileFunction,Copper,L3,Inr*%
%TF.FilePolarity,Positive*%
%FSLAX46Y46*%
G04 Gerber Fmt 4.6, Leading zero omitted, Abs format (unit mm)*
G04 Created by KiCad (PCBNEW (6.0.1)) date 2022-01-24 17:08:06*
%MOMM*%
%LPD*%
G01*
G04 APERTURE LIST*
G04 Aperture macros list*
%AMRoundRect*
0 Rectangle with rounded corners*
0 $1 Rounding radius*
0 $2 $3 $4 $5 $6 $7 $8 $9 X,Y pos of 4 corners*
0 Add a 4 corners polygon primitive as box body*
4,1,4,$2,$3,$4,$5,$6,$7,$8,$9,$2,$3,0*
0 Add four circle primitives for the rounded corners*
1,1,$1+$1,$2,$3*
1,1,$1+$1,$4,$5*
1,1,$1+$1,$6,$7*
1,1,$1+$1,$8,$9*
0 Add four rect primitives between the rounded corners*
20,1,$1+$1,$2,$3,$4,$5,0*
20,1,$1+$1,$4,$5,$6,$7,0*
20,1,$1+$1,$6,$7,$8,$9,0*
20,1,$1+$1,$8,$9,$2,$3,0*%
%AMRotRect*
0 Rectangle, with rotation*
0 The origin of the aperture is its center*
0 $1 length*
0 $2 width*
0 $3 Rotation angle, in degrees counterclockwise*
0 Add horizontal line*
21,1,$1,$2,0,0,$3*%
G04 Aperture macros list end*
%TA.AperFunction,ComponentPad*%
%ADD10R,1.700000X1.700000*%
%TD*%
%TA.AperFunction,ComponentPad*%
%ADD11O,1.700000X1.700000*%
%TD*%
%TA.AperFunction,ComponentPad*%
%ADD12RoundRect,1.500000X-1.500000X-1.500000X1.500000X-1.500000X1.500000X1.500000X-1.500000X1.500000X0*%
%TD*%
%TA.AperFunction,ComponentPad*%
%ADD13C,6.000000*%
%TD*%
%TA.AperFunction,ComponentPad*%
%ADD14C,2.900000*%
%TD*%
%TA.AperFunction,ComponentPad*%
%ADD15RotRect,2.000000X2.000000X325.000000*%
%TD*%
%TA.AperFunction,ComponentPad*%
%ADD16C,2.000000*%
%TD*%
%TA.AperFunction,ComponentPad*%
%ADD17C,1.600000*%
%TD*%
%TA.AperFunction,ViaPad*%
%ADD18C,0.800000*%
%TD*%
%TA.AperFunction,Conductor*%
%ADD19C,2.500000*%
%TD*%
%TA.AperFunction,Conductor*%
%ADD20C,1.270000*%
%TD*%
%TA.AperFunction,Conductor*%
%ADD21C,0.330200*%
%TD*%
G04 APERTURE END LIST*
D10*
%TO.N,+BATT*%
%TO.C,JP1*%
X149047402Y-67836800D03*
D11*
%TO.N,Net-(J17-Pad2)*%
X151587402Y-67836800D03*
%TO.N,+AUX*%
X154127402Y-67836800D03*
%TD*%
D10*
%TO.N,+3V3*%
%TO.C,J29*%
X147932000Y-44800000D03*
D11*
%TO.N,Net-(J29-Pad2)*%
X147932000Y-47340000D03*
%TO.N,SW2*%
X147932000Y-49880000D03*
%TO.N,GND*%
X147932000Y-52420000D03*
%TD*%
D12*
%TO.N,Net-(J4-Pad1)*%
%TO.C,J4*%
X72500000Y-47580200D03*
D13*
%TO.N,GND*%
X79700000Y-47580200D03*
%TD*%
D14*
%TO.N,N/C*%
%TO.C,REF\u002A\u002A*%
X159414400Y-43351000D03*
%TD*%
D10*
%TO.N,M8*%
%TO.C,J9*%
X113299929Y-71375000D03*
D11*
%TO.N,+BATT*%
X113299929Y-73915000D03*
%TO.N,GND*%
X113299929Y-76455000D03*
%TD*%
D10*
%TO.N,+5V*%
%TO.C,J33*%
X111018400Y-44813600D03*
D11*
%TO.N,Net-(J33-Pad2)*%
X113558400Y-44813600D03*
%TO.N,Net-(J33-Pad3)*%
X116098400Y-44813600D03*
%TO.N,GND*%
X118638400Y-44813600D03*
%TD*%
D10*
%TO.N,AUX_M3*%
%TO.C,J22*%
X154200000Y-71375000D03*
D11*
%TO.N,Net-(J17-Pad2)*%
X154200000Y-73915000D03*
%TO.N,GND*%
X154200000Y-76455000D03*
%TD*%
D10*
%TO.N,M6*%
%TO.C,J7*%
X97043929Y-71375000D03*
D11*
%TO.N,+BATT*%
X97043929Y-73915000D03*
%TO.N,GND*%
X97043929Y-76455000D03*
%TD*%
D15*
%TO.N,+BATT*%
%TO.C,C2*%
X82698998Y-73779830D03*
D16*
%TO.N,GND*%
X86794758Y-76647712D03*
%TD*%
D10*
%TO.N,+BATT*%
%TO.C,J15*%
X86256800Y-44780000D03*
D11*
%TO.N,GND*%
X86256800Y-47320000D03*
%TD*%
D10*
%TO.N,+5V*%
%TO.C,J16*%
X100843000Y-44780000D03*
D11*
%TO.N,GND*%
X100843000Y-47320000D03*
%TD*%
D10*
%TO.N,+3V3*%
%TO.C,J30*%
X133600000Y-44800000D03*
D11*
%TO.N,SDA1*%
X136140000Y-44800000D03*
%TO.N,SDL1*%
X138680000Y-44800000D03*
%TO.N,GND*%
X141220000Y-44800000D03*
%TD*%
D17*
%TO.N,GND*%
%TO.C,U2*%
X96954602Y-66799400D03*
%TO.N,M1*%
X99494602Y-66799400D03*
%TO.N,M2*%
X102034602Y-66799400D03*
%TO.N,M3*%
X104574602Y-66799400D03*
%TO.N,M4*%
X107114602Y-66799400D03*
%TO.N,M5*%
X109654602Y-66799400D03*
%TO.N,M6*%
X112194602Y-66799400D03*
%TO.N,M7*%
X114734602Y-66799400D03*
%TO.N,M8*%
X117274602Y-66799400D03*
%TO.N,M9*%
X119814602Y-66799400D03*
%TO.N,M10*%
X122354602Y-66799400D03*
%TO.N,M11*%
X124894602Y-66799400D03*
%TO.N,M12*%
X127434602Y-66799400D03*
%TO.N,AUX_M1*%
X129974602Y-66799400D03*
%TO.N,unconnected-(U2-Pad15)*%
X129974602Y-64259400D03*
%TO.N,unconnected-(U2-Pad16)*%
X129974602Y-61719400D03*
%TO.N,GND*%
X129974602Y-59179400D03*
%TO.N,unconnected-(U2-Pad18)*%
X129974602Y-56639400D03*
%TO.N,unconnected-(U2-Pad19)*%
X129974602Y-54099400D03*
%TO.N,unconnected-(U2-Pad20)*%
X129974602Y-51559400D03*
%TO.N,OUT4*%
X127434602Y-51559400D03*
%TO.N,OUT3*%
X124894602Y-51559400D03*
%TO.N,OUT2*%
X122354602Y-51559400D03*
%TO.N,OUT1*%
X119814602Y-51559400D03*
%TO.N,SDA0*%
X117274602Y-51559400D03*
%TO.N,SCL0*%
X114734602Y-51559400D03*
%TO.N,TX*%
X112194602Y-51559400D03*
%TO.N,RX*%
X109654602Y-51559400D03*
%TO.N,CSENSE*%
X107114602Y-51559400D03*
%TO.N,VSENSE*%
X104574602Y-51559400D03*
%TO.N,+3V3*%
X102034602Y-51559400D03*
%TO.N,GND*%
X99494602Y-51559400D03*
%TO.N,+5V*%
X96954602Y-51559400D03*
%TO.N,unconnected-(U2-Pad34)*%
X99494602Y-54099400D03*
%TO.N,SDL1*%
X124894602Y-54099400D03*
%TO.N,SDA1*%
X122354602Y-54099400D03*
%TO.N,NEO2*%
X124894602Y-56639400D03*
%TO.N,NEO1*%
X122354602Y-56639400D03*
%TO.N,SW1*%
X124894602Y-59179400D03*
%TO.N,AUX_M3*%
X122354602Y-59179400D03*
%TO.N,SW3*%
X124894602Y-61719400D03*
%TO.N,SW2*%
X122354602Y-61719400D03*
%TO.N,SW4*%
X124894602Y-64259400D03*
%TO.N,AUX_M2*%
X122354602Y-64259400D03*
%TD*%
D10*
%TO.N,+3V3*%
%TO.C,J31*%
X150726000Y-44800000D03*
D11*
%TO.N,Net-(J31-Pad2)*%
X150726000Y-47340000D03*
%TO.N,SW3*%
X150726000Y-49880000D03*
%TO.N,GND*%
X150726000Y-52420000D03*
%TD*%
D10*
%TO.N,M5*%
%TO.C,J6*%
X94376929Y-71375000D03*
D11*
%TO.N,+BATT*%
X94376929Y-73915000D03*
%TO.N,GND*%
X94376929Y-76455000D03*
%TD*%
D10*
%TO.N,+BATT*%
%TO.C,J21*%
X89000000Y-44780000D03*
D11*
%TO.N,GND*%
X89000000Y-47320000D03*
%TD*%
D10*
%TO.N,AUX_M2*%
%TO.C,J18*%
X151533000Y-71375000D03*
D11*
%TO.N,Net-(J17-Pad2)*%
X151533000Y-73915000D03*
%TO.N,GND*%
X151533000Y-76455000D03*
%TD*%
D10*
%TO.N,+5V*%
%TO.C,J19*%
X98143000Y-44780000D03*
D11*
%TO.N,GND*%
X98143000Y-47320000D03*
%TD*%
D10*
%TO.N,+5V*%
%TO.C,J26*%
X149935000Y-56500000D03*
D11*
%TO.N,Net-(J26-Pad2)*%
X152475000Y-56500000D03*
%TO.N,GND*%
X155015000Y-56500000D03*
%TD*%
D15*
%TO.N,+BATT*%
%TO.C,C1*%
X139588934Y-73779830D03*
D16*
%TO.N,GND*%
X143684694Y-76647712D03*
%TD*%
D10*
%TO.N,M2*%
%TO.C,J2*%
X75453929Y-71375000D03*
D11*
%TO.N,+BATT*%
X75453929Y-73915000D03*
%TO.N,GND*%
X75453929Y-76455000D03*
%TD*%
D10*
%TO.N,M11*%
%TO.C,J12*%
X132222929Y-71375000D03*
D11*
%TO.N,+BATT*%
X132222929Y-73915000D03*
%TO.N,GND*%
X132222929Y-76455000D03*
%TD*%
D10*
%TO.N,+5V*%
%TO.C,J14*%
X95443000Y-44780000D03*
D11*
%TO.N,GND*%
X95443000Y-47320000D03*
%TD*%
D10*
%TO.N,+BATT*%
%TO.C,J23*%
X91743200Y-44780000D03*
D11*
%TO.N,GND*%
X91743200Y-47320000D03*
%TD*%
D10*
%TO.N,M4*%
%TO.C,J5*%
X91709929Y-71375000D03*
D11*
%TO.N,+BATT*%
X91709929Y-73915000D03*
%TO.N,GND*%
X91709929Y-76455000D03*
%TD*%
D10*
%TO.N,+5V*%
%TO.C,J25*%
X149920000Y-59500000D03*
D11*
%TO.N,Net-(J25-Pad2)*%
X152460000Y-59500000D03*
%TO.N,GND*%
X155000000Y-59500000D03*
%TD*%
D10*
%TO.N,M9*%
%TO.C,J10*%
X115966929Y-71390011D03*
D11*
%TO.N,+BATT*%
X115966929Y-73930011D03*
%TO.N,GND*%
X115966929Y-76470011D03*
%TD*%
D14*
%TO.N,N/C*%
%TO.C,REF\u002A\u002A*%
X159414400Y-77851000D03*
%TD*%
D10*
%TO.N,+3V3*%
%TO.C,J27*%
X145138000Y-44800000D03*
D11*
%TO.N,Net-(J27-Pad2)*%
X145138000Y-47340000D03*
%TO.N,SW1*%
X145138000Y-49880000D03*
%TO.N,GND*%
X145138000Y-52420000D03*
%TD*%
D10*
%TO.N,+3V3*%
%TO.C,J24*%
X122300000Y-44800000D03*
D11*
%TO.N,SDA0*%
X124840000Y-44800000D03*
%TO.N,SCL0*%
X127380000Y-44800000D03*
%TO.N,GND*%
X129920000Y-44800000D03*
%TD*%
D10*
%TO.N,+3V3*%
%TO.C,J32*%
X153520000Y-44800000D03*
D11*
%TO.N,Net-(J32-Pad2)*%
X153520000Y-47340000D03*
%TO.N,SW4*%
X153520000Y-49880000D03*
%TO.N,GND*%
X153520000Y-52420000D03*
%TD*%
D10*
%TO.N,M7*%
%TO.C,J8*%
X110632929Y-71359989D03*
D11*
%TO.N,+BATT*%
X110632929Y-73899989D03*
%TO.N,GND*%
X110632929Y-76439989D03*
%TD*%
D10*
%TO.N,+3V3*%
%TO.C,J28*%
X133600000Y-47490000D03*
D11*
%TO.N,SDA1*%
X136140000Y-47490000D03*
%TO.N,SDL1*%
X138680000Y-47490000D03*
%TO.N,GND*%
X141220000Y-47490000D03*
%TD*%
D10*
%TO.N,M1*%
%TO.C,J1*%
X72786929Y-71375000D03*
D11*
%TO.N,+BATT*%
X72786929Y-73915000D03*
%TO.N,GND*%
X72786929Y-76455000D03*
%TD*%
D10*
%TO.N,+AUX*%
%TO.C,J34*%
X107243000Y-44800000D03*
D11*
%TO.N,GND*%
X107243000Y-47340000D03*
%TD*%
D10*
%TO.N,AUX_M1*%
%TO.C,J17*%
X148866000Y-71375000D03*
D11*
%TO.N,Net-(J17-Pad2)*%
X148866000Y-73915000D03*
%TO.N,GND*%
X148866000Y-76455000D03*
%TD*%
D15*
%TO.N,+BATT*%
%TO.C,C4*%
X101621998Y-73788000D03*
D16*
%TO.N,GND*%
X105717758Y-76655882D03*
%TD*%
D15*
%TO.N,+BATT*%
%TO.C,C3*%
X120538934Y-73779830D03*
D16*
%TO.N,GND*%
X124634694Y-76647712D03*
%TD*%
D14*
%TO.N,N/C*%
%TO.C,REF\u002A\u002A*%
X64897200Y-77851000D03*
%TD*%
D10*
%TO.N,+AUX*%
%TO.C,J20*%
X104543000Y-44775000D03*
D11*
%TO.N,GND*%
X104543000Y-47315000D03*
%TD*%
D10*
%TO.N,M3*%
%TO.C,J3*%
X78120929Y-71390011D03*
D11*
%TO.N,+BATT*%
X78120929Y-73930011D03*
%TO.N,GND*%
X78120929Y-76470011D03*
%TD*%
D14*
%TO.N,N/C*%
%TO.C,REF\u002A\u002A*%
X64897200Y-43351000D03*
%TD*%
D10*
%TO.N,M10*%
%TO.C,J11*%
X129555929Y-71375000D03*
D11*
%TO.N,+BATT*%
X129555929Y-73915000D03*
%TO.N,GND*%
X129555929Y-76455000D03*
%TD*%
D10*
%TO.N,M12*%
%TO.C,J13*%
X134889929Y-71375000D03*
D11*
%TO.N,+BATT*%
X134889929Y-73915000D03*
%TO.N,GND*%
X134889929Y-76455000D03*
%TD*%
D18*
%TO.N,+BATT*%
X80235000Y-73915000D03*
X69610000Y-68090000D03*
X125135000Y-73915000D03*
X99095000Y-73915000D03*
X105895000Y-73915000D03*
X69610000Y-62090000D03*
X69610000Y-66000000D03*
X69610000Y-70290000D03*
X127075000Y-73915000D03*
X67840000Y-60300000D03*
X137215000Y-73915000D03*
X104215000Y-73915000D03*
X86985000Y-73915000D03*
X123275000Y-73915000D03*
X69610000Y-72210000D03*
X69610000Y-64130000D03*
X118255000Y-73915000D03*
X89055000Y-73915000D03*
X85275000Y-73915000D03*
X108095000Y-73915000D03*
X70875000Y-73275000D03*
%TO.N,M1*%
X85800000Y-65700000D03*
X78500000Y-65700000D03*
%TO.N,GND*%
X87650000Y-69280000D03*
X66050000Y-53840000D03*
X70070000Y-76970000D03*
X157710000Y-68290000D03*
X77040000Y-43230000D03*
X120960000Y-69100000D03*
X67500000Y-46060000D03*
X75937500Y-62100000D03*
X66000000Y-69180000D03*
X65900000Y-48450000D03*
X65980000Y-62010000D03*
X151980000Y-64580000D03*
X117910000Y-63190000D03*
X90070000Y-67580000D03*
X92470000Y-54710000D03*
X117890000Y-61670000D03*
X69470000Y-43040000D03*
X160290000Y-73380000D03*
X160260000Y-47950000D03*
X66170000Y-73460000D03*
X65980000Y-64580000D03*
X77499997Y-56100000D03*
X144434992Y-62654993D03*
X67900000Y-75240000D03*
%TO.N,M2*%
X87300000Y-64800000D03*
X81800000Y-64800000D03*
%TO.N,+5V*%
X112010000Y-59650000D03*
X104460000Y-59640000D03*
%TO.N,+3V3*%
X140580000Y-53660000D03*
X101260000Y-61540000D03*
X135090000Y-53590000D03*
%TO.N,Net-(J27-Pad2)*%
X133605000Y-55885000D03*
%TO.N,SW3*%
X132030000Y-61730000D03*
%TO.N,SW4*%
X135830000Y-64460000D03*
%TO.N,RX*%
X114010000Y-61520000D03*
%TO.N,Net-(J4-Pad1)*%
X67780000Y-57450000D03*
X69560000Y-55435000D03*
%TO.N,VSENSE*%
X89220000Y-54710000D03*
%TO.N,CSENSE*%
X88300000Y-59020000D03*
%TO.N,NEO1*%
X141830000Y-66630000D03*
%TO.N,OUT2*%
X132030000Y-56040000D03*
%TO.N,OUT3*%
X134927917Y-59783789D03*
%TO.N,OUT4*%
X136510000Y-59700000D03*
%TD*%
D19*
%TO.N,+BATT*%
X67840000Y-60330000D02*
X67840000Y-60300000D01*
X69600000Y-72100000D02*
X69600000Y-62090000D01*
X69600000Y-62090000D02*
X67840000Y-60330000D01*
X71415000Y-73915000D02*
X69600000Y-72100000D01*
X72786929Y-73915000D02*
X71415000Y-73915000D01*
X72922099Y-73779830D02*
X72786929Y-73915000D01*
X139588934Y-73779830D02*
X72922099Y-73779830D01*
%TO.N,Net-(J4-Pad1)*%
X69590000Y-54759870D02*
X69590000Y-50490200D01*
X69620000Y-54789870D02*
X69590000Y-54759870D01*
X69620000Y-55610000D02*
X69620000Y-54789870D01*
X69590000Y-50490200D02*
X72500000Y-47580200D01*
X67780000Y-57450000D02*
X69620000Y-55610000D01*
D20*
%TO.N,+BATT*%
X89000000Y-44780000D02*
X91743200Y-44780000D01*
X86256800Y-44780000D02*
X89000000Y-44780000D01*
D21*
%TO.N,+AUX*%
X107218000Y-44775000D02*
X107243000Y-44800000D01*
D20*
X153720000Y-41840000D02*
X157000000Y-45120000D01*
X157000000Y-64964202D02*
X154127402Y-67836800D01*
X107243000Y-44800000D02*
X110203000Y-41840000D01*
X110203000Y-41840000D02*
X153720000Y-41840000D01*
X104542996Y-44774993D02*
X107217997Y-44774993D01*
X157000000Y-45120000D02*
X157000000Y-64964202D01*
D21*
%TO.N,VSENSE*%
X89220000Y-54710000D02*
X90998411Y-52931589D01*
X90998411Y-52931589D02*
X103202413Y-52931589D01*
X103202413Y-52931589D02*
X104574602Y-51559400D01*
%TO.N,CSENSE*%
X99624002Y-59050000D02*
X107114602Y-51559400D01*
X88300000Y-59020000D02*
X88330000Y-59050000D01*
X88330000Y-59050000D02*
X99624002Y-59050000D01*
%TO.N,SCL0*%
X127380000Y-44800000D02*
X124730000Y-47450000D01*
X124730000Y-47450000D02*
X118844002Y-47450000D01*
X118844002Y-47450000D02*
X114734602Y-51559400D01*
%TO.N,NEO1*%
X123726791Y-65076791D02*
X123726791Y-58011589D01*
X123726791Y-58011589D02*
X122354602Y-56639400D01*
X141220000Y-65470000D02*
X124120000Y-65470000D01*
X141830000Y-66630000D02*
X141830000Y-66080000D01*
X124120000Y-65470000D02*
X123726791Y-65076791D01*
X141830000Y-66080000D02*
X141220000Y-65470000D01*
%TO.N,OUT3*%
X129583667Y-57900000D02*
X126062413Y-54378746D01*
X134927917Y-59783789D02*
X132843789Y-59783789D01*
X126062413Y-52727211D02*
X124894602Y-51559400D01*
X132843789Y-59783789D02*
X130960000Y-57900000D01*
X130960000Y-57900000D02*
X129583667Y-57900000D01*
X126062413Y-54378746D02*
X126062413Y-52727211D01*
%TO.N,OUT4*%
X128602413Y-52727211D02*
X127434602Y-51559400D01*
X136510000Y-59700000D02*
X136510000Y-57704150D01*
X136510000Y-57704150D02*
X131533061Y-52727211D01*
X131533061Y-52727211D02*
X128602413Y-52727211D01*
%TD*%
%TA.AperFunction,Conductor*%
%TO.N,GND*%
G36*
X64697822Y-41173002D02*
G01*
X64744315Y-41226658D01*
X64754419Y-41296932D01*
X64724925Y-41361512D01*
X64665199Y-41399896D01*
X64651080Y-41402841D01*
X64651108Y-41402980D01*
X64383456Y-41456219D01*
X64383451Y-41456220D01*
X64379084Y-41457089D01*
X64374881Y-41458565D01*
X64121607Y-41547508D01*
X64121604Y-41547509D01*
X64117399Y-41548986D01*
X64113446Y-41551039D01*
X64113440Y-41551042D01*
X63973934Y-41623510D01*
X63871273Y-41676838D01*
X63867658Y-41679421D01*
X63867652Y-41679425D01*
X63724871Y-41781458D01*
X63645616Y-41838095D01*
X63444932Y-42029538D01*
X63273225Y-42247348D01*
X63270993Y-42251190D01*
X63270990Y-42251195D01*
X63136158Y-42483324D01*
X63136155Y-42483330D01*
X63133920Y-42487178D01*
X63132246Y-42491311D01*
X63031471Y-42740112D01*
X63031468Y-42740120D01*
X63029798Y-42744244D01*
X62962935Y-43013417D01*
X62934666Y-43289325D01*
X62934841Y-43293777D01*
X62942796Y-43496233D01*
X62945555Y-43566464D01*
X62946355Y-43570844D01*
X62992323Y-43822540D01*
X62995384Y-43839303D01*
X63083160Y-44102400D01*
X63085152Y-44106387D01*
X63085153Y-44106389D01*
X63179624Y-44295455D01*
X63207130Y-44350504D01*
X63364823Y-44578666D01*
X63380959Y-44596122D01*
X63550074Y-44779070D01*
X63550079Y-44779075D01*
X63553090Y-44782332D01*
X63768175Y-44957439D01*
X63771993Y-44959738D01*
X63771995Y-44959739D01*
X63821506Y-44989547D01*
X64005788Y-45100494D01*
X64009883Y-45102228D01*
X64009885Y-45102229D01*
X64257086Y-45206905D01*
X64257093Y-45206907D01*
X64261187Y-45208641D01*
X64359960Y-45234830D01*
X64524979Y-45278585D01*
X64524984Y-45278586D01*
X64529276Y-45279724D01*
X64533685Y-45280246D01*
X64533691Y-45280247D01*
X64711403Y-45301280D01*
X64804706Y-45312323D01*
X65081982Y-45305789D01*
X65190780Y-45287680D01*
X65351181Y-45260982D01*
X65351185Y-45260981D01*
X65355571Y-45260251D01*
X65359812Y-45258910D01*
X65359815Y-45258909D01*
X65615768Y-45177962D01*
X65615770Y-45177961D01*
X65620014Y-45176619D01*
X65624025Y-45174693D01*
X65624030Y-45174691D01*
X65866016Y-45058491D01*
X65866017Y-45058490D01*
X65870035Y-45056561D01*
X66088300Y-44910721D01*
X66096937Y-44904950D01*
X66096941Y-44904947D01*
X66100645Y-44902472D01*
X66307243Y-44717427D01*
X66485707Y-44505118D01*
X66632476Y-44269782D01*
X66744622Y-44016113D01*
X66762704Y-43952001D01*
X66787222Y-43865064D01*
X66819907Y-43749173D01*
X66833697Y-43646507D01*
X66856401Y-43477471D01*
X66856402Y-43477463D01*
X66856828Y-43474289D01*
X66857431Y-43455100D01*
X66860602Y-43354222D01*
X66860602Y-43354217D01*
X66860703Y-43351000D01*
X66841114Y-43074340D01*
X66782740Y-42803200D01*
X66686743Y-42542990D01*
X66658859Y-42491311D01*
X66557153Y-42302818D01*
X66555040Y-42298902D01*
X66390259Y-42075807D01*
X66387140Y-42072638D01*
X66387136Y-42072634D01*
X66294315Y-41978343D01*
X66195688Y-41878155D01*
X66192148Y-41875453D01*
X65978753Y-41712595D01*
X65978749Y-41712592D01*
X65975208Y-41709890D01*
X65733219Y-41574369D01*
X65729070Y-41572764D01*
X65729066Y-41572762D01*
X65573864Y-41512720D01*
X65474549Y-41474298D01*
X65470224Y-41473295D01*
X65470219Y-41473294D01*
X65361929Y-41448194D01*
X65204360Y-41411671D01*
X65121910Y-41404530D01*
X65055769Y-41378725D01*
X65014079Y-41321257D01*
X65010077Y-41250374D01*
X65045032Y-41188579D01*
X65107848Y-41155492D01*
X65132782Y-41153000D01*
X108968657Y-41153000D01*
X109036778Y-41173002D01*
X109083271Y-41226658D01*
X109093375Y-41296932D01*
X109063881Y-41361512D01*
X109057752Y-41368095D01*
X107021252Y-43404595D01*
X106958940Y-43438621D01*
X106932157Y-43441500D01*
X106344866Y-43441500D01*
X106282684Y-43448255D01*
X106146295Y-43499385D01*
X106029739Y-43586739D01*
X106024358Y-43593919D01*
X106023689Y-43594588D01*
X105961377Y-43628614D01*
X105934594Y-43631493D01*
X105871566Y-43631493D01*
X105803445Y-43611491D01*
X105770742Y-43581061D01*
X105756261Y-43561739D01*
X105639705Y-43474385D01*
X105503316Y-43423255D01*
X105441134Y-43416500D01*
X103644866Y-43416500D01*
X103582684Y-43423255D01*
X103446295Y-43474385D01*
X103329739Y-43561739D01*
X103242385Y-43678295D01*
X103191255Y-43814684D01*
X103184500Y-43876866D01*
X103184500Y-45673134D01*
X103191255Y-45735316D01*
X103242385Y-45871705D01*
X103329739Y-45988261D01*
X103446295Y-46075615D01*
X103582684Y-46126745D01*
X103644866Y-46133500D01*
X105441134Y-46133500D01*
X105503316Y-46126745D01*
X105639705Y-46075615D01*
X105756261Y-45988261D01*
X105770750Y-45968928D01*
X105827608Y-45926413D01*
X105871576Y-45918493D01*
X105895687Y-45918493D01*
X105963808Y-45938495D01*
X105996513Y-45968928D01*
X105999695Y-45973173D01*
X106029739Y-46013261D01*
X106146295Y-46100615D01*
X106282684Y-46151745D01*
X106344866Y-46158500D01*
X108141134Y-46158500D01*
X108203316Y-46151745D01*
X108339705Y-46100615D01*
X108456261Y-46013261D01*
X108543615Y-45896705D01*
X108594745Y-45760316D01*
X108601500Y-45698134D01*
X108601500Y-45110843D01*
X108621502Y-45042722D01*
X108638401Y-45021752D01*
X109444807Y-44215347D01*
X109507117Y-44181323D01*
X109577933Y-44186388D01*
X109634768Y-44228935D01*
X109659579Y-44295455D01*
X109659900Y-44304444D01*
X109659900Y-45711734D01*
X109666655Y-45773916D01*
X109717785Y-45910305D01*
X109805139Y-46026861D01*
X109921695Y-46114215D01*
X110058084Y-46165345D01*
X110120266Y-46172100D01*
X111916534Y-46172100D01*
X111978716Y-46165345D01*
X112115105Y-46114215D01*
X112231661Y-46026861D01*
X112319015Y-45910305D01*
X112343808Y-45844171D01*
X112362998Y-45792982D01*
X112405640Y-45736218D01*
X112472202Y-45711518D01*
X112541550Y-45726726D01*
X112576217Y-45754714D01*
X112604650Y-45787538D01*
X112776526Y-45930232D01*
X112969400Y-46042938D01*
X113178092Y-46122630D01*
X113183160Y-46123661D01*
X113183163Y-46123662D01*
X113252099Y-46137687D01*
X113396997Y-46167167D01*
X113402172Y-46167357D01*
X113402174Y-46167357D01*
X113615073Y-46175164D01*
X113615077Y-46175164D01*
X113620237Y-46175353D01*
X113625357Y-46174697D01*
X113625359Y-46174697D01*
X113836688Y-46147625D01*
X113836689Y-46147625D01*
X113841816Y-46146968D01*
X113887937Y-46133131D01*
X114050829Y-46084261D01*
X114050834Y-46084259D01*
X114055784Y-46082774D01*
X114256394Y-45984496D01*
X114438260Y-45854773D01*
X114455565Y-45837529D01*
X114566755Y-45726726D01*
X114596496Y-45697089D01*
X114607676Y-45681531D01*
X114726853Y-45515677D01*
X114728176Y-45516628D01*
X114775045Y-45473457D01*
X114844980Y-45461225D01*
X114910426Y-45488744D01*
X114938275Y-45520594D01*
X114998387Y-45618688D01*
X115144650Y-45787538D01*
X115316526Y-45930232D01*
X115509400Y-46042938D01*
X115718092Y-46122630D01*
X115723160Y-46123661D01*
X115723163Y-46123662D01*
X115792099Y-46137687D01*
X115936997Y-46167167D01*
X115942172Y-46167357D01*
X115942174Y-46167357D01*
X116155073Y-46175164D01*
X116155077Y-46175164D01*
X116160237Y-46175353D01*
X116165357Y-46174697D01*
X116165359Y-46174697D01*
X116376688Y-46147625D01*
X116376689Y-46147625D01*
X116381816Y-46146968D01*
X116427937Y-46133131D01*
X116590829Y-46084261D01*
X116590834Y-46084259D01*
X116595784Y-46082774D01*
X116796394Y-45984496D01*
X116978260Y-45854773D01*
X116995565Y-45837529D01*
X117106755Y-45726726D01*
X117136496Y-45697089D01*
X117147676Y-45681531D01*
X117263835Y-45519877D01*
X117266853Y-45515677D01*
X117271145Y-45506994D01*
X117363536Y-45320053D01*
X117363537Y-45320051D01*
X117365830Y-45315411D01*
X117430770Y-45101669D01*
X117459929Y-44880190D01*
X117461556Y-44813600D01*
X117443252Y-44590961D01*
X117388831Y-44374302D01*
X117299754Y-44169440D01*
X117203203Y-44020195D01*
X117181222Y-43986217D01*
X117181220Y-43986214D01*
X117178414Y-43981877D01*
X117028070Y-43816651D01*
X117024019Y-43813452D01*
X117024015Y-43813448D01*
X116856814Y-43681400D01*
X116856810Y-43681398D01*
X116852759Y-43678198D01*
X116839918Y-43671109D01*
X116777223Y-43636500D01*
X116657189Y-43570238D01*
X116652320Y-43568514D01*
X116652316Y-43568512D01*
X116451487Y-43497395D01*
X116451483Y-43497394D01*
X116446612Y-43495669D01*
X116441519Y-43494762D01*
X116441516Y-43494761D01*
X116231773Y-43457400D01*
X116231767Y-43457399D01*
X116226684Y-43456494D01*
X116152852Y-43455592D01*
X116008481Y-43453828D01*
X116008479Y-43453828D01*
X116003311Y-43453765D01*
X115782491Y-43487555D01*
X115570156Y-43556957D01*
X115543479Y-43570844D01*
X115392168Y-43649612D01*
X115372007Y-43660107D01*
X115367874Y-43663210D01*
X115367871Y-43663212D01*
X115200903Y-43788575D01*
X115193365Y-43794235D01*
X115173494Y-43815029D01*
X115055597Y-43938401D01*
X115039029Y-43955738D01*
X114931601Y-44113221D01*
X114876693Y-44158221D01*
X114806168Y-44166392D01*
X114742421Y-44135138D01*
X114721724Y-44110654D01*
X114641222Y-43986217D01*
X114641220Y-43986214D01*
X114638414Y-43981877D01*
X114488070Y-43816651D01*
X114484019Y-43813452D01*
X114484015Y-43813448D01*
X114316814Y-43681400D01*
X114316810Y-43681398D01*
X114312759Y-43678198D01*
X114299918Y-43671109D01*
X114237223Y-43636500D01*
X114117189Y-43570238D01*
X114112320Y-43568514D01*
X114112316Y-43568512D01*
X113911487Y-43497395D01*
X113911483Y-43497394D01*
X113906612Y-43495669D01*
X113901519Y-43494762D01*
X113901516Y-43494761D01*
X113691773Y-43457400D01*
X113691767Y-43457399D01*
X113686684Y-43456494D01*
X113612852Y-43455592D01*
X113468481Y-43453828D01*
X113468479Y-43453828D01*
X113463311Y-43453765D01*
X113242491Y-43487555D01*
X113030156Y-43556957D01*
X113003479Y-43570844D01*
X112852168Y-43649612D01*
X112832007Y-43660107D01*
X112827874Y-43663210D01*
X112827871Y-43663212D01*
X112660903Y-43788575D01*
X112653365Y-43794235D01*
X112596937Y-43853284D01*
X112572683Y-43878664D01*
X112511159Y-43914094D01*
X112440246Y-43910637D01*
X112382460Y-43869391D01*
X112363607Y-43835843D01*
X112322167Y-43725303D01*
X112319015Y-43716895D01*
X112231661Y-43600339D01*
X112115105Y-43512985D01*
X111978716Y-43461855D01*
X111916534Y-43455100D01*
X110509244Y-43455100D01*
X110441123Y-43435098D01*
X110394630Y-43381442D01*
X110384526Y-43311168D01*
X110414020Y-43246588D01*
X110420149Y-43240005D01*
X110639749Y-43020405D01*
X110702061Y-42986379D01*
X110728844Y-42983500D01*
X153194157Y-42983500D01*
X153262278Y-43003502D01*
X153283252Y-43020405D01*
X153489252Y-43226405D01*
X153523278Y-43288717D01*
X153518213Y-43359532D01*
X153475666Y-43416368D01*
X153409146Y-43441179D01*
X153400157Y-43441500D01*
X152621866Y-43441500D01*
X152559684Y-43448255D01*
X152423295Y-43499385D01*
X152306739Y-43586739D01*
X152301358Y-43593919D01*
X152301357Y-43593920D01*
X152223826Y-43697369D01*
X152166967Y-43739884D01*
X152096148Y-43744910D01*
X152033855Y-43710850D01*
X152022174Y-43697369D01*
X151944643Y-43593920D01*
X151944642Y-43593919D01*
X151939261Y-43586739D01*
X151822705Y-43499385D01*
X151686316Y-43448255D01*
X151624134Y-43441500D01*
X149827866Y-43441500D01*
X149765684Y-43448255D01*
X149629295Y-43499385D01*
X149512739Y-43586739D01*
X149507358Y-43593919D01*
X149507357Y-43593920D01*
X149429826Y-43697369D01*
X149372967Y-43739884D01*
X149302148Y-43744910D01*
X149239855Y-43710850D01*
X149228174Y-43697369D01*
X149150643Y-43593920D01*
X149150642Y-43593919D01*
X149145261Y-43586739D01*
X149028705Y-43499385D01*
X148892316Y-43448255D01*
X148830134Y-43441500D01*
X147033866Y-43441500D01*
X146971684Y-43448255D01*
X146835295Y-43499385D01*
X146718739Y-43586739D01*
X146713358Y-43593919D01*
X146713357Y-43593920D01*
X146635826Y-43697369D01*
X146578967Y-43739884D01*
X146508148Y-43744910D01*
X146445855Y-43710850D01*
X146434174Y-43697369D01*
X146356643Y-43593920D01*
X146356642Y-43593919D01*
X146351261Y-43586739D01*
X146234705Y-43499385D01*
X146098316Y-43448255D01*
X146036134Y-43441500D01*
X144239866Y-43441500D01*
X144177684Y-43448255D01*
X144041295Y-43499385D01*
X143924739Y-43586739D01*
X143837385Y-43703295D01*
X143786255Y-43839684D01*
X143779500Y-43901866D01*
X143779500Y-45698134D01*
X143786255Y-45760316D01*
X143837385Y-45896705D01*
X143924739Y-46013261D01*
X144041295Y-46100615D01*
X144049704Y-46103767D01*
X144049705Y-46103768D01*
X144158451Y-46144535D01*
X144215216Y-46187176D01*
X144239916Y-46253738D01*
X144224709Y-46323087D01*
X144205316Y-46349568D01*
X144089622Y-46470635D01*
X144078629Y-46482138D01*
X144075715Y-46486410D01*
X144075714Y-46486411D01*
X144046195Y-46529684D01*
X143952743Y-46666680D01*
X143937003Y-46700589D01*
X143863074Y-46859857D01*
X143858688Y-46869305D01*
X143798989Y-47084570D01*
X143775251Y-47306695D01*
X143775548Y-47311848D01*
X143775548Y-47311851D01*
X143781011Y-47406590D01*
X143788110Y-47529715D01*
X143789247Y-47534761D01*
X143789248Y-47534767D01*
X143794914Y-47559908D01*
X143837222Y-47747639D01*
X143921266Y-47954616D01*
X143923965Y-47959020D01*
X144033414Y-48137625D01*
X144037987Y-48145088D01*
X144184250Y-48313938D01*
X144356126Y-48456632D01*
X144377945Y-48469382D01*
X144429445Y-48499476D01*
X144478169Y-48551114D01*
X144491240Y-48620897D01*
X144464509Y-48686669D01*
X144424055Y-48720027D01*
X144411607Y-48726507D01*
X144407474Y-48729610D01*
X144407471Y-48729612D01*
X144237100Y-48857530D01*
X144232965Y-48860635D01*
X144078629Y-49022138D01*
X143952743Y-49206680D01*
X143858688Y-49409305D01*
X143798989Y-49624570D01*
X143775251Y-49846695D01*
X143775548Y-49851848D01*
X143775548Y-49851851D01*
X143781011Y-49946590D01*
X143788110Y-50069715D01*
X143789247Y-50074761D01*
X143789248Y-50074767D01*
X143806025Y-50149210D01*
X143837222Y-50287639D01*
X143921266Y-50494616D01*
X144037987Y-50685088D01*
X144184250Y-50853938D01*
X144356126Y-50996632D01*
X144549000Y-51109338D01*
X144757692Y-51189030D01*
X144762760Y-51190061D01*
X144762763Y-51190062D01*
X144870017Y-51211883D01*
X144976597Y-51233567D01*
X144981772Y-51233757D01*
X144981774Y-51233757D01*
X145194673Y-51241564D01*
X145194677Y-51241564D01*
X145199837Y-51241753D01*
X145204957Y-51241097D01*
X145204959Y-51241097D01*
X145416288Y-51214025D01*
X145416289Y-51214025D01*
X145421416Y-51213368D01*
X145457094Y-51202664D01*
X145630429Y-51150661D01*
X145630434Y-51150659D01*
X145635384Y-51149174D01*
X145835994Y-51050896D01*
X146017860Y-50921173D01*
X146031443Y-50907638D01*
X146172435Y-50767137D01*
X146176096Y-50763489D01*
X146235594Y-50680689D01*
X146303435Y-50586277D01*
X146306453Y-50582077D01*
X146392170Y-50408642D01*
X146403136Y-50386453D01*
X146403137Y-50386451D01*
X146405430Y-50381811D01*
X146414998Y-50350319D01*
X146453939Y-50290956D01*
X146518794Y-50262069D01*
X146588970Y-50272831D01*
X146642188Y-50319824D01*
X146652297Y-50339542D01*
X146715266Y-50494616D01*
X146831987Y-50685088D01*
X146978250Y-50853938D01*
X147150126Y-50996632D01*
X147343000Y-51109338D01*
X147551692Y-51189030D01*
X147556760Y-51190061D01*
X147556763Y-51190062D01*
X147664017Y-51211883D01*
X147770597Y-51233567D01*
X147775772Y-51233757D01*
X147775774Y-51233757D01*
X147988673Y-51241564D01*
X147988677Y-51241564D01*
X147993837Y-51241753D01*
X147998957Y-51241097D01*
X147998959Y-51241097D01*
X148210288Y-51214025D01*
X148210289Y-51214025D01*
X148215416Y-51213368D01*
X148251094Y-51202664D01*
X148424429Y-51150661D01*
X148424434Y-51150659D01*
X148429384Y-51149174D01*
X148629994Y-51050896D01*
X148811860Y-50921173D01*
X148825443Y-50907638D01*
X148966435Y-50767137D01*
X148970096Y-50763489D01*
X149029594Y-50680689D01*
X149097435Y-50586277D01*
X149100453Y-50582077D01*
X149186170Y-50408642D01*
X149197136Y-50386453D01*
X149197137Y-50386451D01*
X149199430Y-50381811D01*
X149208998Y-50350319D01*
X149247939Y-50290956D01*
X149312794Y-50262069D01*
X149382970Y-50272831D01*
X149436188Y-50319824D01*
X149446297Y-50339542D01*
X149509266Y-50494616D01*
X149625987Y-50685088D01*
X149772250Y-50853938D01*
X149944126Y-50996632D01*
X150137000Y-51109338D01*
X150345692Y-51189030D01*
X150350760Y-51190061D01*
X150350763Y-51190062D01*
X150458017Y-51211883D01*
X150564597Y-51233567D01*
X150569772Y-51233757D01*
X150569774Y-51233757D01*
X150782673Y-51241564D01*
X150782677Y-51241564D01*
X150787837Y-51241753D01*
X150792957Y-51241097D01*
X150792959Y-51241097D01*
X151004288Y-51214025D01*
X151004289Y-51214025D01*
X151009416Y-51213368D01*
X151045094Y-51202664D01*
X151218429Y-51150661D01*
X151218434Y-51150659D01*
X151223384Y-51149174D01*
X151423994Y-51050896D01*
X151605860Y-50921173D01*
X151619443Y-50907638D01*
X151760435Y-50767137D01*
X151764096Y-50763489D01*
X151823594Y-50680689D01*
X151891435Y-50586277D01*
X151894453Y-50582077D01*
X151980170Y-50408642D01*
X151991136Y-50386453D01*
X151991137Y-50386451D01*
X151993430Y-50381811D01*
X152002998Y-50350319D01*
X152041939Y-50290956D01*
X152106794Y-50262069D01*
X152176970Y-50272831D01*
X152230188Y-50319824D01*
X152240297Y-50339542D01*
X152303266Y-50494616D01*
X152419987Y-50685088D01*
X152566250Y-50853938D01*
X152738126Y-50996632D01*
X152931000Y-51109338D01*
X153139692Y-51189030D01*
X153144760Y-51190061D01*
X153144763Y-51190062D01*
X153252017Y-51211883D01*
X153358597Y-51233567D01*
X153363772Y-51233757D01*
X153363774Y-51233757D01*
X153576673Y-51241564D01*
X153576677Y-51241564D01*
X153581837Y-51241753D01*
X153586957Y-51241097D01*
X153586959Y-51241097D01*
X153798288Y-51214025D01*
X153798289Y-51214025D01*
X153803416Y-51213368D01*
X153839094Y-51202664D01*
X154012429Y-51150661D01*
X154012434Y-51150659D01*
X154017384Y-51149174D01*
X154217994Y-51050896D01*
X154399860Y-50921173D01*
X154413443Y-50907638D01*
X154554435Y-50767137D01*
X154558096Y-50763489D01*
X154617594Y-50680689D01*
X154685435Y-50586277D01*
X154688453Y-50582077D01*
X154774170Y-50408642D01*
X154785136Y-50386453D01*
X154785137Y-50386451D01*
X154787430Y-50381811D01*
X154852370Y-50168069D01*
X154881529Y-49946590D01*
X154881808Y-49935186D01*
X154883074Y-49883365D01*
X154883074Y-49883361D01*
X154883156Y-49880000D01*
X154864852Y-49657361D01*
X154810431Y-49440702D01*
X154721354Y-49235840D01*
X154600014Y-49048277D01*
X154449670Y-48883051D01*
X154445619Y-48879852D01*
X154445615Y-48879848D01*
X154278414Y-48747800D01*
X154278410Y-48747798D01*
X154274359Y-48744598D01*
X154233053Y-48721796D01*
X154183084Y-48671364D01*
X154168312Y-48601921D01*
X154193428Y-48535516D01*
X154220780Y-48508909D01*
X154289303Y-48460032D01*
X154399860Y-48381173D01*
X154558096Y-48223489D01*
X154577135Y-48196994D01*
X154685435Y-48046277D01*
X154688453Y-48042077D01*
X154710644Y-47997178D01*
X154785136Y-47846453D01*
X154785137Y-47846451D01*
X154787430Y-47841811D01*
X154852370Y-47628069D01*
X154881529Y-47406590D01*
X154883156Y-47340000D01*
X154864852Y-47117361D01*
X154810431Y-46900702D01*
X154721354Y-46695840D01*
X154600014Y-46508277D01*
X154596532Y-46504450D01*
X154452798Y-46346488D01*
X154421746Y-46282642D01*
X154430141Y-46212143D01*
X154475317Y-46157375D01*
X154501761Y-46143706D01*
X154608297Y-46103767D01*
X154616705Y-46100615D01*
X154733261Y-46013261D01*
X154820615Y-45896705D01*
X154871745Y-45760316D01*
X154878500Y-45698134D01*
X154878500Y-44919843D01*
X154898502Y-44851722D01*
X154952158Y-44805229D01*
X155022432Y-44795125D01*
X155087012Y-44824619D01*
X155093595Y-44830748D01*
X155819595Y-45556748D01*
X155853621Y-45619060D01*
X155856500Y-45645843D01*
X155856500Y-64438359D01*
X155836498Y-64506480D01*
X155819595Y-64527454D01*
X153868691Y-66478358D01*
X153811375Y-66510393D01*
X153811493Y-66510755D01*
X153809650Y-66511357D01*
X153809648Y-66511358D01*
X153806577Y-66512362D01*
X153806576Y-66512362D01*
X153762004Y-66526931D01*
X153599158Y-66580157D01*
X153401009Y-66683307D01*
X153396876Y-66686410D01*
X153396873Y-66686412D01*
X153226502Y-66814330D01*
X153222367Y-66817435D01*
X153218795Y-66821173D01*
X153111131Y-66933837D01*
X153068031Y-66978938D01*
X152960603Y-67136421D01*
X152905695Y-67181421D01*
X152835170Y-67189592D01*
X152771423Y-67158338D01*
X152750726Y-67133854D01*
X152670224Y-67009417D01*
X152670222Y-67009414D01*
X152667416Y-67005077D01*
X152517072Y-66839851D01*
X152513021Y-66836652D01*
X152513017Y-66836648D01*
X152345816Y-66704600D01*
X152345812Y-66704598D01*
X152341761Y-66701398D01*
X152146191Y-66593438D01*
X152141322Y-66591714D01*
X152141318Y-66591712D01*
X151940489Y-66520595D01*
X151940485Y-66520594D01*
X151935614Y-66518869D01*
X151930521Y-66517962D01*
X151930518Y-66517961D01*
X151720775Y-66480600D01*
X151720769Y-66480599D01*
X151715686Y-66479694D01*
X151641854Y-66478792D01*
X151497483Y-66477028D01*
X151497481Y-66477028D01*
X151492313Y-66476965D01*
X151271493Y-66510755D01*
X151059158Y-66580157D01*
X150861009Y-66683307D01*
X150856876Y-66686410D01*
X150856873Y-66686412D01*
X150686502Y-66814330D01*
X150682367Y-66817435D01*
X150625939Y-66876484D01*
X150601685Y-66901864D01*
X150540161Y-66937294D01*
X150469248Y-66933837D01*
X150411462Y-66892591D01*
X150392609Y-66859043D01*
X150351169Y-66748503D01*
X150348017Y-66740095D01*
X150260663Y-66623539D01*
X150144107Y-66536185D01*
X150007718Y-66485055D01*
X149945536Y-66478300D01*
X148149268Y-66478300D01*
X148087086Y-66485055D01*
X147950697Y-66536185D01*
X147834141Y-66623539D01*
X147746787Y-66740095D01*
X147695657Y-66876484D01*
X147688902Y-66938666D01*
X147688902Y-68734934D01*
X147695657Y-68797116D01*
X147746787Y-68933505D01*
X147834141Y-69050061D01*
X147950697Y-69137415D01*
X148087086Y-69188545D01*
X148149268Y-69195300D01*
X149945536Y-69195300D01*
X150007718Y-69188545D01*
X150144107Y-69137415D01*
X150260663Y-69050061D01*
X150348017Y-68933505D01*
X150370201Y-68874329D01*
X150392000Y-68816182D01*
X150434642Y-68759418D01*
X150501204Y-68734718D01*
X150570552Y-68749926D01*
X150605219Y-68777914D01*
X150633652Y-68810738D01*
X150805528Y-68953432D01*
X150998402Y-69066138D01*
X151207094Y-69145830D01*
X151212162Y-69146861D01*
X151212165Y-69146862D01*
X151319419Y-69168683D01*
X151425999Y-69190367D01*
X151431174Y-69190557D01*
X151431176Y-69190557D01*
X151644075Y-69198364D01*
X151644079Y-69198364D01*
X151649239Y-69198553D01*
X151654359Y-69197897D01*
X151654361Y-69197897D01*
X151865690Y-69170825D01*
X151865691Y-69170825D01*
X151870818Y-69170168D01*
X151875768Y-69168683D01*
X152079831Y-69107461D01*
X152079836Y-69107459D01*
X152084786Y-69105974D01*
X152285396Y-69007696D01*
X152467262Y-68877973D01*
X152625498Y-68720289D01*
X152755855Y-68538877D01*
X152757178Y-68539828D01*
X152804047Y-68496657D01*
X152873982Y-68484425D01*
X152939428Y-68511944D01*
X152967277Y-68543794D01*
X153027389Y-68641888D01*
X153173652Y-68810738D01*
X153345528Y-68953432D01*
X153538402Y-69066138D01*
X153747094Y-69145830D01*
X153752162Y-69146861D01*
X153752165Y-69146862D01*
X153859419Y-69168683D01*
X153965999Y-69190367D01*
X153971174Y-69190557D01*
X153971176Y-69190557D01*
X154184075Y-69198364D01*
X154184079Y-69198364D01*
X154189239Y-69198553D01*
X154194359Y-69197897D01*
X154194361Y-69197897D01*
X154405690Y-69170825D01*
X154405691Y-69170825D01*
X154410818Y-69170168D01*
X154415768Y-69168683D01*
X154619831Y-69107461D01*
X154619836Y-69107459D01*
X154624786Y-69105974D01*
X154825396Y-69007696D01*
X155007262Y-68877973D01*
X155165498Y-68720289D01*
X155295855Y-68538877D01*
X155316722Y-68496657D01*
X155392538Y-68343253D01*
X155392539Y-68343251D01*
X155394832Y-68338611D01*
X155452040Y-68150318D01*
X155483503Y-68097852D01*
X157778312Y-65803044D01*
X157784330Y-65797407D01*
X157812461Y-65772737D01*
X157833019Y-65754708D01*
X157839333Y-65746699D01*
X157887782Y-65685243D01*
X157889856Y-65682682D01*
X157942730Y-65619107D01*
X157942734Y-65619101D01*
X157946426Y-65614662D01*
X157949251Y-65609617D01*
X157951354Y-65606557D01*
X157957535Y-65597307D01*
X157959552Y-65594201D01*
X157963128Y-65589665D01*
X157994310Y-65530399D01*
X158004308Y-65511395D01*
X158005881Y-65508497D01*
X158008515Y-65503794D01*
X158049114Y-65431298D01*
X158050967Y-65425838D01*
X158052437Y-65422538D01*
X158056900Y-65412149D01*
X158058293Y-65408786D01*
X158060982Y-65403675D01*
X158064869Y-65391159D01*
X158083072Y-65332534D01*
X158087222Y-65319172D01*
X158088215Y-65316113D01*
X158116669Y-65232290D01*
X158117498Y-65226576D01*
X158118341Y-65223064D01*
X158120833Y-65212051D01*
X158121591Y-65208484D01*
X158123304Y-65202968D01*
X158126345Y-65177279D01*
X158133703Y-65115104D01*
X158134134Y-65111833D01*
X158146825Y-65024305D01*
X158143597Y-64942148D01*
X158143500Y-64937201D01*
X158143500Y-45162794D01*
X158143770Y-45154553D01*
X158148005Y-45089938D01*
X158150597Y-45090108D01*
X158165969Y-45032176D01*
X158218386Y-44984292D01*
X158288371Y-44972348D01*
X158338706Y-44989547D01*
X158522988Y-45100494D01*
X158527083Y-45102228D01*
X158527085Y-45102229D01*
X158774286Y-45206905D01*
X158774293Y-45206907D01*
X158778387Y-45208641D01*
X158877160Y-45234830D01*
X159042179Y-45278585D01*
X159042184Y-45278586D01*
X159046476Y-45279724D01*
X159050885Y-45280246D01*
X159050891Y-45280247D01*
X159228603Y-45301280D01*
X159321906Y-45312323D01*
X159599182Y-45305789D01*
X159707980Y-45287680D01*
X159868381Y-45260982D01*
X159868385Y-45260981D01*
X159872771Y-45260251D01*
X159877012Y-45258910D01*
X159877015Y-45258909D01*
X160132968Y-45177962D01*
X160132970Y-45177961D01*
X160137214Y-45176619D01*
X160141225Y-45174693D01*
X160141230Y-45174691D01*
X160383216Y-45058491D01*
X160383217Y-45058490D01*
X160387235Y-45056561D01*
X160605500Y-44910721D01*
X160614137Y-44904950D01*
X160614141Y-44904947D01*
X160617845Y-44902472D01*
X160824443Y-44717427D01*
X161002907Y-44505118D01*
X161149676Y-44269782D01*
X161261822Y-44016113D01*
X161279904Y-43952001D01*
X161304422Y-43865064D01*
X161337107Y-43749173D01*
X161369521Y-43507844D01*
X161398414Y-43442992D01*
X161457781Y-43404056D01*
X161528774Y-43403397D01*
X161588854Y-43441224D01*
X161618946Y-43505528D01*
X161620400Y-43524617D01*
X161620400Y-77712337D01*
X161600398Y-77780458D01*
X161546742Y-77826951D01*
X161476468Y-77837055D01*
X161411888Y-77807561D01*
X161373504Y-77747835D01*
X161368715Y-77721236D01*
X161358629Y-77578792D01*
X161358314Y-77574340D01*
X161299940Y-77303200D01*
X161203943Y-77042990D01*
X161176059Y-76991311D01*
X161074353Y-76802818D01*
X161072240Y-76798902D01*
X160907459Y-76575807D01*
X160904340Y-76572638D01*
X160904336Y-76572634D01*
X160811515Y-76478343D01*
X160712888Y-76378155D01*
X160709348Y-76375453D01*
X160495953Y-76212595D01*
X160495949Y-76212592D01*
X160492408Y-76209890D01*
X160250419Y-76074369D01*
X160246270Y-76072764D01*
X160246266Y-76072762D01*
X160091064Y-76012720D01*
X159991749Y-75974298D01*
X159987424Y-75973295D01*
X159987419Y-75973294D01*
X159879129Y-75948194D01*
X159721560Y-75911671D01*
X159445241Y-75887739D01*
X159440806Y-75887983D01*
X159440802Y-75887983D01*
X159172751Y-75902735D01*
X159172744Y-75902736D01*
X159168308Y-75902980D01*
X159033317Y-75929831D01*
X158900656Y-75956219D01*
X158900651Y-75956220D01*
X158896284Y-75957089D01*
X158892081Y-75958565D01*
X158638807Y-76047508D01*
X158638804Y-76047509D01*
X158634599Y-76048986D01*
X158630646Y-76051039D01*
X158630640Y-76051042D01*
X158491134Y-76123510D01*
X158388473Y-76176838D01*
X158384858Y-76179421D01*
X158384852Y-76179425D01*
X158242071Y-76281458D01*
X158162816Y-76338095D01*
X157962132Y-76529538D01*
X157790425Y-76747348D01*
X157788193Y-76751190D01*
X157788190Y-76751195D01*
X157653358Y-76983324D01*
X157653355Y-76983330D01*
X157651120Y-76987178D01*
X157649446Y-76991311D01*
X157548671Y-77240112D01*
X157548668Y-77240120D01*
X157546998Y-77244244D01*
X157480135Y-77513417D01*
X157451866Y-77789325D01*
X157462755Y-78066464D01*
X157512584Y-78339303D01*
X157600360Y-78602400D01*
X157602352Y-78606387D01*
X157602353Y-78606389D01*
X157683996Y-78769782D01*
X157724330Y-78850504D01*
X157882023Y-79078666D01*
X157885045Y-79081935D01*
X158067274Y-79279070D01*
X158067279Y-79279075D01*
X158070290Y-79282332D01*
X158285375Y-79457439D01*
X158522988Y-79600494D01*
X158527083Y-79602228D01*
X158527085Y-79602229D01*
X158774286Y-79706905D01*
X158774293Y-79706907D01*
X158778387Y-79708641D01*
X158877160Y-79734830D01*
X159042179Y-79778585D01*
X159042184Y-79778586D01*
X159046476Y-79779724D01*
X159050885Y-79780246D01*
X159050891Y-79780247D01*
X159231063Y-79801571D01*
X159321906Y-79812323D01*
X159599182Y-79805789D01*
X159685418Y-79791435D01*
X159868381Y-79760982D01*
X159868385Y-79760981D01*
X159872771Y-79760251D01*
X159877012Y-79758910D01*
X159877015Y-79758909D01*
X160132968Y-79677962D01*
X160132970Y-79677961D01*
X160137214Y-79676619D01*
X160141225Y-79674693D01*
X160141230Y-79674691D01*
X160383216Y-79558491D01*
X160383217Y-79558490D01*
X160387235Y-79556561D01*
X160539793Y-79454625D01*
X160614137Y-79404950D01*
X160614141Y-79404947D01*
X160617845Y-79402472D01*
X160824443Y-79217427D01*
X161002907Y-79005118D01*
X161149676Y-78769782D01*
X161261822Y-78516113D01*
X161337107Y-78249173D01*
X161369521Y-78007844D01*
X161398414Y-77942992D01*
X161457781Y-77904056D01*
X161528774Y-77903397D01*
X161588854Y-77941224D01*
X161618946Y-78005528D01*
X161620400Y-78024617D01*
X161620400Y-80011000D01*
X161600398Y-80079121D01*
X161546742Y-80125614D01*
X161494400Y-80137000D01*
X62762400Y-80137000D01*
X62694279Y-80116998D01*
X62647786Y-80063342D01*
X62636400Y-80011000D01*
X62636400Y-77789325D01*
X62934666Y-77789325D01*
X62945555Y-78066464D01*
X62995384Y-78339303D01*
X63083160Y-78602400D01*
X63085152Y-78606387D01*
X63085153Y-78606389D01*
X63166796Y-78769782D01*
X63207130Y-78850504D01*
X63364823Y-79078666D01*
X63367845Y-79081935D01*
X63550074Y-79279070D01*
X63550079Y-79279075D01*
X63553090Y-79282332D01*
X63768175Y-79457439D01*
X64005788Y-79600494D01*
X64009883Y-79602228D01*
X64009885Y-79602229D01*
X64257086Y-79706905D01*
X64257093Y-79706907D01*
X64261187Y-79708641D01*
X64359960Y-79734830D01*
X64524979Y-79778585D01*
X64524984Y-79778586D01*
X64529276Y-79779724D01*
X64533685Y-79780246D01*
X64533691Y-79780247D01*
X64713863Y-79801571D01*
X64804706Y-79812323D01*
X65081982Y-79805789D01*
X65168218Y-79791435D01*
X65351181Y-79760982D01*
X65351185Y-79760981D01*
X65355571Y-79760251D01*
X65359812Y-79758910D01*
X65359815Y-79758909D01*
X65615768Y-79677962D01*
X65615770Y-79677961D01*
X65620014Y-79676619D01*
X65624025Y-79674693D01*
X65624030Y-79674691D01*
X65866016Y-79558491D01*
X65866017Y-79558490D01*
X65870035Y-79556561D01*
X66022593Y-79454625D01*
X66096937Y-79404950D01*
X66096941Y-79404947D01*
X66100645Y-79402472D01*
X66307243Y-79217427D01*
X66485707Y-79005118D01*
X66632476Y-78769782D01*
X66744622Y-78516113D01*
X66819907Y-78249173D01*
X66845045Y-78062015D01*
X66856401Y-77977471D01*
X66856402Y-77977463D01*
X66856828Y-77974289D01*
X66857867Y-77941224D01*
X66860602Y-77854222D01*
X66860602Y-77854217D01*
X66860703Y-77851000D01*
X66841114Y-77574340D01*
X66782740Y-77303200D01*
X66686743Y-77042990D01*
X66658859Y-76991311D01*
X66557153Y-76802818D01*
X66555040Y-76798902D01*
X66390259Y-76575807D01*
X66387140Y-76572638D01*
X66387136Y-76572634D01*
X66294315Y-76478343D01*
X66195688Y-76378155D01*
X66192148Y-76375453D01*
X65978753Y-76212595D01*
X65978749Y-76212592D01*
X65975208Y-76209890D01*
X65733219Y-76074369D01*
X65729070Y-76072764D01*
X65729066Y-76072762D01*
X65573864Y-76012720D01*
X65474549Y-75974298D01*
X65470224Y-75973295D01*
X65470219Y-75973294D01*
X65361929Y-75948194D01*
X65204360Y-75911671D01*
X64928041Y-75887739D01*
X64923606Y-75887983D01*
X64923602Y-75887983D01*
X64655551Y-75902735D01*
X64655544Y-75902736D01*
X64651108Y-75902980D01*
X64516117Y-75929831D01*
X64383456Y-75956219D01*
X64383451Y-75956220D01*
X64379084Y-75957089D01*
X64374881Y-75958565D01*
X64121607Y-76047508D01*
X64121604Y-76047509D01*
X64117399Y-76048986D01*
X64113446Y-76051039D01*
X64113440Y-76051042D01*
X63973934Y-76123510D01*
X63871273Y-76176838D01*
X63867658Y-76179421D01*
X63867652Y-76179425D01*
X63724871Y-76281458D01*
X63645616Y-76338095D01*
X63444932Y-76529538D01*
X63273225Y-76747348D01*
X63270993Y-76751190D01*
X63270990Y-76751195D01*
X63136158Y-76983324D01*
X63136155Y-76983330D01*
X63133920Y-76987178D01*
X63132246Y-76991311D01*
X63031471Y-77240112D01*
X63031468Y-77240120D01*
X63029798Y-77244244D01*
X62962935Y-77513417D01*
X62934666Y-77789325D01*
X62636400Y-77789325D01*
X62636400Y-57373080D01*
X66018247Y-57373080D01*
X66026230Y-57634329D01*
X66027063Y-57638934D01*
X66027063Y-57638937D01*
X66040503Y-57713261D01*
X66072738Y-57891528D01*
X66074241Y-57895955D01*
X66155249Y-58134598D01*
X66155252Y-58134604D01*
X66156753Y-58139027D01*
X66276428Y-58371390D01*
X66279161Y-58375187D01*
X66279162Y-58375188D01*
X66424595Y-58577208D01*
X66429133Y-58583512D01*
X66611515Y-58770732D01*
X66615242Y-58773566D01*
X66615243Y-58773567D01*
X66652323Y-58801763D01*
X66694440Y-58858917D01*
X66698971Y-58929769D01*
X66659958Y-58996061D01*
X66571494Y-59075018D01*
X66404363Y-59275970D01*
X66401934Y-59279973D01*
X66288665Y-59466635D01*
X66268771Y-59499419D01*
X66167697Y-59740455D01*
X66103359Y-59993783D01*
X66102890Y-59998437D01*
X66102890Y-59998439D01*
X66102202Y-60005271D01*
X66094952Y-60077279D01*
X66094306Y-60083692D01*
X66093080Y-60091650D01*
X66092605Y-60095257D01*
X66091655Y-60099826D01*
X66091390Y-60104492D01*
X66090484Y-60120445D01*
X66090053Y-60125924D01*
X66085402Y-60172113D01*
X66081500Y-60210867D01*
X66081500Y-60275103D01*
X66081297Y-60282246D01*
X66077103Y-60356100D01*
X66077103Y-60356107D01*
X66076838Y-60360776D01*
X66086877Y-60470032D01*
X66087287Y-60474489D01*
X66087469Y-60476668D01*
X66095939Y-60590652D01*
X66096971Y-60595211D01*
X66097516Y-60597619D01*
X66100097Y-60613911D01*
X66100753Y-60621050D01*
X66101865Y-60625594D01*
X66127914Y-60732051D01*
X66128418Y-60734190D01*
X66153623Y-60845577D01*
X66155314Y-60849926D01*
X66155317Y-60849935D01*
X66156218Y-60852251D01*
X66161172Y-60867964D01*
X66162877Y-60874930D01*
X66164652Y-60879267D01*
X66164652Y-60879269D01*
X66206141Y-60980683D01*
X66206956Y-60982725D01*
X66244216Y-61078538D01*
X66248353Y-61089177D01*
X66250674Y-61093238D01*
X66251910Y-61095401D01*
X66259131Y-61110206D01*
X66261845Y-61116839D01*
X66320288Y-61215075D01*
X66321352Y-61216899D01*
X66373127Y-61307486D01*
X66378049Y-61316098D01*
X66382481Y-61321720D01*
X66391809Y-61335291D01*
X66395481Y-61341463D01*
X66398428Y-61345071D01*
X66398433Y-61345077D01*
X66467790Y-61429965D01*
X66469166Y-61431680D01*
X66533617Y-61513435D01*
X66539862Y-61521357D01*
X66596273Y-61574423D01*
X66616052Y-61593029D01*
X66618814Y-61595709D01*
X67804595Y-62781490D01*
X67838621Y-62843802D01*
X67841500Y-62870585D01*
X67841500Y-72045103D01*
X67841297Y-72052246D01*
X67837103Y-72126100D01*
X67837103Y-72126107D01*
X67836838Y-72130776D01*
X67837267Y-72135440D01*
X67847287Y-72244489D01*
X67847469Y-72246668D01*
X67855939Y-72360652D01*
X67856971Y-72365211D01*
X67857516Y-72367619D01*
X67860097Y-72383911D01*
X67860753Y-72391050D01*
X67861865Y-72395594D01*
X67887914Y-72502051D01*
X67888418Y-72504190D01*
X67890822Y-72514814D01*
X67913623Y-72615577D01*
X67915314Y-72619926D01*
X67915317Y-72619935D01*
X67916218Y-72622251D01*
X67921172Y-72637964D01*
X67922877Y-72644930D01*
X67924652Y-72649267D01*
X67924652Y-72649269D01*
X67966141Y-72750683D01*
X67966956Y-72752725D01*
X67980341Y-72787143D01*
X68008353Y-72859177D01*
X68010674Y-72863238D01*
X68011910Y-72865401D01*
X68019131Y-72880206D01*
X68021845Y-72886839D01*
X68080288Y-72985075D01*
X68081352Y-72986899D01*
X68138049Y-73086098D01*
X68142481Y-73091720D01*
X68151809Y-73105291D01*
X68155481Y-73111463D01*
X68158428Y-73115071D01*
X68158433Y-73115077D01*
X68227790Y-73199965D01*
X68229166Y-73201680D01*
X68287427Y-73275583D01*
X68299862Y-73291357D01*
X68316104Y-73306636D01*
X68376052Y-73363029D01*
X68378814Y-73365709D01*
X70132727Y-75119622D01*
X70137635Y-75124816D01*
X70190018Y-75183506D01*
X70193612Y-75186495D01*
X70193617Y-75186500D01*
X70277873Y-75256575D01*
X70279537Y-75257983D01*
X70366072Y-75332546D01*
X70370025Y-75335040D01*
X70372125Y-75336365D01*
X70385449Y-75346045D01*
X70390970Y-75350637D01*
X70394969Y-75353063D01*
X70394975Y-75353068D01*
X70488705Y-75409946D01*
X70490574Y-75411102D01*
X70504601Y-75419952D01*
X70587120Y-75472017D01*
X70591397Y-75473899D01*
X70591401Y-75473901D01*
X70593678Y-75474903D01*
X70608286Y-75482507D01*
X70614419Y-75486229D01*
X70618721Y-75488033D01*
X70618725Y-75488035D01*
X70719778Y-75530410D01*
X70721798Y-75531278D01*
X70737825Y-75538330D01*
X70826355Y-75577284D01*
X70830862Y-75578513D01*
X70830871Y-75578516D01*
X70833271Y-75579170D01*
X70848848Y-75584533D01*
X70855455Y-75587303D01*
X70859983Y-75588453D01*
X70859986Y-75588454D01*
X70966173Y-75615422D01*
X70968291Y-75615980D01*
X71078521Y-75646032D01*
X71083161Y-75646581D01*
X71083166Y-75646582D01*
X71085627Y-75646873D01*
X71101843Y-75649878D01*
X71108783Y-75651641D01*
X71148676Y-75655658D01*
X71222428Y-75663085D01*
X71224613Y-75663324D01*
X71312310Y-75673703D01*
X71338080Y-75676753D01*
X71442619Y-75673559D01*
X71446467Y-75673500D01*
X72732032Y-75673500D01*
X72739175Y-75673703D01*
X72813029Y-75677897D01*
X72813036Y-75677897D01*
X72817705Y-75678162D01*
X72931432Y-75667712D01*
X72933597Y-75667531D01*
X73047581Y-75659061D01*
X73054553Y-75657483D01*
X73070840Y-75654903D01*
X73077979Y-75654247D01*
X73104146Y-75647844D01*
X73188980Y-75627086D01*
X73191119Y-75626582D01*
X73243420Y-75614747D01*
X73302506Y-75601377D01*
X73306855Y-75599686D01*
X73306864Y-75599683D01*
X73309180Y-75598782D01*
X73324893Y-75593828D01*
X73327304Y-75593238D01*
X73327309Y-75593236D01*
X73331859Y-75592123D01*
X73336198Y-75590348D01*
X73437612Y-75548859D01*
X73439647Y-75548047D01*
X73442596Y-75546900D01*
X73488270Y-75538330D01*
X82540679Y-75538330D01*
X82612950Y-75561117D01*
X82692339Y-75616706D01*
X82747150Y-75646839D01*
X82888200Y-75683185D01*
X82960991Y-75680833D01*
X83024809Y-75678772D01*
X83024810Y-75678772D01*
X83033782Y-75678482D01*
X83042311Y-75675686D01*
X83042312Y-75675686D01*
X83163661Y-75635907D01*
X83163664Y-75635906D01*
X83172192Y-75633110D01*
X83278142Y-75560428D01*
X83349419Y-75538330D01*
X101452011Y-75538330D01*
X101524282Y-75561117D01*
X101606018Y-75618349D01*
X101615339Y-75624876D01*
X101618333Y-75626522D01*
X101660819Y-75649879D01*
X101670150Y-75655009D01*
X101811200Y-75691355D01*
X101883991Y-75689003D01*
X101947809Y-75686942D01*
X101947810Y-75686942D01*
X101956782Y-75686652D01*
X101965311Y-75683856D01*
X101965312Y-75683856D01*
X102086661Y-75644077D01*
X102086664Y-75644076D01*
X102095192Y-75641280D01*
X102192046Y-75574838D01*
X102213052Y-75560428D01*
X102284329Y-75538330D01*
X120380615Y-75538330D01*
X120452886Y-75561117D01*
X120532275Y-75616706D01*
X120587086Y-75646839D01*
X120728136Y-75683185D01*
X120800927Y-75680833D01*
X120864745Y-75678772D01*
X120864746Y-75678772D01*
X120873718Y-75678482D01*
X120882247Y-75675686D01*
X120882248Y-75675686D01*
X121003597Y-75635907D01*
X121003600Y-75635906D01*
X121012128Y-75633110D01*
X121118078Y-75560428D01*
X121189355Y-75538330D01*
X139430615Y-75538330D01*
X139502886Y-75561117D01*
X139582275Y-75616706D01*
X139637086Y-75646839D01*
X139778136Y-75683185D01*
X139850927Y-75680833D01*
X139914745Y-75678772D01*
X139914746Y-75678772D01*
X139923718Y-75678482D01*
X139932247Y-75675686D01*
X139932248Y-75675686D01*
X140053597Y-75635907D01*
X140053600Y-75635906D01*
X140062128Y-75633110D01*
X140182240Y-75550713D01*
X140199255Y-75531278D01*
X140221200Y-75506210D01*
X140221202Y-75506207D01*
X140223440Y-75503651D01*
X140225396Y-75500858D01*
X140282047Y-75419952D01*
X140339594Y-75374789D01*
X140343748Y-75373174D01*
X140343752Y-75373172D01*
X140348111Y-75371477D01*
X140384574Y-75350637D01*
X140432351Y-75323330D01*
X140575032Y-75241781D01*
X140780291Y-75079968D01*
X140959377Y-74889593D01*
X141074261Y-74723990D01*
X141105693Y-74678681D01*
X141105695Y-74678678D01*
X141108358Y-74674839D01*
X141136843Y-74617077D01*
X141221894Y-74444611D01*
X141221895Y-74444608D01*
X141223959Y-74440423D01*
X141303641Y-74191495D01*
X141345655Y-73933523D01*
X141345699Y-73930157D01*
X141363339Y-73881695D01*
X147503251Y-73881695D01*
X147503548Y-73886848D01*
X147503548Y-73886851D01*
X147509011Y-73981590D01*
X147516110Y-74104715D01*
X147517247Y-74109761D01*
X147517248Y-74109767D01*
X147533916Y-74183727D01*
X147565222Y-74322639D01*
X147603461Y-74416811D01*
X147645447Y-74520210D01*
X147649266Y-74529616D01*
X147765987Y-74720088D01*
X147912250Y-74888938D01*
X148084126Y-75031632D01*
X148277000Y-75144338D01*
X148485692Y-75224030D01*
X148490760Y-75225061D01*
X148490763Y-75225062D01*
X148598017Y-75246883D01*
X148704597Y-75268567D01*
X148709772Y-75268757D01*
X148709774Y-75268757D01*
X148922673Y-75276564D01*
X148922677Y-75276564D01*
X148927837Y-75276753D01*
X148932957Y-75276097D01*
X148932959Y-75276097D01*
X149144288Y-75249025D01*
X149144289Y-75249025D01*
X149149416Y-75248368D01*
X149163642Y-75244100D01*
X149358429Y-75185661D01*
X149358434Y-75185659D01*
X149363384Y-75184174D01*
X149563994Y-75085896D01*
X149745860Y-74956173D01*
X149904096Y-74798489D01*
X149963594Y-74715689D01*
X150031435Y-74621277D01*
X150034453Y-74617077D01*
X150084436Y-74515944D01*
X150132548Y-74463738D01*
X150201249Y-74445831D01*
X150268726Y-74467909D01*
X150311137Y-74520640D01*
X150311989Y-74520210D01*
X150314012Y-74524215D01*
X150314135Y-74524368D01*
X150316266Y-74529616D01*
X150432987Y-74720088D01*
X150579250Y-74888938D01*
X150751126Y-75031632D01*
X150944000Y-75144338D01*
X151152692Y-75224030D01*
X151157760Y-75225061D01*
X151157763Y-75225062D01*
X151265017Y-75246883D01*
X151371597Y-75268567D01*
X151376772Y-75268757D01*
X151376774Y-75268757D01*
X151589673Y-75276564D01*
X151589677Y-75276564D01*
X151594837Y-75276753D01*
X151599957Y-75276097D01*
X151599959Y-75276097D01*
X151811288Y-75249025D01*
X151811289Y-75249025D01*
X151816416Y-75248368D01*
X151830642Y-75244100D01*
X152025429Y-75185661D01*
X152025434Y-75185659D01*
X152030384Y-75184174D01*
X152230994Y-75085896D01*
X152412860Y-74956173D01*
X152571096Y-74798489D01*
X152630594Y-74715689D01*
X152698435Y-74621277D01*
X152701453Y-74617077D01*
X152751436Y-74515944D01*
X152799548Y-74463738D01*
X152868249Y-74445831D01*
X152935726Y-74467909D01*
X152978137Y-74520640D01*
X152978989Y-74520210D01*
X152981012Y-74524215D01*
X152981135Y-74524368D01*
X152983266Y-74529616D01*
X153099987Y-74720088D01*
X153246250Y-74888938D01*
X153418126Y-75031632D01*
X153611000Y-75144338D01*
X153819692Y-75224030D01*
X153824760Y-75225061D01*
X153824763Y-75225062D01*
X153932017Y-75246883D01*
X154038597Y-75268567D01*
X154043772Y-75268757D01*
X154043774Y-75268757D01*
X154256673Y-75276564D01*
X154256677Y-75276564D01*
X154261837Y-75276753D01*
X154266957Y-75276097D01*
X154266959Y-75276097D01*
X154478288Y-75249025D01*
X154478289Y-75249025D01*
X154483416Y-75248368D01*
X154497642Y-75244100D01*
X154692429Y-75185661D01*
X154692434Y-75185659D01*
X154697384Y-75184174D01*
X154897994Y-75085896D01*
X155079860Y-74956173D01*
X155238096Y-74798489D01*
X155297594Y-74715689D01*
X155365435Y-74621277D01*
X155368453Y-74617077D01*
X155414273Y-74524368D01*
X155465136Y-74421453D01*
X155465137Y-74421451D01*
X155467430Y-74416811D01*
X155532370Y-74203069D01*
X155561529Y-73981590D01*
X155562591Y-73938140D01*
X155563074Y-73918365D01*
X155563074Y-73918361D01*
X155563156Y-73915000D01*
X155544852Y-73692361D01*
X155490431Y-73475702D01*
X155401354Y-73270840D01*
X155318893Y-73143374D01*
X155282822Y-73087617D01*
X155282820Y-73087614D01*
X155280014Y-73083277D01*
X155261324Y-73062737D01*
X155132798Y-72921488D01*
X155101746Y-72857642D01*
X155110141Y-72787143D01*
X155155317Y-72732375D01*
X155181761Y-72718706D01*
X155288297Y-72678767D01*
X155296705Y-72675615D01*
X155413261Y-72588261D01*
X155500615Y-72471705D01*
X155551745Y-72335316D01*
X155558500Y-72273134D01*
X155558500Y-70476866D01*
X155551745Y-70414684D01*
X155500615Y-70278295D01*
X155413261Y-70161739D01*
X155296705Y-70074385D01*
X155160316Y-70023255D01*
X155098134Y-70016500D01*
X153301866Y-70016500D01*
X153239684Y-70023255D01*
X153103295Y-70074385D01*
X152986739Y-70161739D01*
X152970110Y-70183928D01*
X152967327Y-70187641D01*
X152910467Y-70230157D01*
X152839649Y-70235183D01*
X152777356Y-70201123D01*
X152765673Y-70187641D01*
X152762891Y-70183928D01*
X152746261Y-70161739D01*
X152629705Y-70074385D01*
X152493316Y-70023255D01*
X152431134Y-70016500D01*
X150634866Y-70016500D01*
X150572684Y-70023255D01*
X150436295Y-70074385D01*
X150319739Y-70161739D01*
X150303110Y-70183928D01*
X150300327Y-70187641D01*
X150243467Y-70230157D01*
X150172649Y-70235183D01*
X150110356Y-70201123D01*
X150098673Y-70187641D01*
X150095891Y-70183928D01*
X150079261Y-70161739D01*
X149962705Y-70074385D01*
X149826316Y-70023255D01*
X149764134Y-70016500D01*
X147967866Y-70016500D01*
X147905684Y-70023255D01*
X147769295Y-70074385D01*
X147652739Y-70161739D01*
X147565385Y-70278295D01*
X147514255Y-70414684D01*
X147507500Y-70476866D01*
X147507500Y-72273134D01*
X147514255Y-72335316D01*
X147565385Y-72471705D01*
X147652739Y-72588261D01*
X147769295Y-72675615D01*
X147777704Y-72678767D01*
X147777705Y-72678768D01*
X147886451Y-72719535D01*
X147943216Y-72762176D01*
X147967916Y-72828738D01*
X147952709Y-72898087D01*
X147933316Y-72924568D01*
X147806629Y-73057138D01*
X147803715Y-73061410D01*
X147803714Y-73061411D01*
X147791409Y-73079450D01*
X147680743Y-73241680D01*
X147654028Y-73299233D01*
X147590304Y-73436516D01*
X147586688Y-73444305D01*
X147526989Y-73659570D01*
X147503251Y-73881695D01*
X141363339Y-73881695D01*
X141367878Y-73869226D01*
X141423845Y-73789296D01*
X141423849Y-73789290D01*
X141425810Y-73786489D01*
X141455943Y-73731678D01*
X141492289Y-73590628D01*
X141489937Y-73517837D01*
X141487876Y-73454019D01*
X141487876Y-73454018D01*
X141487586Y-73445046D01*
X141484790Y-73436516D01*
X141445011Y-73315167D01*
X141445010Y-73315164D01*
X141442214Y-73306636D01*
X141359817Y-73186524D01*
X141312755Y-73145324D01*
X141309978Y-73143380D01*
X141309971Y-73143374D01*
X141222706Y-73082271D01*
X141180551Y-73031809D01*
X141159418Y-72985968D01*
X141131266Y-72924902D01*
X141068218Y-72828738D01*
X140990524Y-72710234D01*
X140990520Y-72710229D01*
X140987958Y-72706321D01*
X140813916Y-72511324D01*
X140612964Y-72344193D01*
X140576696Y-72322185D01*
X140393512Y-72211026D01*
X140393508Y-72211024D01*
X140389515Y-72208601D01*
X140148479Y-72107527D01*
X139895151Y-72043189D01*
X139773609Y-72030951D01*
X139745188Y-72028089D01*
X139685540Y-72005936D01*
X139624865Y-71963451D01*
X139595593Y-71942954D01*
X139540782Y-71912821D01*
X139399732Y-71876475D01*
X139326941Y-71878827D01*
X139263123Y-71880888D01*
X139263122Y-71880888D01*
X139254150Y-71881178D01*
X139245621Y-71883974D01*
X139245620Y-71883974D01*
X139124271Y-71923753D01*
X139124268Y-71923754D01*
X139115740Y-71926550D01*
X139061949Y-71963451D01*
X139009790Y-71999232D01*
X138938513Y-72021330D01*
X136374429Y-72021330D01*
X136306308Y-72001328D01*
X136259815Y-71947672D01*
X136248429Y-71895330D01*
X136248429Y-70476866D01*
X136241674Y-70414684D01*
X136190544Y-70278295D01*
X136103190Y-70161739D01*
X135986634Y-70074385D01*
X135850245Y-70023255D01*
X135788063Y-70016500D01*
X133991795Y-70016500D01*
X133929613Y-70023255D01*
X133793224Y-70074385D01*
X133676668Y-70161739D01*
X133660039Y-70183928D01*
X133657256Y-70187641D01*
X133600396Y-70230157D01*
X133529578Y-70235183D01*
X133467285Y-70201123D01*
X133455602Y-70187641D01*
X133452820Y-70183928D01*
X133436190Y-70161739D01*
X133319634Y-70074385D01*
X133183245Y-70023255D01*
X133121063Y-70016500D01*
X131324795Y-70016500D01*
X131262613Y-70023255D01*
X131126224Y-70074385D01*
X131009668Y-70161739D01*
X130993039Y-70183928D01*
X130990256Y-70187641D01*
X130933396Y-70230157D01*
X130862578Y-70235183D01*
X130800285Y-70201123D01*
X130788602Y-70187641D01*
X130785820Y-70183928D01*
X130769190Y-70161739D01*
X130652634Y-70074385D01*
X130516245Y-70023255D01*
X130454063Y-70016500D01*
X128657795Y-70016500D01*
X128595613Y-70023255D01*
X128459224Y-70074385D01*
X128342668Y-70161739D01*
X128255314Y-70278295D01*
X128204184Y-70414684D01*
X128197429Y-70476866D01*
X128197429Y-71895330D01*
X128177427Y-71963451D01*
X128123771Y-72009944D01*
X128071429Y-72021330D01*
X120697253Y-72021330D01*
X120624983Y-71998543D01*
X120600894Y-71981676D01*
X120545593Y-71942954D01*
X120490782Y-71912821D01*
X120349732Y-71876475D01*
X120276941Y-71878827D01*
X120213123Y-71880888D01*
X120213122Y-71880888D01*
X120204150Y-71881178D01*
X120195621Y-71883974D01*
X120195620Y-71883974D01*
X120074271Y-71923753D01*
X120074268Y-71923754D01*
X120065740Y-71926550D01*
X120011949Y-71963451D01*
X119959790Y-71999232D01*
X119888513Y-72021330D01*
X117451429Y-72021330D01*
X117383308Y-72001328D01*
X117336815Y-71947672D01*
X117325429Y-71895330D01*
X117325429Y-70491877D01*
X117318674Y-70429695D01*
X117267544Y-70293306D01*
X117180190Y-70176750D01*
X117063634Y-70089396D01*
X116927245Y-70038266D01*
X116865063Y-70031511D01*
X115068795Y-70031511D01*
X115006613Y-70038266D01*
X114870224Y-70089396D01*
X114753668Y-70176750D01*
X114739879Y-70195149D01*
X114683020Y-70237662D01*
X114612201Y-70242687D01*
X114549908Y-70208627D01*
X114538228Y-70195147D01*
X114518572Y-70168920D01*
X114518570Y-70168918D01*
X114513190Y-70161739D01*
X114396634Y-70074385D01*
X114260245Y-70023255D01*
X114198063Y-70016500D01*
X112401795Y-70016500D01*
X112339613Y-70023255D01*
X112203224Y-70074385D01*
X112086668Y-70161739D01*
X112072879Y-70180138D01*
X112016020Y-70222651D01*
X111945201Y-70227676D01*
X111882908Y-70193616D01*
X111871228Y-70180136D01*
X111851572Y-70153909D01*
X111851571Y-70153908D01*
X111846190Y-70146728D01*
X111729634Y-70059374D01*
X111593245Y-70008244D01*
X111531063Y-70001489D01*
X109734795Y-70001489D01*
X109672613Y-70008244D01*
X109536224Y-70059374D01*
X109419668Y-70146728D01*
X109332314Y-70263284D01*
X109281184Y-70399673D01*
X109274429Y-70461855D01*
X109274429Y-71895330D01*
X109254427Y-71963451D01*
X109200771Y-72009944D01*
X109148429Y-72021330D01*
X101768649Y-72021330D01*
X101696379Y-71998543D01*
X101675729Y-71984084D01*
X101628657Y-71951124D01*
X101573846Y-71920991D01*
X101432796Y-71884645D01*
X101360005Y-71886997D01*
X101296187Y-71889058D01*
X101296186Y-71889058D01*
X101287214Y-71889348D01*
X101278685Y-71892144D01*
X101278684Y-71892144D01*
X101157335Y-71931923D01*
X101157332Y-71931924D01*
X101148804Y-71934720D01*
X101129924Y-71947672D01*
X101054763Y-71999232D01*
X100983486Y-72021330D01*
X98528429Y-72021330D01*
X98460308Y-72001328D01*
X98413815Y-71947672D01*
X98402429Y-71895330D01*
X98402429Y-70476866D01*
X98395674Y-70414684D01*
X98344544Y-70278295D01*
X98257190Y-70161739D01*
X98140634Y-70074385D01*
X98004245Y-70023255D01*
X97942063Y-70016500D01*
X96145795Y-70016500D01*
X96083613Y-70023255D01*
X95947224Y-70074385D01*
X95830668Y-70161739D01*
X95814039Y-70183928D01*
X95811256Y-70187641D01*
X95754396Y-70230157D01*
X95683578Y-70235183D01*
X95621285Y-70201123D01*
X95609602Y-70187641D01*
X95606820Y-70183928D01*
X95590190Y-70161739D01*
X95473634Y-70074385D01*
X95337245Y-70023255D01*
X95275063Y-70016500D01*
X93478795Y-70016500D01*
X93416613Y-70023255D01*
X93280224Y-70074385D01*
X93163668Y-70161739D01*
X93147039Y-70183928D01*
X93144256Y-70187641D01*
X93087396Y-70230157D01*
X93016578Y-70235183D01*
X92954285Y-70201123D01*
X92942602Y-70187641D01*
X92939820Y-70183928D01*
X92923190Y-70161739D01*
X92806634Y-70074385D01*
X92670245Y-70023255D01*
X92608063Y-70016500D01*
X90811795Y-70016500D01*
X90749613Y-70023255D01*
X90613224Y-70074385D01*
X90496668Y-70161739D01*
X90409314Y-70278295D01*
X90358184Y-70414684D01*
X90351429Y-70476866D01*
X90351429Y-71895330D01*
X90331427Y-71963451D01*
X90277771Y-72009944D01*
X90225429Y-72021330D01*
X82857317Y-72021330D01*
X82785047Y-71998543D01*
X82760958Y-71981676D01*
X82705657Y-71942954D01*
X82650846Y-71912821D01*
X82509796Y-71876475D01*
X82437005Y-71878827D01*
X82373187Y-71880888D01*
X82373186Y-71880888D01*
X82364214Y-71881178D01*
X82355685Y-71883974D01*
X82355684Y-71883974D01*
X82234335Y-71923753D01*
X82234332Y-71923754D01*
X82225804Y-71926550D01*
X82172013Y-71963451D01*
X82119854Y-71999232D01*
X82048577Y-72021330D01*
X79605429Y-72021330D01*
X79537308Y-72001328D01*
X79490815Y-71947672D01*
X79479429Y-71895330D01*
X79479429Y-70491877D01*
X79472674Y-70429695D01*
X79421544Y-70293306D01*
X79334190Y-70176750D01*
X79217634Y-70089396D01*
X79081245Y-70038266D01*
X79019063Y-70031511D01*
X77222795Y-70031511D01*
X77160613Y-70038266D01*
X77024224Y-70089396D01*
X76907668Y-70176750D01*
X76893879Y-70195149D01*
X76837020Y-70237662D01*
X76766201Y-70242687D01*
X76703908Y-70208627D01*
X76692228Y-70195147D01*
X76672572Y-70168920D01*
X76672570Y-70168918D01*
X76667190Y-70161739D01*
X76550634Y-70074385D01*
X76414245Y-70023255D01*
X76352063Y-70016500D01*
X74555795Y-70016500D01*
X74493613Y-70023255D01*
X74357224Y-70074385D01*
X74240668Y-70161739D01*
X74224039Y-70183928D01*
X74221256Y-70187641D01*
X74164396Y-70230157D01*
X74093578Y-70235183D01*
X74031285Y-70201123D01*
X74019602Y-70187641D01*
X74016820Y-70183928D01*
X74000190Y-70161739D01*
X73883634Y-70074385D01*
X73747245Y-70023255D01*
X73685063Y-70016500D01*
X71888795Y-70016500D01*
X71826613Y-70023255D01*
X71690224Y-70074385D01*
X71573668Y-70161739D01*
X71571344Y-70164840D01*
X71511283Y-70197637D01*
X71440468Y-70192572D01*
X71383632Y-70150025D01*
X71358821Y-70083505D01*
X71358500Y-70074516D01*
X71358500Y-65700000D01*
X77586496Y-65700000D01*
X77606458Y-65889928D01*
X77665473Y-66071556D01*
X77668776Y-66077278D01*
X77668777Y-66077279D01*
X77677886Y-66093056D01*
X77760960Y-66236944D01*
X77765378Y-66241851D01*
X77765379Y-66241852D01*
X77862897Y-66350157D01*
X77888747Y-66378866D01*
X77982023Y-66446635D01*
X78027438Y-66479631D01*
X78043248Y-66491118D01*
X78049276Y-66493802D01*
X78049278Y-66493803D01*
X78211432Y-66565998D01*
X78217712Y-66568794D01*
X78311112Y-66588647D01*
X78398056Y-66607128D01*
X78398061Y-66607128D01*
X78404513Y-66608500D01*
X78595487Y-66608500D01*
X78601939Y-66607128D01*
X78601944Y-66607128D01*
X78688888Y-66588647D01*
X78782288Y-66568794D01*
X78788568Y-66565998D01*
X78950722Y-66493803D01*
X78950724Y-66493802D01*
X78956752Y-66491118D01*
X78972563Y-66479631D01*
X79017977Y-66446635D01*
X79111253Y-66378866D01*
X79137103Y-66350157D01*
X79234621Y-66241852D01*
X79234622Y-66241851D01*
X79239040Y-66236944D01*
X79322114Y-66093056D01*
X79331223Y-66077279D01*
X79331224Y-66077278D01*
X79334527Y-66071556D01*
X79393542Y-65889928D01*
X79413504Y-65700000D01*
X79402060Y-65591118D01*
X79394232Y-65516635D01*
X79394232Y-65516633D01*
X79393542Y-65510072D01*
X79334527Y-65328444D01*
X79239040Y-65163056D01*
X79111253Y-65021134D01*
X78984450Y-64929006D01*
X78962094Y-64912763D01*
X78962093Y-64912762D01*
X78956752Y-64908882D01*
X78950724Y-64906198D01*
X78950722Y-64906197D01*
X78788319Y-64833891D01*
X78788318Y-64833891D01*
X78782288Y-64831206D01*
X78656332Y-64804433D01*
X78635477Y-64800000D01*
X80886496Y-64800000D01*
X80887186Y-64806565D01*
X80903457Y-64961372D01*
X80906458Y-64989928D01*
X80965473Y-65171556D01*
X81060960Y-65336944D01*
X81065378Y-65341851D01*
X81065379Y-65341852D01*
X81183355Y-65472878D01*
X81188747Y-65478866D01*
X81252963Y-65525522D01*
X81337568Y-65586991D01*
X81343248Y-65591118D01*
X81349276Y-65593802D01*
X81349278Y-65593803D01*
X81511681Y-65666109D01*
X81517712Y-65668794D01*
X81611113Y-65688647D01*
X81698056Y-65707128D01*
X81698061Y-65707128D01*
X81704513Y-65708500D01*
X81895487Y-65708500D01*
X81901939Y-65707128D01*
X81901944Y-65707128D01*
X81935477Y-65700000D01*
X84886496Y-65700000D01*
X84906458Y-65889928D01*
X84965473Y-66071556D01*
X84968776Y-66077278D01*
X84968777Y-66077279D01*
X84977886Y-66093056D01*
X85060960Y-66236944D01*
X85065378Y-66241851D01*
X85065379Y-66241852D01*
X85162897Y-66350157D01*
X85188747Y-66378866D01*
X85282023Y-66446635D01*
X85327438Y-66479631D01*
X85343248Y-66491118D01*
X85349276Y-66493802D01*
X85349278Y-66493803D01*
X85511432Y-66565998D01*
X85517712Y-66568794D01*
X85611112Y-66588647D01*
X85698056Y-66607128D01*
X85698061Y-66607128D01*
X85704513Y-66608500D01*
X85895487Y-66608500D01*
X85901939Y-66607128D01*
X85901944Y-66607128D01*
X85988888Y-66588647D01*
X86082288Y-66568794D01*
X86088568Y-66565998D01*
X86250722Y-66493803D01*
X86250724Y-66493802D01*
X86256752Y-66491118D01*
X86272563Y-66479631D01*
X86317977Y-66446635D01*
X86411253Y-66378866D01*
X86437103Y-66350157D01*
X86534621Y-66241852D01*
X86534622Y-66241851D01*
X86539040Y-66236944D01*
X86622114Y-66093056D01*
X86631223Y-66077279D01*
X86631224Y-66077278D01*
X86634527Y-66071556D01*
X86693542Y-65889928D01*
X86702981Y-65800123D01*
X86712109Y-65713276D01*
X86739122Y-65647619D01*
X86797344Y-65606990D01*
X86868289Y-65604287D01*
X86888666Y-65611339D01*
X87017712Y-65668794D01*
X87111113Y-65688647D01*
X87198056Y-65707128D01*
X87198061Y-65707128D01*
X87204513Y-65708500D01*
X87395487Y-65708500D01*
X87401939Y-65707128D01*
X87401944Y-65707128D01*
X87488887Y-65688647D01*
X87582288Y-65668794D01*
X87588319Y-65666109D01*
X87750722Y-65593803D01*
X87750724Y-65593802D01*
X87756752Y-65591118D01*
X87762433Y-65586991D01*
X87847037Y-65525522D01*
X87911253Y-65478866D01*
X87916645Y-65472878D01*
X88034621Y-65341852D01*
X88034622Y-65341851D01*
X88039040Y-65336944D01*
X88134527Y-65171556D01*
X88193542Y-64989928D01*
X88196544Y-64961372D01*
X88212814Y-64806565D01*
X88213504Y-64800000D01*
X88197998Y-64652468D01*
X88194232Y-64616635D01*
X88194232Y-64616633D01*
X88193542Y-64610072D01*
X88134527Y-64428444D01*
X88039040Y-64263056D01*
X88030819Y-64253925D01*
X87915675Y-64126045D01*
X87915674Y-64126044D01*
X87911253Y-64121134D01*
X87795168Y-64036793D01*
X87762094Y-64012763D01*
X87762093Y-64012762D01*
X87756752Y-64008882D01*
X87750724Y-64006198D01*
X87750722Y-64006197D01*
X87588319Y-63933891D01*
X87588318Y-63933891D01*
X87582288Y-63931206D01*
X87488888Y-63911353D01*
X87401944Y-63892872D01*
X87401939Y-63892872D01*
X87395487Y-63891500D01*
X87204513Y-63891500D01*
X87198061Y-63892872D01*
X87198056Y-63892872D01*
X87111112Y-63911353D01*
X87017712Y-63931206D01*
X87011682Y-63933891D01*
X87011681Y-63933891D01*
X86849278Y-64006197D01*
X86849276Y-64006198D01*
X86843248Y-64008882D01*
X86837907Y-64012762D01*
X86837906Y-64012763D01*
X86804832Y-64036793D01*
X86688747Y-64121134D01*
X86684326Y-64126044D01*
X86684325Y-64126045D01*
X86569182Y-64253925D01*
X86560960Y-64263056D01*
X86465473Y-64428444D01*
X86406458Y-64610072D01*
X86405768Y-64616633D01*
X86405768Y-64616635D01*
X86387891Y-64786724D01*
X86360878Y-64852381D01*
X86302656Y-64893010D01*
X86231711Y-64895713D01*
X86211332Y-64888660D01*
X86190101Y-64879207D01*
X86082288Y-64831206D01*
X85956332Y-64804433D01*
X85901944Y-64792872D01*
X85901939Y-64792872D01*
X85895487Y-64791500D01*
X85704513Y-64791500D01*
X85698061Y-64792872D01*
X85698056Y-64792872D01*
X85643668Y-64804433D01*
X85517712Y-64831206D01*
X85511682Y-64833891D01*
X85511681Y-64833891D01*
X85349278Y-64906197D01*
X85349276Y-64906198D01*
X85343248Y-64908882D01*
X85337907Y-64912762D01*
X85337906Y-64912763D01*
X85315550Y-64929006D01*
X85188747Y-65021134D01*
X85060960Y-65163056D01*
X84965473Y-65328444D01*
X84906458Y-65510072D01*
X84905768Y-65516633D01*
X84905768Y-65516635D01*
X84897940Y-65591118D01*
X84886496Y-65700000D01*
X81935477Y-65700000D01*
X81988887Y-65688647D01*
X82082288Y-65668794D01*
X82088319Y-65666109D01*
X82250722Y-65593803D01*
X82250724Y-65593802D01*
X82256752Y-65591118D01*
X82262433Y-65586991D01*
X82347037Y-65525522D01*
X82411253Y-65478866D01*
X82416645Y-65472878D01*
X82534621Y-65341852D01*
X82534622Y-65341851D01*
X82539040Y-65336944D01*
X82634527Y-65171556D01*
X82693542Y-64989928D01*
X82696544Y-64961372D01*
X82712814Y-64806565D01*
X82713504Y-64800000D01*
X82697998Y-64652468D01*
X82694232Y-64616635D01*
X82694232Y-64616633D01*
X82693542Y-64610072D01*
X82634527Y-64428444D01*
X82539040Y-64263056D01*
X82530819Y-64253925D01*
X82415675Y-64126045D01*
X82415674Y-64126044D01*
X82411253Y-64121134D01*
X82295168Y-64036793D01*
X82262094Y-64012763D01*
X82262093Y-64012762D01*
X82256752Y-64008882D01*
X82250724Y-64006198D01*
X82250722Y-64006197D01*
X82088319Y-63933891D01*
X82088318Y-63933891D01*
X82082288Y-63931206D01*
X81988888Y-63911353D01*
X81901944Y-63892872D01*
X81901939Y-63892872D01*
X81895487Y-63891500D01*
X81704513Y-63891500D01*
X81698061Y-63892872D01*
X81698056Y-63892872D01*
X81611112Y-63911353D01*
X81517712Y-63931206D01*
X81511682Y-63933891D01*
X81511681Y-63933891D01*
X81349278Y-64006197D01*
X81349276Y-64006198D01*
X81343248Y-64008882D01*
X81337907Y-64012762D01*
X81337906Y-64012763D01*
X81304832Y-64036793D01*
X81188747Y-64121134D01*
X81184326Y-64126044D01*
X81184325Y-64126045D01*
X81069182Y-64253925D01*
X81060960Y-64263056D01*
X80965473Y-64428444D01*
X80906458Y-64610072D01*
X80905768Y-64616633D01*
X80905768Y-64616635D01*
X80902002Y-64652468D01*
X80886496Y-64800000D01*
X78635477Y-64800000D01*
X78601944Y-64792872D01*
X78601939Y-64792872D01*
X78595487Y-64791500D01*
X78404513Y-64791500D01*
X78398061Y-64792872D01*
X78398056Y-64792872D01*
X78343668Y-64804433D01*
X78217712Y-64831206D01*
X78211682Y-64833891D01*
X78211681Y-64833891D01*
X78049278Y-64906197D01*
X78049276Y-64906198D01*
X78043248Y-64908882D01*
X78037907Y-64912762D01*
X78037906Y-64912763D01*
X78015550Y-64929006D01*
X77888747Y-65021134D01*
X77760960Y-65163056D01*
X77665473Y-65328444D01*
X77606458Y-65510072D01*
X77605768Y-65516633D01*
X77605768Y-65516635D01*
X77597940Y-65591118D01*
X77586496Y-65700000D01*
X71358500Y-65700000D01*
X71358500Y-62144897D01*
X71358703Y-62137754D01*
X71362897Y-62063900D01*
X71362897Y-62063893D01*
X71363162Y-62059224D01*
X71352712Y-61945497D01*
X71352530Y-61943319D01*
X71349109Y-61897279D01*
X71344061Y-61829348D01*
X71342483Y-61822376D01*
X71339903Y-61806089D01*
X71339247Y-61798950D01*
X71320752Y-61723365D01*
X71312086Y-61687949D01*
X71311582Y-61685810D01*
X71304134Y-61652898D01*
X71286377Y-61574423D01*
X71284686Y-61570074D01*
X71284683Y-61570065D01*
X71283782Y-61567749D01*
X71278828Y-61552036D01*
X71278238Y-61549625D01*
X71278236Y-61549620D01*
X71277123Y-61545070D01*
X71275049Y-61540000D01*
X100346496Y-61540000D01*
X100347186Y-61546565D01*
X100352070Y-61593029D01*
X100366458Y-61729928D01*
X100425473Y-61911556D01*
X100428776Y-61917278D01*
X100428777Y-61917279D01*
X100433931Y-61926206D01*
X100520960Y-62076944D01*
X100525378Y-62081851D01*
X100525379Y-62081852D01*
X100576555Y-62138689D01*
X100648747Y-62218866D01*
X100721676Y-62271852D01*
X100780819Y-62314822D01*
X100803248Y-62331118D01*
X100809276Y-62333802D01*
X100809278Y-62333803D01*
X100971681Y-62406109D01*
X100977712Y-62408794D01*
X101063966Y-62427128D01*
X101158056Y-62447128D01*
X101158061Y-62447128D01*
X101164513Y-62448500D01*
X101355487Y-62448500D01*
X101361939Y-62447128D01*
X101361944Y-62447128D01*
X101456034Y-62427128D01*
X101542288Y-62408794D01*
X101548319Y-62406109D01*
X101710722Y-62333803D01*
X101710724Y-62333802D01*
X101716752Y-62331118D01*
X101739182Y-62314822D01*
X101798324Y-62271852D01*
X101871253Y-62218866D01*
X101943445Y-62138689D01*
X101994621Y-62081852D01*
X101994622Y-62081851D01*
X101999040Y-62076944D01*
X102086069Y-61926206D01*
X102091223Y-61917279D01*
X102091224Y-61917278D01*
X102094527Y-61911556D01*
X102153542Y-61729928D01*
X102167931Y-61593029D01*
X102172814Y-61546565D01*
X102173504Y-61540000D01*
X102171402Y-61520000D01*
X113096496Y-61520000D01*
X113097186Y-61526565D01*
X113104172Y-61593029D01*
X113116458Y-61709928D01*
X113175473Y-61891556D01*
X113178776Y-61897278D01*
X113178777Y-61897279D01*
X113206624Y-61945511D01*
X113270960Y-62056944D01*
X113275378Y-62061851D01*
X113275379Y-62061852D01*
X113350153Y-62144897D01*
X113398747Y-62198866D01*
X113553248Y-62311118D01*
X113559276Y-62313802D01*
X113559278Y-62313803D01*
X113709436Y-62380657D01*
X113727712Y-62388794D01*
X113821112Y-62408647D01*
X113908056Y-62427128D01*
X113908061Y-62427128D01*
X113914513Y-62428500D01*
X114105487Y-62428500D01*
X114111939Y-62427128D01*
X114111944Y-62427128D01*
X114198888Y-62408647D01*
X114292288Y-62388794D01*
X114310564Y-62380657D01*
X114460722Y-62313803D01*
X114460724Y-62313802D01*
X114466752Y-62311118D01*
X114621253Y-62198866D01*
X114669847Y-62144897D01*
X114744621Y-62061852D01*
X114744622Y-62061851D01*
X114749040Y-62056944D01*
X114813376Y-61945511D01*
X114841223Y-61897279D01*
X114841224Y-61897278D01*
X114844527Y-61891556D01*
X114903542Y-61709928D01*
X114915829Y-61593029D01*
X114922814Y-61526565D01*
X114923504Y-61520000D01*
X114906334Y-61356635D01*
X114904232Y-61336635D01*
X114904232Y-61336633D01*
X114903542Y-61330072D01*
X114844527Y-61148444D01*
X114838466Y-61137945D01*
X114797876Y-61067642D01*
X114749040Y-60983056D01*
X114641744Y-60863891D01*
X114625675Y-60846045D01*
X114625674Y-60846044D01*
X114621253Y-60841134D01*
X114466752Y-60728882D01*
X114460724Y-60726198D01*
X114460722Y-60726197D01*
X114298319Y-60653891D01*
X114298318Y-60653891D01*
X114292288Y-60651206D01*
X114171794Y-60625594D01*
X114111944Y-60612872D01*
X114111939Y-60612872D01*
X114105487Y-60611500D01*
X113914513Y-60611500D01*
X113908061Y-60612872D01*
X113908056Y-60612872D01*
X113848206Y-60625594D01*
X113727712Y-60651206D01*
X113721682Y-60653891D01*
X113721681Y-60653891D01*
X113559278Y-60726197D01*
X113559276Y-60726198D01*
X113553248Y-60728882D01*
X113398747Y-60841134D01*
X113394326Y-60846044D01*
X113394325Y-60846045D01*
X113378257Y-60863891D01*
X113270960Y-60983056D01*
X113222124Y-61067642D01*
X113181535Y-61137945D01*
X113175473Y-61148444D01*
X113116458Y-61330072D01*
X113115768Y-61336633D01*
X113115768Y-61336635D01*
X113113666Y-61356635D01*
X113096496Y-61520000D01*
X102171402Y-61520000D01*
X102162922Y-61439317D01*
X102154232Y-61356635D01*
X102154232Y-61356633D01*
X102153542Y-61350072D01*
X102094527Y-61168444D01*
X102074826Y-61134320D01*
X102054013Y-61098272D01*
X101999040Y-61003056D01*
X101986181Y-60988774D01*
X101875675Y-60866045D01*
X101875674Y-60866044D01*
X101871253Y-60861134D01*
X101746728Y-60770661D01*
X101722094Y-60752763D01*
X101722093Y-60752762D01*
X101716752Y-60748882D01*
X101710724Y-60746198D01*
X101710722Y-60746197D01*
X101548319Y-60673891D01*
X101548318Y-60673891D01*
X101542288Y-60671206D01*
X101441741Y-60649834D01*
X101361944Y-60632872D01*
X101361939Y-60632872D01*
X101355487Y-60631500D01*
X101164513Y-60631500D01*
X101158061Y-60632872D01*
X101158056Y-60632872D01*
X101078259Y-60649834D01*
X100977712Y-60671206D01*
X100971682Y-60673891D01*
X100971681Y-60673891D01*
X100809278Y-60746197D01*
X100809276Y-60746198D01*
X100803248Y-60748882D01*
X100797907Y-60752762D01*
X100797906Y-60752763D01*
X100773272Y-60770661D01*
X100648747Y-60861134D01*
X100644326Y-60866044D01*
X100644325Y-60866045D01*
X100533820Y-60988774D01*
X100520960Y-61003056D01*
X100465987Y-61098272D01*
X100445175Y-61134320D01*
X100425473Y-61168444D01*
X100366458Y-61350072D01*
X100365768Y-61356633D01*
X100365768Y-61356635D01*
X100357078Y-61439317D01*
X100346496Y-61540000D01*
X71275049Y-61540000D01*
X71272363Y-61533435D01*
X71233859Y-61439317D01*
X71233044Y-61437275D01*
X71193342Y-61335181D01*
X71193341Y-61335178D01*
X71191647Y-61330823D01*
X71188090Y-61324599D01*
X71180869Y-61309794D01*
X71178155Y-61303161D01*
X71155556Y-61265175D01*
X71119752Y-61204992D01*
X71118645Y-61203094D01*
X71064270Y-61107959D01*
X71064269Y-61107957D01*
X71061951Y-61103902D01*
X71057513Y-61098272D01*
X71048183Y-61084697D01*
X71046912Y-61082561D01*
X71044519Y-61078538D01*
X70972149Y-60989961D01*
X70970937Y-60988452D01*
X70900138Y-60898643D01*
X70823948Y-60826971D01*
X70821186Y-60824291D01*
X69274263Y-59277368D01*
X69264408Y-59266279D01*
X69249087Y-59246845D01*
X69140138Y-59108643D01*
X69045908Y-59020000D01*
X87386496Y-59020000D01*
X87387186Y-59026565D01*
X87401532Y-59163056D01*
X87406458Y-59209928D01*
X87465473Y-59391556D01*
X87560960Y-59556944D01*
X87565378Y-59561851D01*
X87565379Y-59561852D01*
X87636847Y-59641225D01*
X87688747Y-59698866D01*
X87843248Y-59811118D01*
X87849276Y-59813802D01*
X87849278Y-59813803D01*
X87922057Y-59846206D01*
X88017712Y-59888794D01*
X88111112Y-59908647D01*
X88198056Y-59927128D01*
X88198061Y-59927128D01*
X88204513Y-59928500D01*
X88395487Y-59928500D01*
X88401939Y-59927128D01*
X88401944Y-59927128D01*
X88488888Y-59908647D01*
X88582288Y-59888794D01*
X88677943Y-59846206D01*
X88750722Y-59813803D01*
X88750724Y-59813802D01*
X88756752Y-59811118D01*
X88844089Y-59747664D01*
X88918150Y-59723600D01*
X99596293Y-59723600D01*
X99604864Y-59723892D01*
X99659514Y-59727618D01*
X99719237Y-59717194D01*
X99725727Y-59716237D01*
X99785858Y-59708960D01*
X99792967Y-59706274D01*
X99798764Y-59704850D01*
X99806919Y-59702620D01*
X99812643Y-59700892D01*
X99820124Y-59699586D01*
X99875596Y-59675235D01*
X99881701Y-59672744D01*
X99931265Y-59654016D01*
X99931267Y-59654015D01*
X99938370Y-59651331D01*
X99944629Y-59647030D01*
X99949896Y-59644276D01*
X99957321Y-59640143D01*
X99957563Y-59640000D01*
X103546496Y-59640000D01*
X103547186Y-59646565D01*
X103555651Y-59727101D01*
X103566458Y-59829928D01*
X103625473Y-60011556D01*
X103628776Y-60017278D01*
X103628777Y-60017279D01*
X103632484Y-60023700D01*
X103720960Y-60176944D01*
X103725378Y-60181851D01*
X103725379Y-60181852D01*
X103783826Y-60246764D01*
X103848747Y-60318866D01*
X103919728Y-60370437D01*
X103995348Y-60425378D01*
X104003248Y-60431118D01*
X104009276Y-60433802D01*
X104009278Y-60433803D01*
X104144041Y-60493803D01*
X104177712Y-60508794D01*
X104271112Y-60528647D01*
X104358056Y-60547128D01*
X104358061Y-60547128D01*
X104364513Y-60548500D01*
X104555487Y-60548500D01*
X104561939Y-60547128D01*
X104561944Y-60547128D01*
X104648888Y-60528647D01*
X104742288Y-60508794D01*
X104775959Y-60493803D01*
X104910722Y-60433803D01*
X104910724Y-60433802D01*
X104916752Y-60431118D01*
X104924653Y-60425378D01*
X105000272Y-60370437D01*
X105071253Y-60318866D01*
X105136174Y-60246764D01*
X105194621Y-60181852D01*
X105194622Y-60181851D01*
X105199040Y-60176944D01*
X105287516Y-60023700D01*
X105291223Y-60017279D01*
X105291224Y-60017278D01*
X105294527Y-60011556D01*
X105353542Y-59829928D01*
X105364350Y-59727101D01*
X105372453Y-59650000D01*
X111096496Y-59650000D01*
X111097186Y-59656565D01*
X111115537Y-59831162D01*
X111116458Y-59839928D01*
X111175473Y-60021556D01*
X111270960Y-60186944D01*
X111275378Y-60191851D01*
X111275379Y-60191852D01*
X111365928Y-60292417D01*
X111398747Y-60328866D01*
X111467566Y-60378866D01*
X111534143Y-60427237D01*
X111553248Y-60441118D01*
X111559276Y-60443802D01*
X111559278Y-60443803D01*
X111708333Y-60510166D01*
X111727712Y-60518794D01*
X111815853Y-60537529D01*
X111908056Y-60557128D01*
X111908061Y-60557128D01*
X111914513Y-60558500D01*
X112105487Y-60558500D01*
X112111939Y-60557128D01*
X112111944Y-60557128D01*
X112204147Y-60537529D01*
X112292288Y-60518794D01*
X112311667Y-60510166D01*
X112460722Y-60443803D01*
X112460724Y-60443802D01*
X112466752Y-60441118D01*
X112485858Y-60427237D01*
X112552434Y-60378866D01*
X112621253Y-60328866D01*
X112654072Y-60292417D01*
X112744621Y-60191852D01*
X112744622Y-60191851D01*
X112749040Y-60186944D01*
X112844527Y-60021556D01*
X112903542Y-59839928D01*
X112904464Y-59831162D01*
X112922814Y-59656565D01*
X112923504Y-59650000D01*
X112907739Y-59500000D01*
X112904232Y-59466635D01*
X112904232Y-59466633D01*
X112903542Y-59460072D01*
X112844527Y-59278444D01*
X112840870Y-59272109D01*
X112781211Y-59168778D01*
X112749040Y-59113056D01*
X112714791Y-59075018D01*
X112625675Y-58976045D01*
X112625674Y-58976044D01*
X112621253Y-58971134D01*
X112466752Y-58858882D01*
X112460724Y-58856198D01*
X112460722Y-58856197D01*
X112298319Y-58783891D01*
X112298318Y-58783891D01*
X112292288Y-58781206D01*
X112175934Y-58756474D01*
X112111944Y-58742872D01*
X112111939Y-58742872D01*
X112105487Y-58741500D01*
X111914513Y-58741500D01*
X111908061Y-58742872D01*
X111908056Y-58742872D01*
X111844066Y-58756474D01*
X111727712Y-58781206D01*
X111721682Y-58783891D01*
X111721681Y-58783891D01*
X111559278Y-58856197D01*
X111559276Y-58856198D01*
X111553248Y-58858882D01*
X111398747Y-58971134D01*
X111394326Y-58976044D01*
X111394325Y-58976045D01*
X111305210Y-59075018D01*
X111270960Y-59113056D01*
X111238789Y-59168778D01*
X111179131Y-59272109D01*
X111175473Y-59278444D01*
X111116458Y-59460072D01*
X111115768Y-59466633D01*
X111115768Y-59466635D01*
X111112261Y-59500000D01*
X111096496Y-59650000D01*
X105372453Y-59650000D01*
X105372814Y-59646565D01*
X105373504Y-59640000D01*
X105358437Y-59496646D01*
X105354232Y-59456635D01*
X105354232Y-59456633D01*
X105353542Y-59450072D01*
X105294527Y-59268444D01*
X105199040Y-59103056D01*
X105173795Y-59075018D01*
X105075675Y-58966045D01*
X105075674Y-58966044D01*
X105071253Y-58961134D01*
X104953098Y-58875289D01*
X104922094Y-58852763D01*
X104922093Y-58852762D01*
X104916752Y-58848882D01*
X104910724Y-58846198D01*
X104910722Y-58846197D01*
X104748319Y-58773891D01*
X104748318Y-58773891D01*
X104742288Y-58771206D01*
X104648887Y-58751353D01*
X104561944Y-58732872D01*
X104561939Y-58732872D01*
X104555487Y-58731500D01*
X104364513Y-58731500D01*
X104358061Y-58732872D01*
X104358056Y-58732872D01*
X104271113Y-58751353D01*
X104177712Y-58771206D01*
X104171682Y-58773891D01*
X104171681Y-58773891D01*
X104009278Y-58846197D01*
X104009276Y-58846198D01*
X104003248Y-58848882D01*
X103997907Y-58852762D01*
X103997906Y-58852763D01*
X103966902Y-58875289D01*
X103848747Y-58961134D01*
X103844326Y-58966044D01*
X103844325Y-58966045D01*
X103746206Y-59075018D01*
X103720960Y-59103056D01*
X103625473Y-59268444D01*
X103566458Y-59450072D01*
X103565768Y-59456633D01*
X103565768Y-59456635D01*
X103561563Y-59496646D01*
X103546496Y-59640000D01*
X99957563Y-59640000D01*
X99962453Y-59637108D01*
X99969410Y-59634054D01*
X99975436Y-59629430D01*
X99975438Y-59629429D01*
X100017468Y-59597178D01*
X100022806Y-59593300D01*
X100066471Y-59563291D01*
X100066478Y-59563285D01*
X100072733Y-59558986D01*
X100112021Y-59514890D01*
X100117003Y-59509614D01*
X106746080Y-52880537D01*
X106808392Y-52846511D01*
X106867784Y-52847925D01*
X106881193Y-52851518D01*
X106881204Y-52851520D01*
X106886515Y-52852943D01*
X107114602Y-52872898D01*
X107342689Y-52852943D01*
X107348002Y-52851519D01*
X107348004Y-52851519D01*
X107558535Y-52795107D01*
X107558537Y-52795106D01*
X107563845Y-52793684D01*
X107569159Y-52791206D01*
X107766364Y-52699249D01*
X107766369Y-52699246D01*
X107771351Y-52696923D01*
X107876213Y-52623498D01*
X107954391Y-52568757D01*
X107954394Y-52568755D01*
X107958902Y-52565598D01*
X108120800Y-52403700D01*
X108132899Y-52386422D01*
X108206014Y-52282002D01*
X108252125Y-52216149D01*
X108254448Y-52211167D01*
X108254451Y-52211162D01*
X108270407Y-52176943D01*
X108317324Y-52123658D01*
X108385601Y-52104197D01*
X108453561Y-52124739D01*
X108498797Y-52176943D01*
X108514753Y-52211162D01*
X108514756Y-52211167D01*
X108517079Y-52216149D01*
X108563190Y-52282002D01*
X108636306Y-52386422D01*
X108648404Y-52403700D01*
X108810302Y-52565598D01*
X108814810Y-52568755D01*
X108814813Y-52568757D01*
X108892991Y-52623498D01*
X108997853Y-52696923D01*
X109002835Y-52699246D01*
X109002840Y-52699249D01*
X109200045Y-52791206D01*
X109205359Y-52793684D01*
X109210667Y-52795106D01*
X109210669Y-52795107D01*
X109421200Y-52851519D01*
X109421202Y-52851519D01*
X109426515Y-52852943D01*
X109654602Y-52872898D01*
X109882689Y-52852943D01*
X109888002Y-52851519D01*
X109888004Y-52851519D01*
X110098535Y-52795107D01*
X110098537Y-52795106D01*
X110103845Y-52793684D01*
X110109159Y-52791206D01*
X110306364Y-52699249D01*
X110306369Y-52699246D01*
X110311351Y-52696923D01*
X110416213Y-52623498D01*
X110494391Y-52568757D01*
X110494394Y-52568755D01*
X110498902Y-52565598D01*
X110660800Y-52403700D01*
X110672899Y-52386422D01*
X110746014Y-52282002D01*
X110792125Y-52216149D01*
X110794448Y-52211167D01*
X110794451Y-52211162D01*
X110810407Y-52176943D01*
X110857324Y-52123658D01*
X110925601Y-52104197D01*
X110993561Y-52124739D01*
X111038797Y-52176943D01*
X111054753Y-52211162D01*
X111054756Y-52211167D01*
X111057079Y-52216149D01*
X111103190Y-52282002D01*
X111176306Y-52386422D01*
X111188404Y-52403700D01*
X111350302Y-52565598D01*
X111354810Y-52568755D01*
X111354813Y-52568757D01*
X111432991Y-52623498D01*
X111537853Y-52696923D01*
X111542835Y-52699246D01*
X111542840Y-52699249D01*
X111740045Y-52791206D01*
X111745359Y-52793684D01*
X111750667Y-52795106D01*
X111750669Y-52795107D01*
X111961200Y-52851519D01*
X111961202Y-52851519D01*
X111966515Y-52852943D01*
X112194602Y-52872898D01*
X112422689Y-52852943D01*
X112428002Y-52851519D01*
X112428004Y-52851519D01*
X112638535Y-52795107D01*
X112638537Y-52795106D01*
X112643845Y-52793684D01*
X112649159Y-52791206D01*
X112846364Y-52699249D01*
X112846369Y-52699246D01*
X112851351Y-52696923D01*
X112956213Y-52623498D01*
X113034391Y-52568757D01*
X113034394Y-52568755D01*
X113038902Y-52565598D01*
X113200800Y-52403700D01*
X113212899Y-52386422D01*
X113286014Y-52282002D01*
X113332125Y-52216149D01*
X113334448Y-52211167D01*
X113334451Y-52211162D01*
X113350407Y-52176943D01*
X113397324Y-52123658D01*
X113465601Y-52104197D01*
X113533561Y-52124739D01*
X113578797Y-52176943D01*
X113594753Y-52211162D01*
X113594756Y-52211167D01*
X113597079Y-52216149D01*
X113643190Y-52282002D01*
X113716306Y-52386422D01*
X113728404Y-52403700D01*
X113890302Y-52565598D01*
X113894810Y-52568755D01*
X113894813Y-52568757D01*
X113972991Y-52623498D01*
X114077853Y-52696923D01*
X114082835Y-52699246D01*
X114082840Y-52699249D01*
X114280045Y-52791206D01*
X114285359Y-52793684D01*
X114290667Y-52795106D01*
X114290669Y-52795107D01*
X114501200Y-52851519D01*
X114501202Y-52851519D01*
X114506515Y-52852943D01*
X114734602Y-52872898D01*
X114962689Y-52852943D01*
X114968002Y-52851519D01*
X114968004Y-52851519D01*
X115178535Y-52795107D01*
X115178537Y-52795106D01*
X115183845Y-52793684D01*
X115189159Y-52791206D01*
X115386364Y-52699249D01*
X115386369Y-52699246D01*
X115391351Y-52696923D01*
X115496213Y-52623498D01*
X115574391Y-52568757D01*
X115574394Y-52568755D01*
X115578902Y-52565598D01*
X115740800Y-52403700D01*
X115752899Y-52386422D01*
X115826014Y-52282002D01*
X115872125Y-52216149D01*
X115874448Y-52211167D01*
X115874451Y-52211162D01*
X115890407Y-52176943D01*
X115937324Y-52123658D01*
X116005601Y-52104197D01*
X116073561Y-52124739D01*
X116118797Y-52176943D01*
X116134753Y-52211162D01*
X116134756Y-52211167D01*
X116137079Y-52216149D01*
X116183190Y-52282002D01*
X116256306Y-52386422D01*
X116268404Y-52403700D01*
X116430302Y-52565598D01*
X116434810Y-52568755D01*
X116434813Y-52568757D01*
X116512991Y-52623498D01*
X116617853Y-52696923D01*
X116622835Y-52699246D01*
X116622840Y-52699249D01*
X116820045Y-52791206D01*
X116825359Y-52793684D01*
X116830667Y-52795106D01*
X116830669Y-52795107D01*
X117041200Y-52851519D01*
X117041202Y-52851519D01*
X117046515Y-52852943D01*
X117274602Y-52872898D01*
X117502689Y-52852943D01*
X117508002Y-52851519D01*
X117508004Y-52851519D01*
X117718535Y-52795107D01*
X117718537Y-52795106D01*
X117723845Y-52793684D01*
X117729159Y-52791206D01*
X117926364Y-52699249D01*
X117926369Y-52699246D01*
X117931351Y-52696923D01*
X118036213Y-52623498D01*
X118114391Y-52568757D01*
X118114394Y-52568755D01*
X118118902Y-52565598D01*
X118280800Y-52403700D01*
X118292899Y-52386422D01*
X118366014Y-52282002D01*
X118412125Y-52216149D01*
X118414448Y-52211167D01*
X118414451Y-52211162D01*
X118430407Y-52176943D01*
X118477324Y-52123658D01*
X118545601Y-52104197D01*
X118613561Y-52124739D01*
X118658797Y-52176943D01*
X118674753Y-52211162D01*
X118674756Y-52211167D01*
X118677079Y-52216149D01*
X118723190Y-52282002D01*
X118796306Y-52386422D01*
X118808404Y-52403700D01*
X118970302Y-52565598D01*
X118974810Y-52568755D01*
X118974813Y-52568757D01*
X119052991Y-52623498D01*
X119157853Y-52696923D01*
X119162835Y-52699246D01*
X119162840Y-52699249D01*
X119360045Y-52791206D01*
X119365359Y-52793684D01*
X119370667Y-52795106D01*
X119370669Y-52795107D01*
X119581200Y-52851519D01*
X119581202Y-52851519D01*
X119586515Y-52852943D01*
X119814602Y-52872898D01*
X120042689Y-52852943D01*
X120048002Y-52851519D01*
X120048004Y-52851519D01*
X120258535Y-52795107D01*
X120258537Y-52795106D01*
X120263845Y-52793684D01*
X120269159Y-52791206D01*
X120466364Y-52699249D01*
X120466369Y-52699246D01*
X120471351Y-52696923D01*
X120576213Y-52623498D01*
X120654391Y-52568757D01*
X120654394Y-52568755D01*
X120658902Y-52565598D01*
X120820800Y-52403700D01*
X120832899Y-52386422D01*
X120906014Y-52282002D01*
X120952125Y-52216149D01*
X120954448Y-52211167D01*
X120954451Y-52211162D01*
X120970407Y-52176943D01*
X121017324Y-52123658D01*
X121085601Y-52104197D01*
X121153561Y-52124739D01*
X121198797Y-52176943D01*
X121214753Y-52211162D01*
X121214756Y-52211167D01*
X121217079Y-52216149D01*
X121263190Y-52282002D01*
X121336306Y-52386422D01*
X121348404Y-52403700D01*
X121510302Y-52565598D01*
X121514810Y-52568755D01*
X121514813Y-52568757D01*
X121592991Y-52623498D01*
X121697853Y-52696923D01*
X121702835Y-52699246D01*
X121702840Y-52699249D01*
X121737059Y-52715205D01*
X121790344Y-52762122D01*
X121809805Y-52830399D01*
X121789263Y-52898359D01*
X121737059Y-52943595D01*
X121702840Y-52959551D01*
X121702835Y-52959554D01*
X121697853Y-52961877D01*
X121663338Y-52986045D01*
X121514813Y-53090043D01*
X121514810Y-53090045D01*
X121510302Y-53093202D01*
X121348404Y-53255100D01*
X121345247Y-53259608D01*
X121345245Y-53259611D01*
X121325056Y-53288444D01*
X121217079Y-53442651D01*
X121214756Y-53447633D01*
X121214753Y-53447638D01*
X121127839Y-53634028D01*
X121120318Y-53650157D01*
X121118896Y-53655465D01*
X121118895Y-53655467D01*
X121079765Y-53801500D01*
X121061059Y-53871313D01*
X121041104Y-54099400D01*
X121061059Y-54327487D01*
X121062483Y-54332800D01*
X121062483Y-54332802D01*
X121099154Y-54469657D01*
X121120318Y-54548643D01*
X121122641Y-54553624D01*
X121122641Y-54553625D01*
X121214753Y-54751162D01*
X121214756Y-54751167D01*
X121217079Y-54756149D01*
X121274129Y-54837624D01*
X121329372Y-54916519D01*
X121348404Y-54943700D01*
X121510302Y-55105598D01*
X121514810Y-55108755D01*
X121514813Y-55108757D01*
X121560787Y-55140948D01*
X121697853Y-55236923D01*
X121702835Y-55239246D01*
X121702840Y-55239249D01*
X121737059Y-55255205D01*
X121790344Y-55302122D01*
X121809805Y-55370399D01*
X121789263Y-55438359D01*
X121737059Y-55483595D01*
X121702840Y-55499551D01*
X121702835Y-55499554D01*
X121697853Y-55501877D01*
X121654426Y-55532285D01*
X121514813Y-55630043D01*
X121514810Y-55630045D01*
X121510302Y-55633202D01*
X121348404Y-55795100D01*
X121217079Y-55982651D01*
X121214756Y-55987633D01*
X121214753Y-55987638D01*
X121126852Y-56176145D01*
X121120318Y-56190157D01*
X121118896Y-56195465D01*
X121118895Y-56195467D01*
X121089478Y-56305252D01*
X121061059Y-56411313D01*
X121041104Y-56639400D01*
X121061059Y-56867487D01*
X121062483Y-56872800D01*
X121062483Y-56872802D01*
X121084906Y-56956483D01*
X121120318Y-57088643D01*
X121122641Y-57093624D01*
X121122641Y-57093625D01*
X121214753Y-57291162D01*
X121214756Y-57291167D01*
X121217079Y-57296149D01*
X121275297Y-57379292D01*
X121343881Y-57477240D01*
X121348404Y-57483700D01*
X121510302Y-57645598D01*
X121514810Y-57648755D01*
X121514813Y-57648757D01*
X121532528Y-57661161D01*
X121697853Y-57776923D01*
X121702835Y-57779246D01*
X121702840Y-57779249D01*
X121737059Y-57795205D01*
X121790344Y-57842122D01*
X121809805Y-57910399D01*
X121789263Y-57978359D01*
X121737059Y-58023595D01*
X121702840Y-58039551D01*
X121702835Y-58039554D01*
X121697853Y-58041877D01*
X121598421Y-58111500D01*
X121514813Y-58170043D01*
X121514810Y-58170045D01*
X121510302Y-58173202D01*
X121348404Y-58335100D01*
X121345247Y-58339608D01*
X121345245Y-58339611D01*
X121327749Y-58364598D01*
X121217079Y-58522651D01*
X121214756Y-58527633D01*
X121214753Y-58527638D01*
X121161090Y-58642721D01*
X121120318Y-58730157D01*
X121118896Y-58735465D01*
X121118895Y-58735467D01*
X121066832Y-58929769D01*
X121061059Y-58951313D01*
X121041104Y-59179400D01*
X121061059Y-59407487D01*
X121062483Y-59412800D01*
X121062483Y-59412802D01*
X121086865Y-59503794D01*
X121120318Y-59628643D01*
X121122641Y-59633624D01*
X121122641Y-59633625D01*
X121214753Y-59831162D01*
X121214756Y-59831167D01*
X121217079Y-59836149D01*
X121280783Y-59927128D01*
X121339901Y-60011556D01*
X121348404Y-60023700D01*
X121510302Y-60185598D01*
X121514810Y-60188755D01*
X121514813Y-60188757D01*
X121550894Y-60214021D01*
X121697853Y-60316923D01*
X121702835Y-60319246D01*
X121702840Y-60319249D01*
X121737059Y-60335205D01*
X121790344Y-60382122D01*
X121809805Y-60450399D01*
X121789263Y-60518359D01*
X121737059Y-60563595D01*
X121702840Y-60579551D01*
X121702835Y-60579554D01*
X121697853Y-60581877D01*
X121635419Y-60625594D01*
X121514813Y-60710043D01*
X121514810Y-60710045D01*
X121510302Y-60713202D01*
X121348404Y-60875100D01*
X121345247Y-60879608D01*
X121345245Y-60879611D01*
X121331919Y-60898643D01*
X121217079Y-61062651D01*
X121214756Y-61067633D01*
X121214753Y-61067638D01*
X121145152Y-61216899D01*
X121120318Y-61270157D01*
X121118896Y-61275465D01*
X121118895Y-61275467D01*
X121075263Y-61438304D01*
X121061059Y-61491313D01*
X121041104Y-61719400D01*
X121061059Y-61947487D01*
X121120318Y-62168643D01*
X121122641Y-62173624D01*
X121122641Y-62173625D01*
X121214753Y-62371162D01*
X121214756Y-62371167D01*
X121217079Y-62376149D01*
X121239988Y-62408866D01*
X121318588Y-62521118D01*
X121348404Y-62563700D01*
X121510302Y-62725598D01*
X121514810Y-62728755D01*
X121514813Y-62728757D01*
X121590124Y-62781490D01*
X121697853Y-62856923D01*
X121702835Y-62859246D01*
X121702840Y-62859249D01*
X121737059Y-62875205D01*
X121790344Y-62922122D01*
X121809805Y-62990399D01*
X121789263Y-63058359D01*
X121737059Y-63103595D01*
X121702840Y-63119551D01*
X121702835Y-63119554D01*
X121697853Y-63121877D01*
X121656013Y-63151174D01*
X121514813Y-63250043D01*
X121514810Y-63250045D01*
X121510302Y-63253202D01*
X121348404Y-63415100D01*
X121217079Y-63602651D01*
X121214756Y-63607633D01*
X121214753Y-63607638D01*
X121122641Y-63805175D01*
X121120318Y-63810157D01*
X121118896Y-63815465D01*
X121118895Y-63815467D01*
X121088534Y-63928774D01*
X121061059Y-64031313D01*
X121041104Y-64259400D01*
X121061059Y-64487487D01*
X121062482Y-64492799D01*
X121062483Y-64492802D01*
X121092224Y-64603794D01*
X121120318Y-64708643D01*
X121122641Y-64713624D01*
X121122641Y-64713625D01*
X121214753Y-64911162D01*
X121214756Y-64911167D01*
X121217079Y-64916149D01*
X121348404Y-65103700D01*
X121510302Y-65265598D01*
X121514810Y-65268755D01*
X121514813Y-65268757D01*
X121582356Y-65316051D01*
X121697853Y-65396923D01*
X121702835Y-65399246D01*
X121702840Y-65399249D01*
X121737059Y-65415205D01*
X121790344Y-65462122D01*
X121809805Y-65530399D01*
X121789263Y-65598359D01*
X121737059Y-65643595D01*
X121702840Y-65659551D01*
X121702835Y-65659554D01*
X121697853Y-65661877D01*
X121652784Y-65693435D01*
X121514813Y-65790043D01*
X121514810Y-65790045D01*
X121510302Y-65793202D01*
X121348404Y-65955100D01*
X121345247Y-65959608D01*
X121345245Y-65959611D01*
X121309264Y-66010997D01*
X121217079Y-66142651D01*
X121214756Y-66147633D01*
X121214753Y-66147638D01*
X121198797Y-66181857D01*
X121151880Y-66235142D01*
X121083603Y-66254603D01*
X121015643Y-66234061D01*
X120970407Y-66181857D01*
X120954451Y-66147638D01*
X120954448Y-66147633D01*
X120952125Y-66142651D01*
X120859940Y-66010997D01*
X120823959Y-65959611D01*
X120823957Y-65959608D01*
X120820800Y-65955100D01*
X120658902Y-65793202D01*
X120654394Y-65790045D01*
X120654391Y-65790043D01*
X120516420Y-65693435D01*
X120471351Y-65661877D01*
X120466369Y-65659554D01*
X120466364Y-65659551D01*
X120268827Y-65567439D01*
X120268826Y-65567439D01*
X120263845Y-65565116D01*
X120258537Y-65563694D01*
X120258535Y-65563693D01*
X120048004Y-65507281D01*
X120048002Y-65507281D01*
X120042689Y-65505857D01*
X119814602Y-65485902D01*
X119586515Y-65505857D01*
X119581202Y-65507281D01*
X119581200Y-65507281D01*
X119370669Y-65563693D01*
X119370667Y-65563694D01*
X119365359Y-65565116D01*
X119360378Y-65567439D01*
X119360377Y-65567439D01*
X119162840Y-65659551D01*
X119162835Y-65659554D01*
X119157853Y-65661877D01*
X119112784Y-65693435D01*
X118974813Y-65790043D01*
X118974810Y-65790045D01*
X118970302Y-65793202D01*
X118808404Y-65955100D01*
X118805247Y-65959608D01*
X118805245Y-65959611D01*
X118769264Y-66010997D01*
X118677079Y-66142651D01*
X118674756Y-66147633D01*
X118674753Y-66147638D01*
X118658797Y-66181857D01*
X118611880Y-66235142D01*
X118543603Y-66254603D01*
X118475643Y-66234061D01*
X118430407Y-66181857D01*
X118414451Y-66147638D01*
X118414448Y-66147633D01*
X118412125Y-66142651D01*
X118319940Y-66010997D01*
X118283959Y-65959611D01*
X118283957Y-65959608D01*
X118280800Y-65955100D01*
X118118902Y-65793202D01*
X118114394Y-65790045D01*
X118114391Y-65790043D01*
X117976420Y-65693435D01*
X117931351Y-65661877D01*
X117926369Y-65659554D01*
X117926364Y-65659551D01*
X117728827Y-65567439D01*
X117728826Y-65567439D01*
X117723845Y-65565116D01*
X117718537Y-65563694D01*
X117718535Y-65563693D01*
X117508004Y-65507281D01*
X117508002Y-65507281D01*
X117502689Y-65505857D01*
X117274602Y-65485902D01*
X117046515Y-65505857D01*
X117041202Y-65507281D01*
X117041200Y-65507281D01*
X116830669Y-65563693D01*
X116830667Y-65563694D01*
X116825359Y-65565116D01*
X116820378Y-65567439D01*
X116820377Y-65567439D01*
X116622840Y-65659551D01*
X116622835Y-65659554D01*
X116617853Y-65661877D01*
X116572784Y-65693435D01*
X116434813Y-65790043D01*
X116434810Y-65790045D01*
X116430302Y-65793202D01*
X116268404Y-65955100D01*
X116265247Y-65959608D01*
X116265245Y-65959611D01*
X116229264Y-66010997D01*
X116137079Y-66142651D01*
X116134756Y-66147633D01*
X116134753Y-66147638D01*
X116118797Y-66181857D01*
X116071880Y-66235142D01*
X116003603Y-66254603D01*
X115935643Y-66234061D01*
X115890407Y-66181857D01*
X115874451Y-66147638D01*
X115874448Y-66147633D01*
X115872125Y-66142651D01*
X115779940Y-66010997D01*
X115743959Y-65959611D01*
X115743957Y-65959608D01*
X115740800Y-65955100D01*
X115578902Y-65793202D01*
X115574394Y-65790045D01*
X115574391Y-65790043D01*
X115436420Y-65693435D01*
X115391351Y-65661877D01*
X115386369Y-65659554D01*
X115386364Y-65659551D01*
X115188827Y-65567439D01*
X115188826Y-65567439D01*
X115183845Y-65565116D01*
X115178537Y-65563694D01*
X115178535Y-65563693D01*
X114968004Y-65507281D01*
X114968002Y-65507281D01*
X114962689Y-65505857D01*
X114734602Y-65485902D01*
X114506515Y-65505857D01*
X114501202Y-65507281D01*
X114501200Y-65507281D01*
X114290669Y-65563693D01*
X114290667Y-65563694D01*
X114285359Y-65565116D01*
X114280378Y-65567439D01*
X114280377Y-65567439D01*
X114082840Y-65659551D01*
X114082835Y-65659554D01*
X114077853Y-65661877D01*
X114032784Y-65693435D01*
X113894813Y-65790043D01*
X113894810Y-65790045D01*
X113890302Y-65793202D01*
X113728404Y-65955100D01*
X113725247Y-65959608D01*
X113725245Y-65959611D01*
X113689264Y-66010997D01*
X113597079Y-66142651D01*
X113594756Y-66147633D01*
X113594753Y-66147638D01*
X113578797Y-66181857D01*
X113531880Y-66235142D01*
X113463603Y-66254603D01*
X113395643Y-66234061D01*
X113350407Y-66181857D01*
X113334451Y-66147638D01*
X113334448Y-66147633D01*
X113332125Y-66142651D01*
X113239940Y-66010997D01*
X113203959Y-65959611D01*
X113203957Y-65959608D01*
X113200800Y-65955100D01*
X113038902Y-65793202D01*
X113034394Y-65790045D01*
X113034391Y-65790043D01*
X112896420Y-65693435D01*
X112851351Y-65661877D01*
X112846369Y-65659554D01*
X112846364Y-65659551D01*
X112648827Y-65567439D01*
X112648826Y-65567439D01*
X112643845Y-65565116D01*
X112638537Y-65563694D01*
X112638535Y-65563693D01*
X112428004Y-65507281D01*
X112428002Y-65507281D01*
X112422689Y-65505857D01*
X112194602Y-65485902D01*
X111966515Y-65505857D01*
X111961202Y-65507281D01*
X111961200Y-65507281D01*
X111750669Y-65563693D01*
X111750667Y-65563694D01*
X111745359Y-65565116D01*
X111740378Y-65567439D01*
X111740377Y-65567439D01*
X111542840Y-65659551D01*
X111542835Y-65659554D01*
X111537853Y-65661877D01*
X111492784Y-65693435D01*
X111354813Y-65790043D01*
X111354810Y-65790045D01*
X111350302Y-65793202D01*
X111188404Y-65955100D01*
X111185247Y-65959608D01*
X111185245Y-65959611D01*
X111149264Y-66010997D01*
X111057079Y-66142651D01*
X111054756Y-66147633D01*
X111054753Y-66147638D01*
X111038797Y-66181857D01*
X110991880Y-66235142D01*
X110923603Y-66254603D01*
X110855643Y-66234061D01*
X110810407Y-66181857D01*
X110794451Y-66147638D01*
X110794448Y-66147633D01*
X110792125Y-66142651D01*
X110699940Y-66010997D01*
X110663959Y-65959611D01*
X110663957Y-65959608D01*
X110660800Y-65955100D01*
X110498902Y-65793202D01*
X110494394Y-65790045D01*
X110494391Y-65790043D01*
X110356420Y-65693435D01*
X110311351Y-65661877D01*
X110306369Y-65659554D01*
X110306364Y-65659551D01*
X110108827Y-65567439D01*
X110108826Y-65567439D01*
X110103845Y-65565116D01*
X110098537Y-65563694D01*
X110098535Y-65563693D01*
X109888004Y-65507281D01*
X109888002Y-65507281D01*
X109882689Y-65505857D01*
X109654602Y-65485902D01*
X109426515Y-65505857D01*
X109421202Y-65507281D01*
X109421200Y-65507281D01*
X109210669Y-65563693D01*
X109210667Y-65563694D01*
X109205359Y-65565116D01*
X109200378Y-65567439D01*
X109200377Y-65567439D01*
X109002840Y-65659551D01*
X109002835Y-65659554D01*
X108997853Y-65661877D01*
X108952784Y-65693435D01*
X108814813Y-65790043D01*
X108814810Y-65790045D01*
X108810302Y-65793202D01*
X108648404Y-65955100D01*
X108645247Y-65959608D01*
X108645245Y-65959611D01*
X108609264Y-66010997D01*
X108517079Y-66142651D01*
X108514756Y-66147633D01*
X108514753Y-66147638D01*
X108498797Y-66181857D01*
X108451880Y-66235142D01*
X108383603Y-66254603D01*
X108315643Y-66234061D01*
X108270407Y-66181857D01*
X108254451Y-66147638D01*
X108254448Y-66147633D01*
X108252125Y-66142651D01*
X108159940Y-66010997D01*
X108123959Y-65959611D01*
X108123957Y-65959608D01*
X108120800Y-65955100D01*
X107958902Y-65793202D01*
X107954394Y-65790045D01*
X107954391Y-65790043D01*
X107816420Y-65693435D01*
X107771351Y-65661877D01*
X107766369Y-65659554D01*
X107766364Y-65659551D01*
X107568827Y-65567439D01*
X107568826Y-65567439D01*
X107563845Y-65565116D01*
X107558537Y-65563694D01*
X107558535Y-65563693D01*
X107348004Y-65507281D01*
X107348002Y-65507281D01*
X107342689Y-65505857D01*
X107114602Y-65485902D01*
X106886515Y-65505857D01*
X106881202Y-65507281D01*
X106881200Y-65507281D01*
X106670669Y-65563693D01*
X106670667Y-65563694D01*
X106665359Y-65565116D01*
X106660378Y-65567439D01*
X106660377Y-65567439D01*
X106462840Y-65659551D01*
X106462835Y-65659554D01*
X106457853Y-65661877D01*
X106412784Y-65693435D01*
X106274813Y-65790043D01*
X106274810Y-65790045D01*
X106270302Y-65793202D01*
X106108404Y-65955100D01*
X106105247Y-65959608D01*
X106105245Y-65959611D01*
X106069264Y-66010997D01*
X105977079Y-66142651D01*
X105974756Y-66147633D01*
X105974753Y-66147638D01*
X105958797Y-66181857D01*
X105911880Y-66235142D01*
X105843603Y-66254603D01*
X105775643Y-66234061D01*
X105730407Y-66181857D01*
X105714451Y-66147638D01*
X105714448Y-66147633D01*
X105712125Y-66142651D01*
X105619940Y-66010997D01*
X105583959Y-65959611D01*
X105583957Y-65959608D01*
X105580800Y-65955100D01*
X105418902Y-65793202D01*
X105414394Y-65790045D01*
X105414391Y-65790043D01*
X105276420Y-65693435D01*
X105231351Y-65661877D01*
X105226369Y-65659554D01*
X105226364Y-65659551D01*
X105028827Y-65567439D01*
X105028826Y-65567439D01*
X105023845Y-65565116D01*
X105018537Y-65563694D01*
X105018535Y-65563693D01*
X104808004Y-65507281D01*
X104808002Y-65507281D01*
X104802689Y-65505857D01*
X104574602Y-65485902D01*
X104346515Y-65505857D01*
X104341202Y-65507281D01*
X104341200Y-65507281D01*
X104130669Y-65563693D01*
X104130667Y-65563694D01*
X104125359Y-65565116D01*
X104120378Y-65567439D01*
X104120377Y-65567439D01*
X103922840Y-65659551D01*
X103922835Y-65659554D01*
X103917853Y-65661877D01*
X103872784Y-65693435D01*
X103734813Y-65790043D01*
X103734810Y-65790045D01*
X103730302Y-65793202D01*
X103568404Y-65955100D01*
X103565247Y-65959608D01*
X103565245Y-65959611D01*
X103529264Y-66010997D01*
X103437079Y-66142651D01*
X103434756Y-66147633D01*
X103434753Y-66147638D01*
X103418797Y-66181857D01*
X103371880Y-66235142D01*
X103303603Y-66254603D01*
X103235643Y-66234061D01*
X103190407Y-66181857D01*
X103174451Y-66147638D01*
X103174448Y-66147633D01*
X103172125Y-66142651D01*
X103079940Y-66010997D01*
X103043959Y-65959611D01*
X103043957Y-65959608D01*
X103040800Y-65955100D01*
X102878902Y-65793202D01*
X102874394Y-65790045D01*
X102874391Y-65790043D01*
X102736420Y-65693435D01*
X102691351Y-65661877D01*
X102686369Y-65659554D01*
X102686364Y-65659551D01*
X102488827Y-65567439D01*
X102488826Y-65567439D01*
X102483845Y-65565116D01*
X102478537Y-65563694D01*
X102478535Y-65563693D01*
X102268004Y-65507281D01*
X102268002Y-65507281D01*
X102262689Y-65505857D01*
X102034602Y-65485902D01*
X101806515Y-65505857D01*
X101801202Y-65507281D01*
X101801200Y-65507281D01*
X101590669Y-65563693D01*
X101590667Y-65563694D01*
X101585359Y-65565116D01*
X101580378Y-65567439D01*
X101580377Y-65567439D01*
X101382840Y-65659551D01*
X101382835Y-65659554D01*
X101377853Y-65661877D01*
X101332784Y-65693435D01*
X101194813Y-65790043D01*
X101194810Y-65790045D01*
X101190302Y-65793202D01*
X101028404Y-65955100D01*
X101025247Y-65959608D01*
X101025245Y-65959611D01*
X100989264Y-66010997D01*
X100897079Y-66142651D01*
X100894756Y-66147633D01*
X100894753Y-66147638D01*
X100878797Y-66181857D01*
X100831880Y-66235142D01*
X100763603Y-66254603D01*
X100695643Y-66234061D01*
X100650407Y-66181857D01*
X100634451Y-66147638D01*
X100634448Y-66147633D01*
X100632125Y-66142651D01*
X100539940Y-66010997D01*
X100503959Y-65959611D01*
X100503957Y-65959608D01*
X100500800Y-65955100D01*
X100338902Y-65793202D01*
X100334394Y-65790045D01*
X100334391Y-65790043D01*
X100196420Y-65693435D01*
X100151351Y-65661877D01*
X100146369Y-65659554D01*
X100146364Y-65659551D01*
X99948827Y-65567439D01*
X99948826Y-65567439D01*
X99943845Y-65565116D01*
X99938537Y-65563694D01*
X99938535Y-65563693D01*
X99728004Y-65507281D01*
X99728002Y-65507281D01*
X99722689Y-65505857D01*
X99494602Y-65485902D01*
X99266515Y-65505857D01*
X99261202Y-65507281D01*
X99261200Y-65507281D01*
X99050669Y-65563693D01*
X99050667Y-65563694D01*
X99045359Y-65565116D01*
X99040378Y-65567439D01*
X99040377Y-65567439D01*
X98842840Y-65659551D01*
X98842835Y-65659554D01*
X98837853Y-65661877D01*
X98792784Y-65693435D01*
X98654813Y-65790043D01*
X98654810Y-65790045D01*
X98650302Y-65793202D01*
X98488404Y-65955100D01*
X98485247Y-65959608D01*
X98485245Y-65959611D01*
X98449264Y-66010997D01*
X98357079Y-66142651D01*
X98354756Y-66147633D01*
X98354753Y-66147638D01*
X98305753Y-66252721D01*
X98260318Y-66350157D01*
X98258896Y-66355465D01*
X98258895Y-66355467D01*
X98209028Y-66541571D01*
X98201059Y-66571313D01*
X98181104Y-66799400D01*
X98201059Y-67027487D01*
X98202483Y-67032800D01*
X98202483Y-67032802D01*
X98238427Y-67166944D01*
X98260318Y-67248643D01*
X98262641Y-67253624D01*
X98262641Y-67253625D01*
X98354753Y-67451162D01*
X98354756Y-67451167D01*
X98357079Y-67456149D01*
X98488404Y-67643700D01*
X98650302Y-67805598D01*
X98654810Y-67808755D01*
X98654813Y-67808757D01*
X98732991Y-67863498D01*
X98837853Y-67936923D01*
X98842835Y-67939246D01*
X98842840Y-67939249D01*
X99040377Y-68031361D01*
X99045359Y-68033684D01*
X99050667Y-68035106D01*
X99050669Y-68035107D01*
X99261200Y-68091519D01*
X99261202Y-68091519D01*
X99266515Y-68092943D01*
X99494602Y-68112898D01*
X99722689Y-68092943D01*
X99728002Y-68091519D01*
X99728004Y-68091519D01*
X99938535Y-68035107D01*
X99938537Y-68035106D01*
X99943845Y-68033684D01*
X99948827Y-68031361D01*
X100146364Y-67939249D01*
X100146369Y-67939246D01*
X100151351Y-67936923D01*
X100256213Y-67863498D01*
X100334391Y-67808757D01*
X100334394Y-67808755D01*
X100338902Y-67805598D01*
X100500800Y-67643700D01*
X100632125Y-67456149D01*
X100634448Y-67451167D01*
X100634451Y-67451162D01*
X100650407Y-67416943D01*
X100697324Y-67363658D01*
X100765601Y-67344197D01*
X100833561Y-67364739D01*
X100878797Y-67416943D01*
X100894753Y-67451162D01*
X100894756Y-67451167D01*
X100897079Y-67456149D01*
X101028404Y-67643700D01*
X101190302Y-67805598D01*
X101194810Y-67808755D01*
X101194813Y-67808757D01*
X101272991Y-67863498D01*
X101377853Y-67936923D01*
X101382835Y-67939246D01*
X101382840Y-67939249D01*
X101580377Y-68031361D01*
X101585359Y-68033684D01*
X101590667Y-68035106D01*
X101590669Y-68035107D01*
X101801200Y-68091519D01*
X101801202Y-68091519D01*
X101806515Y-68092943D01*
X102034602Y-68112898D01*
X102262689Y-68092943D01*
X102268002Y-68091519D01*
X102268004Y-68091519D01*
X102478535Y-68035107D01*
X102478537Y-68035106D01*
X102483845Y-68033684D01*
X102488827Y-68031361D01*
X102686364Y-67939249D01*
X102686369Y-67939246D01*
X102691351Y-67936923D01*
X102796213Y-67863498D01*
X102874391Y-67808757D01*
X102874394Y-67808755D01*
X102878902Y-67805598D01*
X103040800Y-67643700D01*
X103172125Y-67456149D01*
X103174448Y-67451167D01*
X103174451Y-67451162D01*
X103190407Y-67416943D01*
X103237324Y-67363658D01*
X103305601Y-67344197D01*
X103373561Y-67364739D01*
X103418797Y-67416943D01*
X103434753Y-67451162D01*
X103434756Y-67451167D01*
X103437079Y-67456149D01*
X103568404Y-67643700D01*
X103730302Y-67805598D01*
X103734810Y-67808755D01*
X103734813Y-67808757D01*
X103812991Y-67863498D01*
X103917853Y-67936923D01*
X103922835Y-67939246D01*
X103922840Y-67939249D01*
X104120377Y-68031361D01*
X104125359Y-68033684D01*
X104130667Y-68035106D01*
X104130669Y-68035107D01*
X104341200Y-68091519D01*
X104341202Y-68091519D01*
X104346515Y-68092943D01*
X104574602Y-68112898D01*
X104802689Y-68092943D01*
X104808002Y-68091519D01*
X104808004Y-68091519D01*
X105018535Y-68035107D01*
X105018537Y-68035106D01*
X105023845Y-68033684D01*
X105028827Y-68031361D01*
X105226364Y-67939249D01*
X105226369Y-67939246D01*
X105231351Y-67936923D01*
X105336213Y-67863498D01*
X105414391Y-67808757D01*
X105414394Y-67808755D01*
X105418902Y-67805598D01*
X105580800Y-67643700D01*
X105712125Y-67456149D01*
X105714448Y-67451167D01*
X105714451Y-67451162D01*
X105730407Y-67416943D01*
X105777324Y-67363658D01*
X105845601Y-67344197D01*
X105913561Y-67364739D01*
X105958797Y-67416943D01*
X105974753Y-67451162D01*
X105974756Y-67451167D01*
X105977079Y-67456149D01*
X106108404Y-67643700D01*
X106270302Y-67805598D01*
X106274810Y-67808755D01*
X106274813Y-67808757D01*
X106352991Y-67863498D01*
X106457853Y-67936923D01*
X106462835Y-67939246D01*
X106462840Y-67939249D01*
X106660377Y-68031361D01*
X106665359Y-68033684D01*
X106670667Y-68035106D01*
X106670669Y-68035107D01*
X106881200Y-68091519D01*
X106881202Y-68091519D01*
X106886515Y-68092943D01*
X107114602Y-68112898D01*
X107342689Y-68092943D01*
X107348002Y-68091519D01*
X107348004Y-68091519D01*
X107558535Y-68035107D01*
X107558537Y-68035106D01*
X107563845Y-68033684D01*
X107568827Y-68031361D01*
X107766364Y-67939249D01*
X107766369Y-67939246D01*
X107771351Y-67936923D01*
X107876213Y-67863498D01*
X107954391Y-67808757D01*
X107954394Y-67808755D01*
X107958902Y-67805598D01*
X108120800Y-67643700D01*
X108252125Y-67456149D01*
X108254448Y-67451167D01*
X108254451Y-67451162D01*
X108270407Y-67416943D01*
X108317324Y-67363658D01*
X108385601Y-67344197D01*
X108453561Y-67364739D01*
X108498797Y-67416943D01*
X108514753Y-67451162D01*
X108514756Y-67451167D01*
X108517079Y-67456149D01*
X108648404Y-67643700D01*
X108810302Y-67805598D01*
X108814810Y-67808755D01*
X108814813Y-67808757D01*
X108892991Y-67863498D01*
X108997853Y-67936923D01*
X109002835Y-67939246D01*
X109002840Y-67939249D01*
X109200377Y-68031361D01*
X109205359Y-68033684D01*
X109210667Y-68035106D01*
X109210669Y-68035107D01*
X109421200Y-68091519D01*
X109421202Y-68091519D01*
X109426515Y-68092943D01*
X109654602Y-68112898D01*
X109882689Y-68092943D01*
X109888002Y-68091519D01*
X109888004Y-68091519D01*
X110098535Y-68035107D01*
X110098537Y-68035106D01*
X110103845Y-68033684D01*
X110108827Y-68031361D01*
X110306364Y-67939249D01*
X110306369Y-67939246D01*
X110311351Y-67936923D01*
X110416213Y-67863498D01*
X110494391Y-67808757D01*
X110494394Y-67808755D01*
X110498902Y-67805598D01*
X110660800Y-67643700D01*
X110792125Y-67456149D01*
X110794448Y-67451167D01*
X110794451Y-67451162D01*
X110810407Y-67416943D01*
X110857324Y-67363658D01*
X110925601Y-67344197D01*
X110993561Y-67364739D01*
X111038797Y-67416943D01*
X111054753Y-67451162D01*
X111054756Y-67451167D01*
X111057079Y-67456149D01*
X111188404Y-67643700D01*
X111350302Y-67805598D01*
X111354810Y-67808755D01*
X111354813Y-67808757D01*
X111432991Y-67863498D01*
X111537853Y-67936923D01*
X111542835Y-67939246D01*
X111542840Y-67939249D01*
X111740377Y-68031361D01*
X111745359Y-68033684D01*
X111750667Y-68035106D01*
X111750669Y-68035107D01*
X111961200Y-68091519D01*
X111961202Y-68091519D01*
X111966515Y-68092943D01*
X112194602Y-68112898D01*
X112422689Y-68092943D01*
X112428002Y-68091519D01*
X112428004Y-68091519D01*
X112638535Y-68035107D01*
X112638537Y-68035106D01*
X112643845Y-68033684D01*
X112648827Y-68031361D01*
X112846364Y-67939249D01*
X112846369Y-67939246D01*
X112851351Y-67936923D01*
X112956213Y-67863498D01*
X113034391Y-67808757D01*
X113034394Y-67808755D01*
X113038902Y-67805598D01*
X113200800Y-67643700D01*
X113332125Y-67456149D01*
X113334448Y-67451167D01*
X113334451Y-67451162D01*
X113350407Y-67416943D01*
X113397324Y-67363658D01*
X113465601Y-67344197D01*
X113533561Y-67364739D01*
X113578797Y-67416943D01*
X113594753Y-67451162D01*
X113594756Y-67451167D01*
X113597079Y-67456149D01*
X113728404Y-67643700D01*
X113890302Y-67805598D01*
X113894810Y-67808755D01*
X113894813Y-67808757D01*
X113972991Y-67863498D01*
X114077853Y-67936923D01*
X114082835Y-67939246D01*
X114082840Y-67939249D01*
X114280377Y-68031361D01*
X114285359Y-68033684D01*
X114290667Y-68035106D01*
X114290669Y-68035107D01*
X114501200Y-68091519D01*
X114501202Y-68091519D01*
X114506515Y-68092943D01*
X114734602Y-68112898D01*
X114962689Y-68092943D01*
X114968002Y-68091519D01*
X114968004Y-68091519D01*
X115178535Y-68035107D01*
X115178537Y-68035106D01*
X115183845Y-68033684D01*
X115188827Y-68031361D01*
X115386364Y-67939249D01*
X115386369Y-67939246D01*
X115391351Y-67936923D01*
X115496213Y-67863498D01*
X115574391Y-67808757D01*
X115574394Y-67808755D01*
X115578902Y-67805598D01*
X115740800Y-67643700D01*
X115872125Y-67456149D01*
X115874448Y-67451167D01*
X115874451Y-67451162D01*
X115890407Y-67416943D01*
X115937324Y-67363658D01*
X116005601Y-67344197D01*
X116073561Y-67364739D01*
X116118797Y-67416943D01*
X116134753Y-67451162D01*
X116134756Y-67451167D01*
X116137079Y-67456149D01*
X116268404Y-67643700D01*
X116430302Y-67805598D01*
X116434810Y-67808755D01*
X116434813Y-67808757D01*
X116512991Y-67863498D01*
X116617853Y-67936923D01*
X116622835Y-67939246D01*
X116622840Y-67939249D01*
X116820377Y-68031361D01*
X116825359Y-68033684D01*
X116830667Y-68035106D01*
X116830669Y-68035107D01*
X117041200Y-68091519D01*
X117041202Y-68091519D01*
X117046515Y-68092943D01*
X117274602Y-68112898D01*
X117502689Y-68092943D01*
X117508002Y-68091519D01*
X117508004Y-68091519D01*
X117718535Y-68035107D01*
X117718537Y-68035106D01*
X117723845Y-68033684D01*
X117728827Y-68031361D01*
X117926364Y-67939249D01*
X117926369Y-67939246D01*
X117931351Y-67936923D01*
X118036213Y-67863498D01*
X118114391Y-67808757D01*
X118114394Y-67808755D01*
X118118902Y-67805598D01*
X118280800Y-67643700D01*
X118412125Y-67456149D01*
X118414448Y-67451167D01*
X118414451Y-67451162D01*
X118430407Y-67416943D01*
X118477324Y-67363658D01*
X118545601Y-67344197D01*
X118613561Y-67364739D01*
X118658797Y-67416943D01*
X118674753Y-67451162D01*
X118674756Y-67451167D01*
X118677079Y-67456149D01*
X118808404Y-67643700D01*
X118970302Y-67805598D01*
X118974810Y-67808755D01*
X118974813Y-67808757D01*
X119052991Y-67863498D01*
X119157853Y-67936923D01*
X119162835Y-67939246D01*
X119162840Y-67939249D01*
X119360377Y-68031361D01*
X119365359Y-68033684D01*
X119370667Y-68035106D01*
X119370669Y-68035107D01*
X119581200Y-68091519D01*
X119581202Y-68091519D01*
X119586515Y-68092943D01*
X119814602Y-68112898D01*
X120042689Y-68092943D01*
X120048002Y-68091519D01*
X120048004Y-68091519D01*
X120258535Y-68035107D01*
X120258537Y-68035106D01*
X120263845Y-68033684D01*
X120268827Y-68031361D01*
X120466364Y-67939249D01*
X120466369Y-67939246D01*
X120471351Y-67936923D01*
X120576213Y-67863498D01*
X120654391Y-67808757D01*
X120654394Y-67808755D01*
X120658902Y-67805598D01*
X120820800Y-67643700D01*
X120952125Y-67456149D01*
X120954448Y-67451167D01*
X120954451Y-67451162D01*
X120970407Y-67416943D01*
X121017324Y-67363658D01*
X121085601Y-67344197D01*
X121153561Y-67364739D01*
X121198797Y-67416943D01*
X121214753Y-67451162D01*
X121214756Y-67451167D01*
X121217079Y-67456149D01*
X121348404Y-67643700D01*
X121510302Y-67805598D01*
X121514810Y-67808755D01*
X121514813Y-67808757D01*
X121592991Y-67863498D01*
X121697853Y-67936923D01*
X121702835Y-67939246D01*
X121702840Y-67939249D01*
X121900377Y-68031361D01*
X121905359Y-68033684D01*
X121910667Y-68035106D01*
X121910669Y-68035107D01*
X122121200Y-68091519D01*
X122121202Y-68091519D01*
X122126515Y-68092943D01*
X122354602Y-68112898D01*
X122582689Y-68092943D01*
X122588002Y-68091519D01*
X122588004Y-68091519D01*
X122798535Y-68035107D01*
X122798537Y-68035106D01*
X122803845Y-68033684D01*
X122808827Y-68031361D01*
X123006364Y-67939249D01*
X123006369Y-67939246D01*
X123011351Y-67936923D01*
X123116213Y-67863498D01*
X123194391Y-67808757D01*
X123194394Y-67808755D01*
X123198902Y-67805598D01*
X123360800Y-67643700D01*
X123492125Y-67456149D01*
X123494448Y-67451167D01*
X123494451Y-67451162D01*
X123510407Y-67416943D01*
X123557324Y-67363658D01*
X123625601Y-67344197D01*
X123693561Y-67364739D01*
X123738797Y-67416943D01*
X123754753Y-67451162D01*
X123754756Y-67451167D01*
X123757079Y-67456149D01*
X123888404Y-67643700D01*
X124050302Y-67805598D01*
X124054810Y-67808755D01*
X124054813Y-67808757D01*
X124132991Y-67863498D01*
X124237853Y-67936923D01*
X124242835Y-67939246D01*
X124242840Y-67939249D01*
X124440377Y-68031361D01*
X124445359Y-68033684D01*
X124450667Y-68035106D01*
X124450669Y-68035107D01*
X124661200Y-68091519D01*
X124661202Y-68091519D01*
X124666515Y-68092943D01*
X124894602Y-68112898D01*
X125122689Y-68092943D01*
X125128002Y-68091519D01*
X125128004Y-68091519D01*
X125338535Y-68035107D01*
X125338537Y-68035106D01*
X125343845Y-68033684D01*
X125348827Y-68031361D01*
X125546364Y-67939249D01*
X125546369Y-67939246D01*
X125551351Y-67936923D01*
X125656213Y-67863498D01*
X125734391Y-67808757D01*
X125734394Y-67808755D01*
X125738902Y-67805598D01*
X125900800Y-67643700D01*
X126032125Y-67456149D01*
X126034448Y-67451167D01*
X126034451Y-67451162D01*
X126050407Y-67416943D01*
X126097324Y-67363658D01*
X126165601Y-67344197D01*
X126233561Y-67364739D01*
X126278797Y-67416943D01*
X126294753Y-67451162D01*
X126294756Y-67451167D01*
X126297079Y-67456149D01*
X126428404Y-67643700D01*
X126590302Y-67805598D01*
X126594810Y-67808755D01*
X126594813Y-67808757D01*
X126672991Y-67863498D01*
X126777853Y-67936923D01*
X126782835Y-67939246D01*
X126782840Y-67939249D01*
X126980377Y-68031361D01*
X126985359Y-68033684D01*
X126990667Y-68035106D01*
X126990669Y-68035107D01*
X127201200Y-68091519D01*
X127201202Y-68091519D01*
X127206515Y-68092943D01*
X127434602Y-68112898D01*
X127662689Y-68092943D01*
X127668002Y-68091519D01*
X127668004Y-68091519D01*
X127878535Y-68035107D01*
X127878537Y-68035106D01*
X127883845Y-68033684D01*
X127888827Y-68031361D01*
X128086364Y-67939249D01*
X128086369Y-67939246D01*
X128091351Y-67936923D01*
X128196213Y-67863498D01*
X128274391Y-67808757D01*
X128274394Y-67808755D01*
X128278902Y-67805598D01*
X128440800Y-67643700D01*
X128572125Y-67456149D01*
X128574448Y-67451167D01*
X128574451Y-67451162D01*
X128590407Y-67416943D01*
X128637324Y-67363658D01*
X128705601Y-67344197D01*
X128773561Y-67364739D01*
X128818797Y-67416943D01*
X128834753Y-67451162D01*
X128834756Y-67451167D01*
X128837079Y-67456149D01*
X128968404Y-67643700D01*
X129130302Y-67805598D01*
X129134810Y-67808755D01*
X129134813Y-67808757D01*
X129212991Y-67863498D01*
X129317853Y-67936923D01*
X129322835Y-67939246D01*
X129322840Y-67939249D01*
X129520377Y-68031361D01*
X129525359Y-68033684D01*
X129530667Y-68035106D01*
X129530669Y-68035107D01*
X129741200Y-68091519D01*
X129741202Y-68091519D01*
X129746515Y-68092943D01*
X129974602Y-68112898D01*
X130202689Y-68092943D01*
X130208002Y-68091519D01*
X130208004Y-68091519D01*
X130418535Y-68035107D01*
X130418537Y-68035106D01*
X130423845Y-68033684D01*
X130428827Y-68031361D01*
X130626364Y-67939249D01*
X130626369Y-67939246D01*
X130631351Y-67936923D01*
X130736213Y-67863498D01*
X130814391Y-67808757D01*
X130814394Y-67808755D01*
X130818902Y-67805598D01*
X130980800Y-67643700D01*
X131112125Y-67456149D01*
X131114448Y-67451167D01*
X131114451Y-67451162D01*
X131206563Y-67253625D01*
X131206563Y-67253624D01*
X131208886Y-67248643D01*
X131230778Y-67166944D01*
X131266721Y-67032802D01*
X131266721Y-67032800D01*
X131268145Y-67027487D01*
X131288100Y-66799400D01*
X131268145Y-66571313D01*
X131258733Y-66536185D01*
X131217619Y-66382749D01*
X131208886Y-66350157D01*
X131196152Y-66322848D01*
X131185491Y-66252659D01*
X131214471Y-66187846D01*
X131273890Y-66148989D01*
X131310347Y-66143600D01*
X140859364Y-66143600D01*
X140927485Y-66163602D01*
X140973978Y-66217258D01*
X140984082Y-66287532D01*
X140979197Y-66308536D01*
X140936458Y-66440072D01*
X140935768Y-66446633D01*
X140935768Y-66446635D01*
X140921735Y-66580157D01*
X140916496Y-66630000D01*
X140936458Y-66819928D01*
X140995473Y-67001556D01*
X140998776Y-67007278D01*
X140998777Y-67007279D01*
X141007280Y-67022007D01*
X141090960Y-67166944D01*
X141218747Y-67308866D01*
X141295649Y-67364739D01*
X141367502Y-67416943D01*
X141373248Y-67421118D01*
X141379276Y-67423802D01*
X141379278Y-67423803D01*
X141440728Y-67451162D01*
X141547712Y-67498794D01*
X141641112Y-67518647D01*
X141728056Y-67537128D01*
X141728061Y-67537128D01*
X141734513Y-67538500D01*
X141925487Y-67538500D01*
X141931939Y-67537128D01*
X141931944Y-67537128D01*
X142018888Y-67518647D01*
X142112288Y-67498794D01*
X142219272Y-67451162D01*
X142280722Y-67423803D01*
X142280724Y-67423802D01*
X142286752Y-67421118D01*
X142292499Y-67416943D01*
X142364351Y-67364739D01*
X142441253Y-67308866D01*
X142569040Y-67166944D01*
X142652720Y-67022007D01*
X142661223Y-67007279D01*
X142661224Y-67007278D01*
X142664527Y-67001556D01*
X142723542Y-66819928D01*
X142743504Y-66630000D01*
X142738265Y-66580157D01*
X142724232Y-66446635D01*
X142724232Y-66446633D01*
X142723542Y-66440072D01*
X142664527Y-66258444D01*
X142650450Y-66234061D01*
X142572343Y-66098777D01*
X142569040Y-66093056D01*
X142564620Y-66088147D01*
X142564617Y-66088143D01*
X142527644Y-66047081D01*
X142496192Y-65977907D01*
X142489873Y-65925687D01*
X142489873Y-65925685D01*
X142488960Y-65918144D01*
X142486276Y-65911041D01*
X142484853Y-65905246D01*
X142482620Y-65897083D01*
X142480892Y-65891359D01*
X142479586Y-65883878D01*
X142455235Y-65828406D01*
X142452744Y-65822301D01*
X142434016Y-65772737D01*
X142434015Y-65772735D01*
X142431331Y-65765632D01*
X142427030Y-65759373D01*
X142424276Y-65754106D01*
X142420153Y-65746699D01*
X142417111Y-65741555D01*
X142414054Y-65734592D01*
X142377170Y-65686525D01*
X142373306Y-65681205D01*
X142343288Y-65637528D01*
X142343286Y-65637526D01*
X142338986Y-65631269D01*
X142305580Y-65601505D01*
X142294881Y-65591973D01*
X142289605Y-65586991D01*
X141715905Y-65013291D01*
X141710051Y-65007025D01*
X141679033Y-64971468D01*
X141674037Y-64965741D01*
X141624452Y-64930892D01*
X141619177Y-64926974D01*
X141605372Y-64916149D01*
X141571506Y-64889595D01*
X141564583Y-64886469D01*
X141559436Y-64883352D01*
X141552168Y-64879207D01*
X141546866Y-64876364D01*
X141540648Y-64871994D01*
X141484201Y-64849986D01*
X141478123Y-64847431D01*
X141429837Y-64825629D01*
X141429835Y-64825628D01*
X141422913Y-64822503D01*
X141415443Y-64821119D01*
X141409741Y-64819332D01*
X141401644Y-64817025D01*
X141395827Y-64815531D01*
X141388748Y-64812771D01*
X141381219Y-64811780D01*
X141381216Y-64811779D01*
X141343387Y-64806799D01*
X141328677Y-64804862D01*
X141322180Y-64803833D01*
X141262607Y-64792792D01*
X141255027Y-64793229D01*
X141255026Y-64793229D01*
X141203657Y-64796191D01*
X141196404Y-64796400D01*
X136847300Y-64796400D01*
X136779179Y-64776398D01*
X136732686Y-64722742D01*
X136722623Y-64652755D01*
X136723542Y-64649928D01*
X136743504Y-64460000D01*
X136723542Y-64270072D01*
X136664527Y-64088444D01*
X136569040Y-63923056D01*
X136467386Y-63810157D01*
X136445675Y-63786045D01*
X136445674Y-63786044D01*
X136441253Y-63781134D01*
X136286752Y-63668882D01*
X136280724Y-63666198D01*
X136280722Y-63666197D01*
X136118319Y-63593891D01*
X136118318Y-63593891D01*
X136112288Y-63591206D01*
X136018887Y-63571353D01*
X135931944Y-63552872D01*
X135931939Y-63552872D01*
X135925487Y-63551500D01*
X135734513Y-63551500D01*
X135728061Y-63552872D01*
X135728056Y-63552872D01*
X135641113Y-63571353D01*
X135547712Y-63591206D01*
X135541682Y-63593891D01*
X135541681Y-63593891D01*
X135379278Y-63666197D01*
X135379276Y-63666198D01*
X135373248Y-63668882D01*
X135218747Y-63781134D01*
X135214326Y-63786044D01*
X135214325Y-63786045D01*
X135192615Y-63810157D01*
X135090960Y-63923056D01*
X134995473Y-64088444D01*
X134936458Y-64270072D01*
X134916496Y-64460000D01*
X134935909Y-64644704D01*
X134936458Y-64649928D01*
X134935503Y-64650028D01*
X134930544Y-64714995D01*
X134887727Y-64771627D01*
X134821089Y-64796120D01*
X134812700Y-64796400D01*
X131349578Y-64796400D01*
X131281457Y-64776398D01*
X131234964Y-64722742D01*
X131224860Y-64652468D01*
X131227869Y-64637799D01*
X131268145Y-64487487D01*
X131288100Y-64259400D01*
X131268145Y-64031313D01*
X131240670Y-63928774D01*
X131210309Y-63815467D01*
X131210308Y-63815465D01*
X131208886Y-63810157D01*
X131206563Y-63805175D01*
X131114451Y-63607638D01*
X131114448Y-63607633D01*
X131112125Y-63602651D01*
X130980800Y-63415100D01*
X130818902Y-63253202D01*
X130814394Y-63250045D01*
X130814391Y-63250043D01*
X130673191Y-63151174D01*
X130631351Y-63121877D01*
X130626369Y-63119554D01*
X130626364Y-63119551D01*
X130592145Y-63103595D01*
X130538860Y-63056678D01*
X130519399Y-62988401D01*
X130539941Y-62920441D01*
X130592145Y-62875205D01*
X130626364Y-62859249D01*
X130626369Y-62859246D01*
X130631351Y-62856923D01*
X130739080Y-62781490D01*
X130814391Y-62728757D01*
X130814394Y-62728755D01*
X130818902Y-62725598D01*
X130980800Y-62563700D01*
X131010617Y-62521118D01*
X131089216Y-62408866D01*
X131112125Y-62376149D01*
X131114448Y-62371168D01*
X131114454Y-62371157D01*
X131126240Y-62345881D01*
X131173157Y-62292596D01*
X131241434Y-62273136D01*
X131309394Y-62293678D01*
X131334064Y-62314816D01*
X131418747Y-62408866D01*
X131573248Y-62521118D01*
X131579276Y-62523802D01*
X131579278Y-62523803D01*
X131658757Y-62559189D01*
X131747712Y-62598794D01*
X131841112Y-62618647D01*
X131928056Y-62637128D01*
X131928061Y-62637128D01*
X131934513Y-62638500D01*
X132125487Y-62638500D01*
X132131939Y-62637128D01*
X132131944Y-62637128D01*
X132218888Y-62618647D01*
X132312288Y-62598794D01*
X132401243Y-62559189D01*
X132480722Y-62523803D01*
X132480724Y-62523802D01*
X132486752Y-62521118D01*
X132641253Y-62408866D01*
X132659326Y-62388794D01*
X132764621Y-62271852D01*
X132764622Y-62271851D01*
X132769040Y-62266944D01*
X132864527Y-62101556D01*
X132923542Y-61919928D01*
X132925083Y-61905271D01*
X132942814Y-61736565D01*
X132943504Y-61730000D01*
X132938972Y-61686876D01*
X132924232Y-61546635D01*
X132924232Y-61546633D01*
X132923542Y-61540072D01*
X132864527Y-61358444D01*
X132859694Y-61350072D01*
X132772341Y-61198774D01*
X132769040Y-61193056D01*
X132692419Y-61107959D01*
X132645675Y-61056045D01*
X132645674Y-61056044D01*
X132641253Y-61051134D01*
X132486752Y-60938882D01*
X132480724Y-60936198D01*
X132480722Y-60936197D01*
X132318319Y-60863891D01*
X132318318Y-60863891D01*
X132312288Y-60861206D01*
X132217335Y-60841023D01*
X132131944Y-60822872D01*
X132131939Y-60822872D01*
X132125487Y-60821500D01*
X131934513Y-60821500D01*
X131928061Y-60822872D01*
X131928056Y-60822872D01*
X131842665Y-60841023D01*
X131747712Y-60861206D01*
X131741682Y-60863891D01*
X131741681Y-60863891D01*
X131579278Y-60936197D01*
X131579276Y-60936198D01*
X131573248Y-60938882D01*
X131418747Y-61051134D01*
X131414326Y-61056044D01*
X131414325Y-61056045D01*
X131340582Y-61137945D01*
X131280136Y-61175185D01*
X131209152Y-61173833D01*
X131150168Y-61134320D01*
X131132751Y-61106884D01*
X131114453Y-61067642D01*
X131114449Y-61067636D01*
X131112125Y-61062651D01*
X130997285Y-60898643D01*
X130983959Y-60879611D01*
X130983957Y-60879608D01*
X130980800Y-60875100D01*
X130818902Y-60713202D01*
X130814394Y-60710045D01*
X130814391Y-60710043D01*
X130693785Y-60625594D01*
X130631351Y-60581877D01*
X130626369Y-60579554D01*
X130626364Y-60579551D01*
X130428827Y-60487439D01*
X130428826Y-60487439D01*
X130423845Y-60485116D01*
X130418537Y-60483694D01*
X130418535Y-60483693D01*
X130208004Y-60427281D01*
X130208002Y-60427281D01*
X130202689Y-60425857D01*
X129974602Y-60405902D01*
X129746515Y-60425857D01*
X129741202Y-60427281D01*
X129741200Y-60427281D01*
X129530669Y-60483693D01*
X129530667Y-60483694D01*
X129525359Y-60485116D01*
X129520378Y-60487439D01*
X129520377Y-60487439D01*
X129322840Y-60579551D01*
X129322835Y-60579554D01*
X129317853Y-60581877D01*
X129255419Y-60625594D01*
X129134813Y-60710043D01*
X129134810Y-60710045D01*
X129130302Y-60713202D01*
X128968404Y-60875100D01*
X128965247Y-60879608D01*
X128965245Y-60879611D01*
X128951919Y-60898643D01*
X128837079Y-61062651D01*
X128834756Y-61067633D01*
X128834753Y-61067638D01*
X128765152Y-61216899D01*
X128740318Y-61270157D01*
X128738896Y-61275465D01*
X128738895Y-61275467D01*
X128695263Y-61438304D01*
X128681059Y-61491313D01*
X128661104Y-61719400D01*
X128681059Y-61947487D01*
X128740318Y-62168643D01*
X128742641Y-62173624D01*
X128742641Y-62173625D01*
X128834753Y-62371162D01*
X128834756Y-62371167D01*
X128837079Y-62376149D01*
X128859988Y-62408866D01*
X128938588Y-62521118D01*
X128968404Y-62563700D01*
X129130302Y-62725598D01*
X129134810Y-62728755D01*
X129134813Y-62728757D01*
X129210124Y-62781490D01*
X129317853Y-62856923D01*
X129322835Y-62859246D01*
X129322840Y-62859249D01*
X129357059Y-62875205D01*
X129410344Y-62922122D01*
X129429805Y-62990399D01*
X129409263Y-63058359D01*
X129357059Y-63103595D01*
X129322840Y-63119551D01*
X129322835Y-63119554D01*
X129317853Y-63121877D01*
X129276013Y-63151174D01*
X129134813Y-63250043D01*
X129134810Y-63250045D01*
X129130302Y-63253202D01*
X128968404Y-63415100D01*
X128837079Y-63602651D01*
X128834756Y-63607633D01*
X128834753Y-63607638D01*
X128742641Y-63805175D01*
X128740318Y-63810157D01*
X128738896Y-63815465D01*
X128738895Y-63815467D01*
X128708534Y-63928774D01*
X128681059Y-64031313D01*
X128661104Y-64259400D01*
X128681059Y-64487487D01*
X128721333Y-64637790D01*
X128719643Y-64708765D01*
X128679849Y-64767561D01*
X128614585Y-64795509D01*
X128599626Y-64796400D01*
X126269578Y-64796400D01*
X126201457Y-64776398D01*
X126154964Y-64722742D01*
X126144860Y-64652468D01*
X126147869Y-64637799D01*
X126188145Y-64487487D01*
X126208100Y-64259400D01*
X126188145Y-64031313D01*
X126160670Y-63928774D01*
X126130309Y-63815467D01*
X126130308Y-63815465D01*
X126128886Y-63810157D01*
X126126563Y-63805175D01*
X126034451Y-63607638D01*
X126034448Y-63607633D01*
X126032125Y-63602651D01*
X125900800Y-63415100D01*
X125738902Y-63253202D01*
X125734394Y-63250045D01*
X125734391Y-63250043D01*
X125593191Y-63151174D01*
X125551351Y-63121877D01*
X125546369Y-63119554D01*
X125546364Y-63119551D01*
X125512145Y-63103595D01*
X125458860Y-63056678D01*
X125439399Y-62988401D01*
X125459941Y-62920441D01*
X125512145Y-62875205D01*
X125546364Y-62859249D01*
X125546369Y-62859246D01*
X125551351Y-62856923D01*
X125659080Y-62781490D01*
X125734391Y-62728757D01*
X125734394Y-62728755D01*
X125738902Y-62725598D01*
X125900800Y-62563700D01*
X125930617Y-62521118D01*
X126009216Y-62408866D01*
X126032125Y-62376149D01*
X126034448Y-62371167D01*
X126034451Y-62371162D01*
X126126563Y-62173625D01*
X126126563Y-62173624D01*
X126128886Y-62168643D01*
X126188145Y-61947487D01*
X126208100Y-61719400D01*
X126188145Y-61491313D01*
X126173941Y-61438304D01*
X126130309Y-61275467D01*
X126130308Y-61275465D01*
X126128886Y-61270157D01*
X126104052Y-61216899D01*
X126034451Y-61067638D01*
X126034448Y-61067633D01*
X126032125Y-61062651D01*
X125917285Y-60898643D01*
X125903959Y-60879611D01*
X125903957Y-60879608D01*
X125900800Y-60875100D01*
X125738902Y-60713202D01*
X125734394Y-60710045D01*
X125734391Y-60710043D01*
X125613785Y-60625594D01*
X125551351Y-60581877D01*
X125546369Y-60579554D01*
X125546364Y-60579551D01*
X125512145Y-60563595D01*
X125458860Y-60516678D01*
X125439399Y-60448401D01*
X125459941Y-60380441D01*
X125512145Y-60335205D01*
X125546364Y-60319249D01*
X125546369Y-60319246D01*
X125551351Y-60316923D01*
X125698310Y-60214021D01*
X125734391Y-60188757D01*
X125734394Y-60188755D01*
X125738902Y-60185598D01*
X125900800Y-60023700D01*
X125909304Y-60011556D01*
X125968421Y-59927128D01*
X126032125Y-59836149D01*
X126034448Y-59831167D01*
X126034451Y-59831162D01*
X126126563Y-59633625D01*
X126126563Y-59633624D01*
X126128886Y-59628643D01*
X126162340Y-59503794D01*
X126186721Y-59412802D01*
X126186721Y-59412800D01*
X126188145Y-59407487D01*
X126208100Y-59179400D01*
X126188145Y-58951313D01*
X126182372Y-58929769D01*
X126130309Y-58735467D01*
X126130308Y-58735465D01*
X126128886Y-58730157D01*
X126088114Y-58642721D01*
X126034451Y-58527638D01*
X126034448Y-58527633D01*
X126032125Y-58522651D01*
X125921455Y-58364598D01*
X125903959Y-58339611D01*
X125903957Y-58339608D01*
X125900800Y-58335100D01*
X125738902Y-58173202D01*
X125734394Y-58170045D01*
X125734391Y-58170043D01*
X125650783Y-58111500D01*
X125551351Y-58041877D01*
X125546369Y-58039554D01*
X125546364Y-58039551D01*
X125512145Y-58023595D01*
X125458860Y-57976678D01*
X125439399Y-57908401D01*
X125459941Y-57840441D01*
X125512145Y-57795205D01*
X125546364Y-57779249D01*
X125546369Y-57779246D01*
X125551351Y-57776923D01*
X125716676Y-57661161D01*
X125734391Y-57648757D01*
X125734394Y-57648755D01*
X125738902Y-57645598D01*
X125900800Y-57483700D01*
X125905324Y-57477240D01*
X125973907Y-57379292D01*
X126032125Y-57296149D01*
X126034448Y-57291167D01*
X126034451Y-57291162D01*
X126126563Y-57093625D01*
X126126563Y-57093624D01*
X126128886Y-57088643D01*
X126164299Y-56956483D01*
X126186721Y-56872802D01*
X126186721Y-56872800D01*
X126188145Y-56867487D01*
X126208100Y-56639400D01*
X126188145Y-56411313D01*
X126159726Y-56305252D01*
X126130309Y-56195467D01*
X126130308Y-56195465D01*
X126128886Y-56190157D01*
X126122352Y-56176145D01*
X126034451Y-55987638D01*
X126034448Y-55987633D01*
X126032125Y-55982651D01*
X125900800Y-55795100D01*
X125738902Y-55633202D01*
X125734394Y-55630045D01*
X125734391Y-55630043D01*
X125594778Y-55532285D01*
X125551351Y-55501877D01*
X125546369Y-55499554D01*
X125546364Y-55499551D01*
X125512145Y-55483595D01*
X125458860Y-55436678D01*
X125439399Y-55368401D01*
X125459941Y-55300441D01*
X125512145Y-55255205D01*
X125546364Y-55239249D01*
X125546369Y-55239246D01*
X125551351Y-55236923D01*
X125709788Y-55125984D01*
X125777062Y-55103296D01*
X125845923Y-55120581D01*
X125871154Y-55140102D01*
X129087762Y-58356709D01*
X129093615Y-58362974D01*
X129129630Y-58404259D01*
X129135844Y-58408626D01*
X129179212Y-58439106D01*
X129184507Y-58443039D01*
X129232161Y-58480404D01*
X129239091Y-58483533D01*
X129244221Y-58486640D01*
X129251537Y-58490814D01*
X129256805Y-58493639D01*
X129263019Y-58498006D01*
X129270094Y-58500765D01*
X129270097Y-58500766D01*
X129319458Y-58520011D01*
X129325539Y-58522567D01*
X129380753Y-58547497D01*
X129388218Y-58548881D01*
X129393931Y-58550671D01*
X129402008Y-58552972D01*
X129407842Y-58554470D01*
X129414919Y-58557229D01*
X129422448Y-58558220D01*
X129422451Y-58558221D01*
X129460397Y-58563217D01*
X129474988Y-58565138D01*
X129481492Y-58566168D01*
X129541060Y-58577208D01*
X129548640Y-58576771D01*
X129548641Y-58576771D01*
X129600010Y-58573809D01*
X129607263Y-58573600D01*
X130628795Y-58573600D01*
X130696916Y-58593602D01*
X130717890Y-58610505D01*
X132347884Y-60240498D01*
X132353737Y-60246763D01*
X132389752Y-60288048D01*
X132439337Y-60322897D01*
X132444603Y-60326808D01*
X132492283Y-60364194D01*
X132499206Y-60367320D01*
X132504353Y-60370437D01*
X132511621Y-60374582D01*
X132516923Y-60377425D01*
X132523141Y-60381795D01*
X132573761Y-60401531D01*
X132579586Y-60403802D01*
X132585666Y-60406358D01*
X132633952Y-60428160D01*
X132633954Y-60428161D01*
X132640876Y-60431286D01*
X132648346Y-60432670D01*
X132654048Y-60434457D01*
X132662145Y-60436764D01*
X132667962Y-60438258D01*
X132675041Y-60441018D01*
X132682570Y-60442009D01*
X132682573Y-60442010D01*
X132720402Y-60446990D01*
X132735112Y-60448927D01*
X132741609Y-60449956D01*
X132801182Y-60460997D01*
X132808762Y-60460560D01*
X132808763Y-60460560D01*
X132860132Y-60457598D01*
X132867385Y-60457389D01*
X134268476Y-60457389D01*
X134336597Y-60477391D01*
X134342537Y-60481453D01*
X134464640Y-60570166D01*
X134471165Y-60574907D01*
X134477193Y-60577591D01*
X134477195Y-60577592D01*
X134639598Y-60649898D01*
X134645629Y-60652583D01*
X134733243Y-60671206D01*
X134825973Y-60690917D01*
X134825978Y-60690917D01*
X134832430Y-60692289D01*
X135023404Y-60692289D01*
X135029856Y-60690917D01*
X135029861Y-60690917D01*
X135122591Y-60671206D01*
X135210205Y-60652583D01*
X135216236Y-60649898D01*
X135378639Y-60577592D01*
X135378641Y-60577591D01*
X135384669Y-60574907D01*
X135391195Y-60570166D01*
X135460013Y-60520166D01*
X135539170Y-60462655D01*
X135663047Y-60325076D01*
X135723489Y-60287838D01*
X135794473Y-60289190D01*
X135850314Y-60325076D01*
X135898747Y-60378866D01*
X135984292Y-60441018D01*
X136034147Y-60477240D01*
X136053248Y-60491118D01*
X136059276Y-60493802D01*
X136059278Y-60493803D01*
X136221681Y-60566109D01*
X136227712Y-60568794D01*
X136319466Y-60588297D01*
X136408056Y-60607128D01*
X136408061Y-60607128D01*
X136414513Y-60608500D01*
X136605487Y-60608500D01*
X136611939Y-60607128D01*
X136611944Y-60607128D01*
X136700534Y-60588297D01*
X136792288Y-60568794D01*
X136798319Y-60566109D01*
X136960722Y-60493803D01*
X136960724Y-60493802D01*
X136966752Y-60491118D01*
X136985854Y-60477240D01*
X137035708Y-60441018D01*
X137094733Y-60398134D01*
X148561500Y-60398134D01*
X148568255Y-60460316D01*
X148619385Y-60596705D01*
X148706739Y-60713261D01*
X148823295Y-60800615D01*
X148959684Y-60851745D01*
X149021866Y-60858500D01*
X150818134Y-60858500D01*
X150880316Y-60851745D01*
X151016705Y-60800615D01*
X151133261Y-60713261D01*
X151220615Y-60596705D01*
X151232085Y-60566109D01*
X151264598Y-60479382D01*
X151307240Y-60422618D01*
X151373802Y-60397918D01*
X151443150Y-60413126D01*
X151477817Y-60441114D01*
X151506250Y-60473938D01*
X151678126Y-60616632D01*
X151871000Y-60729338D01*
X151875825Y-60731180D01*
X151875826Y-60731181D01*
X151932344Y-60752763D01*
X152079692Y-60809030D01*
X152084760Y-60810061D01*
X152084763Y-60810062D01*
X152167874Y-60826971D01*
X152298597Y-60853567D01*
X152303772Y-60853757D01*
X152303774Y-60853757D01*
X152516673Y-60861564D01*
X152516677Y-60861564D01*
X152521837Y-60861753D01*
X152526957Y-60861097D01*
X152526959Y-60861097D01*
X152738288Y-60834025D01*
X152738289Y-60834025D01*
X152743416Y-60833368D01*
X152748366Y-60831883D01*
X152952429Y-60770661D01*
X152952434Y-60770659D01*
X152957384Y-60769174D01*
X153157994Y-60670896D01*
X153339860Y-60541173D01*
X153362318Y-60518794D01*
X153444160Y-60437237D01*
X153498096Y-60383489D01*
X153511066Y-60365440D01*
X153625435Y-60206277D01*
X153628453Y-60202077D01*
X153633507Y-60191852D01*
X153725136Y-60006453D01*
X153725137Y-60006451D01*
X153727430Y-60001811D01*
X153774707Y-59846206D01*
X153790865Y-59793023D01*
X153790865Y-59793021D01*
X153792370Y-59788069D01*
X153821529Y-59566590D01*
X153821853Y-59553317D01*
X153823074Y-59503365D01*
X153823074Y-59503361D01*
X153823156Y-59500000D01*
X153804852Y-59277361D01*
X153750431Y-59060702D01*
X153661354Y-58855840D01*
X153613071Y-58781206D01*
X153542822Y-58672617D01*
X153542820Y-58672614D01*
X153540014Y-58668277D01*
X153389670Y-58503051D01*
X153385619Y-58499852D01*
X153385615Y-58499848D01*
X153218414Y-58367800D01*
X153218410Y-58367798D01*
X153214359Y-58364598D01*
X153205572Y-58359747D01*
X153153864Y-58331203D01*
X153018789Y-58256638D01*
X153013920Y-58254914D01*
X153013916Y-58254912D01*
X152813087Y-58183795D01*
X152813083Y-58183794D01*
X152808212Y-58182069D01*
X152803119Y-58181162D01*
X152803116Y-58181161D01*
X152593373Y-58143800D01*
X152593367Y-58143799D01*
X152588284Y-58142894D01*
X152514452Y-58141992D01*
X152370081Y-58140228D01*
X152370079Y-58140228D01*
X152364911Y-58140165D01*
X152144091Y-58173955D01*
X151931756Y-58243357D01*
X151901443Y-58259137D01*
X151751388Y-58337251D01*
X151733607Y-58346507D01*
X151729474Y-58349610D01*
X151729471Y-58349612D01*
X151605038Y-58443039D01*
X151554965Y-58480635D01*
X151487963Y-58550749D01*
X151474283Y-58565064D01*
X151412759Y-58600494D01*
X151341846Y-58597037D01*
X151284060Y-58555791D01*
X151265207Y-58522243D01*
X151223767Y-58411703D01*
X151220615Y-58403295D01*
X151133261Y-58286739D01*
X151016705Y-58199385D01*
X150880316Y-58148255D01*
X150818134Y-58141500D01*
X149021866Y-58141500D01*
X148959684Y-58148255D01*
X148823295Y-58199385D01*
X148706739Y-58286739D01*
X148619385Y-58403295D01*
X148568255Y-58539684D01*
X148561500Y-58601866D01*
X148561500Y-60398134D01*
X137094733Y-60398134D01*
X137121253Y-60378866D01*
X137127853Y-60371536D01*
X137244621Y-60241852D01*
X137244622Y-60241851D01*
X137249040Y-60236944D01*
X137332926Y-60091650D01*
X137341223Y-60077279D01*
X137341224Y-60077278D01*
X137344527Y-60071556D01*
X137403542Y-59889928D01*
X137409719Y-59831162D01*
X137422814Y-59706565D01*
X137423504Y-59700000D01*
X137409482Y-59566590D01*
X137404232Y-59516635D01*
X137404232Y-59516633D01*
X137403542Y-59510072D01*
X137344527Y-59328444D01*
X137316542Y-59279973D01*
X137252344Y-59168778D01*
X137252342Y-59168775D01*
X137249040Y-59163056D01*
X137215963Y-59126320D01*
X137185246Y-59062312D01*
X137183600Y-59042010D01*
X137183600Y-57731859D01*
X137183892Y-57723288D01*
X137187101Y-57676214D01*
X137187618Y-57668638D01*
X137177195Y-57608920D01*
X137176234Y-57602404D01*
X137169873Y-57549841D01*
X137168960Y-57542294D01*
X137166272Y-57535182D01*
X137164840Y-57529350D01*
X137162617Y-57521224D01*
X137160893Y-57515515D01*
X137159587Y-57508029D01*
X137135233Y-57452549D01*
X137132745Y-57446452D01*
X137114487Y-57398134D01*
X148576500Y-57398134D01*
X148583255Y-57460316D01*
X148634385Y-57596705D01*
X148721739Y-57713261D01*
X148838295Y-57800615D01*
X148974684Y-57851745D01*
X149036866Y-57858500D01*
X150833134Y-57858500D01*
X150895316Y-57851745D01*
X151031705Y-57800615D01*
X151148261Y-57713261D01*
X151235615Y-57596705D01*
X151257799Y-57537529D01*
X151279598Y-57479382D01*
X151322240Y-57422618D01*
X151388802Y-57397918D01*
X151458150Y-57413126D01*
X151492817Y-57441114D01*
X151521250Y-57473938D01*
X151693126Y-57616632D01*
X151886000Y-57729338D01*
X152094692Y-57809030D01*
X152099760Y-57810061D01*
X152099763Y-57810062D01*
X152207017Y-57831883D01*
X152313597Y-57853567D01*
X152318772Y-57853757D01*
X152318774Y-57853757D01*
X152531673Y-57861564D01*
X152531677Y-57861564D01*
X152536837Y-57861753D01*
X152541957Y-57861097D01*
X152541959Y-57861097D01*
X152753288Y-57834025D01*
X152753289Y-57834025D01*
X152758416Y-57833368D01*
X152763366Y-57831883D01*
X152967429Y-57770661D01*
X152967434Y-57770659D01*
X152972384Y-57769174D01*
X153172994Y-57670896D01*
X153354860Y-57541173D01*
X153366725Y-57529350D01*
X153500801Y-57395741D01*
X153513096Y-57383489D01*
X153530879Y-57358742D01*
X153640435Y-57206277D01*
X153643453Y-57202077D01*
X153682199Y-57123681D01*
X153740136Y-57006453D01*
X153740137Y-57006451D01*
X153742430Y-57001811D01*
X153807370Y-56788069D01*
X153836529Y-56566590D01*
X153836691Y-56559951D01*
X153838074Y-56503365D01*
X153838074Y-56503361D01*
X153838156Y-56500000D01*
X153819852Y-56277361D01*
X153765431Y-56060702D01*
X153676354Y-55855840D01*
X153555014Y-55668277D01*
X153404670Y-55503051D01*
X153400619Y-55499852D01*
X153400615Y-55499848D01*
X153233414Y-55367800D01*
X153233410Y-55367798D01*
X153229359Y-55364598D01*
X153209752Y-55353774D01*
X153113138Y-55300441D01*
X153033789Y-55256638D01*
X153028920Y-55254914D01*
X153028916Y-55254912D01*
X152828087Y-55183795D01*
X152828083Y-55183794D01*
X152823212Y-55182069D01*
X152818119Y-55181162D01*
X152818116Y-55181161D01*
X152608373Y-55143800D01*
X152608367Y-55143799D01*
X152603284Y-55142894D01*
X152529452Y-55141992D01*
X152385081Y-55140228D01*
X152385079Y-55140228D01*
X152379911Y-55140165D01*
X152159091Y-55173955D01*
X151946756Y-55243357D01*
X151748607Y-55346507D01*
X151744474Y-55349610D01*
X151744471Y-55349612D01*
X151628510Y-55436678D01*
X151569965Y-55480635D01*
X151513537Y-55539684D01*
X151489283Y-55565064D01*
X151427759Y-55600494D01*
X151356846Y-55597037D01*
X151299060Y-55555791D01*
X151280207Y-55522243D01*
X151238767Y-55411703D01*
X151235615Y-55403295D01*
X151148261Y-55286739D01*
X151031705Y-55199385D01*
X150895316Y-55148255D01*
X150833134Y-55141500D01*
X149036866Y-55141500D01*
X148974684Y-55148255D01*
X148838295Y-55199385D01*
X148721739Y-55286739D01*
X148634385Y-55403295D01*
X148583255Y-55539684D01*
X148576500Y-55601866D01*
X148576500Y-57398134D01*
X137114487Y-57398134D01*
X137114015Y-57396885D01*
X137111331Y-57389782D01*
X137107028Y-57383521D01*
X137104275Y-57378255D01*
X137100140Y-57370825D01*
X137097107Y-57365697D01*
X137094054Y-57358742D01*
X137064016Y-57319595D01*
X137057174Y-57310678D01*
X137053296Y-57305341D01*
X137018986Y-57255419D01*
X136974881Y-57216123D01*
X136969605Y-57211141D01*
X133348464Y-53590000D01*
X134176496Y-53590000D01*
X134177186Y-53596565D01*
X134194857Y-53764691D01*
X134196458Y-53779928D01*
X134255473Y-53961556D01*
X134350960Y-54126944D01*
X134355378Y-54131851D01*
X134355379Y-54131852D01*
X134388060Y-54168148D01*
X134478747Y-54268866D01*
X134633248Y-54381118D01*
X134639276Y-54383802D01*
X134639278Y-54383803D01*
X134764846Y-54439709D01*
X134807712Y-54458794D01*
X134901113Y-54478647D01*
X134988056Y-54497128D01*
X134988061Y-54497128D01*
X134994513Y-54498500D01*
X135185487Y-54498500D01*
X135191939Y-54497128D01*
X135191944Y-54497128D01*
X135278887Y-54478647D01*
X135372288Y-54458794D01*
X135415154Y-54439709D01*
X135540722Y-54383803D01*
X135540724Y-54383802D01*
X135546752Y-54381118D01*
X135701253Y-54268866D01*
X135791940Y-54168148D01*
X135824621Y-54131852D01*
X135824622Y-54131851D01*
X135829040Y-54126944D01*
X135924527Y-53961556D01*
X135983542Y-53779928D01*
X135985144Y-53764691D01*
X135996147Y-53660000D01*
X139666496Y-53660000D01*
X139667186Y-53666565D01*
X139681306Y-53800906D01*
X139686458Y-53849928D01*
X139745473Y-54031556D01*
X139748776Y-54037278D01*
X139748777Y-54037279D01*
X139770166Y-54074325D01*
X139840960Y-54196944D01*
X139968747Y-54338866D01*
X140123248Y-54451118D01*
X140129276Y-54453802D01*
X140129278Y-54453803D01*
X140291681Y-54526109D01*
X140297712Y-54528794D01*
X140391094Y-54548643D01*
X140478056Y-54567128D01*
X140478061Y-54567128D01*
X140484513Y-54568500D01*
X140675487Y-54568500D01*
X140681939Y-54567128D01*
X140681944Y-54567128D01*
X140768906Y-54548643D01*
X140862288Y-54528794D01*
X140868319Y-54526109D01*
X141030722Y-54453803D01*
X141030724Y-54453802D01*
X141036752Y-54451118D01*
X141191253Y-54338866D01*
X141319040Y-54196944D01*
X141389834Y-54074325D01*
X141411223Y-54037279D01*
X141411224Y-54037278D01*
X141414527Y-54031556D01*
X141473542Y-53849928D01*
X141478695Y-53800906D01*
X141492814Y-53666565D01*
X141493504Y-53660000D01*
X141490466Y-53631093D01*
X141474232Y-53476635D01*
X141474232Y-53476633D01*
X141473542Y-53470072D01*
X141414527Y-53288444D01*
X141319040Y-53123056D01*
X141292160Y-53093202D01*
X141195675Y-52986045D01*
X141195674Y-52986044D01*
X141191253Y-52981134D01*
X141089562Y-52907251D01*
X141042094Y-52872763D01*
X141042093Y-52872762D01*
X141036752Y-52868882D01*
X141030724Y-52866198D01*
X141030722Y-52866197D01*
X140868319Y-52793891D01*
X140868318Y-52793891D01*
X140862288Y-52791206D01*
X140768888Y-52771353D01*
X140681944Y-52752872D01*
X140681939Y-52752872D01*
X140675487Y-52751500D01*
X140484513Y-52751500D01*
X140478061Y-52752872D01*
X140478056Y-52752872D01*
X140391113Y-52771353D01*
X140297712Y-52791206D01*
X140291682Y-52793891D01*
X140291681Y-52793891D01*
X140129278Y-52866197D01*
X140129276Y-52866198D01*
X140123248Y-52868882D01*
X140117907Y-52872762D01*
X140117906Y-52872763D01*
X140070438Y-52907251D01*
X139968747Y-52981134D01*
X139964326Y-52986044D01*
X139964325Y-52986045D01*
X139867841Y-53093202D01*
X139840960Y-53123056D01*
X139745473Y-53288444D01*
X139686458Y-53470072D01*
X139685768Y-53476633D01*
X139685768Y-53476635D01*
X139669534Y-53631093D01*
X139666496Y-53660000D01*
X135996147Y-53660000D01*
X136002814Y-53596565D01*
X136003504Y-53590000D01*
X135991589Y-53476635D01*
X135984232Y-53406635D01*
X135984232Y-53406633D01*
X135983542Y-53400072D01*
X135924527Y-53218444D01*
X135829040Y-53053056D01*
X135701253Y-52911134D01*
X135546752Y-52798882D01*
X135540724Y-52796198D01*
X135540722Y-52796197D01*
X135378319Y-52723891D01*
X135378318Y-52723891D01*
X135372288Y-52721206D01*
X135268989Y-52699249D01*
X135191944Y-52682872D01*
X135191939Y-52682872D01*
X135185487Y-52681500D01*
X134994513Y-52681500D01*
X134988061Y-52682872D01*
X134988056Y-52682872D01*
X134911011Y-52699249D01*
X134807712Y-52721206D01*
X134801682Y-52723891D01*
X134801681Y-52723891D01*
X134639278Y-52796197D01*
X134639276Y-52796198D01*
X134633248Y-52798882D01*
X134478747Y-52911134D01*
X134350960Y-53053056D01*
X134255473Y-53218444D01*
X134196458Y-53400072D01*
X134195768Y-53406633D01*
X134195768Y-53406635D01*
X134188411Y-53476635D01*
X134176496Y-53590000D01*
X133348464Y-53590000D01*
X132028966Y-52270502D01*
X132023112Y-52264236D01*
X131992094Y-52228679D01*
X131987098Y-52222952D01*
X131937513Y-52188103D01*
X131932238Y-52184185D01*
X131890546Y-52151494D01*
X131890545Y-52151494D01*
X131884567Y-52146806D01*
X131877644Y-52143680D01*
X131872497Y-52140563D01*
X131865229Y-52136418D01*
X131859927Y-52133575D01*
X131853709Y-52129205D01*
X131797262Y-52107197D01*
X131791184Y-52104642D01*
X131790199Y-52104197D01*
X131783583Y-52101210D01*
X131742898Y-52082840D01*
X131742896Y-52082839D01*
X131735974Y-52079714D01*
X131728504Y-52078330D01*
X131722802Y-52076543D01*
X131714705Y-52074236D01*
X131708888Y-52072742D01*
X131701809Y-52069982D01*
X131694280Y-52068991D01*
X131694277Y-52068990D01*
X131656448Y-52064010D01*
X131641738Y-52062073D01*
X131635241Y-52061044D01*
X131575668Y-52050003D01*
X131568088Y-52050440D01*
X131568087Y-52050440D01*
X131516718Y-52053402D01*
X131509465Y-52053611D01*
X131361044Y-52053611D01*
X131292923Y-52033609D01*
X131246430Y-51979953D01*
X131236326Y-51909679D01*
X131239337Y-51895000D01*
X131266721Y-51792802D01*
X131266721Y-51792800D01*
X131268145Y-51787487D01*
X131288100Y-51559400D01*
X131268145Y-51331313D01*
X131266721Y-51325998D01*
X131210309Y-51115467D01*
X131210308Y-51115465D01*
X131208886Y-51110157D01*
X131182314Y-51053173D01*
X131114451Y-50907638D01*
X131114448Y-50907633D01*
X131112125Y-50902651D01*
X131017237Y-50767137D01*
X130983959Y-50719611D01*
X130983957Y-50719608D01*
X130980800Y-50715100D01*
X130818902Y-50553202D01*
X130814394Y-50550045D01*
X130814391Y-50550043D01*
X130728396Y-50489829D01*
X130631351Y-50421877D01*
X130626369Y-50419554D01*
X130626364Y-50419551D01*
X130428827Y-50327439D01*
X130428826Y-50327439D01*
X130423845Y-50325116D01*
X130418537Y-50323694D01*
X130418535Y-50323693D01*
X130208004Y-50267281D01*
X130208002Y-50267281D01*
X130202689Y-50265857D01*
X129974602Y-50245902D01*
X129746515Y-50265857D01*
X129741202Y-50267281D01*
X129741200Y-50267281D01*
X129530669Y-50323693D01*
X129530667Y-50323694D01*
X129525359Y-50325116D01*
X129520378Y-50327439D01*
X129520377Y-50327439D01*
X129322840Y-50419551D01*
X129322835Y-50419554D01*
X129317853Y-50421877D01*
X129220808Y-50489829D01*
X129134813Y-50550043D01*
X129134810Y-50550045D01*
X129130302Y-50553202D01*
X128968404Y-50715100D01*
X128965247Y-50719608D01*
X128965245Y-50719611D01*
X128931967Y-50767137D01*
X128837079Y-50902651D01*
X128834756Y-50907633D01*
X128834753Y-50907638D01*
X128818797Y-50941857D01*
X128771880Y-50995142D01*
X128703603Y-51014603D01*
X128635643Y-50994061D01*
X128590407Y-50941857D01*
X128574451Y-50907638D01*
X128574448Y-50907633D01*
X128572125Y-50902651D01*
X128477237Y-50767137D01*
X128443959Y-50719611D01*
X128443957Y-50719608D01*
X128440800Y-50715100D01*
X128278902Y-50553202D01*
X128274394Y-50550045D01*
X128274391Y-50550043D01*
X128188396Y-50489829D01*
X128091351Y-50421877D01*
X128086369Y-50419554D01*
X128086364Y-50419551D01*
X127888827Y-50327439D01*
X127888826Y-50327439D01*
X127883845Y-50325116D01*
X127878537Y-50323694D01*
X127878535Y-50323693D01*
X127668004Y-50267281D01*
X127668002Y-50267281D01*
X127662689Y-50265857D01*
X127434602Y-50245902D01*
X127206515Y-50265857D01*
X127201202Y-50267281D01*
X127201200Y-50267281D01*
X126990669Y-50323693D01*
X126990667Y-50323694D01*
X126985359Y-50325116D01*
X126980378Y-50327439D01*
X126980377Y-50327439D01*
X126782840Y-50419551D01*
X126782835Y-50419554D01*
X126777853Y-50421877D01*
X126680808Y-50489829D01*
X126594813Y-50550043D01*
X126594810Y-50550045D01*
X126590302Y-50553202D01*
X126428404Y-50715100D01*
X126425247Y-50719608D01*
X126425245Y-50719611D01*
X126391967Y-50767137D01*
X126297079Y-50902651D01*
X126294756Y-50907633D01*
X126294753Y-50907638D01*
X126278797Y-50941857D01*
X126231880Y-50995142D01*
X126163603Y-51014603D01*
X126095643Y-50994061D01*
X126050407Y-50941857D01*
X126034451Y-50907638D01*
X126034448Y-50907633D01*
X126032125Y-50902651D01*
X125937237Y-50767137D01*
X125903959Y-50719611D01*
X125903957Y-50719608D01*
X125900800Y-50715100D01*
X125738902Y-50553202D01*
X125734394Y-50550045D01*
X125734391Y-50550043D01*
X125648396Y-50489829D01*
X125551351Y-50421877D01*
X125546369Y-50419554D01*
X125546364Y-50419551D01*
X125348827Y-50327439D01*
X125348826Y-50327439D01*
X125343845Y-50325116D01*
X125338537Y-50323694D01*
X125338535Y-50323693D01*
X125128004Y-50267281D01*
X125128002Y-50267281D01*
X125122689Y-50265857D01*
X124894602Y-50245902D01*
X124666515Y-50265857D01*
X124661202Y-50267281D01*
X124661200Y-50267281D01*
X124450669Y-50323693D01*
X124450667Y-50323694D01*
X124445359Y-50325116D01*
X124440378Y-50327439D01*
X124440377Y-50327439D01*
X124242840Y-50419551D01*
X124242835Y-50419554D01*
X124237853Y-50421877D01*
X124140808Y-50489829D01*
X124054813Y-50550043D01*
X124054810Y-50550045D01*
X124050302Y-50553202D01*
X123888404Y-50715100D01*
X123885247Y-50719608D01*
X123885245Y-50719611D01*
X123851967Y-50767137D01*
X123757079Y-50902651D01*
X123754756Y-50907633D01*
X123754753Y-50907638D01*
X123738797Y-50941857D01*
X123691880Y-50995142D01*
X123623603Y-51014603D01*
X123555643Y-50994061D01*
X123510407Y-50941857D01*
X123494451Y-50907638D01*
X123494448Y-50907633D01*
X123492125Y-50902651D01*
X123397237Y-50767137D01*
X123363959Y-50719611D01*
X123363957Y-50719608D01*
X123360800Y-50715100D01*
X123198902Y-50553202D01*
X123194394Y-50550045D01*
X123194391Y-50550043D01*
X123108396Y-50489829D01*
X123011351Y-50421877D01*
X123006369Y-50419554D01*
X123006364Y-50419551D01*
X122808827Y-50327439D01*
X122808826Y-50327439D01*
X122803845Y-50325116D01*
X122798537Y-50323694D01*
X122798535Y-50323693D01*
X122588004Y-50267281D01*
X122588002Y-50267281D01*
X122582689Y-50265857D01*
X122354602Y-50245902D01*
X122126515Y-50265857D01*
X122121202Y-50267281D01*
X122121200Y-50267281D01*
X121910669Y-50323693D01*
X121910667Y-50323694D01*
X121905359Y-50325116D01*
X121900378Y-50327439D01*
X121900377Y-50327439D01*
X121702840Y-50419551D01*
X121702835Y-50419554D01*
X121697853Y-50421877D01*
X121600808Y-50489829D01*
X121514813Y-50550043D01*
X121514810Y-50550045D01*
X121510302Y-50553202D01*
X121348404Y-50715100D01*
X121345247Y-50719608D01*
X121345245Y-50719611D01*
X121311967Y-50767137D01*
X121217079Y-50902651D01*
X121214756Y-50907633D01*
X121214753Y-50907638D01*
X121198797Y-50941857D01*
X121151880Y-50995142D01*
X121083603Y-51014603D01*
X121015643Y-50994061D01*
X120970407Y-50941857D01*
X120954451Y-50907638D01*
X120954448Y-50907633D01*
X120952125Y-50902651D01*
X120857237Y-50767137D01*
X120823959Y-50719611D01*
X120823957Y-50719608D01*
X120820800Y-50715100D01*
X120658902Y-50553202D01*
X120654394Y-50550045D01*
X120654391Y-50550043D01*
X120568396Y-50489829D01*
X120471351Y-50421877D01*
X120466369Y-50419554D01*
X120466364Y-50419551D01*
X120268827Y-50327439D01*
X120268826Y-50327439D01*
X120263845Y-50325116D01*
X120258537Y-50323694D01*
X120258535Y-50323693D01*
X120048004Y-50267281D01*
X120048002Y-50267281D01*
X120042689Y-50265857D01*
X119814602Y-50245902D01*
X119586515Y-50265857D01*
X119581202Y-50267281D01*
X119581200Y-50267281D01*
X119370669Y-50323693D01*
X119370667Y-50323694D01*
X119365359Y-50325116D01*
X119360378Y-50327439D01*
X119360377Y-50327439D01*
X119162840Y-50419551D01*
X119162835Y-50419554D01*
X119157853Y-50421877D01*
X119060808Y-50489829D01*
X118974813Y-50550043D01*
X118974810Y-50550045D01*
X118970302Y-50553202D01*
X118808404Y-50715100D01*
X118805247Y-50719608D01*
X118805245Y-50719611D01*
X118771967Y-50767137D01*
X118677079Y-50902651D01*
X118674756Y-50907633D01*
X118674753Y-50907638D01*
X118658797Y-50941857D01*
X118611880Y-50995142D01*
X118543603Y-51014603D01*
X118475643Y-50994061D01*
X118430407Y-50941857D01*
X118414451Y-50907638D01*
X118414448Y-50907633D01*
X118412125Y-50902651D01*
X118317237Y-50767137D01*
X118283959Y-50719611D01*
X118283957Y-50719608D01*
X118280800Y-50715100D01*
X118118902Y-50553202D01*
X118114394Y-50550045D01*
X118114391Y-50550043D01*
X118028396Y-50489829D01*
X117931351Y-50421877D01*
X117926369Y-50419554D01*
X117926364Y-50419551D01*
X117728827Y-50327439D01*
X117728826Y-50327439D01*
X117723845Y-50325116D01*
X117718537Y-50323694D01*
X117718535Y-50323693D01*
X117508004Y-50267281D01*
X117508002Y-50267281D01*
X117502689Y-50265857D01*
X117497213Y-50265378D01*
X117497208Y-50265377D01*
X117346814Y-50252220D01*
X117291927Y-50247418D01*
X117225809Y-50221555D01*
X117184170Y-50164051D01*
X117180229Y-50093164D01*
X117213814Y-50032802D01*
X118858482Y-48388134D01*
X132241500Y-48388134D01*
X132248255Y-48450316D01*
X132299385Y-48586705D01*
X132386739Y-48703261D01*
X132503295Y-48790615D01*
X132639684Y-48841745D01*
X132701866Y-48848500D01*
X134498134Y-48848500D01*
X134560316Y-48841745D01*
X134696705Y-48790615D01*
X134813261Y-48703261D01*
X134900615Y-48586705D01*
X134907126Y-48569338D01*
X134944598Y-48469382D01*
X134987240Y-48412618D01*
X135053802Y-48387918D01*
X135123150Y-48403126D01*
X135157817Y-48431114D01*
X135186250Y-48463938D01*
X135291254Y-48551114D01*
X135352452Y-48601921D01*
X135358126Y-48606632D01*
X135551000Y-48719338D01*
X135555825Y-48721180D01*
X135555826Y-48721181D01*
X135577905Y-48729612D01*
X135759692Y-48799030D01*
X135764760Y-48800061D01*
X135764763Y-48800062D01*
X135872017Y-48821883D01*
X135978597Y-48843567D01*
X135983772Y-48843757D01*
X135983774Y-48843757D01*
X136196673Y-48851564D01*
X136196677Y-48851564D01*
X136201837Y-48851753D01*
X136206957Y-48851097D01*
X136206959Y-48851097D01*
X136418288Y-48824025D01*
X136418289Y-48824025D01*
X136423416Y-48823368D01*
X136428366Y-48821883D01*
X136632429Y-48760661D01*
X136632434Y-48760659D01*
X136637384Y-48759174D01*
X136837994Y-48660896D01*
X137019860Y-48531173D01*
X137178096Y-48373489D01*
X137220888Y-48313938D01*
X137308453Y-48192077D01*
X137309776Y-48193028D01*
X137356645Y-48149857D01*
X137426580Y-48137625D01*
X137492026Y-48165144D01*
X137519875Y-48196994D01*
X137579987Y-48295088D01*
X137726250Y-48463938D01*
X137831254Y-48551114D01*
X137892452Y-48601921D01*
X137898126Y-48606632D01*
X138091000Y-48719338D01*
X138095825Y-48721180D01*
X138095826Y-48721181D01*
X138117905Y-48729612D01*
X138299692Y-48799030D01*
X138304760Y-48800061D01*
X138304763Y-48800062D01*
X138412017Y-48821883D01*
X138518597Y-48843567D01*
X138523772Y-48843757D01*
X138523774Y-48843757D01*
X138736673Y-48851564D01*
X138736677Y-48851564D01*
X138741837Y-48851753D01*
X138746957Y-48851097D01*
X138746959Y-48851097D01*
X138958288Y-48824025D01*
X138958289Y-48824025D01*
X138963416Y-48823368D01*
X138968366Y-48821883D01*
X139172429Y-48760661D01*
X139172434Y-48760659D01*
X139177384Y-48759174D01*
X139377994Y-48660896D01*
X139559860Y-48531173D01*
X139718096Y-48373489D01*
X139760888Y-48313938D01*
X139845435Y-48196277D01*
X139848453Y-48192077D01*
X139869320Y-48149857D01*
X139945136Y-47996453D01*
X139945137Y-47996451D01*
X139947430Y-47991811D01*
X140012370Y-47778069D01*
X140041529Y-47556590D01*
X140043156Y-47490000D01*
X140024852Y-47267361D01*
X139970431Y-47050702D01*
X139881354Y-46845840D01*
X139781502Y-46691492D01*
X139762822Y-46662617D01*
X139762820Y-46662614D01*
X139760014Y-46658277D01*
X139609670Y-46493051D01*
X139605619Y-46489852D01*
X139605615Y-46489848D01*
X139438414Y-46357800D01*
X139438410Y-46357798D01*
X139434359Y-46354598D01*
X139397260Y-46334118D01*
X139251495Y-46253652D01*
X139201524Y-46203219D01*
X139186752Y-46133776D01*
X139211868Y-46067371D01*
X139256956Y-46030192D01*
X139373346Y-45973173D01*
X139377994Y-45970896D01*
X139559860Y-45841173D01*
X139617603Y-45783632D01*
X139665182Y-45736218D01*
X139718096Y-45683489D01*
X139848453Y-45502077D01*
X139869320Y-45459857D01*
X139945136Y-45306453D01*
X139945137Y-45306451D01*
X139947430Y-45301811D01*
X140012370Y-45088069D01*
X140041529Y-44866590D01*
X140042405Y-44830748D01*
X140043074Y-44803365D01*
X140043074Y-44803361D01*
X140043156Y-44800000D01*
X140024852Y-44577361D01*
X139970431Y-44360702D01*
X139881354Y-44155840D01*
X139771620Y-43986217D01*
X139762822Y-43972617D01*
X139762820Y-43972614D01*
X139760014Y-43968277D01*
X139609670Y-43803051D01*
X139605619Y-43799852D01*
X139605615Y-43799848D01*
X139438414Y-43667800D01*
X139438410Y-43667798D01*
X139434359Y-43664598D01*
X139421391Y-43657439D01*
X139368313Y-43628139D01*
X139238789Y-43556638D01*
X139233920Y-43554914D01*
X139233916Y-43554912D01*
X139033087Y-43483795D01*
X139033083Y-43483794D01*
X139028212Y-43482069D01*
X139023119Y-43481162D01*
X139023116Y-43481161D01*
X138813373Y-43443800D01*
X138813367Y-43443799D01*
X138808284Y-43442894D01*
X138734452Y-43441992D01*
X138590081Y-43440228D01*
X138590079Y-43440228D01*
X138584911Y-43440165D01*
X138364091Y-43473955D01*
X138151756Y-43543357D01*
X138116445Y-43561739D01*
X137982449Y-43631493D01*
X137953607Y-43646507D01*
X137949474Y-43649610D01*
X137949471Y-43649612D01*
X137779100Y-43777530D01*
X137774965Y-43780635D01*
X137725607Y-43832285D01*
X137663729Y-43897037D01*
X137620629Y-43942138D01*
X137513201Y-44099621D01*
X137458293Y-44144621D01*
X137387768Y-44152792D01*
X137324021Y-44121538D01*
X137303324Y-44097054D01*
X137222822Y-43972617D01*
X137222820Y-43972614D01*
X137220014Y-43968277D01*
X137069670Y-43803051D01*
X137065619Y-43799852D01*
X137065615Y-43799848D01*
X136898414Y-43667800D01*
X136898410Y-43667798D01*
X136894359Y-43664598D01*
X136881391Y-43657439D01*
X136828313Y-43628139D01*
X136698789Y-43556638D01*
X136693920Y-43554914D01*
X136693916Y-43554912D01*
X136493087Y-43483795D01*
X136493083Y-43483794D01*
X136488212Y-43482069D01*
X136483119Y-43481162D01*
X136483116Y-43481161D01*
X136273373Y-43443800D01*
X136273367Y-43443799D01*
X136268284Y-43442894D01*
X136194452Y-43441992D01*
X136050081Y-43440228D01*
X136050079Y-43440228D01*
X136044911Y-43440165D01*
X135824091Y-43473955D01*
X135611756Y-43543357D01*
X135576445Y-43561739D01*
X135442449Y-43631493D01*
X135413607Y-43646507D01*
X135409474Y-43649610D01*
X135409471Y-43649612D01*
X135239100Y-43777530D01*
X135234965Y-43780635D01*
X135178537Y-43839684D01*
X135154283Y-43865064D01*
X135092759Y-43900494D01*
X135021846Y-43897037D01*
X134964060Y-43855791D01*
X134945207Y-43822243D01*
X134903767Y-43711703D01*
X134900615Y-43703295D01*
X134813261Y-43586739D01*
X134696705Y-43499385D01*
X134560316Y-43448255D01*
X134498134Y-43441500D01*
X132701866Y-43441500D01*
X132639684Y-43448255D01*
X132503295Y-43499385D01*
X132386739Y-43586739D01*
X132299385Y-43703295D01*
X132248255Y-43839684D01*
X132241500Y-43901866D01*
X132241500Y-45698134D01*
X132248255Y-45760316D01*
X132299385Y-45896705D01*
X132386739Y-46013261D01*
X132393919Y-46018642D01*
X132393920Y-46018643D01*
X132427986Y-46044174D01*
X132470501Y-46101033D01*
X132475527Y-46171852D01*
X132441467Y-46234145D01*
X132427986Y-46245826D01*
X132411117Y-46258469D01*
X132386739Y-46276739D01*
X132299385Y-46393295D01*
X132248255Y-46529684D01*
X132241500Y-46591866D01*
X132241500Y-48388134D01*
X118858482Y-48388134D01*
X119086111Y-48160505D01*
X119148423Y-48126479D01*
X119175206Y-48123600D01*
X124702291Y-48123600D01*
X124710862Y-48123892D01*
X124765512Y-48127618D01*
X124825235Y-48117194D01*
X124831725Y-48116237D01*
X124891856Y-48108960D01*
X124898965Y-48106274D01*
X124904762Y-48104850D01*
X124912917Y-48102620D01*
X124918641Y-48100892D01*
X124926122Y-48099586D01*
X124981594Y-48075235D01*
X124987699Y-48072744D01*
X125037263Y-48054016D01*
X125037265Y-48054015D01*
X125044368Y-48051331D01*
X125050627Y-48047030D01*
X125055894Y-48044276D01*
X125063319Y-48040143D01*
X125068451Y-48037108D01*
X125075408Y-48034054D01*
X125081434Y-48029430D01*
X125081436Y-48029429D01*
X125123466Y-47997178D01*
X125128804Y-47993300D01*
X125172469Y-47963291D01*
X125172476Y-47963285D01*
X125178731Y-47958986D01*
X125218019Y-47914890D01*
X125223001Y-47909614D01*
X126971672Y-46160942D01*
X127033984Y-46126917D01*
X127085884Y-46126566D01*
X127218597Y-46153567D01*
X127223772Y-46153757D01*
X127223774Y-46153757D01*
X127436673Y-46161564D01*
X127436677Y-46161564D01*
X127441837Y-46161753D01*
X127446957Y-46161097D01*
X127446959Y-46161097D01*
X127658288Y-46134025D01*
X127658289Y-46134025D01*
X127663416Y-46133368D01*
X127678072Y-46128971D01*
X127872429Y-46070661D01*
X127872434Y-46070659D01*
X127877384Y-46069174D01*
X128077994Y-45970896D01*
X128259860Y-45841173D01*
X128317603Y-45783632D01*
X128365182Y-45736218D01*
X128418096Y-45683489D01*
X128548453Y-45502077D01*
X128569320Y-45459857D01*
X128645136Y-45306453D01*
X128645137Y-45306451D01*
X128647430Y-45301811D01*
X128712370Y-45088069D01*
X128741529Y-44866590D01*
X128742405Y-44830748D01*
X128743074Y-44803365D01*
X128743074Y-44803361D01*
X128743156Y-44800000D01*
X128724852Y-44577361D01*
X128670431Y-44360702D01*
X128581354Y-44155840D01*
X128471620Y-43986217D01*
X128462822Y-43972617D01*
X128462820Y-43972614D01*
X128460014Y-43968277D01*
X128309670Y-43803051D01*
X128305619Y-43799852D01*
X128305615Y-43799848D01*
X128138414Y-43667800D01*
X128138410Y-43667798D01*
X128134359Y-43664598D01*
X128121391Y-43657439D01*
X128068313Y-43628139D01*
X127938789Y-43556638D01*
X127933920Y-43554914D01*
X127933916Y-43554912D01*
X127733087Y-43483795D01*
X127733083Y-43483794D01*
X127728212Y-43482069D01*
X127723119Y-43481162D01*
X127723116Y-43481161D01*
X127513373Y-43443800D01*
X127513367Y-43443799D01*
X127508284Y-43442894D01*
X127434452Y-43441992D01*
X127290081Y-43440228D01*
X127290079Y-43440228D01*
X127284911Y-43440165D01*
X127064091Y-43473955D01*
X126851756Y-43543357D01*
X126816445Y-43561739D01*
X126682449Y-43631493D01*
X126653607Y-43646507D01*
X126649474Y-43649610D01*
X126649471Y-43649612D01*
X126479100Y-43777530D01*
X126474965Y-43780635D01*
X126425607Y-43832285D01*
X126363729Y-43897037D01*
X126320629Y-43942138D01*
X126213201Y-44099621D01*
X126158293Y-44144621D01*
X126087768Y-44152792D01*
X126024021Y-44121538D01*
X126003324Y-44097054D01*
X125922822Y-43972617D01*
X125922820Y-43972614D01*
X125920014Y-43968277D01*
X125769670Y-43803051D01*
X125765619Y-43799852D01*
X125765615Y-43799848D01*
X125598414Y-43667800D01*
X125598410Y-43667798D01*
X125594359Y-43664598D01*
X125581391Y-43657439D01*
X125528313Y-43628139D01*
X125398789Y-43556638D01*
X125393920Y-43554914D01*
X125393916Y-43554912D01*
X125193087Y-43483795D01*
X125193083Y-43483794D01*
X125188212Y-43482069D01*
X125183119Y-43481162D01*
X125183116Y-43481161D01*
X124973373Y-43443800D01*
X124973367Y-43443799D01*
X124968284Y-43442894D01*
X124894452Y-43441992D01*
X124750081Y-43440228D01*
X124750079Y-43440228D01*
X124744911Y-43440165D01*
X124524091Y-43473955D01*
X124311756Y-43543357D01*
X124276445Y-43561739D01*
X124142449Y-43631493D01*
X124113607Y-43646507D01*
X124109474Y-43649610D01*
X124109471Y-43649612D01*
X123939100Y-43777530D01*
X123934965Y-43780635D01*
X123878537Y-43839684D01*
X123854283Y-43865064D01*
X123792759Y-43900494D01*
X123721846Y-43897037D01*
X123664060Y-43855791D01*
X123645207Y-43822243D01*
X123603767Y-43711703D01*
X123600615Y-43703295D01*
X123513261Y-43586739D01*
X123396705Y-43499385D01*
X123260316Y-43448255D01*
X123198134Y-43441500D01*
X121401866Y-43441500D01*
X121339684Y-43448255D01*
X121203295Y-43499385D01*
X121086739Y-43586739D01*
X120999385Y-43703295D01*
X120948255Y-43839684D01*
X120941500Y-43901866D01*
X120941500Y-45698134D01*
X120948255Y-45760316D01*
X120999385Y-45896705D01*
X121086739Y-46013261D01*
X121203295Y-46100615D01*
X121339684Y-46151745D01*
X121401866Y-46158500D01*
X123198134Y-46158500D01*
X123260316Y-46151745D01*
X123396705Y-46100615D01*
X123513261Y-46013261D01*
X123600615Y-45896705D01*
X123622799Y-45837529D01*
X123644598Y-45779382D01*
X123687240Y-45722618D01*
X123753802Y-45697918D01*
X123823150Y-45713126D01*
X123857817Y-45741114D01*
X123886250Y-45773938D01*
X124058126Y-45916632D01*
X124251000Y-46029338D01*
X124255825Y-46031180D01*
X124255826Y-46031181D01*
X124291441Y-46044781D01*
X124459692Y-46109030D01*
X124464760Y-46110061D01*
X124464763Y-46110062D01*
X124571339Y-46131745D01*
X124678597Y-46153567D01*
X124683771Y-46153757D01*
X124683773Y-46153757D01*
X124723444Y-46155212D01*
X124770944Y-46156953D01*
X124838285Y-46179437D01*
X124882781Y-46234761D01*
X124890303Y-46305358D01*
X124855422Y-46371963D01*
X124487891Y-46739495D01*
X124425578Y-46773520D01*
X124398795Y-46776400D01*
X118871700Y-46776400D01*
X118863130Y-46776108D01*
X118816066Y-46772899D01*
X118816062Y-46772899D01*
X118808490Y-46772383D01*
X118801014Y-46773688D01*
X118801010Y-46773688D01*
X118748796Y-46782801D01*
X118742271Y-46783764D01*
X118718517Y-46786639D01*
X118682146Y-46791040D01*
X118675043Y-46793724D01*
X118669284Y-46795138D01*
X118661063Y-46797387D01*
X118655366Y-46799107D01*
X118647880Y-46800414D01*
X118592412Y-46824763D01*
X118586303Y-46827256D01*
X118536739Y-46845984D01*
X118536737Y-46845985D01*
X118529634Y-46848669D01*
X118523375Y-46852970D01*
X118518108Y-46855724D01*
X118510683Y-46859857D01*
X118505551Y-46862892D01*
X118498594Y-46865946D01*
X118492568Y-46870570D01*
X118492566Y-46870571D01*
X118450536Y-46902822D01*
X118445198Y-46906700D01*
X118401533Y-46936709D01*
X118401526Y-46936715D01*
X118395271Y-46941014D01*
X118390221Y-46946682D01*
X118390220Y-46946683D01*
X118355983Y-46985110D01*
X118351001Y-46990386D01*
X115103124Y-50238263D01*
X115040812Y-50272289D01*
X114981420Y-50270875D01*
X114968011Y-50267282D01*
X114968000Y-50267280D01*
X114962689Y-50265857D01*
X114734602Y-50245902D01*
X114506515Y-50265857D01*
X114501202Y-50267281D01*
X114501200Y-50267281D01*
X114290669Y-50323693D01*
X114290667Y-50323694D01*
X114285359Y-50325116D01*
X114280378Y-50327439D01*
X114280377Y-50327439D01*
X114082840Y-50419551D01*
X114082835Y-50419554D01*
X114077853Y-50421877D01*
X113980808Y-50489829D01*
X113894813Y-50550043D01*
X113894810Y-50550045D01*
X113890302Y-50553202D01*
X113728404Y-50715100D01*
X113725247Y-50719608D01*
X113725245Y-50719611D01*
X113691967Y-50767137D01*
X113597079Y-50902651D01*
X113594756Y-50907633D01*
X113594753Y-50907638D01*
X113578797Y-50941857D01*
X113531880Y-50995142D01*
X113463603Y-51014603D01*
X113395643Y-50994061D01*
X113350407Y-50941857D01*
X113334451Y-50907638D01*
X113334448Y-50907633D01*
X113332125Y-50902651D01*
X113237237Y-50767137D01*
X113203959Y-50719611D01*
X113203957Y-50719608D01*
X113200800Y-50715100D01*
X113038902Y-50553202D01*
X113034394Y-50550045D01*
X113034391Y-50550043D01*
X112948396Y-50489829D01*
X112851351Y-50421877D01*
X112846369Y-50419554D01*
X112846364Y-50419551D01*
X112648827Y-50327439D01*
X112648826Y-50327439D01*
X112643845Y-50325116D01*
X112638537Y-50323694D01*
X112638535Y-50323693D01*
X112428004Y-50267281D01*
X112428002Y-50267281D01*
X112422689Y-50265857D01*
X112194602Y-50245902D01*
X111966515Y-50265857D01*
X111961202Y-50267281D01*
X111961200Y-50267281D01*
X111750669Y-50323693D01*
X111750667Y-50323694D01*
X111745359Y-50325116D01*
X111740378Y-50327439D01*
X111740377Y-50327439D01*
X111542840Y-50419551D01*
X111542835Y-50419554D01*
X111537853Y-50421877D01*
X111440808Y-50489829D01*
X111354813Y-50550043D01*
X111354810Y-50550045D01*
X111350302Y-50553202D01*
X111188404Y-50715100D01*
X111185247Y-50719608D01*
X111185245Y-50719611D01*
X111151967Y-50767137D01*
X111057079Y-50902651D01*
X111054756Y-50907633D01*
X111054753Y-50907638D01*
X111038797Y-50941857D01*
X110991880Y-50995142D01*
X110923603Y-51014603D01*
X110855643Y-50994061D01*
X110810407Y-50941857D01*
X110794451Y-50907638D01*
X110794448Y-50907633D01*
X110792125Y-50902651D01*
X110697237Y-50767137D01*
X110663959Y-50719611D01*
X110663957Y-50719608D01*
X110660800Y-50715100D01*
X110498902Y-50553202D01*
X110494394Y-50550045D01*
X110494391Y-50550043D01*
X110408396Y-50489829D01*
X110311351Y-50421877D01*
X110306369Y-50419554D01*
X110306364Y-50419551D01*
X110108827Y-50327439D01*
X110108826Y-50327439D01*
X110103845Y-50325116D01*
X110098537Y-50323694D01*
X110098535Y-50323693D01*
X109888004Y-50267281D01*
X109888002Y-50267281D01*
X109882689Y-50265857D01*
X109654602Y-50245902D01*
X109426515Y-50265857D01*
X109421202Y-50267281D01*
X109421200Y-50267281D01*
X109210669Y-50323693D01*
X109210667Y-50323694D01*
X109205359Y-50325116D01*
X109200378Y-50327439D01*
X109200377Y-50327439D01*
X109002840Y-50419551D01*
X109002835Y-50419554D01*
X108997853Y-50421877D01*
X108900808Y-50489829D01*
X108814813Y-50550043D01*
X108814810Y-50550045D01*
X108810302Y-50553202D01*
X108648404Y-50715100D01*
X108645247Y-50719608D01*
X108645245Y-50719611D01*
X108611967Y-50767137D01*
X108517079Y-50902651D01*
X108514756Y-50907633D01*
X108514753Y-50907638D01*
X108498797Y-50941857D01*
X108451880Y-50995142D01*
X108383603Y-51014603D01*
X108315643Y-50994061D01*
X108270407Y-50941857D01*
X108254451Y-50907638D01*
X108254448Y-50907633D01*
X108252125Y-50902651D01*
X108157237Y-50767137D01*
X108123959Y-50719611D01*
X108123957Y-50719608D01*
X108120800Y-50715100D01*
X107958902Y-50553202D01*
X107954394Y-50550045D01*
X107954391Y-50550043D01*
X107868396Y-50489829D01*
X107771351Y-50421877D01*
X107766369Y-50419554D01*
X107766364Y-50419551D01*
X107568827Y-50327439D01*
X107568826Y-50327439D01*
X107563845Y-50325116D01*
X107558537Y-50323694D01*
X107558535Y-50323693D01*
X107348004Y-50267281D01*
X107348002Y-50267281D01*
X107342689Y-50265857D01*
X107114602Y-50245902D01*
X106886515Y-50265857D01*
X106881202Y-50267281D01*
X106881200Y-50267281D01*
X106670669Y-50323693D01*
X106670667Y-50323694D01*
X106665359Y-50325116D01*
X106660378Y-50327439D01*
X106660377Y-50327439D01*
X106462840Y-50419551D01*
X106462835Y-50419554D01*
X106457853Y-50421877D01*
X106360808Y-50489829D01*
X106274813Y-50550043D01*
X106274810Y-50550045D01*
X106270302Y-50553202D01*
X106108404Y-50715100D01*
X106105247Y-50719608D01*
X106105245Y-50719611D01*
X106071967Y-50767137D01*
X105977079Y-50902651D01*
X105974756Y-50907633D01*
X105974753Y-50907638D01*
X105958797Y-50941857D01*
X105911880Y-50995142D01*
X105843603Y-51014603D01*
X105775643Y-50994061D01*
X105730407Y-50941857D01*
X105714451Y-50907638D01*
X105714448Y-50907633D01*
X105712125Y-50902651D01*
X105617237Y-50767137D01*
X105583959Y-50719611D01*
X105583957Y-50719608D01*
X105580800Y-50715100D01*
X105418902Y-50553202D01*
X105414394Y-50550045D01*
X105414391Y-50550043D01*
X105328396Y-50489829D01*
X105231351Y-50421877D01*
X105226369Y-50419554D01*
X105226364Y-50419551D01*
X105028827Y-50327439D01*
X105028826Y-50327439D01*
X105023845Y-50325116D01*
X105018537Y-50323694D01*
X105018535Y-50323693D01*
X104808004Y-50267281D01*
X104808002Y-50267281D01*
X104802689Y-50265857D01*
X104574602Y-50245902D01*
X104346515Y-50265857D01*
X104341202Y-50267281D01*
X104341200Y-50267281D01*
X104130669Y-50323693D01*
X104130667Y-50323694D01*
X104125359Y-50325116D01*
X104120378Y-50327439D01*
X104120377Y-50327439D01*
X103922840Y-50419551D01*
X103922835Y-50419554D01*
X103917853Y-50421877D01*
X103820808Y-50489829D01*
X103734813Y-50550043D01*
X103734810Y-50550045D01*
X103730302Y-50553202D01*
X103568404Y-50715100D01*
X103565247Y-50719608D01*
X103565245Y-50719611D01*
X103531967Y-50767137D01*
X103437079Y-50902651D01*
X103434756Y-50907633D01*
X103434753Y-50907638D01*
X103418797Y-50941857D01*
X103371880Y-50995142D01*
X103303603Y-51014603D01*
X103235643Y-50994061D01*
X103190407Y-50941857D01*
X103174451Y-50907638D01*
X103174448Y-50907633D01*
X103172125Y-50902651D01*
X103077237Y-50767137D01*
X103043959Y-50719611D01*
X103043957Y-50719608D01*
X103040800Y-50715100D01*
X102878902Y-50553202D01*
X102874394Y-50550045D01*
X102874391Y-50550043D01*
X102788396Y-50489829D01*
X102691351Y-50421877D01*
X102686369Y-50419554D01*
X102686364Y-50419551D01*
X102488827Y-50327439D01*
X102488826Y-50327439D01*
X102483845Y-50325116D01*
X102478537Y-50323694D01*
X102478535Y-50323693D01*
X102268004Y-50267281D01*
X102268002Y-50267281D01*
X102262689Y-50265857D01*
X102034602Y-50245902D01*
X101806515Y-50265857D01*
X101801202Y-50267281D01*
X101801200Y-50267281D01*
X101590669Y-50323693D01*
X101590667Y-50323694D01*
X101585359Y-50325116D01*
X101580378Y-50327439D01*
X101580377Y-50327439D01*
X101382840Y-50419551D01*
X101382835Y-50419554D01*
X101377853Y-50421877D01*
X101280808Y-50489829D01*
X101194813Y-50550043D01*
X101194810Y-50550045D01*
X101190302Y-50553202D01*
X101028404Y-50715100D01*
X101025247Y-50719608D01*
X101025245Y-50719611D01*
X100991967Y-50767137D01*
X100897079Y-50902651D01*
X100894756Y-50907633D01*
X100894753Y-50907638D01*
X100826890Y-51053173D01*
X100800318Y-51110157D01*
X100798896Y-51115465D01*
X100798895Y-51115467D01*
X100742483Y-51325998D01*
X100741059Y-51331313D01*
X100721104Y-51559400D01*
X100741059Y-51787487D01*
X100742483Y-51792800D01*
X100742483Y-51792802D01*
X100764906Y-51876483D01*
X100800318Y-52008643D01*
X100802641Y-52013625D01*
X100802643Y-52013630D01*
X100833004Y-52078740D01*
X100843665Y-52148931D01*
X100814685Y-52213744D01*
X100755265Y-52252600D01*
X100718809Y-52257989D01*
X98270395Y-52257989D01*
X98202274Y-52237987D01*
X98155781Y-52184331D01*
X98145677Y-52114057D01*
X98156200Y-52078740D01*
X98186561Y-52013630D01*
X98186563Y-52013625D01*
X98188886Y-52008643D01*
X98224299Y-51876483D01*
X98246721Y-51792802D01*
X98246721Y-51792800D01*
X98248145Y-51787487D01*
X98268100Y-51559400D01*
X98248145Y-51331313D01*
X98246721Y-51325998D01*
X98190309Y-51115467D01*
X98190308Y-51115465D01*
X98188886Y-51110157D01*
X98162314Y-51053173D01*
X98094451Y-50907638D01*
X98094448Y-50907633D01*
X98092125Y-50902651D01*
X97997237Y-50767137D01*
X97963959Y-50719611D01*
X97963957Y-50719608D01*
X97960800Y-50715100D01*
X97798902Y-50553202D01*
X97794394Y-50550045D01*
X97794391Y-50550043D01*
X97708396Y-50489829D01*
X97611351Y-50421877D01*
X97606369Y-50419554D01*
X97606364Y-50419551D01*
X97408827Y-50327439D01*
X97408826Y-50327439D01*
X97403845Y-50325116D01*
X97398537Y-50323694D01*
X97398535Y-50323693D01*
X97188004Y-50267281D01*
X97188002Y-50267281D01*
X97182689Y-50265857D01*
X96954602Y-50245902D01*
X96726515Y-50265857D01*
X96721202Y-50267281D01*
X96721200Y-50267281D01*
X96510669Y-50323693D01*
X96510667Y-50323694D01*
X96505359Y-50325116D01*
X96500378Y-50327439D01*
X96500377Y-50327439D01*
X96302840Y-50419551D01*
X96302835Y-50419554D01*
X96297853Y-50421877D01*
X96200808Y-50489829D01*
X96114813Y-50550043D01*
X96114810Y-50550045D01*
X96110302Y-50553202D01*
X95948404Y-50715100D01*
X95945247Y-50719608D01*
X95945245Y-50719611D01*
X95911967Y-50767137D01*
X95817079Y-50902651D01*
X95814756Y-50907633D01*
X95814753Y-50907638D01*
X95746890Y-51053173D01*
X95720318Y-51110157D01*
X95718896Y-51115465D01*
X95718895Y-51115467D01*
X95662483Y-51325998D01*
X95661059Y-51331313D01*
X95641104Y-51559400D01*
X95661059Y-51787487D01*
X95662483Y-51792800D01*
X95662483Y-51792802D01*
X95684906Y-51876483D01*
X95720318Y-52008643D01*
X95722641Y-52013625D01*
X95722643Y-52013630D01*
X95753004Y-52078740D01*
X95763665Y-52148931D01*
X95734685Y-52213744D01*
X95675265Y-52252600D01*
X95638809Y-52257989D01*
X91026120Y-52257989D01*
X91017549Y-52257697D01*
X90962899Y-52253971D01*
X90955422Y-52255276D01*
X90955421Y-52255276D01*
X90941550Y-52257697D01*
X90903186Y-52264393D01*
X90896668Y-52265354D01*
X90836555Y-52272629D01*
X90829443Y-52275317D01*
X90823582Y-52276756D01*
X90815496Y-52278968D01*
X90809772Y-52280696D01*
X90802289Y-52282002D01*
X90746775Y-52306372D01*
X90740732Y-52308838D01*
X90684043Y-52330258D01*
X90677781Y-52334562D01*
X90672496Y-52337325D01*
X90665128Y-52341425D01*
X90659962Y-52344480D01*
X90653003Y-52347535D01*
X90646973Y-52352162D01*
X90604945Y-52384411D01*
X90599607Y-52388289D01*
X90555942Y-52418298D01*
X90555935Y-52418304D01*
X90549680Y-52422603D01*
X90544630Y-52428271D01*
X90544629Y-52428272D01*
X90510392Y-52466699D01*
X90505410Y-52471975D01*
X89848612Y-53128774D01*
X89212695Y-53764691D01*
X89150383Y-53798716D01*
X89136768Y-53800906D01*
X89131115Y-53801500D01*
X89124513Y-53801500D01*
X89118060Y-53802872D01*
X89118057Y-53802872D01*
X89055487Y-53816172D01*
X88937712Y-53841206D01*
X88931682Y-53843891D01*
X88931681Y-53843891D01*
X88769278Y-53916197D01*
X88769276Y-53916198D01*
X88763248Y-53918882D01*
X88608747Y-54031134D01*
X88480960Y-54173056D01*
X88385473Y-54338444D01*
X88326458Y-54520072D01*
X88306496Y-54710000D01*
X88307186Y-54716565D01*
X88308853Y-54732421D01*
X88326458Y-54899928D01*
X88385473Y-55081556D01*
X88388776Y-55087278D01*
X88388777Y-55087279D01*
X88408004Y-55120581D01*
X88480960Y-55246944D01*
X88485378Y-55251851D01*
X88485379Y-55251852D01*
X88577150Y-55353774D01*
X88608747Y-55388866D01*
X88641165Y-55412419D01*
X88740201Y-55484373D01*
X88763248Y-55501118D01*
X88769276Y-55503802D01*
X88769278Y-55503803D01*
X88931681Y-55576109D01*
X88937712Y-55578794D01*
X89023538Y-55597037D01*
X89118056Y-55617128D01*
X89118061Y-55617128D01*
X89124513Y-55618500D01*
X89315487Y-55618500D01*
X89321939Y-55617128D01*
X89321944Y-55617128D01*
X89416462Y-55597037D01*
X89502288Y-55578794D01*
X89508319Y-55576109D01*
X89670722Y-55503803D01*
X89670724Y-55503802D01*
X89676752Y-55501118D01*
X89699800Y-55484373D01*
X89798835Y-55412419D01*
X89831253Y-55388866D01*
X89862850Y-55353774D01*
X89954621Y-55251852D01*
X89954622Y-55251851D01*
X89959040Y-55246944D01*
X90031996Y-55120581D01*
X90051223Y-55087279D01*
X90051224Y-55087278D01*
X90054527Y-55081556D01*
X90098092Y-54947478D01*
X90111502Y-54906207D01*
X90111502Y-54906205D01*
X90113542Y-54899928D01*
X90124247Y-54798077D01*
X90151260Y-54732421D01*
X90160462Y-54722153D01*
X91240520Y-53642094D01*
X91302832Y-53608069D01*
X91329615Y-53605189D01*
X98108160Y-53605189D01*
X98176281Y-53625191D01*
X98222774Y-53678847D01*
X98232878Y-53749121D01*
X98229867Y-53763800D01*
X98219765Y-53801500D01*
X98201059Y-53871313D01*
X98181104Y-54099400D01*
X98201059Y-54327487D01*
X98202483Y-54332800D01*
X98202483Y-54332802D01*
X98239154Y-54469657D01*
X98260318Y-54548643D01*
X98262641Y-54553624D01*
X98262641Y-54553625D01*
X98354753Y-54751162D01*
X98354756Y-54751167D01*
X98357079Y-54756149D01*
X98414129Y-54837624D01*
X98469372Y-54916519D01*
X98488404Y-54943700D01*
X98650302Y-55105598D01*
X98654810Y-55108755D01*
X98654813Y-55108757D01*
X98700787Y-55140948D01*
X98837853Y-55236923D01*
X98842835Y-55239246D01*
X98842840Y-55239249D01*
X99040377Y-55331361D01*
X99045359Y-55333684D01*
X99050667Y-55335106D01*
X99050669Y-55335107D01*
X99261200Y-55391519D01*
X99261202Y-55391519D01*
X99266515Y-55392943D01*
X99494602Y-55412898D01*
X99722689Y-55392943D01*
X99728002Y-55391519D01*
X99728004Y-55391519D01*
X99938535Y-55335107D01*
X99938537Y-55335106D01*
X99943845Y-55333684D01*
X99948827Y-55331361D01*
X100146364Y-55239249D01*
X100146369Y-55239246D01*
X100151351Y-55236923D01*
X100288417Y-55140948D01*
X100334391Y-55108757D01*
X100334394Y-55108755D01*
X100338902Y-55105598D01*
X100500800Y-54943700D01*
X100519833Y-54916519D01*
X100575075Y-54837624D01*
X100632125Y-54756149D01*
X100634448Y-54751167D01*
X100634451Y-54751162D01*
X100726563Y-54553625D01*
X100726563Y-54553624D01*
X100728886Y-54548643D01*
X100750051Y-54469657D01*
X100786721Y-54332802D01*
X100786721Y-54332800D01*
X100788145Y-54327487D01*
X100808100Y-54099400D01*
X100788145Y-53871313D01*
X100769439Y-53801500D01*
X100759337Y-53763800D01*
X100761027Y-53692824D01*
X100800821Y-53634028D01*
X100866085Y-53606080D01*
X100881044Y-53605189D01*
X103174704Y-53605189D01*
X103183275Y-53605481D01*
X103237925Y-53609207D01*
X103297648Y-53598783D01*
X103304138Y-53597826D01*
X103364269Y-53590549D01*
X103371378Y-53587863D01*
X103377175Y-53586439D01*
X103385330Y-53584209D01*
X103391054Y-53582481D01*
X103398535Y-53581175D01*
X103454007Y-53556824D01*
X103460112Y-53554333D01*
X103509676Y-53535605D01*
X103509678Y-53535604D01*
X103516781Y-53532920D01*
X103523040Y-53528619D01*
X103528307Y-53525865D01*
X103535732Y-53521732D01*
X103540864Y-53518697D01*
X103547821Y-53515643D01*
X103553847Y-53511019D01*
X103553849Y-53511018D01*
X103595879Y-53478767D01*
X103601217Y-53474889D01*
X103644882Y-53444880D01*
X103644889Y-53444874D01*
X103651144Y-53440575D01*
X103690432Y-53396479D01*
X103695414Y-53391203D01*
X104206080Y-52880537D01*
X104268392Y-52846511D01*
X104327784Y-52847925D01*
X104341193Y-52851518D01*
X104341204Y-52851520D01*
X104346515Y-52852943D01*
X104351991Y-52853422D01*
X104351996Y-52853423D01*
X104485653Y-52865116D01*
X104557277Y-52871382D01*
X104623395Y-52897245D01*
X104665034Y-52954749D01*
X104668975Y-53025636D01*
X104635390Y-53085998D01*
X99381893Y-58339495D01*
X99319581Y-58373521D01*
X99292798Y-58376400D01*
X88997755Y-58376400D01*
X88929634Y-58356398D01*
X88914794Y-58345067D01*
X88911253Y-58341134D01*
X88897585Y-58331203D01*
X88762094Y-58232763D01*
X88762093Y-58232762D01*
X88756752Y-58228882D01*
X88750724Y-58226198D01*
X88750722Y-58226197D01*
X88588319Y-58153891D01*
X88588318Y-58153891D01*
X88582288Y-58151206D01*
X88488887Y-58131353D01*
X88401944Y-58112872D01*
X88401939Y-58112872D01*
X88395487Y-58111500D01*
X88204513Y-58111500D01*
X88198061Y-58112872D01*
X88198056Y-58112872D01*
X88111113Y-58131353D01*
X88017712Y-58151206D01*
X88011682Y-58153891D01*
X88011681Y-58153891D01*
X87849278Y-58226197D01*
X87849276Y-58226198D01*
X87843248Y-58228882D01*
X87688747Y-58341134D01*
X87684326Y-58346044D01*
X87684325Y-58346045D01*
X87565936Y-58477530D01*
X87560960Y-58483056D01*
X87465473Y-58648444D01*
X87406458Y-58830072D01*
X87405768Y-58836633D01*
X87405768Y-58836635D01*
X87394934Y-58939715D01*
X87386496Y-59020000D01*
X69045908Y-59020000D01*
X68960561Y-58939714D01*
X68924649Y-58878471D01*
X68927549Y-58807534D01*
X68960817Y-58756870D01*
X68960421Y-58756474D01*
X70824622Y-56892273D01*
X70829816Y-56887365D01*
X70885014Y-56838099D01*
X70885016Y-56838097D01*
X70888506Y-56834982D01*
X70961568Y-56747134D01*
X70962966Y-56745483D01*
X70971976Y-56735027D01*
X71037546Y-56658929D01*
X71041366Y-56652874D01*
X71051051Y-56639545D01*
X71052648Y-56637625D01*
X71052654Y-56637617D01*
X71055637Y-56634030D01*
X71093748Y-56571226D01*
X71114929Y-56536321D01*
X71116086Y-56534452D01*
X71174523Y-56441833D01*
X71177017Y-56437881D01*
X71179901Y-56431327D01*
X71187510Y-56416710D01*
X71191229Y-56410581D01*
X71235397Y-56305252D01*
X71236265Y-56303231D01*
X71280400Y-56202926D01*
X71282284Y-56198645D01*
X71283513Y-56194138D01*
X71283516Y-56194129D01*
X71284170Y-56191729D01*
X71289533Y-56176152D01*
X71292303Y-56169545D01*
X71320424Y-56058819D01*
X71320982Y-56056701D01*
X71321186Y-56055954D01*
X71351032Y-55946479D01*
X71351873Y-55939373D01*
X71354879Y-55923153D01*
X71356641Y-55916217D01*
X71363159Y-55851492D01*
X71368085Y-55802572D01*
X71368324Y-55800387D01*
X71381204Y-55691558D01*
X71381753Y-55686920D01*
X71378559Y-55582381D01*
X71378500Y-55578533D01*
X71378500Y-54844767D01*
X71378703Y-54837624D01*
X71382897Y-54763770D01*
X71382897Y-54763763D01*
X71383162Y-54759094D01*
X71372712Y-54645367D01*
X71372530Y-54643189D01*
X71366878Y-54567128D01*
X71364061Y-54529218D01*
X71362483Y-54522246D01*
X71359903Y-54505959D01*
X71359247Y-54498820D01*
X71352111Y-54469657D01*
X71348500Y-54439709D01*
X71348500Y-51270785D01*
X71368502Y-51202664D01*
X71385405Y-51181690D01*
X71441490Y-51125605D01*
X71503802Y-51091579D01*
X71530585Y-51088700D01*
X74044580Y-51088699D01*
X74112336Y-51088699D01*
X74113705Y-51088639D01*
X74113716Y-51088639D01*
X74171914Y-51086099D01*
X74171920Y-51086098D01*
X74175480Y-51085943D01*
X74248955Y-51074306D01*
X74448571Y-51042691D01*
X74448578Y-51042689D01*
X74452918Y-51042002D01*
X74601315Y-50996632D01*
X74717322Y-50961165D01*
X74717327Y-50961163D01*
X74721540Y-50959875D01*
X74725529Y-50958015D01*
X74725534Y-50958013D01*
X74972126Y-50843026D01*
X74972132Y-50843023D01*
X74976118Y-50841164D01*
X75034360Y-50803341D01*
X75208002Y-50690577D01*
X75208006Y-50690574D01*
X75211697Y-50688177D01*
X75423692Y-50503892D01*
X75607977Y-50291897D01*
X75610743Y-50287639D01*
X75758563Y-50060015D01*
X75760964Y-50056318D01*
X75762823Y-50052332D01*
X75762826Y-50052326D01*
X75877813Y-49805734D01*
X75877815Y-49805729D01*
X75879675Y-49801740D01*
X75881438Y-49795976D01*
X75960514Y-49537330D01*
X75961802Y-49533118D01*
X75962489Y-49528778D01*
X75962491Y-49528771D01*
X76005185Y-49259203D01*
X76005743Y-49255680D01*
X76006610Y-49235840D01*
X76008440Y-49193913D01*
X76008440Y-49193909D01*
X76008500Y-49192537D01*
X76008499Y-45967864D01*
X76007217Y-45938495D01*
X76005899Y-45908286D01*
X76005898Y-45908280D01*
X76005743Y-45904720D01*
X75981628Y-45752460D01*
X75969856Y-45678134D01*
X84898300Y-45678134D01*
X84905055Y-45740316D01*
X84956185Y-45876705D01*
X85043539Y-45993261D01*
X85160095Y-46080615D01*
X85296484Y-46131745D01*
X85358666Y-46138500D01*
X87154934Y-46138500D01*
X87217116Y-46131745D01*
X87353505Y-46080615D01*
X87470061Y-45993261D01*
X87484545Y-45973935D01*
X87541404Y-45931420D01*
X87585371Y-45923500D01*
X87671429Y-45923500D01*
X87739550Y-45943502D01*
X87772255Y-45973935D01*
X87786739Y-45993261D01*
X87903295Y-46080615D01*
X88039684Y-46131745D01*
X88101866Y-46138500D01*
X89898134Y-46138500D01*
X89960316Y-46131745D01*
X90096705Y-46080615D01*
X90213261Y-45993261D01*
X90227745Y-45973935D01*
X90284604Y-45931420D01*
X90328571Y-45923500D01*
X90414629Y-45923500D01*
X90482750Y-45943502D01*
X90515455Y-45973935D01*
X90529939Y-45993261D01*
X90646495Y-46080615D01*
X90782884Y-46131745D01*
X90845066Y-46138500D01*
X92641334Y-46138500D01*
X92703516Y-46131745D01*
X92839905Y-46080615D01*
X92956461Y-45993261D01*
X93043815Y-45876705D01*
X93094945Y-45740316D01*
X93101700Y-45678134D01*
X94084500Y-45678134D01*
X94091255Y-45740316D01*
X94142385Y-45876705D01*
X94229739Y-45993261D01*
X94346295Y-46080615D01*
X94482684Y-46131745D01*
X94544866Y-46138500D01*
X96341134Y-46138500D01*
X96403316Y-46131745D01*
X96539705Y-46080615D01*
X96656261Y-45993261D01*
X96692176Y-45945340D01*
X96749033Y-45902827D01*
X96819851Y-45897801D01*
X96882145Y-45931861D01*
X96893817Y-45945330D01*
X96929739Y-45993261D01*
X97046295Y-46080615D01*
X97182684Y-46131745D01*
X97244866Y-46138500D01*
X99041134Y-46138500D01*
X99103316Y-46131745D01*
X99239705Y-46080615D01*
X99356261Y-45993261D01*
X99392176Y-45945340D01*
X99449033Y-45902827D01*
X99519851Y-45897801D01*
X99582145Y-45931861D01*
X99593817Y-45945330D01*
X99629739Y-45993261D01*
X99746295Y-46080615D01*
X99882684Y-46131745D01*
X99944866Y-46138500D01*
X101741134Y-46138500D01*
X101803316Y-46131745D01*
X101939705Y-46080615D01*
X102056261Y-45993261D01*
X102143615Y-45876705D01*
X102194745Y-45740316D01*
X102201500Y-45678134D01*
X102201500Y-43881866D01*
X102194745Y-43819684D01*
X102143615Y-43683295D01*
X102056261Y-43566739D01*
X101939705Y-43479385D01*
X101803316Y-43428255D01*
X101741134Y-43421500D01*
X99944866Y-43421500D01*
X99882684Y-43428255D01*
X99746295Y-43479385D01*
X99629739Y-43566739D01*
X99593824Y-43614660D01*
X99536967Y-43657173D01*
X99466149Y-43662199D01*
X99403855Y-43628139D01*
X99392183Y-43614670D01*
X99356261Y-43566739D01*
X99239705Y-43479385D01*
X99103316Y-43428255D01*
X99041134Y-43421500D01*
X97244866Y-43421500D01*
X97182684Y-43428255D01*
X97046295Y-43479385D01*
X96929739Y-43566739D01*
X96893824Y-43614660D01*
X96836967Y-43657173D01*
X96766149Y-43662199D01*
X96703855Y-43628139D01*
X96692183Y-43614670D01*
X96656261Y-43566739D01*
X96539705Y-43479385D01*
X96403316Y-43428255D01*
X96341134Y-43421500D01*
X94544866Y-43421500D01*
X94482684Y-43428255D01*
X94346295Y-43479385D01*
X94229739Y-43566739D01*
X94142385Y-43683295D01*
X94091255Y-43819684D01*
X94084500Y-43881866D01*
X94084500Y-45678134D01*
X93101700Y-45678134D01*
X93101700Y-43881866D01*
X93094945Y-43819684D01*
X93043815Y-43683295D01*
X92956461Y-43566739D01*
X92839905Y-43479385D01*
X92703516Y-43428255D01*
X92641334Y-43421500D01*
X90845066Y-43421500D01*
X90782884Y-43428255D01*
X90646495Y-43479385D01*
X90529939Y-43566739D01*
X90524558Y-43573919D01*
X90515455Y-43586065D01*
X90458596Y-43628580D01*
X90414629Y-43636500D01*
X90328571Y-43636500D01*
X90260450Y-43616498D01*
X90227745Y-43586065D01*
X90218642Y-43573919D01*
X90213261Y-43566739D01*
X90096705Y-43479385D01*
X89960316Y-43428255D01*
X89898134Y-43421500D01*
X88101866Y-43421500D01*
X88039684Y-43428255D01*
X87903295Y-43479385D01*
X87786739Y-43566739D01*
X87781358Y-43573919D01*
X87772255Y-43586065D01*
X87715396Y-43628580D01*
X87671429Y-43636500D01*
X87585371Y-43636500D01*
X87517250Y-43616498D01*
X87484545Y-43586065D01*
X87475442Y-43573919D01*
X87470061Y-43566739D01*
X87353505Y-43479385D01*
X87217116Y-43428255D01*
X87154934Y-43421500D01*
X85358666Y-43421500D01*
X85296484Y-43428255D01*
X85160095Y-43479385D01*
X85043539Y-43566739D01*
X84956185Y-43683295D01*
X84905055Y-43819684D01*
X84898300Y-43881866D01*
X84898300Y-45678134D01*
X75969856Y-45678134D01*
X75962491Y-45631629D01*
X75962489Y-45631622D01*
X75961802Y-45627282D01*
X75919446Y-45488744D01*
X75880965Y-45362878D01*
X75880963Y-45362873D01*
X75879675Y-45358660D01*
X75877813Y-45354666D01*
X75762826Y-45108074D01*
X75762823Y-45108068D01*
X75760964Y-45104082D01*
X75686584Y-44989547D01*
X75610377Y-44872198D01*
X75610374Y-44872194D01*
X75607977Y-44868503D01*
X75423692Y-44656508D01*
X75211697Y-44472223D01*
X75208006Y-44469826D01*
X75208002Y-44469823D01*
X74979815Y-44321637D01*
X74976118Y-44319236D01*
X74972132Y-44317377D01*
X74972126Y-44317374D01*
X74725534Y-44202387D01*
X74725529Y-44202385D01*
X74721540Y-44200525D01*
X74717327Y-44199237D01*
X74717322Y-44199235D01*
X74554514Y-44149459D01*
X74452918Y-44118398D01*
X74448578Y-44117711D01*
X74448571Y-44117709D01*
X74179003Y-44075015D01*
X74175480Y-44074457D01*
X74171919Y-44074302D01*
X74171914Y-44074301D01*
X74113713Y-44071760D01*
X74113709Y-44071760D01*
X74112337Y-44071700D01*
X72501171Y-44071700D01*
X70887664Y-44071701D01*
X70886295Y-44071761D01*
X70886284Y-44071761D01*
X70828086Y-44074301D01*
X70828080Y-44074302D01*
X70824520Y-44074457D01*
X70751045Y-44086094D01*
X70551429Y-44117709D01*
X70551422Y-44117711D01*
X70547082Y-44118398D01*
X70445486Y-44149459D01*
X70282678Y-44199235D01*
X70282673Y-44199237D01*
X70278460Y-44200525D01*
X70274471Y-44202385D01*
X70274466Y-44202387D01*
X70027874Y-44317374D01*
X70027868Y-44317377D01*
X70023882Y-44319236D01*
X70020185Y-44321637D01*
X69791998Y-44469823D01*
X69791994Y-44469826D01*
X69788303Y-44472223D01*
X69576308Y-44656508D01*
X69392023Y-44868503D01*
X69389626Y-44872194D01*
X69389623Y-44872198D01*
X69313416Y-44989547D01*
X69239036Y-45104082D01*
X69237177Y-45108068D01*
X69237174Y-45108074D01*
X69122187Y-45354666D01*
X69120325Y-45358660D01*
X69119037Y-45362873D01*
X69119035Y-45362878D01*
X69080554Y-45488744D01*
X69038198Y-45627282D01*
X69037511Y-45631622D01*
X69037509Y-45631629D01*
X69018372Y-45752460D01*
X68994257Y-45904720D01*
X68994102Y-45908281D01*
X68994101Y-45908286D01*
X68993623Y-45919242D01*
X68991500Y-45967863D01*
X68991501Y-47272522D01*
X68991501Y-48549614D01*
X68971499Y-48617735D01*
X68954596Y-48638709D01*
X68385378Y-49207927D01*
X68380184Y-49212835D01*
X68321494Y-49265218D01*
X68318501Y-49268817D01*
X68248455Y-49353038D01*
X68247057Y-49354690D01*
X68172454Y-49441271D01*
X68169959Y-49445226D01*
X68168635Y-49447324D01*
X68158949Y-49460655D01*
X68157352Y-49462575D01*
X68157346Y-49462583D01*
X68154363Y-49466170D01*
X68135284Y-49497611D01*
X68095071Y-49563879D01*
X68093914Y-49565748D01*
X68032983Y-49662319D01*
X68031101Y-49666596D01*
X68031100Y-49666598D01*
X68030099Y-49668873D01*
X68022490Y-49683490D01*
X68018771Y-49689619D01*
X68016962Y-49693933D01*
X67974603Y-49794948D01*
X67973735Y-49796969D01*
X67927716Y-49901555D01*
X67926487Y-49906062D01*
X67926484Y-49906071D01*
X67925830Y-49908471D01*
X67920467Y-49924048D01*
X67917697Y-49930655D01*
X67916547Y-49935183D01*
X67916546Y-49935186D01*
X67889578Y-50041373D01*
X67889020Y-50043491D01*
X67858968Y-50153721D01*
X67858419Y-50158361D01*
X67858418Y-50158366D01*
X67858127Y-50160827D01*
X67855122Y-50177043D01*
X67853359Y-50183983D01*
X67852891Y-50188634D01*
X67841915Y-50297628D01*
X67841676Y-50299813D01*
X67831422Y-50386453D01*
X67828247Y-50413280D01*
X67828390Y-50417951D01*
X67831441Y-50517806D01*
X67831500Y-50521654D01*
X67831500Y-54704973D01*
X67831297Y-54712116D01*
X67827103Y-54785970D01*
X67827103Y-54785977D01*
X67826838Y-54790646D01*
X67831811Y-54844767D01*
X67832003Y-54846853D01*
X67818319Y-54916519D01*
X67795627Y-54947478D01*
X66489633Y-56253472D01*
X66488123Y-56255225D01*
X66488116Y-56255232D01*
X66429336Y-56323450D01*
X66362454Y-56401071D01*
X66222983Y-56622119D01*
X66117716Y-56861355D01*
X66048968Y-57113521D01*
X66048420Y-57118153D01*
X66048419Y-57118157D01*
X66037414Y-57211141D01*
X66018247Y-57373080D01*
X62636400Y-57373080D01*
X62636400Y-41279000D01*
X62656402Y-41210879D01*
X62710058Y-41164386D01*
X62762400Y-41153000D01*
X64629701Y-41153000D01*
X64697822Y-41173002D01*
G37*
%TD.AperFunction*%
%TD*%
M02*
