%TF.GenerationSoftware,KiCad,Pcbnew,(6.0.1)*%
%TF.CreationDate,2022-01-24T17:08:06-05:00*%
%TF.ProjectId,zuko-teensy-motor-controller,7a756b6f-2d74-4656-956e-73792d6d6f74,rev?*%
%TF.SameCoordinates,Original*%
%TF.FileFunction,Soldermask,Top*%
%TF.FilePolarity,Negative*%
%FSLAX46Y46*%
G04 Gerber Fmt 4.6, Leading zero omitted, Abs format (unit mm)*
G04 Created by KiCad (PCBNEW (6.0.1)) date 2022-01-24 17:08:06*
%MOMM*%
%LPD*%
G01*
G04 APERTURE LIST*
G04 Aperture macros list*
%AMRoundRect*
0 Rectangle with rounded corners*
0 $1 Rounding radius*
0 $2 $3 $4 $5 $6 $7 $8 $9 X,Y pos of 4 corners*
0 Add a 4 corners polygon primitive as box body*
4,1,4,$2,$3,$4,$5,$6,$7,$8,$9,$2,$3,0*
0 Add four circle primitives for the rounded corners*
1,1,$1+$1,$2,$3*
1,1,$1+$1,$4,$5*
1,1,$1+$1,$6,$7*
1,1,$1+$1,$8,$9*
0 Add four rect primitives between the rounded corners*
20,1,$1+$1,$2,$3,$4,$5,0*
20,1,$1+$1,$4,$5,$6,$7,0*
20,1,$1+$1,$6,$7,$8,$9,0*
20,1,$1+$1,$8,$9,$2,$3,0*%
%AMRotRect*
0 Rectangle, with rotation*
0 The origin of the aperture is its center*
0 $1 length*
0 $2 width*
0 $3 Rotation angle, in degrees counterclockwise*
0 Add horizontal line*
21,1,$1,$2,0,0,$3*%
G04 Aperture macros list end*
%ADD10R,1.700000X1.700000*%
%ADD11O,1.700000X1.700000*%
%ADD12RoundRect,0.150000X0.150000X-0.825000X0.150000X0.825000X-0.150000X0.825000X-0.150000X-0.825000X0*%
%ADD13RoundRect,0.150000X-0.825000X-0.150000X0.825000X-0.150000X0.825000X0.150000X-0.825000X0.150000X0*%
%ADD14RoundRect,1.500000X-1.500000X-1.500000X1.500000X-1.500000X1.500000X1.500000X-1.500000X1.500000X0*%
%ADD15C,6.000000*%
%ADD16C,2.900000*%
%ADD17C,5.000000*%
%ADD18RoundRect,0.250000X0.625000X-0.400000X0.625000X0.400000X-0.625000X0.400000X-0.625000X-0.400000X0*%
%ADD19RoundRect,0.250000X-0.400000X-0.625000X0.400000X-0.625000X0.400000X0.625000X-0.400000X0.625000X0*%
%ADD20RotRect,2.000000X2.000000X325.000000*%
%ADD21C,2.000000*%
%ADD22C,1.600000*%
%ADD23RoundRect,0.250000X-0.650000X0.412500X-0.650000X-0.412500X0.650000X-0.412500X0.650000X0.412500X0*%
%ADD24RoundRect,0.250000X0.400000X0.625000X-0.400000X0.625000X-0.400000X-0.625000X0.400000X-0.625000X0*%
%ADD25RoundRect,0.150000X0.150000X-0.587500X0.150000X0.587500X-0.150000X0.587500X-0.150000X-0.587500X0*%
G04 APERTURE END LIST*
D10*
%TO.C,JP1*%
X149047402Y-67836800D03*
D11*
X151587402Y-67836800D03*
X154127402Y-67836800D03*
%TD*%
D12*
%TO.C,U3*%
X133605000Y-62655000D03*
X134875000Y-62655000D03*
X136145000Y-62655000D03*
X137415000Y-62655000D03*
X138685000Y-62655000D03*
X139955000Y-62655000D03*
X141225000Y-62655000D03*
X142495000Y-62655000D03*
X142495000Y-57705000D03*
X141225000Y-57705000D03*
X139955000Y-57705000D03*
X138685000Y-57705000D03*
X137415000Y-57705000D03*
X136145000Y-57705000D03*
X134875000Y-57705000D03*
X133605000Y-57705000D03*
%TD*%
D13*
%TO.C,U1*%
X69648400Y-56896000D03*
X69648400Y-58166000D03*
X69648400Y-59436000D03*
X69648400Y-60706000D03*
X74598400Y-60706000D03*
X74598400Y-59436000D03*
X74598400Y-58166000D03*
X74598400Y-56896000D03*
%TD*%
D10*
%TO.C,J29*%
X147932000Y-44800000D03*
D11*
X147932000Y-47340000D03*
X147932000Y-49880000D03*
X147932000Y-52420000D03*
%TD*%
D14*
%TO.C,J4*%
X72500000Y-47580200D03*
D15*
X79700000Y-47580200D03*
%TD*%
D16*
%TO.C,REF\u002A\u002A*%
X159414400Y-43351000D03*
D17*
X159414400Y-43351000D03*
%TD*%
D10*
%TO.C,J9*%
X113299929Y-71375000D03*
D11*
X113299929Y-73915000D03*
X113299929Y-76455000D03*
%TD*%
D10*
%TO.C,J33*%
X111018400Y-44813600D03*
D11*
X113558400Y-44813600D03*
X116098400Y-44813600D03*
X118638400Y-44813600D03*
%TD*%
D18*
%TO.C,R12*%
X113591600Y-58392000D03*
X113591600Y-55292000D03*
%TD*%
D10*
%TO.C,J22*%
X154200000Y-71375000D03*
D11*
X154200000Y-73915000D03*
X154200000Y-76455000D03*
%TD*%
D10*
%TO.C,J7*%
X97043929Y-71375000D03*
D11*
X97043929Y-73915000D03*
X97043929Y-76455000D03*
%TD*%
D19*
%TO.C,R10*%
X139120000Y-53600000D03*
X142220000Y-53600000D03*
%TD*%
D20*
%TO.C,C2*%
X82698998Y-73779830D03*
D21*
X86794758Y-76647712D03*
%TD*%
D10*
%TO.C,J15*%
X86256800Y-44780000D03*
D11*
X86256800Y-47320000D03*
%TD*%
D10*
%TO.C,J16*%
X100843000Y-44780000D03*
D11*
X100843000Y-47320000D03*
%TD*%
D19*
%TO.C,R6*%
X115750000Y-56487000D03*
X118850000Y-56487000D03*
%TD*%
%TO.C,R9*%
X133470000Y-53500000D03*
X136570000Y-53500000D03*
%TD*%
D10*
%TO.C,J30*%
X133600000Y-44800000D03*
D11*
X136140000Y-44800000D03*
X138680000Y-44800000D03*
X141220000Y-44800000D03*
%TD*%
D22*
%TO.C,U2*%
X96954602Y-66799400D03*
X99494602Y-66799400D03*
X102034602Y-66799400D03*
X104574602Y-66799400D03*
X107114602Y-66799400D03*
X109654602Y-66799400D03*
X112194602Y-66799400D03*
X114734602Y-66799400D03*
X117274602Y-66799400D03*
X119814602Y-66799400D03*
X122354602Y-66799400D03*
X124894602Y-66799400D03*
X127434602Y-66799400D03*
X129974602Y-66799400D03*
X129974602Y-64259400D03*
X129974602Y-61719400D03*
X129974602Y-59179400D03*
X129974602Y-56639400D03*
X129974602Y-54099400D03*
X129974602Y-51559400D03*
X127434602Y-51559400D03*
X124894602Y-51559400D03*
X122354602Y-51559400D03*
X119814602Y-51559400D03*
X117274602Y-51559400D03*
X114734602Y-51559400D03*
X112194602Y-51559400D03*
X109654602Y-51559400D03*
X107114602Y-51559400D03*
X104574602Y-51559400D03*
X102034602Y-51559400D03*
X99494602Y-51559400D03*
X96954602Y-51559400D03*
X99494602Y-54099400D03*
X124894602Y-54099400D03*
X122354602Y-54099400D03*
X124894602Y-56639400D03*
X122354602Y-56639400D03*
X124894602Y-59179400D03*
X122354602Y-59179400D03*
X124894602Y-61719400D03*
X122354602Y-61719400D03*
X124894602Y-64259400D03*
X122354602Y-64259400D03*
%TD*%
D10*
%TO.C,J31*%
X150726000Y-44800000D03*
D11*
X150726000Y-47340000D03*
X150726000Y-49880000D03*
X150726000Y-52420000D03*
%TD*%
D10*
%TO.C,J6*%
X94376929Y-71375000D03*
D11*
X94376929Y-73915000D03*
X94376929Y-76455000D03*
%TD*%
D10*
%TO.C,J21*%
X89000000Y-44780000D03*
D11*
X89000000Y-47320000D03*
%TD*%
D23*
%TO.C,C6*%
X77500000Y-54437500D03*
X77500000Y-57562500D03*
%TD*%
D10*
%TO.C,J18*%
X151533000Y-71375000D03*
D11*
X151533000Y-73915000D03*
X151533000Y-76455000D03*
%TD*%
D10*
%TO.C,J19*%
X98143000Y-44780000D03*
D11*
X98143000Y-47320000D03*
%TD*%
D10*
%TO.C,J26*%
X149935000Y-56500000D03*
D11*
X152475000Y-56500000D03*
X155015000Y-56500000D03*
%TD*%
D20*
%TO.C,C1*%
X139588934Y-73779830D03*
D21*
X143684694Y-76647712D03*
%TD*%
D24*
%TO.C,R8*%
X138340000Y-66690000D03*
X135240000Y-66690000D03*
%TD*%
D19*
%TO.C,R4*%
X89200000Y-60706000D03*
X92300000Y-60706000D03*
%TD*%
D10*
%TO.C,J2*%
X75453929Y-71375000D03*
D11*
X75453929Y-73915000D03*
X75453929Y-76455000D03*
%TD*%
D18*
%TO.C,R14*%
X102872800Y-58290400D03*
X102872800Y-55190400D03*
%TD*%
D19*
%TO.C,R11*%
X109100000Y-61500000D03*
X112200000Y-61500000D03*
%TD*%
D10*
%TO.C,J12*%
X132222929Y-71375000D03*
D11*
X132222929Y-73915000D03*
X132222929Y-76455000D03*
%TD*%
D10*
%TO.C,J14*%
X95443000Y-44780000D03*
D11*
X95443000Y-47320000D03*
%TD*%
D10*
%TO.C,J23*%
X91743200Y-44780000D03*
D11*
X91743200Y-47320000D03*
%TD*%
D10*
%TO.C,J5*%
X91709929Y-71375000D03*
D11*
X91709929Y-73915000D03*
X91709929Y-76455000D03*
%TD*%
D10*
%TO.C,J25*%
X149920000Y-59500000D03*
D11*
X152460000Y-59500000D03*
X155000000Y-59500000D03*
%TD*%
D10*
%TO.C,J10*%
X115966929Y-71390011D03*
D11*
X115966929Y-73930011D03*
X115966929Y-76470011D03*
%TD*%
D25*
%TO.C,Q2*%
X105275600Y-57625400D03*
X107175600Y-57625400D03*
X106225600Y-55750400D03*
%TD*%
D19*
%TO.C,R2*%
X84067980Y-60706000D03*
X87167980Y-60706000D03*
%TD*%
%TO.C,R13*%
X103002800Y-61550800D03*
X106102800Y-61550800D03*
%TD*%
D16*
%TO.C,REF\u002A\u002A*%
X159414400Y-77851000D03*
D17*
X159414400Y-77851000D03*
%TD*%
D23*
%TO.C,C5*%
X77500000Y-60300000D03*
X77500000Y-63425000D03*
%TD*%
D10*
%TO.C,J27*%
X145138000Y-44800000D03*
D11*
X145138000Y-47340000D03*
X145138000Y-49880000D03*
X145138000Y-52420000D03*
%TD*%
D19*
%TO.C,R1*%
X84120000Y-57150000D03*
X87220000Y-57150000D03*
%TD*%
D10*
%TO.C,J24*%
X122300000Y-44800000D03*
D11*
X124840000Y-44800000D03*
X127380000Y-44800000D03*
X129920000Y-44800000D03*
%TD*%
D10*
%TO.C,J32*%
X153520000Y-44800000D03*
D11*
X153520000Y-47340000D03*
X153520000Y-49880000D03*
X153520000Y-52420000D03*
%TD*%
D10*
%TO.C,J8*%
X110632929Y-71359989D03*
D11*
X110632929Y-73899989D03*
X110632929Y-76439989D03*
%TD*%
D10*
%TO.C,J28*%
X133600000Y-47490000D03*
D11*
X136140000Y-47490000D03*
X138680000Y-47490000D03*
X141220000Y-47490000D03*
%TD*%
D24*
%TO.C,R7*%
X143440000Y-66690000D03*
X140340000Y-66690000D03*
%TD*%
D10*
%TO.C,J1*%
X72786929Y-71375000D03*
D11*
X72786929Y-73915000D03*
X72786929Y-76455000D03*
%TD*%
D10*
%TO.C,J34*%
X107243000Y-44800000D03*
D11*
X107243000Y-47340000D03*
%TD*%
D25*
%TO.C,Q1*%
X109238000Y-57625400D03*
X111138000Y-57625400D03*
X110188000Y-55750400D03*
%TD*%
D10*
%TO.C,J17*%
X148866000Y-71375000D03*
D11*
X148866000Y-73915000D03*
X148866000Y-76455000D03*
%TD*%
D19*
%TO.C,R3*%
X89274980Y-57150000D03*
X92374980Y-57150000D03*
%TD*%
D20*
%TO.C,C4*%
X101621998Y-73788000D03*
D21*
X105717758Y-76655882D03*
%TD*%
D20*
%TO.C,C3*%
X120538934Y-73779830D03*
D21*
X124634694Y-76647712D03*
%TD*%
D16*
%TO.C,REF\u002A\u002A*%
X64897200Y-77851000D03*
D17*
X64897200Y-77851000D03*
%TD*%
D10*
%TO.C,J20*%
X104543000Y-44775000D03*
D11*
X104543000Y-47315000D03*
%TD*%
D10*
%TO.C,J3*%
X78120929Y-71390011D03*
D11*
X78120929Y-73930011D03*
X78120929Y-76470011D03*
%TD*%
D16*
%TO.C,REF\u002A\u002A*%
X64897200Y-43351000D03*
D17*
X64897200Y-43351000D03*
%TD*%
D10*
%TO.C,J11*%
X129555929Y-71375000D03*
D11*
X129555929Y-73915000D03*
X129555929Y-76455000D03*
%TD*%
D19*
%TO.C,R5*%
X115750000Y-58900000D03*
X118850000Y-58900000D03*
%TD*%
D10*
%TO.C,J13*%
X134889929Y-71375000D03*
D11*
X134889929Y-73915000D03*
X134889929Y-76455000D03*
%TD*%
M02*
