%TF.GenerationSoftware,KiCad,Pcbnew,(6.0.1)*%
%TF.CreationDate,2022-02-05T20:25:37-05:00*%
%TF.ProjectId,battery-board,62617474-6572-4792-9d62-6f6172642e6b,rev?*%
%TF.SameCoordinates,Original*%
%TF.FileFunction,Legend,Bot*%
%TF.FilePolarity,Positive*%
%FSLAX46Y46*%
G04 Gerber Fmt 4.6, Leading zero omitted, Abs format (unit mm)*
G04 Created by KiCad (PCBNEW (6.0.1)) date 2022-02-05 20:25:37*
%MOMM*%
%LPD*%
G01*
G04 APERTURE LIST*
%ADD10C,0.500000*%
%ADD11C,0.120000*%
G04 APERTURE END LIST*
D10*
%TO.C,BH2*%
X68109523Y-36517857D02*
X68109523Y-39184523D01*
X69061904Y-34994047D02*
X70014285Y-37851190D01*
X67538095Y-37851190D01*
X66395238Y-39184523D02*
X64300000Y-36517857D01*
X66395238Y-36517857D02*
X64300000Y-39184523D01*
X57633333Y-39184523D02*
X59919047Y-39184523D01*
X58776190Y-39184523D02*
X58776190Y-35184523D01*
X59157142Y-35755952D01*
X59538095Y-36136904D01*
X59919047Y-36327380D01*
X55347619Y-36898809D02*
X55728571Y-36708333D01*
X55919047Y-36517857D01*
X56109523Y-36136904D01*
X56109523Y-35946428D01*
X55919047Y-35565476D01*
X55728571Y-35375000D01*
X55347619Y-35184523D01*
X54585714Y-35184523D01*
X54204761Y-35375000D01*
X54014285Y-35565476D01*
X53823809Y-35946428D01*
X53823809Y-36136904D01*
X54014285Y-36517857D01*
X54204761Y-36708333D01*
X54585714Y-36898809D01*
X55347619Y-36898809D01*
X55728571Y-37089285D01*
X55919047Y-37279761D01*
X56109523Y-37660714D01*
X56109523Y-38422619D01*
X55919047Y-38803571D01*
X55728571Y-38994047D01*
X55347619Y-39184523D01*
X54585714Y-39184523D01*
X54204761Y-38994047D01*
X54014285Y-38803571D01*
X53823809Y-38422619D01*
X53823809Y-37660714D01*
X54014285Y-37279761D01*
X54204761Y-37089285D01*
X54585714Y-36898809D01*
X50395238Y-35184523D02*
X51157142Y-35184523D01*
X51538095Y-35375000D01*
X51728571Y-35565476D01*
X52109523Y-36136904D01*
X52300000Y-36898809D01*
X52300000Y-38422619D01*
X52109523Y-38803571D01*
X51919047Y-38994047D01*
X51538095Y-39184523D01*
X50776190Y-39184523D01*
X50395238Y-38994047D01*
X50204761Y-38803571D01*
X50014285Y-38422619D01*
X50014285Y-37470238D01*
X50204761Y-37089285D01*
X50395238Y-36898809D01*
X50776190Y-36708333D01*
X51538095Y-36708333D01*
X51919047Y-36898809D01*
X52109523Y-37089285D01*
X52300000Y-37470238D01*
X46395238Y-35184523D02*
X48300000Y-35184523D01*
X48490476Y-37089285D01*
X48300000Y-36898809D01*
X47919047Y-36708333D01*
X46966666Y-36708333D01*
X46585714Y-36898809D01*
X46395238Y-37089285D01*
X46204761Y-37470238D01*
X46204761Y-38422619D01*
X46395238Y-38803571D01*
X46585714Y-38994047D01*
X46966666Y-39184523D01*
X47919047Y-39184523D01*
X48300000Y-38994047D01*
X48490476Y-38803571D01*
X43728571Y-35184523D02*
X43347619Y-35184523D01*
X42966666Y-35375000D01*
X42776190Y-35565476D01*
X42585714Y-35946428D01*
X42395238Y-36708333D01*
X42395238Y-37660714D01*
X42585714Y-38422619D01*
X42776190Y-38803571D01*
X42966666Y-38994047D01*
X43347619Y-39184523D01*
X43728571Y-39184523D01*
X44109523Y-38994047D01*
X44300000Y-38803571D01*
X44490476Y-38422619D01*
X44680952Y-37660714D01*
X44680952Y-36708333D01*
X44490476Y-35946428D01*
X44300000Y-35565476D01*
X44109523Y-35375000D01*
X43728571Y-35184523D01*
X35728571Y-39184523D02*
X37633333Y-39184523D01*
X37633333Y-35184523D01*
X34395238Y-39184523D02*
X34395238Y-36517857D01*
X34395238Y-35184523D02*
X34585714Y-35375000D01*
X34395238Y-35565476D01*
X34204761Y-35375000D01*
X34395238Y-35184523D01*
X34395238Y-35565476D01*
X32490476Y-39184523D02*
X32490476Y-35184523D01*
X30966666Y-35184523D01*
X30585714Y-35375000D01*
X30395238Y-35565476D01*
X30204761Y-35946428D01*
X30204761Y-36517857D01*
X30395238Y-36898809D01*
X30585714Y-37089285D01*
X30966666Y-37279761D01*
X32490476Y-37279761D01*
X27919047Y-39184523D02*
X28300000Y-38994047D01*
X28490476Y-38803571D01*
X28680952Y-38422619D01*
X28680952Y-37279761D01*
X28490476Y-36898809D01*
X28300000Y-36708333D01*
X27919047Y-36517857D01*
X27347619Y-36517857D01*
X26966666Y-36708333D01*
X26776190Y-36898809D01*
X26585714Y-37279761D01*
X26585714Y-38422619D01*
X26776190Y-38803571D01*
X26966666Y-38994047D01*
X27347619Y-39184523D01*
X27919047Y-39184523D01*
X68154009Y-43693285D02*
X67582580Y-43883761D01*
X67392104Y-44074238D01*
X67201628Y-44455190D01*
X67201628Y-45026619D01*
X67392104Y-45407571D01*
X67582580Y-45598047D01*
X67963533Y-45788523D01*
X69487342Y-45788523D01*
X69487342Y-41788523D01*
X68154009Y-41788523D01*
X67773057Y-41979000D01*
X67582580Y-42169476D01*
X67392104Y-42550428D01*
X67392104Y-42931380D01*
X67582580Y-43312333D01*
X67773057Y-43502809D01*
X68154009Y-43693285D01*
X69487342Y-43693285D01*
X63773057Y-45788523D02*
X63773057Y-43693285D01*
X63963533Y-43312333D01*
X64344485Y-43121857D01*
X65106390Y-43121857D01*
X65487342Y-43312333D01*
X63773057Y-45598047D02*
X64154009Y-45788523D01*
X65106390Y-45788523D01*
X65487342Y-45598047D01*
X65677819Y-45217095D01*
X65677819Y-44836142D01*
X65487342Y-44455190D01*
X65106390Y-44264714D01*
X64154009Y-44264714D01*
X63773057Y-44074238D01*
X62439723Y-43121857D02*
X60915914Y-43121857D01*
X61868295Y-41788523D02*
X61868295Y-45217095D01*
X61677819Y-45598047D01*
X61296866Y-45788523D01*
X60915914Y-45788523D01*
X60154009Y-43121857D02*
X58630200Y-43121857D01*
X59582580Y-41788523D02*
X59582580Y-45217095D01*
X59392104Y-45598047D01*
X59011152Y-45788523D01*
X58630200Y-45788523D01*
X55773057Y-45598047D02*
X56154009Y-45788523D01*
X56915914Y-45788523D01*
X57296866Y-45598047D01*
X57487342Y-45217095D01*
X57487342Y-43693285D01*
X57296866Y-43312333D01*
X56915914Y-43121857D01*
X56154009Y-43121857D01*
X55773057Y-43312333D01*
X55582580Y-43693285D01*
X55582580Y-44074238D01*
X57487342Y-44455190D01*
X53868295Y-45788523D02*
X53868295Y-43121857D01*
X53868295Y-43883761D02*
X53677819Y-43502809D01*
X53487342Y-43312333D01*
X53106390Y-43121857D01*
X52725438Y-43121857D01*
X51773057Y-43121857D02*
X50820676Y-45788523D01*
X49868295Y-43121857D02*
X50820676Y-45788523D01*
X51201628Y-46740904D01*
X51392104Y-46931380D01*
X51773057Y-47121857D01*
X45296866Y-45788523D02*
X45296866Y-41788523D01*
X45296866Y-43693285D02*
X43011152Y-43693285D01*
X43011152Y-45788523D02*
X43011152Y-41788523D01*
X40534961Y-45788523D02*
X40915914Y-45598047D01*
X41106390Y-45407571D01*
X41296866Y-45026619D01*
X41296866Y-43883761D01*
X41106390Y-43502809D01*
X40915914Y-43312333D01*
X40534961Y-43121857D01*
X39963533Y-43121857D01*
X39582580Y-43312333D01*
X39392104Y-43502809D01*
X39201628Y-43883761D01*
X39201628Y-45026619D01*
X39392104Y-45407571D01*
X39582580Y-45598047D01*
X39963533Y-45788523D01*
X40534961Y-45788523D01*
X36915914Y-45788523D02*
X37296866Y-45598047D01*
X37487342Y-45217095D01*
X37487342Y-41788523D01*
X33677819Y-45788523D02*
X33677819Y-41788523D01*
X33677819Y-45598047D02*
X34058771Y-45788523D01*
X34820676Y-45788523D01*
X35201628Y-45598047D01*
X35392104Y-45407571D01*
X35582580Y-45026619D01*
X35582580Y-43883761D01*
X35392104Y-43502809D01*
X35201628Y-43312333D01*
X34820676Y-43121857D01*
X34058771Y-43121857D01*
X33677819Y-43312333D01*
X30249247Y-45598047D02*
X30630200Y-45788523D01*
X31392104Y-45788523D01*
X31773057Y-45598047D01*
X31963533Y-45217095D01*
X31963533Y-43693285D01*
X31773057Y-43312333D01*
X31392104Y-43121857D01*
X30630200Y-43121857D01*
X30249247Y-43312333D01*
X30058771Y-43693285D01*
X30058771Y-44074238D01*
X31963533Y-44455190D01*
X28344485Y-45788523D02*
X28344485Y-43121857D01*
X28344485Y-43883761D02*
X28154009Y-43502809D01*
X27963533Y-43312333D01*
X27582580Y-43121857D01*
X27201628Y-43121857D01*
%TO.C,BH1*%
X68109523Y-115827857D02*
X68109523Y-118494523D01*
X69061904Y-114304047D02*
X70014285Y-117161190D01*
X67538095Y-117161190D01*
X66395238Y-118494523D02*
X64300000Y-115827857D01*
X66395238Y-115827857D02*
X64300000Y-118494523D01*
X57633333Y-118494523D02*
X59919047Y-118494523D01*
X58776190Y-118494523D02*
X58776190Y-114494523D01*
X59157142Y-115065952D01*
X59538095Y-115446904D01*
X59919047Y-115637380D01*
X55347619Y-116208809D02*
X55728571Y-116018333D01*
X55919047Y-115827857D01*
X56109523Y-115446904D01*
X56109523Y-115256428D01*
X55919047Y-114875476D01*
X55728571Y-114685000D01*
X55347619Y-114494523D01*
X54585714Y-114494523D01*
X54204761Y-114685000D01*
X54014285Y-114875476D01*
X53823809Y-115256428D01*
X53823809Y-115446904D01*
X54014285Y-115827857D01*
X54204761Y-116018333D01*
X54585714Y-116208809D01*
X55347619Y-116208809D01*
X55728571Y-116399285D01*
X55919047Y-116589761D01*
X56109523Y-116970714D01*
X56109523Y-117732619D01*
X55919047Y-118113571D01*
X55728571Y-118304047D01*
X55347619Y-118494523D01*
X54585714Y-118494523D01*
X54204761Y-118304047D01*
X54014285Y-118113571D01*
X53823809Y-117732619D01*
X53823809Y-116970714D01*
X54014285Y-116589761D01*
X54204761Y-116399285D01*
X54585714Y-116208809D01*
X50395238Y-114494523D02*
X51157142Y-114494523D01*
X51538095Y-114685000D01*
X51728571Y-114875476D01*
X52109523Y-115446904D01*
X52300000Y-116208809D01*
X52300000Y-117732619D01*
X52109523Y-118113571D01*
X51919047Y-118304047D01*
X51538095Y-118494523D01*
X50776190Y-118494523D01*
X50395238Y-118304047D01*
X50204761Y-118113571D01*
X50014285Y-117732619D01*
X50014285Y-116780238D01*
X50204761Y-116399285D01*
X50395238Y-116208809D01*
X50776190Y-116018333D01*
X51538095Y-116018333D01*
X51919047Y-116208809D01*
X52109523Y-116399285D01*
X52300000Y-116780238D01*
X46395238Y-114494523D02*
X48300000Y-114494523D01*
X48490476Y-116399285D01*
X48300000Y-116208809D01*
X47919047Y-116018333D01*
X46966666Y-116018333D01*
X46585714Y-116208809D01*
X46395238Y-116399285D01*
X46204761Y-116780238D01*
X46204761Y-117732619D01*
X46395238Y-118113571D01*
X46585714Y-118304047D01*
X46966666Y-118494523D01*
X47919047Y-118494523D01*
X48300000Y-118304047D01*
X48490476Y-118113571D01*
X43728571Y-114494523D02*
X43347619Y-114494523D01*
X42966666Y-114685000D01*
X42776190Y-114875476D01*
X42585714Y-115256428D01*
X42395238Y-116018333D01*
X42395238Y-116970714D01*
X42585714Y-117732619D01*
X42776190Y-118113571D01*
X42966666Y-118304047D01*
X43347619Y-118494523D01*
X43728571Y-118494523D01*
X44109523Y-118304047D01*
X44300000Y-118113571D01*
X44490476Y-117732619D01*
X44680952Y-116970714D01*
X44680952Y-116018333D01*
X44490476Y-115256428D01*
X44300000Y-114875476D01*
X44109523Y-114685000D01*
X43728571Y-114494523D01*
X35728571Y-118494523D02*
X37633333Y-118494523D01*
X37633333Y-114494523D01*
X34395238Y-118494523D02*
X34395238Y-115827857D01*
X34395238Y-114494523D02*
X34585714Y-114685000D01*
X34395238Y-114875476D01*
X34204761Y-114685000D01*
X34395238Y-114494523D01*
X34395238Y-114875476D01*
X32490476Y-118494523D02*
X32490476Y-114494523D01*
X30966666Y-114494523D01*
X30585714Y-114685000D01*
X30395238Y-114875476D01*
X30204761Y-115256428D01*
X30204761Y-115827857D01*
X30395238Y-116208809D01*
X30585714Y-116399285D01*
X30966666Y-116589761D01*
X32490476Y-116589761D01*
X27919047Y-118494523D02*
X28300000Y-118304047D01*
X28490476Y-118113571D01*
X28680952Y-117732619D01*
X28680952Y-116589761D01*
X28490476Y-116208809D01*
X28300000Y-116018333D01*
X27919047Y-115827857D01*
X27347619Y-115827857D01*
X26966666Y-116018333D01*
X26776190Y-116208809D01*
X26585714Y-116589761D01*
X26585714Y-117732619D01*
X26776190Y-118113571D01*
X26966666Y-118304047D01*
X27347619Y-118494523D01*
X27919047Y-118494523D01*
X68154009Y-123003285D02*
X67582580Y-123193761D01*
X67392104Y-123384238D01*
X67201628Y-123765190D01*
X67201628Y-124336619D01*
X67392104Y-124717571D01*
X67582580Y-124908047D01*
X67963533Y-125098523D01*
X69487342Y-125098523D01*
X69487342Y-121098523D01*
X68154009Y-121098523D01*
X67773057Y-121289000D01*
X67582580Y-121479476D01*
X67392104Y-121860428D01*
X67392104Y-122241380D01*
X67582580Y-122622333D01*
X67773057Y-122812809D01*
X68154009Y-123003285D01*
X69487342Y-123003285D01*
X63773057Y-125098523D02*
X63773057Y-123003285D01*
X63963533Y-122622333D01*
X64344485Y-122431857D01*
X65106390Y-122431857D01*
X65487342Y-122622333D01*
X63773057Y-124908047D02*
X64154009Y-125098523D01*
X65106390Y-125098523D01*
X65487342Y-124908047D01*
X65677819Y-124527095D01*
X65677819Y-124146142D01*
X65487342Y-123765190D01*
X65106390Y-123574714D01*
X64154009Y-123574714D01*
X63773057Y-123384238D01*
X62439723Y-122431857D02*
X60915914Y-122431857D01*
X61868295Y-121098523D02*
X61868295Y-124527095D01*
X61677819Y-124908047D01*
X61296866Y-125098523D01*
X60915914Y-125098523D01*
X60154009Y-122431857D02*
X58630200Y-122431857D01*
X59582580Y-121098523D02*
X59582580Y-124527095D01*
X59392104Y-124908047D01*
X59011152Y-125098523D01*
X58630200Y-125098523D01*
X55773057Y-124908047D02*
X56154009Y-125098523D01*
X56915914Y-125098523D01*
X57296866Y-124908047D01*
X57487342Y-124527095D01*
X57487342Y-123003285D01*
X57296866Y-122622333D01*
X56915914Y-122431857D01*
X56154009Y-122431857D01*
X55773057Y-122622333D01*
X55582580Y-123003285D01*
X55582580Y-123384238D01*
X57487342Y-123765190D01*
X53868295Y-125098523D02*
X53868295Y-122431857D01*
X53868295Y-123193761D02*
X53677819Y-122812809D01*
X53487342Y-122622333D01*
X53106390Y-122431857D01*
X52725438Y-122431857D01*
X51773057Y-122431857D02*
X50820676Y-125098523D01*
X49868295Y-122431857D02*
X50820676Y-125098523D01*
X51201628Y-126050904D01*
X51392104Y-126241380D01*
X51773057Y-126431857D01*
X45296866Y-125098523D02*
X45296866Y-121098523D01*
X45296866Y-123003285D02*
X43011152Y-123003285D01*
X43011152Y-125098523D02*
X43011152Y-121098523D01*
X40534961Y-125098523D02*
X40915914Y-124908047D01*
X41106390Y-124717571D01*
X41296866Y-124336619D01*
X41296866Y-123193761D01*
X41106390Y-122812809D01*
X40915914Y-122622333D01*
X40534961Y-122431857D01*
X39963533Y-122431857D01*
X39582580Y-122622333D01*
X39392104Y-122812809D01*
X39201628Y-123193761D01*
X39201628Y-124336619D01*
X39392104Y-124717571D01*
X39582580Y-124908047D01*
X39963533Y-125098523D01*
X40534961Y-125098523D01*
X36915914Y-125098523D02*
X37296866Y-124908047D01*
X37487342Y-124527095D01*
X37487342Y-121098523D01*
X33677819Y-125098523D02*
X33677819Y-121098523D01*
X33677819Y-124908047D02*
X34058771Y-125098523D01*
X34820676Y-125098523D01*
X35201628Y-124908047D01*
X35392104Y-124717571D01*
X35582580Y-124336619D01*
X35582580Y-123193761D01*
X35392104Y-122812809D01*
X35201628Y-122622333D01*
X34820676Y-122431857D01*
X34058771Y-122431857D01*
X33677819Y-122622333D01*
X30249247Y-124908047D02*
X30630200Y-125098523D01*
X31392104Y-125098523D01*
X31773057Y-124908047D01*
X31963533Y-124527095D01*
X31963533Y-123003285D01*
X31773057Y-122622333D01*
X31392104Y-122431857D01*
X30630200Y-122431857D01*
X30249247Y-122622333D01*
X30058771Y-123003285D01*
X30058771Y-123384238D01*
X31963533Y-123765190D01*
X28344485Y-125098523D02*
X28344485Y-122431857D01*
X28344485Y-123193761D02*
X28154009Y-122812809D01*
X27963533Y-122622333D01*
X27582580Y-122431857D01*
X27201628Y-122431857D01*
D11*
%TO.C,BH2*%
X87900000Y-1095000D02*
X10100000Y-1095000D01*
X10100000Y-1095000D02*
X10100000Y-79445000D01*
X10100000Y-79445000D02*
X87900000Y-79445000D01*
X87900000Y-79445000D02*
X87900000Y-1095000D01*
%TO.C,BH1*%
X87900000Y-80405000D02*
X10100000Y-80405000D01*
X10100000Y-80405000D02*
X10100000Y-158755000D01*
X10100000Y-158755000D02*
X87900000Y-158755000D01*
X87900000Y-158755000D02*
X87900000Y-80405000D01*
%TD*%
M02*
