M48
; DRILL file {KiCad (6.0.1)} date Sat Feb  5 20:25:35 2022
; FORMAT={-:-/ absolute / inch / decimal}
; #@! TF.CreationDate,2022-02-05T20:25:35-05:00
; #@! TF.GenerationSoftware,Kicad,Pcbnew,(6.0.1)
; #@! TF.FileFunction,Plated,1,2,PTH
FMAT,2
INCH
; #@! TA.AperFunction,Plated,PTH,ComponentDrill
T1C0.0394
; #@! TA.AperFunction,Plated,PTH,ComponentDrill
T2C0.0787
; #@! TA.AperFunction,Plated,PTH,ComponentDrill
T3C0.1063
%
G90
G05
T1
X3.5059Y-3.2087
X3.5059Y-3.3087
T2
X0.4941Y-0.4454
X0.4941Y-1.2054
X0.4941Y-1.9654
X0.4941Y-2.7254
X0.4941Y-3.5679
X0.4941Y-4.3279
X0.4941Y-5.0879
X0.4941Y-5.8479
X0.8181Y-0.6312
X0.8181Y-1.1562
X0.8181Y-2.1266
X0.8181Y-2.6516
X0.8181Y-3.622
X0.8181Y-4.147
X0.8181Y-5.1174
X0.8181Y-5.6424
X2.9181Y-0.6312
X2.9181Y-0.9562
X2.9181Y-1.1562
X2.9181Y-2.1266
X2.9181Y-2.4516
X2.9181Y-2.6516
X2.9181Y-3.622
X2.9181Y-3.947
X2.9181Y-4.147
X2.9181Y-5.1174
X2.9181Y-5.4424
X2.9181Y-5.6424
X3.3641Y-0.4454
X3.3641Y-1.2054
X3.3641Y-1.9654
X3.3641Y-2.7254
X3.3641Y-3.5679
X3.3641Y-4.3279
X3.3641Y-5.0879
X3.3641Y-5.8479
T3
X3.5433Y-3.0315
X3.7402Y-3.0315
T0
M30
