%TF.GenerationSoftware,KiCad,Pcbnew,(6.0.1)*%
%TF.CreationDate,2022-02-05T20:25:37-05:00*%
%TF.ProjectId,battery-board,62617474-6572-4792-9d62-6f6172642e6b,rev?*%
%TF.SameCoordinates,Original*%
%TF.FileFunction,Legend,Top*%
%TF.FilePolarity,Positive*%
%FSLAX46Y46*%
G04 Gerber Fmt 4.6, Leading zero omitted, Abs format (unit mm)*
G04 Created by KiCad (PCBNEW (6.0.1)) date 2022-02-05 20:25:37*
%MOMM*%
%LPD*%
G01*
G04 APERTURE LIST*
%ADD10C,0.381000*%
%ADD11C,0.150000*%
%ADD12C,0.300000*%
%ADD13C,0.500000*%
%ADD14C,0.120000*%
G04 APERTURE END LIST*
D10*
X28617047Y-152414571D02*
X28617047Y-154059523D01*
X28520285Y-154253047D01*
X28423523Y-154349809D01*
X28229999Y-154446571D01*
X27939714Y-154446571D01*
X27746190Y-154349809D01*
X28617047Y-153672476D02*
X28423523Y-153769238D01*
X28036476Y-153769238D01*
X27842952Y-153672476D01*
X27746190Y-153575714D01*
X27649428Y-153382190D01*
X27649428Y-152801619D01*
X27746190Y-152608095D01*
X27842952Y-152511333D01*
X28036476Y-152414571D01*
X28423523Y-152414571D01*
X28617047Y-152511333D01*
X29584666Y-153769238D02*
X29584666Y-152414571D01*
X29584666Y-151737238D02*
X29487904Y-151834000D01*
X29584666Y-151930761D01*
X29681428Y-151834000D01*
X29584666Y-151737238D01*
X29584666Y-151930761D01*
X30261999Y-152414571D02*
X31036095Y-152414571D01*
X30552285Y-151737238D02*
X30552285Y-153478952D01*
X30649047Y-153672476D01*
X30842571Y-153769238D01*
X31036095Y-153769238D01*
X31713428Y-153769238D02*
X31713428Y-151737238D01*
X32584285Y-153769238D02*
X32584285Y-152704857D01*
X32487523Y-152511333D01*
X32293999Y-152414571D01*
X32003714Y-152414571D01*
X31810190Y-152511333D01*
X31713428Y-152608095D01*
X34422761Y-152414571D02*
X34422761Y-153769238D01*
X33551904Y-152414571D02*
X33551904Y-153478952D01*
X33648666Y-153672476D01*
X33842190Y-153769238D01*
X34132476Y-153769238D01*
X34325999Y-153672476D01*
X34422761Y-153575714D01*
X35390380Y-153769238D02*
X35390380Y-151737238D01*
X35390380Y-152511333D02*
X35583904Y-152414571D01*
X35970952Y-152414571D01*
X36164476Y-152511333D01*
X36261238Y-152608095D01*
X36357999Y-152801619D01*
X36357999Y-153382190D01*
X36261238Y-153575714D01*
X36164476Y-153672476D01*
X35970952Y-153769238D01*
X35583904Y-153769238D01*
X35390380Y-153672476D01*
X37228857Y-153575714D02*
X37325619Y-153672476D01*
X37228857Y-153769238D01*
X37132095Y-153672476D01*
X37228857Y-153575714D01*
X37228857Y-153769238D01*
X39067333Y-153672476D02*
X38873809Y-153769238D01*
X38486761Y-153769238D01*
X38293238Y-153672476D01*
X38196476Y-153575714D01*
X38099714Y-153382190D01*
X38099714Y-152801619D01*
X38196476Y-152608095D01*
X38293238Y-152511333D01*
X38486761Y-152414571D01*
X38873809Y-152414571D01*
X39067333Y-152511333D01*
X40228476Y-153769238D02*
X40034952Y-153672476D01*
X39938190Y-153575714D01*
X39841428Y-153382190D01*
X39841428Y-152801619D01*
X39938190Y-152608095D01*
X40034952Y-152511333D01*
X40228476Y-152414571D01*
X40518761Y-152414571D01*
X40712285Y-152511333D01*
X40809047Y-152608095D01*
X40905809Y-152801619D01*
X40905809Y-153382190D01*
X40809047Y-153575714D01*
X40712285Y-153672476D01*
X40518761Y-153769238D01*
X40228476Y-153769238D01*
X41776666Y-153769238D02*
X41776666Y-152414571D01*
X41776666Y-152608095D02*
X41873428Y-152511333D01*
X42066952Y-152414571D01*
X42357238Y-152414571D01*
X42550761Y-152511333D01*
X42647523Y-152704857D01*
X42647523Y-153769238D01*
X42647523Y-152704857D02*
X42744285Y-152511333D01*
X42937809Y-152414571D01*
X43228095Y-152414571D01*
X43421619Y-152511333D01*
X43518380Y-152704857D01*
X43518380Y-153769238D01*
X45937428Y-151640476D02*
X44195714Y-154253047D01*
X46614761Y-153769238D02*
X46614761Y-152414571D01*
X46614761Y-152801619D02*
X46711523Y-152608095D01*
X46808285Y-152511333D01*
X47001809Y-152414571D01*
X47195333Y-152414571D01*
X48646761Y-153672476D02*
X48453238Y-153769238D01*
X48066190Y-153769238D01*
X47872666Y-153672476D01*
X47775904Y-153478952D01*
X47775904Y-152704857D01*
X47872666Y-152511333D01*
X48066190Y-152414571D01*
X48453238Y-152414571D01*
X48646761Y-152511333D01*
X48743523Y-152704857D01*
X48743523Y-152898380D01*
X47775904Y-153091904D01*
X50485238Y-152414571D02*
X50485238Y-153769238D01*
X49614380Y-152414571D02*
X49614380Y-153478952D01*
X49711142Y-153672476D01*
X49904666Y-153769238D01*
X50194952Y-153769238D01*
X50388476Y-153672476D01*
X50485238Y-153575714D01*
X51452857Y-153769238D02*
X51452857Y-151737238D01*
X51452857Y-152511333D02*
X51646380Y-152414571D01*
X52033428Y-152414571D01*
X52226952Y-152511333D01*
X52323714Y-152608095D01*
X52420476Y-152801619D01*
X52420476Y-153382190D01*
X52323714Y-153575714D01*
X52226952Y-153672476D01*
X52033428Y-153769238D01*
X51646380Y-153769238D01*
X51452857Y-153672476D01*
X54065428Y-153672476D02*
X53871904Y-153769238D01*
X53484857Y-153769238D01*
X53291333Y-153672476D01*
X53194571Y-153478952D01*
X53194571Y-152704857D01*
X53291333Y-152511333D01*
X53484857Y-152414571D01*
X53871904Y-152414571D01*
X54065428Y-152511333D01*
X54162190Y-152704857D01*
X54162190Y-152898380D01*
X53194571Y-153091904D01*
X55033047Y-152414571D02*
X55033047Y-153769238D01*
X55033047Y-152608095D02*
X55129809Y-152511333D01*
X55323333Y-152414571D01*
X55613619Y-152414571D01*
X55807142Y-152511333D01*
X55903904Y-152704857D01*
X55903904Y-153769238D01*
X56774761Y-153672476D02*
X56968285Y-153769238D01*
X57355333Y-153769238D01*
X57548857Y-153672476D01*
X57645619Y-153478952D01*
X57645619Y-153382190D01*
X57548857Y-153188666D01*
X57355333Y-153091904D01*
X57065047Y-153091904D01*
X56871523Y-152995142D01*
X56774761Y-152801619D01*
X56774761Y-152704857D01*
X56871523Y-152511333D01*
X57065047Y-152414571D01*
X57355333Y-152414571D01*
X57548857Y-152511333D01*
X58226190Y-152414571D02*
X59000285Y-152414571D01*
X58516476Y-151737238D02*
X58516476Y-153478952D01*
X58613238Y-153672476D01*
X58806761Y-153769238D01*
X59000285Y-153769238D01*
X59677619Y-153769238D02*
X59677619Y-152414571D01*
X59677619Y-152801619D02*
X59774380Y-152608095D01*
X59871142Y-152511333D01*
X60064666Y-152414571D01*
X60258190Y-152414571D01*
X62386952Y-151640476D02*
X60645238Y-154253047D01*
X62870761Y-151737238D02*
X64225428Y-151737238D01*
X62870761Y-153769238D01*
X64225428Y-153769238D01*
X65870380Y-152414571D02*
X65870380Y-153769238D01*
X64999523Y-152414571D02*
X64999523Y-153478952D01*
X65096285Y-153672476D01*
X65289809Y-153769238D01*
X65580095Y-153769238D01*
X65773619Y-153672476D01*
X65870380Y-153575714D01*
X66837999Y-153769238D02*
X66837999Y-151737238D01*
X67031523Y-152995142D02*
X67612095Y-153769238D01*
X67612095Y-152414571D02*
X66837999Y-153188666D01*
X68773238Y-153769238D02*
X68579714Y-153672476D01*
X68482952Y-153575714D01*
X68386190Y-153382190D01*
X68386190Y-152801619D01*
X68482952Y-152608095D01*
X68579714Y-152511333D01*
X68773238Y-152414571D01*
X69063523Y-152414571D01*
X69257047Y-152511333D01*
X69353809Y-152608095D01*
X69450571Y-152801619D01*
X69450571Y-153382190D01*
X69353809Y-153575714D01*
X69257047Y-153672476D01*
X69063523Y-153769238D01*
X68773238Y-153769238D01*
X33551904Y-157040758D02*
X33551904Y-155686091D01*
X33551904Y-155879615D02*
X33648666Y-155782853D01*
X33842190Y-155686091D01*
X34132476Y-155686091D01*
X34326000Y-155782853D01*
X34422761Y-155976377D01*
X34422761Y-157040758D01*
X34422761Y-155976377D02*
X34519523Y-155782853D01*
X34713047Y-155686091D01*
X35003333Y-155686091D01*
X35196857Y-155782853D01*
X35293619Y-155976377D01*
X35293619Y-157040758D01*
X37035333Y-156943996D02*
X36841809Y-157040758D01*
X36454761Y-157040758D01*
X36261238Y-156943996D01*
X36164476Y-156750472D01*
X36164476Y-155976377D01*
X36261238Y-155782853D01*
X36454761Y-155686091D01*
X36841809Y-155686091D01*
X37035333Y-155782853D01*
X37132095Y-155976377D01*
X37132095Y-156169900D01*
X36164476Y-156363424D01*
X37712666Y-155686091D02*
X38486761Y-155686091D01*
X38002952Y-155008758D02*
X38002952Y-156750472D01*
X38099714Y-156943996D01*
X38293238Y-157040758D01*
X38486761Y-157040758D01*
X40034952Y-157040758D02*
X40034952Y-155976377D01*
X39938190Y-155782853D01*
X39744666Y-155686091D01*
X39357619Y-155686091D01*
X39164095Y-155782853D01*
X40034952Y-156943996D02*
X39841428Y-157040758D01*
X39357619Y-157040758D01*
X39164095Y-156943996D01*
X39067333Y-156750472D01*
X39067333Y-156556948D01*
X39164095Y-156363424D01*
X39357619Y-156266662D01*
X39841428Y-156266662D01*
X40034952Y-156169900D01*
X41002571Y-155686091D02*
X41002571Y-157718091D01*
X41002571Y-155782853D02*
X41196095Y-155686091D01*
X41583142Y-155686091D01*
X41776666Y-155782853D01*
X41873428Y-155879615D01*
X41970190Y-156073139D01*
X41970190Y-156653710D01*
X41873428Y-156847234D01*
X41776666Y-156943996D01*
X41583142Y-157040758D01*
X41196095Y-157040758D01*
X41002571Y-156943996D01*
X42841047Y-157040758D02*
X42841047Y-155008758D01*
X43711904Y-157040758D02*
X43711904Y-155976377D01*
X43615142Y-155782853D01*
X43421619Y-155686091D01*
X43131333Y-155686091D01*
X42937809Y-155782853D01*
X42841047Y-155879615D01*
X45550380Y-157040758D02*
X45550380Y-155976377D01*
X45453619Y-155782853D01*
X45260095Y-155686091D01*
X44873047Y-155686091D01*
X44679523Y-155782853D01*
X45550380Y-156943996D02*
X45356857Y-157040758D01*
X44873047Y-157040758D01*
X44679523Y-156943996D01*
X44582761Y-156750472D01*
X44582761Y-156556948D01*
X44679523Y-156363424D01*
X44873047Y-156266662D01*
X45356857Y-156266662D01*
X45550380Y-156169900D01*
X46421238Y-156943996D02*
X46614761Y-157040758D01*
X47001809Y-157040758D01*
X47195333Y-156943996D01*
X47292095Y-156750472D01*
X47292095Y-156653710D01*
X47195333Y-156460186D01*
X47001809Y-156363424D01*
X46711523Y-156363424D01*
X46518000Y-156266662D01*
X46421238Y-156073139D01*
X46421238Y-155976377D01*
X46518000Y-155782853D01*
X46711523Y-155686091D01*
X47001809Y-155686091D01*
X47195333Y-155782853D01*
X48162952Y-157040758D02*
X48162952Y-155686091D01*
X48162952Y-155008758D02*
X48066190Y-155105520D01*
X48162952Y-155202281D01*
X48259714Y-155105520D01*
X48162952Y-155008758D01*
X48162952Y-155202281D01*
X50001428Y-156943996D02*
X49807904Y-157040758D01*
X49420857Y-157040758D01*
X49227333Y-156943996D01*
X49130571Y-156847234D01*
X49033809Y-156653710D01*
X49033809Y-156073139D01*
X49130571Y-155879615D01*
X49227333Y-155782853D01*
X49420857Y-155686091D01*
X49807904Y-155686091D01*
X50001428Y-155782853D01*
X51162571Y-157040758D02*
X50969047Y-156943996D01*
X50872285Y-156750472D01*
X50872285Y-155008758D01*
X52807523Y-157040758D02*
X52807523Y-155976377D01*
X52710761Y-155782853D01*
X52517238Y-155686091D01*
X52130190Y-155686091D01*
X51936666Y-155782853D01*
X52807523Y-156943996D02*
X52614000Y-157040758D01*
X52130190Y-157040758D01*
X51936666Y-156943996D01*
X51839904Y-156750472D01*
X51839904Y-156556948D01*
X51936666Y-156363424D01*
X52130190Y-156266662D01*
X52614000Y-156266662D01*
X52807523Y-156169900D01*
X53775142Y-157040758D02*
X53775142Y-155008758D01*
X53775142Y-155782853D02*
X53968666Y-155686091D01*
X54355714Y-155686091D01*
X54549238Y-155782853D01*
X54646000Y-155879615D01*
X54742761Y-156073139D01*
X54742761Y-156653710D01*
X54646000Y-156847234D01*
X54549238Y-156943996D01*
X54355714Y-157040758D01*
X53968666Y-157040758D01*
X53775142Y-156943996D01*
X55516857Y-156943996D02*
X55710380Y-157040758D01*
X56097428Y-157040758D01*
X56290952Y-156943996D01*
X56387714Y-156750472D01*
X56387714Y-156653710D01*
X56290952Y-156460186D01*
X56097428Y-156363424D01*
X55807142Y-156363424D01*
X55613619Y-156266662D01*
X55516857Y-156073139D01*
X55516857Y-155976377D01*
X55613619Y-155782853D01*
X55807142Y-155686091D01*
X56097428Y-155686091D01*
X56290952Y-155782853D01*
X57258571Y-156847234D02*
X57355333Y-156943996D01*
X57258571Y-157040758D01*
X57161809Y-156943996D01*
X57258571Y-156847234D01*
X57258571Y-157040758D01*
X59097047Y-156943996D02*
X58903523Y-157040758D01*
X58516476Y-157040758D01*
X58322952Y-156943996D01*
X58226190Y-156847234D01*
X58129428Y-156653710D01*
X58129428Y-156073139D01*
X58226190Y-155879615D01*
X58322952Y-155782853D01*
X58516476Y-155686091D01*
X58903523Y-155686091D01*
X59097047Y-155782853D01*
X60258190Y-157040758D02*
X60064666Y-156943996D01*
X59967904Y-156847234D01*
X59871142Y-156653710D01*
X59871142Y-156073139D01*
X59967904Y-155879615D01*
X60064666Y-155782853D01*
X60258190Y-155686091D01*
X60548476Y-155686091D01*
X60742000Y-155782853D01*
X60838761Y-155879615D01*
X60935523Y-156073139D01*
X60935523Y-156653710D01*
X60838761Y-156847234D01*
X60742000Y-156943996D01*
X60548476Y-157040758D01*
X60258190Y-157040758D01*
X61806380Y-157040758D02*
X61806380Y-155686091D01*
X61806380Y-155879615D02*
X61903142Y-155782853D01*
X62096666Y-155686091D01*
X62386952Y-155686091D01*
X62580476Y-155782853D01*
X62677238Y-155976377D01*
X62677238Y-157040758D01*
X62677238Y-155976377D02*
X62774000Y-155782853D01*
X62967523Y-155686091D01*
X63257809Y-155686091D01*
X63451333Y-155782853D01*
X63548095Y-155976377D01*
X63548095Y-157040758D01*
X31694000Y-2951478D02*
X33048666Y-2951478D01*
X31694000Y-4983478D01*
X33048666Y-4983478D01*
X34693619Y-3628811D02*
X34693619Y-4983478D01*
X33822761Y-3628811D02*
X33822761Y-4693192D01*
X33919523Y-4886716D01*
X34113047Y-4983478D01*
X34403333Y-4983478D01*
X34596857Y-4886716D01*
X34693619Y-4789954D01*
X35661238Y-4983478D02*
X35661238Y-2951478D01*
X35854761Y-4209382D02*
X36435333Y-4983478D01*
X36435333Y-3628811D02*
X35661238Y-4402906D01*
X37596476Y-4983478D02*
X37402952Y-4886716D01*
X37306190Y-4789954D01*
X37209428Y-4596430D01*
X37209428Y-4015859D01*
X37306190Y-3822335D01*
X37402952Y-3725573D01*
X37596476Y-3628811D01*
X37886761Y-3628811D01*
X38080285Y-3725573D01*
X38177047Y-3822335D01*
X38273809Y-4015859D01*
X38273809Y-4596430D01*
X38177047Y-4789954D01*
X38080285Y-4886716D01*
X37886761Y-4983478D01*
X37596476Y-4983478D01*
X40692857Y-4209382D02*
X42241047Y-4209382D01*
X44660095Y-4402906D02*
X45627714Y-4402906D01*
X44466571Y-4983478D02*
X45143904Y-2951478D01*
X45821238Y-4983478D01*
X49207904Y-4983478D02*
X48530571Y-4015859D01*
X48046761Y-4983478D02*
X48046761Y-2951478D01*
X48820857Y-2951478D01*
X49014380Y-3048240D01*
X49111142Y-3145001D01*
X49207904Y-3338525D01*
X49207904Y-3628811D01*
X49111142Y-3822335D01*
X49014380Y-3919097D01*
X48820857Y-4015859D01*
X48046761Y-4015859D01*
X50369047Y-4983478D02*
X50175523Y-4886716D01*
X50078761Y-4789954D01*
X49982000Y-4596430D01*
X49982000Y-4015859D01*
X50078761Y-3822335D01*
X50175523Y-3725573D01*
X50369047Y-3628811D01*
X50659333Y-3628811D01*
X50852857Y-3725573D01*
X50949619Y-3822335D01*
X51046380Y-4015859D01*
X51046380Y-4596430D01*
X50949619Y-4789954D01*
X50852857Y-4886716D01*
X50659333Y-4983478D01*
X50369047Y-4983478D01*
X51917238Y-4983478D02*
X51917238Y-2951478D01*
X51917238Y-3725573D02*
X52110761Y-3628811D01*
X52497809Y-3628811D01*
X52691333Y-3725573D01*
X52788095Y-3822335D01*
X52884857Y-4015859D01*
X52884857Y-4596430D01*
X52788095Y-4789954D01*
X52691333Y-4886716D01*
X52497809Y-4983478D01*
X52110761Y-4983478D01*
X51917238Y-4886716D01*
X54046000Y-4983478D02*
X53852476Y-4886716D01*
X53755714Y-4789954D01*
X53658952Y-4596430D01*
X53658952Y-4015859D01*
X53755714Y-3822335D01*
X53852476Y-3725573D01*
X54046000Y-3628811D01*
X54336285Y-3628811D01*
X54529809Y-3725573D01*
X54626571Y-3822335D01*
X54723333Y-4015859D01*
X54723333Y-4596430D01*
X54626571Y-4789954D01*
X54529809Y-4886716D01*
X54336285Y-4983478D01*
X54046000Y-4983478D01*
X55303904Y-3628811D02*
X56078000Y-3628811D01*
X55594190Y-2951478D02*
X55594190Y-4693192D01*
X55690952Y-4886716D01*
X55884476Y-4983478D01*
X56078000Y-4983478D01*
X58303523Y-4983478D02*
X58303523Y-2951478D01*
X58787333Y-2951478D01*
X59077619Y-3048240D01*
X59271142Y-3241763D01*
X59367904Y-3435287D01*
X59464666Y-3822335D01*
X59464666Y-4112620D01*
X59367904Y-4499668D01*
X59271142Y-4693192D01*
X59077619Y-4886716D01*
X58787333Y-4983478D01*
X58303523Y-4983478D01*
X60625809Y-4983478D02*
X60432285Y-4886716D01*
X60335523Y-4789954D01*
X60238761Y-4596430D01*
X60238761Y-4015859D01*
X60335523Y-3822335D01*
X60432285Y-3725573D01*
X60625809Y-3628811D01*
X60916095Y-3628811D01*
X61109619Y-3725573D01*
X61206380Y-3822335D01*
X61303142Y-4015859D01*
X61303142Y-4596430D01*
X61206380Y-4789954D01*
X61109619Y-4886716D01*
X60916095Y-4983478D01*
X60625809Y-4983478D01*
X63044857Y-3628811D02*
X63044857Y-5273763D01*
X62948095Y-5467287D01*
X62851333Y-5564049D01*
X62657809Y-5660811D01*
X62367523Y-5660811D01*
X62174000Y-5564049D01*
X63044857Y-4886716D02*
X62851333Y-4983478D01*
X62464285Y-4983478D01*
X62270761Y-4886716D01*
X62174000Y-4789954D01*
X62077238Y-4596430D01*
X62077238Y-4015859D01*
X62174000Y-3822335D01*
X62270761Y-3725573D01*
X62464285Y-3628811D01*
X62851333Y-3628811D01*
X63044857Y-3725573D01*
X64012476Y-4789954D02*
X64109238Y-4886716D01*
X64012476Y-4983478D01*
X63915714Y-4886716D01*
X64012476Y-4789954D01*
X64012476Y-4983478D01*
X64012476Y-4209382D02*
X63915714Y-3048240D01*
X64012476Y-2951478D01*
X64109238Y-3048240D01*
X64012476Y-4209382D01*
X64012476Y-2951478D01*
X26710761Y-7190617D02*
X27001047Y-7287379D01*
X27097809Y-7384140D01*
X27194571Y-7577664D01*
X27194571Y-7867950D01*
X27097809Y-8061474D01*
X27001047Y-8158236D01*
X26807523Y-8254998D01*
X26033428Y-8254998D01*
X26033428Y-6222998D01*
X26710761Y-6222998D01*
X26904285Y-6319760D01*
X27001047Y-6416521D01*
X27097809Y-6610045D01*
X27097809Y-6803569D01*
X27001047Y-6997093D01*
X26904285Y-7093855D01*
X26710761Y-7190617D01*
X26033428Y-7190617D01*
X28936285Y-8254998D02*
X28936285Y-7190617D01*
X28839523Y-6997093D01*
X28645999Y-6900331D01*
X28258952Y-6900331D01*
X28065428Y-6997093D01*
X28936285Y-8158236D02*
X28742761Y-8254998D01*
X28258952Y-8254998D01*
X28065428Y-8158236D01*
X27968666Y-7964712D01*
X27968666Y-7771188D01*
X28065428Y-7577664D01*
X28258952Y-7480902D01*
X28742761Y-7480902D01*
X28936285Y-7384140D01*
X29613619Y-6900331D02*
X30387714Y-6900331D01*
X29903904Y-6222998D02*
X29903904Y-7964712D01*
X30000666Y-8158236D01*
X30194190Y-8254998D01*
X30387714Y-8254998D01*
X30774761Y-6900331D02*
X31548857Y-6900331D01*
X31065047Y-6222998D02*
X31065047Y-7964712D01*
X31161809Y-8158236D01*
X31355333Y-8254998D01*
X31548857Y-8254998D01*
X33000285Y-8158236D02*
X32806761Y-8254998D01*
X32419714Y-8254998D01*
X32226190Y-8158236D01*
X32129428Y-7964712D01*
X32129428Y-7190617D01*
X32226190Y-6997093D01*
X32419714Y-6900331D01*
X32806761Y-6900331D01*
X33000285Y-6997093D01*
X33097047Y-7190617D01*
X33097047Y-7384140D01*
X32129428Y-7577664D01*
X33967904Y-8254998D02*
X33967904Y-6900331D01*
X33967904Y-7287379D02*
X34064666Y-7093855D01*
X34161428Y-6997093D01*
X34354952Y-6900331D01*
X34548476Y-6900331D01*
X35032285Y-6900331D02*
X35516095Y-8254998D01*
X35999904Y-6900331D02*
X35516095Y-8254998D01*
X35322571Y-8738807D01*
X35225809Y-8835569D01*
X35032285Y-8932331D01*
X38322190Y-8254998D02*
X38322190Y-6222998D01*
X38322190Y-7190617D02*
X39483333Y-7190617D01*
X39483333Y-8254998D02*
X39483333Y-6222998D01*
X40741238Y-8254998D02*
X40547714Y-8158236D01*
X40450952Y-8061474D01*
X40354190Y-7867950D01*
X40354190Y-7287379D01*
X40450952Y-7093855D01*
X40547714Y-6997093D01*
X40741238Y-6900331D01*
X41031523Y-6900331D01*
X41225047Y-6997093D01*
X41321809Y-7093855D01*
X41418571Y-7287379D01*
X41418571Y-7867950D01*
X41321809Y-8061474D01*
X41225047Y-8158236D01*
X41031523Y-8254998D01*
X40741238Y-8254998D01*
X42579714Y-8254998D02*
X42386190Y-8158236D01*
X42289428Y-7964712D01*
X42289428Y-6222998D01*
X44224666Y-8254998D02*
X44224666Y-6222998D01*
X44224666Y-8158236D02*
X44031142Y-8254998D01*
X43644095Y-8254998D01*
X43450571Y-8158236D01*
X43353809Y-8061474D01*
X43257047Y-7867950D01*
X43257047Y-7287379D01*
X43353809Y-7093855D01*
X43450571Y-6997093D01*
X43644095Y-6900331D01*
X44031142Y-6900331D01*
X44224666Y-6997093D01*
X45966380Y-8158236D02*
X45772857Y-8254998D01*
X45385809Y-8254998D01*
X45192285Y-8158236D01*
X45095523Y-7964712D01*
X45095523Y-7190617D01*
X45192285Y-6997093D01*
X45385809Y-6900331D01*
X45772857Y-6900331D01*
X45966380Y-6997093D01*
X46063142Y-7190617D01*
X46063142Y-7384140D01*
X45095523Y-7577664D01*
X46934000Y-8254998D02*
X46934000Y-6900331D01*
X46934000Y-7287379D02*
X47030761Y-7093855D01*
X47127523Y-6997093D01*
X47321047Y-6900331D01*
X47514571Y-6900331D01*
X49740095Y-7480902D02*
X51288285Y-7480902D01*
X53707333Y-6416521D02*
X53804095Y-6319760D01*
X53997619Y-6222998D01*
X54481428Y-6222998D01*
X54674952Y-6319760D01*
X54771714Y-6416521D01*
X54868476Y-6610045D01*
X54868476Y-6803569D01*
X54771714Y-7093855D01*
X53610571Y-8254998D01*
X54868476Y-8254998D01*
X56126380Y-6222998D02*
X56319904Y-6222998D01*
X56513428Y-6319760D01*
X56610190Y-6416521D01*
X56706952Y-6610045D01*
X56803714Y-6997093D01*
X56803714Y-7480902D01*
X56706952Y-7867950D01*
X56610190Y-8061474D01*
X56513428Y-8158236D01*
X56319904Y-8254998D01*
X56126380Y-8254998D01*
X55932857Y-8158236D01*
X55836095Y-8061474D01*
X55739333Y-7867950D01*
X55642571Y-7480902D01*
X55642571Y-6997093D01*
X55739333Y-6610045D01*
X55836095Y-6416521D01*
X55932857Y-6319760D01*
X56126380Y-6222998D01*
X57577809Y-6416521D02*
X57674571Y-6319760D01*
X57868095Y-6222998D01*
X58351904Y-6222998D01*
X58545428Y-6319760D01*
X58642190Y-6416521D01*
X58738952Y-6610045D01*
X58738952Y-6803569D01*
X58642190Y-7093855D01*
X57481047Y-8254998D01*
X58738952Y-8254998D01*
X59513047Y-6416521D02*
X59609809Y-6319760D01*
X59803333Y-6222998D01*
X60287142Y-6222998D01*
X60480666Y-6319760D01*
X60577428Y-6416521D01*
X60674190Y-6610045D01*
X60674190Y-6803569D01*
X60577428Y-7093855D01*
X59416285Y-8254998D01*
X60674190Y-8254998D01*
X63093238Y-7480902D02*
X64641428Y-7480902D01*
X66866952Y-6222998D02*
X67544285Y-8254998D01*
X68221619Y-6222998D01*
X68802190Y-6416521D02*
X68898952Y-6319760D01*
X69092476Y-6222998D01*
X69576285Y-6222998D01*
X69769809Y-6319760D01*
X69866571Y-6416521D01*
X69963333Y-6610045D01*
X69963333Y-6803569D01*
X69866571Y-7093855D01*
X68705428Y-8254998D01*
X69963333Y-8254998D01*
D11*
%TO.C,MOD3*%
X27836665Y-14579880D02*
X27836665Y-13579880D01*
X28169999Y-14294166D01*
X28503332Y-13579880D01*
X28503332Y-14579880D01*
X29169999Y-13579880D02*
X29360475Y-13579880D01*
X29455713Y-13627500D01*
X29550951Y-13722738D01*
X29598570Y-13913214D01*
X29598570Y-14246547D01*
X29550951Y-14437023D01*
X29455713Y-14532261D01*
X29360475Y-14579880D01*
X29169999Y-14579880D01*
X29074760Y-14532261D01*
X28979522Y-14437023D01*
X28931903Y-14246547D01*
X28931903Y-13913214D01*
X28979522Y-13722738D01*
X29074760Y-13627500D01*
X29169999Y-13579880D01*
X30027141Y-14579880D02*
X30027141Y-13579880D01*
X30265237Y-13579880D01*
X30408094Y-13627500D01*
X30503332Y-13722738D01*
X30550951Y-13817976D01*
X30598570Y-14008452D01*
X30598570Y-14151309D01*
X30550951Y-14341785D01*
X30503332Y-14437023D01*
X30408094Y-14532261D01*
X30265237Y-14579880D01*
X30027141Y-14579880D01*
X30931903Y-13579880D02*
X31550951Y-13579880D01*
X31217618Y-13960833D01*
X31360475Y-13960833D01*
X31455713Y-14008452D01*
X31503332Y-14056071D01*
X31550951Y-14151309D01*
X31550951Y-14389404D01*
X31503332Y-14484642D01*
X31455713Y-14532261D01*
X31360475Y-14579880D01*
X31074760Y-14579880D01*
X30979522Y-14532261D01*
X30931903Y-14484642D01*
D12*
X68674999Y-15889642D02*
X68960713Y-15984880D01*
X69055951Y-16080119D01*
X69151189Y-16270595D01*
X69151189Y-16556309D01*
X69055951Y-16746785D01*
X68960713Y-16842023D01*
X68770237Y-16937261D01*
X68008332Y-16937261D01*
X68008332Y-14937261D01*
X68674999Y-14937261D01*
X68865475Y-15032500D01*
X68960713Y-15127738D01*
X69055951Y-15318214D01*
X69055951Y-15508690D01*
X68960713Y-15699166D01*
X68865475Y-15794404D01*
X68674999Y-15889642D01*
X68008332Y-15889642D01*
X70008332Y-16937261D02*
X70008332Y-14937261D01*
X70674999Y-16365833D01*
X71341665Y-14937261D01*
X71341665Y-16937261D01*
D13*
X38500656Y-21758442D02*
X38500656Y-18758442D01*
X38500656Y-20187014D02*
X40214941Y-20187014D01*
X40214941Y-21758442D02*
X40214941Y-18758442D01*
X42214941Y-20329871D02*
X42214941Y-21758442D01*
X41214941Y-18758442D02*
X42214941Y-20329871D01*
X43214941Y-18758442D01*
X44072084Y-19044157D02*
X44214941Y-18901300D01*
X44500656Y-18758442D01*
X45214941Y-18758442D01*
X45500656Y-18901300D01*
X45643513Y-19044157D01*
X45786370Y-19329871D01*
X45786370Y-19615585D01*
X45643513Y-20044157D01*
X43929227Y-21758442D01*
X45786370Y-21758442D01*
X48643513Y-21758442D02*
X46929227Y-21758442D01*
X47786370Y-21758442D02*
X47786370Y-18758442D01*
X47500656Y-19187014D01*
X47214941Y-19472728D01*
X46929227Y-19615585D01*
X49786370Y-19044157D02*
X49929227Y-18901300D01*
X50214941Y-18758442D01*
X50929227Y-18758442D01*
X51214941Y-18901300D01*
X51357799Y-19044157D01*
X51500656Y-19329871D01*
X51500656Y-19615585D01*
X51357799Y-20044157D01*
X49643513Y-21758442D01*
X51500656Y-21758442D01*
X53357799Y-18758442D02*
X53643513Y-18758442D01*
X53929227Y-18901300D01*
X54072084Y-19044157D01*
X54214941Y-19329871D01*
X54357799Y-19901300D01*
X54357799Y-20615585D01*
X54214941Y-21187014D01*
X54072084Y-21472728D01*
X53929227Y-21615585D01*
X53643513Y-21758442D01*
X53357799Y-21758442D01*
X53072084Y-21615585D01*
X52929227Y-21472728D01*
X52786370Y-21187014D01*
X52643513Y-20615585D01*
X52643513Y-19901300D01*
X52786370Y-19329871D01*
X52929227Y-19044157D01*
X53072084Y-18901300D01*
X53357799Y-18758442D01*
D12*
X24129760Y-15889642D02*
X24415475Y-15984880D01*
X24510713Y-16080119D01*
X24605951Y-16270595D01*
X24605951Y-16556309D01*
X24510713Y-16746785D01*
X24415475Y-16842023D01*
X24224999Y-16937261D01*
X23463094Y-16937261D01*
X23463094Y-14937261D01*
X24129760Y-14937261D01*
X24320237Y-15032500D01*
X24415475Y-15127738D01*
X24510713Y-15318214D01*
X24510713Y-15508690D01*
X24415475Y-15699166D01*
X24320237Y-15794404D01*
X24129760Y-15889642D01*
X23463094Y-15889642D01*
X25463094Y-16175357D02*
X26986903Y-16175357D01*
X26224999Y-16937261D02*
X26224999Y-15413452D01*
D13*
X33029284Y-24200357D02*
X33172141Y-24057500D01*
X33457856Y-23914642D01*
X34172141Y-23914642D01*
X34457856Y-24057500D01*
X34600713Y-24200357D01*
X34743570Y-24486071D01*
X34743570Y-24771785D01*
X34600713Y-25200357D01*
X32886427Y-26914642D01*
X34743570Y-26914642D01*
X35886427Y-26771785D02*
X36172141Y-26914642D01*
X36743570Y-26914642D01*
X37029284Y-26771785D01*
X37172141Y-26486071D01*
X37172141Y-26343214D01*
X37029284Y-26057500D01*
X36743570Y-25914642D01*
X36314999Y-25914642D01*
X36029284Y-25771785D01*
X35886427Y-25486071D01*
X35886427Y-25343214D01*
X36029284Y-25057500D01*
X36314999Y-24914642D01*
X36743570Y-24914642D01*
X37029284Y-25057500D01*
X42172141Y-26914642D02*
X40743570Y-26914642D01*
X40743570Y-23914642D01*
X43172141Y-26914642D02*
X43172141Y-24914642D01*
X43172141Y-23914642D02*
X43029284Y-24057500D01*
X43172141Y-24200357D01*
X43314999Y-24057500D01*
X43172141Y-23914642D01*
X43172141Y-24200357D01*
X44600713Y-26914642D02*
X44600713Y-23914642D01*
X45743570Y-23914642D01*
X46029284Y-24057500D01*
X46172141Y-24200357D01*
X46314999Y-24486071D01*
X46314999Y-24914642D01*
X46172141Y-25200357D01*
X46029284Y-25343214D01*
X45743570Y-25486071D01*
X44600713Y-25486071D01*
X48029284Y-26914642D02*
X47743570Y-26771785D01*
X47600713Y-26628928D01*
X47457856Y-26343214D01*
X47457856Y-25486071D01*
X47600713Y-25200357D01*
X47743570Y-25057500D01*
X48029284Y-24914642D01*
X48457856Y-24914642D01*
X48743570Y-25057500D01*
X48886427Y-25200357D01*
X49029284Y-25486071D01*
X49029284Y-26343214D01*
X48886427Y-26628928D01*
X48743570Y-26771785D01*
X48457856Y-26914642D01*
X48029284Y-26914642D01*
X53600713Y-25343214D02*
X54029284Y-25486071D01*
X54172141Y-25628928D01*
X54314999Y-25914642D01*
X54314999Y-26343214D01*
X54172141Y-26628928D01*
X54029284Y-26771785D01*
X53743570Y-26914642D01*
X52600713Y-26914642D01*
X52600713Y-23914642D01*
X53600713Y-23914642D01*
X53886427Y-24057500D01*
X54029284Y-24200357D01*
X54172141Y-24486071D01*
X54172141Y-24771785D01*
X54029284Y-25057500D01*
X53886427Y-25200357D01*
X53600713Y-25343214D01*
X52600713Y-25343214D01*
X55600713Y-26914642D02*
X55600713Y-23914642D01*
X56600713Y-26057500D01*
X57600713Y-23914642D01*
X57600713Y-26914642D01*
X58886427Y-26771785D02*
X59314999Y-26914642D01*
X60029284Y-26914642D01*
X60314999Y-26771785D01*
X60457856Y-26628928D01*
X60600713Y-26343214D01*
X60600713Y-26057500D01*
X60457856Y-25771785D01*
X60314999Y-25628928D01*
X60029284Y-25486071D01*
X59457856Y-25343214D01*
X59172141Y-25200357D01*
X59029284Y-25057500D01*
X58886427Y-24771785D01*
X58886427Y-24486071D01*
X59029284Y-24200357D01*
X59172141Y-24057500D01*
X59457856Y-23914642D01*
X60172141Y-23914642D01*
X60600713Y-24057500D01*
D12*
X67913094Y-30272261D02*
X67913094Y-28272261D01*
X68674999Y-28272261D01*
X68865475Y-28367500D01*
X68960713Y-28462738D01*
X69055951Y-28653214D01*
X69055951Y-28938928D01*
X68960713Y-29129404D01*
X68865475Y-29224642D01*
X68674999Y-29319880D01*
X67913094Y-29319880D01*
X69913094Y-29510357D02*
X71436903Y-29510357D01*
X24129760Y-29224642D02*
X24415475Y-29319880D01*
X24510713Y-29415119D01*
X24605951Y-29605595D01*
X24605951Y-29891309D01*
X24510713Y-30081785D01*
X24415475Y-30177023D01*
X24224999Y-30272261D01*
X23463094Y-30272261D01*
X23463094Y-28272261D01*
X24129760Y-28272261D01*
X24320237Y-28367500D01*
X24415475Y-28462738D01*
X24510713Y-28653214D01*
X24510713Y-28843690D01*
X24415475Y-29034166D01*
X24320237Y-29129404D01*
X24129760Y-29224642D01*
X23463094Y-29224642D01*
X25463094Y-29510357D02*
X26986903Y-29510357D01*
X67913094Y-25192261D02*
X67913094Y-23192261D01*
X68674999Y-23192261D01*
X68865475Y-23287500D01*
X68960713Y-23382738D01*
X69055951Y-23573214D01*
X69055951Y-23858928D01*
X68960713Y-24049404D01*
X68865475Y-24144642D01*
X68674999Y-24239880D01*
X67913094Y-24239880D01*
X69913094Y-24430357D02*
X71436903Y-24430357D01*
X70674999Y-25192261D02*
X70674999Y-23668452D01*
D11*
%TO.C,MOD2*%
X27836666Y-128529880D02*
X27836666Y-127529880D01*
X28170000Y-128244166D01*
X28503333Y-127529880D01*
X28503333Y-128529880D01*
X29170000Y-127529880D02*
X29360476Y-127529880D01*
X29455714Y-127577500D01*
X29550952Y-127672738D01*
X29598571Y-127863214D01*
X29598571Y-128196547D01*
X29550952Y-128387023D01*
X29455714Y-128482261D01*
X29360476Y-128529880D01*
X29170000Y-128529880D01*
X29074761Y-128482261D01*
X28979523Y-128387023D01*
X28931904Y-128196547D01*
X28931904Y-127863214D01*
X28979523Y-127672738D01*
X29074761Y-127577500D01*
X29170000Y-127529880D01*
X30027142Y-128529880D02*
X30027142Y-127529880D01*
X30265238Y-127529880D01*
X30408095Y-127577500D01*
X30503333Y-127672738D01*
X30550952Y-127767976D01*
X30598571Y-127958452D01*
X30598571Y-128101309D01*
X30550952Y-128291785D01*
X30503333Y-128387023D01*
X30408095Y-128482261D01*
X30265238Y-128529880D01*
X30027142Y-128529880D01*
X30979523Y-127625119D02*
X31027142Y-127577500D01*
X31122380Y-127529880D01*
X31360476Y-127529880D01*
X31455714Y-127577500D01*
X31503333Y-127625119D01*
X31550952Y-127720357D01*
X31550952Y-127815595D01*
X31503333Y-127958452D01*
X30931904Y-128529880D01*
X31550952Y-128529880D01*
D12*
X68675000Y-129839642D02*
X68960714Y-129934880D01*
X69055952Y-130030119D01*
X69151190Y-130220595D01*
X69151190Y-130506309D01*
X69055952Y-130696785D01*
X68960714Y-130792023D01*
X68770238Y-130887261D01*
X68008333Y-130887261D01*
X68008333Y-128887261D01*
X68675000Y-128887261D01*
X68865476Y-128982500D01*
X68960714Y-129077738D01*
X69055952Y-129268214D01*
X69055952Y-129458690D01*
X68960714Y-129649166D01*
X68865476Y-129744404D01*
X68675000Y-129839642D01*
X68008333Y-129839642D01*
X70008333Y-130887261D02*
X70008333Y-128887261D01*
X70675000Y-130315833D01*
X71341666Y-128887261D01*
X71341666Y-130887261D01*
D13*
X38500657Y-135708442D02*
X38500657Y-132708442D01*
X38500657Y-134137014D02*
X40214942Y-134137014D01*
X40214942Y-135708442D02*
X40214942Y-132708442D01*
X42214942Y-134279871D02*
X42214942Y-135708442D01*
X41214942Y-132708442D02*
X42214942Y-134279871D01*
X43214942Y-132708442D01*
X44072085Y-132994157D02*
X44214942Y-132851300D01*
X44500657Y-132708442D01*
X45214942Y-132708442D01*
X45500657Y-132851300D01*
X45643514Y-132994157D01*
X45786371Y-133279871D01*
X45786371Y-133565585D01*
X45643514Y-133994157D01*
X43929228Y-135708442D01*
X45786371Y-135708442D01*
X48643514Y-135708442D02*
X46929228Y-135708442D01*
X47786371Y-135708442D02*
X47786371Y-132708442D01*
X47500657Y-133137014D01*
X47214942Y-133422728D01*
X46929228Y-133565585D01*
X49786371Y-132994157D02*
X49929228Y-132851300D01*
X50214942Y-132708442D01*
X50929228Y-132708442D01*
X51214942Y-132851300D01*
X51357800Y-132994157D01*
X51500657Y-133279871D01*
X51500657Y-133565585D01*
X51357800Y-133994157D01*
X49643514Y-135708442D01*
X51500657Y-135708442D01*
X53357800Y-132708442D02*
X53643514Y-132708442D01*
X53929228Y-132851300D01*
X54072085Y-132994157D01*
X54214942Y-133279871D01*
X54357800Y-133851300D01*
X54357800Y-134565585D01*
X54214942Y-135137014D01*
X54072085Y-135422728D01*
X53929228Y-135565585D01*
X53643514Y-135708442D01*
X53357800Y-135708442D01*
X53072085Y-135565585D01*
X52929228Y-135422728D01*
X52786371Y-135137014D01*
X52643514Y-134565585D01*
X52643514Y-133851300D01*
X52786371Y-133279871D01*
X52929228Y-132994157D01*
X53072085Y-132851300D01*
X53357800Y-132708442D01*
D12*
X24129761Y-129839642D02*
X24415476Y-129934880D01*
X24510714Y-130030119D01*
X24605952Y-130220595D01*
X24605952Y-130506309D01*
X24510714Y-130696785D01*
X24415476Y-130792023D01*
X24225000Y-130887261D01*
X23463095Y-130887261D01*
X23463095Y-128887261D01*
X24129761Y-128887261D01*
X24320238Y-128982500D01*
X24415476Y-129077738D01*
X24510714Y-129268214D01*
X24510714Y-129458690D01*
X24415476Y-129649166D01*
X24320238Y-129744404D01*
X24129761Y-129839642D01*
X23463095Y-129839642D01*
X25463095Y-130125357D02*
X26986904Y-130125357D01*
X26225000Y-130887261D02*
X26225000Y-129363452D01*
D13*
X33029285Y-138150357D02*
X33172142Y-138007500D01*
X33457857Y-137864642D01*
X34172142Y-137864642D01*
X34457857Y-138007500D01*
X34600714Y-138150357D01*
X34743571Y-138436071D01*
X34743571Y-138721785D01*
X34600714Y-139150357D01*
X32886428Y-140864642D01*
X34743571Y-140864642D01*
X35886428Y-140721785D02*
X36172142Y-140864642D01*
X36743571Y-140864642D01*
X37029285Y-140721785D01*
X37172142Y-140436071D01*
X37172142Y-140293214D01*
X37029285Y-140007500D01*
X36743571Y-139864642D01*
X36315000Y-139864642D01*
X36029285Y-139721785D01*
X35886428Y-139436071D01*
X35886428Y-139293214D01*
X36029285Y-139007500D01*
X36315000Y-138864642D01*
X36743571Y-138864642D01*
X37029285Y-139007500D01*
X42172142Y-140864642D02*
X40743571Y-140864642D01*
X40743571Y-137864642D01*
X43172142Y-140864642D02*
X43172142Y-138864642D01*
X43172142Y-137864642D02*
X43029285Y-138007500D01*
X43172142Y-138150357D01*
X43315000Y-138007500D01*
X43172142Y-137864642D01*
X43172142Y-138150357D01*
X44600714Y-140864642D02*
X44600714Y-137864642D01*
X45743571Y-137864642D01*
X46029285Y-138007500D01*
X46172142Y-138150357D01*
X46315000Y-138436071D01*
X46315000Y-138864642D01*
X46172142Y-139150357D01*
X46029285Y-139293214D01*
X45743571Y-139436071D01*
X44600714Y-139436071D01*
X48029285Y-140864642D02*
X47743571Y-140721785D01*
X47600714Y-140578928D01*
X47457857Y-140293214D01*
X47457857Y-139436071D01*
X47600714Y-139150357D01*
X47743571Y-139007500D01*
X48029285Y-138864642D01*
X48457857Y-138864642D01*
X48743571Y-139007500D01*
X48886428Y-139150357D01*
X49029285Y-139436071D01*
X49029285Y-140293214D01*
X48886428Y-140578928D01*
X48743571Y-140721785D01*
X48457857Y-140864642D01*
X48029285Y-140864642D01*
X53600714Y-139293214D02*
X54029285Y-139436071D01*
X54172142Y-139578928D01*
X54315000Y-139864642D01*
X54315000Y-140293214D01*
X54172142Y-140578928D01*
X54029285Y-140721785D01*
X53743571Y-140864642D01*
X52600714Y-140864642D01*
X52600714Y-137864642D01*
X53600714Y-137864642D01*
X53886428Y-138007500D01*
X54029285Y-138150357D01*
X54172142Y-138436071D01*
X54172142Y-138721785D01*
X54029285Y-139007500D01*
X53886428Y-139150357D01*
X53600714Y-139293214D01*
X52600714Y-139293214D01*
X55600714Y-140864642D02*
X55600714Y-137864642D01*
X56600714Y-140007500D01*
X57600714Y-137864642D01*
X57600714Y-140864642D01*
X58886428Y-140721785D02*
X59315000Y-140864642D01*
X60029285Y-140864642D01*
X60315000Y-140721785D01*
X60457857Y-140578928D01*
X60600714Y-140293214D01*
X60600714Y-140007500D01*
X60457857Y-139721785D01*
X60315000Y-139578928D01*
X60029285Y-139436071D01*
X59457857Y-139293214D01*
X59172142Y-139150357D01*
X59029285Y-139007500D01*
X58886428Y-138721785D01*
X58886428Y-138436071D01*
X59029285Y-138150357D01*
X59172142Y-138007500D01*
X59457857Y-137864642D01*
X60172142Y-137864642D01*
X60600714Y-138007500D01*
D12*
X67913095Y-144222261D02*
X67913095Y-142222261D01*
X68675000Y-142222261D01*
X68865476Y-142317500D01*
X68960714Y-142412738D01*
X69055952Y-142603214D01*
X69055952Y-142888928D01*
X68960714Y-143079404D01*
X68865476Y-143174642D01*
X68675000Y-143269880D01*
X67913095Y-143269880D01*
X69913095Y-143460357D02*
X71436904Y-143460357D01*
X24129761Y-143174642D02*
X24415476Y-143269880D01*
X24510714Y-143365119D01*
X24605952Y-143555595D01*
X24605952Y-143841309D01*
X24510714Y-144031785D01*
X24415476Y-144127023D01*
X24225000Y-144222261D01*
X23463095Y-144222261D01*
X23463095Y-142222261D01*
X24129761Y-142222261D01*
X24320238Y-142317500D01*
X24415476Y-142412738D01*
X24510714Y-142603214D01*
X24510714Y-142793690D01*
X24415476Y-142984166D01*
X24320238Y-143079404D01*
X24129761Y-143174642D01*
X23463095Y-143174642D01*
X25463095Y-143460357D02*
X26986904Y-143460357D01*
X67913095Y-139142261D02*
X67913095Y-137142261D01*
X68675000Y-137142261D01*
X68865476Y-137237500D01*
X68960714Y-137332738D01*
X69055952Y-137523214D01*
X69055952Y-137808928D01*
X68960714Y-137999404D01*
X68865476Y-138094642D01*
X68675000Y-138189880D01*
X67913095Y-138189880D01*
X69913095Y-138380357D02*
X71436904Y-138380357D01*
X70675000Y-139142261D02*
X70675000Y-137618452D01*
D11*
%TO.C,MOD1*%
X27836666Y-90546546D02*
X27836666Y-89546546D01*
X28170000Y-90260832D01*
X28503333Y-89546546D01*
X28503333Y-90546546D01*
X29170000Y-89546546D02*
X29360476Y-89546546D01*
X29455714Y-89594166D01*
X29550952Y-89689404D01*
X29598571Y-89879880D01*
X29598571Y-90213213D01*
X29550952Y-90403689D01*
X29455714Y-90498927D01*
X29360476Y-90546546D01*
X29170000Y-90546546D01*
X29074761Y-90498927D01*
X28979523Y-90403689D01*
X28931904Y-90213213D01*
X28931904Y-89879880D01*
X28979523Y-89689404D01*
X29074761Y-89594166D01*
X29170000Y-89546546D01*
X30027142Y-90546546D02*
X30027142Y-89546546D01*
X30265238Y-89546546D01*
X30408095Y-89594166D01*
X30503333Y-89689404D01*
X30550952Y-89784642D01*
X30598571Y-89975118D01*
X30598571Y-90117975D01*
X30550952Y-90308451D01*
X30503333Y-90403689D01*
X30408095Y-90498927D01*
X30265238Y-90546546D01*
X30027142Y-90546546D01*
X31550952Y-90546546D02*
X30979523Y-90546546D01*
X31265238Y-90546546D02*
X31265238Y-89546546D01*
X31170000Y-89689404D01*
X31074761Y-89784642D01*
X30979523Y-89832261D01*
D12*
X68675000Y-91856308D02*
X68960714Y-91951546D01*
X69055952Y-92046785D01*
X69151190Y-92237261D01*
X69151190Y-92522975D01*
X69055952Y-92713451D01*
X68960714Y-92808689D01*
X68770238Y-92903927D01*
X68008333Y-92903927D01*
X68008333Y-90903927D01*
X68675000Y-90903927D01*
X68865476Y-90999166D01*
X68960714Y-91094404D01*
X69055952Y-91284880D01*
X69055952Y-91475356D01*
X68960714Y-91665832D01*
X68865476Y-91761070D01*
X68675000Y-91856308D01*
X68008333Y-91856308D01*
X70008333Y-92903927D02*
X70008333Y-90903927D01*
X70675000Y-92332499D01*
X71341666Y-90903927D01*
X71341666Y-92903927D01*
D13*
X38500657Y-97725108D02*
X38500657Y-94725108D01*
X38500657Y-96153680D02*
X40214942Y-96153680D01*
X40214942Y-97725108D02*
X40214942Y-94725108D01*
X42214942Y-96296537D02*
X42214942Y-97725108D01*
X41214942Y-94725108D02*
X42214942Y-96296537D01*
X43214942Y-94725108D01*
X44072085Y-95010823D02*
X44214942Y-94867966D01*
X44500657Y-94725108D01*
X45214942Y-94725108D01*
X45500657Y-94867966D01*
X45643514Y-95010823D01*
X45786371Y-95296537D01*
X45786371Y-95582251D01*
X45643514Y-96010823D01*
X43929228Y-97725108D01*
X45786371Y-97725108D01*
X48643514Y-97725108D02*
X46929228Y-97725108D01*
X47786371Y-97725108D02*
X47786371Y-94725108D01*
X47500657Y-95153680D01*
X47214942Y-95439394D01*
X46929228Y-95582251D01*
X49786371Y-95010823D02*
X49929228Y-94867966D01*
X50214942Y-94725108D01*
X50929228Y-94725108D01*
X51214942Y-94867966D01*
X51357800Y-95010823D01*
X51500657Y-95296537D01*
X51500657Y-95582251D01*
X51357800Y-96010823D01*
X49643514Y-97725108D01*
X51500657Y-97725108D01*
X53357800Y-94725108D02*
X53643514Y-94725108D01*
X53929228Y-94867966D01*
X54072085Y-95010823D01*
X54214942Y-95296537D01*
X54357800Y-95867966D01*
X54357800Y-96582251D01*
X54214942Y-97153680D01*
X54072085Y-97439394D01*
X53929228Y-97582251D01*
X53643514Y-97725108D01*
X53357800Y-97725108D01*
X53072085Y-97582251D01*
X52929228Y-97439394D01*
X52786371Y-97153680D01*
X52643514Y-96582251D01*
X52643514Y-95867966D01*
X52786371Y-95296537D01*
X52929228Y-95010823D01*
X53072085Y-94867966D01*
X53357800Y-94725108D01*
D12*
X24129761Y-91856308D02*
X24415476Y-91951546D01*
X24510714Y-92046785D01*
X24605952Y-92237261D01*
X24605952Y-92522975D01*
X24510714Y-92713451D01*
X24415476Y-92808689D01*
X24225000Y-92903927D01*
X23463095Y-92903927D01*
X23463095Y-90903927D01*
X24129761Y-90903927D01*
X24320238Y-90999166D01*
X24415476Y-91094404D01*
X24510714Y-91284880D01*
X24510714Y-91475356D01*
X24415476Y-91665832D01*
X24320238Y-91761070D01*
X24129761Y-91856308D01*
X23463095Y-91856308D01*
X25463095Y-92142023D02*
X26986904Y-92142023D01*
X26225000Y-92903927D02*
X26225000Y-91380118D01*
D13*
X33029285Y-100167023D02*
X33172142Y-100024166D01*
X33457857Y-99881308D01*
X34172142Y-99881308D01*
X34457857Y-100024166D01*
X34600714Y-100167023D01*
X34743571Y-100452737D01*
X34743571Y-100738451D01*
X34600714Y-101167023D01*
X32886428Y-102881308D01*
X34743571Y-102881308D01*
X35886428Y-102738451D02*
X36172142Y-102881308D01*
X36743571Y-102881308D01*
X37029285Y-102738451D01*
X37172142Y-102452737D01*
X37172142Y-102309880D01*
X37029285Y-102024166D01*
X36743571Y-101881308D01*
X36315000Y-101881308D01*
X36029285Y-101738451D01*
X35886428Y-101452737D01*
X35886428Y-101309880D01*
X36029285Y-101024166D01*
X36315000Y-100881308D01*
X36743571Y-100881308D01*
X37029285Y-101024166D01*
X42172142Y-102881308D02*
X40743571Y-102881308D01*
X40743571Y-99881308D01*
X43172142Y-102881308D02*
X43172142Y-100881308D01*
X43172142Y-99881308D02*
X43029285Y-100024166D01*
X43172142Y-100167023D01*
X43315000Y-100024166D01*
X43172142Y-99881308D01*
X43172142Y-100167023D01*
X44600714Y-102881308D02*
X44600714Y-99881308D01*
X45743571Y-99881308D01*
X46029285Y-100024166D01*
X46172142Y-100167023D01*
X46315000Y-100452737D01*
X46315000Y-100881308D01*
X46172142Y-101167023D01*
X46029285Y-101309880D01*
X45743571Y-101452737D01*
X44600714Y-101452737D01*
X48029285Y-102881308D02*
X47743571Y-102738451D01*
X47600714Y-102595594D01*
X47457857Y-102309880D01*
X47457857Y-101452737D01*
X47600714Y-101167023D01*
X47743571Y-101024166D01*
X48029285Y-100881308D01*
X48457857Y-100881308D01*
X48743571Y-101024166D01*
X48886428Y-101167023D01*
X49029285Y-101452737D01*
X49029285Y-102309880D01*
X48886428Y-102595594D01*
X48743571Y-102738451D01*
X48457857Y-102881308D01*
X48029285Y-102881308D01*
X53600714Y-101309880D02*
X54029285Y-101452737D01*
X54172142Y-101595594D01*
X54315000Y-101881308D01*
X54315000Y-102309880D01*
X54172142Y-102595594D01*
X54029285Y-102738451D01*
X53743571Y-102881308D01*
X52600714Y-102881308D01*
X52600714Y-99881308D01*
X53600714Y-99881308D01*
X53886428Y-100024166D01*
X54029285Y-100167023D01*
X54172142Y-100452737D01*
X54172142Y-100738451D01*
X54029285Y-101024166D01*
X53886428Y-101167023D01*
X53600714Y-101309880D01*
X52600714Y-101309880D01*
X55600714Y-102881308D02*
X55600714Y-99881308D01*
X56600714Y-102024166D01*
X57600714Y-99881308D01*
X57600714Y-102881308D01*
X58886428Y-102738451D02*
X59315000Y-102881308D01*
X60029285Y-102881308D01*
X60315000Y-102738451D01*
X60457857Y-102595594D01*
X60600714Y-102309880D01*
X60600714Y-102024166D01*
X60457857Y-101738451D01*
X60315000Y-101595594D01*
X60029285Y-101452737D01*
X59457857Y-101309880D01*
X59172142Y-101167023D01*
X59029285Y-101024166D01*
X58886428Y-100738451D01*
X58886428Y-100452737D01*
X59029285Y-100167023D01*
X59172142Y-100024166D01*
X59457857Y-99881308D01*
X60172142Y-99881308D01*
X60600714Y-100024166D01*
D12*
X67913095Y-106238927D02*
X67913095Y-104238927D01*
X68675000Y-104238927D01*
X68865476Y-104334166D01*
X68960714Y-104429404D01*
X69055952Y-104619880D01*
X69055952Y-104905594D01*
X68960714Y-105096070D01*
X68865476Y-105191308D01*
X68675000Y-105286546D01*
X67913095Y-105286546D01*
X69913095Y-105477023D02*
X71436904Y-105477023D01*
X24129761Y-105191308D02*
X24415476Y-105286546D01*
X24510714Y-105381785D01*
X24605952Y-105572261D01*
X24605952Y-105857975D01*
X24510714Y-106048451D01*
X24415476Y-106143689D01*
X24225000Y-106238927D01*
X23463095Y-106238927D01*
X23463095Y-104238927D01*
X24129761Y-104238927D01*
X24320238Y-104334166D01*
X24415476Y-104429404D01*
X24510714Y-104619880D01*
X24510714Y-104810356D01*
X24415476Y-105000832D01*
X24320238Y-105096070D01*
X24129761Y-105191308D01*
X23463095Y-105191308D01*
X25463095Y-105477023D02*
X26986904Y-105477023D01*
X67913095Y-101158927D02*
X67913095Y-99158927D01*
X68675000Y-99158927D01*
X68865476Y-99254166D01*
X68960714Y-99349404D01*
X69055952Y-99539880D01*
X69055952Y-99825594D01*
X68960714Y-100016070D01*
X68865476Y-100111308D01*
X68675000Y-100206546D01*
X67913095Y-100206546D01*
X69913095Y-100397023D02*
X71436904Y-100397023D01*
X70675000Y-101158927D02*
X70675000Y-99635118D01*
D11*
%TO.C,MOD4*%
X27836666Y-52563213D02*
X27836666Y-51563213D01*
X28170000Y-52277499D01*
X28503333Y-51563213D01*
X28503333Y-52563213D01*
X29170000Y-51563213D02*
X29360476Y-51563213D01*
X29455714Y-51610833D01*
X29550952Y-51706071D01*
X29598571Y-51896547D01*
X29598571Y-52229880D01*
X29550952Y-52420356D01*
X29455714Y-52515594D01*
X29360476Y-52563213D01*
X29170000Y-52563213D01*
X29074761Y-52515594D01*
X28979523Y-52420356D01*
X28931904Y-52229880D01*
X28931904Y-51896547D01*
X28979523Y-51706071D01*
X29074761Y-51610833D01*
X29170000Y-51563213D01*
X30027142Y-52563213D02*
X30027142Y-51563213D01*
X30265238Y-51563213D01*
X30408095Y-51610833D01*
X30503333Y-51706071D01*
X30550952Y-51801309D01*
X30598571Y-51991785D01*
X30598571Y-52134642D01*
X30550952Y-52325118D01*
X30503333Y-52420356D01*
X30408095Y-52515594D01*
X30265238Y-52563213D01*
X30027142Y-52563213D01*
X31455714Y-51896547D02*
X31455714Y-52563213D01*
X31217619Y-51515594D02*
X30979523Y-52229880D01*
X31598571Y-52229880D01*
D12*
X68675000Y-53872975D02*
X68960714Y-53968213D01*
X69055952Y-54063452D01*
X69151190Y-54253928D01*
X69151190Y-54539642D01*
X69055952Y-54730118D01*
X68960714Y-54825356D01*
X68770238Y-54920594D01*
X68008333Y-54920594D01*
X68008333Y-52920594D01*
X68675000Y-52920594D01*
X68865476Y-53015833D01*
X68960714Y-53111071D01*
X69055952Y-53301547D01*
X69055952Y-53492023D01*
X68960714Y-53682499D01*
X68865476Y-53777737D01*
X68675000Y-53872975D01*
X68008333Y-53872975D01*
X70008333Y-54920594D02*
X70008333Y-52920594D01*
X70675000Y-54349166D01*
X71341666Y-52920594D01*
X71341666Y-54920594D01*
D13*
X38500657Y-59741775D02*
X38500657Y-56741775D01*
X38500657Y-58170347D02*
X40214942Y-58170347D01*
X40214942Y-59741775D02*
X40214942Y-56741775D01*
X42214942Y-58313204D02*
X42214942Y-59741775D01*
X41214942Y-56741775D02*
X42214942Y-58313204D01*
X43214942Y-56741775D01*
X44072085Y-57027490D02*
X44214942Y-56884633D01*
X44500657Y-56741775D01*
X45214942Y-56741775D01*
X45500657Y-56884633D01*
X45643514Y-57027490D01*
X45786371Y-57313204D01*
X45786371Y-57598918D01*
X45643514Y-58027490D01*
X43929228Y-59741775D01*
X45786371Y-59741775D01*
X48643514Y-59741775D02*
X46929228Y-59741775D01*
X47786371Y-59741775D02*
X47786371Y-56741775D01*
X47500657Y-57170347D01*
X47214942Y-57456061D01*
X46929228Y-57598918D01*
X49786371Y-57027490D02*
X49929228Y-56884633D01*
X50214942Y-56741775D01*
X50929228Y-56741775D01*
X51214942Y-56884633D01*
X51357800Y-57027490D01*
X51500657Y-57313204D01*
X51500657Y-57598918D01*
X51357800Y-58027490D01*
X49643514Y-59741775D01*
X51500657Y-59741775D01*
X53357800Y-56741775D02*
X53643514Y-56741775D01*
X53929228Y-56884633D01*
X54072085Y-57027490D01*
X54214942Y-57313204D01*
X54357800Y-57884633D01*
X54357800Y-58598918D01*
X54214942Y-59170347D01*
X54072085Y-59456061D01*
X53929228Y-59598918D01*
X53643514Y-59741775D01*
X53357800Y-59741775D01*
X53072085Y-59598918D01*
X52929228Y-59456061D01*
X52786371Y-59170347D01*
X52643514Y-58598918D01*
X52643514Y-57884633D01*
X52786371Y-57313204D01*
X52929228Y-57027490D01*
X53072085Y-56884633D01*
X53357800Y-56741775D01*
D12*
X24129761Y-53872975D02*
X24415476Y-53968213D01*
X24510714Y-54063452D01*
X24605952Y-54253928D01*
X24605952Y-54539642D01*
X24510714Y-54730118D01*
X24415476Y-54825356D01*
X24225000Y-54920594D01*
X23463095Y-54920594D01*
X23463095Y-52920594D01*
X24129761Y-52920594D01*
X24320238Y-53015833D01*
X24415476Y-53111071D01*
X24510714Y-53301547D01*
X24510714Y-53492023D01*
X24415476Y-53682499D01*
X24320238Y-53777737D01*
X24129761Y-53872975D01*
X23463095Y-53872975D01*
X25463095Y-54158690D02*
X26986904Y-54158690D01*
X26225000Y-54920594D02*
X26225000Y-53396785D01*
D13*
X33029285Y-62183690D02*
X33172142Y-62040833D01*
X33457857Y-61897975D01*
X34172142Y-61897975D01*
X34457857Y-62040833D01*
X34600714Y-62183690D01*
X34743571Y-62469404D01*
X34743571Y-62755118D01*
X34600714Y-63183690D01*
X32886428Y-64897975D01*
X34743571Y-64897975D01*
X35886428Y-64755118D02*
X36172142Y-64897975D01*
X36743571Y-64897975D01*
X37029285Y-64755118D01*
X37172142Y-64469404D01*
X37172142Y-64326547D01*
X37029285Y-64040833D01*
X36743571Y-63897975D01*
X36315000Y-63897975D01*
X36029285Y-63755118D01*
X35886428Y-63469404D01*
X35886428Y-63326547D01*
X36029285Y-63040833D01*
X36315000Y-62897975D01*
X36743571Y-62897975D01*
X37029285Y-63040833D01*
X42172142Y-64897975D02*
X40743571Y-64897975D01*
X40743571Y-61897975D01*
X43172142Y-64897975D02*
X43172142Y-62897975D01*
X43172142Y-61897975D02*
X43029285Y-62040833D01*
X43172142Y-62183690D01*
X43315000Y-62040833D01*
X43172142Y-61897975D01*
X43172142Y-62183690D01*
X44600714Y-64897975D02*
X44600714Y-61897975D01*
X45743571Y-61897975D01*
X46029285Y-62040833D01*
X46172142Y-62183690D01*
X46315000Y-62469404D01*
X46315000Y-62897975D01*
X46172142Y-63183690D01*
X46029285Y-63326547D01*
X45743571Y-63469404D01*
X44600714Y-63469404D01*
X48029285Y-64897975D02*
X47743571Y-64755118D01*
X47600714Y-64612261D01*
X47457857Y-64326547D01*
X47457857Y-63469404D01*
X47600714Y-63183690D01*
X47743571Y-63040833D01*
X48029285Y-62897975D01*
X48457857Y-62897975D01*
X48743571Y-63040833D01*
X48886428Y-63183690D01*
X49029285Y-63469404D01*
X49029285Y-64326547D01*
X48886428Y-64612261D01*
X48743571Y-64755118D01*
X48457857Y-64897975D01*
X48029285Y-64897975D01*
X53600714Y-63326547D02*
X54029285Y-63469404D01*
X54172142Y-63612261D01*
X54315000Y-63897975D01*
X54315000Y-64326547D01*
X54172142Y-64612261D01*
X54029285Y-64755118D01*
X53743571Y-64897975D01*
X52600714Y-64897975D01*
X52600714Y-61897975D01*
X53600714Y-61897975D01*
X53886428Y-62040833D01*
X54029285Y-62183690D01*
X54172142Y-62469404D01*
X54172142Y-62755118D01*
X54029285Y-63040833D01*
X53886428Y-63183690D01*
X53600714Y-63326547D01*
X52600714Y-63326547D01*
X55600714Y-64897975D02*
X55600714Y-61897975D01*
X56600714Y-64040833D01*
X57600714Y-61897975D01*
X57600714Y-64897975D01*
X58886428Y-64755118D02*
X59315000Y-64897975D01*
X60029285Y-64897975D01*
X60315000Y-64755118D01*
X60457857Y-64612261D01*
X60600714Y-64326547D01*
X60600714Y-64040833D01*
X60457857Y-63755118D01*
X60315000Y-63612261D01*
X60029285Y-63469404D01*
X59457857Y-63326547D01*
X59172142Y-63183690D01*
X59029285Y-63040833D01*
X58886428Y-62755118D01*
X58886428Y-62469404D01*
X59029285Y-62183690D01*
X59172142Y-62040833D01*
X59457857Y-61897975D01*
X60172142Y-61897975D01*
X60600714Y-62040833D01*
D12*
X67913095Y-68255594D02*
X67913095Y-66255594D01*
X68675000Y-66255594D01*
X68865476Y-66350833D01*
X68960714Y-66446071D01*
X69055952Y-66636547D01*
X69055952Y-66922261D01*
X68960714Y-67112737D01*
X68865476Y-67207975D01*
X68675000Y-67303213D01*
X67913095Y-67303213D01*
X69913095Y-67493690D02*
X71436904Y-67493690D01*
X24129761Y-67207975D02*
X24415476Y-67303213D01*
X24510714Y-67398452D01*
X24605952Y-67588928D01*
X24605952Y-67874642D01*
X24510714Y-68065118D01*
X24415476Y-68160356D01*
X24225000Y-68255594D01*
X23463095Y-68255594D01*
X23463095Y-66255594D01*
X24129761Y-66255594D01*
X24320238Y-66350833D01*
X24415476Y-66446071D01*
X24510714Y-66636547D01*
X24510714Y-66827023D01*
X24415476Y-67017499D01*
X24320238Y-67112737D01*
X24129761Y-67207975D01*
X23463095Y-67207975D01*
X25463095Y-67493690D02*
X26986904Y-67493690D01*
X67913095Y-63175594D02*
X67913095Y-61175594D01*
X68675000Y-61175594D01*
X68865476Y-61270833D01*
X68960714Y-61366071D01*
X69055952Y-61556547D01*
X69055952Y-61842261D01*
X68960714Y-62032737D01*
X68865476Y-62127975D01*
X68675000Y-62223213D01*
X67913095Y-62223213D01*
X69913095Y-62413690D02*
X71436904Y-62413690D01*
X70675000Y-63175594D02*
X70675000Y-61651785D01*
D11*
%TO.C,J2*%
X91466666Y-82302380D02*
X91466666Y-83016666D01*
X91419047Y-83159523D01*
X91323809Y-83254761D01*
X91180952Y-83302380D01*
X91085714Y-83302380D01*
X91895238Y-82397619D02*
X91942857Y-82350000D01*
X92038095Y-82302380D01*
X92276190Y-82302380D01*
X92371428Y-82350000D01*
X92419047Y-82397619D01*
X92466666Y-82492857D01*
X92466666Y-82588095D01*
X92419047Y-82730952D01*
X91847619Y-83302380D01*
X92466666Y-83302380D01*
%TO.C,J1*%
X92166666Y-72452380D02*
X92166666Y-73166666D01*
X92119047Y-73309523D01*
X92023809Y-73404761D01*
X91880952Y-73452380D01*
X91785714Y-73452380D01*
X93166666Y-73452380D02*
X92595238Y-73452380D01*
X92880952Y-73452380D02*
X92880952Y-72452380D01*
X92785714Y-72595238D01*
X92690476Y-72690476D01*
X92595238Y-72738095D01*
X89328571Y-72807142D02*
X90471428Y-72807142D01*
X94478571Y-72907142D02*
X95621428Y-72907142D01*
X95050000Y-73478571D02*
X95050000Y-72335714D01*
D14*
%TO.C,MOD3*%
X27449999Y-15170900D02*
X67449999Y-15170900D01*
X67449999Y-15170900D02*
X67449999Y-31170900D01*
X67449999Y-31170900D02*
X27449999Y-31170900D01*
X27449999Y-31170900D02*
X27449999Y-15170900D01*
%TO.C,MOD2*%
X27450000Y-129120900D02*
X67450000Y-129120900D01*
X67450000Y-129120900D02*
X67450000Y-145120900D01*
X67450000Y-145120900D02*
X27450000Y-145120900D01*
X27450000Y-145120900D02*
X27450000Y-129120900D01*
%TO.C,MOD1*%
X27450000Y-91137566D02*
X67450000Y-91137566D01*
X67450000Y-91137566D02*
X67450000Y-107137566D01*
X67450000Y-107137566D02*
X27450000Y-107137566D01*
X27450000Y-107137566D02*
X27450000Y-91137566D01*
%TO.C,MOD4*%
X27450000Y-53154233D02*
X67450000Y-53154233D01*
X67450000Y-53154233D02*
X67450000Y-69154233D01*
X67450000Y-69154233D02*
X27450000Y-69154233D01*
X27450000Y-69154233D02*
X27450000Y-53154233D01*
%TO.C,J2*%
X87720000Y-80170000D02*
X89050000Y-80170000D01*
X87720000Y-85370000D02*
X90380000Y-85370000D01*
X87720000Y-82770000D02*
X90380000Y-82770000D01*
X87720000Y-81500000D02*
X87720000Y-80170000D01*
X90380000Y-82770000D02*
X90380000Y-85370000D01*
X87720000Y-82770000D02*
X87720000Y-85370000D01*
%TO.C,J1*%
X87290000Y-75590000D02*
X87290000Y-78410000D01*
X88990000Y-74290000D02*
X97710000Y-74290000D01*
X97710000Y-74290000D02*
X97710000Y-79710000D01*
X87290000Y-75590000D02*
X88990000Y-74290000D01*
X88990000Y-79710000D02*
X97710000Y-79710000D01*
X87290000Y-78410000D02*
X88990000Y-79710000D01*
%TD*%
M02*
