%TF.GenerationSoftware,KiCad,Pcbnew,(6.0.1)*%
%TF.CreationDate,2022-02-05T20:25:37-05:00*%
%TF.ProjectId,battery-board,62617474-6572-4792-9d62-6f6172642e6b,rev?*%
%TF.SameCoordinates,Original*%
%TF.FileFunction,Copper,L1,Top*%
%TF.FilePolarity,Positive*%
%FSLAX46Y46*%
G04 Gerber Fmt 4.6, Leading zero omitted, Abs format (unit mm)*
G04 Created by KiCad (PCBNEW (6.0.1)) date 2022-02-05 20:25:37*
%MOMM*%
%LPD*%
G01*
G04 APERTURE LIST*
%TA.AperFunction,ComponentPad*%
%ADD10R,4.000000X4.000000*%
%TD*%
%TA.AperFunction,ComponentPad*%
%ADD11R,1.700000X1.700000*%
%TD*%
%TA.AperFunction,ComponentPad*%
%ADD12O,1.700000X1.700000*%
%TD*%
%TA.AperFunction,ComponentPad*%
%ADD13R,3.800000X3.800000*%
%TD*%
%TA.AperFunction,ComponentPad*%
%ADD14C,3.800000*%
%TD*%
%TA.AperFunction,ComponentPad*%
%ADD15C,4.000000*%
%TD*%
%TA.AperFunction,Conductor*%
%ADD16C,1.000000*%
%TD*%
%TA.AperFunction,Conductor*%
%ADD17C,4.000000*%
%TD*%
%TA.AperFunction,Conductor*%
%ADD18C,4.572000*%
%TD*%
G04 APERTURE END LIST*
D10*
%TO.P,MOD3,1,B+*%
%TO.N,Net-(BH2-Pad8)*%
X20779999Y-16032500D03*
%TO.P,MOD3,2,BM*%
%TO.N,Net-(BH2-Pad1)*%
X74119999Y-16032500D03*
%TO.P,MOD3,3,B-*%
%TO.N,Net-(BH2-Pad2)*%
X20779999Y-29366500D03*
%TO.P,MOD3,4,P-*%
%TO.N,-BATT*%
X74119999Y-29367500D03*
%TO.P,MOD3,5,P+*%
%TO.N,+BATT*%
X74119999Y-24287500D03*
%TD*%
%TO.P,MOD2,1,B+*%
%TO.N,Net-(BH1-Pad6)*%
X20780000Y-129982500D03*
%TO.P,MOD2,2,BM*%
%TO.N,Net-(BH1-Pad3)*%
X74120000Y-129982500D03*
%TO.P,MOD2,3,B-*%
%TO.N,Net-(BH1-Pad4)*%
X20780000Y-143316500D03*
%TO.P,MOD2,4,P-*%
%TO.N,-BATT*%
X74120000Y-143317500D03*
%TO.P,MOD2,5,P+*%
%TO.N,+BATT*%
X74120000Y-138237500D03*
%TD*%
%TO.P,MOD1,1,B+*%
%TO.N,Net-(BH1-Pad8)*%
X20780000Y-91999166D03*
%TO.P,MOD1,2,BM*%
%TO.N,Net-(BH1-Pad1)*%
X74120000Y-91999166D03*
%TO.P,MOD1,3,B-*%
%TO.N,Net-(BH1-Pad2)*%
X20780000Y-105333166D03*
%TO.P,MOD1,4,P-*%
%TO.N,-BATT*%
X74120000Y-105334166D03*
%TO.P,MOD1,5,P+*%
%TO.N,+BATT*%
X74120000Y-100254166D03*
%TD*%
%TO.P,MOD4,1,B+*%
%TO.N,Net-(BH2-Pad6)*%
X20780000Y-54015833D03*
%TO.P,MOD4,2,BM*%
%TO.N,Net-(BH2-Pad3)*%
X74120000Y-54015833D03*
%TO.P,MOD4,3,B-*%
%TO.N,Net-(BH2-Pad4)*%
X20780000Y-67349833D03*
%TO.P,MOD4,4,P-*%
%TO.N,-BATT*%
X74120000Y-67350833D03*
%TO.P,MOD4,5,P+*%
%TO.N,+BATT*%
X74120000Y-62270833D03*
%TD*%
D11*
%TO.P,J2,1,Pin_1*%
%TO.N,-BATT*%
X89050000Y-81500000D03*
D12*
%TO.P,J2,2,Pin_2*%
%TO.N,Net-(BH2-Pad4)*%
X89050000Y-84040000D03*
%TD*%
D13*
%TO.P,J1,1,Pin_1*%
%TO.N,-BATT*%
X90000000Y-77000000D03*
D14*
%TO.P,J1,2,Pin_2*%
%TO.N,+BATT*%
X95000000Y-77000000D03*
%TD*%
D15*
%TO.P,BH2,8,POS1*%
%TO.N,Net-(BH2-Pad8)*%
X12551000Y-11314000D03*
%TO.P,BH2,7,POS2*%
%TO.N,Net-(BH2-Pad1)*%
X12551000Y-30618000D03*
%TO.P,BH2,6,POS3*%
%TO.N,Net-(BH2-Pad6)*%
X12551000Y-49922000D03*
%TO.P,BH2,5,POS4*%
%TO.N,Net-(BH2-Pad3)*%
X12551000Y-69226000D03*
%TO.P,BH2,4,GND4*%
%TO.N,Net-(BH2-Pad4)*%
X85449000Y-69226000D03*
%TO.P,BH2,3,GND3*%
%TO.N,Net-(BH2-Pad3)*%
X85449000Y-49922000D03*
%TO.P,BH2,2,GND2*%
%TO.N,Net-(BH2-Pad2)*%
X85449000Y-30618000D03*
%TO.P,BH2,1,GND1*%
%TO.N,Net-(BH2-Pad1)*%
X85449000Y-11314000D03*
%TD*%
%TO.P,BH1,1,GND1*%
%TO.N,Net-(BH1-Pad1)*%
X85449000Y-90624000D03*
%TO.P,BH1,2,GND2*%
%TO.N,Net-(BH1-Pad2)*%
X85449000Y-109928000D03*
%TO.P,BH1,3,GND3*%
%TO.N,Net-(BH1-Pad3)*%
X85449000Y-129232000D03*
%TO.P,BH1,4,GND4*%
%TO.N,Net-(BH1-Pad4)*%
X85449000Y-148536000D03*
%TO.P,BH1,5,POS4*%
%TO.N,Net-(BH1-Pad3)*%
X12551000Y-148536000D03*
%TO.P,BH1,6,POS3*%
%TO.N,Net-(BH1-Pad6)*%
X12551000Y-129232000D03*
%TO.P,BH1,7,POS2*%
%TO.N,Net-(BH1-Pad1)*%
X12551000Y-109928000D03*
%TO.P,BH1,8,POS1*%
%TO.N,Net-(BH1-Pad8)*%
X12551000Y-90624000D03*
%TD*%
D16*
%TO.N,Net-(BH2-Pad4)*%
X85750000Y-77670000D02*
X82330000Y-74250000D01*
X85750000Y-83000000D02*
X85750000Y-77670000D01*
X89050000Y-84040000D02*
X86790000Y-84040000D01*
X86790000Y-84040000D02*
X85750000Y-83000000D01*
D17*
%TO.N,Net-(BH1-Pad4)*%
X50500000Y-150400000D02*
X83585000Y-150400000D01*
X47367011Y-147267011D02*
X50500000Y-150400000D01*
X83585000Y-150400000D02*
X85449000Y-148536000D01*
X24730511Y-147267011D02*
X47367011Y-147267011D01*
X20780000Y-143316500D02*
X24730511Y-147267011D01*
%TO.N,Net-(BH1-Pad3)*%
X33300000Y-136600000D02*
X16200000Y-136600000D01*
X12551000Y-140249000D02*
X12551000Y-148536000D01*
X39917500Y-129982500D02*
X33300000Y-136600000D01*
X74120000Y-129982500D02*
X39917500Y-129982500D01*
X16200000Y-136600000D02*
X12551000Y-140249000D01*
%TO.N,Net-(BH1-Pad6)*%
X13301500Y-129982500D02*
X12551000Y-129232000D01*
X20780000Y-129982500D02*
X13301500Y-129982500D01*
%TO.N,Net-(BH1-Pad3)*%
X84698500Y-129982500D02*
X85449000Y-129232000D01*
X74120000Y-129982500D02*
X84698500Y-129982500D01*
%TO.N,Net-(BH1-Pad2)*%
X84027000Y-111350000D02*
X85449000Y-109928000D01*
X51200000Y-111350000D02*
X84027000Y-111350000D01*
X45183166Y-105333166D02*
X51200000Y-111350000D01*
X20780000Y-105333166D02*
X45183166Y-105333166D01*
%TO.N,Net-(BH1-Pad1)*%
X12551000Y-105199000D02*
X12551000Y-109928000D01*
X19200000Y-98550000D02*
X12551000Y-105199000D01*
X33550000Y-98550000D02*
X19200000Y-98550000D01*
X40200000Y-91900000D02*
X33550000Y-98550000D01*
X74020834Y-91900000D02*
X40200000Y-91900000D01*
X74120000Y-91999166D02*
X74020834Y-91900000D01*
%TO.N,Net-(BH1-Pad8)*%
X13926166Y-91999166D02*
X12551000Y-90624000D01*
X20780000Y-91999166D02*
X13926166Y-91999166D01*
%TO.N,Net-(BH1-Pad1)*%
X84073834Y-91999166D02*
X85449000Y-90624000D01*
X74120000Y-91999166D02*
X84073834Y-91999166D01*
%TO.N,Net-(BH2-Pad4)*%
X85449000Y-71131000D02*
X85449000Y-69226000D01*
X82330000Y-74250000D02*
X85449000Y-71131000D01*
%TO.N,Net-(BH2-Pad3)*%
X85449000Y-51827000D02*
X85449000Y-49922000D01*
X83260167Y-54015833D02*
X85449000Y-51827000D01*
X74120000Y-54015833D02*
X83260167Y-54015833D01*
X17300000Y-60150000D02*
X12551000Y-64899000D01*
X32200000Y-60150000D02*
X17300000Y-60150000D01*
X38334167Y-54015833D02*
X32200000Y-60150000D01*
X74120000Y-54015833D02*
X38334167Y-54015833D01*
X12551000Y-64899000D02*
X12551000Y-69226000D01*
%TO.N,Net-(BH2-Pad6)*%
X14739833Y-54015833D02*
X12551000Y-51827000D01*
X12551000Y-51827000D02*
X12551000Y-49922000D01*
X20780000Y-54015833D02*
X14739833Y-54015833D01*
%TO.N,Net-(BH2-Pad1)*%
X85449000Y-13219000D02*
X85449000Y-11314000D01*
X82635500Y-16032500D02*
X85449000Y-13219000D01*
X16550000Y-23050000D02*
X28150000Y-23050000D01*
X28150000Y-23050000D02*
X35167500Y-16032500D01*
X12551000Y-27049000D02*
X16550000Y-23050000D01*
X12551000Y-30618000D02*
X12551000Y-27049000D01*
X35167500Y-16032500D02*
X82635500Y-16032500D01*
%TO.N,Net-(BH2-Pad2)*%
X85449000Y-32523000D02*
X85449000Y-30618000D01*
X81522000Y-36450000D02*
X85449000Y-32523000D01*
X47516500Y-29366500D02*
X54600000Y-36450000D01*
X54600000Y-36450000D02*
X81522000Y-36450000D01*
X20780000Y-29366500D02*
X47516500Y-29366500D01*
%TO.N,Net-(BH2-Pad8)*%
X12551000Y-11314000D02*
X16061500Y-11314000D01*
X16061500Y-11314000D02*
X20780000Y-16032500D01*
%TO.N,Net-(BH2-Pad4)*%
X62449833Y-67349833D02*
X69350000Y-74250000D01*
X20780000Y-67349833D02*
X62449833Y-67349833D01*
X69350000Y-74250000D02*
X82330000Y-74250000D01*
D18*
%TO.N,+BATT*%
X94954166Y-100254166D02*
X95000000Y-100300000D01*
X95000000Y-29550000D02*
X95000000Y-60450000D01*
X95000000Y-130100000D02*
X95000000Y-100300000D01*
X95000000Y-77000000D02*
X95000000Y-60450000D01*
X74120000Y-62270833D02*
X93179167Y-62270833D01*
X86862500Y-138237500D02*
X95000000Y-130100000D01*
X89737500Y-24287500D02*
X95000000Y-29550000D01*
X93179167Y-62270833D02*
X95000000Y-60450000D01*
X74120000Y-24287500D02*
X89737500Y-24287500D01*
X74120000Y-100254166D02*
X94954166Y-100254166D01*
X74120000Y-138237500D02*
X86862500Y-138237500D01*
X95000000Y-99900000D02*
X95000000Y-77000000D01*
%TD*%
%TA.AperFunction,Conductor*%
%TO.N,-BATT*%
G36*
X97434121Y-528002D02*
G01*
X97480614Y-581658D01*
X97492000Y-634000D01*
X97492000Y-27836972D01*
X97471998Y-27905093D01*
X97418342Y-27951586D01*
X97348068Y-27961690D01*
X97283488Y-27932196D01*
X97265173Y-27912536D01*
X97251570Y-27894385D01*
X97250268Y-27892616D01*
X97171408Y-27783476D01*
X97169393Y-27780687D01*
X97155461Y-27765267D01*
X97148136Y-27756374D01*
X97140387Y-27746035D01*
X97138184Y-27743095D01*
X97083574Y-27685648D01*
X97081407Y-27683310D01*
X97076088Y-27677423D01*
X97044644Y-27642624D01*
X97005869Y-27603849D01*
X97003643Y-27601566D01*
X96915312Y-27508647D01*
X96915311Y-27508646D01*
X96912768Y-27505971D01*
X96888824Y-27486057D01*
X96880298Y-27478278D01*
X91793189Y-22391169D01*
X91786687Y-22384155D01*
X91753631Y-22345656D01*
X91751232Y-22342862D01*
X91672581Y-22270412D01*
X91668853Y-22266833D01*
X91654112Y-22252092D01*
X91652746Y-22250877D01*
X91652730Y-22250862D01*
X91613758Y-22216200D01*
X91612128Y-22214725D01*
X91513303Y-22123692D01*
X91510597Y-22121199D01*
X91495873Y-22110521D01*
X91486110Y-22102671D01*
X91475276Y-22093035D01*
X91475273Y-22093033D01*
X91472520Y-22090584D01*
X91359331Y-22011475D01*
X91357547Y-22010205D01*
X91245744Y-21929124D01*
X91242540Y-21927330D01*
X91242528Y-21927322D01*
X91229874Y-21920236D01*
X91219258Y-21913577D01*
X91207380Y-21905275D01*
X91207378Y-21905274D01*
X91204355Y-21903161D01*
X91082734Y-21837812D01*
X91080819Y-21836762D01*
X90960290Y-21769263D01*
X90956893Y-21767853D01*
X90956888Y-21767850D01*
X90943487Y-21762286D01*
X90932180Y-21756917D01*
X90916154Y-21748306D01*
X90787669Y-21697565D01*
X90785743Y-21696785D01*
X90658135Y-21643797D01*
X90654599Y-21642793D01*
X90654596Y-21642792D01*
X90640645Y-21638831D01*
X90628780Y-21634815D01*
X90615282Y-21629485D01*
X90615283Y-21629485D01*
X90611856Y-21628132D01*
X90536784Y-21608227D01*
X90478423Y-21592752D01*
X90476303Y-21592171D01*
X90346936Y-21555442D01*
X90346928Y-21555440D01*
X90343405Y-21554440D01*
X90339780Y-21553856D01*
X90339766Y-21553853D01*
X90325444Y-21551546D01*
X90313191Y-21548942D01*
X90299182Y-21545228D01*
X90299181Y-21545228D01*
X90295614Y-21544282D01*
X90291965Y-21543759D01*
X90291958Y-21543758D01*
X90158968Y-21524713D01*
X90156793Y-21524383D01*
X90023786Y-21502959D01*
X90023776Y-21502958D01*
X90020399Y-21502414D01*
X90016980Y-21502241D01*
X90016972Y-21502240D01*
X90001492Y-21501456D01*
X89999647Y-21501363D01*
X89988162Y-21500251D01*
X89983070Y-21499522D01*
X89975404Y-21498424D01*
X89975399Y-21498424D01*
X89971750Y-21497901D01*
X89932717Y-21496913D01*
X89892517Y-21495895D01*
X89889332Y-21495774D01*
X89836153Y-21493080D01*
X89836132Y-21493079D01*
X89834563Y-21493000D01*
X89779742Y-21493000D01*
X89776554Y-21492960D01*
X89648373Y-21489715D01*
X89648367Y-21489715D01*
X89644684Y-21489622D01*
X89641007Y-21489960D01*
X89641003Y-21489960D01*
X89613679Y-21492471D01*
X89602150Y-21493000D01*
X74035998Y-21493000D01*
X73793390Y-21507201D01*
X73789764Y-21507844D01*
X73789761Y-21507844D01*
X73578825Y-21545228D01*
X73471241Y-21564295D01*
X73376689Y-21592752D01*
X73161481Y-21657522D01*
X73161478Y-21657523D01*
X73157953Y-21658584D01*
X73154573Y-21660050D01*
X73154568Y-21660052D01*
X72962248Y-21743476D01*
X72931280Y-21756909D01*
X72904344Y-21768593D01*
X72854203Y-21779000D01*
X72071865Y-21779000D01*
X72009683Y-21785755D01*
X71873294Y-21836885D01*
X71756738Y-21924239D01*
X71669384Y-22040795D01*
X71618254Y-22177184D01*
X71611499Y-22239366D01*
X71611499Y-23026141D01*
X71598407Y-23082067D01*
X71544762Y-23190370D01*
X71544756Y-23190384D01*
X71543123Y-23193681D01*
X71433105Y-23501797D01*
X71432278Y-23505394D01*
X71360611Y-23817055D01*
X71360610Y-23817064D01*
X71359786Y-23820645D01*
X71324168Y-24145869D01*
X71326738Y-24473028D01*
X71367459Y-24797653D01*
X71368339Y-24801224D01*
X71368340Y-24801227D01*
X71438443Y-25085558D01*
X71445778Y-25115310D01*
X71447072Y-25118761D01*
X71447072Y-25118762D01*
X71546981Y-25385271D01*
X71560622Y-25421660D01*
X71582698Y-25464523D01*
X71597515Y-25493292D01*
X71611499Y-25550984D01*
X71611499Y-26335634D01*
X71618254Y-26397816D01*
X71669384Y-26534205D01*
X71756738Y-26650761D01*
X71873294Y-26738115D01*
X72009683Y-26789245D01*
X72071865Y-26796000D01*
X72848676Y-26796000D01*
X72896667Y-26807044D01*
X72897210Y-26805737D01*
X73195964Y-26929791D01*
X73195967Y-26929792D01*
X73199365Y-26931203D01*
X73514095Y-27020560D01*
X73517725Y-27021145D01*
X73517731Y-27021146D01*
X73833710Y-27072040D01*
X73833713Y-27072040D01*
X73837101Y-27072586D01*
X73840525Y-27072759D01*
X73840530Y-27072760D01*
X74021349Y-27081920D01*
X74021366Y-27081920D01*
X74022937Y-27082000D01*
X88527790Y-27082000D01*
X88595911Y-27102002D01*
X88616885Y-27118905D01*
X92168595Y-30670614D01*
X92202621Y-30732926D01*
X92205500Y-30759709D01*
X92205500Y-59240290D01*
X92185498Y-59308411D01*
X92168595Y-59329385D01*
X92058552Y-59439428D01*
X91996240Y-59473454D01*
X91969457Y-59476333D01*
X74035998Y-59476333D01*
X73793390Y-59490534D01*
X73789764Y-59491177D01*
X73789761Y-59491177D01*
X73474863Y-59546986D01*
X73471241Y-59547628D01*
X73261565Y-59610733D01*
X73161481Y-59640855D01*
X73161478Y-59640856D01*
X73157953Y-59641917D01*
X73154573Y-59643383D01*
X73154568Y-59643385D01*
X72904344Y-59751926D01*
X72854203Y-59762333D01*
X72071866Y-59762333D01*
X72009684Y-59769088D01*
X71873295Y-59820218D01*
X71756739Y-59907572D01*
X71669385Y-60024128D01*
X71618255Y-60160517D01*
X71611500Y-60222699D01*
X71611500Y-61009472D01*
X71598408Y-61065398D01*
X71544762Y-61173703D01*
X71544756Y-61173717D01*
X71543123Y-61177014D01*
X71433105Y-61485130D01*
X71432278Y-61488727D01*
X71360611Y-61800388D01*
X71360610Y-61800397D01*
X71359786Y-61803978D01*
X71324168Y-62129202D01*
X71326738Y-62456361D01*
X71327197Y-62460019D01*
X71327197Y-62460021D01*
X71356724Y-62695405D01*
X71367459Y-62780986D01*
X71445778Y-63098643D01*
X71447072Y-63102094D01*
X71447072Y-63102095D01*
X71557154Y-63395741D01*
X71560622Y-63404993D01*
X71562311Y-63408272D01*
X71597516Y-63476627D01*
X71611500Y-63534319D01*
X71611500Y-64318967D01*
X71618255Y-64381149D01*
X71669385Y-64517538D01*
X71756739Y-64634094D01*
X71873295Y-64721448D01*
X72009684Y-64772578D01*
X72071866Y-64779333D01*
X72848676Y-64779333D01*
X72896667Y-64790377D01*
X72897210Y-64789070D01*
X73195964Y-64913124D01*
X73195967Y-64913125D01*
X73199365Y-64914536D01*
X73514095Y-65003893D01*
X73517725Y-65004478D01*
X73517731Y-65004479D01*
X73833710Y-65055373D01*
X73833713Y-65055373D01*
X73837101Y-65055919D01*
X73840525Y-65056092D01*
X73840530Y-65056093D01*
X74021349Y-65065253D01*
X74021366Y-65065253D01*
X74022937Y-65065333D01*
X92079500Y-65065333D01*
X92147621Y-65085335D01*
X92194114Y-65138991D01*
X92205500Y-65191333D01*
X92205500Y-97333666D01*
X92185498Y-97401787D01*
X92131842Y-97448280D01*
X92079500Y-97459666D01*
X74035998Y-97459666D01*
X73793390Y-97473867D01*
X73789764Y-97474510D01*
X73789761Y-97474510D01*
X73474863Y-97530319D01*
X73471241Y-97530961D01*
X73261565Y-97594066D01*
X73161481Y-97624188D01*
X73161478Y-97624189D01*
X73157953Y-97625250D01*
X73154573Y-97626716D01*
X73154568Y-97626718D01*
X72904344Y-97735259D01*
X72854203Y-97745666D01*
X72071866Y-97745666D01*
X72009684Y-97752421D01*
X71873295Y-97803551D01*
X71756739Y-97890905D01*
X71669385Y-98007461D01*
X71618255Y-98143850D01*
X71611500Y-98206032D01*
X71611500Y-98992805D01*
X71598408Y-99048731D01*
X71544762Y-99157036D01*
X71544756Y-99157050D01*
X71543123Y-99160347D01*
X71433105Y-99468463D01*
X71432278Y-99472060D01*
X71360611Y-99783721D01*
X71360610Y-99783730D01*
X71359786Y-99787311D01*
X71324168Y-100112535D01*
X71326738Y-100439694D01*
X71327197Y-100443352D01*
X71327197Y-100443354D01*
X71363328Y-100731383D01*
X71367459Y-100764319D01*
X71368339Y-100767890D01*
X71368340Y-100767893D01*
X71440877Y-101062096D01*
X71445778Y-101081976D01*
X71560622Y-101388326D01*
X71562311Y-101391605D01*
X71597516Y-101459960D01*
X71611500Y-101517652D01*
X71611500Y-102302300D01*
X71618255Y-102364482D01*
X71669385Y-102500871D01*
X71756739Y-102617427D01*
X71873295Y-102704781D01*
X72009684Y-102755911D01*
X72071866Y-102762666D01*
X72848676Y-102762666D01*
X72896667Y-102773710D01*
X72897210Y-102772403D01*
X73195964Y-102896457D01*
X73195967Y-102896458D01*
X73199365Y-102897869D01*
X73514095Y-102987226D01*
X73517725Y-102987811D01*
X73517731Y-102987812D01*
X73833710Y-103038706D01*
X73833713Y-103038706D01*
X73837101Y-103039252D01*
X73840525Y-103039425D01*
X73840530Y-103039426D01*
X74021349Y-103048586D01*
X74021366Y-103048586D01*
X74022937Y-103048666D01*
X92079500Y-103048666D01*
X92147621Y-103068668D01*
X92194114Y-103122324D01*
X92205500Y-103174666D01*
X92205500Y-128890290D01*
X92185498Y-128958411D01*
X92168595Y-128979385D01*
X85741885Y-135406095D01*
X85679573Y-135440121D01*
X85652790Y-135443000D01*
X74035998Y-135443000D01*
X73793390Y-135457201D01*
X73789764Y-135457844D01*
X73789761Y-135457844D01*
X73474863Y-135513653D01*
X73471241Y-135514295D01*
X73261565Y-135577400D01*
X73161481Y-135607522D01*
X73161478Y-135607523D01*
X73157953Y-135608584D01*
X73154573Y-135610050D01*
X73154568Y-135610052D01*
X72904344Y-135718593D01*
X72854203Y-135729000D01*
X72071866Y-135729000D01*
X72009684Y-135735755D01*
X71873295Y-135786885D01*
X71756739Y-135874239D01*
X71669385Y-135990795D01*
X71618255Y-136127184D01*
X71611500Y-136189366D01*
X71611500Y-136976139D01*
X71598408Y-137032065D01*
X71544762Y-137140370D01*
X71544756Y-137140384D01*
X71543123Y-137143681D01*
X71433105Y-137451797D01*
X71432278Y-137455394D01*
X71360611Y-137767055D01*
X71360610Y-137767064D01*
X71359786Y-137770645D01*
X71324168Y-138095869D01*
X71326738Y-138423028D01*
X71327197Y-138426686D01*
X71327197Y-138426688D01*
X71361091Y-138696884D01*
X71367459Y-138747653D01*
X71368339Y-138751224D01*
X71368340Y-138751227D01*
X71444566Y-139060393D01*
X71445778Y-139065310D01*
X71447072Y-139068761D01*
X71447072Y-139068762D01*
X71554413Y-139355096D01*
X71560622Y-139371660D01*
X71562311Y-139374939D01*
X71597516Y-139443294D01*
X71611500Y-139500986D01*
X71611500Y-140285634D01*
X71618255Y-140347816D01*
X71669385Y-140484205D01*
X71756739Y-140600761D01*
X71873295Y-140688115D01*
X72009684Y-140739245D01*
X72071866Y-140746000D01*
X72848676Y-140746000D01*
X72896667Y-140757044D01*
X72897210Y-140755737D01*
X73195964Y-140879791D01*
X73195967Y-140879792D01*
X73199365Y-140881203D01*
X73514095Y-140970560D01*
X73517725Y-140971145D01*
X73517731Y-140971146D01*
X73833710Y-141022040D01*
X73833713Y-141022040D01*
X73837101Y-141022586D01*
X73840525Y-141022759D01*
X73840530Y-141022760D01*
X74021349Y-141031920D01*
X74021366Y-141031920D01*
X74022937Y-141032000D01*
X86749831Y-141032000D01*
X86759388Y-141032363D01*
X86813643Y-141036490D01*
X86817324Y-141036339D01*
X86817328Y-141036339D01*
X86920471Y-141032106D01*
X86925637Y-141032000D01*
X86946502Y-141032000D01*
X87000424Y-141028844D01*
X87002612Y-141028735D01*
X87030245Y-141027601D01*
X87136861Y-141023226D01*
X87136863Y-141023226D01*
X87140537Y-141023075D01*
X87144168Y-141022497D01*
X87144175Y-141022496D01*
X87158493Y-141020216D01*
X87170941Y-141018864D01*
X87185431Y-141018015D01*
X87185441Y-141018014D01*
X87189110Y-141017799D01*
X87192721Y-141017159D01*
X87192738Y-141017157D01*
X87325100Y-140993698D01*
X87327245Y-140993336D01*
X87379501Y-140985013D01*
X87460001Y-140972192D01*
X87460007Y-140972191D01*
X87463634Y-140971613D01*
X87475422Y-140968289D01*
X87481144Y-140966675D01*
X87493348Y-140963879D01*
X87500485Y-140962615D01*
X87507626Y-140961349D01*
X87507628Y-140961349D01*
X87511259Y-140960705D01*
X87514792Y-140959642D01*
X87514795Y-140959641D01*
X87643496Y-140920906D01*
X87645608Y-140920291D01*
X87774966Y-140883808D01*
X87774965Y-140883808D01*
X87778519Y-140882806D01*
X87781924Y-140881399D01*
X87781933Y-140881396D01*
X87795343Y-140875856D01*
X87807136Y-140871657D01*
X87817873Y-140868425D01*
X87824547Y-140866416D01*
X87827930Y-140864949D01*
X87827937Y-140864946D01*
X87951182Y-140811485D01*
X87953207Y-140810627D01*
X88077490Y-140759275D01*
X88077503Y-140759269D01*
X88080893Y-140757868D01*
X88096781Y-140749007D01*
X88108005Y-140743460D01*
X88121315Y-140737686D01*
X88121318Y-140737684D01*
X88124694Y-140736220D01*
X88244078Y-140666876D01*
X88245986Y-140665790D01*
X88363410Y-140600299D01*
X88363414Y-140600296D01*
X88366626Y-140598505D01*
X88381384Y-140587842D01*
X88391877Y-140581028D01*
X88404423Y-140573741D01*
X88404429Y-140573737D01*
X88407602Y-140571894D01*
X88518115Y-140489070D01*
X88519884Y-140487768D01*
X88629024Y-140408908D01*
X88631813Y-140406893D01*
X88647233Y-140392961D01*
X88656121Y-140385640D01*
X88669405Y-140375684D01*
X88726852Y-140321074D01*
X88729190Y-140318907D01*
X88748990Y-140301016D01*
X88769876Y-140282144D01*
X88808651Y-140243369D01*
X88810934Y-140241143D01*
X88903853Y-140152812D01*
X88903854Y-140152811D01*
X88906529Y-140150268D01*
X88926443Y-140126324D01*
X88934222Y-140117798D01*
X96896324Y-132155695D01*
X96903338Y-132149193D01*
X96941844Y-132116131D01*
X96944638Y-132113732D01*
X97017100Y-132035068D01*
X97020679Y-132031340D01*
X97035408Y-132016611D01*
X97071326Y-131976226D01*
X97072733Y-131974673D01*
X97078398Y-131968523D01*
X97166301Y-131873097D01*
X97176980Y-131858372D01*
X97184828Y-131848612D01*
X97194461Y-131837781D01*
X97196917Y-131835020D01*
X97262724Y-131740863D01*
X97318142Y-131696486D01*
X97388755Y-131689115D01*
X97452144Y-131721090D01*
X97488182Y-131782260D01*
X97492000Y-131813043D01*
X97492000Y-159366000D01*
X97471998Y-159434121D01*
X97418342Y-159480614D01*
X97366000Y-159492000D01*
X634000Y-159492000D01*
X565879Y-159471998D01*
X519386Y-159418342D01*
X508000Y-159366000D01*
X508000Y-148536000D01*
X10037540Y-148536000D01*
X10057359Y-148851020D01*
X10116505Y-149161072D01*
X10117732Y-149164848D01*
X10210895Y-149451573D01*
X10214044Y-149461266D01*
X10215730Y-149464848D01*
X10215733Y-149464856D01*
X10346750Y-149743283D01*
X10346751Y-149743284D01*
X10348438Y-149746869D01*
X10517568Y-150013375D01*
X10718767Y-150256582D01*
X10948860Y-150472654D01*
X11204221Y-150658184D01*
X11480821Y-150810247D01*
X11484490Y-150811700D01*
X11484495Y-150811702D01*
X11770628Y-150924990D01*
X11774298Y-150926443D01*
X12080025Y-151004940D01*
X12393179Y-151044500D01*
X12708821Y-151044500D01*
X13021975Y-151004940D01*
X13327702Y-150926443D01*
X13331372Y-150924990D01*
X13617505Y-150811702D01*
X13617510Y-150811700D01*
X13621179Y-150810247D01*
X13897779Y-150658184D01*
X14153140Y-150472654D01*
X14383233Y-150256582D01*
X14584432Y-150013375D01*
X14753562Y-149746869D01*
X14755249Y-149743284D01*
X14755250Y-149743283D01*
X14886267Y-149464856D01*
X14886270Y-149464848D01*
X14887956Y-149461266D01*
X14891106Y-149451573D01*
X14984268Y-149164848D01*
X14985495Y-149161072D01*
X15044641Y-148851020D01*
X15064460Y-148536000D01*
X15059749Y-148461119D01*
X15059500Y-148453209D01*
X15059500Y-143395449D01*
X18267780Y-143395449D01*
X18268153Y-143399390D01*
X18270941Y-143428888D01*
X18271500Y-143440746D01*
X18271500Y-145364634D01*
X18278255Y-145426816D01*
X18329385Y-145563205D01*
X18416739Y-145679761D01*
X18533295Y-145767115D01*
X18669684Y-145818245D01*
X18731866Y-145825000D01*
X19688756Y-145825000D01*
X19756877Y-145845002D01*
X19777851Y-145861905D01*
X22927455Y-149011510D01*
X22930209Y-149014351D01*
X23009929Y-149099244D01*
X23099677Y-149173490D01*
X23102644Y-149176025D01*
X23189993Y-149253034D01*
X23217765Y-149271908D01*
X23227252Y-149279031D01*
X23250076Y-149297912D01*
X23250081Y-149297915D01*
X23253136Y-149300443D01*
X23326172Y-149346793D01*
X23351463Y-149362843D01*
X23354763Y-149365011D01*
X23451056Y-149430451D01*
X23480983Y-149445700D01*
X23491275Y-149451572D01*
X23519642Y-149469573D01*
X23523229Y-149471261D01*
X23523231Y-149471262D01*
X23624997Y-149519149D01*
X23628552Y-149520890D01*
X23728777Y-149571958D01*
X23728784Y-149571961D01*
X23732295Y-149573750D01*
X23736010Y-149575087D01*
X23736018Y-149575091D01*
X23763890Y-149585126D01*
X23774854Y-149589667D01*
X23801663Y-149602282D01*
X23801670Y-149602285D01*
X23805245Y-149603967D01*
X23916004Y-149639955D01*
X23919666Y-149641208D01*
X24029278Y-149680671D01*
X24062054Y-149687997D01*
X24073504Y-149691130D01*
X24101668Y-149700281D01*
X24101672Y-149700282D01*
X24105439Y-149701506D01*
X24195979Y-149718777D01*
X24219823Y-149723326D01*
X24223647Y-149724117D01*
X24337319Y-149749526D01*
X24370753Y-149752686D01*
X24382495Y-149754358D01*
X24402197Y-149758116D01*
X24411595Y-149759909D01*
X24411598Y-149759909D01*
X24415491Y-149760652D01*
X24489438Y-149765304D01*
X24531707Y-149767964D01*
X24535652Y-149768274D01*
X24581859Y-149772641D01*
X24651562Y-149779230D01*
X24655514Y-149779106D01*
X24655520Y-149779106D01*
X24767936Y-149775573D01*
X24771894Y-149775511D01*
X46275767Y-149775511D01*
X46343888Y-149795513D01*
X46364862Y-149812416D01*
X48696944Y-152144499D01*
X48699698Y-152147340D01*
X48779418Y-152232233D01*
X48782468Y-152234756D01*
X48782471Y-152234759D01*
X48869111Y-152306434D01*
X48872120Y-152309004D01*
X48956504Y-152383399D01*
X48956517Y-152383409D01*
X48959483Y-152386024D01*
X48962757Y-152388249D01*
X48962760Y-152388251D01*
X48987261Y-152404902D01*
X48996752Y-152412029D01*
X49022625Y-152433432D01*
X49025969Y-152435554D01*
X49120936Y-152495822D01*
X49124236Y-152497990D01*
X49220545Y-152563441D01*
X49250469Y-152578687D01*
X49260772Y-152584565D01*
X49289131Y-152602562D01*
X49292708Y-152604245D01*
X49292713Y-152604248D01*
X49354856Y-152633490D01*
X49394495Y-152652143D01*
X49397997Y-152653858D01*
X49501785Y-152706740D01*
X49533392Y-152718119D01*
X49544346Y-152722656D01*
X49574734Y-152736956D01*
X49685459Y-152772933D01*
X49689130Y-152774189D01*
X49798767Y-152813661D01*
X49802621Y-152814523D01*
X49802630Y-152814525D01*
X49821874Y-152818826D01*
X49831551Y-152820989D01*
X49843001Y-152824121D01*
X49871149Y-152833268D01*
X49871163Y-152833271D01*
X49874928Y-152834495D01*
X49878820Y-152835237D01*
X49878826Y-152835239D01*
X49959103Y-152850552D01*
X49989266Y-152856306D01*
X49993132Y-152857107D01*
X50102936Y-152881651D01*
X50102947Y-152881653D01*
X50106809Y-152882516D01*
X50140252Y-152885677D01*
X50151998Y-152887349D01*
X50184980Y-152893641D01*
X50258885Y-152898291D01*
X50301165Y-152900951D01*
X50305110Y-152901261D01*
X50351394Y-152905636D01*
X50421051Y-152912220D01*
X50425003Y-152912096D01*
X50425009Y-152912096D01*
X50537457Y-152908562D01*
X50541415Y-152908500D01*
X83543597Y-152908500D01*
X83547555Y-152908562D01*
X83659992Y-152912096D01*
X83659998Y-152912096D01*
X83663949Y-152912220D01*
X83779915Y-152901257D01*
X83783807Y-152900952D01*
X83900020Y-152893641D01*
X83903909Y-152892899D01*
X83903918Y-152892898D01*
X83933010Y-152887348D01*
X83944762Y-152885675D01*
X83945956Y-152885562D01*
X83978192Y-152882515D01*
X84091864Y-152857106D01*
X84095688Y-152856315D01*
X84119532Y-152851766D01*
X84210072Y-152834495D01*
X84213839Y-152833271D01*
X84213843Y-152833270D01*
X84242007Y-152824119D01*
X84253457Y-152820986D01*
X84286233Y-152813660D01*
X84395845Y-152774197D01*
X84399507Y-152772944D01*
X84510266Y-152736956D01*
X84513841Y-152735274D01*
X84513848Y-152735271D01*
X84540657Y-152722656D01*
X84551621Y-152718115D01*
X84579493Y-152708080D01*
X84579501Y-152708076D01*
X84583216Y-152706739D01*
X84586727Y-152704950D01*
X84586734Y-152704947D01*
X84686969Y-152653874D01*
X84690524Y-152652133D01*
X84792284Y-152604249D01*
X84792286Y-152604248D01*
X84795869Y-152602562D01*
X84824230Y-152584564D01*
X84834531Y-152578688D01*
X84850032Y-152570790D01*
X84860925Y-152565240D01*
X84860929Y-152565237D01*
X84864455Y-152563441D01*
X84867735Y-152561212D01*
X84867737Y-152561211D01*
X84960753Y-152497997D01*
X84964061Y-152495824D01*
X84964064Y-152495822D01*
X85062375Y-152433432D01*
X85065430Y-152430904D01*
X85065435Y-152430901D01*
X85088259Y-152412020D01*
X85097746Y-152404897D01*
X85125518Y-152386023D01*
X85128489Y-152383404D01*
X85128495Y-152383399D01*
X85212850Y-152309028D01*
X85215861Y-152306456D01*
X85302530Y-152234758D01*
X85302532Y-152234757D01*
X85305582Y-152232233D01*
X85385316Y-152147326D01*
X85388070Y-152144485D01*
X87193499Y-150339056D01*
X87196341Y-150336301D01*
X87278346Y-150259293D01*
X87281233Y-150256582D01*
X87355479Y-150166834D01*
X87358017Y-150163864D01*
X87432398Y-150079495D01*
X87435023Y-150076518D01*
X87453897Y-150048746D01*
X87461020Y-150039259D01*
X87479901Y-150016435D01*
X87479907Y-150016427D01*
X87482432Y-150013375D01*
X87544829Y-149915053D01*
X87546997Y-149911753D01*
X87610211Y-149818737D01*
X87610214Y-149818732D01*
X87612441Y-149815455D01*
X87627688Y-149785531D01*
X87633566Y-149775226D01*
X87649440Y-149750213D01*
X87649441Y-149750211D01*
X87651562Y-149746869D01*
X87701137Y-149641515D01*
X87702874Y-149637969D01*
X87753947Y-149537734D01*
X87753950Y-149537727D01*
X87755739Y-149534216D01*
X87757076Y-149530501D01*
X87757080Y-149530493D01*
X87767115Y-149502621D01*
X87771656Y-149491657D01*
X87784271Y-149464848D01*
X87784274Y-149464841D01*
X87785956Y-149461266D01*
X87821944Y-149350507D01*
X87823197Y-149346845D01*
X87862660Y-149237233D01*
X87869986Y-149204456D01*
X87873119Y-149193007D01*
X87882270Y-149164843D01*
X87882271Y-149164839D01*
X87883495Y-149161072D01*
X87905315Y-149046688D01*
X87906106Y-149042864D01*
X87931515Y-148929192D01*
X87934675Y-148895762D01*
X87936348Y-148884010D01*
X87941897Y-148854919D01*
X87941897Y-148854918D01*
X87942641Y-148851020D01*
X87949952Y-148734824D01*
X87950262Y-148730879D01*
X87960847Y-148618891D01*
X87961220Y-148614949D01*
X87960165Y-148581378D01*
X87960352Y-148569509D01*
X87962211Y-148539960D01*
X87962211Y-148539957D01*
X87962460Y-148536000D01*
X87955148Y-148419788D01*
X87954962Y-148415850D01*
X87951429Y-148303419D01*
X87951305Y-148299463D01*
X87946052Y-148266296D01*
X87944749Y-148254493D01*
X87942890Y-148224940D01*
X87942641Y-148220980D01*
X87920820Y-148106593D01*
X87920139Y-148102693D01*
X87902545Y-147991608D01*
X87901927Y-147987706D01*
X87892558Y-147955458D01*
X87889787Y-147943914D01*
X87884238Y-147914823D01*
X87883495Y-147910928D01*
X87879103Y-147897409D01*
X87847515Y-147800191D01*
X87846351Y-147796408D01*
X87814970Y-147688395D01*
X87813866Y-147684595D01*
X87812293Y-147680960D01*
X87800529Y-147653774D01*
X87796333Y-147642669D01*
X87787183Y-147614510D01*
X87787182Y-147614508D01*
X87785956Y-147610734D01*
X87736380Y-147505378D01*
X87734762Y-147501795D01*
X87690086Y-147398554D01*
X87690083Y-147398549D01*
X87688510Y-147394913D01*
X87671411Y-147366000D01*
X87665863Y-147355523D01*
X87651562Y-147325131D01*
X87589174Y-147226823D01*
X87587106Y-147223448D01*
X87529858Y-147126647D01*
X87529856Y-147126644D01*
X87527834Y-147123225D01*
X87507250Y-147096688D01*
X87500425Y-147086977D01*
X87484554Y-147061968D01*
X87484551Y-147061963D01*
X87482432Y-147058625D01*
X87479912Y-147055579D01*
X87479907Y-147055572D01*
X87408206Y-146968902D01*
X87405771Y-146965863D01*
X87334374Y-146873819D01*
X87310637Y-146850082D01*
X87302647Y-146841303D01*
X87283758Y-146818470D01*
X87283757Y-146818469D01*
X87281233Y-146815418D01*
X87196340Y-146735698D01*
X87193499Y-146732944D01*
X87111181Y-146650626D01*
X87084649Y-146630046D01*
X87075623Y-146622337D01*
X87054026Y-146602056D01*
X87054024Y-146602055D01*
X87051140Y-146599346D01*
X86956933Y-146530900D01*
X86953816Y-146528560D01*
X86910879Y-146495255D01*
X86864902Y-146459591D01*
X86864896Y-146459587D01*
X86861775Y-146457166D01*
X86832862Y-146440066D01*
X86822941Y-146433550D01*
X86798982Y-146416143D01*
X86798981Y-146416142D01*
X86795779Y-146413816D01*
X86792305Y-146411906D01*
X86693745Y-146357721D01*
X86690324Y-146355770D01*
X86590087Y-146296490D01*
X86559250Y-146283145D01*
X86548612Y-146277933D01*
X86540941Y-146273716D01*
X86522651Y-146263661D01*
X86522642Y-146263657D01*
X86519179Y-146261753D01*
X86410892Y-146218878D01*
X86407247Y-146217368D01*
X86300405Y-146171134D01*
X86268143Y-146161761D01*
X86256941Y-146157926D01*
X86225702Y-146145557D01*
X86221874Y-146144574D01*
X86221855Y-146144568D01*
X86112883Y-146116589D01*
X86109066Y-146115545D01*
X86001096Y-146084177D01*
X86001087Y-146084175D01*
X85997294Y-146083073D01*
X85964134Y-146077821D01*
X85952507Y-146075413D01*
X85923809Y-146068044D01*
X85923802Y-146068043D01*
X85919975Y-146067060D01*
X85804467Y-146052468D01*
X85800547Y-146051911D01*
X85689447Y-146034314D01*
X85689442Y-146034314D01*
X85685537Y-146033695D01*
X85651967Y-146032640D01*
X85640147Y-146031710D01*
X85619831Y-146029143D01*
X85610749Y-146027996D01*
X85610746Y-146027996D01*
X85606821Y-146027500D01*
X85490403Y-146027500D01*
X85486445Y-146027438D01*
X85374008Y-146023904D01*
X85374002Y-146023904D01*
X85370051Y-146023780D01*
X85336612Y-146026941D01*
X85324754Y-146027500D01*
X85291179Y-146027500D01*
X85175659Y-146042094D01*
X85171772Y-146042523D01*
X85055808Y-146053485D01*
X85051949Y-146054348D01*
X85051940Y-146054349D01*
X85023032Y-146060811D01*
X85011362Y-146062848D01*
X84978025Y-146067060D01*
X84974196Y-146068043D01*
X84974186Y-146068045D01*
X84865238Y-146096018D01*
X84861390Y-146096941D01*
X84751640Y-146121473D01*
X84751621Y-146121479D01*
X84747767Y-146122340D01*
X84744045Y-146123680D01*
X84716169Y-146133716D01*
X84704823Y-146137206D01*
X84676140Y-146144570D01*
X84676132Y-146144573D01*
X84672298Y-146145557D01*
X84668618Y-146147014D01*
X84668615Y-146147015D01*
X84564016Y-146188429D01*
X84560313Y-146189828D01*
X84454511Y-146227919D01*
X84454508Y-146227920D01*
X84450784Y-146229261D01*
X84425686Y-146242049D01*
X84420864Y-146244506D01*
X84410044Y-146249391D01*
X84378821Y-146261753D01*
X84375360Y-146263656D01*
X84375353Y-146263659D01*
X84276788Y-146317847D01*
X84273288Y-146319700D01*
X84173073Y-146370761D01*
X84173068Y-146370764D01*
X84169545Y-146372559D01*
X84141753Y-146391446D01*
X84131658Y-146397632D01*
X84102221Y-146413816D01*
X84008014Y-146482261D01*
X84004808Y-146484514D01*
X83908482Y-146549977D01*
X83883277Y-146572198D01*
X83874032Y-146579604D01*
X83846860Y-146599346D01*
X83761965Y-146679067D01*
X83759076Y-146681696D01*
X83730969Y-146706476D01*
X83704501Y-146732944D01*
X83701660Y-146735698D01*
X83616767Y-146815418D01*
X83614243Y-146818469D01*
X83614242Y-146818470D01*
X83595353Y-146841303D01*
X83587363Y-146850082D01*
X83071446Y-147366000D01*
X82582851Y-147854595D01*
X82520539Y-147888620D01*
X82493756Y-147891500D01*
X51591245Y-147891500D01*
X51523124Y-147871498D01*
X51502150Y-147854595D01*
X49170082Y-145522528D01*
X49167327Y-145519686D01*
X49090304Y-145437665D01*
X49087593Y-145434778D01*
X48997858Y-145360543D01*
X48994861Y-145357983D01*
X48910506Y-145283612D01*
X48910500Y-145283607D01*
X48907529Y-145280988D01*
X48879757Y-145262114D01*
X48870270Y-145254991D01*
X48847446Y-145236110D01*
X48847441Y-145236107D01*
X48844386Y-145233579D01*
X48746064Y-145171182D01*
X48742764Y-145169014D01*
X48649748Y-145105800D01*
X48649743Y-145105797D01*
X48646466Y-145103570D01*
X48642940Y-145101774D01*
X48642936Y-145101771D01*
X48632043Y-145096221D01*
X48616542Y-145088323D01*
X48606237Y-145082445D01*
X48581224Y-145066571D01*
X48581222Y-145066570D01*
X48577880Y-145064449D01*
X48472526Y-145014874D01*
X48468980Y-145013137D01*
X48368745Y-144962064D01*
X48368738Y-144962061D01*
X48365227Y-144960272D01*
X48361512Y-144958935D01*
X48361504Y-144958931D01*
X48333632Y-144948896D01*
X48322668Y-144944355D01*
X48295859Y-144931740D01*
X48295852Y-144931737D01*
X48292277Y-144930055D01*
X48181518Y-144894067D01*
X48177856Y-144892814D01*
X48068244Y-144853351D01*
X48035467Y-144846025D01*
X48024018Y-144842892D01*
X47995854Y-144833741D01*
X47995850Y-144833740D01*
X47992083Y-144832516D01*
X47901543Y-144815245D01*
X47877699Y-144810696D01*
X47873875Y-144809905D01*
X47760203Y-144784496D01*
X47726773Y-144781336D01*
X47715021Y-144779663D01*
X47685929Y-144774113D01*
X47685920Y-144774112D01*
X47682031Y-144773370D01*
X47565818Y-144766059D01*
X47561926Y-144765754D01*
X47445960Y-144754791D01*
X47442009Y-144754915D01*
X47442003Y-144754915D01*
X47329566Y-144758449D01*
X47325608Y-144758511D01*
X25821756Y-144758511D01*
X25753635Y-144738509D01*
X25732661Y-144721606D01*
X23325405Y-142314351D01*
X23291380Y-142252039D01*
X23288500Y-142225256D01*
X23288500Y-141268366D01*
X23281745Y-141206184D01*
X23254198Y-141132703D01*
X92890743Y-141132703D01*
X92928268Y-141417734D01*
X93004129Y-141695036D01*
X93116923Y-141959476D01*
X93264561Y-142206161D01*
X93444313Y-142430528D01*
X93652851Y-142628423D01*
X93886317Y-142796186D01*
X93890112Y-142798195D01*
X93890113Y-142798196D01*
X93911869Y-142809715D01*
X94140392Y-142930712D01*
X94410373Y-143029511D01*
X94691264Y-143090755D01*
X94719841Y-143093004D01*
X94914282Y-143108307D01*
X94914291Y-143108307D01*
X94916739Y-143108500D01*
X95072271Y-143108500D01*
X95074407Y-143108354D01*
X95074418Y-143108354D01*
X95282548Y-143094165D01*
X95282554Y-143094164D01*
X95286825Y-143093873D01*
X95291020Y-143093004D01*
X95291022Y-143093004D01*
X95427583Y-143064724D01*
X95568342Y-143035574D01*
X95839343Y-142939607D01*
X96094812Y-142807750D01*
X96098313Y-142805289D01*
X96098317Y-142805287D01*
X96212418Y-142725095D01*
X96330023Y-142642441D01*
X96540622Y-142446740D01*
X96722713Y-142224268D01*
X96872927Y-141979142D01*
X96988483Y-141715898D01*
X97067244Y-141439406D01*
X97107751Y-141154784D01*
X97107845Y-141136951D01*
X97109235Y-140871583D01*
X97109235Y-140871576D01*
X97109257Y-140867297D01*
X97102228Y-140813902D01*
X97073587Y-140596355D01*
X97071732Y-140582266D01*
X96995871Y-140304964D01*
X96929887Y-140150268D01*
X96884763Y-140044476D01*
X96884761Y-140044472D01*
X96883077Y-140040524D01*
X96792534Y-139889238D01*
X96737643Y-139797521D01*
X96737640Y-139797517D01*
X96735439Y-139793839D01*
X96555687Y-139569472D01*
X96347149Y-139371577D01*
X96113683Y-139203814D01*
X96091843Y-139192250D01*
X96068654Y-139179972D01*
X95859608Y-139069288D01*
X95696978Y-139009774D01*
X95593658Y-138971964D01*
X95593656Y-138971963D01*
X95589627Y-138970489D01*
X95308736Y-138909245D01*
X95276894Y-138906739D01*
X95085718Y-138891693D01*
X95085709Y-138891693D01*
X95083261Y-138891500D01*
X94927729Y-138891500D01*
X94925593Y-138891646D01*
X94925582Y-138891646D01*
X94717452Y-138905835D01*
X94717446Y-138905836D01*
X94713175Y-138906127D01*
X94708980Y-138906996D01*
X94708978Y-138906996D01*
X94645571Y-138920127D01*
X94431658Y-138964426D01*
X94160657Y-139060393D01*
X93905188Y-139192250D01*
X93901687Y-139194711D01*
X93901683Y-139194713D01*
X93816605Y-139254507D01*
X93669977Y-139357559D01*
X93654892Y-139371577D01*
X93469297Y-139544043D01*
X93459378Y-139553260D01*
X93277287Y-139775732D01*
X93127073Y-140020858D01*
X93125347Y-140024791D01*
X93125346Y-140024792D01*
X93013243Y-140280170D01*
X93011517Y-140284102D01*
X93010342Y-140288229D01*
X93010341Y-140288230D01*
X92991260Y-140355215D01*
X92932756Y-140560594D01*
X92907553Y-140737686D01*
X92896706Y-140813902D01*
X92892249Y-140845216D01*
X92892227Y-140849505D01*
X92892226Y-140849512D01*
X92891028Y-141078203D01*
X92890743Y-141132703D01*
X23254198Y-141132703D01*
X23230615Y-141069795D01*
X23143261Y-140953239D01*
X23026705Y-140865885D01*
X22890316Y-140814755D01*
X22828134Y-140808000D01*
X20904246Y-140808000D01*
X20892388Y-140807441D01*
X20858949Y-140804280D01*
X20854998Y-140804404D01*
X20854992Y-140804404D01*
X20742555Y-140807938D01*
X20738597Y-140808000D01*
X18731866Y-140808000D01*
X18669684Y-140814755D01*
X18533295Y-140865885D01*
X18416739Y-140953239D01*
X18329385Y-141069795D01*
X18278255Y-141206184D01*
X18271500Y-141268366D01*
X18271500Y-143275097D01*
X18271438Y-143279055D01*
X18267780Y-143395449D01*
X15059500Y-143395449D01*
X15059500Y-141340244D01*
X15079502Y-141272123D01*
X15096405Y-141251149D01*
X17202150Y-139145405D01*
X17264462Y-139111379D01*
X17291245Y-139108500D01*
X33258597Y-139108500D01*
X33262555Y-139108562D01*
X33374992Y-139112096D01*
X33374998Y-139112096D01*
X33378949Y-139112220D01*
X33494915Y-139101257D01*
X33498807Y-139100952D01*
X33615020Y-139093641D01*
X33618909Y-139092899D01*
X33618918Y-139092898D01*
X33648010Y-139087348D01*
X33659762Y-139085675D01*
X33660956Y-139085562D01*
X33693192Y-139082515D01*
X33806864Y-139057106D01*
X33810688Y-139056315D01*
X33834532Y-139051766D01*
X33925072Y-139034495D01*
X33928839Y-139033271D01*
X33928843Y-139033270D01*
X33957007Y-139024119D01*
X33968457Y-139020986D01*
X34001233Y-139013660D01*
X34110845Y-138974197D01*
X34114507Y-138972944D01*
X34225266Y-138936956D01*
X34228841Y-138935274D01*
X34228848Y-138935271D01*
X34255657Y-138922656D01*
X34266621Y-138918115D01*
X34294493Y-138908080D01*
X34294501Y-138908076D01*
X34298216Y-138906739D01*
X34301727Y-138904950D01*
X34301734Y-138904947D01*
X34401969Y-138853874D01*
X34405524Y-138852133D01*
X34507284Y-138804249D01*
X34507285Y-138804249D01*
X34510869Y-138802562D01*
X34539230Y-138784564D01*
X34549531Y-138778688D01*
X34569399Y-138768565D01*
X34575925Y-138765240D01*
X34575929Y-138765237D01*
X34579455Y-138763441D01*
X34582732Y-138761214D01*
X34582737Y-138761211D01*
X34660325Y-138708482D01*
X34675761Y-138697992D01*
X34679061Y-138695824D01*
X34777375Y-138633432D01*
X34780430Y-138630904D01*
X34780435Y-138630901D01*
X34803259Y-138612020D01*
X34812746Y-138604897D01*
X34840518Y-138586023D01*
X34843489Y-138583404D01*
X34843495Y-138583399D01*
X34927850Y-138509028D01*
X34930861Y-138506456D01*
X35017531Y-138434757D01*
X35020582Y-138432233D01*
X35100317Y-138347324D01*
X35103071Y-138344483D01*
X40919650Y-132527905D01*
X40981962Y-132493879D01*
X41008745Y-132491000D01*
X84657097Y-132491000D01*
X84661055Y-132491062D01*
X84773492Y-132494596D01*
X84773498Y-132494596D01*
X84777449Y-132494720D01*
X84893415Y-132483757D01*
X84897307Y-132483452D01*
X85013520Y-132476141D01*
X85017409Y-132475399D01*
X85017418Y-132475398D01*
X85046510Y-132469848D01*
X85058262Y-132468175D01*
X85059456Y-132468062D01*
X85091692Y-132465015D01*
X85205364Y-132439606D01*
X85209188Y-132438815D01*
X85239068Y-132433115D01*
X85323572Y-132416995D01*
X85327339Y-132415771D01*
X85327343Y-132415770D01*
X85355507Y-132406619D01*
X85366957Y-132403486D01*
X85399733Y-132396160D01*
X85509345Y-132356697D01*
X85513007Y-132355444D01*
X85623766Y-132319456D01*
X85627341Y-132317774D01*
X85627348Y-132317771D01*
X85654157Y-132305156D01*
X85665121Y-132300615D01*
X85692993Y-132290580D01*
X85693001Y-132290576D01*
X85696716Y-132289239D01*
X85700227Y-132287450D01*
X85700234Y-132287447D01*
X85800436Y-132236391D01*
X85800477Y-132236370D01*
X85804024Y-132234633D01*
X85815560Y-132229205D01*
X85909369Y-132185062D01*
X85937733Y-132167062D01*
X85948031Y-132161188D01*
X85971573Y-132149193D01*
X85974425Y-132147740D01*
X85974429Y-132147737D01*
X85977955Y-132145941D01*
X85981232Y-132143714D01*
X85981237Y-132143711D01*
X86074253Y-132080497D01*
X86077561Y-132078324D01*
X86175875Y-132015932D01*
X86178930Y-132013404D01*
X86178935Y-132013401D01*
X86201759Y-131994520D01*
X86211246Y-131987397D01*
X86239018Y-131968523D01*
X86241989Y-131965904D01*
X86241995Y-131965899D01*
X86326350Y-131891528D01*
X86329361Y-131888956D01*
X86329374Y-131888946D01*
X86419082Y-131814733D01*
X86498800Y-131729842D01*
X86501555Y-131726999D01*
X87193514Y-131035041D01*
X87196356Y-131032287D01*
X87278346Y-130955293D01*
X87281233Y-130952582D01*
X87355479Y-130862834D01*
X87358017Y-130859864D01*
X87432398Y-130775495D01*
X87435023Y-130772518D01*
X87453897Y-130744746D01*
X87461020Y-130735259D01*
X87479901Y-130712435D01*
X87479904Y-130712430D01*
X87482432Y-130709375D01*
X87544837Y-130611040D01*
X87547005Y-130607740D01*
X87610215Y-130514729D01*
X87612440Y-130511455D01*
X87627689Y-130481528D01*
X87633562Y-130471233D01*
X87651562Y-130442869D01*
X87701142Y-130337505D01*
X87702879Y-130333959D01*
X87753947Y-130233734D01*
X87753950Y-130233727D01*
X87755739Y-130230216D01*
X87757076Y-130226501D01*
X87757080Y-130226493D01*
X87767115Y-130198621D01*
X87771656Y-130187657D01*
X87784271Y-130160848D01*
X87784274Y-130160841D01*
X87785956Y-130157266D01*
X87821944Y-130046507D01*
X87823197Y-130042845D01*
X87862660Y-129933233D01*
X87869986Y-129900456D01*
X87873119Y-129889007D01*
X87882270Y-129860843D01*
X87882271Y-129860839D01*
X87883495Y-129857072D01*
X87905315Y-129742688D01*
X87906106Y-129738864D01*
X87931515Y-129625192D01*
X87934675Y-129591758D01*
X87936348Y-129580007D01*
X87941898Y-129550916D01*
X87941898Y-129550913D01*
X87942641Y-129547020D01*
X87949953Y-129430804D01*
X87950263Y-129426859D01*
X87960846Y-129314892D01*
X87960846Y-129314891D01*
X87961219Y-129310949D01*
X87960164Y-129277377D01*
X87960351Y-129265527D01*
X87962460Y-129232000D01*
X87955147Y-129115764D01*
X87954963Y-129111867D01*
X87951305Y-128995463D01*
X87950685Y-128991546D01*
X87950685Y-128991545D01*
X87946052Y-128962296D01*
X87944749Y-128950493D01*
X87942890Y-128920940D01*
X87942641Y-128916980D01*
X87941898Y-128913085D01*
X87920820Y-128802593D01*
X87920139Y-128798693D01*
X87902545Y-128687608D01*
X87901927Y-128683706D01*
X87892558Y-128651458D01*
X87889787Y-128639914D01*
X87884238Y-128610823D01*
X87883495Y-128606928D01*
X87847510Y-128496178D01*
X87846346Y-128492395D01*
X87814970Y-128384397D01*
X87813866Y-128380596D01*
X87812297Y-128376970D01*
X87812294Y-128376962D01*
X87800531Y-128349781D01*
X87796335Y-128338675D01*
X87787184Y-128310512D01*
X87787181Y-128310505D01*
X87785956Y-128306734D01*
X87784268Y-128303146D01*
X87784268Y-128303145D01*
X87736383Y-128201384D01*
X87734754Y-128197776D01*
X87690084Y-128094549D01*
X87690080Y-128094542D01*
X87688510Y-128090913D01*
X87686492Y-128087501D01*
X87671415Y-128062006D01*
X87665861Y-128051517D01*
X87653249Y-128024716D01*
X87653246Y-128024710D01*
X87651562Y-128021131D01*
X87589173Y-127922821D01*
X87587109Y-127919453D01*
X87529849Y-127822633D01*
X87529848Y-127822632D01*
X87527834Y-127819226D01*
X87525419Y-127816112D01*
X87525409Y-127816098D01*
X87507251Y-127792690D01*
X87500423Y-127782975D01*
X87484554Y-127757969D01*
X87484553Y-127757968D01*
X87482432Y-127754625D01*
X87408181Y-127664871D01*
X87405756Y-127661845D01*
X87334373Y-127569819D01*
X87310636Y-127546082D01*
X87302657Y-127537316D01*
X87281233Y-127511418D01*
X87196324Y-127431683D01*
X87193483Y-127428929D01*
X87111181Y-127346627D01*
X87084648Y-127326046D01*
X87075626Y-127318340D01*
X87075623Y-127318337D01*
X87051140Y-127295346D01*
X86956955Y-127226918D01*
X86953789Y-127224541D01*
X86864905Y-127155594D01*
X86864898Y-127155589D01*
X86861774Y-127153166D01*
X86832860Y-127136066D01*
X86822945Y-127129553D01*
X86798982Y-127112143D01*
X86798981Y-127112142D01*
X86795779Y-127109816D01*
X86792316Y-127107912D01*
X86792311Y-127107909D01*
X86693754Y-127053727D01*
X86690316Y-127051765D01*
X86593500Y-126994508D01*
X86593494Y-126994505D01*
X86590087Y-126992490D01*
X86583575Y-126989672D01*
X86559261Y-126979150D01*
X86548602Y-126973928D01*
X86522649Y-126959660D01*
X86522640Y-126959656D01*
X86519179Y-126957753D01*
X86410901Y-126914883D01*
X86407260Y-126913375D01*
X86407244Y-126913368D01*
X86300404Y-126867134D01*
X86278540Y-126860782D01*
X86268169Y-126857769D01*
X86256939Y-126853924D01*
X86229378Y-126843012D01*
X86229372Y-126843010D01*
X86225702Y-126841557D01*
X86221882Y-126840576D01*
X86221866Y-126840571D01*
X86112880Y-126812588D01*
X86109063Y-126811544D01*
X86001096Y-126780177D01*
X86001087Y-126780175D01*
X85997294Y-126779073D01*
X85964134Y-126773821D01*
X85952507Y-126771413D01*
X85923809Y-126764044D01*
X85923802Y-126764043D01*
X85919975Y-126763060D01*
X85804467Y-126748468D01*
X85800547Y-126747911D01*
X85685537Y-126729695D01*
X85670584Y-126729225D01*
X85651967Y-126728640D01*
X85640140Y-126727709D01*
X85606821Y-126723500D01*
X85490383Y-126723500D01*
X85486425Y-126723438D01*
X85374009Y-126719905D01*
X85374003Y-126719905D01*
X85370051Y-126719781D01*
X85336621Y-126722941D01*
X85324764Y-126723500D01*
X85291179Y-126723500D01*
X85287256Y-126723996D01*
X85287249Y-126723996D01*
X85175642Y-126738095D01*
X85171709Y-126738529D01*
X85141163Y-126741417D01*
X85055808Y-126749485D01*
X85051938Y-126750350D01*
X85023032Y-126756811D01*
X85011362Y-126758848D01*
X84978025Y-126763060D01*
X84974196Y-126764043D01*
X84974186Y-126764045D01*
X84865238Y-126792018D01*
X84861390Y-126792941D01*
X84751640Y-126817473D01*
X84751621Y-126817479D01*
X84747767Y-126818340D01*
X84744045Y-126819680D01*
X84716169Y-126829716D01*
X84704823Y-126833206D01*
X84676140Y-126840570D01*
X84676132Y-126840573D01*
X84672298Y-126841557D01*
X84668618Y-126843014D01*
X84668615Y-126843015D01*
X84564016Y-126884429D01*
X84560313Y-126885828D01*
X84454503Y-126923922D01*
X84450784Y-126925261D01*
X84420860Y-126940508D01*
X84410055Y-126945386D01*
X84378821Y-126957753D01*
X84276787Y-127013847D01*
X84276772Y-127013855D01*
X84273287Y-127015700D01*
X84169545Y-127068560D01*
X84166277Y-127070781D01*
X84166269Y-127070786D01*
X84141770Y-127087436D01*
X84131645Y-127093640D01*
X84105698Y-127107904D01*
X84105695Y-127107906D01*
X84102221Y-127109816D01*
X84075055Y-127129553D01*
X84008043Y-127178240D01*
X84004804Y-127180516D01*
X83911768Y-127243743D01*
X83911762Y-127243748D01*
X83908482Y-127245977D01*
X83883277Y-127268198D01*
X83874032Y-127275604D01*
X83846860Y-127295346D01*
X83761972Y-127375061D01*
X83759076Y-127377696D01*
X83730969Y-127402476D01*
X83704501Y-127428944D01*
X83701659Y-127431699D01*
X83692979Y-127439850D01*
X83629628Y-127471901D01*
X83606726Y-127474000D01*
X39958883Y-127474000D01*
X39954925Y-127473938D01*
X39842509Y-127470405D01*
X39842503Y-127470405D01*
X39838551Y-127470281D01*
X39768848Y-127476870D01*
X39722641Y-127481237D01*
X39718696Y-127481547D01*
X39676427Y-127484207D01*
X39602480Y-127488859D01*
X39598587Y-127489602D01*
X39598584Y-127489602D01*
X39589186Y-127491395D01*
X39569484Y-127495153D01*
X39557742Y-127496825D01*
X39524308Y-127499985D01*
X39410636Y-127525394D01*
X39406812Y-127526185D01*
X39382968Y-127530734D01*
X39292428Y-127548005D01*
X39288661Y-127549229D01*
X39288657Y-127549230D01*
X39260493Y-127558381D01*
X39249044Y-127561514D01*
X39216267Y-127568840D01*
X39106655Y-127608303D01*
X39102993Y-127609556D01*
X38992234Y-127645544D01*
X38988659Y-127647226D01*
X38988652Y-127647229D01*
X38961843Y-127659844D01*
X38950879Y-127664385D01*
X38923007Y-127674420D01*
X38922999Y-127674424D01*
X38919284Y-127675761D01*
X38915773Y-127677550D01*
X38915766Y-127677553D01*
X38839555Y-127716385D01*
X38815565Y-127728609D01*
X38815541Y-127728621D01*
X38811995Y-127730358D01*
X38706631Y-127779938D01*
X38686540Y-127792688D01*
X38678267Y-127797938D01*
X38667972Y-127803811D01*
X38638045Y-127819060D01*
X38634771Y-127821285D01*
X38541760Y-127884495D01*
X38538460Y-127886663D01*
X38440125Y-127949068D01*
X38437070Y-127951596D01*
X38437065Y-127951599D01*
X38414241Y-127970480D01*
X38404754Y-127977603D01*
X38376982Y-127996477D01*
X38308457Y-128056890D01*
X38289636Y-128073483D01*
X38286666Y-128076021D01*
X38196918Y-128150267D01*
X38194207Y-128153154D01*
X38117199Y-128235159D01*
X38114444Y-128238001D01*
X32297851Y-134054595D01*
X32235539Y-134088621D01*
X32208756Y-134091500D01*
X16241383Y-134091500D01*
X16237425Y-134091438D01*
X16125009Y-134087905D01*
X16125003Y-134087905D01*
X16121051Y-134087781D01*
X16051348Y-134094370D01*
X16005141Y-134098737D01*
X16001196Y-134099047D01*
X15958927Y-134101707D01*
X15884980Y-134106359D01*
X15881087Y-134107102D01*
X15881084Y-134107102D01*
X15871686Y-134108895D01*
X15851984Y-134112653D01*
X15840242Y-134114325D01*
X15806808Y-134117485D01*
X15693136Y-134142894D01*
X15689312Y-134143685D01*
X15665468Y-134148234D01*
X15574928Y-134165505D01*
X15571161Y-134166729D01*
X15571157Y-134166730D01*
X15542993Y-134175881D01*
X15531544Y-134179014D01*
X15498767Y-134186340D01*
X15389155Y-134225803D01*
X15385493Y-134227056D01*
X15274734Y-134263044D01*
X15271159Y-134264726D01*
X15271152Y-134264729D01*
X15244343Y-134277344D01*
X15233379Y-134281885D01*
X15205507Y-134291920D01*
X15205499Y-134291924D01*
X15201784Y-134293261D01*
X15198273Y-134295050D01*
X15198266Y-134295053D01*
X15098041Y-134346121D01*
X15094495Y-134347858D01*
X14989131Y-134397438D01*
X14960767Y-134415438D01*
X14950472Y-134421311D01*
X14920545Y-134436560D01*
X14917271Y-134438785D01*
X14824260Y-134501995D01*
X14820960Y-134504163D01*
X14722625Y-134566568D01*
X14719570Y-134569096D01*
X14719565Y-134569099D01*
X14696741Y-134587980D01*
X14687254Y-134595103D01*
X14659482Y-134613977D01*
X14656505Y-134616602D01*
X14572136Y-134690983D01*
X14569166Y-134693521D01*
X14479418Y-134767767D01*
X14476707Y-134770654D01*
X14399699Y-134852659D01*
X14396944Y-134855501D01*
X10806517Y-138445929D01*
X10803676Y-138448683D01*
X10718767Y-138528418D01*
X10716243Y-138531469D01*
X10644544Y-138618139D01*
X10641984Y-138621136D01*
X10629269Y-138635558D01*
X10567601Y-138705505D01*
X10567596Y-138705511D01*
X10564977Y-138708482D01*
X10562751Y-138711758D01*
X10546107Y-138736249D01*
X10538980Y-138745741D01*
X10526183Y-138761211D01*
X10517568Y-138771625D01*
X10465371Y-138853874D01*
X10455176Y-138869939D01*
X10453003Y-138873247D01*
X10391038Y-138964426D01*
X10387559Y-138969545D01*
X10385763Y-138973071D01*
X10385760Y-138973075D01*
X10380210Y-138983968D01*
X10372312Y-138999469D01*
X10366436Y-139009770D01*
X10348438Y-139038131D01*
X10313971Y-139111379D01*
X10298867Y-139143476D01*
X10297126Y-139147031D01*
X10246053Y-139247266D01*
X10246050Y-139247273D01*
X10244261Y-139250784D01*
X10242924Y-139254499D01*
X10242920Y-139254507D01*
X10232885Y-139282379D01*
X10228344Y-139293343D01*
X10215729Y-139320152D01*
X10215726Y-139320159D01*
X10214044Y-139323734D01*
X10178056Y-139434493D01*
X10176803Y-139438155D01*
X10137340Y-139547767D01*
X10132489Y-139569472D01*
X10130014Y-139580543D01*
X10126881Y-139591993D01*
X10117730Y-139620157D01*
X10116505Y-139623928D01*
X10115763Y-139627820D01*
X10094685Y-139738312D01*
X10093894Y-139742136D01*
X10068485Y-139855808D01*
X10065438Y-139888044D01*
X10065325Y-139889238D01*
X10063652Y-139900990D01*
X10058102Y-139930082D01*
X10058101Y-139930091D01*
X10057359Y-139933980D01*
X10050657Y-140040524D01*
X10050050Y-140050169D01*
X10049743Y-140054085D01*
X10038780Y-140170051D01*
X10038904Y-140174002D01*
X10038904Y-140174008D01*
X10042438Y-140286445D01*
X10042500Y-140290403D01*
X10042500Y-148453209D01*
X10042251Y-148461119D01*
X10037540Y-148536000D01*
X508000Y-148536000D01*
X508000Y-141132703D01*
X890743Y-141132703D01*
X928268Y-141417734D01*
X1004129Y-141695036D01*
X1116923Y-141959476D01*
X1264561Y-142206161D01*
X1444313Y-142430528D01*
X1652851Y-142628423D01*
X1886317Y-142796186D01*
X1890112Y-142798195D01*
X1890113Y-142798196D01*
X1911869Y-142809715D01*
X2140392Y-142930712D01*
X2410373Y-143029511D01*
X2691264Y-143090755D01*
X2719841Y-143093004D01*
X2914282Y-143108307D01*
X2914291Y-143108307D01*
X2916739Y-143108500D01*
X3072271Y-143108500D01*
X3074407Y-143108354D01*
X3074418Y-143108354D01*
X3282548Y-143094165D01*
X3282554Y-143094164D01*
X3286825Y-143093873D01*
X3291020Y-143093004D01*
X3291022Y-143093004D01*
X3427583Y-143064724D01*
X3568342Y-143035574D01*
X3839343Y-142939607D01*
X4094812Y-142807750D01*
X4098313Y-142805289D01*
X4098317Y-142805287D01*
X4212417Y-142725096D01*
X4330023Y-142642441D01*
X4540622Y-142446740D01*
X4722713Y-142224268D01*
X4872927Y-141979142D01*
X4988483Y-141715898D01*
X5067244Y-141439406D01*
X5107751Y-141154784D01*
X5107845Y-141136951D01*
X5109235Y-140871583D01*
X5109235Y-140871576D01*
X5109257Y-140867297D01*
X5102228Y-140813902D01*
X5073587Y-140596355D01*
X5071732Y-140582266D01*
X4995871Y-140304964D01*
X4929887Y-140150268D01*
X4884763Y-140044476D01*
X4884761Y-140044472D01*
X4883077Y-140040524D01*
X4792534Y-139889238D01*
X4737643Y-139797521D01*
X4737640Y-139797517D01*
X4735439Y-139793839D01*
X4555687Y-139569472D01*
X4347149Y-139371577D01*
X4113683Y-139203814D01*
X4091843Y-139192250D01*
X4068654Y-139179972D01*
X3859608Y-139069288D01*
X3696978Y-139009774D01*
X3593658Y-138971964D01*
X3593656Y-138971963D01*
X3589627Y-138970489D01*
X3308736Y-138909245D01*
X3276894Y-138906739D01*
X3085718Y-138891693D01*
X3085709Y-138891693D01*
X3083261Y-138891500D01*
X2927729Y-138891500D01*
X2925593Y-138891646D01*
X2925582Y-138891646D01*
X2717452Y-138905835D01*
X2717446Y-138905836D01*
X2713175Y-138906127D01*
X2708980Y-138906996D01*
X2708978Y-138906996D01*
X2645571Y-138920127D01*
X2431658Y-138964426D01*
X2160657Y-139060393D01*
X1905188Y-139192250D01*
X1901687Y-139194711D01*
X1901683Y-139194713D01*
X1816605Y-139254507D01*
X1669977Y-139357559D01*
X1654892Y-139371577D01*
X1469297Y-139544043D01*
X1459378Y-139553260D01*
X1277287Y-139775732D01*
X1127073Y-140020858D01*
X1125347Y-140024791D01*
X1125346Y-140024792D01*
X1013243Y-140280170D01*
X1011517Y-140284102D01*
X1010342Y-140288229D01*
X1010341Y-140288230D01*
X991260Y-140355215D01*
X932756Y-140560594D01*
X907553Y-140737686D01*
X896706Y-140813902D01*
X892249Y-140845216D01*
X892227Y-140849505D01*
X892226Y-140849512D01*
X891028Y-141078203D01*
X890743Y-141132703D01*
X508000Y-141132703D01*
X508000Y-129232000D01*
X10037540Y-129232000D01*
X10037789Y-129235955D01*
X10037789Y-129235960D01*
X10039648Y-129265509D01*
X10039835Y-129277378D01*
X10038780Y-129310949D01*
X10039153Y-129314891D01*
X10049738Y-129426879D01*
X10050048Y-129430824D01*
X10057359Y-129547020D01*
X10058103Y-129550919D01*
X10063652Y-129580010D01*
X10065325Y-129591761D01*
X10068485Y-129625192D01*
X10093894Y-129738864D01*
X10094685Y-129742688D01*
X10116505Y-129857072D01*
X10117729Y-129860839D01*
X10117730Y-129860843D01*
X10126881Y-129889007D01*
X10130014Y-129900456D01*
X10137340Y-129933233D01*
X10176803Y-130042845D01*
X10178056Y-130046507D01*
X10214044Y-130157266D01*
X10215726Y-130160841D01*
X10215729Y-130160848D01*
X10228344Y-130187657D01*
X10232885Y-130198621D01*
X10242920Y-130226493D01*
X10242924Y-130226501D01*
X10244261Y-130230216D01*
X10246050Y-130233727D01*
X10246053Y-130233734D01*
X10297126Y-130333969D01*
X10298862Y-130337514D01*
X10348438Y-130442869D01*
X10350559Y-130446211D01*
X10350560Y-130446213D01*
X10366434Y-130471226D01*
X10372312Y-130481531D01*
X10387559Y-130511455D01*
X10389784Y-130514729D01*
X10389789Y-130514737D01*
X10453003Y-130607753D01*
X10455171Y-130611053D01*
X10517568Y-130709375D01*
X10520096Y-130712430D01*
X10520099Y-130712435D01*
X10538980Y-130735259D01*
X10546103Y-130744746D01*
X10564977Y-130772518D01*
X10567596Y-130775489D01*
X10567601Y-130775495D01*
X10641972Y-130859850D01*
X10644532Y-130862847D01*
X10718767Y-130952582D01*
X10721654Y-130955293D01*
X10803658Y-131032300D01*
X10806501Y-131035055D01*
X11498459Y-131727014D01*
X11501213Y-131729856D01*
X11580918Y-131814733D01*
X11670666Y-131888979D01*
X11673633Y-131891514D01*
X11760982Y-131968523D01*
X11788754Y-131987397D01*
X11798241Y-131994520D01*
X11821065Y-132013401D01*
X11821070Y-132013404D01*
X11824125Y-132015932D01*
X11854279Y-132035068D01*
X11922452Y-132078332D01*
X11925748Y-132080497D01*
X12022045Y-132145940D01*
X12051972Y-132161189D01*
X12062264Y-132167061D01*
X12090631Y-132185062D01*
X12094216Y-132186749D01*
X12094220Y-132186751D01*
X12195986Y-132234638D01*
X12199531Y-132236374D01*
X12223555Y-132248615D01*
X12299766Y-132287447D01*
X12299773Y-132287450D01*
X12303284Y-132289239D01*
X12306999Y-132290576D01*
X12307007Y-132290580D01*
X12334879Y-132300615D01*
X12345843Y-132305156D01*
X12372652Y-132317771D01*
X12372659Y-132317774D01*
X12376234Y-132319456D01*
X12486993Y-132355444D01*
X12490655Y-132356697D01*
X12600267Y-132396160D01*
X12633043Y-132403486D01*
X12644493Y-132406619D01*
X12672657Y-132415770D01*
X12672661Y-132415771D01*
X12676428Y-132416995D01*
X12760932Y-132433115D01*
X12790812Y-132438815D01*
X12794636Y-132439606D01*
X12908308Y-132465015D01*
X12941742Y-132468175D01*
X12953484Y-132469847D01*
X12973186Y-132473605D01*
X12982584Y-132475398D01*
X12982587Y-132475398D01*
X12986480Y-132476141D01*
X13060427Y-132480793D01*
X13102696Y-132483453D01*
X13106641Y-132483763D01*
X13152848Y-132488130D01*
X13222551Y-132494719D01*
X13226503Y-132494595D01*
X13226509Y-132494595D01*
X13338925Y-132491062D01*
X13342883Y-132491000D01*
X22828134Y-132491000D01*
X22890316Y-132484245D01*
X23026705Y-132433115D01*
X23143261Y-132345761D01*
X23230615Y-132229205D01*
X23281745Y-132092816D01*
X23288500Y-132030634D01*
X23288500Y-127934366D01*
X23281745Y-127872184D01*
X23230615Y-127735795D01*
X23143261Y-127619239D01*
X23026705Y-127531885D01*
X22890316Y-127480755D01*
X22828134Y-127474000D01*
X14393274Y-127474000D01*
X14325153Y-127453998D01*
X14307022Y-127439851D01*
X14298326Y-127431685D01*
X14295483Y-127428929D01*
X14269030Y-127402476D01*
X14255436Y-127390491D01*
X14240955Y-127377724D01*
X14238028Y-127375061D01*
X14156033Y-127298062D01*
X14156026Y-127298056D01*
X14153140Y-127295346D01*
X14125982Y-127275615D01*
X14116715Y-127268191D01*
X14094497Y-127248602D01*
X14094484Y-127248592D01*
X14091518Y-127245977D01*
X13995192Y-127180514D01*
X13991986Y-127178261D01*
X13897779Y-127109816D01*
X13868342Y-127093632D01*
X13858247Y-127087446D01*
X13830455Y-127068559D01*
X13826932Y-127066764D01*
X13826927Y-127066761D01*
X13726712Y-127015700D01*
X13723212Y-127013847D01*
X13624647Y-126959659D01*
X13624640Y-126959656D01*
X13621179Y-126957753D01*
X13589956Y-126945391D01*
X13579136Y-126940506D01*
X13574314Y-126938049D01*
X13549216Y-126925261D01*
X13545492Y-126923920D01*
X13545489Y-126923919D01*
X13439687Y-126885828D01*
X13435984Y-126884429D01*
X13331385Y-126843015D01*
X13331382Y-126843014D01*
X13327702Y-126841557D01*
X13323868Y-126840573D01*
X13323860Y-126840570D01*
X13295177Y-126833206D01*
X13283831Y-126829716D01*
X13255955Y-126819680D01*
X13252233Y-126818340D01*
X13248379Y-126817479D01*
X13248360Y-126817473D01*
X13138610Y-126792941D01*
X13134762Y-126792018D01*
X13025814Y-126764045D01*
X13025804Y-126764043D01*
X13021975Y-126763060D01*
X12988638Y-126758848D01*
X12976968Y-126756811D01*
X12948060Y-126750349D01*
X12948051Y-126750348D01*
X12944192Y-126749485D01*
X12828228Y-126738523D01*
X12824341Y-126738094D01*
X12708821Y-126723500D01*
X12675246Y-126723500D01*
X12663388Y-126722941D01*
X12629949Y-126719780D01*
X12625998Y-126719904D01*
X12625992Y-126719904D01*
X12513555Y-126723438D01*
X12509597Y-126723500D01*
X12393179Y-126723500D01*
X12389254Y-126723996D01*
X12389251Y-126723996D01*
X12380169Y-126725143D01*
X12359853Y-126727710D01*
X12348033Y-126728640D01*
X12314463Y-126729695D01*
X12310558Y-126730314D01*
X12310553Y-126730314D01*
X12199453Y-126747911D01*
X12195533Y-126748468D01*
X12080025Y-126763060D01*
X12076198Y-126764043D01*
X12076191Y-126764044D01*
X12047493Y-126771413D01*
X12035866Y-126773821D01*
X12002706Y-126779073D01*
X11998913Y-126780175D01*
X11998904Y-126780177D01*
X11890934Y-126811545D01*
X11887117Y-126812589D01*
X11778145Y-126840568D01*
X11778126Y-126840574D01*
X11774298Y-126841557D01*
X11743064Y-126853924D01*
X11731857Y-126857761D01*
X11699595Y-126867134D01*
X11592753Y-126913368D01*
X11589108Y-126914878D01*
X11480821Y-126957753D01*
X11477358Y-126959657D01*
X11477349Y-126959661D01*
X11459059Y-126969716D01*
X11451388Y-126973933D01*
X11440750Y-126979145D01*
X11409913Y-126992490D01*
X11309685Y-127051765D01*
X11306255Y-127053721D01*
X11207699Y-127107904D01*
X11204221Y-127109816D01*
X11201019Y-127112142D01*
X11201018Y-127112143D01*
X11177059Y-127129550D01*
X11167138Y-127136066D01*
X11138225Y-127153166D01*
X11135104Y-127155587D01*
X11135098Y-127155591D01*
X11089121Y-127191255D01*
X11046184Y-127224560D01*
X11043067Y-127226900D01*
X10948860Y-127295346D01*
X10945976Y-127298055D01*
X10945974Y-127298056D01*
X10924377Y-127318337D01*
X10915351Y-127326046D01*
X10888819Y-127346626D01*
X10806501Y-127428944D01*
X10803659Y-127431699D01*
X10736089Y-127495152D01*
X10718767Y-127511418D01*
X10716243Y-127514469D01*
X10716242Y-127514470D01*
X10697353Y-127537303D01*
X10689363Y-127546082D01*
X10665626Y-127569819D01*
X10594229Y-127661863D01*
X10591794Y-127664902D01*
X10520093Y-127751572D01*
X10520088Y-127751579D01*
X10517568Y-127754625D01*
X10515449Y-127757963D01*
X10515446Y-127757968D01*
X10499575Y-127782977D01*
X10492750Y-127792688D01*
X10472166Y-127819225D01*
X10470144Y-127822644D01*
X10470142Y-127822647D01*
X10412894Y-127919448D01*
X10410826Y-127922823D01*
X10376059Y-127977607D01*
X10348438Y-128021131D01*
X10334137Y-128051523D01*
X10328589Y-128062000D01*
X10311490Y-128090913D01*
X10309917Y-128094549D01*
X10309914Y-128094554D01*
X10265238Y-128197795D01*
X10263620Y-128201378D01*
X10246387Y-128238001D01*
X10215733Y-128303145D01*
X10214044Y-128306734D01*
X10212818Y-128310508D01*
X10212817Y-128310510D01*
X10203667Y-128338669D01*
X10199471Y-128349774D01*
X10187707Y-128376960D01*
X10186134Y-128380595D01*
X10185030Y-128384395D01*
X10153649Y-128492408D01*
X10152485Y-128496191D01*
X10120897Y-128593409D01*
X10116505Y-128606928D01*
X10115762Y-128610823D01*
X10110213Y-128639914D01*
X10107442Y-128651458D01*
X10098073Y-128683706D01*
X10097455Y-128687608D01*
X10079861Y-128798693D01*
X10079180Y-128802593D01*
X10058102Y-128913085D01*
X10057359Y-128916980D01*
X10057110Y-128920940D01*
X10055251Y-128950493D01*
X10053948Y-128962296D01*
X10049316Y-128991545D01*
X10048695Y-128995463D01*
X10048571Y-128999419D01*
X10045038Y-129111850D01*
X10044852Y-129115788D01*
X10037540Y-129232000D01*
X508000Y-129232000D01*
X508000Y-109928000D01*
X10037540Y-109928000D01*
X10042500Y-110006838D01*
X10057359Y-110243020D01*
X10116505Y-110553072D01*
X10214044Y-110853266D01*
X10215728Y-110856844D01*
X10215733Y-110856856D01*
X10346750Y-111135283D01*
X10346752Y-111135287D01*
X10348438Y-111138869D01*
X10517568Y-111405375D01*
X10718767Y-111648582D01*
X10948860Y-111864654D01*
X11204221Y-112050184D01*
X11480821Y-112202247D01*
X11484490Y-112203700D01*
X11484495Y-112203702D01*
X11770628Y-112316990D01*
X11774298Y-112318443D01*
X12080025Y-112396940D01*
X12393179Y-112436500D01*
X12708821Y-112436500D01*
X13021975Y-112396940D01*
X13327702Y-112318443D01*
X13331372Y-112316990D01*
X13617505Y-112203702D01*
X13617510Y-112203700D01*
X13621179Y-112202247D01*
X13897779Y-112050184D01*
X14153140Y-111864654D01*
X14383233Y-111648582D01*
X14584432Y-111405375D01*
X14753562Y-111138869D01*
X14755248Y-111135287D01*
X14755250Y-111135283D01*
X14886267Y-110856856D01*
X14886272Y-110856844D01*
X14887956Y-110853266D01*
X14985495Y-110553072D01*
X15044641Y-110243020D01*
X15059500Y-110006838D01*
X15064460Y-109928000D01*
X15059749Y-109853119D01*
X15059500Y-109845209D01*
X15059500Y-106290244D01*
X15079502Y-106222123D01*
X15096405Y-106201149D01*
X18056405Y-103241149D01*
X18118717Y-103207123D01*
X18189532Y-103212188D01*
X18246368Y-103254735D01*
X18271179Y-103321255D01*
X18271500Y-103330244D01*
X18271500Y-107381300D01*
X18278255Y-107443482D01*
X18329385Y-107579871D01*
X18416739Y-107696427D01*
X18533295Y-107783781D01*
X18669684Y-107834911D01*
X18731866Y-107841666D01*
X44091922Y-107841666D01*
X44160043Y-107861668D01*
X44181017Y-107878571D01*
X49396944Y-113094499D01*
X49399698Y-113097340D01*
X49479418Y-113182233D01*
X49569166Y-113256479D01*
X49572133Y-113259014D01*
X49659482Y-113336023D01*
X49687254Y-113354897D01*
X49696741Y-113362020D01*
X49719565Y-113380901D01*
X49719570Y-113380904D01*
X49722625Y-113383432D01*
X49820939Y-113445824D01*
X49820952Y-113445832D01*
X49824248Y-113447997D01*
X49920545Y-113513440D01*
X49950472Y-113528689D01*
X49960764Y-113534561D01*
X49989131Y-113552562D01*
X49992716Y-113554249D01*
X49992720Y-113554251D01*
X50094486Y-113602138D01*
X50098041Y-113603879D01*
X50198266Y-113654947D01*
X50198273Y-113654950D01*
X50201784Y-113656739D01*
X50205499Y-113658076D01*
X50205507Y-113658080D01*
X50233379Y-113668115D01*
X50244343Y-113672656D01*
X50271152Y-113685271D01*
X50271159Y-113685274D01*
X50274734Y-113686956D01*
X50385493Y-113722944D01*
X50389155Y-113724197D01*
X50498767Y-113763660D01*
X50531543Y-113770986D01*
X50542993Y-113774119D01*
X50571157Y-113783270D01*
X50571161Y-113783271D01*
X50574928Y-113784495D01*
X50665468Y-113801766D01*
X50689312Y-113806315D01*
X50693136Y-113807106D01*
X50806808Y-113832515D01*
X50840242Y-113835675D01*
X50851984Y-113837347D01*
X50871686Y-113841105D01*
X50881084Y-113842898D01*
X50881087Y-113842898D01*
X50884980Y-113843641D01*
X50958927Y-113848293D01*
X51001196Y-113850953D01*
X51005141Y-113851263D01*
X51051348Y-113855630D01*
X51121051Y-113862219D01*
X51125003Y-113862095D01*
X51125009Y-113862095D01*
X51237425Y-113858562D01*
X51241383Y-113858500D01*
X83985597Y-113858500D01*
X83989555Y-113858562D01*
X84101992Y-113862096D01*
X84101998Y-113862096D01*
X84105949Y-113862220D01*
X84221915Y-113851257D01*
X84225807Y-113850952D01*
X84342020Y-113843641D01*
X84345909Y-113842899D01*
X84345918Y-113842898D01*
X84375010Y-113837348D01*
X84386762Y-113835675D01*
X84387956Y-113835562D01*
X84420192Y-113832515D01*
X84533864Y-113807106D01*
X84537688Y-113806315D01*
X84561532Y-113801766D01*
X84652072Y-113784495D01*
X84655839Y-113783271D01*
X84655843Y-113783270D01*
X84684007Y-113774119D01*
X84695457Y-113770986D01*
X84728233Y-113763660D01*
X84837845Y-113724197D01*
X84841507Y-113722944D01*
X84952266Y-113686956D01*
X84955841Y-113685274D01*
X84955848Y-113685271D01*
X84982657Y-113672656D01*
X84993621Y-113668115D01*
X85021493Y-113658080D01*
X85021501Y-113658076D01*
X85025216Y-113656739D01*
X85028727Y-113654950D01*
X85028734Y-113654947D01*
X85105018Y-113616078D01*
X85128977Y-113603870D01*
X85132524Y-113602133D01*
X85234284Y-113554249D01*
X85234285Y-113554249D01*
X85237869Y-113552562D01*
X85266233Y-113534562D01*
X85276531Y-113528688D01*
X85292032Y-113520790D01*
X85302925Y-113515240D01*
X85302929Y-113515237D01*
X85306455Y-113513441D01*
X85309732Y-113511214D01*
X85309737Y-113511211D01*
X85402753Y-113447997D01*
X85406061Y-113445824D01*
X85504375Y-113383432D01*
X85507430Y-113380904D01*
X85507435Y-113380901D01*
X85530259Y-113362020D01*
X85539746Y-113354897D01*
X85567518Y-113336023D01*
X85570489Y-113333404D01*
X85570495Y-113333399D01*
X85654850Y-113259028D01*
X85657861Y-113256456D01*
X85657874Y-113256446D01*
X85747582Y-113182233D01*
X85827317Y-113097324D01*
X85830071Y-113094483D01*
X87193483Y-111731071D01*
X87196325Y-111728316D01*
X87278346Y-111651293D01*
X87281233Y-111648582D01*
X87355484Y-111558828D01*
X87358014Y-111555866D01*
X87435023Y-111468517D01*
X87453898Y-111440744D01*
X87461024Y-111431253D01*
X87479907Y-111408427D01*
X87482432Y-111405375D01*
X87544818Y-111307071D01*
X87546991Y-111303763D01*
X87610209Y-111210740D01*
X87610212Y-111210734D01*
X87612441Y-111207455D01*
X87627687Y-111177531D01*
X87633565Y-111167227D01*
X87649443Y-111142208D01*
X87651562Y-111138869D01*
X87653250Y-111135283D01*
X87701136Y-111033519D01*
X87702858Y-111030003D01*
X87755740Y-110926215D01*
X87767117Y-110894613D01*
X87771659Y-110883649D01*
X87777048Y-110872196D01*
X87785956Y-110853266D01*
X87821935Y-110742536D01*
X87823217Y-110738793D01*
X87861315Y-110632971D01*
X87861318Y-110632960D01*
X87862660Y-110629233D01*
X87869986Y-110596461D01*
X87873117Y-110585016D01*
X87882269Y-110556847D01*
X87882271Y-110556839D01*
X87883495Y-110553072D01*
X87905311Y-110438709D01*
X87906114Y-110434833D01*
X87930651Y-110325061D01*
X87930651Y-110325060D01*
X87931516Y-110321191D01*
X87934677Y-110287748D01*
X87936350Y-110275998D01*
X87941897Y-110246919D01*
X87941897Y-110246918D01*
X87942641Y-110243020D01*
X87949951Y-110126834D01*
X87950261Y-110122889D01*
X87960847Y-110010891D01*
X87961220Y-110006949D01*
X87960165Y-109973378D01*
X87960352Y-109961509D01*
X87962211Y-109931960D01*
X87962211Y-109931957D01*
X87962460Y-109928000D01*
X87955148Y-109811788D01*
X87954962Y-109807850D01*
X87951429Y-109695419D01*
X87951305Y-109691463D01*
X87946052Y-109658296D01*
X87944749Y-109646493D01*
X87942890Y-109616940D01*
X87942641Y-109612980D01*
X87920820Y-109498593D01*
X87920139Y-109494693D01*
X87902547Y-109383620D01*
X87902547Y-109383619D01*
X87901927Y-109379706D01*
X87900819Y-109375892D01*
X87892560Y-109347462D01*
X87889789Y-109335922D01*
X87889105Y-109332336D01*
X87883495Y-109302928D01*
X87847518Y-109192201D01*
X87846354Y-109188418D01*
X87814972Y-109080398D01*
X87814971Y-109080396D01*
X87813867Y-109076595D01*
X87800527Y-109045768D01*
X87796333Y-109034667D01*
X87787181Y-109006502D01*
X87787177Y-109006492D01*
X87785956Y-109002734D01*
X87736390Y-108897401D01*
X87734761Y-108893794D01*
X87688510Y-108786913D01*
X87671411Y-108758000D01*
X87665863Y-108747523D01*
X87651562Y-108717131D01*
X87589174Y-108618823D01*
X87587106Y-108615448D01*
X87529858Y-108518647D01*
X87529856Y-108518644D01*
X87527834Y-108515225D01*
X87507250Y-108488688D01*
X87500425Y-108478977D01*
X87484554Y-108453968D01*
X87484551Y-108453963D01*
X87482432Y-108450625D01*
X87479912Y-108447579D01*
X87479907Y-108447572D01*
X87408206Y-108360902D01*
X87405771Y-108357863D01*
X87334374Y-108265819D01*
X87310637Y-108242082D01*
X87302647Y-108233303D01*
X87283758Y-108210470D01*
X87283757Y-108210469D01*
X87281233Y-108207418D01*
X87196340Y-108127698D01*
X87193499Y-108124944D01*
X87111181Y-108042626D01*
X87084649Y-108022046D01*
X87075623Y-108014337D01*
X87054026Y-107994056D01*
X87054024Y-107994055D01*
X87051140Y-107991346D01*
X86956933Y-107922900D01*
X86953816Y-107920560D01*
X86899684Y-107878571D01*
X86864902Y-107851591D01*
X86864896Y-107851587D01*
X86861775Y-107849166D01*
X86832862Y-107832066D01*
X86822941Y-107825550D01*
X86798982Y-107808143D01*
X86798981Y-107808142D01*
X86795779Y-107805816D01*
X86792305Y-107803906D01*
X86693745Y-107749721D01*
X86690324Y-107747770D01*
X86590087Y-107688490D01*
X86586451Y-107686917D01*
X86586448Y-107686915D01*
X86559265Y-107675152D01*
X86548605Y-107669930D01*
X86522641Y-107655656D01*
X86522638Y-107655655D01*
X86519179Y-107653753D01*
X86410908Y-107610885D01*
X86407298Y-107609389D01*
X86300405Y-107563133D01*
X86268148Y-107553761D01*
X86256922Y-107549917D01*
X86229383Y-107539014D01*
X86229378Y-107539012D01*
X86225702Y-107537557D01*
X86131923Y-107513479D01*
X86112901Y-107508595D01*
X86109084Y-107507550D01*
X86001096Y-107476177D01*
X86001087Y-107476175D01*
X85997294Y-107475073D01*
X85964134Y-107469821D01*
X85952507Y-107467413D01*
X85923809Y-107460044D01*
X85923802Y-107460043D01*
X85919975Y-107459060D01*
X85804467Y-107444468D01*
X85800547Y-107443911D01*
X85689447Y-107426314D01*
X85689442Y-107426314D01*
X85685537Y-107425695D01*
X85651967Y-107424640D01*
X85640147Y-107423710D01*
X85619831Y-107421143D01*
X85610749Y-107419996D01*
X85610746Y-107419996D01*
X85606821Y-107419500D01*
X85490403Y-107419500D01*
X85486445Y-107419438D01*
X85374009Y-107415904D01*
X85374003Y-107415904D01*
X85370051Y-107415780D01*
X85336609Y-107418941D01*
X85324754Y-107419500D01*
X85291179Y-107419500D01*
X85287253Y-107419996D01*
X85287252Y-107419996D01*
X85267459Y-107422496D01*
X85175656Y-107434093D01*
X85171756Y-107434524D01*
X85090791Y-107442177D01*
X85059754Y-107445111D01*
X85059753Y-107445111D01*
X85055809Y-107445484D01*
X85023016Y-107452814D01*
X85011360Y-107454849D01*
X84978025Y-107459060D01*
X84865254Y-107488015D01*
X84861453Y-107488928D01*
X84747767Y-107514340D01*
X84716163Y-107525718D01*
X84704832Y-107529203D01*
X84672298Y-107537557D01*
X84564012Y-107580430D01*
X84560336Y-107581819D01*
X84479589Y-107610890D01*
X84450785Y-107621260D01*
X84420855Y-107636510D01*
X84410045Y-107641390D01*
X84378821Y-107653753D01*
X84311970Y-107690505D01*
X84276792Y-107709844D01*
X84273303Y-107711691D01*
X84169545Y-107764559D01*
X84166273Y-107766783D01*
X84141767Y-107783437D01*
X84131645Y-107789640D01*
X84102221Y-107805816D01*
X84099018Y-107808143D01*
X84099015Y-107808145D01*
X84008033Y-107874247D01*
X84004796Y-107876522D01*
X83936521Y-107922922D01*
X83908483Y-107941977D01*
X83887951Y-107960078D01*
X83883298Y-107964180D01*
X83874036Y-107971600D01*
X83850071Y-107989012D01*
X83850063Y-107989019D01*
X83846860Y-107991346D01*
X83761950Y-108071081D01*
X83759060Y-108073711D01*
X83730970Y-108098476D01*
X83704517Y-108124929D01*
X83701676Y-108127683D01*
X83616767Y-108207418D01*
X83595343Y-108233316D01*
X83587364Y-108242082D01*
X83024851Y-108804595D01*
X82962539Y-108838621D01*
X82935756Y-108841500D01*
X52291245Y-108841500D01*
X52223124Y-108821498D01*
X52202150Y-108804595D01*
X46986237Y-103588683D01*
X46983482Y-103585841D01*
X46906459Y-103503820D01*
X46903748Y-103500933D01*
X46814013Y-103426698D01*
X46811016Y-103424138D01*
X46726661Y-103349767D01*
X46726655Y-103349762D01*
X46723684Y-103347143D01*
X46695912Y-103328269D01*
X46686425Y-103321146D01*
X46663601Y-103302265D01*
X46663596Y-103302262D01*
X46660541Y-103299734D01*
X46562219Y-103237337D01*
X46558919Y-103235169D01*
X46465903Y-103171955D01*
X46465898Y-103171952D01*
X46462621Y-103169725D01*
X46459095Y-103167929D01*
X46459091Y-103167926D01*
X46448198Y-103162376D01*
X46432697Y-103154478D01*
X46422392Y-103148600D01*
X46397379Y-103132726D01*
X46397377Y-103132725D01*
X46394035Y-103130604D01*
X46288681Y-103081029D01*
X46285135Y-103079292D01*
X46184900Y-103028219D01*
X46184893Y-103028216D01*
X46181382Y-103026427D01*
X46177667Y-103025090D01*
X46177659Y-103025086D01*
X46149787Y-103015051D01*
X46138823Y-103010510D01*
X46112014Y-102997895D01*
X46112007Y-102997892D01*
X46108432Y-102996210D01*
X45997673Y-102960222D01*
X45994011Y-102958969D01*
X45884399Y-102919506D01*
X45851622Y-102912180D01*
X45840173Y-102909047D01*
X45812009Y-102899896D01*
X45812005Y-102899895D01*
X45808238Y-102898671D01*
X45717698Y-102881400D01*
X45693854Y-102876851D01*
X45690030Y-102876060D01*
X45576358Y-102850651D01*
X45542928Y-102847491D01*
X45531176Y-102845818D01*
X45502084Y-102840268D01*
X45502075Y-102840267D01*
X45498186Y-102839525D01*
X45381973Y-102832214D01*
X45378081Y-102831909D01*
X45262115Y-102820946D01*
X45258164Y-102821070D01*
X45258158Y-102821070D01*
X45145721Y-102824604D01*
X45141763Y-102824666D01*
X18777078Y-102824666D01*
X18708957Y-102804664D01*
X18662464Y-102751008D01*
X18652360Y-102680734D01*
X18681854Y-102616154D01*
X18687983Y-102609571D01*
X20202149Y-101095405D01*
X20264461Y-101061379D01*
X20291244Y-101058500D01*
X33508597Y-101058500D01*
X33512555Y-101058562D01*
X33624992Y-101062096D01*
X33624998Y-101062096D01*
X33628949Y-101062220D01*
X33744915Y-101051257D01*
X33748807Y-101050952D01*
X33865020Y-101043641D01*
X33868909Y-101042899D01*
X33868918Y-101042898D01*
X33898010Y-101037348D01*
X33909762Y-101035675D01*
X33910956Y-101035562D01*
X33943192Y-101032515D01*
X34056864Y-101007106D01*
X34060688Y-101006315D01*
X34084532Y-101001766D01*
X34175072Y-100984495D01*
X34178839Y-100983271D01*
X34178843Y-100983270D01*
X34207007Y-100974119D01*
X34218457Y-100970986D01*
X34251233Y-100963660D01*
X34360845Y-100924197D01*
X34364507Y-100922944D01*
X34475266Y-100886956D01*
X34478841Y-100885274D01*
X34478848Y-100885271D01*
X34505657Y-100872656D01*
X34516621Y-100868115D01*
X34544493Y-100858080D01*
X34544501Y-100858076D01*
X34548216Y-100856739D01*
X34551727Y-100854950D01*
X34551734Y-100854947D01*
X34651969Y-100803874D01*
X34655524Y-100802133D01*
X34757284Y-100754249D01*
X34757285Y-100754249D01*
X34760869Y-100752562D01*
X34789230Y-100734564D01*
X34799531Y-100728688D01*
X34815032Y-100720790D01*
X34825925Y-100715240D01*
X34825929Y-100715237D01*
X34829455Y-100713441D01*
X34832732Y-100711214D01*
X34832737Y-100711211D01*
X34925753Y-100647997D01*
X34929061Y-100645824D01*
X35027375Y-100583432D01*
X35030430Y-100580904D01*
X35030435Y-100580901D01*
X35053259Y-100562020D01*
X35062746Y-100554897D01*
X35090518Y-100536023D01*
X35093489Y-100533404D01*
X35093495Y-100533399D01*
X35177850Y-100459028D01*
X35180861Y-100456456D01*
X35267531Y-100384757D01*
X35270582Y-100382233D01*
X35350317Y-100297324D01*
X35353071Y-100294483D01*
X41202150Y-94445405D01*
X41264462Y-94411379D01*
X41291245Y-94408500D01*
X71776239Y-94408500D01*
X71844360Y-94428502D01*
X71851803Y-94433674D01*
X71873295Y-94449781D01*
X72009684Y-94500911D01*
X72071866Y-94507666D01*
X73995754Y-94507666D01*
X74007609Y-94508225D01*
X74041051Y-94511386D01*
X74045003Y-94511262D01*
X74045009Y-94511262D01*
X74157445Y-94507728D01*
X74161403Y-94507666D01*
X84032431Y-94507666D01*
X84036389Y-94507728D01*
X84148826Y-94511262D01*
X84148832Y-94511262D01*
X84152783Y-94511386D01*
X84268749Y-94500423D01*
X84272641Y-94500118D01*
X84388854Y-94492807D01*
X84392743Y-94492065D01*
X84392752Y-94492064D01*
X84421844Y-94486514D01*
X84433596Y-94484841D01*
X84434790Y-94484728D01*
X84467026Y-94481681D01*
X84580698Y-94456272D01*
X84584522Y-94455481D01*
X84614402Y-94449781D01*
X84698906Y-94433661D01*
X84702673Y-94432437D01*
X84702677Y-94432436D01*
X84730841Y-94423285D01*
X84742291Y-94420152D01*
X84775067Y-94412826D01*
X84884679Y-94373363D01*
X84888341Y-94372110D01*
X84999100Y-94336122D01*
X85002675Y-94334440D01*
X85002682Y-94334437D01*
X85029491Y-94321822D01*
X85040455Y-94317281D01*
X85068327Y-94307246D01*
X85068335Y-94307242D01*
X85072050Y-94305905D01*
X85075561Y-94304116D01*
X85075568Y-94304113D01*
X85175770Y-94253057D01*
X85175811Y-94253036D01*
X85179358Y-94251299D01*
X85190894Y-94245871D01*
X85284703Y-94201728D01*
X85313064Y-94183730D01*
X85323369Y-94177852D01*
X85338866Y-94169956D01*
X85349759Y-94164406D01*
X85349766Y-94164402D01*
X85353289Y-94162607D01*
X85356566Y-94160380D01*
X85356571Y-94160377D01*
X85449587Y-94097163D01*
X85452895Y-94094990D01*
X85452906Y-94094983D01*
X85551209Y-94032598D01*
X85554264Y-94030070D01*
X85554269Y-94030067D01*
X85577093Y-94011186D01*
X85586580Y-94004063D01*
X85614352Y-93985189D01*
X85617323Y-93982570D01*
X85617329Y-93982565D01*
X85701684Y-93908194D01*
X85704695Y-93905622D01*
X85704708Y-93905612D01*
X85794416Y-93831399D01*
X85874150Y-93746491D01*
X85876904Y-93743650D01*
X87193498Y-92427057D01*
X87196340Y-92424302D01*
X87278346Y-92347293D01*
X87281233Y-92344582D01*
X87355479Y-92254834D01*
X87358017Y-92251864D01*
X87432398Y-92167495D01*
X87435023Y-92164518D01*
X87453897Y-92136746D01*
X87461020Y-92127259D01*
X87479901Y-92104435D01*
X87479904Y-92104430D01*
X87482432Y-92101375D01*
X87544824Y-92003061D01*
X87546990Y-91999764D01*
X87610211Y-91906736D01*
X87610212Y-91906735D01*
X87612440Y-91903456D01*
X87627687Y-91873532D01*
X87633568Y-91863223D01*
X87649438Y-91838216D01*
X87649440Y-91838213D01*
X87651562Y-91834869D01*
X87653249Y-91831284D01*
X87653250Y-91831283D01*
X87701142Y-91729506D01*
X87702864Y-91725990D01*
X87755739Y-91622216D01*
X87757077Y-91618499D01*
X87757082Y-91618488D01*
X87767115Y-91590621D01*
X87771656Y-91579657D01*
X87784271Y-91552848D01*
X87784274Y-91552841D01*
X87785956Y-91549266D01*
X87821944Y-91438507D01*
X87823197Y-91434845D01*
X87862660Y-91325233D01*
X87869986Y-91292456D01*
X87873119Y-91281007D01*
X87882270Y-91252843D01*
X87882271Y-91252839D01*
X87883495Y-91249072D01*
X87905315Y-91134688D01*
X87906106Y-91130864D01*
X87931515Y-91017192D01*
X87934675Y-90983758D01*
X87936348Y-90972007D01*
X87941898Y-90942916D01*
X87941898Y-90942913D01*
X87942641Y-90939020D01*
X87949953Y-90822804D01*
X87950263Y-90818859D01*
X87960846Y-90706892D01*
X87960846Y-90706891D01*
X87961219Y-90702949D01*
X87960164Y-90669377D01*
X87960351Y-90657527D01*
X87962460Y-90624000D01*
X87955147Y-90507764D01*
X87954963Y-90503867D01*
X87951305Y-90387463D01*
X87950685Y-90383546D01*
X87950685Y-90383545D01*
X87946052Y-90354296D01*
X87944749Y-90342493D01*
X87942890Y-90312940D01*
X87942641Y-90308980D01*
X87920820Y-90194593D01*
X87920139Y-90190693D01*
X87902545Y-90079608D01*
X87901927Y-90075706D01*
X87892558Y-90043458D01*
X87889787Y-90031914D01*
X87884238Y-90002823D01*
X87883495Y-89998928D01*
X87866829Y-89947635D01*
X87847510Y-89888178D01*
X87846346Y-89884395D01*
X87814971Y-89776399D01*
X87814970Y-89776395D01*
X87813866Y-89772596D01*
X87812292Y-89768958D01*
X87800531Y-89741779D01*
X87796337Y-89730680D01*
X87787179Y-89702497D01*
X87787177Y-89702493D01*
X87785956Y-89698734D01*
X87736370Y-89593357D01*
X87734752Y-89589774D01*
X87690083Y-89486549D01*
X87690079Y-89486542D01*
X87688509Y-89482913D01*
X87671413Y-89454004D01*
X87665865Y-89443526D01*
X87665766Y-89443316D01*
X87651562Y-89413131D01*
X87589145Y-89314777D01*
X87587108Y-89311454D01*
X87587105Y-89311448D01*
X87527834Y-89211226D01*
X87525411Y-89208102D01*
X87525406Y-89208095D01*
X87507251Y-89184690D01*
X87500423Y-89174975D01*
X87484554Y-89149969D01*
X87484553Y-89149968D01*
X87482432Y-89146625D01*
X87408181Y-89056871D01*
X87405756Y-89053845D01*
X87334373Y-88961819D01*
X87310636Y-88938082D01*
X87302657Y-88929316D01*
X87281233Y-88903418D01*
X87196324Y-88823683D01*
X87193483Y-88820929D01*
X87111181Y-88738627D01*
X87084648Y-88718046D01*
X87075626Y-88710340D01*
X87075623Y-88710337D01*
X87051140Y-88687346D01*
X86956955Y-88618918D01*
X86953789Y-88616541D01*
X86864908Y-88547597D01*
X86861774Y-88545166D01*
X86858363Y-88543149D01*
X86858356Y-88543144D01*
X86832863Y-88528068D01*
X86822939Y-88521549D01*
X86798990Y-88504149D01*
X86795779Y-88501816D01*
X86792305Y-88499906D01*
X86693739Y-88445719D01*
X86690301Y-88443757D01*
X86593500Y-88386509D01*
X86593494Y-88386506D01*
X86590087Y-88384491D01*
X86559274Y-88371157D01*
X86548614Y-88365935D01*
X86522650Y-88351661D01*
X86522646Y-88351659D01*
X86519179Y-88349753D01*
X86410901Y-88306883D01*
X86407250Y-88305371D01*
X86304038Y-88260706D01*
X86304030Y-88260703D01*
X86300404Y-88259134D01*
X86278540Y-88252782D01*
X86268169Y-88249769D01*
X86256939Y-88245924D01*
X86229378Y-88235012D01*
X86229372Y-88235010D01*
X86225702Y-88233557D01*
X86221882Y-88232576D01*
X86221866Y-88232571D01*
X86112880Y-88204588D01*
X86109063Y-88203544D01*
X86001096Y-88172177D01*
X86001087Y-88172175D01*
X85997294Y-88171073D01*
X85964134Y-88165821D01*
X85952507Y-88163413D01*
X85923809Y-88156044D01*
X85923802Y-88156043D01*
X85919975Y-88155060D01*
X85804467Y-88140468D01*
X85800547Y-88139911D01*
X85685537Y-88121695D01*
X85670584Y-88121225D01*
X85651967Y-88120640D01*
X85640140Y-88119709D01*
X85606821Y-88115500D01*
X85490383Y-88115500D01*
X85486425Y-88115438D01*
X85374009Y-88111905D01*
X85374003Y-88111905D01*
X85370051Y-88111781D01*
X85336621Y-88114941D01*
X85324764Y-88115500D01*
X85291179Y-88115500D01*
X85287256Y-88115996D01*
X85287249Y-88115996D01*
X85175642Y-88130095D01*
X85171709Y-88130529D01*
X85141163Y-88133417D01*
X85055808Y-88141485D01*
X85051938Y-88142350D01*
X85023032Y-88148811D01*
X85011362Y-88150848D01*
X84978025Y-88155060D01*
X84974196Y-88156043D01*
X84974186Y-88156045D01*
X84865238Y-88184018D01*
X84861390Y-88184941D01*
X84751640Y-88209473D01*
X84751621Y-88209479D01*
X84747767Y-88210340D01*
X84744045Y-88211680D01*
X84716169Y-88221716D01*
X84704823Y-88225206D01*
X84676140Y-88232570D01*
X84676132Y-88232573D01*
X84672298Y-88233557D01*
X84668618Y-88235014D01*
X84668615Y-88235015D01*
X84564016Y-88276429D01*
X84560313Y-88277828D01*
X84522951Y-88291279D01*
X84450784Y-88317261D01*
X84447257Y-88319058D01*
X84447255Y-88319059D01*
X84420867Y-88332505D01*
X84410045Y-88337391D01*
X84382505Y-88348294D01*
X84382501Y-88348296D01*
X84378821Y-88349753D01*
X84375350Y-88351661D01*
X84375342Y-88351665D01*
X84276780Y-88405850D01*
X84273291Y-88407698D01*
X84169544Y-88460560D01*
X84141756Y-88479444D01*
X84131650Y-88485637D01*
X84102221Y-88501816D01*
X84008011Y-88570263D01*
X84004805Y-88572516D01*
X83908482Y-88637977D01*
X83883277Y-88660198D01*
X83874032Y-88667604D01*
X83846860Y-88687346D01*
X83761972Y-88767061D01*
X83759076Y-88769696D01*
X83730969Y-88794476D01*
X83704501Y-88820944D01*
X83701660Y-88823698D01*
X83616767Y-88903418D01*
X83614244Y-88906468D01*
X83595362Y-88929293D01*
X83587371Y-88938075D01*
X83071683Y-89453762D01*
X83009371Y-89487787D01*
X82982588Y-89490666D01*
X74753999Y-89490666D01*
X74722113Y-89486128D01*
X74722066Y-89486340D01*
X74689290Y-89479014D01*
X74677841Y-89475881D01*
X74649677Y-89466730D01*
X74649673Y-89466729D01*
X74645906Y-89465505D01*
X74555366Y-89448234D01*
X74531522Y-89443685D01*
X74527698Y-89442894D01*
X74414026Y-89417485D01*
X74380596Y-89414325D01*
X74368844Y-89412652D01*
X74339752Y-89407102D01*
X74339743Y-89407101D01*
X74335854Y-89406359D01*
X74219641Y-89399048D01*
X74215749Y-89398743D01*
X74099783Y-89387780D01*
X74095832Y-89387904D01*
X74095826Y-89387904D01*
X73983389Y-89391438D01*
X73979431Y-89391500D01*
X40241383Y-89391500D01*
X40237425Y-89391438D01*
X40125009Y-89387905D01*
X40125003Y-89387905D01*
X40121051Y-89387781D01*
X40051348Y-89394370D01*
X40005141Y-89398737D01*
X40001196Y-89399047D01*
X39958927Y-89401707D01*
X39884980Y-89406359D01*
X39881087Y-89407102D01*
X39881084Y-89407102D01*
X39871686Y-89408895D01*
X39851984Y-89412653D01*
X39840242Y-89414325D01*
X39806808Y-89417485D01*
X39693136Y-89442894D01*
X39689312Y-89443685D01*
X39665468Y-89448234D01*
X39574928Y-89465505D01*
X39571161Y-89466729D01*
X39571157Y-89466730D01*
X39542993Y-89475881D01*
X39531544Y-89479014D01*
X39498767Y-89486340D01*
X39389155Y-89525803D01*
X39385493Y-89527056D01*
X39274734Y-89563044D01*
X39271159Y-89564726D01*
X39271152Y-89564729D01*
X39244343Y-89577344D01*
X39233379Y-89581885D01*
X39205507Y-89591920D01*
X39205499Y-89591924D01*
X39201784Y-89593261D01*
X39198273Y-89595050D01*
X39198266Y-89595053D01*
X39098041Y-89646121D01*
X39094486Y-89647862D01*
X38993981Y-89695156D01*
X38989131Y-89697438D01*
X38981139Y-89702510D01*
X38960767Y-89715438D01*
X38950472Y-89721311D01*
X38920545Y-89736560D01*
X38917271Y-89738785D01*
X38824260Y-89801995D01*
X38820960Y-89804163D01*
X38722625Y-89866568D01*
X38719570Y-89869096D01*
X38719565Y-89869099D01*
X38696741Y-89887980D01*
X38687254Y-89895103D01*
X38659482Y-89913977D01*
X38613576Y-89954449D01*
X38572136Y-89990983D01*
X38569166Y-89993521D01*
X38479418Y-90067767D01*
X38476707Y-90070654D01*
X38399699Y-90152659D01*
X38396944Y-90155501D01*
X32547851Y-96004595D01*
X32485539Y-96038621D01*
X32458756Y-96041500D01*
X19241403Y-96041500D01*
X19237445Y-96041438D01*
X19125008Y-96037904D01*
X19125002Y-96037904D01*
X19121051Y-96037780D01*
X19005085Y-96048743D01*
X19001193Y-96049048D01*
X18884980Y-96056359D01*
X18881091Y-96057101D01*
X18881082Y-96057102D01*
X18851990Y-96062652D01*
X18840238Y-96064325D01*
X18806808Y-96067485D01*
X18693136Y-96092894D01*
X18689312Y-96093685D01*
X18665468Y-96098234D01*
X18574928Y-96115505D01*
X18571161Y-96116729D01*
X18571157Y-96116730D01*
X18542993Y-96125881D01*
X18531544Y-96129014D01*
X18498767Y-96136340D01*
X18389155Y-96175803D01*
X18385493Y-96177056D01*
X18274734Y-96213044D01*
X18271159Y-96214726D01*
X18271152Y-96214729D01*
X18244343Y-96227344D01*
X18233379Y-96231885D01*
X18205507Y-96241920D01*
X18205499Y-96241924D01*
X18201784Y-96243261D01*
X18198273Y-96245050D01*
X18198266Y-96245053D01*
X18098031Y-96296126D01*
X18094485Y-96297863D01*
X17989131Y-96347438D01*
X17985789Y-96349559D01*
X17985787Y-96349560D01*
X17960774Y-96365434D01*
X17950469Y-96371312D01*
X17934968Y-96379210D01*
X17924075Y-96384760D01*
X17924071Y-96384763D01*
X17920545Y-96386559D01*
X17917268Y-96388786D01*
X17917263Y-96388789D01*
X17824247Y-96452003D01*
X17820947Y-96454171D01*
X17722625Y-96516568D01*
X17719570Y-96519096D01*
X17719565Y-96519099D01*
X17696741Y-96537980D01*
X17687254Y-96545103D01*
X17659482Y-96563977D01*
X17656511Y-96566596D01*
X17656505Y-96566601D01*
X17572150Y-96640972D01*
X17569153Y-96643532D01*
X17479418Y-96717767D01*
X17476707Y-96720654D01*
X17399684Y-96802675D01*
X17396929Y-96805517D01*
X10806517Y-103395929D01*
X10803676Y-103398683D01*
X10718767Y-103478418D01*
X10716243Y-103481469D01*
X10644544Y-103568139D01*
X10641972Y-103571150D01*
X10567601Y-103655505D01*
X10567596Y-103655511D01*
X10564977Y-103658482D01*
X10562751Y-103661758D01*
X10546107Y-103686249D01*
X10538980Y-103695741D01*
X10520099Y-103718565D01*
X10517568Y-103721625D01*
X10455176Y-103819939D01*
X10453008Y-103823239D01*
X10387559Y-103919545D01*
X10372312Y-103949469D01*
X10366436Y-103959770D01*
X10348438Y-103988131D01*
X10346751Y-103991715D01*
X10346751Y-103991716D01*
X10298867Y-104093476D01*
X10297126Y-104097031D01*
X10246053Y-104197266D01*
X10246050Y-104197273D01*
X10244261Y-104200784D01*
X10242924Y-104204499D01*
X10242920Y-104204507D01*
X10232885Y-104232379D01*
X10228344Y-104243343D01*
X10215729Y-104270152D01*
X10215726Y-104270159D01*
X10214044Y-104273734D01*
X10178056Y-104384493D01*
X10176803Y-104388155D01*
X10137340Y-104497767D01*
X10130014Y-104530543D01*
X10126881Y-104541993D01*
X10117730Y-104570157D01*
X10116505Y-104573928D01*
X10115763Y-104577820D01*
X10094685Y-104688312D01*
X10093894Y-104692136D01*
X10068485Y-104805808D01*
X10065438Y-104838044D01*
X10065325Y-104839238D01*
X10063652Y-104850990D01*
X10058102Y-104880082D01*
X10058101Y-104880091D01*
X10057359Y-104883980D01*
X10057110Y-104887941D01*
X10050050Y-105000169D01*
X10049743Y-105004085D01*
X10038780Y-105120051D01*
X10038904Y-105124002D01*
X10038904Y-105124008D01*
X10042438Y-105236445D01*
X10042500Y-105240403D01*
X10042500Y-109845209D01*
X10042251Y-109853119D01*
X10037540Y-109928000D01*
X508000Y-109928000D01*
X508000Y-90624000D01*
X10037540Y-90624000D01*
X10037789Y-90627955D01*
X10037789Y-90627960D01*
X10039648Y-90657509D01*
X10039835Y-90669378D01*
X10038780Y-90702949D01*
X10039153Y-90706891D01*
X10049738Y-90818879D01*
X10050048Y-90822824D01*
X10057359Y-90939020D01*
X10058103Y-90942919D01*
X10063652Y-90972010D01*
X10065325Y-90983761D01*
X10068485Y-91017192D01*
X10093894Y-91130864D01*
X10094685Y-91134688D01*
X10116505Y-91249072D01*
X10117729Y-91252839D01*
X10117730Y-91252843D01*
X10126881Y-91281007D01*
X10130014Y-91292456D01*
X10137340Y-91325233D01*
X10176803Y-91434845D01*
X10178056Y-91438507D01*
X10214044Y-91549266D01*
X10215726Y-91552841D01*
X10215729Y-91552848D01*
X10228344Y-91579657D01*
X10232885Y-91590621D01*
X10242920Y-91618493D01*
X10242924Y-91618501D01*
X10244261Y-91622216D01*
X10246050Y-91625727D01*
X10246053Y-91625734D01*
X10297126Y-91725969D01*
X10298858Y-91729506D01*
X10348438Y-91834869D01*
X10350559Y-91838211D01*
X10350560Y-91838213D01*
X10366434Y-91863226D01*
X10372312Y-91873531D01*
X10387559Y-91903455D01*
X10389786Y-91906732D01*
X10389789Y-91906737D01*
X10453003Y-91999753D01*
X10455171Y-92003053D01*
X10517568Y-92101375D01*
X10520096Y-92104430D01*
X10520099Y-92104435D01*
X10538980Y-92127259D01*
X10546103Y-92136746D01*
X10564977Y-92164518D01*
X10567596Y-92167489D01*
X10567601Y-92167495D01*
X10641972Y-92251850D01*
X10644532Y-92254847D01*
X10718767Y-92344582D01*
X10721654Y-92347293D01*
X10803674Y-92424315D01*
X10806516Y-92427070D01*
X12123109Y-93743664D01*
X12125863Y-93746505D01*
X12205584Y-93831399D01*
X12295332Y-93905645D01*
X12298299Y-93908180D01*
X12385648Y-93985189D01*
X12413420Y-94004063D01*
X12422907Y-94011186D01*
X12445731Y-94030067D01*
X12445736Y-94030070D01*
X12448791Y-94032598D01*
X12471958Y-94047300D01*
X12547094Y-94094983D01*
X12550402Y-94097156D01*
X12643430Y-94160377D01*
X12646710Y-94162606D01*
X12650235Y-94164402D01*
X12676632Y-94177852D01*
X12686942Y-94183734D01*
X12715297Y-94201728D01*
X12718876Y-94203412D01*
X12718883Y-94203416D01*
X12786734Y-94235344D01*
X12820674Y-94251315D01*
X12824176Y-94253030D01*
X12927950Y-94305905D01*
X12931667Y-94307243D01*
X12931678Y-94307248D01*
X12959545Y-94317281D01*
X12970509Y-94321822D01*
X12997318Y-94334437D01*
X12997325Y-94334440D01*
X13000900Y-94336122D01*
X13111659Y-94372110D01*
X13115321Y-94373363D01*
X13224933Y-94412826D01*
X13257709Y-94420152D01*
X13269159Y-94423285D01*
X13297323Y-94432436D01*
X13297327Y-94432437D01*
X13301094Y-94433661D01*
X13385598Y-94449781D01*
X13415478Y-94455481D01*
X13419302Y-94456272D01*
X13532974Y-94481681D01*
X13566408Y-94484841D01*
X13578150Y-94486513D01*
X13597852Y-94490271D01*
X13607250Y-94492064D01*
X13607253Y-94492064D01*
X13611146Y-94492807D01*
X13685093Y-94497459D01*
X13727362Y-94500119D01*
X13731307Y-94500429D01*
X13777514Y-94504796D01*
X13847217Y-94511385D01*
X13851169Y-94511261D01*
X13851175Y-94511261D01*
X13963591Y-94507728D01*
X13967549Y-94507666D01*
X22828134Y-94507666D01*
X22890316Y-94500911D01*
X23026705Y-94449781D01*
X23143261Y-94362427D01*
X23230615Y-94245871D01*
X23281745Y-94109482D01*
X23288500Y-94047300D01*
X23288500Y-89951032D01*
X23281745Y-89888850D01*
X23230615Y-89752461D01*
X23143261Y-89635905D01*
X23026705Y-89548551D01*
X22890316Y-89497421D01*
X22828134Y-89490666D01*
X15017410Y-89490666D01*
X14949289Y-89470664D01*
X14928315Y-89453761D01*
X14412636Y-88938082D01*
X14404646Y-88929302D01*
X14385757Y-88906469D01*
X14385756Y-88906468D01*
X14383233Y-88903418D01*
X14298324Y-88823683D01*
X14295483Y-88820929D01*
X14269030Y-88794476D01*
X14255436Y-88782491D01*
X14240955Y-88769724D01*
X14238028Y-88767061D01*
X14156033Y-88690062D01*
X14156026Y-88690056D01*
X14153140Y-88687346D01*
X14125982Y-88667615D01*
X14116715Y-88660191D01*
X14094497Y-88640602D01*
X14094484Y-88640592D01*
X14091518Y-88637977D01*
X13995192Y-88572514D01*
X13991973Y-88570252D01*
X13897779Y-88501816D01*
X13868342Y-88485632D01*
X13858247Y-88479446D01*
X13830455Y-88460559D01*
X13826932Y-88458764D01*
X13826927Y-88458761D01*
X13726712Y-88407700D01*
X13723212Y-88405847D01*
X13624647Y-88351659D01*
X13624640Y-88351656D01*
X13621179Y-88349753D01*
X13589956Y-88337391D01*
X13579136Y-88332506D01*
X13574314Y-88330049D01*
X13549216Y-88317261D01*
X13545492Y-88315920D01*
X13545489Y-88315919D01*
X13439687Y-88277828D01*
X13435984Y-88276429D01*
X13331385Y-88235015D01*
X13331382Y-88235014D01*
X13327702Y-88233557D01*
X13323868Y-88232573D01*
X13323860Y-88232570D01*
X13295177Y-88225206D01*
X13283831Y-88221716D01*
X13255955Y-88211680D01*
X13252233Y-88210340D01*
X13248379Y-88209479D01*
X13248360Y-88209473D01*
X13138610Y-88184941D01*
X13134762Y-88184018D01*
X13025814Y-88156045D01*
X13025804Y-88156043D01*
X13021975Y-88155060D01*
X12988638Y-88150848D01*
X12976968Y-88148811D01*
X12948060Y-88142349D01*
X12948051Y-88142348D01*
X12944192Y-88141485D01*
X12828228Y-88130523D01*
X12824341Y-88130094D01*
X12708821Y-88115500D01*
X12675246Y-88115500D01*
X12663388Y-88114941D01*
X12629949Y-88111780D01*
X12625998Y-88111904D01*
X12625992Y-88111904D01*
X12513555Y-88115438D01*
X12509597Y-88115500D01*
X12393179Y-88115500D01*
X12389254Y-88115996D01*
X12389251Y-88115996D01*
X12380169Y-88117143D01*
X12359853Y-88119710D01*
X12348033Y-88120640D01*
X12314463Y-88121695D01*
X12310558Y-88122314D01*
X12310553Y-88122314D01*
X12199453Y-88139911D01*
X12195533Y-88140468D01*
X12080025Y-88155060D01*
X12076198Y-88156043D01*
X12076191Y-88156044D01*
X12047493Y-88163413D01*
X12035866Y-88165821D01*
X12002706Y-88171073D01*
X11998913Y-88172175D01*
X11998904Y-88172177D01*
X11890934Y-88203545D01*
X11887117Y-88204589D01*
X11778145Y-88232568D01*
X11778126Y-88232574D01*
X11774298Y-88233557D01*
X11743064Y-88245924D01*
X11731857Y-88249761D01*
X11699595Y-88259134D01*
X11592753Y-88305368D01*
X11589108Y-88306878D01*
X11480821Y-88349753D01*
X11477358Y-88351657D01*
X11477349Y-88351661D01*
X11459059Y-88361716D01*
X11451388Y-88365933D01*
X11440750Y-88371145D01*
X11409913Y-88384490D01*
X11309676Y-88443770D01*
X11306255Y-88445721D01*
X11233639Y-88485643D01*
X11204221Y-88501816D01*
X11201019Y-88504142D01*
X11201018Y-88504143D01*
X11177059Y-88521550D01*
X11167138Y-88528066D01*
X11138225Y-88545166D01*
X11135104Y-88547587D01*
X11135098Y-88547591D01*
X11102950Y-88572528D01*
X11046184Y-88616560D01*
X11043067Y-88618900D01*
X10948860Y-88687346D01*
X10945976Y-88690055D01*
X10945974Y-88690056D01*
X10924377Y-88710337D01*
X10915351Y-88718046D01*
X10888819Y-88738626D01*
X10806501Y-88820944D01*
X10803660Y-88823698D01*
X10718767Y-88903418D01*
X10716244Y-88906468D01*
X10716242Y-88906470D01*
X10697353Y-88929303D01*
X10689363Y-88938082D01*
X10665626Y-88961819D01*
X10594229Y-89053863D01*
X10591794Y-89056902D01*
X10520093Y-89143572D01*
X10520088Y-89143579D01*
X10517568Y-89146625D01*
X10515449Y-89149963D01*
X10515446Y-89149968D01*
X10499575Y-89174977D01*
X10492750Y-89184688D01*
X10472166Y-89211225D01*
X10470144Y-89214644D01*
X10470142Y-89214647D01*
X10412894Y-89311448D01*
X10410826Y-89314823D01*
X10364289Y-89388154D01*
X10348438Y-89413131D01*
X10334137Y-89443523D01*
X10328589Y-89454000D01*
X10311490Y-89482913D01*
X10309917Y-89486549D01*
X10309914Y-89486554D01*
X10265238Y-89589795D01*
X10263620Y-89593378D01*
X10214044Y-89698734D01*
X10212818Y-89702508D01*
X10212817Y-89702510D01*
X10203667Y-89730669D01*
X10199471Y-89741774D01*
X10191208Y-89760869D01*
X10186134Y-89772595D01*
X10185030Y-89776395D01*
X10153649Y-89884408D01*
X10152485Y-89888191D01*
X10144107Y-89913977D01*
X10116505Y-89998928D01*
X10115762Y-90002823D01*
X10110213Y-90031914D01*
X10107442Y-90043458D01*
X10098073Y-90075706D01*
X10097455Y-90079608D01*
X10079861Y-90190693D01*
X10079180Y-90194593D01*
X10057359Y-90308980D01*
X10057110Y-90312940D01*
X10055251Y-90342493D01*
X10053948Y-90354296D01*
X10049316Y-90383545D01*
X10048695Y-90387463D01*
X10048571Y-90391419D01*
X10045038Y-90503850D01*
X10044852Y-90507788D01*
X10037540Y-90624000D01*
X508000Y-90624000D01*
X508000Y-69226000D01*
X10037540Y-69226000D01*
X10057359Y-69541020D01*
X10116505Y-69851072D01*
X10214044Y-70151266D01*
X10215731Y-70154852D01*
X10215733Y-70154856D01*
X10346750Y-70433283D01*
X10346754Y-70433290D01*
X10348438Y-70436869D01*
X10517568Y-70703375D01*
X10718767Y-70946582D01*
X10948860Y-71162654D01*
X11204221Y-71348184D01*
X11480821Y-71500247D01*
X11484490Y-71501700D01*
X11484495Y-71501702D01*
X11770628Y-71614990D01*
X11774298Y-71616443D01*
X12080025Y-71694940D01*
X12393179Y-71734500D01*
X12708821Y-71734500D01*
X13021975Y-71694940D01*
X13327702Y-71616443D01*
X13331372Y-71614990D01*
X13617505Y-71501702D01*
X13617510Y-71501700D01*
X13621179Y-71500247D01*
X13897779Y-71348184D01*
X14153140Y-71162654D01*
X14383233Y-70946582D01*
X14584432Y-70703375D01*
X14753562Y-70436869D01*
X14755246Y-70433290D01*
X14755250Y-70433283D01*
X14886267Y-70154856D01*
X14886269Y-70154852D01*
X14887956Y-70151266D01*
X14985495Y-69851072D01*
X15044641Y-69541020D01*
X15053641Y-69397967D01*
X18271500Y-69397967D01*
X18278255Y-69460149D01*
X18329385Y-69596538D01*
X18416739Y-69713094D01*
X18533295Y-69800448D01*
X18669684Y-69851578D01*
X18731866Y-69858333D01*
X61358589Y-69858333D01*
X61426710Y-69878335D01*
X61447684Y-69895238D01*
X67546929Y-75994483D01*
X67549683Y-75997324D01*
X67629418Y-76082233D01*
X67632469Y-76084757D01*
X67719139Y-76156456D01*
X67722150Y-76159028D01*
X67806505Y-76233399D01*
X67806511Y-76233404D01*
X67809482Y-76236023D01*
X67837254Y-76254897D01*
X67846741Y-76262020D01*
X67869565Y-76280901D01*
X67869570Y-76280904D01*
X67872625Y-76283432D01*
X67970939Y-76345824D01*
X67974247Y-76347997D01*
X68067263Y-76411211D01*
X68067268Y-76411214D01*
X68070545Y-76413441D01*
X68074071Y-76415237D01*
X68074075Y-76415240D01*
X68084968Y-76420790D01*
X68100469Y-76428688D01*
X68110770Y-76434564D01*
X68139131Y-76452562D01*
X68244512Y-76502150D01*
X68248013Y-76503865D01*
X68351785Y-76556739D01*
X68355508Y-76558079D01*
X68355514Y-76558082D01*
X68383385Y-76568117D01*
X68394348Y-76572658D01*
X68421144Y-76585267D01*
X68421148Y-76585269D01*
X68424734Y-76586956D01*
X68428500Y-76588180D01*
X68428511Y-76588184D01*
X68502907Y-76612356D01*
X68535477Y-76622939D01*
X68539159Y-76624198D01*
X68648767Y-76663660D01*
X68677873Y-76670166D01*
X68681545Y-76670987D01*
X68692992Y-76674119D01*
X68718219Y-76682315D01*
X68724928Y-76684495D01*
X68728815Y-76685237D01*
X68728817Y-76685237D01*
X68759898Y-76691166D01*
X68839287Y-76706311D01*
X68843145Y-76707110D01*
X68952935Y-76731651D01*
X68952946Y-76731653D01*
X68956808Y-76732516D01*
X68990252Y-76735677D01*
X69001998Y-76737349D01*
X69034980Y-76743641D01*
X69108913Y-76748293D01*
X69151164Y-76750951D01*
X69155109Y-76751261D01*
X69201307Y-76755628D01*
X69271051Y-76762220D01*
X69275003Y-76762096D01*
X69275009Y-76762096D01*
X69387445Y-76758562D01*
X69391403Y-76758500D01*
X82288597Y-76758500D01*
X82292555Y-76758562D01*
X82404992Y-76762096D01*
X82404998Y-76762096D01*
X82408949Y-76762220D01*
X82524915Y-76751257D01*
X82528807Y-76750952D01*
X82645020Y-76743641D01*
X82648909Y-76742899D01*
X82648918Y-76742898D01*
X82678010Y-76737348D01*
X82689762Y-76735675D01*
X82690956Y-76735562D01*
X82723192Y-76732515D01*
X82836864Y-76707106D01*
X82840688Y-76706315D01*
X82864532Y-76701766D01*
X82955072Y-76684495D01*
X82958839Y-76683271D01*
X82958843Y-76683270D01*
X82987007Y-76674119D01*
X82998457Y-76670986D01*
X83031233Y-76663660D01*
X83140845Y-76624197D01*
X83144489Y-76622950D01*
X83170858Y-76614382D01*
X83241825Y-76612356D01*
X83298886Y-76645121D01*
X84704595Y-78050829D01*
X84738620Y-78113141D01*
X84741500Y-78139924D01*
X84741500Y-82938157D01*
X84740763Y-82951764D01*
X84736676Y-82989388D01*
X84737213Y-82995523D01*
X84741050Y-83039388D01*
X84741379Y-83044214D01*
X84741500Y-83046686D01*
X84741500Y-83049769D01*
X84741801Y-83052837D01*
X84745690Y-83092506D01*
X84745812Y-83093819D01*
X84753913Y-83186413D01*
X84755400Y-83191532D01*
X84755920Y-83196833D01*
X84757702Y-83202734D01*
X84757702Y-83202736D01*
X84764483Y-83225194D01*
X84782788Y-83285824D01*
X84783110Y-83286911D01*
X84809091Y-83376336D01*
X84811544Y-83381068D01*
X84813084Y-83386169D01*
X84815978Y-83391612D01*
X84856731Y-83468260D01*
X84857343Y-83469426D01*
X84900108Y-83551926D01*
X84903431Y-83556089D01*
X84905934Y-83560796D01*
X84964755Y-83632918D01*
X84965446Y-83633774D01*
X84996738Y-83672973D01*
X84999242Y-83675477D01*
X84999884Y-83676195D01*
X85003585Y-83680528D01*
X85030935Y-83714062D01*
X85066267Y-83743291D01*
X85075037Y-83751272D01*
X86033149Y-84709383D01*
X86042251Y-84719527D01*
X86065968Y-84749025D01*
X86070696Y-84752992D01*
X86104421Y-84781291D01*
X86108069Y-84784472D01*
X86109881Y-84786115D01*
X86112075Y-84788309D01*
X86145349Y-84815642D01*
X86146147Y-84816304D01*
X86217474Y-84876154D01*
X86222144Y-84878722D01*
X86226261Y-84882103D01*
X86284145Y-84913140D01*
X86308086Y-84925977D01*
X86309245Y-84926606D01*
X86385381Y-84968462D01*
X86385389Y-84968465D01*
X86390787Y-84971433D01*
X86395869Y-84973045D01*
X86400563Y-84975562D01*
X86489531Y-85002762D01*
X86490559Y-85003082D01*
X86579306Y-85031235D01*
X86584602Y-85031829D01*
X86589698Y-85033387D01*
X86682257Y-85042790D01*
X86683393Y-85042911D01*
X86717008Y-85046681D01*
X86729730Y-85048108D01*
X86729734Y-85048108D01*
X86733227Y-85048500D01*
X86736754Y-85048500D01*
X86737739Y-85048555D01*
X86743419Y-85049002D01*
X86772825Y-85051989D01*
X86780337Y-85052752D01*
X86780339Y-85052752D01*
X86786462Y-85053374D01*
X86832108Y-85049059D01*
X86843967Y-85048500D01*
X88092393Y-85048500D01*
X88160514Y-85068502D01*
X88172877Y-85077555D01*
X88268126Y-85156632D01*
X88461000Y-85269338D01*
X88669692Y-85349030D01*
X88674760Y-85350061D01*
X88674763Y-85350062D01*
X88782017Y-85371883D01*
X88888597Y-85393567D01*
X88893772Y-85393757D01*
X88893774Y-85393757D01*
X89106673Y-85401564D01*
X89106677Y-85401564D01*
X89111837Y-85401753D01*
X89116957Y-85401097D01*
X89116959Y-85401097D01*
X89328288Y-85374025D01*
X89328289Y-85374025D01*
X89333416Y-85373368D01*
X89338366Y-85371883D01*
X89542429Y-85310661D01*
X89542434Y-85310659D01*
X89547384Y-85309174D01*
X89747994Y-85210896D01*
X89929860Y-85081173D01*
X89942576Y-85068502D01*
X90038219Y-84973192D01*
X90088096Y-84923489D01*
X90122110Y-84876154D01*
X90215435Y-84746277D01*
X90218453Y-84742077D01*
X90234612Y-84709383D01*
X90315136Y-84546453D01*
X90315137Y-84546451D01*
X90317430Y-84541811D01*
X90382370Y-84328069D01*
X90411529Y-84106590D01*
X90413156Y-84040000D01*
X90394852Y-83817361D01*
X90340431Y-83600702D01*
X90251354Y-83395840D01*
X90211906Y-83334862D01*
X90132822Y-83212617D01*
X90132820Y-83212614D01*
X90130014Y-83208277D01*
X89979670Y-83043051D01*
X89975619Y-83039852D01*
X89975615Y-83039848D01*
X89808414Y-82907800D01*
X89808410Y-82907798D01*
X89804359Y-82904598D01*
X89608789Y-82796638D01*
X89603920Y-82794914D01*
X89603916Y-82794912D01*
X89403087Y-82723795D01*
X89403083Y-82723794D01*
X89398212Y-82722069D01*
X89393119Y-82721162D01*
X89393116Y-82721161D01*
X89183373Y-82683800D01*
X89183367Y-82683799D01*
X89178284Y-82682894D01*
X89104452Y-82681992D01*
X88960081Y-82680228D01*
X88960079Y-82680228D01*
X88954911Y-82680165D01*
X88734091Y-82713955D01*
X88521756Y-82783357D01*
X88323607Y-82886507D01*
X88319474Y-82889610D01*
X88319471Y-82889612D01*
X88164111Y-83006260D01*
X88097626Y-83031166D01*
X88088458Y-83031500D01*
X87259926Y-83031500D01*
X87191805Y-83011498D01*
X87170831Y-82994596D01*
X86795405Y-82619171D01*
X86761380Y-82556858D01*
X86758500Y-82530075D01*
X86758500Y-77731840D01*
X86759237Y-77718232D01*
X86762659Y-77686736D01*
X86762659Y-77686732D01*
X86763324Y-77680611D01*
X86758950Y-77630609D01*
X86758621Y-77625784D01*
X86758500Y-77623313D01*
X86758500Y-77620231D01*
X86754309Y-77577489D01*
X86754187Y-77576174D01*
X86746623Y-77489719D01*
X86746087Y-77483587D01*
X86744600Y-77478468D01*
X86744080Y-77473167D01*
X86717218Y-77384194D01*
X86716862Y-77382994D01*
X86690909Y-77293663D01*
X86688455Y-77288929D01*
X86686916Y-77283831D01*
X86643316Y-77201831D01*
X86642702Y-77200663D01*
X86602726Y-77123541D01*
X86602725Y-77123540D01*
X86599892Y-77118074D01*
X86596569Y-77113911D01*
X86594066Y-77109204D01*
X86535263Y-77037105D01*
X86534500Y-77036160D01*
X86503261Y-76997027D01*
X86500770Y-76994536D01*
X86500120Y-76993809D01*
X86496408Y-76989463D01*
X86472955Y-76960708D01*
X86469065Y-76955938D01*
X86464323Y-76952015D01*
X86464321Y-76952013D01*
X86433727Y-76926703D01*
X86424947Y-76918713D01*
X84905989Y-75399755D01*
X84871963Y-75337443D01*
X84877028Y-75266628D01*
X84905989Y-75221565D01*
X87193499Y-72934056D01*
X87196341Y-72931301D01*
X87278346Y-72854293D01*
X87281233Y-72851582D01*
X87355479Y-72761834D01*
X87358017Y-72758864D01*
X87432398Y-72674495D01*
X87435023Y-72671518D01*
X87453897Y-72643746D01*
X87461020Y-72634259D01*
X87479901Y-72611435D01*
X87479904Y-72611430D01*
X87482432Y-72608375D01*
X87544829Y-72510053D01*
X87546997Y-72506753D01*
X87610211Y-72413737D01*
X87610214Y-72413732D01*
X87612441Y-72410455D01*
X87627688Y-72380531D01*
X87633566Y-72370226D01*
X87649440Y-72345213D01*
X87649441Y-72345211D01*
X87651562Y-72341869D01*
X87701137Y-72236515D01*
X87702874Y-72232969D01*
X87753947Y-72132734D01*
X87753950Y-72132727D01*
X87755739Y-72129216D01*
X87757076Y-72125501D01*
X87757080Y-72125493D01*
X87767115Y-72097621D01*
X87771656Y-72086657D01*
X87784271Y-72059848D01*
X87784274Y-72059841D01*
X87785956Y-72056266D01*
X87821944Y-71945507D01*
X87823197Y-71941845D01*
X87862660Y-71832233D01*
X87869986Y-71799456D01*
X87873119Y-71788007D01*
X87882270Y-71759843D01*
X87882271Y-71759839D01*
X87883495Y-71756072D01*
X87905315Y-71641688D01*
X87906106Y-71637864D01*
X87931515Y-71524192D01*
X87934675Y-71490762D01*
X87936348Y-71479010D01*
X87941898Y-71449918D01*
X87941899Y-71449909D01*
X87942641Y-71446020D01*
X87949952Y-71329807D01*
X87950257Y-71325915D01*
X87961220Y-71209949D01*
X87959649Y-71159943D01*
X87957562Y-71093555D01*
X87957500Y-71089597D01*
X87957500Y-69308791D01*
X87957749Y-69300879D01*
X87962211Y-69229957D01*
X87962460Y-69226000D01*
X87942641Y-68910980D01*
X87883495Y-68600928D01*
X87785956Y-68300734D01*
X87784267Y-68297144D01*
X87653250Y-68018717D01*
X87653246Y-68018710D01*
X87651562Y-68015131D01*
X87482432Y-67748625D01*
X87281233Y-67505418D01*
X87051140Y-67289346D01*
X86795779Y-67103816D01*
X86519179Y-66951753D01*
X86515510Y-66950300D01*
X86515505Y-66950298D01*
X86229372Y-66837010D01*
X86229371Y-66837010D01*
X86225702Y-66835557D01*
X85919975Y-66757060D01*
X85606821Y-66717500D01*
X85291179Y-66717500D01*
X84978025Y-66757060D01*
X84672298Y-66835557D01*
X84668629Y-66837010D01*
X84668628Y-66837010D01*
X84382495Y-66950298D01*
X84382490Y-66950300D01*
X84378821Y-66951753D01*
X84102221Y-67103816D01*
X83846860Y-67289346D01*
X83616767Y-67505418D01*
X83415568Y-67748625D01*
X83246438Y-68015131D01*
X83244754Y-68018710D01*
X83244750Y-68018717D01*
X83113733Y-68297144D01*
X83112044Y-68300734D01*
X83014505Y-68600928D01*
X82955359Y-68910980D01*
X82935540Y-69226000D01*
X82935789Y-69229957D01*
X82940251Y-69300879D01*
X82940500Y-69308791D01*
X82940500Y-70039755D01*
X82920498Y-70107876D01*
X82903595Y-70128850D01*
X81327851Y-71704595D01*
X81265539Y-71738620D01*
X81238756Y-71741500D01*
X70441244Y-71741500D01*
X70373123Y-71721498D01*
X70352149Y-71704595D01*
X64252904Y-65605350D01*
X64250149Y-65602508D01*
X64173126Y-65520487D01*
X64170415Y-65517600D01*
X64080680Y-65443365D01*
X64077683Y-65440805D01*
X63993328Y-65366434D01*
X63993322Y-65366429D01*
X63990351Y-65363810D01*
X63962579Y-65344936D01*
X63953092Y-65337813D01*
X63930268Y-65318932D01*
X63930263Y-65318929D01*
X63927208Y-65316401D01*
X63828886Y-65254004D01*
X63825586Y-65251836D01*
X63732570Y-65188622D01*
X63732565Y-65188619D01*
X63729288Y-65186392D01*
X63725762Y-65184596D01*
X63725758Y-65184593D01*
X63714865Y-65179043D01*
X63699364Y-65171145D01*
X63689059Y-65165267D01*
X63664046Y-65149393D01*
X63664044Y-65149392D01*
X63660702Y-65147271D01*
X63555348Y-65097696D01*
X63551802Y-65095959D01*
X63451567Y-65044886D01*
X63451560Y-65044883D01*
X63448049Y-65043094D01*
X63444334Y-65041757D01*
X63444326Y-65041753D01*
X63416454Y-65031718D01*
X63405490Y-65027177D01*
X63378681Y-65014562D01*
X63378674Y-65014559D01*
X63375099Y-65012877D01*
X63264340Y-64976889D01*
X63260678Y-64975636D01*
X63151066Y-64936173D01*
X63118289Y-64928847D01*
X63106840Y-64925714D01*
X63078676Y-64916563D01*
X63078672Y-64916562D01*
X63074905Y-64915338D01*
X62984365Y-64898067D01*
X62960521Y-64893518D01*
X62956697Y-64892727D01*
X62843025Y-64867318D01*
X62809595Y-64864158D01*
X62797843Y-64862485D01*
X62768751Y-64856935D01*
X62768742Y-64856934D01*
X62764853Y-64856192D01*
X62648640Y-64848881D01*
X62644748Y-64848576D01*
X62528782Y-64837613D01*
X62524831Y-64837737D01*
X62524825Y-64837737D01*
X62412388Y-64841271D01*
X62408430Y-64841333D01*
X18731866Y-64841333D01*
X18669684Y-64848088D01*
X18533295Y-64899218D01*
X18416739Y-64986572D01*
X18329385Y-65103128D01*
X18278255Y-65239517D01*
X18271500Y-65301699D01*
X18271500Y-69397967D01*
X15053641Y-69397967D01*
X15064460Y-69226000D01*
X15059749Y-69151119D01*
X15059500Y-69143209D01*
X15059500Y-65990244D01*
X15079502Y-65922123D01*
X15096405Y-65901149D01*
X18302150Y-62695405D01*
X18364462Y-62661379D01*
X18391245Y-62658500D01*
X32158597Y-62658500D01*
X32162555Y-62658562D01*
X32274992Y-62662096D01*
X32274998Y-62662096D01*
X32278949Y-62662220D01*
X32394915Y-62651257D01*
X32398807Y-62650952D01*
X32515020Y-62643641D01*
X32518909Y-62642899D01*
X32518918Y-62642898D01*
X32548010Y-62637348D01*
X32559762Y-62635675D01*
X32560956Y-62635562D01*
X32593192Y-62632515D01*
X32706864Y-62607106D01*
X32710688Y-62606315D01*
X32734532Y-62601766D01*
X32825072Y-62584495D01*
X32828839Y-62583271D01*
X32828843Y-62583270D01*
X32857007Y-62574119D01*
X32868457Y-62570986D01*
X32901233Y-62563660D01*
X33010845Y-62524197D01*
X33014507Y-62522944D01*
X33125266Y-62486956D01*
X33128841Y-62485274D01*
X33128848Y-62485271D01*
X33155657Y-62472656D01*
X33166621Y-62468115D01*
X33194493Y-62458080D01*
X33194501Y-62458076D01*
X33198216Y-62456739D01*
X33201727Y-62454950D01*
X33201734Y-62454947D01*
X33301969Y-62403874D01*
X33305524Y-62402133D01*
X33407284Y-62354249D01*
X33407285Y-62354249D01*
X33410869Y-62352562D01*
X33439230Y-62334564D01*
X33449531Y-62328688D01*
X33465032Y-62320790D01*
X33475925Y-62315240D01*
X33475929Y-62315237D01*
X33479455Y-62313441D01*
X33482732Y-62311214D01*
X33482737Y-62311211D01*
X33575753Y-62247997D01*
X33579061Y-62245824D01*
X33677375Y-62183432D01*
X33680430Y-62180904D01*
X33680435Y-62180901D01*
X33703259Y-62162020D01*
X33712746Y-62154897D01*
X33740518Y-62136023D01*
X33743489Y-62133404D01*
X33743495Y-62133399D01*
X33827850Y-62059028D01*
X33830861Y-62056456D01*
X33917531Y-61984757D01*
X33920582Y-61982233D01*
X34000317Y-61897324D01*
X34003071Y-61894483D01*
X39336317Y-56561238D01*
X39398629Y-56527212D01*
X39425412Y-56524333D01*
X83218764Y-56524333D01*
X83222722Y-56524395D01*
X83335159Y-56527929D01*
X83335165Y-56527929D01*
X83339116Y-56528053D01*
X83455082Y-56517090D01*
X83458974Y-56516785D01*
X83575187Y-56509474D01*
X83579076Y-56508732D01*
X83579085Y-56508731D01*
X83608177Y-56503181D01*
X83619929Y-56501508D01*
X83621123Y-56501395D01*
X83653359Y-56498348D01*
X83767031Y-56472939D01*
X83770855Y-56472148D01*
X83800735Y-56466448D01*
X83885239Y-56450328D01*
X83889006Y-56449104D01*
X83889010Y-56449103D01*
X83917174Y-56439952D01*
X83928624Y-56436819D01*
X83961400Y-56429493D01*
X84071012Y-56390030D01*
X84074674Y-56388777D01*
X84185433Y-56352789D01*
X84189008Y-56351107D01*
X84189015Y-56351104D01*
X84215824Y-56338489D01*
X84226788Y-56333948D01*
X84254660Y-56323913D01*
X84254668Y-56323909D01*
X84258383Y-56322572D01*
X84261894Y-56320783D01*
X84261901Y-56320780D01*
X84362103Y-56269724D01*
X84362144Y-56269703D01*
X84365691Y-56267966D01*
X84377227Y-56262538D01*
X84471036Y-56218395D01*
X84499400Y-56200395D01*
X84509698Y-56194521D01*
X84525199Y-56186623D01*
X84536092Y-56181073D01*
X84536096Y-56181070D01*
X84539622Y-56179274D01*
X84542899Y-56177047D01*
X84542904Y-56177044D01*
X84635920Y-56113830D01*
X84639228Y-56111657D01*
X84737542Y-56049265D01*
X84740597Y-56046737D01*
X84740602Y-56046734D01*
X84763426Y-56027853D01*
X84772913Y-56020730D01*
X84800685Y-56001856D01*
X84803656Y-55999237D01*
X84803662Y-55999232D01*
X84888017Y-55924861D01*
X84891028Y-55922289D01*
X84891041Y-55922279D01*
X84980749Y-55848066D01*
X85060484Y-55763157D01*
X85063238Y-55760316D01*
X87193499Y-53630056D01*
X87196341Y-53627301D01*
X87278346Y-53550293D01*
X87281233Y-53547582D01*
X87355479Y-53457834D01*
X87358017Y-53454864D01*
X87432398Y-53370495D01*
X87435023Y-53367518D01*
X87453897Y-53339746D01*
X87461020Y-53330259D01*
X87479901Y-53307435D01*
X87479904Y-53307430D01*
X87482432Y-53304375D01*
X87544837Y-53206040D01*
X87547005Y-53202740D01*
X87610215Y-53109729D01*
X87612440Y-53106455D01*
X87627689Y-53076528D01*
X87633562Y-53066233D01*
X87651562Y-53037869D01*
X87701142Y-52932505D01*
X87702879Y-52928959D01*
X87753947Y-52828734D01*
X87753950Y-52828727D01*
X87755739Y-52825216D01*
X87757076Y-52821501D01*
X87757080Y-52821493D01*
X87767115Y-52793621D01*
X87771656Y-52782657D01*
X87784271Y-52755848D01*
X87784274Y-52755841D01*
X87785956Y-52752266D01*
X87821944Y-52641507D01*
X87823197Y-52637845D01*
X87862660Y-52528233D01*
X87869986Y-52495456D01*
X87873119Y-52484007D01*
X87882270Y-52455843D01*
X87882271Y-52455839D01*
X87883495Y-52452072D01*
X87905315Y-52337688D01*
X87906106Y-52333864D01*
X87931515Y-52220192D01*
X87934675Y-52186758D01*
X87936348Y-52175007D01*
X87941898Y-52145916D01*
X87941898Y-52145913D01*
X87942641Y-52142020D01*
X87949953Y-52025804D01*
X87950263Y-52021859D01*
X87960846Y-51909892D01*
X87961219Y-51905949D01*
X87958374Y-51815398D01*
X87957562Y-51789575D01*
X87957500Y-51785617D01*
X87957500Y-50004791D01*
X87957749Y-49996879D01*
X87962211Y-49925957D01*
X87962460Y-49922000D01*
X87942641Y-49606980D01*
X87883495Y-49296928D01*
X87785956Y-48996734D01*
X87784267Y-48993144D01*
X87653250Y-48714717D01*
X87653246Y-48714710D01*
X87651562Y-48711131D01*
X87482432Y-48444625D01*
X87281233Y-48201418D01*
X87051140Y-47985346D01*
X86795779Y-47799816D01*
X86519179Y-47647753D01*
X86515510Y-47646300D01*
X86515505Y-47646298D01*
X86229372Y-47533010D01*
X86229371Y-47533010D01*
X86225702Y-47531557D01*
X85919975Y-47453060D01*
X85606821Y-47413500D01*
X85291179Y-47413500D01*
X84978025Y-47453060D01*
X84672298Y-47531557D01*
X84668629Y-47533010D01*
X84668628Y-47533010D01*
X84382495Y-47646298D01*
X84382490Y-47646300D01*
X84378821Y-47647753D01*
X84102221Y-47799816D01*
X83846860Y-47985346D01*
X83616767Y-48201418D01*
X83415568Y-48444625D01*
X83246438Y-48711131D01*
X83244754Y-48714710D01*
X83244750Y-48714717D01*
X83113733Y-48993144D01*
X83112044Y-48996734D01*
X83014505Y-49296928D01*
X82955359Y-49606980D01*
X82935540Y-49922000D01*
X82935789Y-49925957D01*
X82940251Y-49996879D01*
X82940500Y-50004791D01*
X82940500Y-50735754D01*
X82920498Y-50803875D01*
X82903596Y-50824849D01*
X82258018Y-51470428D01*
X82195705Y-51504453D01*
X82168922Y-51507333D01*
X38375550Y-51507333D01*
X38371592Y-51507271D01*
X38259176Y-51503738D01*
X38259170Y-51503738D01*
X38255218Y-51503614D01*
X38185515Y-51510203D01*
X38139308Y-51514570D01*
X38135363Y-51514880D01*
X38093094Y-51517540D01*
X38019147Y-51522192D01*
X38015254Y-51522935D01*
X38015251Y-51522935D01*
X38005853Y-51524728D01*
X37986151Y-51528486D01*
X37974409Y-51530158D01*
X37940975Y-51533318D01*
X37827303Y-51558727D01*
X37823479Y-51559518D01*
X37799635Y-51564067D01*
X37709095Y-51581338D01*
X37705328Y-51582562D01*
X37705324Y-51582563D01*
X37677160Y-51591714D01*
X37665711Y-51594847D01*
X37632934Y-51602173D01*
X37523322Y-51641636D01*
X37519660Y-51642889D01*
X37408901Y-51678877D01*
X37405326Y-51680559D01*
X37405319Y-51680562D01*
X37378510Y-51693177D01*
X37367546Y-51697718D01*
X37339674Y-51707753D01*
X37339666Y-51707757D01*
X37335951Y-51709094D01*
X37332440Y-51710883D01*
X37332433Y-51710886D01*
X37256222Y-51749718D01*
X37232232Y-51761942D01*
X37232208Y-51761954D01*
X37228662Y-51763691D01*
X37123298Y-51813271D01*
X37094934Y-51831271D01*
X37084639Y-51837144D01*
X37054712Y-51852393D01*
X36970105Y-51909892D01*
X36958427Y-51917828D01*
X36955127Y-51919996D01*
X36856792Y-51982401D01*
X36853737Y-51984929D01*
X36853732Y-51984932D01*
X36830908Y-52003813D01*
X36821421Y-52010936D01*
X36793649Y-52029810D01*
X36790672Y-52032435D01*
X36706303Y-52106816D01*
X36703333Y-52109354D01*
X36613585Y-52183600D01*
X36610874Y-52186487D01*
X36533866Y-52268492D01*
X36531111Y-52271334D01*
X31197851Y-57604595D01*
X31135539Y-57638621D01*
X31108756Y-57641500D01*
X17341383Y-57641500D01*
X17337425Y-57641438D01*
X17225009Y-57637905D01*
X17225003Y-57637905D01*
X17221051Y-57637781D01*
X17151348Y-57644370D01*
X17105141Y-57648737D01*
X17101196Y-57649047D01*
X17058927Y-57651707D01*
X16984980Y-57656359D01*
X16981087Y-57657102D01*
X16981084Y-57657102D01*
X16971686Y-57658895D01*
X16951984Y-57662653D01*
X16940242Y-57664325D01*
X16906808Y-57667485D01*
X16793136Y-57692894D01*
X16789312Y-57693685D01*
X16765468Y-57698234D01*
X16674928Y-57715505D01*
X16671161Y-57716729D01*
X16671157Y-57716730D01*
X16642993Y-57725881D01*
X16631544Y-57729014D01*
X16598767Y-57736340D01*
X16489155Y-57775803D01*
X16485493Y-57777056D01*
X16374734Y-57813044D01*
X16371159Y-57814726D01*
X16371152Y-57814729D01*
X16344343Y-57827344D01*
X16333379Y-57831885D01*
X16305507Y-57841920D01*
X16305499Y-57841924D01*
X16301784Y-57843261D01*
X16298273Y-57845050D01*
X16298266Y-57845053D01*
X16198041Y-57896121D01*
X16194495Y-57897858D01*
X16089131Y-57947438D01*
X16060767Y-57965438D01*
X16050472Y-57971311D01*
X16020545Y-57986560D01*
X16017271Y-57988785D01*
X15924260Y-58051995D01*
X15920960Y-58054163D01*
X15822625Y-58116568D01*
X15819570Y-58119096D01*
X15819565Y-58119099D01*
X15796741Y-58137980D01*
X15787254Y-58145103D01*
X15759482Y-58163977D01*
X15756505Y-58166602D01*
X15672136Y-58240983D01*
X15669166Y-58243521D01*
X15579418Y-58317767D01*
X15576707Y-58320654D01*
X15499699Y-58402659D01*
X15496944Y-58405501D01*
X10806517Y-63095929D01*
X10803676Y-63098683D01*
X10718767Y-63178418D01*
X10716243Y-63181469D01*
X10644544Y-63268139D01*
X10641972Y-63271150D01*
X10567601Y-63355505D01*
X10567596Y-63355511D01*
X10564977Y-63358482D01*
X10562751Y-63361758D01*
X10546107Y-63386249D01*
X10538980Y-63395741D01*
X10520099Y-63418565D01*
X10517568Y-63421625D01*
X10455176Y-63519939D01*
X10453008Y-63523239D01*
X10387559Y-63619545D01*
X10372312Y-63649469D01*
X10366436Y-63659770D01*
X10348438Y-63688131D01*
X10346751Y-63691715D01*
X10346751Y-63691716D01*
X10298867Y-63793476D01*
X10297126Y-63797031D01*
X10246053Y-63897266D01*
X10246050Y-63897273D01*
X10244261Y-63900784D01*
X10242924Y-63904499D01*
X10242920Y-63904507D01*
X10232885Y-63932379D01*
X10228344Y-63943343D01*
X10215729Y-63970152D01*
X10215726Y-63970159D01*
X10214044Y-63973734D01*
X10178056Y-64084493D01*
X10176803Y-64088155D01*
X10137340Y-64197767D01*
X10130014Y-64230543D01*
X10126881Y-64241993D01*
X10117730Y-64270157D01*
X10116505Y-64273928D01*
X10099234Y-64364468D01*
X10094685Y-64388312D01*
X10093894Y-64392136D01*
X10068485Y-64505808D01*
X10066697Y-64524724D01*
X10065325Y-64539238D01*
X10063652Y-64550990D01*
X10058102Y-64580082D01*
X10058101Y-64580091D01*
X10057359Y-64583980D01*
X10054207Y-64634094D01*
X10050050Y-64700169D01*
X10049743Y-64704085D01*
X10038780Y-64820051D01*
X10038904Y-64824002D01*
X10038904Y-64824008D01*
X10042438Y-64936445D01*
X10042500Y-64940403D01*
X10042500Y-69143209D01*
X10042251Y-69151119D01*
X10037540Y-69226000D01*
X508000Y-69226000D01*
X508000Y-49922000D01*
X10037540Y-49922000D01*
X10037789Y-49925957D01*
X10042251Y-49996879D01*
X10042500Y-50004791D01*
X10042500Y-51785597D01*
X10042438Y-51789555D01*
X10038780Y-51905949D01*
X10049743Y-52021915D01*
X10050048Y-52025804D01*
X10057359Y-52142020D01*
X10058101Y-52145909D01*
X10058102Y-52145918D01*
X10063652Y-52175010D01*
X10065325Y-52186761D01*
X10068485Y-52220192D01*
X10093894Y-52333864D01*
X10094685Y-52337688D01*
X10116505Y-52452072D01*
X10117729Y-52455839D01*
X10117730Y-52455843D01*
X10126881Y-52484007D01*
X10130014Y-52495456D01*
X10137340Y-52528233D01*
X10176803Y-52637845D01*
X10178056Y-52641507D01*
X10214044Y-52752266D01*
X10215726Y-52755841D01*
X10215729Y-52755848D01*
X10228344Y-52782657D01*
X10232885Y-52793621D01*
X10242920Y-52821493D01*
X10242924Y-52821501D01*
X10244261Y-52825216D01*
X10246050Y-52828727D01*
X10246053Y-52828734D01*
X10297126Y-52928969D01*
X10298862Y-52932514D01*
X10348438Y-53037869D01*
X10350559Y-53041211D01*
X10350560Y-53041213D01*
X10366434Y-53066226D01*
X10372312Y-53076531D01*
X10387559Y-53106455D01*
X10389784Y-53109729D01*
X10389789Y-53109737D01*
X10453003Y-53202753D01*
X10455171Y-53206053D01*
X10517568Y-53304375D01*
X10520096Y-53307430D01*
X10520099Y-53307435D01*
X10538980Y-53330259D01*
X10546103Y-53339746D01*
X10564977Y-53367518D01*
X10567596Y-53370489D01*
X10567601Y-53370495D01*
X10641972Y-53454850D01*
X10644532Y-53457847D01*
X10718767Y-53547582D01*
X10721654Y-53550293D01*
X10803675Y-53627316D01*
X10806517Y-53630071D01*
X12936777Y-55760332D01*
X12939531Y-55763173D01*
X13019251Y-55848066D01*
X13108999Y-55922312D01*
X13111966Y-55924847D01*
X13199315Y-56001856D01*
X13227087Y-56020730D01*
X13236574Y-56027853D01*
X13259398Y-56046734D01*
X13259403Y-56046737D01*
X13262458Y-56049265D01*
X13360772Y-56111657D01*
X13360785Y-56111665D01*
X13364081Y-56113830D01*
X13460378Y-56179273D01*
X13490305Y-56194522D01*
X13500597Y-56200394D01*
X13528964Y-56218395D01*
X13532549Y-56220082D01*
X13532553Y-56220084D01*
X13634319Y-56267971D01*
X13637864Y-56269707D01*
X13661888Y-56281948D01*
X13738099Y-56320780D01*
X13738106Y-56320783D01*
X13741617Y-56322572D01*
X13745332Y-56323909D01*
X13745340Y-56323913D01*
X13773212Y-56333948D01*
X13784176Y-56338489D01*
X13810985Y-56351104D01*
X13810992Y-56351107D01*
X13814567Y-56352789D01*
X13925326Y-56388777D01*
X13928988Y-56390030D01*
X14038600Y-56429493D01*
X14071376Y-56436819D01*
X14082826Y-56439952D01*
X14110990Y-56449103D01*
X14110994Y-56449104D01*
X14114761Y-56450328D01*
X14199265Y-56466448D01*
X14229145Y-56472148D01*
X14232969Y-56472939D01*
X14346641Y-56498348D01*
X14380075Y-56501508D01*
X14391817Y-56503180D01*
X14411519Y-56506938D01*
X14420917Y-56508731D01*
X14420920Y-56508731D01*
X14424813Y-56509474D01*
X14498760Y-56514126D01*
X14541029Y-56516786D01*
X14544974Y-56517096D01*
X14591181Y-56521463D01*
X14660884Y-56528052D01*
X14664836Y-56527928D01*
X14664842Y-56527928D01*
X14777258Y-56524395D01*
X14781216Y-56524333D01*
X22828134Y-56524333D01*
X22890316Y-56517578D01*
X23026705Y-56466448D01*
X23143261Y-56379094D01*
X23230615Y-56262538D01*
X23281745Y-56126149D01*
X23288500Y-56063967D01*
X23288500Y-51967699D01*
X23281745Y-51905517D01*
X23230615Y-51769128D01*
X23143261Y-51652572D01*
X23026705Y-51565218D01*
X22890316Y-51514088D01*
X22828134Y-51507333D01*
X15831079Y-51507333D01*
X15762958Y-51487331D01*
X15741984Y-51470429D01*
X15096405Y-50824851D01*
X15062380Y-50762538D01*
X15059500Y-50735755D01*
X15059500Y-50004791D01*
X15059749Y-49996879D01*
X15064211Y-49925957D01*
X15064460Y-49922000D01*
X15044641Y-49606980D01*
X14985495Y-49296928D01*
X14887956Y-48996734D01*
X14886267Y-48993144D01*
X14755250Y-48714717D01*
X14755246Y-48714710D01*
X14753562Y-48711131D01*
X14584432Y-48444625D01*
X14383233Y-48201418D01*
X14153140Y-47985346D01*
X13897779Y-47799816D01*
X13621179Y-47647753D01*
X13617510Y-47646300D01*
X13617505Y-47646298D01*
X13331372Y-47533010D01*
X13331371Y-47533010D01*
X13327702Y-47531557D01*
X13021975Y-47453060D01*
X12708821Y-47413500D01*
X12393179Y-47413500D01*
X12080025Y-47453060D01*
X11774298Y-47531557D01*
X11770629Y-47533010D01*
X11770628Y-47533010D01*
X11484495Y-47646298D01*
X11484490Y-47646300D01*
X11480821Y-47647753D01*
X11204221Y-47799816D01*
X10948860Y-47985346D01*
X10718767Y-48201418D01*
X10517568Y-48444625D01*
X10348438Y-48711131D01*
X10346754Y-48714710D01*
X10346750Y-48714717D01*
X10215733Y-48993144D01*
X10214044Y-48996734D01*
X10116505Y-49296928D01*
X10057359Y-49606980D01*
X10037540Y-49922000D01*
X508000Y-49922000D01*
X508000Y-30618000D01*
X10037540Y-30618000D01*
X10057359Y-30933020D01*
X10116505Y-31243072D01*
X10117732Y-31246848D01*
X10189901Y-31468960D01*
X10214044Y-31543266D01*
X10215731Y-31546852D01*
X10215733Y-31546856D01*
X10346750Y-31825283D01*
X10346754Y-31825290D01*
X10348438Y-31828869D01*
X10517568Y-32095375D01*
X10718767Y-32338582D01*
X10948860Y-32554654D01*
X11204221Y-32740184D01*
X11480821Y-32892247D01*
X11484490Y-32893700D01*
X11484495Y-32893702D01*
X11770628Y-33006990D01*
X11774298Y-33008443D01*
X12080025Y-33086940D01*
X12393179Y-33126500D01*
X12708821Y-33126500D01*
X13021975Y-33086940D01*
X13327702Y-33008443D01*
X13331372Y-33006990D01*
X13617505Y-32893702D01*
X13617510Y-32893700D01*
X13621179Y-32892247D01*
X13897779Y-32740184D01*
X14153140Y-32554654D01*
X14383233Y-32338582D01*
X14584432Y-32095375D01*
X14753562Y-31828869D01*
X14755246Y-31825290D01*
X14755250Y-31825283D01*
X14886267Y-31546856D01*
X14886269Y-31546852D01*
X14887956Y-31543266D01*
X14912100Y-31468960D01*
X14929751Y-31414634D01*
X18271499Y-31414634D01*
X18278254Y-31476816D01*
X18329384Y-31613205D01*
X18416738Y-31729761D01*
X18533294Y-31817115D01*
X18669683Y-31868245D01*
X18731865Y-31875000D01*
X46425256Y-31875000D01*
X46493377Y-31895002D01*
X46514351Y-31911905D01*
X52796929Y-38194483D01*
X52799683Y-38197324D01*
X52879418Y-38282233D01*
X52882469Y-38284757D01*
X52969139Y-38356456D01*
X52972150Y-38359028D01*
X53056505Y-38433399D01*
X53056511Y-38433404D01*
X53059482Y-38436023D01*
X53087254Y-38454897D01*
X53096741Y-38462020D01*
X53119565Y-38480901D01*
X53119570Y-38480904D01*
X53122625Y-38483432D01*
X53220939Y-38545824D01*
X53224247Y-38547997D01*
X53317263Y-38611211D01*
X53317268Y-38611214D01*
X53320545Y-38613441D01*
X53324071Y-38615237D01*
X53324075Y-38615240D01*
X53334968Y-38620790D01*
X53350469Y-38628688D01*
X53360770Y-38634564D01*
X53389131Y-38652562D01*
X53494512Y-38702150D01*
X53498013Y-38703865D01*
X53601785Y-38756739D01*
X53605508Y-38758079D01*
X53605514Y-38758082D01*
X53633385Y-38768117D01*
X53644348Y-38772658D01*
X53671144Y-38785267D01*
X53671148Y-38785269D01*
X53674734Y-38786956D01*
X53678498Y-38788179D01*
X53678511Y-38788184D01*
X53761264Y-38815071D01*
X53785477Y-38822939D01*
X53789159Y-38824198D01*
X53898767Y-38863660D01*
X53927873Y-38870166D01*
X53931545Y-38870987D01*
X53942992Y-38874119D01*
X53968219Y-38882315D01*
X53974928Y-38884495D01*
X53978815Y-38885237D01*
X53978817Y-38885237D01*
X54009898Y-38891166D01*
X54089287Y-38906311D01*
X54093145Y-38907110D01*
X54202935Y-38931651D01*
X54202946Y-38931653D01*
X54206808Y-38932516D01*
X54240252Y-38935677D01*
X54251998Y-38937349D01*
X54284980Y-38943641D01*
X54358913Y-38948293D01*
X54401164Y-38950951D01*
X54405109Y-38951261D01*
X54451307Y-38955628D01*
X54521051Y-38962220D01*
X54525003Y-38962096D01*
X54525009Y-38962096D01*
X54637445Y-38958562D01*
X54641403Y-38958500D01*
X81480597Y-38958500D01*
X81484555Y-38958562D01*
X81596992Y-38962096D01*
X81596998Y-38962096D01*
X81600949Y-38962220D01*
X81716915Y-38951257D01*
X81720807Y-38950952D01*
X81837020Y-38943641D01*
X81840909Y-38942899D01*
X81840918Y-38942898D01*
X81870010Y-38937348D01*
X81881762Y-38935675D01*
X81882956Y-38935562D01*
X81915192Y-38932515D01*
X82028864Y-38907106D01*
X82032688Y-38906315D01*
X82056532Y-38901766D01*
X82147072Y-38884495D01*
X82150839Y-38883271D01*
X82150843Y-38883270D01*
X82179007Y-38874119D01*
X82190457Y-38870986D01*
X82223233Y-38863660D01*
X82332845Y-38824197D01*
X82336507Y-38822944D01*
X82447266Y-38786956D01*
X82450841Y-38785274D01*
X82450848Y-38785271D01*
X82477657Y-38772656D01*
X82488621Y-38768115D01*
X82516493Y-38758080D01*
X82516501Y-38758076D01*
X82520216Y-38756739D01*
X82523727Y-38754950D01*
X82523734Y-38754947D01*
X82600018Y-38716078D01*
X82623977Y-38703870D01*
X82627524Y-38702133D01*
X82729284Y-38654249D01*
X82729285Y-38654249D01*
X82732869Y-38652562D01*
X82761230Y-38634564D01*
X82771531Y-38628688D01*
X82787032Y-38620790D01*
X82797925Y-38615240D01*
X82797929Y-38615237D01*
X82801455Y-38613441D01*
X82804732Y-38611214D01*
X82804737Y-38611211D01*
X82897753Y-38547997D01*
X82901061Y-38545824D01*
X82999375Y-38483432D01*
X83002430Y-38480904D01*
X83002435Y-38480901D01*
X83025259Y-38462020D01*
X83034746Y-38454897D01*
X83062518Y-38436023D01*
X83065489Y-38433404D01*
X83065495Y-38433399D01*
X83149850Y-38359028D01*
X83152861Y-38356456D01*
X83239531Y-38284757D01*
X83242582Y-38282233D01*
X83322317Y-38197324D01*
X83325071Y-38194483D01*
X87193483Y-34326071D01*
X87196325Y-34323316D01*
X87278346Y-34246293D01*
X87281233Y-34243582D01*
X87355484Y-34153828D01*
X87358014Y-34150866D01*
X87435023Y-34063517D01*
X87453898Y-34035744D01*
X87461024Y-34026253D01*
X87482432Y-34000375D01*
X87544818Y-33902071D01*
X87546991Y-33898763D01*
X87610209Y-33805740D01*
X87610212Y-33805734D01*
X87612441Y-33802455D01*
X87627687Y-33772531D01*
X87633565Y-33762227D01*
X87649443Y-33737208D01*
X87651562Y-33733869D01*
X87701143Y-33628505D01*
X87702858Y-33625003D01*
X87755740Y-33521215D01*
X87767117Y-33489613D01*
X87771659Y-33478649D01*
X87784272Y-33451844D01*
X87785956Y-33448266D01*
X87821935Y-33337536D01*
X87823217Y-33333793D01*
X87861315Y-33227971D01*
X87861318Y-33227960D01*
X87862660Y-33224233D01*
X87869986Y-33191461D01*
X87873117Y-33180016D01*
X87882269Y-33151847D01*
X87882271Y-33151839D01*
X87883495Y-33148072D01*
X87895062Y-33087437D01*
X87905311Y-33033709D01*
X87906114Y-33029833D01*
X87930651Y-32920061D01*
X87930651Y-32920060D01*
X87931516Y-32916191D01*
X87933780Y-32892247D01*
X87934677Y-32882751D01*
X87936350Y-32870998D01*
X87941897Y-32841919D01*
X87942641Y-32838020D01*
X87949951Y-32721835D01*
X87950261Y-32717890D01*
X87960847Y-32605892D01*
X87961220Y-32601949D01*
X87959649Y-32551943D01*
X87957562Y-32485555D01*
X87957500Y-32481597D01*
X87957500Y-30700791D01*
X87957749Y-30692879D01*
X87962211Y-30621957D01*
X87962460Y-30618000D01*
X87942641Y-30302980D01*
X87883495Y-29992928D01*
X87785956Y-29692734D01*
X87784267Y-29689144D01*
X87653250Y-29410717D01*
X87653246Y-29410710D01*
X87651562Y-29407131D01*
X87482432Y-29140625D01*
X87281233Y-28897418D01*
X87051140Y-28681346D01*
X86795779Y-28495816D01*
X86519179Y-28343753D01*
X86515510Y-28342300D01*
X86515505Y-28342298D01*
X86229372Y-28229010D01*
X86229371Y-28229010D01*
X86225702Y-28227557D01*
X85919975Y-28149060D01*
X85606821Y-28109500D01*
X85291179Y-28109500D01*
X84978025Y-28149060D01*
X84672298Y-28227557D01*
X84668629Y-28229010D01*
X84668628Y-28229010D01*
X84382495Y-28342298D01*
X84382490Y-28342300D01*
X84378821Y-28343753D01*
X84102221Y-28495816D01*
X83846860Y-28681346D01*
X83616767Y-28897418D01*
X83415568Y-29140625D01*
X83246438Y-29407131D01*
X83244754Y-29410710D01*
X83244750Y-29410717D01*
X83113733Y-29689144D01*
X83112044Y-29692734D01*
X83014505Y-29992928D01*
X82955359Y-30302980D01*
X82935540Y-30618000D01*
X82935789Y-30621957D01*
X82940251Y-30692879D01*
X82940500Y-30700791D01*
X82940500Y-31431756D01*
X82920498Y-31499877D01*
X82903595Y-31520851D01*
X80519851Y-33904595D01*
X80457539Y-33938621D01*
X80430756Y-33941500D01*
X55691244Y-33941500D01*
X55623123Y-33921498D01*
X55602149Y-33904595D01*
X49319571Y-27622017D01*
X49316816Y-27619175D01*
X49239793Y-27537154D01*
X49237082Y-27534267D01*
X49147347Y-27460032D01*
X49144350Y-27457472D01*
X49059995Y-27383101D01*
X49059989Y-27383096D01*
X49057018Y-27380477D01*
X49029246Y-27361603D01*
X49019759Y-27354480D01*
X48996935Y-27335599D01*
X48996930Y-27335596D01*
X48993875Y-27333068D01*
X48895553Y-27270671D01*
X48892253Y-27268503D01*
X48799237Y-27205289D01*
X48799232Y-27205286D01*
X48795955Y-27203059D01*
X48792429Y-27201263D01*
X48792425Y-27201260D01*
X48781532Y-27195710D01*
X48766031Y-27187812D01*
X48755726Y-27181934D01*
X48730713Y-27166060D01*
X48730711Y-27166059D01*
X48727369Y-27163938D01*
X48622015Y-27114363D01*
X48618469Y-27112626D01*
X48518234Y-27061553D01*
X48518227Y-27061550D01*
X48514716Y-27059761D01*
X48511001Y-27058424D01*
X48510993Y-27058420D01*
X48483121Y-27048385D01*
X48472157Y-27043844D01*
X48445348Y-27031229D01*
X48445341Y-27031226D01*
X48441766Y-27029544D01*
X48331007Y-26993556D01*
X48327345Y-26992303D01*
X48217733Y-26952840D01*
X48184956Y-26945514D01*
X48173507Y-26942381D01*
X48145343Y-26933230D01*
X48145339Y-26933229D01*
X48141572Y-26932005D01*
X48051032Y-26914734D01*
X48027188Y-26910185D01*
X48023364Y-26909394D01*
X47909692Y-26883985D01*
X47876262Y-26880825D01*
X47864510Y-26879152D01*
X47835418Y-26873602D01*
X47835409Y-26873601D01*
X47831520Y-26872859D01*
X47715307Y-26865548D01*
X47711415Y-26865243D01*
X47595449Y-26854280D01*
X47591498Y-26854404D01*
X47591492Y-26854404D01*
X47479055Y-26857938D01*
X47475097Y-26858000D01*
X18731865Y-26858000D01*
X18669683Y-26864755D01*
X18533294Y-26915885D01*
X18416738Y-27003239D01*
X18329384Y-27119795D01*
X18278254Y-27256184D01*
X18271499Y-27318366D01*
X18271499Y-31414634D01*
X14929751Y-31414634D01*
X14984268Y-31246848D01*
X14985495Y-31243072D01*
X15044641Y-30933020D01*
X15064460Y-30618000D01*
X15059749Y-30543119D01*
X15059500Y-30535209D01*
X15059500Y-28140244D01*
X15079502Y-28072123D01*
X15096405Y-28051149D01*
X17552150Y-25595405D01*
X17614462Y-25561379D01*
X17641245Y-25558500D01*
X28108597Y-25558500D01*
X28112555Y-25558562D01*
X28224992Y-25562096D01*
X28224998Y-25562096D01*
X28228949Y-25562220D01*
X28344915Y-25551257D01*
X28348807Y-25550952D01*
X28465020Y-25543641D01*
X28468909Y-25542899D01*
X28468918Y-25542898D01*
X28498010Y-25537348D01*
X28509762Y-25535675D01*
X28510956Y-25535562D01*
X28543192Y-25532515D01*
X28656864Y-25507106D01*
X28660688Y-25506315D01*
X28684532Y-25501766D01*
X28775072Y-25484495D01*
X28778839Y-25483271D01*
X28778843Y-25483270D01*
X28807007Y-25474119D01*
X28818457Y-25470986D01*
X28851233Y-25463660D01*
X28960845Y-25424197D01*
X28964507Y-25422944D01*
X29075266Y-25386956D01*
X29078841Y-25385274D01*
X29078848Y-25385271D01*
X29105657Y-25372656D01*
X29116621Y-25368115D01*
X29144493Y-25358080D01*
X29144501Y-25358076D01*
X29148216Y-25356739D01*
X29151727Y-25354950D01*
X29151734Y-25354947D01*
X29251969Y-25303874D01*
X29255524Y-25302133D01*
X29357284Y-25254249D01*
X29357285Y-25254249D01*
X29360869Y-25252562D01*
X29389230Y-25234564D01*
X29399531Y-25228688D01*
X29415032Y-25220790D01*
X29425925Y-25215240D01*
X29425929Y-25215237D01*
X29429455Y-25213441D01*
X29432732Y-25211214D01*
X29432737Y-25211211D01*
X29525753Y-25147997D01*
X29529061Y-25145824D01*
X29627375Y-25083432D01*
X29630430Y-25080904D01*
X29630435Y-25080901D01*
X29653259Y-25062020D01*
X29662746Y-25054897D01*
X29690518Y-25036023D01*
X29693489Y-25033404D01*
X29693495Y-25033399D01*
X29777850Y-24959028D01*
X29780861Y-24956456D01*
X29867531Y-24884757D01*
X29870582Y-24882233D01*
X29950317Y-24797324D01*
X29953071Y-24794483D01*
X35614851Y-19132703D01*
X92890743Y-19132703D01*
X92928268Y-19417734D01*
X93004129Y-19695036D01*
X93116923Y-19959476D01*
X93264561Y-20206161D01*
X93444313Y-20430528D01*
X93557333Y-20537780D01*
X93615400Y-20592883D01*
X93652851Y-20628423D01*
X93886317Y-20796186D01*
X93890112Y-20798195D01*
X93890113Y-20798196D01*
X93911869Y-20809715D01*
X94140392Y-20930712D01*
X94275383Y-20980112D01*
X94375005Y-21016568D01*
X94410373Y-21029511D01*
X94691264Y-21090755D01*
X94719841Y-21093004D01*
X94914282Y-21108307D01*
X94914291Y-21108307D01*
X94916739Y-21108500D01*
X95072271Y-21108500D01*
X95074407Y-21108354D01*
X95074418Y-21108354D01*
X95282548Y-21094165D01*
X95282554Y-21094164D01*
X95286825Y-21093873D01*
X95291020Y-21093004D01*
X95291022Y-21093004D01*
X95441942Y-21061750D01*
X95568342Y-21035574D01*
X95839343Y-20939607D01*
X96094812Y-20807750D01*
X96098313Y-20805289D01*
X96098317Y-20805287D01*
X96212418Y-20725095D01*
X96330023Y-20642441D01*
X96438715Y-20541438D01*
X96537479Y-20449661D01*
X96537481Y-20449658D01*
X96540622Y-20446740D01*
X96722713Y-20224268D01*
X96872927Y-19979142D01*
X96988483Y-19715898D01*
X97067244Y-19439406D01*
X97107751Y-19154784D01*
X97107845Y-19136951D01*
X97109235Y-18871583D01*
X97109235Y-18871576D01*
X97109257Y-18867297D01*
X97071732Y-18582266D01*
X97058378Y-18533450D01*
X97043134Y-18477729D01*
X96995871Y-18304964D01*
X96950136Y-18197740D01*
X96884763Y-18044476D01*
X96884761Y-18044472D01*
X96883077Y-18040524D01*
X96777868Y-17864733D01*
X96737643Y-17797521D01*
X96737640Y-17797517D01*
X96735439Y-17793839D01*
X96555687Y-17569472D01*
X96347149Y-17371577D01*
X96113683Y-17203814D01*
X96091843Y-17192250D01*
X95962455Y-17123743D01*
X95859608Y-17069288D01*
X95589627Y-16970489D01*
X95308736Y-16909245D01*
X95277685Y-16906801D01*
X95085718Y-16891693D01*
X95085709Y-16891693D01*
X95083261Y-16891500D01*
X94927729Y-16891500D01*
X94925593Y-16891646D01*
X94925582Y-16891646D01*
X94717452Y-16905835D01*
X94717446Y-16905836D01*
X94713175Y-16906127D01*
X94708980Y-16906996D01*
X94708978Y-16906996D01*
X94572417Y-16935276D01*
X94431658Y-16964426D01*
X94160657Y-17060393D01*
X93905188Y-17192250D01*
X93901687Y-17194711D01*
X93901683Y-17194713D01*
X93891594Y-17201804D01*
X93669977Y-17357559D01*
X93459378Y-17553260D01*
X93277287Y-17775732D01*
X93127073Y-18020858D01*
X93125347Y-18024791D01*
X93125346Y-18024792D01*
X93017357Y-18270797D01*
X93011517Y-18284102D01*
X92932756Y-18560594D01*
X92892249Y-18845216D01*
X92892227Y-18849505D01*
X92892226Y-18849512D01*
X92890765Y-19128417D01*
X92890743Y-19132703D01*
X35614851Y-19132703D01*
X36169649Y-18577905D01*
X36231961Y-18543879D01*
X36258744Y-18541000D01*
X82594097Y-18541000D01*
X82598055Y-18541062D01*
X82710492Y-18544596D01*
X82710498Y-18544596D01*
X82714449Y-18544720D01*
X82830415Y-18533757D01*
X82834307Y-18533452D01*
X82950520Y-18526141D01*
X82954409Y-18525399D01*
X82954418Y-18525398D01*
X82983510Y-18519848D01*
X82995262Y-18518175D01*
X82996456Y-18518062D01*
X83028692Y-18515015D01*
X83142364Y-18489606D01*
X83146188Y-18488815D01*
X83176068Y-18483115D01*
X83260572Y-18466995D01*
X83264339Y-18465771D01*
X83264343Y-18465770D01*
X83292507Y-18456619D01*
X83303957Y-18453486D01*
X83336733Y-18446160D01*
X83446345Y-18406697D01*
X83450007Y-18405444D01*
X83560766Y-18369456D01*
X83564341Y-18367774D01*
X83564348Y-18367771D01*
X83591157Y-18355156D01*
X83602121Y-18350615D01*
X83629993Y-18340580D01*
X83630001Y-18340576D01*
X83633716Y-18339239D01*
X83637227Y-18337450D01*
X83637234Y-18337447D01*
X83713518Y-18298578D01*
X83737477Y-18286370D01*
X83741024Y-18284633D01*
X83742153Y-18284102D01*
X83846369Y-18235062D01*
X83874730Y-18217064D01*
X83885031Y-18211188D01*
X83900532Y-18203290D01*
X83911425Y-18197740D01*
X83911429Y-18197737D01*
X83914955Y-18195941D01*
X83918232Y-18193714D01*
X83918237Y-18193711D01*
X84011253Y-18130497D01*
X84014561Y-18128324D01*
X84112875Y-18065932D01*
X84115930Y-18063404D01*
X84115935Y-18063401D01*
X84138759Y-18044520D01*
X84148246Y-18037397D01*
X84176018Y-18018523D01*
X84178989Y-18015904D01*
X84178995Y-18015899D01*
X84263350Y-17941528D01*
X84266361Y-17938956D01*
X84353031Y-17867257D01*
X84356082Y-17864733D01*
X84435817Y-17779824D01*
X84438571Y-17776983D01*
X87193483Y-15022071D01*
X87196325Y-15019316D01*
X87278346Y-14942293D01*
X87281233Y-14939582D01*
X87355468Y-14849847D01*
X87358028Y-14846850D01*
X87432399Y-14762495D01*
X87432404Y-14762489D01*
X87435023Y-14759518D01*
X87453897Y-14731746D01*
X87461020Y-14722259D01*
X87479901Y-14699435D01*
X87479904Y-14699430D01*
X87482432Y-14696375D01*
X87544829Y-14598053D01*
X87546997Y-14594753D01*
X87610211Y-14501737D01*
X87610214Y-14501732D01*
X87612441Y-14498455D01*
X87627688Y-14468531D01*
X87633566Y-14458226D01*
X87649440Y-14433213D01*
X87649441Y-14433211D01*
X87651562Y-14429869D01*
X87701150Y-14324488D01*
X87702865Y-14320987D01*
X87755739Y-14217215D01*
X87757082Y-14213486D01*
X87767117Y-14185615D01*
X87771658Y-14174652D01*
X87784267Y-14147856D01*
X87784269Y-14147852D01*
X87785956Y-14144266D01*
X87787180Y-14140500D01*
X87787184Y-14140489D01*
X87814071Y-14057736D01*
X87821939Y-14033523D01*
X87823198Y-14029841D01*
X87862660Y-13920233D01*
X87869987Y-13887455D01*
X87873119Y-13876008D01*
X87882270Y-13847842D01*
X87883495Y-13844072D01*
X87905311Y-13729713D01*
X87906110Y-13725855D01*
X87930651Y-13616065D01*
X87930653Y-13616054D01*
X87931516Y-13612192D01*
X87934677Y-13578748D01*
X87936350Y-13566998D01*
X87939431Y-13550849D01*
X87942641Y-13534020D01*
X87948676Y-13438097D01*
X87949951Y-13417836D01*
X87950261Y-13413891D01*
X87956543Y-13347432D01*
X87961220Y-13297949D01*
X87959649Y-13247943D01*
X87957562Y-13181555D01*
X87957500Y-13177597D01*
X87957500Y-11396791D01*
X87957749Y-11388879D01*
X87962211Y-11317957D01*
X87962460Y-11314000D01*
X87942641Y-10998980D01*
X87883495Y-10688928D01*
X87785956Y-10388734D01*
X87752327Y-10317268D01*
X87653250Y-10106717D01*
X87653246Y-10106710D01*
X87651562Y-10103131D01*
X87482432Y-9836625D01*
X87376830Y-9708974D01*
X87283758Y-9596470D01*
X87283757Y-9596469D01*
X87281233Y-9593418D01*
X87051140Y-9377346D01*
X86795779Y-9191816D01*
X86792300Y-9189903D01*
X86522648Y-9041660D01*
X86522647Y-9041659D01*
X86519179Y-9039753D01*
X86515510Y-9038300D01*
X86515505Y-9038298D01*
X86229372Y-8925010D01*
X86229371Y-8925010D01*
X86225702Y-8923557D01*
X85919975Y-8845060D01*
X85606821Y-8805500D01*
X85291179Y-8805500D01*
X84978025Y-8845060D01*
X84672298Y-8923557D01*
X84668629Y-8925010D01*
X84668628Y-8925010D01*
X84382495Y-9038298D01*
X84382490Y-9038300D01*
X84378821Y-9039753D01*
X84375353Y-9041659D01*
X84375352Y-9041660D01*
X84105701Y-9189903D01*
X84102221Y-9191816D01*
X83846860Y-9377346D01*
X83616767Y-9593418D01*
X83614243Y-9596469D01*
X83614242Y-9596470D01*
X83521170Y-9708974D01*
X83415568Y-9836625D01*
X83246438Y-10103131D01*
X83244754Y-10106710D01*
X83244750Y-10106717D01*
X83145673Y-10317268D01*
X83112044Y-10388734D01*
X83014505Y-10688928D01*
X82955359Y-10998980D01*
X82935540Y-11314000D01*
X82935789Y-11317957D01*
X82940251Y-11388879D01*
X82940500Y-11396791D01*
X82940500Y-12127756D01*
X82920498Y-12195877D01*
X82903595Y-12216851D01*
X81633351Y-13487095D01*
X81571039Y-13521121D01*
X81544256Y-13524000D01*
X35208903Y-13524000D01*
X35204945Y-13523938D01*
X35092509Y-13520404D01*
X35092503Y-13520404D01*
X35088551Y-13520280D01*
X35018894Y-13526864D01*
X34972610Y-13531239D01*
X34968665Y-13531549D01*
X34929393Y-13534020D01*
X34852480Y-13538859D01*
X34819498Y-13545151D01*
X34807752Y-13546823D01*
X34801144Y-13547447D01*
X34778250Y-13549611D01*
X34778243Y-13549612D01*
X34774309Y-13549984D01*
X34770440Y-13550849D01*
X34770439Y-13550849D01*
X34660667Y-13575386D01*
X34656791Y-13576189D01*
X34556350Y-13595349D01*
X34542428Y-13598005D01*
X34538661Y-13599229D01*
X34538653Y-13599231D01*
X34510484Y-13608383D01*
X34499039Y-13611514D01*
X34466267Y-13618840D01*
X34462540Y-13620182D01*
X34462529Y-13620185D01*
X34356707Y-13658283D01*
X34352964Y-13659565D01*
X34245991Y-13694323D01*
X34245987Y-13694324D01*
X34242234Y-13695544D01*
X34226421Y-13702985D01*
X34211851Y-13709841D01*
X34200887Y-13714383D01*
X34169285Y-13725760D01*
X34065497Y-13778642D01*
X34061995Y-13780357D01*
X34050439Y-13785795D01*
X33960213Y-13828252D01*
X33960208Y-13828255D01*
X33956631Y-13829938D01*
X33928420Y-13847842D01*
X33928273Y-13847935D01*
X33917969Y-13853813D01*
X33888045Y-13869059D01*
X33884766Y-13871288D01*
X33884760Y-13871291D01*
X33791737Y-13934509D01*
X33788429Y-13936682D01*
X33725305Y-13976742D01*
X33690125Y-13999068D01*
X33664247Y-14020476D01*
X33654756Y-14027602D01*
X33626983Y-14046477D01*
X33539634Y-14123486D01*
X33536672Y-14126016D01*
X33446918Y-14200267D01*
X33444207Y-14203154D01*
X33367184Y-14285175D01*
X33364429Y-14288017D01*
X27147851Y-20504595D01*
X27085539Y-20538621D01*
X27058756Y-20541500D01*
X16591403Y-20541500D01*
X16587445Y-20541438D01*
X16475008Y-20537904D01*
X16475002Y-20537904D01*
X16471051Y-20537780D01*
X16355085Y-20548743D01*
X16351193Y-20549048D01*
X16234980Y-20556359D01*
X16231091Y-20557101D01*
X16231082Y-20557102D01*
X16201990Y-20562652D01*
X16190238Y-20564325D01*
X16156808Y-20567485D01*
X16043136Y-20592894D01*
X16039312Y-20593685D01*
X16015468Y-20598234D01*
X15924928Y-20615505D01*
X15921161Y-20616729D01*
X15921157Y-20616730D01*
X15892993Y-20625881D01*
X15881544Y-20629014D01*
X15848767Y-20636340D01*
X15739155Y-20675803D01*
X15735493Y-20677056D01*
X15624734Y-20713044D01*
X15621159Y-20714726D01*
X15621152Y-20714729D01*
X15594343Y-20727344D01*
X15583379Y-20731885D01*
X15555507Y-20741920D01*
X15555499Y-20741924D01*
X15551784Y-20743261D01*
X15548273Y-20745050D01*
X15548266Y-20745053D01*
X15448031Y-20796126D01*
X15444485Y-20797863D01*
X15339131Y-20847438D01*
X15335789Y-20849559D01*
X15335787Y-20849560D01*
X15310774Y-20865434D01*
X15300469Y-20871312D01*
X15284968Y-20879210D01*
X15274075Y-20884760D01*
X15274071Y-20884763D01*
X15270545Y-20886559D01*
X15267268Y-20888786D01*
X15267263Y-20888789D01*
X15174247Y-20952003D01*
X15170947Y-20954171D01*
X15072625Y-21016568D01*
X15069570Y-21019096D01*
X15069565Y-21019099D01*
X15046741Y-21037980D01*
X15037254Y-21045103D01*
X15009482Y-21063977D01*
X14959200Y-21108307D01*
X14922136Y-21140983D01*
X14919166Y-21143521D01*
X14829418Y-21217767D01*
X14826707Y-21220654D01*
X14749699Y-21302659D01*
X14746944Y-21305501D01*
X10806517Y-25245929D01*
X10803676Y-25248683D01*
X10718767Y-25328418D01*
X10670341Y-25386956D01*
X10644544Y-25418139D01*
X10641984Y-25421136D01*
X10638631Y-25424939D01*
X10567601Y-25505505D01*
X10567596Y-25505511D01*
X10564977Y-25508482D01*
X10546497Y-25535675D01*
X10546107Y-25536249D01*
X10538980Y-25545741D01*
X10520099Y-25568565D01*
X10517568Y-25571625D01*
X10502477Y-25595405D01*
X10455176Y-25669939D01*
X10453008Y-25673239D01*
X10387559Y-25769545D01*
X10372312Y-25799469D01*
X10366436Y-25809770D01*
X10348438Y-25838131D01*
X10346751Y-25841715D01*
X10346751Y-25841716D01*
X10298867Y-25943476D01*
X10297126Y-25947031D01*
X10246053Y-26047266D01*
X10246050Y-26047273D01*
X10244261Y-26050784D01*
X10242924Y-26054499D01*
X10242920Y-26054507D01*
X10232885Y-26082379D01*
X10228344Y-26093343D01*
X10215729Y-26120152D01*
X10215726Y-26120159D01*
X10214044Y-26123734D01*
X10178056Y-26234493D01*
X10176803Y-26238155D01*
X10137340Y-26347767D01*
X10130014Y-26380543D01*
X10126881Y-26391993D01*
X10124989Y-26397816D01*
X10116505Y-26423928D01*
X10115763Y-26427820D01*
X10094685Y-26538312D01*
X10093894Y-26542136D01*
X10068485Y-26655808D01*
X10065438Y-26688044D01*
X10065325Y-26689238D01*
X10063652Y-26700990D01*
X10058102Y-26730082D01*
X10058101Y-26730091D01*
X10057359Y-26733980D01*
X10053458Y-26796000D01*
X10050050Y-26850169D01*
X10049743Y-26854085D01*
X10038780Y-26970051D01*
X10038904Y-26974002D01*
X10038904Y-26974008D01*
X10042438Y-27086445D01*
X10042500Y-27090403D01*
X10042500Y-30535209D01*
X10042251Y-30543119D01*
X10037540Y-30618000D01*
X508000Y-30618000D01*
X508000Y-19132703D01*
X890743Y-19132703D01*
X928268Y-19417734D01*
X1004129Y-19695036D01*
X1116923Y-19959476D01*
X1264561Y-20206161D01*
X1444313Y-20430528D01*
X1557333Y-20537780D01*
X1615400Y-20592883D01*
X1652851Y-20628423D01*
X1886317Y-20796186D01*
X1890112Y-20798195D01*
X1890113Y-20798196D01*
X1911869Y-20809715D01*
X2140392Y-20930712D01*
X2275383Y-20980112D01*
X2375005Y-21016568D01*
X2410373Y-21029511D01*
X2691264Y-21090755D01*
X2719841Y-21093004D01*
X2914282Y-21108307D01*
X2914291Y-21108307D01*
X2916739Y-21108500D01*
X3072271Y-21108500D01*
X3074407Y-21108354D01*
X3074418Y-21108354D01*
X3282548Y-21094165D01*
X3282554Y-21094164D01*
X3286825Y-21093873D01*
X3291020Y-21093004D01*
X3291022Y-21093004D01*
X3441942Y-21061750D01*
X3568342Y-21035574D01*
X3839343Y-20939607D01*
X4094812Y-20807750D01*
X4098313Y-20805289D01*
X4098317Y-20805287D01*
X4212418Y-20725095D01*
X4330023Y-20642441D01*
X4438715Y-20541438D01*
X4537479Y-20449661D01*
X4537481Y-20449658D01*
X4540622Y-20446740D01*
X4722713Y-20224268D01*
X4872927Y-19979142D01*
X4988483Y-19715898D01*
X5067244Y-19439406D01*
X5107751Y-19154784D01*
X5107845Y-19136951D01*
X5109235Y-18871583D01*
X5109235Y-18871576D01*
X5109257Y-18867297D01*
X5071732Y-18582266D01*
X5058378Y-18533450D01*
X5043134Y-18477729D01*
X4995871Y-18304964D01*
X4950136Y-18197740D01*
X4884763Y-18044476D01*
X4884761Y-18044472D01*
X4883077Y-18040524D01*
X4777868Y-17864733D01*
X4737643Y-17797521D01*
X4737640Y-17797517D01*
X4735439Y-17793839D01*
X4555687Y-17569472D01*
X4347149Y-17371577D01*
X4113683Y-17203814D01*
X4091843Y-17192250D01*
X3962455Y-17123743D01*
X3859608Y-17069288D01*
X3589627Y-16970489D01*
X3308736Y-16909245D01*
X3277685Y-16906801D01*
X3085718Y-16891693D01*
X3085709Y-16891693D01*
X3083261Y-16891500D01*
X2927729Y-16891500D01*
X2925593Y-16891646D01*
X2925582Y-16891646D01*
X2717452Y-16905835D01*
X2717446Y-16905836D01*
X2713175Y-16906127D01*
X2708980Y-16906996D01*
X2708978Y-16906996D01*
X2572416Y-16935277D01*
X2431658Y-16964426D01*
X2160657Y-17060393D01*
X1905188Y-17192250D01*
X1901687Y-17194711D01*
X1901683Y-17194713D01*
X1891594Y-17201804D01*
X1669977Y-17357559D01*
X1459378Y-17553260D01*
X1277287Y-17775732D01*
X1127073Y-18020858D01*
X1125347Y-18024791D01*
X1125346Y-18024792D01*
X1017357Y-18270797D01*
X1011517Y-18284102D01*
X932756Y-18560594D01*
X892249Y-18845216D01*
X892227Y-18849505D01*
X892226Y-18849512D01*
X890765Y-19128417D01*
X890743Y-19132703D01*
X508000Y-19132703D01*
X508000Y-11314000D01*
X10037540Y-11314000D01*
X10037789Y-11317957D01*
X10042251Y-11388879D01*
X10042500Y-11396791D01*
X10042500Y-11471821D01*
X10042997Y-11475752D01*
X10051903Y-11546251D01*
X10052647Y-11554120D01*
X10057359Y-11629020D01*
X10071421Y-11702733D01*
X10072655Y-11710526D01*
X10082060Y-11784975D01*
X10094552Y-11833628D01*
X10100719Y-11857647D01*
X10102446Y-11865372D01*
X10116505Y-11939072D01*
X10117732Y-11942848D01*
X10139689Y-12010425D01*
X10141897Y-12018026D01*
X10159570Y-12086860D01*
X10159573Y-12086868D01*
X10160557Y-12090702D01*
X10162014Y-12094382D01*
X10162015Y-12094385D01*
X10188183Y-12160476D01*
X10190860Y-12167912D01*
X10214044Y-12239266D01*
X10245984Y-12307142D01*
X10249127Y-12314405D01*
X10276753Y-12384179D01*
X10278654Y-12387638D01*
X10278656Y-12387641D01*
X10312902Y-12449934D01*
X10316495Y-12456987D01*
X10346750Y-12521283D01*
X10346754Y-12521290D01*
X10348438Y-12524869D01*
X10388641Y-12588218D01*
X10392669Y-12595030D01*
X10426903Y-12657301D01*
X10426910Y-12657312D01*
X10428816Y-12660779D01*
X10431147Y-12663987D01*
X10472905Y-12721462D01*
X10477355Y-12728009D01*
X10515449Y-12788037D01*
X10515454Y-12788044D01*
X10517568Y-12791375D01*
X10520093Y-12794427D01*
X10520095Y-12794430D01*
X10565402Y-12849197D01*
X10570254Y-12855453D01*
X10612012Y-12912929D01*
X10612021Y-12912940D01*
X10614346Y-12916140D01*
X10665709Y-12970836D01*
X10670941Y-12976770D01*
X10718767Y-13034582D01*
X10773475Y-13085956D01*
X10779044Y-13091525D01*
X10830418Y-13146233D01*
X10870730Y-13179582D01*
X10888227Y-13194057D01*
X10894161Y-13199288D01*
X10948860Y-13250654D01*
X10952060Y-13252979D01*
X10952071Y-13252988D01*
X11009547Y-13294746D01*
X11015803Y-13299598D01*
X11070570Y-13344905D01*
X11073625Y-13347432D01*
X11076956Y-13349546D01*
X11076963Y-13349551D01*
X11136991Y-13387645D01*
X11143538Y-13392095D01*
X11204221Y-13436184D01*
X11207688Y-13438090D01*
X11207699Y-13438097D01*
X11269970Y-13472331D01*
X11276776Y-13476355D01*
X11340131Y-13516562D01*
X11343710Y-13518246D01*
X11343717Y-13518250D01*
X11408013Y-13548505D01*
X11415066Y-13552098D01*
X11477359Y-13586344D01*
X11480821Y-13588247D01*
X11484490Y-13589700D01*
X11484495Y-13589702D01*
X11550595Y-13615873D01*
X11557850Y-13619012D01*
X11625734Y-13650956D01*
X11629500Y-13652180D01*
X11629506Y-13652182D01*
X11663291Y-13663159D01*
X11697088Y-13674140D01*
X11704512Y-13676813D01*
X11748738Y-13694323D01*
X11770615Y-13702985D01*
X11770618Y-13702986D01*
X11774298Y-13704443D01*
X11778132Y-13705427D01*
X11778140Y-13705430D01*
X11813015Y-13714384D01*
X11846983Y-13723106D01*
X11854565Y-13725308D01*
X11925928Y-13748495D01*
X11953137Y-13753685D01*
X11999628Y-13762554D01*
X12007353Y-13764281D01*
X12031372Y-13770448D01*
X12080025Y-13782940D01*
X12154474Y-13792345D01*
X12162267Y-13793579D01*
X12235980Y-13807641D01*
X12310880Y-13812353D01*
X12318738Y-13813096D01*
X12393179Y-13822500D01*
X14970256Y-13822500D01*
X15038377Y-13842502D01*
X15059351Y-13859405D01*
X18234594Y-17034648D01*
X18268620Y-17096960D01*
X18271499Y-17123743D01*
X18271499Y-18080634D01*
X18278254Y-18142816D01*
X18329384Y-18279205D01*
X18416738Y-18395761D01*
X18533294Y-18483115D01*
X18669683Y-18534245D01*
X18731865Y-18541000D01*
X20655754Y-18541000D01*
X20667609Y-18541559D01*
X20701051Y-18544720D01*
X20705003Y-18544596D01*
X20705009Y-18544596D01*
X20817445Y-18541062D01*
X20821403Y-18541000D01*
X22828133Y-18541000D01*
X22890315Y-18534245D01*
X23026704Y-18483115D01*
X23143260Y-18395761D01*
X23230614Y-18279205D01*
X23281744Y-18142816D01*
X23288499Y-18080634D01*
X23288499Y-16073935D01*
X23288561Y-16069977D01*
X23292096Y-15957509D01*
X23292096Y-15957503D01*
X23292220Y-15953551D01*
X23289058Y-15920099D01*
X23288499Y-15908243D01*
X23288499Y-13984366D01*
X23281744Y-13922184D01*
X23230614Y-13785795D01*
X23143260Y-13669239D01*
X23026704Y-13581885D01*
X22890315Y-13530755D01*
X22828133Y-13524000D01*
X21871244Y-13524000D01*
X21803123Y-13503998D01*
X21782149Y-13487095D01*
X17864571Y-9569517D01*
X17861816Y-9566675D01*
X17784793Y-9484654D01*
X17784792Y-9484653D01*
X17782082Y-9481767D01*
X17692347Y-9407532D01*
X17689350Y-9404972D01*
X17604995Y-9330601D01*
X17604989Y-9330596D01*
X17602018Y-9327977D01*
X17574246Y-9309103D01*
X17564759Y-9301980D01*
X17541935Y-9283099D01*
X17541930Y-9283096D01*
X17538875Y-9280568D01*
X17440553Y-9218171D01*
X17437253Y-9216003D01*
X17344237Y-9152789D01*
X17344232Y-9152786D01*
X17340955Y-9150559D01*
X17337429Y-9148763D01*
X17337425Y-9148760D01*
X17326532Y-9143210D01*
X17311031Y-9135312D01*
X17300726Y-9129434D01*
X17275713Y-9113560D01*
X17275706Y-9113556D01*
X17272369Y-9111438D01*
X17167015Y-9061863D01*
X17163469Y-9060126D01*
X17063234Y-9009053D01*
X17063227Y-9009050D01*
X17059716Y-9007261D01*
X17056001Y-9005924D01*
X17055993Y-9005920D01*
X17028121Y-8995885D01*
X17017157Y-8991344D01*
X16990348Y-8978729D01*
X16990341Y-8978726D01*
X16986766Y-8977044D01*
X16876007Y-8941056D01*
X16872345Y-8939803D01*
X16762733Y-8900340D01*
X16729956Y-8893014D01*
X16718507Y-8889881D01*
X16690343Y-8880730D01*
X16690339Y-8880729D01*
X16686572Y-8879505D01*
X16596032Y-8862234D01*
X16572188Y-8857685D01*
X16568364Y-8856894D01*
X16454692Y-8831485D01*
X16421262Y-8828325D01*
X16409510Y-8826652D01*
X16380418Y-8821102D01*
X16380409Y-8821101D01*
X16376520Y-8820359D01*
X16260307Y-8813048D01*
X16256415Y-8812743D01*
X16140449Y-8801780D01*
X16136498Y-8801904D01*
X16136492Y-8801904D01*
X16024055Y-8805438D01*
X16020097Y-8805500D01*
X12393179Y-8805500D01*
X12318738Y-8814904D01*
X12310880Y-8815647D01*
X12235980Y-8820359D01*
X12162267Y-8834421D01*
X12154474Y-8835655D01*
X12080025Y-8845060D01*
X12033978Y-8856883D01*
X12007353Y-8863719D01*
X11999628Y-8865446D01*
X11953137Y-8874315D01*
X11925928Y-8879505D01*
X11854565Y-8902692D01*
X11846983Y-8904894D01*
X11822134Y-8911275D01*
X11778140Y-8922570D01*
X11778132Y-8922573D01*
X11774298Y-8923557D01*
X11770618Y-8925014D01*
X11770615Y-8925015D01*
X11749312Y-8933450D01*
X11704512Y-8951187D01*
X11697088Y-8953860D01*
X11663291Y-8964841D01*
X11629506Y-8975818D01*
X11629500Y-8975820D01*
X11625734Y-8977044D01*
X11557850Y-9008988D01*
X11550595Y-9012127D01*
X11484495Y-9038298D01*
X11484490Y-9038300D01*
X11480821Y-9039753D01*
X11477362Y-9041654D01*
X11477359Y-9041656D01*
X11415066Y-9075902D01*
X11408013Y-9079495D01*
X11343717Y-9109750D01*
X11343710Y-9109754D01*
X11340131Y-9111438D01*
X11278487Y-9150559D01*
X11276782Y-9151641D01*
X11269970Y-9155669D01*
X11207699Y-9189903D01*
X11207693Y-9189907D01*
X11204221Y-9191816D01*
X11201013Y-9194147D01*
X11143538Y-9235905D01*
X11136991Y-9240355D01*
X11076963Y-9278449D01*
X11076956Y-9278454D01*
X11073625Y-9280568D01*
X11070573Y-9283093D01*
X11070570Y-9283095D01*
X11015803Y-9328402D01*
X11009547Y-9333254D01*
X10952071Y-9375012D01*
X10952064Y-9375018D01*
X10948860Y-9377346D01*
X10894164Y-9428709D01*
X10888230Y-9433941D01*
X10830418Y-9481767D01*
X10779044Y-9536475D01*
X10773475Y-9542044D01*
X10718767Y-9593418D01*
X10670943Y-9651227D01*
X10665712Y-9657161D01*
X10614346Y-9711860D01*
X10612021Y-9715060D01*
X10612012Y-9715071D01*
X10570254Y-9772547D01*
X10565402Y-9778803D01*
X10520095Y-9833570D01*
X10517568Y-9836625D01*
X10515454Y-9839956D01*
X10515449Y-9839963D01*
X10477355Y-9899991D01*
X10472905Y-9906538D01*
X10428816Y-9967221D01*
X10426910Y-9970688D01*
X10426903Y-9970699D01*
X10392669Y-10032970D01*
X10388645Y-10039776D01*
X10348438Y-10103131D01*
X10346754Y-10106710D01*
X10346750Y-10106717D01*
X10316495Y-10171013D01*
X10312902Y-10178066D01*
X10276753Y-10243821D01*
X10275300Y-10247490D01*
X10275298Y-10247495D01*
X10249127Y-10313595D01*
X10245988Y-10320850D01*
X10214044Y-10388734D01*
X10212820Y-10392500D01*
X10212818Y-10392506D01*
X10190864Y-10460076D01*
X10188187Y-10467512D01*
X10160557Y-10537298D01*
X10159573Y-10541132D01*
X10159570Y-10541140D01*
X10141897Y-10609974D01*
X10139692Y-10617565D01*
X10116505Y-10688928D01*
X10115761Y-10692829D01*
X10102446Y-10762628D01*
X10100719Y-10770353D01*
X10082060Y-10843025D01*
X10081564Y-10846950D01*
X10081564Y-10846951D01*
X10072657Y-10917464D01*
X10071421Y-10925267D01*
X10057359Y-10998980D01*
X10057110Y-11002940D01*
X10052648Y-11073868D01*
X10051904Y-11081738D01*
X10042500Y-11156179D01*
X10042500Y-11231209D01*
X10042251Y-11239119D01*
X10037540Y-11314000D01*
X508000Y-11314000D01*
X508000Y-634000D01*
X528002Y-565879D01*
X581658Y-519386D01*
X634000Y-508000D01*
X97366000Y-508000D01*
X97434121Y-528002D01*
G37*
%TD.AperFunction*%
%TD*%
M02*
