%TF.GenerationSoftware,KiCad,Pcbnew,(6.0.1)*%
%TF.CreationDate,2022-02-05T20:40:31-05:00*%
%TF.ProjectId,motor-controller,6d6f746f-722d-4636-9f6e-74726f6c6c65,rev?*%
%TF.SameCoordinates,Original*%
%TF.FileFunction,Legend,Bot*%
%TF.FilePolarity,Positive*%
%FSLAX46Y46*%
G04 Gerber Fmt 4.6, Leading zero omitted, Abs format (unit mm)*
G04 Created by KiCad (PCBNEW (6.0.1)) date 2022-02-05 20:40:31*
%MOMM*%
%LPD*%
G01*
G04 APERTURE LIST*
%ADD10C,0.254000*%
G04 APERTURE END LIST*
D10*
X159877857Y-48657142D02*
X160724523Y-48899047D01*
X160119761Y-49140952D01*
X160724523Y-49382857D01*
X159877857Y-49624761D01*
X159877857Y-49987619D02*
X160724523Y-50229523D01*
X160119761Y-50471428D01*
X160724523Y-50713333D01*
X159877857Y-50955238D01*
X159877857Y-51318095D02*
X160724523Y-51560000D01*
X160119761Y-51801904D01*
X160724523Y-52043809D01*
X159877857Y-52285714D01*
X160603571Y-52769523D02*
X160664047Y-52830000D01*
X160724523Y-52769523D01*
X160664047Y-52709047D01*
X160603571Y-52769523D01*
X160724523Y-52769523D01*
X160724523Y-53374285D02*
X159877857Y-53374285D01*
X159998809Y-53374285D02*
X159938333Y-53434761D01*
X159877857Y-53555714D01*
X159877857Y-53737142D01*
X159938333Y-53858095D01*
X160059285Y-53918571D01*
X160724523Y-53918571D01*
X160059285Y-53918571D02*
X159938333Y-53979047D01*
X159877857Y-54100000D01*
X159877857Y-54281428D01*
X159938333Y-54402380D01*
X160059285Y-54462857D01*
X160724523Y-54462857D01*
X160664047Y-55551428D02*
X160724523Y-55430476D01*
X160724523Y-55188571D01*
X160664047Y-55067619D01*
X160543095Y-55007142D01*
X160059285Y-55007142D01*
X159938333Y-55067619D01*
X159877857Y-55188571D01*
X159877857Y-55430476D01*
X159938333Y-55551428D01*
X160059285Y-55611904D01*
X160180238Y-55611904D01*
X160301190Y-55007142D01*
X159877857Y-55974761D02*
X159877857Y-56458571D01*
X159454523Y-56156190D02*
X160543095Y-56156190D01*
X160664047Y-56216666D01*
X160724523Y-56337619D01*
X160724523Y-56458571D01*
X160724523Y-57426190D02*
X160059285Y-57426190D01*
X159938333Y-57365714D01*
X159877857Y-57244761D01*
X159877857Y-57002857D01*
X159938333Y-56881904D01*
X160664047Y-57426190D02*
X160724523Y-57305238D01*
X160724523Y-57002857D01*
X160664047Y-56881904D01*
X160543095Y-56821428D01*
X160422142Y-56821428D01*
X160301190Y-56881904D01*
X160240714Y-57002857D01*
X160240714Y-57305238D01*
X160180238Y-57426190D01*
X159877857Y-58030952D02*
X161147857Y-58030952D01*
X159938333Y-58030952D02*
X159877857Y-58151904D01*
X159877857Y-58393809D01*
X159938333Y-58514761D01*
X159998809Y-58575238D01*
X160119761Y-58635714D01*
X160482619Y-58635714D01*
X160603571Y-58575238D01*
X160664047Y-58514761D01*
X160724523Y-58393809D01*
X160724523Y-58151904D01*
X160664047Y-58030952D01*
X160724523Y-59179999D02*
X159454523Y-59179999D01*
X160724523Y-59724285D02*
X160059285Y-59724285D01*
X159938333Y-59663809D01*
X159877857Y-59542857D01*
X159877857Y-59361428D01*
X159938333Y-59240476D01*
X159998809Y-59179999D01*
X160724523Y-60873333D02*
X160059285Y-60873333D01*
X159938333Y-60812857D01*
X159877857Y-60691904D01*
X159877857Y-60450000D01*
X159938333Y-60329047D01*
X160664047Y-60873333D02*
X160724523Y-60752380D01*
X160724523Y-60450000D01*
X160664047Y-60329047D01*
X160543095Y-60268571D01*
X160422142Y-60268571D01*
X160301190Y-60329047D01*
X160240714Y-60450000D01*
X160240714Y-60752380D01*
X160180238Y-60873333D01*
X160664047Y-61417619D02*
X160724523Y-61538571D01*
X160724523Y-61780476D01*
X160664047Y-61901428D01*
X160543095Y-61961904D01*
X160482619Y-61961904D01*
X160361666Y-61901428D01*
X160301190Y-61780476D01*
X160301190Y-61599047D01*
X160240714Y-61478095D01*
X160119761Y-61417619D01*
X160059285Y-61417619D01*
X159938333Y-61478095D01*
X159877857Y-61599047D01*
X159877857Y-61780476D01*
X159938333Y-61901428D01*
X160724523Y-62506190D02*
X159877857Y-62506190D01*
X159454523Y-62506190D02*
X159515000Y-62445714D01*
X159575476Y-62506190D01*
X159515000Y-62566666D01*
X159454523Y-62506190D01*
X159575476Y-62506190D01*
X160664047Y-63655238D02*
X160724523Y-63534285D01*
X160724523Y-63292380D01*
X160664047Y-63171428D01*
X160603571Y-63110952D01*
X160482619Y-63050476D01*
X160119761Y-63050476D01*
X159998809Y-63110952D01*
X159938333Y-63171428D01*
X159877857Y-63292380D01*
X159877857Y-63534285D01*
X159938333Y-63655238D01*
X160724523Y-64380952D02*
X160664047Y-64260000D01*
X160543095Y-64199523D01*
X159454523Y-64199523D01*
X160724523Y-65409047D02*
X160059285Y-65409047D01*
X159938333Y-65348571D01*
X159877857Y-65227619D01*
X159877857Y-64985714D01*
X159938333Y-64864761D01*
X160664047Y-65409047D02*
X160724523Y-65288095D01*
X160724523Y-64985714D01*
X160664047Y-64864761D01*
X160543095Y-64804285D01*
X160422142Y-64804285D01*
X160301190Y-64864761D01*
X160240714Y-64985714D01*
X160240714Y-65288095D01*
X160180238Y-65409047D01*
X160724523Y-66013809D02*
X159454523Y-66013809D01*
X159938333Y-66013809D02*
X159877857Y-66134761D01*
X159877857Y-66376666D01*
X159938333Y-66497619D01*
X159998809Y-66558095D01*
X160119761Y-66618571D01*
X160482619Y-66618571D01*
X160603571Y-66558095D01*
X160664047Y-66497619D01*
X160724523Y-66376666D01*
X160724523Y-66134761D01*
X160664047Y-66013809D01*
X160664047Y-67102380D02*
X160724523Y-67223333D01*
X160724523Y-67465238D01*
X160664047Y-67586190D01*
X160543095Y-67646666D01*
X160482619Y-67646666D01*
X160361666Y-67586190D01*
X160301190Y-67465238D01*
X160301190Y-67283809D01*
X160240714Y-67162857D01*
X160119761Y-67102380D01*
X160059285Y-67102380D01*
X159938333Y-67162857D01*
X159877857Y-67283809D01*
X159877857Y-67465238D01*
X159938333Y-67586190D01*
X160603571Y-68190952D02*
X160664047Y-68251428D01*
X160724523Y-68190952D01*
X160664047Y-68130476D01*
X160603571Y-68190952D01*
X160724523Y-68190952D01*
X160664047Y-69340000D02*
X160724523Y-69219047D01*
X160724523Y-68977142D01*
X160664047Y-68856190D01*
X160603571Y-68795714D01*
X160482619Y-68735238D01*
X160119761Y-68735238D01*
X159998809Y-68795714D01*
X159938333Y-68856190D01*
X159877857Y-68977142D01*
X159877857Y-69219047D01*
X159938333Y-69340000D01*
X160724523Y-70065714D02*
X160664047Y-69944761D01*
X160603571Y-69884285D01*
X160482619Y-69823809D01*
X160119761Y-69823809D01*
X159998809Y-69884285D01*
X159938333Y-69944761D01*
X159877857Y-70065714D01*
X159877857Y-70247142D01*
X159938333Y-70368095D01*
X159998809Y-70428571D01*
X160119761Y-70489047D01*
X160482619Y-70489047D01*
X160603571Y-70428571D01*
X160664047Y-70368095D01*
X160724523Y-70247142D01*
X160724523Y-70065714D01*
X160724523Y-71033333D02*
X159877857Y-71033333D01*
X159998809Y-71033333D02*
X159938333Y-71093809D01*
X159877857Y-71214761D01*
X159877857Y-71396190D01*
X159938333Y-71517142D01*
X160059285Y-71577619D01*
X160724523Y-71577619D01*
X160059285Y-71577619D02*
X159938333Y-71638095D01*
X159877857Y-71759047D01*
X159877857Y-71940476D01*
X159938333Y-72061428D01*
X160059285Y-72121904D01*
X160724523Y-72121904D01*
M02*
