%TF.GenerationSoftware,KiCad,Pcbnew,(6.0.1)*%
%TF.CreationDate,2022-02-05T20:40:31-05:00*%
%TF.ProjectId,motor-controller,6d6f746f-722d-4636-9f6e-74726f6c6c65,rev?*%
%TF.SameCoordinates,Original*%
%TF.FileFunction,Legend,Top*%
%TF.FilePolarity,Positive*%
%FSLAX46Y46*%
G04 Gerber Fmt 4.6, Leading zero omitted, Abs format (unit mm)*
G04 Created by KiCad (PCBNEW (6.0.1)) date 2022-02-05 20:40:31*
%MOMM*%
%LPD*%
G01*
G04 APERTURE LIST*
%ADD10C,0.203200*%
%ADD11C,0.300000*%
%ADD12C,0.152400*%
%ADD13C,0.254000*%
%ADD14C,0.190500*%
%ADD15C,0.150000*%
%ADD16C,0.120000*%
G04 APERTURE END LIST*
D10*
X134012142Y-42674523D02*
X134012142Y-41404523D01*
X134556428Y-41525476D02*
X134616904Y-41465000D01*
X134737857Y-41404523D01*
X135040238Y-41404523D01*
X135161190Y-41465000D01*
X135221666Y-41525476D01*
X135282142Y-41646428D01*
X135282142Y-41767380D01*
X135221666Y-41948809D01*
X134495952Y-42674523D01*
X135282142Y-42674523D01*
X136552142Y-42553571D02*
X136491666Y-42614047D01*
X136310238Y-42674523D01*
X136189285Y-42674523D01*
X136007857Y-42614047D01*
X135886904Y-42493095D01*
X135826428Y-42372142D01*
X135765952Y-42130238D01*
X135765952Y-41948809D01*
X135826428Y-41706904D01*
X135886904Y-41585952D01*
X136007857Y-41465000D01*
X136189285Y-41404523D01*
X136310238Y-41404523D01*
X136491666Y-41465000D01*
X136552142Y-41525476D01*
X138003571Y-42311666D02*
X138608333Y-42311666D01*
X137882619Y-42674523D02*
X138305952Y-41404523D01*
X138729285Y-42674523D01*
X139152619Y-41404523D02*
X139152619Y-42432619D01*
X139213095Y-42553571D01*
X139273571Y-42614047D01*
X139394523Y-42674523D01*
X139636428Y-42674523D01*
X139757380Y-42614047D01*
X139817857Y-42553571D01*
X139878333Y-42432619D01*
X139878333Y-41404523D01*
X140362142Y-41404523D02*
X141208809Y-42674523D01*
X141208809Y-41404523D02*
X140362142Y-42674523D01*
X74528809Y-42009285D02*
X74710238Y-42069761D01*
X74770714Y-42130238D01*
X74831190Y-42251190D01*
X74831190Y-42432619D01*
X74770714Y-42553571D01*
X74710238Y-42614047D01*
X74589285Y-42674523D01*
X74105476Y-42674523D01*
X74105476Y-41404523D01*
X74528809Y-41404523D01*
X74649761Y-41465000D01*
X74710238Y-41525476D01*
X74770714Y-41646428D01*
X74770714Y-41767380D01*
X74710238Y-41888333D01*
X74649761Y-41948809D01*
X74528809Y-42009285D01*
X74105476Y-42009285D01*
X75315000Y-42311666D02*
X75919761Y-42311666D01*
X75194047Y-42674523D02*
X75617380Y-41404523D01*
X76040714Y-42674523D01*
X76282619Y-41404523D02*
X77008333Y-41404523D01*
X76645476Y-42674523D02*
X76645476Y-41404523D01*
X77250238Y-41404523D02*
X77975952Y-41404523D01*
X77613095Y-42674523D02*
X77613095Y-41404523D01*
X104277619Y-42311666D02*
X104882380Y-42311666D01*
X104156666Y-42674523D02*
X104580000Y-41404523D01*
X105003333Y-42674523D01*
X105426666Y-41404523D02*
X105426666Y-42432619D01*
X105487142Y-42553571D01*
X105547619Y-42614047D01*
X105668571Y-42674523D01*
X105910476Y-42674523D01*
X106031428Y-42614047D01*
X106091904Y-42553571D01*
X106152380Y-42432619D01*
X106152380Y-41404523D01*
X106636190Y-41404523D02*
X107482857Y-42674523D01*
X107482857Y-41404523D02*
X106636190Y-42674523D01*
X153664683Y-79646933D02*
X154148493Y-79646933D01*
X153567921Y-79937219D02*
X153906588Y-78921219D01*
X154245255Y-79937219D01*
X154487159Y-78921219D02*
X155116112Y-78921219D01*
X154777445Y-79308266D01*
X154922588Y-79308266D01*
X155019350Y-79356647D01*
X155067731Y-79405028D01*
X155116112Y-79501790D01*
X155116112Y-79743695D01*
X155067731Y-79840457D01*
X155019350Y-79888838D01*
X154922588Y-79937219D01*
X154632302Y-79937219D01*
X154535540Y-79888838D01*
X154487159Y-79840457D01*
X97838493Y-41404523D02*
X97233731Y-41404523D01*
X97173255Y-42009285D01*
X97233731Y-41948809D01*
X97354683Y-41888333D01*
X97657064Y-41888333D01*
X97778017Y-41948809D01*
X97838493Y-42009285D01*
X97898969Y-42130238D01*
X97898969Y-42432619D01*
X97838493Y-42553571D01*
X97778017Y-42614047D01*
X97657064Y-42674523D01*
X97354683Y-42674523D01*
X97233731Y-42614047D01*
X97173255Y-42553571D01*
X98261826Y-41404523D02*
X98685159Y-42674523D01*
X99108493Y-41404523D01*
X126848761Y-46745333D02*
X126800380Y-46890476D01*
X126800380Y-47132381D01*
X126848761Y-47229143D01*
X126897142Y-47277524D01*
X126993904Y-47325905D01*
X127090666Y-47325905D01*
X127187428Y-47277524D01*
X127235809Y-47229143D01*
X127284190Y-47132381D01*
X127332571Y-46938857D01*
X127380952Y-46842095D01*
X127429333Y-46793714D01*
X127526095Y-46745333D01*
X127622857Y-46745333D01*
X127719619Y-46793714D01*
X127768000Y-46842095D01*
X127816380Y-46938857D01*
X127816380Y-47180762D01*
X127768000Y-47325905D01*
X126800380Y-47761333D02*
X127816380Y-47761333D01*
X127816380Y-48003238D01*
X127768000Y-48148381D01*
X127671238Y-48245143D01*
X127574476Y-48293524D01*
X127380952Y-48341905D01*
X127235809Y-48341905D01*
X127042285Y-48293524D01*
X126945523Y-48245143D01*
X126848761Y-48148381D01*
X126800380Y-48003238D01*
X126800380Y-47761333D01*
X127090666Y-48728952D02*
X127090666Y-49212762D01*
X126800380Y-48632190D02*
X127816380Y-48970857D01*
X126800380Y-49309524D01*
X155471428Y-50524047D02*
X155652857Y-50584523D01*
X155955238Y-50584523D01*
X156076190Y-50524047D01*
X156136666Y-50463571D01*
X156197142Y-50342619D01*
X156197142Y-50221666D01*
X156136666Y-50100714D01*
X156076190Y-50040238D01*
X155955238Y-49979761D01*
X155713333Y-49919285D01*
X155592380Y-49858809D01*
X155531904Y-49798333D01*
X155471428Y-49677380D01*
X155471428Y-49556428D01*
X155531904Y-49435476D01*
X155592380Y-49375000D01*
X155713333Y-49314523D01*
X156015714Y-49314523D01*
X156197142Y-49375000D01*
X156620476Y-49314523D02*
X156922857Y-50584523D01*
X157164761Y-49677380D01*
X157406666Y-50584523D01*
X157709047Y-49314523D01*
X74624721Y-79607019D02*
X74624721Y-78591019D01*
X74963388Y-79316733D01*
X75302055Y-78591019D01*
X75302055Y-79607019D01*
X75737483Y-78687780D02*
X75785864Y-78639400D01*
X75882626Y-78591019D01*
X76124531Y-78591019D01*
X76221293Y-78639400D01*
X76269674Y-78687780D01*
X76318055Y-78784542D01*
X76318055Y-78881304D01*
X76269674Y-79026447D01*
X75689102Y-79607019D01*
X76318055Y-79607019D01*
X90931521Y-79657819D02*
X90931521Y-78641819D01*
X91270188Y-79367533D01*
X91608855Y-78641819D01*
X91608855Y-79657819D01*
X92528093Y-78980485D02*
X92528093Y-79657819D01*
X92286188Y-78593438D02*
X92044283Y-79319152D01*
X92673236Y-79319152D01*
X144684095Y-59609619D02*
X144684095Y-58593619D01*
X145264666Y-59609619D01*
X145264666Y-58593619D01*
X145748476Y-59077428D02*
X146087142Y-59077428D01*
X146232285Y-59609619D02*
X145748476Y-59609619D01*
X145748476Y-58593619D01*
X146232285Y-58593619D01*
X146861238Y-58593619D02*
X147054761Y-58593619D01*
X147151523Y-58642000D01*
X147248285Y-58738761D01*
X147296666Y-58932285D01*
X147296666Y-59270952D01*
X147248285Y-59464476D01*
X147151523Y-59561238D01*
X147054761Y-59609619D01*
X146861238Y-59609619D01*
X146764476Y-59561238D01*
X146667714Y-59464476D01*
X146619333Y-59270952D01*
X146619333Y-58932285D01*
X146667714Y-58738761D01*
X146764476Y-58642000D01*
X146861238Y-58593619D01*
X147683714Y-58690380D02*
X147732095Y-58642000D01*
X147828857Y-58593619D01*
X148070761Y-58593619D01*
X148167523Y-58642000D01*
X148215904Y-58690380D01*
X148264285Y-58787142D01*
X148264285Y-58883904D01*
X148215904Y-59029047D01*
X147635333Y-59609619D01*
X148264285Y-59609619D01*
X96367121Y-79683219D02*
X96367121Y-78667219D01*
X96705788Y-79392933D01*
X97044455Y-78667219D01*
X97044455Y-79683219D01*
X97963693Y-78667219D02*
X97770169Y-78667219D01*
X97673407Y-78715600D01*
X97625026Y-78763980D01*
X97528264Y-78909123D01*
X97479883Y-79102647D01*
X97479883Y-79489695D01*
X97528264Y-79586457D01*
X97576645Y-79634838D01*
X97673407Y-79683219D01*
X97866931Y-79683219D01*
X97963693Y-79634838D01*
X98012074Y-79586457D01*
X98060455Y-79489695D01*
X98060455Y-79247790D01*
X98012074Y-79151028D01*
X97963693Y-79102647D01*
X97866931Y-79054266D01*
X97673407Y-79054266D01*
X97576645Y-79102647D01*
X97528264Y-79151028D01*
X97479883Y-79247790D01*
X127684112Y-79810219D02*
X127684112Y-78794219D01*
X128022778Y-79519933D01*
X128361445Y-78794219D01*
X128361445Y-79810219D01*
X129377445Y-79810219D02*
X128796874Y-79810219D01*
X129087159Y-79810219D02*
X129087159Y-78794219D01*
X128990398Y-78939361D01*
X128893636Y-79036123D01*
X128796874Y-79084504D01*
X130006398Y-78794219D02*
X130103159Y-78794219D01*
X130199921Y-78842600D01*
X130248302Y-78890980D01*
X130296683Y-78987742D01*
X130345064Y-79181266D01*
X130345064Y-79423171D01*
X130296683Y-79616695D01*
X130248302Y-79713457D01*
X130199921Y-79761838D01*
X130103159Y-79810219D01*
X130006398Y-79810219D01*
X129909636Y-79761838D01*
X129861255Y-79713457D01*
X129812874Y-79616695D01*
X129764493Y-79423171D01*
X129764493Y-79181266D01*
X129812874Y-78987742D01*
X129861255Y-78890980D01*
X129909636Y-78842600D01*
X130006398Y-78794219D01*
X144714095Y-56739619D02*
X144714095Y-55723619D01*
X145294666Y-56739619D01*
X145294666Y-55723619D01*
X145778476Y-56207428D02*
X146117142Y-56207428D01*
X146262285Y-56739619D02*
X145778476Y-56739619D01*
X145778476Y-55723619D01*
X146262285Y-55723619D01*
X146891238Y-55723619D02*
X147084761Y-55723619D01*
X147181523Y-55772000D01*
X147278285Y-55868761D01*
X147326666Y-56062285D01*
X147326666Y-56400952D01*
X147278285Y-56594476D01*
X147181523Y-56691238D01*
X147084761Y-56739619D01*
X146891238Y-56739619D01*
X146794476Y-56691238D01*
X146697714Y-56594476D01*
X146649333Y-56400952D01*
X146649333Y-56062285D01*
X146697714Y-55868761D01*
X146794476Y-55772000D01*
X146891238Y-55723619D01*
X148294285Y-56739619D02*
X147713714Y-56739619D01*
X148004000Y-56739619D02*
X148004000Y-55723619D01*
X147907238Y-55868761D01*
X147810476Y-55965523D01*
X147713714Y-56013904D01*
X122668000Y-47325904D02*
X122716380Y-47229142D01*
X122716380Y-47084000D01*
X122668000Y-46938857D01*
X122571238Y-46842095D01*
X122474476Y-46793714D01*
X122280952Y-46745333D01*
X122135809Y-46745333D01*
X121942285Y-46793714D01*
X121845523Y-46842095D01*
X121748761Y-46938857D01*
X121700380Y-47084000D01*
X121700380Y-47180761D01*
X121748761Y-47325904D01*
X121797142Y-47374285D01*
X122135809Y-47374285D01*
X122135809Y-47180761D01*
X121700380Y-47809714D02*
X122716380Y-47809714D01*
X121700380Y-48390285D01*
X122716380Y-48390285D01*
X121700380Y-48874095D02*
X122716380Y-48874095D01*
X122716380Y-49116000D01*
X122668000Y-49261142D01*
X122571238Y-49357904D01*
X122474476Y-49406285D01*
X122280952Y-49454666D01*
X122135809Y-49454666D01*
X121942285Y-49406285D01*
X121845523Y-49357904D01*
X121748761Y-49261142D01*
X121700380Y-49116000D01*
X121700380Y-48874095D01*
D11*
X79038095Y-42242857D02*
X80561904Y-42242857D01*
D10*
X84359285Y-44406190D02*
X84359285Y-45373809D01*
X83875476Y-44890000D02*
X84843095Y-44890000D01*
X134028000Y-49925904D02*
X134076380Y-49829142D01*
X134076380Y-49684000D01*
X134028000Y-49538857D01*
X133931238Y-49442095D01*
X133834476Y-49393714D01*
X133640952Y-49345333D01*
X133495809Y-49345333D01*
X133302285Y-49393714D01*
X133205523Y-49442095D01*
X133108761Y-49538857D01*
X133060380Y-49684000D01*
X133060380Y-49780761D01*
X133108761Y-49925904D01*
X133157142Y-49974285D01*
X133495809Y-49974285D01*
X133495809Y-49780761D01*
X133060380Y-50409714D02*
X134076380Y-50409714D01*
X133060380Y-50990285D01*
X134076380Y-50990285D01*
X133060380Y-51474095D02*
X134076380Y-51474095D01*
X134076380Y-51716000D01*
X134028000Y-51861142D01*
X133931238Y-51957904D01*
X133834476Y-52006285D01*
X133640952Y-52054666D01*
X133495809Y-52054666D01*
X133302285Y-52006285D01*
X133205523Y-51957904D01*
X133108761Y-51861142D01*
X133060380Y-51716000D01*
X133060380Y-51474095D01*
X115366321Y-79784819D02*
X115366321Y-78768819D01*
X115704988Y-79494533D01*
X116043655Y-78768819D01*
X116043655Y-79784819D01*
X116575845Y-79784819D02*
X116769369Y-79784819D01*
X116866131Y-79736438D01*
X116914512Y-79688057D01*
X117011274Y-79542914D01*
X117059655Y-79349390D01*
X117059655Y-78962342D01*
X117011274Y-78865580D01*
X116962893Y-78817200D01*
X116866131Y-78768819D01*
X116672607Y-78768819D01*
X116575845Y-78817200D01*
X116527464Y-78865580D01*
X116479083Y-78962342D01*
X116479083Y-79204247D01*
X116527464Y-79301009D01*
X116575845Y-79349390D01*
X116672607Y-79397771D01*
X116866131Y-79397771D01*
X116962893Y-79349390D01*
X117011274Y-79301009D01*
X117059655Y-79204247D01*
X93623921Y-79708619D02*
X93623921Y-78692619D01*
X93962588Y-79418333D01*
X94301255Y-78692619D01*
X94301255Y-79708619D01*
X95268874Y-78692619D02*
X94785064Y-78692619D01*
X94736683Y-79176428D01*
X94785064Y-79128047D01*
X94881826Y-79079666D01*
X95123731Y-79079666D01*
X95220493Y-79128047D01*
X95268874Y-79176428D01*
X95317255Y-79273190D01*
X95317255Y-79515095D01*
X95268874Y-79611857D01*
X95220493Y-79660238D01*
X95123731Y-79708619D01*
X94881826Y-79708619D01*
X94785064Y-79660238D01*
X94736683Y-79611857D01*
X110945817Y-46793714D02*
X110945817Y-47567810D01*
X110558769Y-47180762D02*
X111332865Y-47180762D01*
X111574769Y-48535429D02*
X111574769Y-48051619D01*
X111090960Y-48003238D01*
X111139341Y-48051619D01*
X111187722Y-48148381D01*
X111187722Y-48390286D01*
X111139341Y-48487048D01*
X111090960Y-48535429D01*
X110994198Y-48583810D01*
X110752293Y-48583810D01*
X110655531Y-48535429D01*
X110607150Y-48487048D01*
X110558769Y-48390286D01*
X110558769Y-48148381D01*
X110607150Y-48051619D01*
X110655531Y-48003238D01*
X71932321Y-79581619D02*
X71932321Y-78565619D01*
X72270988Y-79291333D01*
X72609655Y-78565619D01*
X72609655Y-79581619D01*
X73625655Y-79581619D02*
X73045083Y-79581619D01*
X73335369Y-79581619D02*
X73335369Y-78565619D01*
X73238607Y-78710761D01*
X73141845Y-78807523D01*
X73045083Y-78855904D01*
D12*
X155711142Y-63054428D02*
X156291714Y-63054428D01*
X156001428Y-63344714D02*
X156001428Y-62764142D01*
X156618285Y-63127000D02*
X156981142Y-63127000D01*
X156545714Y-63344714D02*
X156799714Y-62582714D01*
X157053714Y-63344714D01*
X157307714Y-62582714D02*
X157307714Y-63199571D01*
X157344000Y-63272142D01*
X157380285Y-63308428D01*
X157452857Y-63344714D01*
X157598000Y-63344714D01*
X157670571Y-63308428D01*
X157706857Y-63272142D01*
X157743142Y-63199571D01*
X157743142Y-62582714D01*
X158033428Y-62582714D02*
X158541428Y-63344714D01*
X158541428Y-62582714D02*
X158033428Y-63344714D01*
D10*
X83896190Y-47370714D02*
X84863809Y-47370714D01*
X141876380Y-49442095D02*
X141876380Y-50071047D01*
X141489333Y-49732380D01*
X141489333Y-49877523D01*
X141440952Y-49974285D01*
X141392571Y-50022666D01*
X141295809Y-50071047D01*
X141053904Y-50071047D01*
X140957142Y-50022666D01*
X140908761Y-49974285D01*
X140860380Y-49877523D01*
X140860380Y-49587238D01*
X140908761Y-49490476D01*
X140957142Y-49442095D01*
X141876380Y-50361333D02*
X140860380Y-50700000D01*
X141876380Y-51038666D01*
X141876380Y-51280571D02*
X141876380Y-51909523D01*
X141489333Y-51570857D01*
X141489333Y-51716000D01*
X141440952Y-51812761D01*
X141392571Y-51861142D01*
X141295809Y-51909523D01*
X141053904Y-51909523D01*
X140957142Y-51861142D01*
X140908761Y-51812761D01*
X140860380Y-51716000D01*
X140860380Y-51425714D01*
X140908761Y-51328952D01*
X140957142Y-51280571D01*
X148229083Y-79570733D02*
X148712893Y-79570733D01*
X148132321Y-79861019D02*
X148470988Y-78845019D01*
X148809655Y-79861019D01*
X149680512Y-79861019D02*
X149099940Y-79861019D01*
X149390226Y-79861019D02*
X149390226Y-78845019D01*
X149293464Y-78990161D01*
X149196702Y-79086923D01*
X149099940Y-79135304D01*
D12*
X155651571Y-68244428D02*
X156232142Y-68244428D01*
X155941857Y-68534714D02*
X155941857Y-67954142D01*
X156849000Y-68135571D02*
X156957857Y-68171857D01*
X156994142Y-68208142D01*
X157030428Y-68280714D01*
X157030428Y-68389571D01*
X156994142Y-68462142D01*
X156957857Y-68498428D01*
X156885285Y-68534714D01*
X156595000Y-68534714D01*
X156595000Y-67772714D01*
X156849000Y-67772714D01*
X156921571Y-67809000D01*
X156957857Y-67845285D01*
X156994142Y-67917857D01*
X156994142Y-67990428D01*
X156957857Y-68063000D01*
X156921571Y-68099285D01*
X156849000Y-68135571D01*
X156595000Y-68135571D01*
X157320714Y-68317000D02*
X157683571Y-68317000D01*
X157248142Y-68534714D02*
X157502142Y-67772714D01*
X157756142Y-68534714D01*
X157901285Y-67772714D02*
X158336714Y-67772714D01*
X158119000Y-68534714D02*
X158119000Y-67772714D01*
X158481857Y-67772714D02*
X158917285Y-67772714D01*
X158699571Y-68534714D02*
X158699571Y-67772714D01*
D10*
X150921483Y-79621533D02*
X151405293Y-79621533D01*
X150824721Y-79911819D02*
X151163388Y-78895819D01*
X151502055Y-79911819D01*
X151792340Y-78992580D02*
X151840721Y-78944200D01*
X151937483Y-78895819D01*
X152179388Y-78895819D01*
X152276150Y-78944200D01*
X152324531Y-78992580D01*
X152372912Y-79089342D01*
X152372912Y-79186104D01*
X152324531Y-79331247D01*
X151743959Y-79911819D01*
X152372912Y-79911819D01*
X124448761Y-46745333D02*
X124400380Y-46890476D01*
X124400380Y-47132380D01*
X124448761Y-47229142D01*
X124497142Y-47277523D01*
X124593904Y-47325904D01*
X124690666Y-47325904D01*
X124787428Y-47277523D01*
X124835809Y-47229142D01*
X124884190Y-47132380D01*
X124932571Y-46938857D01*
X124980952Y-46842095D01*
X125029333Y-46793714D01*
X125126095Y-46745333D01*
X125222857Y-46745333D01*
X125319619Y-46793714D01*
X125368000Y-46842095D01*
X125416380Y-46938857D01*
X125416380Y-47180761D01*
X125368000Y-47325904D01*
X124497142Y-48341904D02*
X124448761Y-48293523D01*
X124400380Y-48148380D01*
X124400380Y-48051618D01*
X124448761Y-47906476D01*
X124545523Y-47809714D01*
X124642285Y-47761333D01*
X124835809Y-47712952D01*
X124980952Y-47712952D01*
X125174476Y-47761333D01*
X125271238Y-47809714D01*
X125368000Y-47906476D01*
X125416380Y-48051618D01*
X125416380Y-48148380D01*
X125368000Y-48293523D01*
X125319619Y-48341904D01*
X124400380Y-49261142D02*
X124400380Y-48777333D01*
X125416380Y-48777333D01*
X119082812Y-47325904D02*
X119131192Y-47229142D01*
X119131192Y-47084000D01*
X119082812Y-46938857D01*
X118986050Y-46842095D01*
X118889288Y-46793714D01*
X118695764Y-46745333D01*
X118550621Y-46745333D01*
X118357097Y-46793714D01*
X118260335Y-46842095D01*
X118163573Y-46938857D01*
X118115192Y-47084000D01*
X118115192Y-47180761D01*
X118163573Y-47325904D01*
X118211954Y-47374285D01*
X118550621Y-47374285D01*
X118550621Y-47180761D01*
X118115192Y-47809714D02*
X119131192Y-47809714D01*
X118115192Y-48390285D01*
X119131192Y-48390285D01*
X118115192Y-48874095D02*
X119131192Y-48874095D01*
X119131192Y-49116000D01*
X119082812Y-49261142D01*
X118986050Y-49357904D01*
X118889288Y-49406285D01*
X118695764Y-49454666D01*
X118550621Y-49454666D01*
X118357097Y-49406285D01*
X118260335Y-49357904D01*
X118163573Y-49261142D01*
X118115192Y-49116000D01*
X118115192Y-48874095D01*
X124609047Y-42674523D02*
X124609047Y-41404523D01*
X125213809Y-42674523D02*
X125213809Y-41404523D01*
X125637142Y-42311666D01*
X126060476Y-41404523D01*
X126060476Y-42674523D01*
X126665238Y-41404523D02*
X126665238Y-42432619D01*
X126725714Y-42553571D01*
X126786190Y-42614047D01*
X126907142Y-42674523D01*
X127149047Y-42674523D01*
X127270000Y-42614047D01*
X127330476Y-42553571D01*
X127390952Y-42432619D01*
X127390952Y-41404523D01*
X135808761Y-49390476D02*
X135760380Y-49535619D01*
X135760380Y-49777523D01*
X135808761Y-49874285D01*
X135857142Y-49922666D01*
X135953904Y-49971047D01*
X136050666Y-49971047D01*
X136147428Y-49922666D01*
X136195809Y-49874285D01*
X136244190Y-49777523D01*
X136292571Y-49584000D01*
X136340952Y-49487238D01*
X136389333Y-49438857D01*
X136486095Y-49390476D01*
X136582857Y-49390476D01*
X136679619Y-49438857D01*
X136728000Y-49487238D01*
X136776380Y-49584000D01*
X136776380Y-49825904D01*
X136728000Y-49971047D01*
X135857142Y-50987047D02*
X135808761Y-50938666D01*
X135760380Y-50793523D01*
X135760380Y-50696761D01*
X135808761Y-50551619D01*
X135905523Y-50454857D01*
X136002285Y-50406476D01*
X136195809Y-50358095D01*
X136340952Y-50358095D01*
X136534476Y-50406476D01*
X136631238Y-50454857D01*
X136728000Y-50551619D01*
X136776380Y-50696761D01*
X136776380Y-50793523D01*
X136728000Y-50938666D01*
X136679619Y-50987047D01*
X135760380Y-51906285D02*
X135760380Y-51422476D01*
X136776380Y-51422476D01*
D13*
X66647826Y-49573571D02*
X66647826Y-50420238D01*
X65377826Y-49573571D01*
X65377826Y-50420238D01*
X66647826Y-50904047D02*
X65619730Y-50904047D01*
X65498778Y-50964523D01*
X65438302Y-51025000D01*
X65377826Y-51145952D01*
X65377826Y-51387857D01*
X65438302Y-51508809D01*
X65498778Y-51569285D01*
X65619730Y-51629761D01*
X66647826Y-51629761D01*
X65377826Y-52234523D02*
X66647826Y-52234523D01*
X65377826Y-52960238D02*
X66103540Y-52415952D01*
X66647826Y-52960238D02*
X65922111Y-52234523D01*
X66647826Y-53746428D02*
X66647826Y-53988333D01*
X66587350Y-54109285D01*
X66466397Y-54230238D01*
X66224492Y-54290714D01*
X65801159Y-54290714D01*
X65559254Y-54230238D01*
X65438302Y-54109285D01*
X65377826Y-53988333D01*
X65377826Y-53746428D01*
X65438302Y-53625476D01*
X65559254Y-53504523D01*
X65801159Y-53444047D01*
X66224492Y-53444047D01*
X66466397Y-53504523D01*
X66587350Y-53625476D01*
X66647826Y-53746428D01*
X65861635Y-55802619D02*
X65861635Y-56770238D01*
X65740683Y-58282142D02*
X65740683Y-58886904D01*
X65377826Y-58161190D02*
X66647826Y-58584523D01*
X65377826Y-59007857D01*
X65377826Y-61124523D02*
X65982588Y-60701190D01*
X65377826Y-60398809D02*
X66647826Y-60398809D01*
X66647826Y-60882619D01*
X66587350Y-61003571D01*
X66526873Y-61064047D01*
X66405921Y-61124523D01*
X66224492Y-61124523D01*
X66103540Y-61064047D01*
X66043064Y-61003571D01*
X65982588Y-60882619D01*
X65982588Y-60398809D01*
X66647826Y-61910714D02*
X66647826Y-62152619D01*
X66587350Y-62273571D01*
X66466397Y-62394523D01*
X66224492Y-62455000D01*
X65801159Y-62455000D01*
X65559254Y-62394523D01*
X65438302Y-62273571D01*
X65377826Y-62152619D01*
X65377826Y-61910714D01*
X65438302Y-61789761D01*
X65559254Y-61668809D01*
X65801159Y-61608333D01*
X66224492Y-61608333D01*
X66466397Y-61668809D01*
X66587350Y-61789761D01*
X66647826Y-61910714D01*
X66043064Y-63422619D02*
X65982588Y-63604047D01*
X65922111Y-63664523D01*
X65801159Y-63725000D01*
X65619730Y-63725000D01*
X65498778Y-63664523D01*
X65438302Y-63604047D01*
X65377826Y-63483095D01*
X65377826Y-62999285D01*
X66647826Y-62999285D01*
X66647826Y-63422619D01*
X66587350Y-63543571D01*
X66526873Y-63604047D01*
X66405921Y-63664523D01*
X66284969Y-63664523D01*
X66164016Y-63604047D01*
X66103540Y-63543571D01*
X66043064Y-63422619D01*
X66043064Y-62999285D01*
X66647826Y-64511190D02*
X66647826Y-64753095D01*
X66587350Y-64874047D01*
X66466397Y-64995000D01*
X66224492Y-65055476D01*
X65801159Y-65055476D01*
X65559254Y-64995000D01*
X65438302Y-64874047D01*
X65377826Y-64753095D01*
X65377826Y-64511190D01*
X65438302Y-64390238D01*
X65559254Y-64269285D01*
X65801159Y-64208809D01*
X66224492Y-64208809D01*
X66466397Y-64269285D01*
X66587350Y-64390238D01*
X66647826Y-64511190D01*
X66647826Y-65418333D02*
X66647826Y-66144047D01*
X65377826Y-65781190D02*
X66647826Y-65781190D01*
X65377826Y-67535000D02*
X66647826Y-67535000D01*
X66647826Y-67837380D01*
X66587350Y-68018809D01*
X66466397Y-68139761D01*
X66345445Y-68200238D01*
X66103540Y-68260714D01*
X65922111Y-68260714D01*
X65680207Y-68200238D01*
X65559254Y-68139761D01*
X65438302Y-68018809D01*
X65377826Y-67837380D01*
X65377826Y-67535000D01*
X66647826Y-69046904D02*
X66647826Y-69288809D01*
X66587350Y-69409761D01*
X66466397Y-69530714D01*
X66224492Y-69591190D01*
X65801159Y-69591190D01*
X65559254Y-69530714D01*
X65438302Y-69409761D01*
X65377826Y-69288809D01*
X65377826Y-69046904D01*
X65438302Y-68925952D01*
X65559254Y-68805000D01*
X65801159Y-68744523D01*
X66224492Y-68744523D01*
X66466397Y-68805000D01*
X66587350Y-68925952D01*
X66647826Y-69046904D01*
X66587350Y-70800714D02*
X66647826Y-70679761D01*
X66647826Y-70498333D01*
X66587350Y-70316904D01*
X66466397Y-70195952D01*
X66345445Y-70135476D01*
X66103540Y-70075000D01*
X65922111Y-70075000D01*
X65680207Y-70135476D01*
X65559254Y-70195952D01*
X65438302Y-70316904D01*
X65377826Y-70498333D01*
X65377826Y-70619285D01*
X65438302Y-70800714D01*
X65498778Y-70861190D01*
X65922111Y-70861190D01*
X65922111Y-70619285D01*
X65498778Y-71405476D02*
X65438302Y-71465952D01*
X65377826Y-71405476D01*
X65438302Y-71345000D01*
X65498778Y-71405476D01*
X65377826Y-71405476D01*
X65861635Y-71405476D02*
X66587350Y-71345000D01*
X66647826Y-71405476D01*
X66587350Y-71465952D01*
X65861635Y-71405476D01*
X66647826Y-71405476D01*
X63333126Y-47547619D02*
X64603126Y-47547619D01*
X63695983Y-47970952D01*
X64603126Y-48394285D01*
X63333126Y-48394285D01*
X64603126Y-49240952D02*
X64603126Y-49482857D01*
X64542650Y-49603809D01*
X64421697Y-49724761D01*
X64179792Y-49785238D01*
X63756459Y-49785238D01*
X63514554Y-49724761D01*
X63393602Y-49603809D01*
X63333126Y-49482857D01*
X63333126Y-49240952D01*
X63393602Y-49120000D01*
X63514554Y-48999047D01*
X63756459Y-48938571D01*
X64179792Y-48938571D01*
X64421697Y-48999047D01*
X64542650Y-49120000D01*
X64603126Y-49240952D01*
X64603126Y-50148095D02*
X64603126Y-50873809D01*
X63333126Y-50510952D02*
X64603126Y-50510952D01*
X64603126Y-51539047D02*
X64603126Y-51780952D01*
X64542650Y-51901904D01*
X64421697Y-52022857D01*
X64179792Y-52083333D01*
X63756459Y-52083333D01*
X63514554Y-52022857D01*
X63393602Y-51901904D01*
X63333126Y-51780952D01*
X63333126Y-51539047D01*
X63393602Y-51418095D01*
X63514554Y-51297142D01*
X63756459Y-51236666D01*
X64179792Y-51236666D01*
X64421697Y-51297142D01*
X64542650Y-51418095D01*
X64603126Y-51539047D01*
X63333126Y-53353333D02*
X63937888Y-52930000D01*
X63333126Y-52627619D02*
X64603126Y-52627619D01*
X64603126Y-53111428D01*
X64542650Y-53232380D01*
X64482173Y-53292857D01*
X64361221Y-53353333D01*
X64179792Y-53353333D01*
X64058840Y-53292857D01*
X63998364Y-53232380D01*
X63937888Y-53111428D01*
X63937888Y-52627619D01*
X63454078Y-55590952D02*
X63393602Y-55530476D01*
X63333126Y-55349047D01*
X63333126Y-55228095D01*
X63393602Y-55046666D01*
X63514554Y-54925714D01*
X63635507Y-54865238D01*
X63877411Y-54804761D01*
X64058840Y-54804761D01*
X64300745Y-54865238D01*
X64421697Y-54925714D01*
X64542650Y-55046666D01*
X64603126Y-55228095D01*
X64603126Y-55349047D01*
X64542650Y-55530476D01*
X64482173Y-55590952D01*
X64603126Y-55953809D02*
X64603126Y-56679523D01*
X63333126Y-56316666D02*
X64603126Y-56316666D01*
X63333126Y-57828571D02*
X63937888Y-57405238D01*
X63333126Y-57102857D02*
X64603126Y-57102857D01*
X64603126Y-57586666D01*
X64542650Y-57707619D01*
X64482173Y-57768095D01*
X64361221Y-57828571D01*
X64179792Y-57828571D01*
X64058840Y-57768095D01*
X63998364Y-57707619D01*
X63937888Y-57586666D01*
X63937888Y-57102857D01*
X63333126Y-58977619D02*
X63333126Y-58372857D01*
X64603126Y-58372857D01*
X63454078Y-59400952D02*
X63393602Y-59461428D01*
X63333126Y-59400952D01*
X63393602Y-59340476D01*
X63454078Y-59400952D01*
X63333126Y-59400952D01*
X63816935Y-60973333D02*
X63816935Y-61940952D01*
X64482173Y-63452857D02*
X64542650Y-63513333D01*
X64603126Y-63634285D01*
X64603126Y-63936666D01*
X64542650Y-64057619D01*
X64482173Y-64118095D01*
X64361221Y-64178571D01*
X64240269Y-64178571D01*
X64058840Y-64118095D01*
X63333126Y-63392380D01*
X63333126Y-64178571D01*
X64603126Y-64964761D02*
X64603126Y-65085714D01*
X64542650Y-65206666D01*
X64482173Y-65267142D01*
X64361221Y-65327619D01*
X64119316Y-65388095D01*
X63816935Y-65388095D01*
X63575030Y-65327619D01*
X63454078Y-65267142D01*
X63393602Y-65206666D01*
X63333126Y-65085714D01*
X63333126Y-64964761D01*
X63393602Y-64843809D01*
X63454078Y-64783333D01*
X63575030Y-64722857D01*
X63816935Y-64662380D01*
X64119316Y-64662380D01*
X64361221Y-64722857D01*
X64482173Y-64783333D01*
X64542650Y-64843809D01*
X64603126Y-64964761D01*
X64482173Y-65871904D02*
X64542650Y-65932380D01*
X64603126Y-66053333D01*
X64603126Y-66355714D01*
X64542650Y-66476666D01*
X64482173Y-66537142D01*
X64361221Y-66597619D01*
X64240269Y-66597619D01*
X64058840Y-66537142D01*
X63333126Y-65811428D01*
X63333126Y-66597619D01*
X64482173Y-67081428D02*
X64542650Y-67141904D01*
X64603126Y-67262857D01*
X64603126Y-67565238D01*
X64542650Y-67686190D01*
X64482173Y-67746666D01*
X64361221Y-67807142D01*
X64240269Y-67807142D01*
X64058840Y-67746666D01*
X63333126Y-67020952D01*
X63333126Y-67807142D01*
X63816935Y-69319047D02*
X63816935Y-70286666D01*
X64603126Y-71677619D02*
X63333126Y-72100952D01*
X64603126Y-72524285D01*
X64482173Y-72887142D02*
X64542650Y-72947619D01*
X64603126Y-73068571D01*
X64603126Y-73370952D01*
X64542650Y-73491904D01*
X64482173Y-73552380D01*
X64361221Y-73612857D01*
X64240269Y-73612857D01*
X64058840Y-73552380D01*
X63333126Y-72826666D01*
X63333126Y-73612857D01*
D10*
X146315714Y-42553571D02*
X146255238Y-42614047D01*
X146073809Y-42674523D01*
X145952857Y-42674523D01*
X145771428Y-42614047D01*
X145650476Y-42493095D01*
X145590000Y-42372142D01*
X145529523Y-42130238D01*
X145529523Y-41948809D01*
X145590000Y-41706904D01*
X145650476Y-41585952D01*
X145771428Y-41465000D01*
X145952857Y-41404523D01*
X146073809Y-41404523D01*
X146255238Y-41465000D01*
X146315714Y-41525476D01*
X147101904Y-41404523D02*
X147343809Y-41404523D01*
X147464761Y-41465000D01*
X147585714Y-41585952D01*
X147646190Y-41827857D01*
X147646190Y-42251190D01*
X147585714Y-42493095D01*
X147464761Y-42614047D01*
X147343809Y-42674523D01*
X147101904Y-42674523D01*
X146980952Y-42614047D01*
X146860000Y-42493095D01*
X146799523Y-42251190D01*
X146799523Y-41827857D01*
X146860000Y-41585952D01*
X146980952Y-41465000D01*
X147101904Y-41404523D01*
X148190476Y-42674523D02*
X148190476Y-41404523D01*
X148916190Y-42674523D01*
X148916190Y-41404523D01*
X149339523Y-41404523D02*
X150065238Y-41404523D01*
X149702380Y-42674523D02*
X149702380Y-41404523D01*
X150428095Y-42311666D02*
X151032857Y-42311666D01*
X150307142Y-42674523D02*
X150730476Y-41404523D01*
X151153809Y-42674523D01*
X152302857Y-42553571D02*
X152242380Y-42614047D01*
X152060952Y-42674523D01*
X151940000Y-42674523D01*
X151758571Y-42614047D01*
X151637619Y-42493095D01*
X151577142Y-42372142D01*
X151516666Y-42130238D01*
X151516666Y-41948809D01*
X151577142Y-41706904D01*
X151637619Y-41585952D01*
X151758571Y-41465000D01*
X151940000Y-41404523D01*
X152060952Y-41404523D01*
X152242380Y-41465000D01*
X152302857Y-41525476D01*
X152665714Y-41404523D02*
X153391428Y-41404523D01*
X153028571Y-42674523D02*
X153028571Y-41404523D01*
D12*
X156229857Y-65842142D02*
X156193571Y-65878428D01*
X156084714Y-65914714D01*
X156012142Y-65914714D01*
X155903285Y-65878428D01*
X155830714Y-65805857D01*
X155794428Y-65733285D01*
X155758142Y-65588142D01*
X155758142Y-65479285D01*
X155794428Y-65334142D01*
X155830714Y-65261571D01*
X155903285Y-65189000D01*
X156012142Y-65152714D01*
X156084714Y-65152714D01*
X156193571Y-65189000D01*
X156229857Y-65225285D01*
X156701571Y-65152714D02*
X156846714Y-65152714D01*
X156919285Y-65189000D01*
X156991857Y-65261571D01*
X157028142Y-65406714D01*
X157028142Y-65660714D01*
X156991857Y-65805857D01*
X156919285Y-65878428D01*
X156846714Y-65914714D01*
X156701571Y-65914714D01*
X156629000Y-65878428D01*
X156556428Y-65805857D01*
X156520142Y-65660714D01*
X156520142Y-65406714D01*
X156556428Y-65261571D01*
X156629000Y-65189000D01*
X156701571Y-65152714D01*
X157354714Y-65914714D02*
X157354714Y-65152714D01*
X157608714Y-65697000D01*
X157862714Y-65152714D01*
X157862714Y-65914714D01*
X158225571Y-65842142D02*
X158261857Y-65878428D01*
X158225571Y-65914714D01*
X158189285Y-65878428D01*
X158225571Y-65842142D01*
X158225571Y-65914714D01*
D10*
X114305714Y-42674523D02*
X113882380Y-42069761D01*
X113580000Y-42674523D02*
X113580000Y-41404523D01*
X114063809Y-41404523D01*
X114184761Y-41465000D01*
X114245238Y-41525476D01*
X114305714Y-41646428D01*
X114305714Y-41827857D01*
X114245238Y-41948809D01*
X114184761Y-42009285D01*
X114063809Y-42069761D01*
X113580000Y-42069761D01*
X114850000Y-42674523D02*
X114850000Y-41404523D01*
X115333809Y-41404523D01*
X115454761Y-41465000D01*
X115515238Y-41525476D01*
X115575714Y-41646428D01*
X115575714Y-41827857D01*
X115515238Y-41948809D01*
X115454761Y-42009285D01*
X115333809Y-42069761D01*
X114850000Y-42069761D01*
X116120000Y-42674523D02*
X116120000Y-41827857D01*
X116120000Y-41404523D02*
X116059523Y-41465000D01*
X116120000Y-41525476D01*
X116180476Y-41465000D01*
X116120000Y-41404523D01*
X116120000Y-41525476D01*
X68424702Y-71760838D02*
X68569845Y-71809219D01*
X68811750Y-71809219D01*
X68908512Y-71760838D01*
X68956893Y-71712457D01*
X69005274Y-71615695D01*
X69005274Y-71518933D01*
X68956893Y-71422171D01*
X68908512Y-71373790D01*
X68811750Y-71325409D01*
X68618226Y-71277028D01*
X68521464Y-71228647D01*
X68473083Y-71180266D01*
X68424702Y-71083504D01*
X68424702Y-70986742D01*
X68473083Y-70889980D01*
X68521464Y-70841600D01*
X68618226Y-70793219D01*
X68860131Y-70793219D01*
X69005274Y-70841600D01*
X69440702Y-71809219D02*
X69440702Y-70793219D01*
X70456702Y-70841600D02*
X70359940Y-70793219D01*
X70214798Y-70793219D01*
X70069655Y-70841600D01*
X69972893Y-70938361D01*
X69924512Y-71035123D01*
X69876131Y-71228647D01*
X69876131Y-71373790D01*
X69924512Y-71567314D01*
X69972893Y-71664076D01*
X70069655Y-71760838D01*
X70214798Y-71809219D01*
X70311559Y-71809219D01*
X70456702Y-71760838D01*
X70505083Y-71712457D01*
X70505083Y-71373790D01*
X70311559Y-71373790D01*
X70940512Y-71712457D02*
X70988893Y-71760838D01*
X70940512Y-71809219D01*
X70892131Y-71760838D01*
X70940512Y-71712457D01*
X70940512Y-71809219D01*
X115740369Y-47374286D02*
X116224179Y-47035619D01*
X115740369Y-46793714D02*
X116756369Y-46793714D01*
X116756369Y-47180762D01*
X116707989Y-47277524D01*
X116659608Y-47325905D01*
X116562846Y-47374286D01*
X116417703Y-47374286D01*
X116320941Y-47325905D01*
X116272560Y-47277524D01*
X116224179Y-47180762D01*
X116224179Y-46793714D01*
X115740369Y-47712952D02*
X116417703Y-48245143D01*
X116417703Y-47712952D02*
X115740369Y-48245143D01*
D14*
X154569428Y-54069000D02*
X154496857Y-54032714D01*
X154388000Y-54032714D01*
X154279142Y-54069000D01*
X154206571Y-54141571D01*
X154170285Y-54214142D01*
X154134000Y-54359285D01*
X154134000Y-54468142D01*
X154170285Y-54613285D01*
X154206571Y-54685857D01*
X154279142Y-54758428D01*
X154388000Y-54794714D01*
X154460571Y-54794714D01*
X154569428Y-54758428D01*
X154605714Y-54722142D01*
X154605714Y-54468142D01*
X154460571Y-54468142D01*
X154932285Y-54794714D02*
X154932285Y-54032714D01*
X155367714Y-54794714D01*
X155367714Y-54032714D01*
X155730571Y-54794714D02*
X155730571Y-54032714D01*
X155912000Y-54032714D01*
X156020857Y-54069000D01*
X156093428Y-54141571D01*
X156129714Y-54214142D01*
X156166000Y-54359285D01*
X156166000Y-54468142D01*
X156129714Y-54613285D01*
X156093428Y-54685857D01*
X156020857Y-54758428D01*
X155912000Y-54794714D01*
X155730571Y-54794714D01*
D13*
X159777857Y-73068095D02*
X160805952Y-73068095D01*
X160926904Y-73128571D01*
X160987380Y-73189047D01*
X161047857Y-73310000D01*
X161047857Y-73491428D01*
X160987380Y-73612380D01*
X160564047Y-73068095D02*
X160624523Y-73189047D01*
X160624523Y-73430952D01*
X160564047Y-73551904D01*
X160503571Y-73612380D01*
X160382619Y-73672857D01*
X160019761Y-73672857D01*
X159898809Y-73612380D01*
X159838333Y-73551904D01*
X159777857Y-73430952D01*
X159777857Y-73189047D01*
X159838333Y-73068095D01*
X160624523Y-72463333D02*
X159777857Y-72463333D01*
X159354523Y-72463333D02*
X159415000Y-72523809D01*
X159475476Y-72463333D01*
X159415000Y-72402857D01*
X159354523Y-72463333D01*
X159475476Y-72463333D01*
X159777857Y-72040000D02*
X159777857Y-71556190D01*
X159354523Y-71858571D02*
X160443095Y-71858571D01*
X160564047Y-71798095D01*
X160624523Y-71677142D01*
X160624523Y-71556190D01*
X160624523Y-71132857D02*
X159354523Y-71132857D01*
X160624523Y-70588571D02*
X159959285Y-70588571D01*
X159838333Y-70649047D01*
X159777857Y-70770000D01*
X159777857Y-70951428D01*
X159838333Y-71072380D01*
X159898809Y-71132857D01*
X159777857Y-69439523D02*
X160624523Y-69439523D01*
X159777857Y-69983809D02*
X160443095Y-69983809D01*
X160564047Y-69923333D01*
X160624523Y-69802380D01*
X160624523Y-69620952D01*
X160564047Y-69500000D01*
X160503571Y-69439523D01*
X160624523Y-68834761D02*
X159354523Y-68834761D01*
X159838333Y-68834761D02*
X159777857Y-68713809D01*
X159777857Y-68471904D01*
X159838333Y-68350952D01*
X159898809Y-68290476D01*
X160019761Y-68230000D01*
X160382619Y-68230000D01*
X160503571Y-68290476D01*
X160564047Y-68350952D01*
X160624523Y-68471904D01*
X160624523Y-68713809D01*
X160564047Y-68834761D01*
X160503571Y-67685714D02*
X160564047Y-67625238D01*
X160624523Y-67685714D01*
X160564047Y-67746190D01*
X160503571Y-67685714D01*
X160624523Y-67685714D01*
X160564047Y-66536666D02*
X160624523Y-66657619D01*
X160624523Y-66899523D01*
X160564047Y-67020476D01*
X160503571Y-67080952D01*
X160382619Y-67141428D01*
X160019761Y-67141428D01*
X159898809Y-67080952D01*
X159838333Y-67020476D01*
X159777857Y-66899523D01*
X159777857Y-66657619D01*
X159838333Y-66536666D01*
X160624523Y-65810952D02*
X160564047Y-65931904D01*
X160503571Y-65992380D01*
X160382619Y-66052857D01*
X160019761Y-66052857D01*
X159898809Y-65992380D01*
X159838333Y-65931904D01*
X159777857Y-65810952D01*
X159777857Y-65629523D01*
X159838333Y-65508571D01*
X159898809Y-65448095D01*
X160019761Y-65387619D01*
X160382619Y-65387619D01*
X160503571Y-65448095D01*
X160564047Y-65508571D01*
X160624523Y-65629523D01*
X160624523Y-65810952D01*
X160624523Y-64843333D02*
X159777857Y-64843333D01*
X159898809Y-64843333D02*
X159838333Y-64782857D01*
X159777857Y-64661904D01*
X159777857Y-64480476D01*
X159838333Y-64359523D01*
X159959285Y-64299047D01*
X160624523Y-64299047D01*
X159959285Y-64299047D02*
X159838333Y-64238571D01*
X159777857Y-64117619D01*
X159777857Y-63936190D01*
X159838333Y-63815238D01*
X159959285Y-63754761D01*
X160624523Y-63754761D01*
X159294047Y-62242857D02*
X160926904Y-63331428D01*
X160624523Y-61819523D02*
X159777857Y-61819523D01*
X160019761Y-61819523D02*
X159898809Y-61759047D01*
X159838333Y-61698571D01*
X159777857Y-61577619D01*
X159777857Y-61456666D01*
X160564047Y-60549523D02*
X160624523Y-60670476D01*
X160624523Y-60912380D01*
X160564047Y-61033333D01*
X160443095Y-61093809D01*
X159959285Y-61093809D01*
X159838333Y-61033333D01*
X159777857Y-60912380D01*
X159777857Y-60670476D01*
X159838333Y-60549523D01*
X159959285Y-60489047D01*
X160080238Y-60489047D01*
X160201190Y-61093809D01*
X159777857Y-59400476D02*
X160624523Y-59400476D01*
X159777857Y-59944761D02*
X160443095Y-59944761D01*
X160564047Y-59884285D01*
X160624523Y-59763333D01*
X160624523Y-59581904D01*
X160564047Y-59460952D01*
X160503571Y-59400476D01*
X160624523Y-58795714D02*
X159354523Y-58795714D01*
X159838333Y-58795714D02*
X159777857Y-58674761D01*
X159777857Y-58432857D01*
X159838333Y-58311904D01*
X159898809Y-58251428D01*
X160019761Y-58190952D01*
X160382619Y-58190952D01*
X160503571Y-58251428D01*
X160564047Y-58311904D01*
X160624523Y-58432857D01*
X160624523Y-58674761D01*
X160564047Y-58795714D01*
X160564047Y-57162857D02*
X160624523Y-57283809D01*
X160624523Y-57525714D01*
X160564047Y-57646666D01*
X160443095Y-57707142D01*
X159959285Y-57707142D01*
X159838333Y-57646666D01*
X159777857Y-57525714D01*
X159777857Y-57283809D01*
X159838333Y-57162857D01*
X159959285Y-57102380D01*
X160080238Y-57102380D01*
X160201190Y-57707142D01*
X159777857Y-56558095D02*
X160624523Y-56558095D01*
X159898809Y-56558095D02*
X159838333Y-56497619D01*
X159777857Y-56376666D01*
X159777857Y-56195238D01*
X159838333Y-56074285D01*
X159959285Y-56013809D01*
X160624523Y-56013809D01*
X160564047Y-55469523D02*
X160624523Y-55348571D01*
X160624523Y-55106666D01*
X160564047Y-54985714D01*
X160443095Y-54925238D01*
X160382619Y-54925238D01*
X160261666Y-54985714D01*
X160201190Y-55106666D01*
X160201190Y-55288095D01*
X160140714Y-55409047D01*
X160019761Y-55469523D01*
X159959285Y-55469523D01*
X159838333Y-55409047D01*
X159777857Y-55288095D01*
X159777857Y-55106666D01*
X159838333Y-54985714D01*
X159777857Y-54562380D02*
X159777857Y-54078571D01*
X159354523Y-54380952D02*
X160443095Y-54380952D01*
X160564047Y-54320476D01*
X160624523Y-54199523D01*
X160624523Y-54078571D01*
X160624523Y-53655238D02*
X159777857Y-53655238D01*
X160019761Y-53655238D02*
X159898809Y-53594761D01*
X159838333Y-53534285D01*
X159777857Y-53413333D01*
X159777857Y-53292380D01*
X159294047Y-51961904D02*
X160926904Y-53050476D01*
X159354523Y-51659523D02*
X159354523Y-50812857D01*
X160624523Y-51659523D01*
X160624523Y-50812857D01*
X159777857Y-49784761D02*
X160624523Y-49784761D01*
X159777857Y-50329047D02*
X160443095Y-50329047D01*
X160564047Y-50268571D01*
X160624523Y-50147619D01*
X160624523Y-49966190D01*
X160564047Y-49845238D01*
X160503571Y-49784761D01*
X160624523Y-49180000D02*
X159354523Y-49180000D01*
X160140714Y-49059047D02*
X160624523Y-48696190D01*
X159777857Y-48696190D02*
X160261666Y-49180000D01*
X160624523Y-47970476D02*
X160564047Y-48091428D01*
X160503571Y-48151904D01*
X160382619Y-48212380D01*
X160019761Y-48212380D01*
X159898809Y-48151904D01*
X159838333Y-48091428D01*
X159777857Y-47970476D01*
X159777857Y-47789047D01*
X159838333Y-47668095D01*
X159898809Y-47607619D01*
X160019761Y-47547142D01*
X160382619Y-47547142D01*
X160503571Y-47607619D01*
X160564047Y-47668095D01*
X160624523Y-47789047D01*
X160624523Y-47970476D01*
D10*
X102679285Y-44446190D02*
X102679285Y-45413809D01*
X102195476Y-44930000D02*
X103163095Y-44930000D01*
D14*
X149126857Y-54564428D02*
X149707428Y-54564428D01*
X149417142Y-54854714D02*
X149417142Y-54274142D01*
X150433142Y-54092714D02*
X150070285Y-54092714D01*
X150034000Y-54455571D01*
X150070285Y-54419285D01*
X150142857Y-54383000D01*
X150324285Y-54383000D01*
X150396857Y-54419285D01*
X150433142Y-54455571D01*
X150469428Y-54528142D01*
X150469428Y-54709571D01*
X150433142Y-54782142D01*
X150396857Y-54818428D01*
X150324285Y-54854714D01*
X150142857Y-54854714D01*
X150070285Y-54818428D01*
X150034000Y-54782142D01*
D10*
X93116190Y-47330714D02*
X94083809Y-47330714D01*
X138208761Y-49366285D02*
X138160380Y-49511428D01*
X138160380Y-49753333D01*
X138208761Y-49850095D01*
X138257142Y-49898476D01*
X138353904Y-49946857D01*
X138450666Y-49946857D01*
X138547428Y-49898476D01*
X138595809Y-49850095D01*
X138644190Y-49753333D01*
X138692571Y-49559809D01*
X138740952Y-49463047D01*
X138789333Y-49414666D01*
X138886095Y-49366285D01*
X138982857Y-49366285D01*
X139079619Y-49414666D01*
X139128000Y-49463047D01*
X139176380Y-49559809D01*
X139176380Y-49801714D01*
X139128000Y-49946857D01*
X138160380Y-50382285D02*
X139176380Y-50382285D01*
X139176380Y-50624190D01*
X139128000Y-50769333D01*
X139031238Y-50866095D01*
X138934476Y-50914476D01*
X138740952Y-50962857D01*
X138595809Y-50962857D01*
X138402285Y-50914476D01*
X138305523Y-50866095D01*
X138208761Y-50769333D01*
X138160380Y-50624190D01*
X138160380Y-50382285D01*
X138450666Y-51349904D02*
X138450666Y-51833714D01*
X138160380Y-51253142D02*
X139176380Y-51591809D01*
X138160380Y-51930476D01*
X134542112Y-79886419D02*
X134542112Y-78870419D01*
X134880778Y-79596133D01*
X135219445Y-78870419D01*
X135219445Y-79886419D01*
X136235445Y-79886419D02*
X135654874Y-79886419D01*
X135945159Y-79886419D02*
X135945159Y-78870419D01*
X135848398Y-79015561D01*
X135751636Y-79112323D01*
X135654874Y-79160704D01*
X136622493Y-78967180D02*
X136670874Y-78918800D01*
X136767636Y-78870419D01*
X137009540Y-78870419D01*
X137106302Y-78918800D01*
X137154683Y-78967180D01*
X137203064Y-79063942D01*
X137203064Y-79160704D01*
X137154683Y-79305847D01*
X136574112Y-79886419D01*
X137203064Y-79886419D01*
X77367921Y-79632419D02*
X77367921Y-78616419D01*
X77706588Y-79342133D01*
X78045255Y-78616419D01*
X78045255Y-79632419D01*
X78432302Y-78616419D02*
X79061255Y-78616419D01*
X78722588Y-79003466D01*
X78867731Y-79003466D01*
X78964493Y-79051847D01*
X79012874Y-79100228D01*
X79061255Y-79196990D01*
X79061255Y-79438895D01*
X79012874Y-79535657D01*
X78964493Y-79584038D01*
X78867731Y-79632419D01*
X78577445Y-79632419D01*
X78480683Y-79584038D01*
X78432302Y-79535657D01*
X130516380Y-46696952D02*
X130516380Y-47325904D01*
X130129333Y-46987237D01*
X130129333Y-47132380D01*
X130080952Y-47229142D01*
X130032571Y-47277523D01*
X129935809Y-47325904D01*
X129693904Y-47325904D01*
X129597142Y-47277523D01*
X129548761Y-47229142D01*
X129500380Y-47132380D01*
X129500380Y-46842095D01*
X129548761Y-46745333D01*
X129597142Y-46696952D01*
X130516380Y-47616190D02*
X129500380Y-47954857D01*
X130516380Y-48293523D01*
X130516380Y-48535428D02*
X130516380Y-49164380D01*
X130129333Y-48825714D01*
X130129333Y-48970857D01*
X130080952Y-49067618D01*
X130032571Y-49115999D01*
X129935809Y-49164380D01*
X129693904Y-49164380D01*
X129597142Y-49115999D01*
X129548761Y-49067618D01*
X129500380Y-48970857D01*
X129500380Y-48680571D01*
X129548761Y-48583809D01*
X129597142Y-48535428D01*
X87428809Y-42009285D02*
X87610238Y-42069761D01*
X87670714Y-42130238D01*
X87731190Y-42251190D01*
X87731190Y-42432619D01*
X87670714Y-42553571D01*
X87610238Y-42614047D01*
X87489285Y-42674523D01*
X87005476Y-42674523D01*
X87005476Y-41404523D01*
X87428809Y-41404523D01*
X87549761Y-41465000D01*
X87610238Y-41525476D01*
X87670714Y-41646428D01*
X87670714Y-41767380D01*
X87610238Y-41888333D01*
X87549761Y-41948809D01*
X87428809Y-42009285D01*
X87005476Y-42009285D01*
X88215000Y-42311666D02*
X88819761Y-42311666D01*
X88094047Y-42674523D02*
X88517380Y-41404523D01*
X88940714Y-42674523D01*
X89182619Y-41404523D02*
X89908333Y-41404523D01*
X89545476Y-42674523D02*
X89545476Y-41404523D01*
X90150238Y-41404523D02*
X90875952Y-41404523D01*
X90513095Y-42674523D02*
X90513095Y-41404523D01*
X156132380Y-51865000D02*
X156011428Y-51804523D01*
X155830000Y-51804523D01*
X155648571Y-51865000D01*
X155527619Y-51985952D01*
X155467142Y-52106904D01*
X155406666Y-52348809D01*
X155406666Y-52530238D01*
X155467142Y-52772142D01*
X155527619Y-52893095D01*
X155648571Y-53014047D01*
X155830000Y-53074523D01*
X155950952Y-53074523D01*
X156132380Y-53014047D01*
X156192857Y-52953571D01*
X156192857Y-52530238D01*
X155950952Y-52530238D01*
X156737142Y-53074523D02*
X156737142Y-51804523D01*
X157462857Y-53074523D01*
X157462857Y-51804523D01*
X158067619Y-53074523D02*
X158067619Y-51804523D01*
X158370000Y-51804523D01*
X158551428Y-51865000D01*
X158672380Y-51985952D01*
X158732857Y-52106904D01*
X158793333Y-52348809D01*
X158793333Y-52530238D01*
X158732857Y-52772142D01*
X158672380Y-52893095D01*
X158551428Y-53014047D01*
X158370000Y-53074523D01*
X158067619Y-53074523D01*
X112623121Y-79759419D02*
X112623121Y-78743419D01*
X112961788Y-79469133D01*
X113300455Y-78743419D01*
X113300455Y-79759419D01*
X113929407Y-79178847D02*
X113832645Y-79130466D01*
X113784264Y-79082085D01*
X113735883Y-78985323D01*
X113735883Y-78936942D01*
X113784264Y-78840180D01*
X113832645Y-78791800D01*
X113929407Y-78743419D01*
X114122931Y-78743419D01*
X114219693Y-78791800D01*
X114268074Y-78840180D01*
X114316455Y-78936942D01*
X114316455Y-78985323D01*
X114268074Y-79082085D01*
X114219693Y-79130466D01*
X114122931Y-79178847D01*
X113929407Y-79178847D01*
X113832645Y-79227228D01*
X113784264Y-79275609D01*
X113735883Y-79372371D01*
X113735883Y-79565895D01*
X113784264Y-79662657D01*
X113832645Y-79711038D01*
X113929407Y-79759419D01*
X114122931Y-79759419D01*
X114219693Y-79711038D01*
X114268074Y-79662657D01*
X114316455Y-79565895D01*
X114316455Y-79372371D01*
X114268074Y-79275609D01*
X114219693Y-79227228D01*
X114122931Y-79178847D01*
X102216190Y-47410714D02*
X103183809Y-47410714D01*
X114063969Y-46648571D02*
X114063969Y-47229142D01*
X113047969Y-46938856D02*
X114063969Y-46938856D01*
X113047969Y-47471047D02*
X113725303Y-48003237D01*
X113725303Y-47471047D02*
X113047969Y-48003237D01*
D14*
X151708428Y-54768428D02*
X151817285Y-54804714D01*
X151998714Y-54804714D01*
X152071285Y-54768428D01*
X152107571Y-54732142D01*
X152143857Y-54659571D01*
X152143857Y-54587000D01*
X152107571Y-54514428D01*
X152071285Y-54478142D01*
X151998714Y-54441857D01*
X151853571Y-54405571D01*
X151781000Y-54369285D01*
X151744714Y-54333000D01*
X151708428Y-54260428D01*
X151708428Y-54187857D01*
X151744714Y-54115285D01*
X151781000Y-54079000D01*
X151853571Y-54042714D01*
X152035000Y-54042714D01*
X152143857Y-54079000D01*
X152470428Y-54804714D02*
X152470428Y-54042714D01*
X153232428Y-54079000D02*
X153159857Y-54042714D01*
X153051000Y-54042714D01*
X152942142Y-54079000D01*
X152869571Y-54151571D01*
X152833285Y-54224142D01*
X152797000Y-54369285D01*
X152797000Y-54478142D01*
X152833285Y-54623285D01*
X152869571Y-54695857D01*
X152942142Y-54768428D01*
X153051000Y-54804714D01*
X153123571Y-54804714D01*
X153232428Y-54768428D01*
X153268714Y-54732142D01*
X153268714Y-54478142D01*
X153123571Y-54478142D01*
X153595285Y-54732142D02*
X153631571Y-54768428D01*
X153595285Y-54804714D01*
X153559000Y-54768428D01*
X153595285Y-54732142D01*
X153595285Y-54804714D01*
D11*
X71338095Y-42242857D02*
X72861904Y-42242857D01*
X72100000Y-43004761D02*
X72100000Y-41480952D01*
D10*
X109930721Y-79734019D02*
X109930721Y-78718019D01*
X110269388Y-79443733D01*
X110608055Y-78718019D01*
X110608055Y-79734019D01*
X110995102Y-78718019D02*
X111672436Y-78718019D01*
X111237007Y-79734019D01*
X69014950Y-76400571D02*
X69789045Y-76400571D01*
X93579285Y-44366190D02*
X93579285Y-45333809D01*
X93095476Y-44850000D02*
X94063095Y-44850000D01*
X155384523Y-46132380D02*
X155384523Y-45346190D01*
X155868333Y-45769523D01*
X155868333Y-45588095D01*
X155928809Y-45467142D01*
X155989285Y-45406666D01*
X156110238Y-45346190D01*
X156412619Y-45346190D01*
X156533571Y-45406666D01*
X156594047Y-45467142D01*
X156654523Y-45588095D01*
X156654523Y-45950952D01*
X156594047Y-46071904D01*
X156533571Y-46132380D01*
X155384523Y-44983333D02*
X156654523Y-44560000D01*
X155384523Y-44136666D01*
X155384523Y-43834285D02*
X155384523Y-43048095D01*
X155868333Y-43471428D01*
X155868333Y-43290000D01*
X155928809Y-43169047D01*
X155989285Y-43108571D01*
X156110238Y-43048095D01*
X156412619Y-43048095D01*
X156533571Y-43108571D01*
X156594047Y-43169047D01*
X156654523Y-43290000D01*
X156654523Y-43652857D01*
X156594047Y-43773809D01*
X156533571Y-43834285D01*
X69065750Y-73911371D02*
X69839845Y-73911371D01*
X69452798Y-74298419D02*
X69452798Y-73524323D01*
X131087712Y-79835619D02*
X131087712Y-78819619D01*
X131426378Y-79545333D01*
X131765045Y-78819619D01*
X131765045Y-79835619D01*
X132781045Y-79835619D02*
X132200474Y-79835619D01*
X132490759Y-79835619D02*
X132490759Y-78819619D01*
X132393998Y-78964761D01*
X132297236Y-79061523D01*
X132200474Y-79109904D01*
X133748664Y-79835619D02*
X133168093Y-79835619D01*
X133458378Y-79835619D02*
X133458378Y-78819619D01*
X133361617Y-78964761D01*
X133264855Y-79061523D01*
X133168093Y-79109904D01*
X156073571Y-47984523D02*
X155468809Y-47984523D01*
X155468809Y-46714523D01*
X156496904Y-47319285D02*
X156920238Y-47319285D01*
X157101666Y-47984523D02*
X156496904Y-47984523D01*
X156496904Y-46714523D01*
X157101666Y-46714523D01*
X157645952Y-47984523D02*
X157645952Y-46714523D01*
X157948333Y-46714523D01*
X158129761Y-46775000D01*
X158250714Y-46895952D01*
X158311190Y-47016904D01*
X158371666Y-47258809D01*
X158371666Y-47440238D01*
X158311190Y-47682142D01*
X158250714Y-47803095D01*
X158129761Y-47924047D01*
X157948333Y-47984523D01*
X157645952Y-47984523D01*
D15*
%TO.C,JP1*%
X150805000Y-60712714D02*
X150805000Y-61257000D01*
X150768714Y-61365857D01*
X150696142Y-61438428D01*
X150587285Y-61474714D01*
X150514714Y-61474714D01*
X151167857Y-61474714D02*
X151167857Y-60712714D01*
X151458142Y-60712714D01*
X151530714Y-60749000D01*
X151567000Y-60785285D01*
X151603285Y-60857857D01*
X151603285Y-60966714D01*
X151567000Y-61039285D01*
X151530714Y-61075571D01*
X151458142Y-61111857D01*
X151167857Y-61111857D01*
X152329000Y-61474714D02*
X151893571Y-61474714D01*
X152111285Y-61474714D02*
X152111285Y-60712714D01*
X152038714Y-60821571D01*
X151966142Y-60894142D01*
X151893571Y-60930428D01*
%TO.C,U3*%
X135614380Y-60814904D02*
X136423904Y-60814904D01*
X136519142Y-60767285D01*
X136566761Y-60719666D01*
X136614380Y-60624428D01*
X136614380Y-60433952D01*
X136566761Y-60338714D01*
X136519142Y-60291095D01*
X136423904Y-60243476D01*
X135614380Y-60243476D01*
X135614380Y-59862523D02*
X135614380Y-59243476D01*
X135995333Y-59576809D01*
X135995333Y-59433952D01*
X136042952Y-59338714D01*
X136090571Y-59291095D01*
X136185809Y-59243476D01*
X136423904Y-59243476D01*
X136519142Y-59291095D01*
X136566761Y-59338714D01*
X136614380Y-59433952D01*
X136614380Y-59719666D01*
X136566761Y-59814904D01*
X136519142Y-59862523D01*
%TO.C,U1*%
X71132895Y-54853380D02*
X71132895Y-55662904D01*
X71180514Y-55758142D01*
X71228133Y-55805761D01*
X71323371Y-55853380D01*
X71513847Y-55853380D01*
X71609085Y-55805761D01*
X71656704Y-55758142D01*
X71704323Y-55662904D01*
X71704323Y-54853380D01*
X72704323Y-55853380D02*
X72132895Y-55853380D01*
X72418609Y-55853380D02*
X72418609Y-54853380D01*
X72323371Y-54996238D01*
X72228133Y-55091476D01*
X72132895Y-55139095D01*
%TO.C,R12*%
X112935942Y-54170780D02*
X112602609Y-53694590D01*
X112364514Y-54170780D02*
X112364514Y-53170780D01*
X112745466Y-53170780D01*
X112840704Y-53218400D01*
X112888323Y-53266019D01*
X112935942Y-53361257D01*
X112935942Y-53504114D01*
X112888323Y-53599352D01*
X112840704Y-53646971D01*
X112745466Y-53694590D01*
X112364514Y-53694590D01*
X113888323Y-54170780D02*
X113316895Y-54170780D01*
X113602609Y-54170780D02*
X113602609Y-53170780D01*
X113507371Y-53313638D01*
X113412133Y-53408876D01*
X113316895Y-53456495D01*
X114269276Y-53266019D02*
X114316895Y-53218400D01*
X114412133Y-53170780D01*
X114650228Y-53170780D01*
X114745466Y-53218400D01*
X114793085Y-53266019D01*
X114840704Y-53361257D01*
X114840704Y-53456495D01*
X114793085Y-53599352D01*
X114221657Y-54170780D01*
X114840704Y-54170780D01*
%TO.C,R10*%
X140147142Y-55732380D02*
X139813809Y-55256190D01*
X139575714Y-55732380D02*
X139575714Y-54732380D01*
X139956666Y-54732380D01*
X140051904Y-54780000D01*
X140099523Y-54827619D01*
X140147142Y-54922857D01*
X140147142Y-55065714D01*
X140099523Y-55160952D01*
X140051904Y-55208571D01*
X139956666Y-55256190D01*
X139575714Y-55256190D01*
X141099523Y-55732380D02*
X140528095Y-55732380D01*
X140813809Y-55732380D02*
X140813809Y-54732380D01*
X140718571Y-54875238D01*
X140623333Y-54970476D01*
X140528095Y-55018095D01*
X141718571Y-54732380D02*
X141813809Y-54732380D01*
X141909047Y-54780000D01*
X141956666Y-54827619D01*
X142004285Y-54922857D01*
X142051904Y-55113333D01*
X142051904Y-55351428D01*
X142004285Y-55541904D01*
X141956666Y-55637142D01*
X141909047Y-55684761D01*
X141813809Y-55732380D01*
X141718571Y-55732380D01*
X141623333Y-55684761D01*
X141575714Y-55637142D01*
X141528095Y-55541904D01*
X141480476Y-55351428D01*
X141480476Y-55113333D01*
X141528095Y-54922857D01*
X141575714Y-54827619D01*
X141623333Y-54780000D01*
X141718571Y-54732380D01*
%TO.C,C2*%
X88673105Y-69897112D02*
X88739425Y-69885418D01*
X88883760Y-69928350D01*
X88961774Y-69982977D01*
X89051483Y-70103924D01*
X89074871Y-70236564D01*
X89059252Y-70341892D01*
X88989007Y-70525234D01*
X88907067Y-70642256D01*
X88758807Y-70770972D01*
X88665174Y-70821673D01*
X88532533Y-70845061D01*
X88388198Y-70802129D01*
X88310183Y-70747502D01*
X88220475Y-70626556D01*
X88208781Y-70560235D01*
X87896723Y-70341730D02*
X87830402Y-70353424D01*
X87725075Y-70337805D01*
X87530039Y-70201239D01*
X87479337Y-70107606D01*
X87467643Y-70041285D01*
X87483262Y-69935958D01*
X87537889Y-69857943D01*
X87658835Y-69768235D01*
X88454680Y-69627906D01*
X87947586Y-69272835D01*
%TO.C,R6*%
X117133333Y-55119380D02*
X116800000Y-54643190D01*
X116561904Y-55119380D02*
X116561904Y-54119380D01*
X116942857Y-54119380D01*
X117038095Y-54167000D01*
X117085714Y-54214619D01*
X117133333Y-54309857D01*
X117133333Y-54452714D01*
X117085714Y-54547952D01*
X117038095Y-54595571D01*
X116942857Y-54643190D01*
X116561904Y-54643190D01*
X117990476Y-54119380D02*
X117800000Y-54119380D01*
X117704761Y-54167000D01*
X117657142Y-54214619D01*
X117561904Y-54357476D01*
X117514285Y-54547952D01*
X117514285Y-54928904D01*
X117561904Y-55024142D01*
X117609523Y-55071761D01*
X117704761Y-55119380D01*
X117895238Y-55119380D01*
X117990476Y-55071761D01*
X118038095Y-55024142D01*
X118085714Y-54928904D01*
X118085714Y-54690809D01*
X118038095Y-54595571D01*
X117990476Y-54547952D01*
X117895238Y-54500333D01*
X117704761Y-54500333D01*
X117609523Y-54547952D01*
X117561904Y-54595571D01*
X117514285Y-54690809D01*
%TO.C,R9*%
X134883333Y-55642380D02*
X134550000Y-55166190D01*
X134311904Y-55642380D02*
X134311904Y-54642380D01*
X134692857Y-54642380D01*
X134788095Y-54690000D01*
X134835714Y-54737619D01*
X134883333Y-54832857D01*
X134883333Y-54975714D01*
X134835714Y-55070952D01*
X134788095Y-55118571D01*
X134692857Y-55166190D01*
X134311904Y-55166190D01*
X135359523Y-55642380D02*
X135550000Y-55642380D01*
X135645238Y-55594761D01*
X135692857Y-55547142D01*
X135788095Y-55404285D01*
X135835714Y-55213809D01*
X135835714Y-54832857D01*
X135788095Y-54737619D01*
X135740476Y-54690000D01*
X135645238Y-54642380D01*
X135454761Y-54642380D01*
X135359523Y-54690000D01*
X135311904Y-54737619D01*
X135264285Y-54832857D01*
X135264285Y-55070952D01*
X135311904Y-55166190D01*
X135359523Y-55213809D01*
X135454761Y-55261428D01*
X135645238Y-55261428D01*
X135740476Y-55213809D01*
X135788095Y-55166190D01*
X135835714Y-55070952D01*
%TO.C,U2*%
X93678097Y-66277180D02*
X93678097Y-67086704D01*
X93725716Y-67181942D01*
X93773335Y-67229561D01*
X93868573Y-67277180D01*
X94059049Y-67277180D01*
X94154287Y-67229561D01*
X94201906Y-67181942D01*
X94249525Y-67086704D01*
X94249525Y-66277180D01*
X94678097Y-66372419D02*
X94725716Y-66324800D01*
X94820954Y-66277180D01*
X95059049Y-66277180D01*
X95154287Y-66324800D01*
X95201906Y-66372419D01*
X95249525Y-66467657D01*
X95249525Y-66562895D01*
X95201906Y-66705752D01*
X94630478Y-67277180D01*
X95249525Y-67277180D01*
%TO.C,C6*%
X79757142Y-56205166D02*
X79804761Y-56252785D01*
X79852380Y-56395642D01*
X79852380Y-56490880D01*
X79804761Y-56633738D01*
X79709523Y-56728976D01*
X79614285Y-56776595D01*
X79423809Y-56824214D01*
X79280952Y-56824214D01*
X79090476Y-56776595D01*
X78995238Y-56728976D01*
X78900000Y-56633738D01*
X78852380Y-56490880D01*
X78852380Y-56395642D01*
X78900000Y-56252785D01*
X78947619Y-56205166D01*
X78852380Y-55348023D02*
X78852380Y-55538500D01*
X78900000Y-55633738D01*
X78947619Y-55681357D01*
X79090476Y-55776595D01*
X79280952Y-55824214D01*
X79661904Y-55824214D01*
X79757142Y-55776595D01*
X79804761Y-55728976D01*
X79852380Y-55633738D01*
X79852380Y-55443261D01*
X79804761Y-55348023D01*
X79757142Y-55300404D01*
X79661904Y-55252785D01*
X79423809Y-55252785D01*
X79328571Y-55300404D01*
X79280952Y-55348023D01*
X79233333Y-55443261D01*
X79233333Y-55633738D01*
X79280952Y-55728976D01*
X79328571Y-55776595D01*
X79423809Y-55824214D01*
%TO.C,C1*%
X145563041Y-69897112D02*
X145629361Y-69885418D01*
X145773696Y-69928350D01*
X145851710Y-69982977D01*
X145941419Y-70103924D01*
X145964807Y-70236564D01*
X145949188Y-70341892D01*
X145878943Y-70525234D01*
X145797003Y-70642256D01*
X145648743Y-70770972D01*
X145555110Y-70821673D01*
X145422469Y-70845061D01*
X145278134Y-70802129D01*
X145200119Y-70747502D01*
X145110411Y-70626556D01*
X145098717Y-70560235D01*
X144837522Y-69272835D02*
X145305609Y-69600592D01*
X145071566Y-69436713D02*
X144497989Y-70255866D01*
X144657943Y-70193470D01*
X144790584Y-70170082D01*
X144895912Y-70185701D01*
%TO.C,R8*%
X136573333Y-69042380D02*
X136240000Y-68566190D01*
X136001904Y-69042380D02*
X136001904Y-68042380D01*
X136382857Y-68042380D01*
X136478095Y-68090000D01*
X136525714Y-68137619D01*
X136573333Y-68232857D01*
X136573333Y-68375714D01*
X136525714Y-68470952D01*
X136478095Y-68518571D01*
X136382857Y-68566190D01*
X136001904Y-68566190D01*
X137144761Y-68470952D02*
X137049523Y-68423333D01*
X137001904Y-68375714D01*
X136954285Y-68280476D01*
X136954285Y-68232857D01*
X137001904Y-68137619D01*
X137049523Y-68090000D01*
X137144761Y-68042380D01*
X137335238Y-68042380D01*
X137430476Y-68090000D01*
X137478095Y-68137619D01*
X137525714Y-68232857D01*
X137525714Y-68280476D01*
X137478095Y-68375714D01*
X137430476Y-68423333D01*
X137335238Y-68470952D01*
X137144761Y-68470952D01*
X137049523Y-68518571D01*
X137001904Y-68566190D01*
X136954285Y-68661428D01*
X136954285Y-68851904D01*
X137001904Y-68947142D01*
X137049523Y-68994761D01*
X137144761Y-69042380D01*
X137335238Y-69042380D01*
X137430476Y-68994761D01*
X137478095Y-68947142D01*
X137525714Y-68851904D01*
X137525714Y-68661428D01*
X137478095Y-68566190D01*
X137430476Y-68518571D01*
X137335238Y-68470952D01*
%TO.C,R4*%
X90583333Y-59338380D02*
X90250000Y-58862190D01*
X90011904Y-59338380D02*
X90011904Y-58338380D01*
X90392857Y-58338380D01*
X90488095Y-58386000D01*
X90535714Y-58433619D01*
X90583333Y-58528857D01*
X90583333Y-58671714D01*
X90535714Y-58766952D01*
X90488095Y-58814571D01*
X90392857Y-58862190D01*
X90011904Y-58862190D01*
X91440476Y-58671714D02*
X91440476Y-59338380D01*
X91202380Y-58290761D02*
X90964285Y-59005047D01*
X91583333Y-59005047D01*
%TO.C,R14*%
X101648780Y-57104457D02*
X101172590Y-57437790D01*
X101648780Y-57675885D02*
X100648780Y-57675885D01*
X100648780Y-57294933D01*
X100696400Y-57199695D01*
X100744019Y-57152076D01*
X100839257Y-57104457D01*
X100982114Y-57104457D01*
X101077352Y-57152076D01*
X101124971Y-57199695D01*
X101172590Y-57294933D01*
X101172590Y-57675885D01*
X101648780Y-56152076D02*
X101648780Y-56723504D01*
X101648780Y-56437790D02*
X100648780Y-56437790D01*
X100791638Y-56533028D01*
X100886876Y-56628266D01*
X100934495Y-56723504D01*
X100982114Y-55294933D02*
X101648780Y-55294933D01*
X100601161Y-55533028D02*
X101315447Y-55771123D01*
X101315447Y-55152076D01*
%TO.C,R11*%
X110108142Y-64111380D02*
X109774809Y-63635190D01*
X109536714Y-64111380D02*
X109536714Y-63111380D01*
X109917666Y-63111380D01*
X110012904Y-63159000D01*
X110060523Y-63206619D01*
X110108142Y-63301857D01*
X110108142Y-63444714D01*
X110060523Y-63539952D01*
X110012904Y-63587571D01*
X109917666Y-63635190D01*
X109536714Y-63635190D01*
X111060523Y-64111380D02*
X110489095Y-64111380D01*
X110774809Y-64111380D02*
X110774809Y-63111380D01*
X110679571Y-63254238D01*
X110584333Y-63349476D01*
X110489095Y-63397095D01*
X112012904Y-64111380D02*
X111441476Y-64111380D01*
X111727190Y-64111380D02*
X111727190Y-63111380D01*
X111631952Y-63254238D01*
X111536714Y-63349476D01*
X111441476Y-63397095D01*
%TO.C,JP2*%
X148065000Y-60662714D02*
X148065000Y-61207000D01*
X148028714Y-61315857D01*
X147956142Y-61388428D01*
X147847285Y-61424714D01*
X147774714Y-61424714D01*
X148427857Y-61424714D02*
X148427857Y-60662714D01*
X148718142Y-60662714D01*
X148790714Y-60699000D01*
X148827000Y-60735285D01*
X148863285Y-60807857D01*
X148863285Y-60916714D01*
X148827000Y-60989285D01*
X148790714Y-61025571D01*
X148718142Y-61061857D01*
X148427857Y-61061857D01*
X149153571Y-60735285D02*
X149189857Y-60699000D01*
X149262428Y-60662714D01*
X149443857Y-60662714D01*
X149516428Y-60699000D01*
X149552714Y-60735285D01*
X149589000Y-60807857D01*
X149589000Y-60880428D01*
X149552714Y-60989285D01*
X149117285Y-61424714D01*
X149589000Y-61424714D01*
%TO.C,JP3*%
X153555000Y-60712714D02*
X153555000Y-61257000D01*
X153518714Y-61365857D01*
X153446142Y-61438428D01*
X153337285Y-61474714D01*
X153264714Y-61474714D01*
X153917857Y-61474714D02*
X153917857Y-60712714D01*
X154208142Y-60712714D01*
X154280714Y-60749000D01*
X154317000Y-60785285D01*
X154353285Y-60857857D01*
X154353285Y-60966714D01*
X154317000Y-61039285D01*
X154280714Y-61075571D01*
X154208142Y-61111857D01*
X153917857Y-61111857D01*
X154607285Y-60712714D02*
X155079000Y-60712714D01*
X154825000Y-61003000D01*
X154933857Y-61003000D01*
X155006428Y-61039285D01*
X155042714Y-61075571D01*
X155079000Y-61148142D01*
X155079000Y-61329571D01*
X155042714Y-61402142D01*
X155006428Y-61438428D01*
X154933857Y-61474714D01*
X154716142Y-61474714D01*
X154643571Y-61438428D01*
X154607285Y-61402142D01*
%TO.C,Q2*%
X106015961Y-54621619D02*
X105920723Y-54574000D01*
X105825485Y-54478761D01*
X105682628Y-54335904D01*
X105587390Y-54288285D01*
X105492152Y-54288285D01*
X105539771Y-54526380D02*
X105444533Y-54478761D01*
X105349295Y-54383523D01*
X105301676Y-54193047D01*
X105301676Y-53859714D01*
X105349295Y-53669238D01*
X105444533Y-53574000D01*
X105539771Y-53526380D01*
X105730247Y-53526380D01*
X105825485Y-53574000D01*
X105920723Y-53669238D01*
X105968342Y-53859714D01*
X105968342Y-54193047D01*
X105920723Y-54383523D01*
X105825485Y-54478761D01*
X105730247Y-54526380D01*
X105539771Y-54526380D01*
X106349295Y-53621619D02*
X106396914Y-53574000D01*
X106492152Y-53526380D01*
X106730247Y-53526380D01*
X106825485Y-53574000D01*
X106873104Y-53621619D01*
X106920723Y-53716857D01*
X106920723Y-53812095D01*
X106873104Y-53954952D01*
X106301676Y-54526380D01*
X106920723Y-54526380D01*
%TO.C,R2*%
X85451313Y-59338380D02*
X85117980Y-58862190D01*
X84879884Y-59338380D02*
X84879884Y-58338380D01*
X85260837Y-58338380D01*
X85356075Y-58386000D01*
X85403694Y-58433619D01*
X85451313Y-58528857D01*
X85451313Y-58671714D01*
X85403694Y-58766952D01*
X85356075Y-58814571D01*
X85260837Y-58862190D01*
X84879884Y-58862190D01*
X85832265Y-58433619D02*
X85879884Y-58386000D01*
X85975122Y-58338380D01*
X86213218Y-58338380D01*
X86308456Y-58386000D01*
X86356075Y-58433619D01*
X86403694Y-58528857D01*
X86403694Y-58624095D01*
X86356075Y-58766952D01*
X85784646Y-59338380D01*
X86403694Y-59338380D01*
%TO.C,R13*%
X103909942Y-64162180D02*
X103576609Y-63685990D01*
X103338514Y-64162180D02*
X103338514Y-63162180D01*
X103719466Y-63162180D01*
X103814704Y-63209800D01*
X103862323Y-63257419D01*
X103909942Y-63352657D01*
X103909942Y-63495514D01*
X103862323Y-63590752D01*
X103814704Y-63638371D01*
X103719466Y-63685990D01*
X103338514Y-63685990D01*
X104862323Y-64162180D02*
X104290895Y-64162180D01*
X104576609Y-64162180D02*
X104576609Y-63162180D01*
X104481371Y-63305038D01*
X104386133Y-63400276D01*
X104290895Y-63447895D01*
X105195657Y-63162180D02*
X105814704Y-63162180D01*
X105481371Y-63543133D01*
X105624228Y-63543133D01*
X105719466Y-63590752D01*
X105767085Y-63638371D01*
X105814704Y-63733609D01*
X105814704Y-63971704D01*
X105767085Y-64066942D01*
X105719466Y-64114561D01*
X105624228Y-64162180D01*
X105338514Y-64162180D01*
X105243276Y-64114561D01*
X105195657Y-64066942D01*
%TO.C,C5*%
X79857142Y-62166666D02*
X79904761Y-62214285D01*
X79952380Y-62357142D01*
X79952380Y-62452380D01*
X79904761Y-62595238D01*
X79809523Y-62690476D01*
X79714285Y-62738095D01*
X79523809Y-62785714D01*
X79380952Y-62785714D01*
X79190476Y-62738095D01*
X79095238Y-62690476D01*
X79000000Y-62595238D01*
X78952380Y-62452380D01*
X78952380Y-62357142D01*
X79000000Y-62214285D01*
X79047619Y-62166666D01*
X78952380Y-61261904D02*
X78952380Y-61738095D01*
X79428571Y-61785714D01*
X79380952Y-61738095D01*
X79333333Y-61642857D01*
X79333333Y-61404761D01*
X79380952Y-61309523D01*
X79428571Y-61261904D01*
X79523809Y-61214285D01*
X79761904Y-61214285D01*
X79857142Y-61261904D01*
X79904761Y-61309523D01*
X79952380Y-61404761D01*
X79952380Y-61642857D01*
X79904761Y-61738095D01*
X79857142Y-61785714D01*
%TO.C,R1*%
X85503333Y-55782380D02*
X85170000Y-55306190D01*
X84931904Y-55782380D02*
X84931904Y-54782380D01*
X85312857Y-54782380D01*
X85408095Y-54830000D01*
X85455714Y-54877619D01*
X85503333Y-54972857D01*
X85503333Y-55115714D01*
X85455714Y-55210952D01*
X85408095Y-55258571D01*
X85312857Y-55306190D01*
X84931904Y-55306190D01*
X86455714Y-55782380D02*
X85884285Y-55782380D01*
X86170000Y-55782380D02*
X86170000Y-54782380D01*
X86074761Y-54925238D01*
X85979523Y-55020476D01*
X85884285Y-55068095D01*
%TO.C,R7*%
X141573333Y-69042380D02*
X141240000Y-68566190D01*
X141001904Y-69042380D02*
X141001904Y-68042380D01*
X141382857Y-68042380D01*
X141478095Y-68090000D01*
X141525714Y-68137619D01*
X141573333Y-68232857D01*
X141573333Y-68375714D01*
X141525714Y-68470952D01*
X141478095Y-68518571D01*
X141382857Y-68566190D01*
X141001904Y-68566190D01*
X141906666Y-68042380D02*
X142573333Y-68042380D01*
X142144761Y-69042380D01*
%TO.C,Q1*%
X110130761Y-54621619D02*
X110035523Y-54574000D01*
X109940285Y-54478761D01*
X109797428Y-54335904D01*
X109702190Y-54288285D01*
X109606952Y-54288285D01*
X109654571Y-54526380D02*
X109559333Y-54478761D01*
X109464095Y-54383523D01*
X109416476Y-54193047D01*
X109416476Y-53859714D01*
X109464095Y-53669238D01*
X109559333Y-53574000D01*
X109654571Y-53526380D01*
X109845047Y-53526380D01*
X109940285Y-53574000D01*
X110035523Y-53669238D01*
X110083142Y-53859714D01*
X110083142Y-54193047D01*
X110035523Y-54383523D01*
X109940285Y-54478761D01*
X109845047Y-54526380D01*
X109654571Y-54526380D01*
X111035523Y-54526380D02*
X110464095Y-54526380D01*
X110749809Y-54526380D02*
X110749809Y-53526380D01*
X110654571Y-53669238D01*
X110559333Y-53764476D01*
X110464095Y-53812095D01*
%TO.C,R3*%
X90658313Y-55782380D02*
X90324980Y-55306190D01*
X90086884Y-55782380D02*
X90086884Y-54782380D01*
X90467837Y-54782380D01*
X90563075Y-54830000D01*
X90610694Y-54877619D01*
X90658313Y-54972857D01*
X90658313Y-55115714D01*
X90610694Y-55210952D01*
X90563075Y-55258571D01*
X90467837Y-55306190D01*
X90086884Y-55306190D01*
X90991646Y-54782380D02*
X91610694Y-54782380D01*
X91277360Y-55163333D01*
X91420218Y-55163333D01*
X91515456Y-55210952D01*
X91563075Y-55258571D01*
X91610694Y-55353809D01*
X91610694Y-55591904D01*
X91563075Y-55687142D01*
X91515456Y-55734761D01*
X91420218Y-55782380D01*
X91134503Y-55782380D01*
X91039265Y-55734761D01*
X90991646Y-55687142D01*
%TO.C,C4*%
X107596105Y-69905282D02*
X107662425Y-69893588D01*
X107806760Y-69936520D01*
X107884774Y-69991147D01*
X107974483Y-70112094D01*
X107997871Y-70244734D01*
X107982252Y-70350062D01*
X107912007Y-70533404D01*
X107830067Y-70650426D01*
X107681807Y-70779142D01*
X107588174Y-70829843D01*
X107455533Y-70853231D01*
X107311198Y-70810299D01*
X107233183Y-70755672D01*
X107143475Y-70634726D01*
X107131781Y-70568405D01*
X106566216Y-69881732D02*
X106948601Y-69335631D01*
X106542747Y-70330356D02*
X107147481Y-69881813D01*
X106640387Y-69526742D01*
%TO.C,C3*%
X126513041Y-69897112D02*
X126579361Y-69885418D01*
X126723696Y-69928350D01*
X126801710Y-69982977D01*
X126891419Y-70103924D01*
X126914807Y-70236564D01*
X126899188Y-70341892D01*
X126828943Y-70525234D01*
X126747003Y-70642256D01*
X126598743Y-70770972D01*
X126505110Y-70821673D01*
X126372469Y-70845061D01*
X126228134Y-70802129D01*
X126150119Y-70747502D01*
X126060411Y-70626556D01*
X126048717Y-70560235D01*
X125721040Y-70447058D02*
X125213946Y-70091987D01*
X125705502Y-69971121D01*
X125588480Y-69889181D01*
X125537779Y-69795548D01*
X125526085Y-69729227D01*
X125541704Y-69623900D01*
X125678269Y-69428863D01*
X125771903Y-69378162D01*
X125838223Y-69366468D01*
X125943551Y-69382087D01*
X126177594Y-69545966D01*
X126228296Y-69639600D01*
X126239990Y-69705920D01*
%TO.C,R5*%
X117069733Y-61333580D02*
X116736400Y-60857390D01*
X116498304Y-61333580D02*
X116498304Y-60333580D01*
X116879257Y-60333580D01*
X116974495Y-60381200D01*
X117022114Y-60428819D01*
X117069733Y-60524057D01*
X117069733Y-60666914D01*
X117022114Y-60762152D01*
X116974495Y-60809771D01*
X116879257Y-60857390D01*
X116498304Y-60857390D01*
X117974495Y-60333580D02*
X117498304Y-60333580D01*
X117450685Y-60809771D01*
X117498304Y-60762152D01*
X117593542Y-60714533D01*
X117831638Y-60714533D01*
X117926876Y-60762152D01*
X117974495Y-60809771D01*
X118022114Y-60905009D01*
X118022114Y-61143104D01*
X117974495Y-61238342D01*
X117926876Y-61285961D01*
X117831638Y-61333580D01*
X117593542Y-61333580D01*
X117498304Y-61285961D01*
X117450685Y-61238342D01*
D16*
%TO.C,JP1*%
X150200000Y-66805000D02*
X150200000Y-61665000D01*
X152860000Y-68075000D02*
X152860000Y-69405000D01*
X152860000Y-66805000D02*
X152860000Y-61665000D01*
X152860000Y-66805000D02*
X150200000Y-66805000D01*
X152860000Y-69405000D02*
X151530000Y-69405000D01*
X152860000Y-61665000D02*
X150200000Y-61665000D01*
%TO.C,U3*%
X143110000Y-60180000D02*
X143110000Y-58230000D01*
X132990000Y-60180000D02*
X132990000Y-63630000D01*
X132990000Y-60180000D02*
X132990000Y-58230000D01*
X143110000Y-60180000D02*
X143110000Y-62130000D01*
%TO.C,U1*%
X72123400Y-61361000D02*
X70173400Y-61361000D01*
X72123400Y-56241000D02*
X74073400Y-56241000D01*
X72123400Y-61361000D02*
X74073400Y-61361000D01*
X72123400Y-56241000D02*
X68673400Y-56241000D01*
%TO.C,J29*%
X149262000Y-46070000D02*
X149262000Y-53750000D01*
X146602000Y-46070000D02*
X149262000Y-46070000D01*
X146602000Y-53750000D02*
X149262000Y-53750000D01*
X146602000Y-44800000D02*
X146602000Y-43470000D01*
X146602000Y-43470000D02*
X147932000Y-43470000D01*
X146602000Y-46070000D02*
X146602000Y-53750000D01*
%TO.C,J4*%
X71190000Y-48910000D02*
X71190000Y-43490000D01*
X79910000Y-43490000D02*
X71190000Y-43490000D01*
X81610000Y-47610000D02*
X79910000Y-48910000D01*
X81610000Y-47610000D02*
X81610000Y-44790000D01*
X79910000Y-48910000D02*
X71190000Y-48910000D01*
X81610000Y-44790000D02*
X79910000Y-43490000D01*
%TO.C,J9*%
X111969929Y-72645000D02*
X111969929Y-77785000D01*
X111969929Y-77785000D02*
X114629929Y-77785000D01*
X111969929Y-71375000D02*
X111969929Y-70045000D01*
X111969929Y-72645000D02*
X114629929Y-72645000D01*
X111969929Y-70045000D02*
X113299929Y-70045000D01*
X114629929Y-72645000D02*
X114629929Y-77785000D01*
%TO.C,J33*%
X109688400Y-46143600D02*
X109688400Y-44813600D01*
X119968400Y-46143600D02*
X119968400Y-43483600D01*
X112288400Y-46143600D02*
X112288400Y-43483600D01*
X112288400Y-43483600D02*
X119968400Y-43483600D01*
X111018400Y-46143600D02*
X109688400Y-46143600D01*
X112288400Y-46143600D02*
X119968400Y-46143600D01*
%TO.C,R12*%
X112681600Y-57569064D02*
X112681600Y-56114936D01*
X114501600Y-57569064D02*
X114501600Y-56114936D01*
%TO.C,J22*%
X152870000Y-72645000D02*
X152870000Y-77785000D01*
X152870000Y-77785000D02*
X155530000Y-77785000D01*
X152870000Y-71375000D02*
X152870000Y-70045000D01*
X152870000Y-72645000D02*
X155530000Y-72645000D01*
X155530000Y-72645000D02*
X155530000Y-77785000D01*
X152870000Y-70045000D02*
X154200000Y-70045000D01*
%TO.C,J7*%
X95713929Y-71375000D02*
X95713929Y-70045000D01*
X95713929Y-77785000D02*
X98373929Y-77785000D01*
X95713929Y-72645000D02*
X98373929Y-72645000D01*
X95713929Y-72645000D02*
X95713929Y-77785000D01*
X98373929Y-72645000D02*
X98373929Y-77785000D01*
X95713929Y-70045000D02*
X97043929Y-70045000D01*
%TO.C,R10*%
X139942936Y-52690000D02*
X141397064Y-52690000D01*
X139942936Y-54510000D02*
X141397064Y-54510000D01*
%TO.C,C2*%
X85248234Y-77079805D02*
X83171314Y-80045955D01*
X89781166Y-74441691D02*
X88473985Y-76308538D01*
X86100152Y-77676325D02*
X84278473Y-80277952D01*
X86427813Y-77905756D02*
X84750102Y-80301775D01*
X85313766Y-77125692D02*
X83251185Y-80071362D01*
X89806046Y-74615371D02*
X85914904Y-80172499D01*
X86821006Y-78181072D02*
X85359533Y-80268272D01*
X88424407Y-71706906D02*
X82709292Y-79868937D01*
X87660646Y-71052479D02*
X81833110Y-79375063D01*
X86296749Y-77813983D02*
X84557665Y-80297652D01*
X89020293Y-72459863D02*
X87032278Y-75299044D01*
X88338728Y-71620055D02*
X82598375Y-79818129D01*
X89179106Y-72721220D02*
X87261640Y-75459645D01*
X89844123Y-75328108D02*
X86597681Y-79964509D01*
X88825273Y-72180478D02*
X86770149Y-75115499D01*
X87050368Y-78341674D02*
X85743188Y-80208521D01*
X89706095Y-74060737D02*
X88244623Y-76147937D01*
X88563000Y-71857664D02*
X82898359Y-79947609D01*
X88281225Y-71562701D02*
X82524812Y-79783711D01*
X86362281Y-77859869D02*
X84653023Y-80300943D01*
X88071692Y-71372036D02*
X82273982Y-79652025D01*
X89771916Y-74385162D02*
X88441219Y-76285595D01*
X89693404Y-74009124D02*
X88211856Y-76124994D01*
X89678797Y-76540549D02*
X87680457Y-79394474D01*
X86067386Y-77653382D02*
X84232515Y-80273849D01*
X89749704Y-76230070D02*
X87412954Y-79567295D01*
X89441022Y-73253757D02*
X87687599Y-75757905D01*
X85608661Y-77332179D02*
X83620645Y-80171360D01*
X89767413Y-76135041D02*
X87329713Y-79616437D01*
X85444830Y-77217464D02*
X83413223Y-80118900D01*
X89840253Y-75473112D02*
X86732616Y-79911278D01*
X89806773Y-75869616D02*
X87093756Y-79744205D01*
X86788240Y-78158129D02*
X85306692Y-80273999D01*
X89345448Y-73041563D02*
X87523769Y-75643190D01*
X89705683Y-76432414D02*
X87588039Y-79456723D01*
X89729756Y-74166422D02*
X88310155Y-76193823D01*
X87758371Y-71122127D02*
X81931982Y-79443073D01*
X88507792Y-71797033D02*
X82822503Y-79916468D01*
X89638626Y-73808405D02*
X88080792Y-76033222D01*
X86558877Y-77997528D02*
X84947701Y-80298526D01*
X88696431Y-72015794D02*
X86606318Y-75000784D01*
X89789842Y-74499038D02*
X88506751Y-76331481D01*
X89252562Y-77637441D02*
X88565417Y-78618785D01*
X88191859Y-71479373D02*
X82415944Y-79728234D01*
X85543129Y-77286293D02*
X83537332Y-80150868D01*
X89751697Y-74274563D02*
X88375687Y-76239709D01*
X86493345Y-77951642D02*
X84847754Y-80301789D01*
X88309977Y-71591378D02*
X82561593Y-79800920D01*
X86886538Y-78226958D02*
X85466936Y-80254360D01*
X85969088Y-77584553D02*
X84097508Y-80257446D01*
X88132062Y-71425295D02*
X82344676Y-79690539D01*
X85084404Y-76965090D02*
X82975363Y-79977112D01*
X89824409Y-75704952D02*
X86945055Y-79817096D01*
X86198450Y-77745154D02*
X84416922Y-80289440D01*
X89157238Y-72682713D02*
X87228874Y-75436702D01*
X85117170Y-76988033D02*
X83014438Y-79991045D01*
X89816451Y-75786055D02*
X87018545Y-79781879D01*
X89422596Y-73210335D02*
X87654833Y-75734962D01*
X89819383Y-74735800D02*
X86032631Y-80143842D01*
X89841540Y-75052846D02*
X86338135Y-80056227D01*
X87948658Y-71268796D02*
X82134887Y-79571721D01*
X85215468Y-77056862D02*
X83131665Y-80032842D01*
X89831220Y-75625488D02*
X86872713Y-79850674D01*
X89568314Y-76907549D02*
X87987537Y-79165132D01*
X89611260Y-76776478D02*
X87879059Y-79250317D01*
X88102164Y-71398256D02*
X82309042Y-79671692D01*
X89264284Y-72878524D02*
X87392704Y-75551417D01*
X89285005Y-72918670D02*
X87425471Y-75574360D01*
X89593670Y-73663394D02*
X87982494Y-75964392D01*
X89370646Y-77399061D02*
X88381801Y-78811279D01*
X87790564Y-71145889D02*
X81965321Y-79465197D01*
X86034620Y-77630439D02*
X84187130Y-80268928D01*
X89825191Y-74797244D02*
X86092356Y-80128285D01*
X89680140Y-73958330D02*
X88179090Y-76102051D01*
X89403595Y-73167733D02*
X87622067Y-75712019D01*
X88748771Y-72080521D02*
X86671851Y-75046670D01*
X86984836Y-78295788D02*
X85631196Y-80228986D01*
X89795947Y-75954814D02*
X87170114Y-79704892D01*
X88535396Y-71827348D02*
X82860431Y-79932038D01*
X88799964Y-72146885D02*
X86737383Y-75092556D01*
X86231216Y-77768097D02*
X84463454Y-80292724D01*
X87854375Y-71194233D02*
X82032574Y-79508626D01*
X86657175Y-78066357D02*
X85099342Y-80291174D01*
X89782827Y-76043289D02*
X87248766Y-79662303D01*
X85674193Y-77378065D02*
X83705105Y-80190214D01*
X89653037Y-73857561D02*
X88113558Y-76056165D01*
X85706959Y-77401008D02*
X83747622Y-80199232D01*
X89813001Y-74675176D02*
X85973481Y-80158580D01*
X87726179Y-71098365D02*
X81898642Y-79420950D01*
X89112355Y-72607337D02*
X87163342Y-75390816D01*
X86460579Y-77928699D02*
X84798928Y-80301782D01*
X85772491Y-77446894D02*
X83833803Y-80215628D01*
X88972542Y-72388583D02*
X86966745Y-75253158D01*
X89089913Y-72569650D02*
X87130576Y-75367873D01*
X88875319Y-72248481D02*
X86835681Y-75161385D01*
X89830425Y-74859506D02*
X86152653Y-80111909D01*
X86165684Y-77722211D02*
X84370390Y-80286157D01*
X85903556Y-77538667D02*
X84008459Y-80245145D01*
X86263982Y-77791040D02*
X84510559Y-80295188D01*
X89647323Y-76655237D02*
X87777464Y-79325672D01*
X85575895Y-77309236D02*
X83578702Y-80161523D01*
X88010749Y-71319597D02*
X82203861Y-79612692D01*
X89845198Y-75256835D02*
X86531074Y-79989896D01*
X88367479Y-71648732D02*
X82635156Y-79835338D01*
X89365595Y-73082527D02*
X87556535Y-75666133D01*
X89762093Y-74329453D02*
X88408453Y-76262652D01*
X89609229Y-73710912D02*
X88015260Y-75987335D01*
X88670548Y-71983021D02*
X86573552Y-74977841D01*
X87822756Y-71169651D02*
X81998661Y-79487321D01*
X89200401Y-72760546D02*
X87294406Y-75482588D01*
X88396230Y-71677409D02*
X82671937Y-79852547D01*
X88850583Y-72214070D02*
X86802915Y-75138442D01*
X89624214Y-73759249D02*
X88048026Y-76010279D01*
X86001854Y-77607496D02*
X84142319Y-80263187D01*
X89843333Y-75120023D02*
X86401874Y-80034936D01*
X89729128Y-76329194D02*
X87499062Y-79514057D01*
X82603611Y-69592925D02*
X82030035Y-70412077D01*
X85739725Y-77423951D02*
X83790712Y-80207430D01*
X89838600Y-74987307D02*
X86275543Y-80075880D01*
X85510363Y-77263350D02*
X83495389Y-80141031D01*
X89741300Y-74219673D02*
X88342921Y-76216766D01*
X85281000Y-77102749D02*
X83210963Y-80059068D01*
X89325874Y-72999779D02*
X87491003Y-75620247D01*
X89516190Y-77051727D02*
X88105192Y-79066841D01*
X86689942Y-78089300D02*
X85150462Y-80287904D01*
X86722708Y-78112243D02*
X85202156Y-80283815D01*
X85641427Y-77355122D02*
X83663162Y-80180378D01*
X86329515Y-77836926D02*
X84605344Y-80299297D01*
X88774654Y-72113293D02*
X86704617Y-75069613D01*
X88452585Y-71736402D02*
X82746646Y-79885326D01*
X86919304Y-78249901D02*
X85520925Y-80246994D01*
X81907247Y-69715713D02*
X82726399Y-70289290D01*
X86395047Y-77882812D02*
X84701276Y-80301768D01*
X87083135Y-78364617D02*
X85800044Y-80197060D01*
X88900055Y-72282892D02*
X86868447Y-75184328D01*
X89834513Y-74923407D02*
X86214098Y-80093894D01*
X89545847Y-73522480D02*
X87884196Y-75895563D01*
X88161961Y-71452334D02*
X82380310Y-79709386D01*
X89222269Y-72799053D02*
X87327172Y-75505531D01*
X89512435Y-73430721D02*
X87818664Y-75849677D01*
X89134796Y-72645025D02*
X87196108Y-75413759D01*
X88222576Y-71506985D02*
X82452397Y-79747654D01*
X89477302Y-73341420D02*
X87753131Y-75803791D01*
X88251901Y-71534843D02*
X82488605Y-79765683D01*
X89452596Y-77212287D02*
X88234319Y-78952166D01*
X85870789Y-77515724D02*
X83964795Y-80237766D01*
X86952070Y-78272844D02*
X85576060Y-80237990D01*
X89529141Y-73476600D02*
X87851430Y-75872620D01*
X88041221Y-71345817D02*
X82238921Y-79632359D01*
X87979704Y-71294197D02*
X82169374Y-79592207D01*
X88643518Y-71951886D02*
X86540786Y-74954898D01*
X85379298Y-77171578D02*
X83331630Y-80095951D01*
X85477597Y-77240407D02*
X83454592Y-80129556D01*
X86755474Y-78135186D02*
X85254424Y-80278907D01*
X87693412Y-71075422D02*
X81865876Y-79398007D01*
X86624409Y-78043414D02*
X85048221Y-80294444D01*
X89842475Y-75400201D02*
X86664861Y-79938303D01*
X89844552Y-75188020D02*
X86466187Y-80012825D01*
X87885994Y-71218814D02*
X82066487Y-79529931D01*
X88480188Y-71766717D02*
X82784574Y-79900897D01*
X89562553Y-73568359D02*
X87916962Y-75918506D01*
X89666875Y-73907536D02*
X88146324Y-76079108D01*
X88924217Y-72318122D02*
X86901213Y-75207272D01*
X85805257Y-77469837D02*
X83876893Y-80223827D01*
X86526111Y-77974585D02*
X84897728Y-80300157D01*
X88722888Y-72047748D02*
X86639085Y-75023727D01*
X89384595Y-73125130D02*
X87589301Y-75689076D01*
X85346532Y-77148635D02*
X83291408Y-80083656D01*
X88617061Y-71919933D02*
X86508020Y-74931955D01*
X89798518Y-74556386D02*
X85856900Y-80185598D01*
X89459449Y-73297179D02*
X87720365Y-75780848D01*
X86591643Y-78020471D02*
X84997674Y-80296894D01*
X89243563Y-72838379D02*
X87359938Y-75528474D01*
X89495155Y-73385661D02*
X87785897Y-75826734D01*
X86132918Y-77699268D02*
X84323858Y-80282874D01*
X89066898Y-72532781D02*
X87097810Y-75344930D01*
X89305726Y-72958815D02*
X87458237Y-75597303D01*
X89836310Y-75548481D02*
X86802091Y-79881795D01*
X85412064Y-77194521D02*
X83372427Y-80107425D01*
X85149936Y-77010976D02*
X83052940Y-80005796D01*
X89578111Y-73615877D02*
X87949728Y-75941449D01*
X89718213Y-74113170D02*
X88277389Y-76170880D01*
X85182702Y-77033919D02*
X83092589Y-80018909D01*
X89043309Y-72496731D02*
X87065044Y-75321987D01*
X87017602Y-78318731D02*
X85686905Y-80219163D01*
X85838023Y-77492781D02*
X83920557Y-80231206D01*
X88996705Y-72423813D02*
X86999511Y-75276101D01*
X86853772Y-78204015D02*
X85412948Y-80261725D01*
X88590030Y-71888798D02*
X82936861Y-79962361D01*
X87917039Y-71244215D02*
X82100974Y-79550416D01*
X85936322Y-77561610D02*
X84052697Y-80251705D01*
X88948953Y-72352533D02*
X86933979Y-75230215D01*
X89866878Y-75213771D02*
G75*
G03*
X89866878Y-75213771I-5120000J0D01*
G01*
%TO.C,J15*%
X84926800Y-48650000D02*
X87586800Y-48650000D01*
X84926800Y-46050000D02*
X84926800Y-48650000D01*
X84926800Y-44780000D02*
X84926800Y-43450000D01*
X84926800Y-46050000D02*
X87586800Y-46050000D01*
X84926800Y-43450000D02*
X86256800Y-43450000D01*
X87586800Y-46050000D02*
X87586800Y-48650000D01*
%TO.C,J16*%
X99513000Y-44780000D02*
X99513000Y-43450000D01*
X99513000Y-48650000D02*
X102173000Y-48650000D01*
X99513000Y-43450000D02*
X100843000Y-43450000D01*
X99513000Y-46050000D02*
X99513000Y-48650000D01*
X99513000Y-46050000D02*
X102173000Y-46050000D01*
X102173000Y-46050000D02*
X102173000Y-48650000D01*
%TO.C,R6*%
X116572936Y-57397000D02*
X118027064Y-57397000D01*
X116572936Y-55577000D02*
X118027064Y-55577000D01*
%TO.C,R9*%
X134292936Y-52590000D02*
X135747064Y-52590000D01*
X134292936Y-54410000D02*
X135747064Y-54410000D01*
%TO.C,J30*%
X134870000Y-46130000D02*
X134870000Y-43470000D01*
X132270000Y-46130000D02*
X132270000Y-44800000D01*
X142550000Y-46130000D02*
X142550000Y-43470000D01*
X134870000Y-43470000D02*
X142550000Y-43470000D01*
X133600000Y-46130000D02*
X132270000Y-46130000D01*
X134870000Y-46130000D02*
X142550000Y-46130000D01*
D15*
%TO.C,U2*%
X94414602Y-62989400D02*
X94414602Y-55369400D01*
X100764602Y-55369400D02*
X95684602Y-55369400D01*
X131244602Y-50289400D02*
X131244602Y-68069400D01*
X131244602Y-68069400D02*
X95684602Y-68069400D01*
X95684602Y-62989400D02*
X94414602Y-62989400D01*
X95684602Y-50289400D02*
X131244602Y-50289400D01*
X100764602Y-62989400D02*
X100764602Y-55369400D01*
X94414602Y-55369400D02*
X95684602Y-55369400D01*
X95684602Y-68069400D02*
X95684602Y-50289400D01*
X100764602Y-62989400D02*
X95684602Y-62989400D01*
D16*
%TO.C,J31*%
X149396000Y-46070000D02*
X149396000Y-53750000D01*
X149396000Y-44800000D02*
X149396000Y-43470000D01*
X149396000Y-46070000D02*
X152056000Y-46070000D01*
X149396000Y-53750000D02*
X152056000Y-53750000D01*
X149396000Y-43470000D02*
X150726000Y-43470000D01*
X152056000Y-46070000D02*
X152056000Y-53750000D01*
%TO.C,J6*%
X93046929Y-77785000D02*
X95706929Y-77785000D01*
X93046929Y-71375000D02*
X93046929Y-70045000D01*
X95706929Y-72645000D02*
X95706929Y-77785000D01*
X93046929Y-72645000D02*
X93046929Y-77785000D01*
X93046929Y-70045000D02*
X94376929Y-70045000D01*
X93046929Y-72645000D02*
X95706929Y-72645000D01*
%TO.C,J21*%
X87670000Y-46050000D02*
X87670000Y-48650000D01*
X87670000Y-44780000D02*
X87670000Y-43450000D01*
X90330000Y-46050000D02*
X90330000Y-48650000D01*
X87670000Y-46050000D02*
X90330000Y-46050000D01*
X87670000Y-43450000D02*
X89000000Y-43450000D01*
X87670000Y-48650000D02*
X90330000Y-48650000D01*
%TO.C,C6*%
X78410000Y-55288748D02*
X78410000Y-56711252D01*
X76590000Y-55288748D02*
X76590000Y-56711252D01*
%TO.C,J18*%
X150203000Y-72645000D02*
X152863000Y-72645000D01*
X150203000Y-70045000D02*
X151533000Y-70045000D01*
X150203000Y-71375000D02*
X150203000Y-70045000D01*
X150203000Y-77785000D02*
X152863000Y-77785000D01*
X150203000Y-72645000D02*
X150203000Y-77785000D01*
X152863000Y-72645000D02*
X152863000Y-77785000D01*
%TO.C,J19*%
X96813000Y-43450000D02*
X98143000Y-43450000D01*
X99473000Y-46050000D02*
X99473000Y-48650000D01*
X96813000Y-44780000D02*
X96813000Y-43450000D01*
X96813000Y-46050000D02*
X99473000Y-46050000D01*
X96813000Y-48650000D02*
X99473000Y-48650000D01*
X96813000Y-46050000D02*
X96813000Y-48650000D01*
%TO.C,J26*%
X151205000Y-57670000D02*
X156345000Y-57670000D01*
X151205000Y-55010000D02*
X156345000Y-55010000D01*
X149935000Y-57670000D02*
X148605000Y-57670000D01*
X151205000Y-57670000D02*
X151205000Y-55010000D01*
X148605000Y-57670000D02*
X148605000Y-56340000D01*
X156345000Y-57670000D02*
X156345000Y-55010000D01*
%TO.C,C1*%
X144838594Y-71268796D02*
X139024823Y-79571721D01*
X146619692Y-74166422D02*
X145200091Y-76193823D01*
X145586367Y-72015794D02*
X143496254Y-75000784D01*
X146724449Y-74923407D02*
X143104034Y-80093894D01*
X146528562Y-73808405D02*
X144970728Y-76033222D01*
X146595619Y-76432414D02*
X144477975Y-79456723D01*
X146735134Y-75256835D02*
X143421010Y-79989896D01*
X145886641Y-72423813D02*
X143889447Y-75276101D01*
X146483606Y-73663394D02*
X144872430Y-75964392D01*
X144931157Y-71345817D02*
X139128857Y-79632359D01*
X146133499Y-72838379D02*
X144249874Y-75528474D01*
X146715127Y-74797244D02*
X142982292Y-80128285D01*
X146657349Y-76135041D02*
X144219649Y-79616437D01*
X145838889Y-72352533D02*
X143823915Y-75230215D01*
X146435783Y-73522480D02*
X144774132Y-75895563D01*
X143743708Y-78204015D02*
X142302884Y-80261725D01*
X146596031Y-74060737D02*
X145134559Y-76147937D01*
X145612824Y-72047748D02*
X143529021Y-75023727D01*
X144616115Y-71098365D02*
X138788578Y-79420950D01*
X143645410Y-78135186D02*
X142144360Y-80278907D01*
X146608149Y-74113170D02*
X145167325Y-76170880D01*
X138797183Y-69715713D02*
X139616335Y-70289290D01*
X146142498Y-77637441D02*
X145455353Y-78618785D01*
X144900685Y-71319597D02*
X139093797Y-79612692D01*
X145638707Y-72080521D02*
X143561787Y-75046670D01*
X146685883Y-75954814D02*
X144060050Y-79704892D01*
X143809240Y-78249901D02*
X142410861Y-80246994D01*
X142859024Y-77584553D02*
X140987444Y-80257446D01*
X144550582Y-71052479D02*
X138723046Y-79375063D01*
X142007106Y-76988033D02*
X139904374Y-79991045D01*
X142498597Y-77332179D02*
X140510581Y-80171360D01*
X145021998Y-71425295D02*
X139234612Y-79690539D01*
X146733269Y-75120023D02*
X143291810Y-80034936D01*
X146385091Y-73385661D02*
X144675833Y-75826734D01*
X146406126Y-77051727D02*
X144995128Y-79066841D01*
X145286166Y-71677409D02*
X139561873Y-79852547D01*
X142203702Y-77125692D02*
X140141121Y-80071362D01*
X146731476Y-75052846D02*
X143228071Y-80056227D01*
X145081795Y-71479373D02*
X139305880Y-79728234D01*
X146641633Y-74274563D02*
X145265623Y-76239709D01*
X146330958Y-73253757D02*
X144577535Y-75757905D01*
X144648307Y-71122127D02*
X138821918Y-79443073D01*
X145862478Y-72388583D02*
X143856681Y-75253158D01*
X146696709Y-75869616D02*
X143983692Y-79744205D01*
X146419077Y-73476600D02*
X144741366Y-75872620D01*
X143973071Y-78364617D02*
X142689980Y-80197060D01*
X143219451Y-77836926D02*
X141495280Y-80299297D01*
X142039872Y-77010976D02*
X139942876Y-80005796D01*
X142793492Y-77538667D02*
X140898395Y-80245145D01*
X142072638Y-77033919D02*
X139982525Y-80018909D01*
X145715209Y-72180478D02*
X143660085Y-75115499D01*
X146726246Y-75548481D02*
X143692027Y-79881795D01*
X145979849Y-72569650D02*
X144020512Y-75367873D01*
X145664590Y-72113293D02*
X143594553Y-75069613D01*
X144806975Y-71244215D02*
X138990910Y-79550416D01*
X144992100Y-71398256D02*
X139198978Y-79671692D01*
X145397728Y-71797033D02*
X139712439Y-79916468D01*
X146468047Y-73615877D02*
X144839664Y-75941449D01*
X146112205Y-72799053D02*
X144217108Y-75505531D01*
X142727959Y-77492781D02*
X140810493Y-80231206D01*
X145370124Y-71766717D02*
X139674510Y-79900897D01*
X146583340Y-74009124D02*
X145101792Y-76124994D01*
X145560484Y-71983021D02*
X143463488Y-74977841D01*
X143612644Y-78112243D02*
X142092092Y-80283815D01*
X146721156Y-75625488D02*
X143762649Y-79850674D01*
X139493547Y-69592925D02*
X138919971Y-70412077D01*
X146714345Y-75704952D02*
X143834991Y-79817096D01*
X143317749Y-77905756D02*
X141640038Y-80301775D01*
X146069042Y-72721220D02*
X144151576Y-75459645D01*
X145199913Y-71591378D02*
X139451529Y-79800920D01*
X145765255Y-72248481D02*
X143725617Y-75161385D01*
X145051897Y-71452334D02*
X139270246Y-79709386D01*
X143907538Y-78318731D02*
X142576841Y-80219163D01*
X142662427Y-77446894D02*
X140723739Y-80215628D01*
X143940304Y-78341674D02*
X142633124Y-80208521D01*
X146090337Y-72760546D02*
X144184342Y-75482588D01*
X143350515Y-77928699D02*
X141688864Y-80301782D01*
X146235384Y-73041563D02*
X144413705Y-75643190D01*
X142957322Y-77653382D02*
X141122451Y-80273849D01*
X143579878Y-78089300D02*
X142040398Y-80287904D01*
X146458250Y-76907549D02*
X144877473Y-79165132D01*
X142400299Y-77263350D02*
X140385325Y-80141031D01*
X143710942Y-78181072D02*
X142249469Y-80268272D01*
X145479966Y-71888798D02*
X139826797Y-79962361D01*
X146195662Y-72958815D02*
X144348173Y-75597303D01*
X143874772Y-78295788D02*
X142521132Y-80228986D01*
X142760725Y-77515724D02*
X140854731Y-80237766D01*
X143678176Y-78158129D02*
X142196628Y-80273999D01*
X146734488Y-75188020D02*
X143356123Y-80012825D01*
X142891790Y-77607496D02*
X141032255Y-80263187D01*
X145141837Y-71534843D02*
X139378541Y-79765683D01*
X143416047Y-77974585D02*
X141787664Y-80300157D01*
X145112512Y-71506985D02*
X139342333Y-79747654D01*
X146679778Y-74499038D02*
X145396687Y-76331481D01*
X146734059Y-75328108D02*
X143487617Y-79964509D01*
X146260582Y-77399061D02*
X145271737Y-78811279D01*
X146728536Y-74987307D02*
X143165479Y-80075880D01*
X146619064Y-76329194D02*
X144388998Y-79514057D01*
X146499165Y-73710912D02*
X144905196Y-75987335D01*
X142367533Y-77240407D02*
X140344528Y-80129556D01*
X146688454Y-74556386D02*
X142746836Y-80185598D01*
X146367238Y-73341420D02*
X144643067Y-75803791D01*
X142433065Y-77286293D02*
X140427268Y-80150868D01*
X142596895Y-77401008D02*
X140637558Y-80199232D01*
X144583348Y-71075422D02*
X138755812Y-79398007D01*
X142629661Y-77423951D02*
X140680648Y-80207430D01*
X146047174Y-72682713D02*
X144118810Y-75436702D01*
X143514345Y-78043414D02*
X141938157Y-80294444D01*
X141974340Y-76965090D02*
X139865299Y-79977112D01*
X146661852Y-74385162D02*
X145331155Y-76285595D01*
X146154220Y-72878524D02*
X144282640Y-75551417D01*
X145314343Y-71706906D02*
X139599228Y-79868937D01*
X142924556Y-77630439D02*
X141077066Y-80268928D01*
X142302000Y-77194521D02*
X140262363Y-80107425D01*
X146349385Y-73297179D02*
X144610301Y-75780848D01*
X143153918Y-77791040D02*
X141400495Y-80295188D01*
X146672763Y-76043289D02*
X144138702Y-79662303D01*
X142269234Y-77171578D02*
X140221566Y-80095951D01*
X145425332Y-71827348D02*
X139750367Y-79932038D01*
X146501196Y-76776478D02*
X144768995Y-79250317D01*
X145956834Y-72532781D02*
X143987746Y-75344930D01*
X145933245Y-72496731D02*
X143954980Y-75321987D01*
X143547111Y-78066357D02*
X141989278Y-80291174D01*
X143121152Y-77768097D02*
X141353390Y-80292724D01*
X143284983Y-77882812D02*
X141591212Y-80301768D01*
X145342521Y-71736402D02*
X139636582Y-79885326D01*
X146702937Y-74675176D02*
X142863417Y-80158580D01*
X142138170Y-77079805D02*
X140061250Y-80045955D01*
X146631236Y-74219673D02*
X145232857Y-76216766D01*
X142334766Y-77217464D02*
X140303159Y-80118900D01*
X144744311Y-71194233D02*
X138922510Y-79508626D01*
X142170936Y-77102749D02*
X140100899Y-80059068D01*
X145910229Y-72459863D02*
X143922214Y-75299044D01*
X146568733Y-76540549D02*
X144570393Y-79394474D01*
X143055620Y-77722211D02*
X141260326Y-80286157D01*
X145689900Y-72146885D02*
X143627319Y-75092556D01*
X142531363Y-77355122D02*
X140553098Y-80180378D01*
X142236468Y-77148635D02*
X140181344Y-80083656D01*
X143088386Y-77745154D02*
X141306858Y-80289440D01*
X145789991Y-72282892D02*
X143758383Y-75184328D01*
X143252217Y-77859869D02*
X141542959Y-80300943D01*
X146312532Y-73210335D02*
X144544769Y-75734962D01*
X146671102Y-74441691D02*
X145363921Y-76308538D01*
X144680500Y-71145889D02*
X138855257Y-79465197D01*
X146002291Y-72607337D02*
X144053278Y-75390816D01*
X146024732Y-72645025D02*
X144086044Y-75413759D01*
X146720361Y-74859506D02*
X143042589Y-80111909D01*
X146402371Y-73430721D02*
X144708600Y-75849677D01*
X145814153Y-72318122D02*
X143791149Y-75207272D01*
X143481579Y-78020471D02*
X141887610Y-80296894D01*
X146514150Y-73759249D02*
X144937962Y-76010279D01*
X146732411Y-75400201D02*
X143554797Y-79938303D01*
X146293531Y-73167733D02*
X144512003Y-75712019D01*
X143776474Y-78226958D02*
X142356872Y-80254360D01*
X146706387Y-75786055D02*
X143908481Y-79781879D01*
X146570076Y-73958330D02*
X145069026Y-76102051D01*
X146709319Y-74735800D02*
X142922567Y-80143842D01*
X146639640Y-76230070D02*
X144302890Y-79567295D01*
X143448813Y-77997528D02*
X141837637Y-80298526D01*
X142564129Y-77378065D02*
X140595041Y-80190214D01*
X144712692Y-71169651D02*
X138888597Y-79487321D01*
X142695193Y-77469837D02*
X140766829Y-80223827D01*
X144775930Y-71218814D02*
X138956423Y-79529931D01*
X143842006Y-78272844D02*
X142465996Y-80237990D01*
X142105404Y-77056862D02*
X140021601Y-80032842D01*
X142465831Y-77309236D02*
X140468638Y-80161523D01*
X146274531Y-73125130D02*
X144479237Y-75689076D01*
X143383281Y-77951642D02*
X141737690Y-80301789D01*
X145171161Y-71562701D02*
X139414748Y-79783711D01*
X146255531Y-73082527D02*
X144446471Y-75666133D01*
X144869640Y-71294197D02*
X139059310Y-79592207D01*
X142990088Y-77676325D02*
X141168409Y-80277952D01*
X146174941Y-72918670D02*
X144315407Y-75574360D01*
X145740519Y-72214070D02*
X143692851Y-75138442D01*
X146730189Y-75473112D02*
X143622552Y-79911278D01*
X146652029Y-74329453D02*
X145298389Y-76262652D01*
X146556811Y-73907536D02*
X145036260Y-76079108D01*
X143022854Y-77699268D02*
X141213794Y-80282874D01*
X146695982Y-74615371D02*
X142804840Y-80172499D01*
X145257415Y-71648732D02*
X139525092Y-79835338D01*
X145228664Y-71620055D02*
X139488311Y-79818129D01*
X145506997Y-71919933D02*
X143397956Y-74931955D01*
X146452489Y-73568359D02*
X144806898Y-75918506D01*
X146342532Y-77212287D02*
X145124255Y-78952166D01*
X144961628Y-71372036D02*
X139163918Y-79652025D01*
X145533454Y-71951886D02*
X143430722Y-74954898D01*
X146537259Y-76655237D02*
X144667400Y-79325672D01*
X143186685Y-77813983D02*
X141447601Y-80297652D01*
X146542973Y-73857561D02*
X145003494Y-76056165D01*
X145452936Y-71857664D02*
X139788295Y-79947609D01*
X146215810Y-72999779D02*
X144380939Y-75620247D01*
X142826258Y-77561610D02*
X140942633Y-80251705D01*
X146756814Y-75213771D02*
G75*
G03*
X146756814Y-75213771I-5120000J0D01*
G01*
%TO.C,R8*%
X137517064Y-65780000D02*
X136062936Y-65780000D01*
X137517064Y-67600000D02*
X136062936Y-67600000D01*
%TO.C,R4*%
X90022936Y-61616000D02*
X91477064Y-61616000D01*
X90022936Y-59796000D02*
X91477064Y-59796000D01*
%TO.C,J2*%
X74123929Y-70045000D02*
X75453929Y-70045000D01*
X76783929Y-72645000D02*
X76783929Y-77785000D01*
X74123929Y-72645000D02*
X74123929Y-77785000D01*
X74123929Y-77785000D02*
X76783929Y-77785000D01*
X74123929Y-72645000D02*
X76783929Y-72645000D01*
X74123929Y-71375000D02*
X74123929Y-70045000D01*
%TO.C,R14*%
X101962800Y-57467464D02*
X101962800Y-56013336D01*
X103782800Y-57467464D02*
X103782800Y-56013336D01*
%TO.C,R11*%
X109922936Y-60590000D02*
X111377064Y-60590000D01*
X109922936Y-62410000D02*
X111377064Y-62410000D01*
%TO.C,J12*%
X130892929Y-77785000D02*
X133552929Y-77785000D01*
X130892929Y-71375000D02*
X130892929Y-70045000D01*
X130892929Y-70045000D02*
X132222929Y-70045000D01*
X130892929Y-72645000D02*
X130892929Y-77785000D01*
X133552929Y-72645000D02*
X133552929Y-77785000D01*
X130892929Y-72645000D02*
X133552929Y-72645000D01*
%TO.C,J14*%
X94113000Y-43450000D02*
X95443000Y-43450000D01*
X94113000Y-48650000D02*
X96773000Y-48650000D01*
X94113000Y-46050000D02*
X94113000Y-48650000D01*
X94113000Y-46050000D02*
X96773000Y-46050000D01*
X94113000Y-44780000D02*
X94113000Y-43450000D01*
X96773000Y-46050000D02*
X96773000Y-48650000D01*
%TO.C,JP2*%
X150190000Y-66815000D02*
X147530000Y-66815000D01*
X147530000Y-66815000D02*
X147530000Y-61675000D01*
X150190000Y-68085000D02*
X150190000Y-69415000D01*
X150190000Y-69415000D02*
X148860000Y-69415000D01*
X150190000Y-61675000D02*
X147530000Y-61675000D01*
X150190000Y-66815000D02*
X150190000Y-61675000D01*
%TO.C,J23*%
X90413200Y-46050000D02*
X93073200Y-46050000D01*
X90413200Y-48650000D02*
X93073200Y-48650000D01*
X90413200Y-44780000D02*
X90413200Y-43450000D01*
X90413200Y-43450000D02*
X91743200Y-43450000D01*
X90413200Y-46050000D02*
X90413200Y-48650000D01*
X93073200Y-46050000D02*
X93073200Y-48650000D01*
%TO.C,JP3*%
X155530000Y-66815000D02*
X152870000Y-66815000D01*
X155530000Y-61675000D02*
X152870000Y-61675000D01*
X155530000Y-69415000D02*
X154200000Y-69415000D01*
X155530000Y-68085000D02*
X155530000Y-69415000D01*
X152870000Y-66815000D02*
X152870000Y-61675000D01*
X155530000Y-66815000D02*
X155530000Y-61675000D01*
%TO.C,J5*%
X90379929Y-72645000D02*
X93039929Y-72645000D01*
X90379929Y-71375000D02*
X90379929Y-70045000D01*
X90379929Y-77785000D02*
X93039929Y-77785000D01*
X90379929Y-72645000D02*
X90379929Y-77785000D01*
X93039929Y-72645000D02*
X93039929Y-77785000D01*
X90379929Y-70045000D02*
X91709929Y-70045000D01*
%TO.C,J25*%
X148610000Y-60400000D02*
X148610000Y-59070000D01*
X151210000Y-60400000D02*
X156350000Y-60400000D01*
X149940000Y-60400000D02*
X148610000Y-60400000D01*
X151210000Y-60400000D02*
X151210000Y-57740000D01*
X156350000Y-60400000D02*
X156350000Y-57740000D01*
X151210000Y-57740000D02*
X156350000Y-57740000D01*
%TO.C,J10*%
X114636929Y-70060011D02*
X115966929Y-70060011D01*
X114636929Y-72660011D02*
X114636929Y-77800011D01*
X117296929Y-72660011D02*
X117296929Y-77800011D01*
X114636929Y-72660011D02*
X117296929Y-72660011D01*
X114636929Y-77800011D02*
X117296929Y-77800011D01*
X114636929Y-71390011D02*
X114636929Y-70060011D01*
%TO.C,Q2*%
X107785600Y-56687900D02*
X107785600Y-57337900D01*
X104665600Y-56687900D02*
X104665600Y-58362900D01*
X107785600Y-56687900D02*
X107785600Y-56037900D01*
X104665600Y-56687900D02*
X104665600Y-56037900D01*
%TO.C,R2*%
X84890916Y-61616000D02*
X86345044Y-61616000D01*
X84890916Y-59796000D02*
X86345044Y-59796000D01*
%TO.C,R13*%
X103825736Y-62460800D02*
X105279864Y-62460800D01*
X103825736Y-60640800D02*
X105279864Y-60640800D01*
%TO.C,C5*%
X76590000Y-61151248D02*
X76590000Y-62573752D01*
X78410000Y-61151248D02*
X78410000Y-62573752D01*
%TO.C,J27*%
X143808000Y-43470000D02*
X145138000Y-43470000D01*
X143808000Y-46070000D02*
X146468000Y-46070000D01*
X146468000Y-46070000D02*
X146468000Y-53750000D01*
X143808000Y-53750000D02*
X146468000Y-53750000D01*
X143808000Y-44800000D02*
X143808000Y-43470000D01*
X143808000Y-46070000D02*
X143808000Y-53750000D01*
%TO.C,R1*%
X84942936Y-58060000D02*
X86397064Y-58060000D01*
X84942936Y-56240000D02*
X86397064Y-56240000D01*
%TO.C,J24*%
X120970000Y-46130000D02*
X120970000Y-44800000D01*
X123570000Y-46130000D02*
X123570000Y-43470000D01*
X131250000Y-46130000D02*
X131250000Y-43470000D01*
X122300000Y-46130000D02*
X120970000Y-46130000D01*
X123570000Y-43470000D02*
X131250000Y-43470000D01*
X123570000Y-46130000D02*
X131250000Y-46130000D01*
%TO.C,J32*%
X152190000Y-46070000D02*
X154850000Y-46070000D01*
X152190000Y-46070000D02*
X152190000Y-53750000D01*
X152190000Y-43470000D02*
X153520000Y-43470000D01*
X152190000Y-44800000D02*
X152190000Y-43470000D01*
X154850000Y-46070000D02*
X154850000Y-53750000D01*
X152190000Y-53750000D02*
X154850000Y-53750000D01*
%TO.C,J8*%
X109302929Y-70029989D02*
X110632929Y-70029989D01*
X109302929Y-71359989D02*
X109302929Y-70029989D01*
X109302929Y-72629989D02*
X109302929Y-77769989D01*
X109302929Y-72629989D02*
X111962929Y-72629989D01*
X111962929Y-72629989D02*
X111962929Y-77769989D01*
X109302929Y-77769989D02*
X111962929Y-77769989D01*
%TO.C,J28*%
X142550000Y-48820000D02*
X142550000Y-46160000D01*
X132270000Y-48820000D02*
X132270000Y-47490000D01*
X133600000Y-48820000D02*
X132270000Y-48820000D01*
X134870000Y-46160000D02*
X142550000Y-46160000D01*
X134870000Y-48820000D02*
X142550000Y-48820000D01*
X134870000Y-48820000D02*
X134870000Y-46160000D01*
%TO.C,R7*%
X142617064Y-65780000D02*
X141162936Y-65780000D01*
X142617064Y-67600000D02*
X141162936Y-67600000D01*
%TO.C,J1*%
X71456929Y-72645000D02*
X74116929Y-72645000D01*
X71456929Y-72645000D02*
X71456929Y-77785000D01*
X71456929Y-71375000D02*
X71456929Y-70045000D01*
X74116929Y-72645000D02*
X74116929Y-77785000D01*
X71456929Y-77785000D02*
X74116929Y-77785000D01*
X71456929Y-70045000D02*
X72786929Y-70045000D01*
%TO.C,J34*%
X105913000Y-46070000D02*
X105913000Y-48670000D01*
X105913000Y-48670000D02*
X108573000Y-48670000D01*
X108573000Y-46070000D02*
X108573000Y-48670000D01*
X105913000Y-44800000D02*
X105913000Y-43470000D01*
X105913000Y-46070000D02*
X108573000Y-46070000D01*
X105913000Y-43470000D02*
X107243000Y-43470000D01*
%TO.C,Q1*%
X108628000Y-56687900D02*
X108628000Y-56037900D01*
X111748000Y-56687900D02*
X111748000Y-57337900D01*
X111748000Y-56687900D02*
X111748000Y-56037900D01*
X108628000Y-56687900D02*
X108628000Y-58362900D01*
%TO.C,J17*%
X147536000Y-70045000D02*
X148866000Y-70045000D01*
X150196000Y-72645000D02*
X150196000Y-77785000D01*
X147536000Y-72645000D02*
X150196000Y-72645000D01*
X147536000Y-72645000D02*
X147536000Y-77785000D01*
X147536000Y-77785000D02*
X150196000Y-77785000D01*
X147536000Y-71375000D02*
X147536000Y-70045000D01*
%TO.C,R3*%
X90097916Y-56240000D02*
X91552044Y-56240000D01*
X90097916Y-58060000D02*
X91552044Y-58060000D01*
%TO.C,C4*%
X107319230Y-71685579D02*
X101594937Y-79860717D01*
X106681371Y-71130297D02*
X100854982Y-79451243D01*
X105219749Y-77822153D02*
X103480665Y-80305822D01*
X107671771Y-72088691D02*
X105594851Y-75054840D01*
X107114859Y-71487543D02*
X101338944Y-79736404D01*
X104400597Y-77248577D02*
X102377592Y-80137726D01*
X104269532Y-77156805D02*
X102214408Y-80091826D01*
X105350813Y-77913926D02*
X103673102Y-80309945D01*
X106871658Y-71276966D02*
X101057887Y-79579891D01*
X108080238Y-72690883D02*
X106151874Y-75444872D01*
X108765475Y-75408371D02*
X105587861Y-79946473D01*
X104498895Y-77317406D02*
X102501702Y-80169693D01*
X108766333Y-75128193D02*
X105324874Y-80043106D01*
X108672704Y-76238240D02*
X106335954Y-79575465D01*
X107847217Y-72326292D02*
X105824213Y-75215442D01*
X104859322Y-77569780D02*
X102975697Y-80259875D01*
X108721518Y-74564556D02*
X104779900Y-80193768D01*
X108208005Y-72926840D02*
X106348471Y-75582530D01*
X108268448Y-73049733D02*
X106446769Y-75651360D01*
X107773583Y-72222240D02*
X105725915Y-75146612D01*
X106745756Y-71177821D02*
X100921661Y-79495491D01*
X104302298Y-77179748D02*
X102254630Y-80104121D01*
X107403188Y-71774887D02*
X101707574Y-79909067D01*
X105744006Y-78189242D02*
X104282533Y-80276442D01*
X106649179Y-71106535D02*
X100821642Y-79429120D01*
X107430792Y-71805203D02*
X101745503Y-79924638D01*
X108418155Y-73393831D02*
X106708897Y-75834904D01*
X105514643Y-78028641D02*
X103920674Y-80305064D01*
X108175562Y-77645611D02*
X107488417Y-78626955D01*
X105088684Y-77730381D02*
X103293390Y-80294327D01*
X108705827Y-76051459D02*
X106171766Y-79670473D01*
X108012913Y-72577820D02*
X106053576Y-75376043D01*
X108736001Y-74683346D02*
X104896481Y-80166750D01*
X108400302Y-73349590D02*
X106676131Y-75811961D01*
X105416345Y-77959812D02*
X103770754Y-80309959D01*
X107943293Y-72468033D02*
X105955278Y-75307214D01*
X104728257Y-77478007D02*
X102799893Y-80231997D01*
X105547409Y-78051584D02*
X103971221Y-80302614D01*
X108561626Y-73816575D02*
X107003792Y-76041392D01*
X108603140Y-73966500D02*
X107102090Y-76110221D01*
X108307595Y-73133300D02*
X106512301Y-75697246D01*
X108516670Y-73671564D02*
X106905494Y-75972562D01*
X108248874Y-73007949D02*
X106414003Y-75628417D01*
X107619431Y-72023964D02*
X105529318Y-75008954D01*
X108763253Y-75481282D02*
X105655616Y-79919448D01*
X104433363Y-77271520D02*
X102418389Y-80149201D01*
X108035355Y-72615507D02*
X106086342Y-75398986D01*
X104367830Y-77225634D02*
X102336223Y-80127070D01*
X105252515Y-77845096D02*
X103528344Y-80307467D01*
X107823055Y-72291062D02*
X105791447Y-75192498D01*
X108452141Y-73484770D02*
X106774430Y-75880790D01*
X105678474Y-78143356D02*
X104177424Y-80287077D01*
X106840039Y-71252385D02*
X101023974Y-79558586D01*
X107966309Y-72504901D02*
X105988044Y-75330157D01*
X108616404Y-74017294D02*
X107134856Y-76133164D01*
X108628683Y-76440584D02*
X106511039Y-79464893D01*
X105154216Y-77776267D02*
X103386454Y-80300894D01*
X108288595Y-73090697D02*
X106479535Y-75674303D01*
X107748273Y-72188648D02*
X105693149Y-75123669D01*
X108757513Y-74931577D02*
X105137098Y-80102064D01*
X107593548Y-71991191D02*
X105496552Y-74986011D01*
X108690413Y-76143211D02*
X106252713Y-79624607D01*
X108739451Y-75794225D02*
X105941545Y-79790049D01*
X108754220Y-75633658D02*
X105795713Y-79858844D01*
X105907836Y-78303958D02*
X104554196Y-80237156D01*
X108576037Y-73865731D02*
X107036558Y-76064335D01*
X108435435Y-73438891D02*
X106741664Y-75857847D01*
X107290479Y-71656902D02*
X101558156Y-79843508D01*
X108057796Y-72653195D02*
X106119108Y-75421929D01*
X105383579Y-77936869D02*
X103721928Y-80309952D01*
X108145269Y-72807223D02*
X106250172Y-75513701D01*
X107261728Y-71628225D02*
X101521375Y-79826299D01*
X108674697Y-74282733D02*
X107298687Y-76247879D01*
X108664300Y-74227843D02*
X107265921Y-76224936D01*
X105121450Y-77753324D02*
X103339922Y-80297610D01*
X104793789Y-77523894D02*
X102887795Y-80245936D01*
X104171234Y-77087975D02*
X102094314Y-80054125D01*
X107513030Y-71896968D02*
X101859861Y-79970531D01*
X108652128Y-76337364D02*
X106422062Y-79522227D01*
X107055062Y-71433465D02*
X101267676Y-79698709D01*
X104204000Y-77110919D02*
X102133963Y-80067238D01*
X108685093Y-74337623D02*
X107331453Y-76270822D01*
X104892088Y-77592723D02*
X103020508Y-80265616D01*
X105645708Y-78120413D02*
X104125156Y-80291985D01*
X104924854Y-77615666D02*
X103065319Y-80271357D01*
X107989898Y-72540951D02*
X106020810Y-75353100D01*
X108601797Y-76548719D02*
X106603457Y-79402644D01*
X108570323Y-76663407D02*
X106700464Y-79333842D01*
X107458396Y-71835518D02*
X101783431Y-79940208D01*
X108768198Y-75265005D02*
X105454074Y-79998066D01*
X106902704Y-71302367D02*
X101092374Y-79600377D01*
X104957620Y-77638609D02*
X103110130Y-80277098D01*
X104466129Y-77294463D02*
X102460332Y-80159038D01*
X107486000Y-71865834D02*
X101821359Y-79955779D01*
X108166563Y-72846549D02*
X106282938Y-75536644D01*
X104138468Y-77065032D02*
X102054665Y-80041012D01*
X108747409Y-75713122D02*
X105868055Y-79825266D01*
X108293646Y-77407231D02*
X107304801Y-78819449D01*
X107919705Y-72431983D02*
X105922511Y-75284271D01*
X105776772Y-78212185D02*
X104335948Y-80269895D01*
X108694916Y-74393332D02*
X107364219Y-76293765D01*
X105973368Y-78349844D02*
X104666188Y-80216691D01*
X104236766Y-77133862D02*
X102174185Y-80079532D01*
X105842304Y-78258071D02*
X104443925Y-80255164D01*
X105711240Y-78166299D02*
X104229692Y-80282169D01*
X101526611Y-69601095D02*
X100953035Y-70420247D01*
X108767552Y-75196190D02*
X105389187Y-80020995D01*
X104695491Y-77455064D02*
X102756803Y-80223798D01*
X108364022Y-73261927D02*
X106610599Y-75766075D01*
X105940602Y-78326901D02*
X104609905Y-80227333D01*
X104826556Y-77546837D02*
X102931459Y-80253315D01*
X104531661Y-77340349D02*
X102543645Y-80179530D01*
X108123401Y-72768716D02*
X106217406Y-75490758D01*
X108753425Y-74867676D02*
X105075653Y-80120079D01*
X107540061Y-71928103D02*
X105431020Y-74940125D01*
X105612942Y-78097470D02*
X104073462Y-80296074D01*
X104335064Y-77202691D02*
X102295427Y-80115595D01*
X107645888Y-72055918D02*
X105562085Y-75031897D01*
X107025164Y-71406426D02*
X101232042Y-79679862D01*
X108767123Y-75336278D02*
X105520681Y-79972679D01*
X105023152Y-77684495D02*
X103201473Y-80286122D01*
X108534260Y-76784648D02*
X106802059Y-79258487D01*
X104007404Y-76973260D02*
X101898363Y-79985282D01*
X106994692Y-71380206D02*
X101196982Y-79660195D01*
X107871953Y-72360703D02*
X105856979Y-75238385D01*
X108652756Y-74174592D02*
X107233155Y-76201993D01*
X108439190Y-77059897D02*
X107028192Y-79075011D01*
X107697654Y-72121463D02*
X105627617Y-75077783D01*
X108382449Y-73305349D02*
X106643365Y-75789018D01*
X100830247Y-69723883D02*
X101649399Y-70297460D01*
X108641213Y-74121340D02*
X107200389Y-76179050D01*
X105449111Y-77982755D02*
X103820728Y-80308327D01*
X105580175Y-78074527D02*
X104022342Y-80299344D01*
X104990386Y-77661552D02*
X103155515Y-80282019D01*
X108326595Y-73175903D02*
X106545067Y-75720189D01*
X106006135Y-78372787D02*
X104723044Y-80205230D01*
X108501111Y-73624047D02*
X106872728Y-75949619D01*
X105186982Y-77799210D02*
X103433559Y-80303358D01*
X106713564Y-71154059D02*
X100888321Y-79473367D01*
X105875070Y-78281014D02*
X104499060Y-80246160D01*
X104564427Y-77363292D02*
X102586162Y-80188548D01*
X108187284Y-72886694D02*
X106315704Y-75559587D01*
X108742383Y-74743970D02*
X104955631Y-80152012D01*
X107204225Y-71570871D02*
X101447812Y-79791881D01*
X108468847Y-73530650D02*
X106807196Y-75903733D01*
X108764540Y-75061016D02*
X105261135Y-80064397D01*
X105481877Y-78005698D02*
X103870701Y-80306696D01*
X104105702Y-77042089D02*
X102015589Y-80027079D01*
X107798319Y-72256651D02*
X105758681Y-75169555D01*
X104597193Y-77386235D02*
X102628105Y-80198384D01*
X108491314Y-76915719D02*
X106910537Y-79173302D01*
X107895542Y-72396753D02*
X105889745Y-75261328D01*
X107566518Y-71960056D02*
X105463786Y-74963068D01*
X108547214Y-73767419D02*
X106971026Y-76018449D01*
X106616412Y-71083592D02*
X100788876Y-79406177D01*
X106933749Y-71327767D02*
X101126861Y-79620862D01*
X108228726Y-72966985D02*
X106381237Y-75605473D01*
X107347407Y-71715076D02*
X101632292Y-79877107D01*
X105809538Y-78235128D02*
X104389936Y-80262530D01*
X108729773Y-75877786D02*
X106016756Y-79752375D01*
X108532229Y-73719082D02*
X106938260Y-75995505D01*
X108629095Y-74068907D02*
X107167623Y-76156107D01*
X108345596Y-73218505D02*
X106577833Y-75743132D01*
X108729046Y-74623541D02*
X104837904Y-80180669D01*
X108748191Y-74805414D02*
X105015356Y-80136455D01*
X108485553Y-73576529D02*
X106839962Y-75926676D01*
X106808994Y-71226984D02*
X100989487Y-79538101D01*
X104629959Y-77409178D02*
X102670622Y-80207402D01*
X104072936Y-77019146D02*
X101975940Y-80013966D01*
X106964221Y-71353987D02*
X101161921Y-79640529D01*
X107722964Y-72155055D02*
X105660383Y-75100726D01*
X108718947Y-75962984D02*
X106093114Y-79713062D01*
X107145576Y-71515155D02*
X101375397Y-79755824D01*
X108712842Y-74507208D02*
X107429751Y-76339651D01*
X108102106Y-72729390D02*
X106184640Y-75467815D01*
X108759310Y-75556651D02*
X105725091Y-79889965D01*
X105285281Y-77868039D02*
X103576023Y-80309113D01*
X108761600Y-74995477D02*
X105198543Y-80084050D01*
X107232977Y-71599548D02*
X101484593Y-79809090D01*
X107375585Y-71744572D02*
X101669646Y-79893496D01*
X108704166Y-74449861D02*
X107396985Y-76316708D01*
X107174901Y-71543013D02*
X101411605Y-79773853D01*
X104761023Y-77500951D02*
X102843557Y-80239376D01*
X106777375Y-71202403D02*
X100955574Y-79516796D01*
X108589875Y-73915706D02*
X107069324Y-76087278D01*
X108375596Y-77220457D02*
X107157319Y-78960336D01*
X104662725Y-77432121D02*
X102713712Y-80215600D01*
X104040170Y-76996203D02*
X101937438Y-79999215D01*
X105318047Y-77890982D02*
X103624276Y-80309938D01*
X105055918Y-77707438D02*
X103246858Y-80291044D01*
X106583646Y-71060649D02*
X100756110Y-79383233D01*
X107084961Y-71460504D02*
X101303310Y-79717556D01*
X108789878Y-75221941D02*
G75*
G03*
X108789878Y-75221941I-5120000J0D01*
G01*
%TO.C,C3*%
X126429966Y-71888798D02*
X120776797Y-79962361D01*
X119747183Y-69715713D02*
X120566335Y-70289290D01*
X127682411Y-75400201D02*
X124504797Y-79938303D01*
X125725930Y-71218814D02*
X119906423Y-79529931D01*
X123645193Y-77469837D02*
X121716829Y-80223827D01*
X124726474Y-78226958D02*
X123306872Y-80254360D01*
X126974732Y-72645025D02*
X125036044Y-75413759D01*
X123186468Y-77148635D02*
X121131344Y-80083656D01*
X127635883Y-75954814D02*
X125010050Y-79704892D01*
X127262532Y-73210335D02*
X125494769Y-75734962D01*
X123252000Y-77194521D02*
X121212363Y-80107425D01*
X127569692Y-74166422D02*
X126150091Y-76193823D01*
X127569064Y-76329194D02*
X125338998Y-79514057D01*
X127352371Y-73430721D02*
X125658600Y-75849677D01*
X122924340Y-76965090D02*
X120815299Y-79977112D01*
X123219234Y-77171578D02*
X121171566Y-80095951D01*
X127533340Y-74009124D02*
X126051792Y-76124994D01*
X123579661Y-77423951D02*
X121630648Y-80207430D01*
X123284766Y-77217464D02*
X121253159Y-80118900D01*
X127652937Y-74675176D02*
X123813417Y-80158580D01*
X124398813Y-77997528D02*
X122787637Y-80298526D01*
X126929849Y-72569650D02*
X124970512Y-75367873D01*
X126483454Y-71951886D02*
X124380722Y-74954898D01*
X124300515Y-77928699D02*
X122638864Y-80301782D01*
X127681476Y-75052846D02*
X124178071Y-80056227D01*
X126178664Y-71620055D02*
X120438311Y-79818129D01*
X123350299Y-77263350D02*
X121335325Y-80141031D01*
X127656387Y-75786055D02*
X124858481Y-79781879D01*
X125911628Y-71372036D02*
X120113918Y-79652025D01*
X126510484Y-71983021D02*
X124413488Y-74977841D01*
X125881157Y-71345817D02*
X120078857Y-79632359D01*
X124005620Y-77722211D02*
X122210326Y-80286157D01*
X125630500Y-71145889D02*
X119805257Y-79465197D01*
X124169451Y-77836926D02*
X122445280Y-80299297D01*
X124562644Y-78112243D02*
X123042092Y-80283815D01*
X126292521Y-71736402D02*
X120586582Y-79885326D01*
X127210582Y-77399061D02*
X126221737Y-78811279D01*
X126347728Y-71797033D02*
X120662439Y-79916468D01*
X124071152Y-77768097D02*
X122303390Y-80292724D01*
X127492973Y-73857561D02*
X125953494Y-76056165D01*
X127243531Y-73167733D02*
X125462003Y-75712019D01*
X125662692Y-71169651D02*
X119838597Y-79487321D01*
X124628176Y-78158129D02*
X123146628Y-80273999D01*
X124333281Y-77951642D02*
X122687690Y-80301789D01*
X122989872Y-77010976D02*
X120892876Y-80005796D01*
X126690519Y-72214070D02*
X124642851Y-75138442D01*
X123841790Y-77607496D02*
X121982255Y-80263187D01*
X127622763Y-76043289D02*
X125088702Y-79662303D01*
X127104220Y-72878524D02*
X125232640Y-75551417D01*
X126264343Y-71706906D02*
X120549228Y-79868937D01*
X127671156Y-75625488D02*
X124712649Y-79850674D01*
X125756975Y-71244215D02*
X119940910Y-79550416D01*
X125598307Y-71122127D02*
X119771918Y-79443073D01*
X123415831Y-77309236D02*
X121418638Y-80161523D01*
X126639900Y-72146885D02*
X124577319Y-75092556D01*
X127602029Y-74329453D02*
X126248389Y-76262652D01*
X124660942Y-78181072D02*
X123199469Y-80268272D01*
X127659319Y-74735800D02*
X123872567Y-80143842D01*
X127433606Y-73663394D02*
X125822430Y-75964392D01*
X126883245Y-72496731D02*
X124904980Y-75321987D01*
X124103918Y-77791040D02*
X122350495Y-80295188D01*
X123874556Y-77630439D02*
X122027066Y-80268928D01*
X126614590Y-72113293D02*
X124544553Y-75069613D01*
X126997174Y-72682713D02*
X125068810Y-75436702D01*
X126764153Y-72318122D02*
X124741149Y-75207272D01*
X125788594Y-71268796D02*
X119974823Y-79571721D01*
X124497111Y-78066357D02*
X122939278Y-80291174D01*
X123972854Y-77699268D02*
X122163794Y-80282874D01*
X124234983Y-77882812D02*
X122541212Y-80301768D01*
X126665209Y-72180478D02*
X124610085Y-75115499D01*
X127664345Y-75704952D02*
X124784991Y-79817096D01*
X127665127Y-74797244D02*
X123932292Y-80128285D01*
X123514129Y-77378065D02*
X121545041Y-80190214D01*
X127581236Y-74219673D02*
X126182857Y-76216766D01*
X127684488Y-75188020D02*
X124306123Y-80012825D01*
X124464345Y-78043414D02*
X122888157Y-80294444D01*
X127670361Y-74859506D02*
X123992589Y-80111909D01*
X127607349Y-76135041D02*
X125169649Y-79616437D01*
X124595410Y-78135186D02*
X123094360Y-80278907D01*
X123153702Y-77125692D02*
X121091121Y-80071362D01*
X127646709Y-75869616D02*
X124933692Y-79744205D01*
X127402489Y-73568359D02*
X125756898Y-75918506D01*
X127083499Y-72838379D02*
X125199874Y-75528474D01*
X123710725Y-77515724D02*
X121804731Y-80237766D01*
X123317533Y-77240407D02*
X121294528Y-80129556D01*
X125942100Y-71398256D02*
X120148978Y-79671692D01*
X127205531Y-73082527D02*
X125396471Y-75666133D01*
X123448597Y-77332179D02*
X121460581Y-80171360D01*
X124202217Y-77859869D02*
X122492959Y-80300943D01*
X127092498Y-77637441D02*
X126405353Y-78618785D01*
X123776258Y-77561610D02*
X121892633Y-80251705D01*
X124923071Y-78364617D02*
X123639980Y-80197060D01*
X123677959Y-77492781D02*
X121760493Y-80231206D01*
X127683269Y-75120023D02*
X124241810Y-80034936D01*
X126149913Y-71591378D02*
X120401529Y-79800920D01*
X126091837Y-71534843D02*
X120328541Y-79765683D01*
X127478562Y-73808405D02*
X125920728Y-76033222D01*
X123120936Y-77102749D02*
X121050899Y-80059068D01*
X127145662Y-72958815D02*
X125298173Y-75597303D01*
X127019042Y-72721220D02*
X125101576Y-75459645D01*
X126860229Y-72459863D02*
X124872214Y-75299044D01*
X124693708Y-78204015D02*
X123252884Y-80261725D01*
X127545619Y-76432414D02*
X125427975Y-79456723D01*
X127589640Y-76230070D02*
X125252890Y-79567295D01*
X123907322Y-77653382D02*
X122072451Y-80273849D01*
X126588707Y-72080521D02*
X124511787Y-75046670D01*
X127292532Y-77212287D02*
X126074255Y-78952166D01*
X124267749Y-77905756D02*
X122590038Y-80301775D01*
X123743492Y-77538667D02*
X121848395Y-80245145D01*
X127546031Y-74060737D02*
X126084559Y-76147937D01*
X127518733Y-76540549D02*
X125520393Y-79394474D01*
X126031795Y-71479373D02*
X120255880Y-79728234D01*
X127621102Y-74441691D02*
X126313921Y-76308538D01*
X127299385Y-73297179D02*
X125560301Y-75780848D01*
X126207415Y-71648732D02*
X120475092Y-79835338D01*
X127185384Y-73041563D02*
X125363705Y-75643190D01*
X124890304Y-78341674D02*
X123583124Y-80208521D01*
X125500582Y-71052479D02*
X119673046Y-79375063D01*
X123940088Y-77676325D02*
X122118409Y-80277952D01*
X123022638Y-77033919D02*
X120932525Y-80018909D01*
X124759240Y-78249901D02*
X123360861Y-80246994D01*
X124431579Y-78020471D02*
X122837610Y-80296894D01*
X125566115Y-71098365D02*
X119738578Y-79420950D01*
X122957106Y-76988033D02*
X120854374Y-79991045D01*
X127676246Y-75548481D02*
X124642027Y-79881795D01*
X123383065Y-77286293D02*
X121377268Y-80150868D01*
X124792006Y-78272844D02*
X123415996Y-80237990D01*
X127418047Y-73615877D02*
X125789664Y-75941449D01*
X126236166Y-71677409D02*
X120511873Y-79852547D01*
X127356126Y-77051727D02*
X125945128Y-79066841D01*
X127611852Y-74385162D02*
X126281155Y-76285595D01*
X127040337Y-72760546D02*
X125134342Y-75482588D01*
X127520076Y-73958330D02*
X126019026Y-76102051D01*
X127464150Y-73759249D02*
X125887962Y-76010279D01*
X125819640Y-71294197D02*
X120009310Y-79592207D01*
X124857538Y-78318731D02*
X123526841Y-80219163D01*
X127487259Y-76655237D02*
X125617400Y-79325672D01*
X127317238Y-73341420D02*
X125593067Y-75803791D01*
X124038386Y-77745154D02*
X122256858Y-80289440D01*
X126375332Y-71827348D02*
X120700367Y-79932038D01*
X126062512Y-71506985D02*
X120292333Y-79747654D01*
X127280958Y-73253757D02*
X125527535Y-75757905D01*
X127558149Y-74113170D02*
X126117325Y-76170880D01*
X127591633Y-74274563D02*
X126215623Y-76239709D01*
X126456997Y-71919933D02*
X124347956Y-74931955D01*
X123481363Y-77355122D02*
X121503098Y-80180378D01*
X127165810Y-72999779D02*
X125330939Y-75620247D01*
X127674449Y-74923407D02*
X124054034Y-80093894D01*
X125850685Y-71319597D02*
X120043797Y-79612692D01*
X120443547Y-69592925D02*
X119869971Y-70412077D01*
X126906834Y-72532781D02*
X124937746Y-75344930D01*
X126715255Y-72248481D02*
X124675617Y-75161385D01*
X123088170Y-77079805D02*
X121011250Y-80045955D01*
X127335091Y-73385661D02*
X125625833Y-75826734D01*
X127124941Y-72918670D02*
X125265407Y-75574360D01*
X126836641Y-72423813D02*
X124839447Y-75276101D01*
X126562824Y-72047748D02*
X124479021Y-75023727D01*
X126952291Y-72607337D02*
X125003278Y-75390816D01*
X123546895Y-77401008D02*
X121587558Y-80199232D01*
X124136685Y-77813983D02*
X122397601Y-80297652D01*
X127678536Y-74987307D02*
X124115479Y-80075880D01*
X124529878Y-78089300D02*
X122990398Y-80287904D01*
X124824772Y-78295788D02*
X123471132Y-80228986D01*
X127224531Y-73125130D02*
X125429237Y-75689076D01*
X126121161Y-71562701D02*
X120364748Y-79783711D01*
X126812478Y-72388583D02*
X124806681Y-75253158D01*
X124366047Y-77974585D02*
X122737664Y-80300157D01*
X126536367Y-72015794D02*
X124446254Y-75000784D01*
X126739991Y-72282892D02*
X124708383Y-75184328D01*
X127629778Y-74499038D02*
X126346687Y-76331481D01*
X125971998Y-71425295D02*
X120184612Y-79690539D01*
X123612427Y-77446894D02*
X121673739Y-80215628D01*
X126402936Y-71857664D02*
X120738295Y-79947609D01*
X127684059Y-75328108D02*
X124437617Y-79964509D01*
X126320124Y-71766717D02*
X120624510Y-79900897D01*
X127369077Y-73476600D02*
X125691366Y-75872620D01*
X127685134Y-75256835D02*
X124371010Y-79989896D01*
X123055404Y-77056862D02*
X120971601Y-80032842D01*
X127506811Y-73907536D02*
X125986260Y-76079108D01*
X127645982Y-74615371D02*
X123754840Y-80172499D01*
X127680189Y-75473112D02*
X124572552Y-79911278D01*
X126001897Y-71452334D02*
X120220246Y-79709386D01*
X125533348Y-71075422D02*
X119705812Y-79398007D01*
X125694311Y-71194233D02*
X119872510Y-79508626D01*
X123809024Y-77584553D02*
X121937444Y-80257446D01*
X127408250Y-76907549D02*
X125827473Y-79165132D01*
X127385783Y-73522480D02*
X125724132Y-75895563D01*
X127449165Y-73710912D02*
X125855196Y-75987335D01*
X126788889Y-72352533D02*
X124773915Y-75230215D01*
X127638454Y-74556386D02*
X123696836Y-80185598D01*
X127451196Y-76776478D02*
X125718995Y-79250317D01*
X127062205Y-72799053D02*
X125167108Y-75505531D01*
X127706814Y-75213771D02*
G75*
G03*
X127706814Y-75213771I-5120000J0D01*
G01*
%TO.C,J20*%
X103213000Y-48645000D02*
X105873000Y-48645000D01*
X103213000Y-46045000D02*
X103213000Y-48645000D01*
X103213000Y-46045000D02*
X105873000Y-46045000D01*
X105873000Y-46045000D02*
X105873000Y-48645000D01*
X103213000Y-44775000D02*
X103213000Y-43445000D01*
X103213000Y-43445000D02*
X104543000Y-43445000D01*
%TO.C,J3*%
X76790929Y-72660011D02*
X79450929Y-72660011D01*
X76790929Y-77800011D02*
X79450929Y-77800011D01*
X76790929Y-72660011D02*
X76790929Y-77800011D01*
X76790929Y-71390011D02*
X76790929Y-70060011D01*
X79450929Y-72660011D02*
X79450929Y-77800011D01*
X76790929Y-70060011D02*
X78120929Y-70060011D01*
%TO.C,J11*%
X128225929Y-71375000D02*
X128225929Y-70045000D01*
X128225929Y-77785000D02*
X130885929Y-77785000D01*
X128225929Y-72645000D02*
X130885929Y-72645000D01*
X128225929Y-72645000D02*
X128225929Y-77785000D01*
X128225929Y-70045000D02*
X129555929Y-70045000D01*
X130885929Y-72645000D02*
X130885929Y-77785000D01*
%TO.C,R5*%
X116572936Y-59810000D02*
X118027064Y-59810000D01*
X116572936Y-57990000D02*
X118027064Y-57990000D01*
%TO.C,J13*%
X133559929Y-72645000D02*
X133559929Y-77785000D01*
X136219929Y-72645000D02*
X136219929Y-77785000D01*
X133559929Y-72645000D02*
X136219929Y-72645000D01*
X133559929Y-77785000D02*
X136219929Y-77785000D01*
X133559929Y-71375000D02*
X133559929Y-70045000D01*
X133559929Y-70045000D02*
X134889929Y-70045000D01*
%TD*%
M02*
