%TF.GenerationSoftware,KiCad,Pcbnew,(6.0.1)*%
%TF.CreationDate,2022-02-05T20:40:31-05:00*%
%TF.ProjectId,motor-controller,6d6f746f-722d-4636-9f6e-74726f6c6c65,rev?*%
%TF.SameCoordinates,Original*%
%TF.FileFunction,Copper,L2,Inr*%
%TF.FilePolarity,Positive*%
%FSLAX46Y46*%
G04 Gerber Fmt 4.6, Leading zero omitted, Abs format (unit mm)*
G04 Created by KiCad (PCBNEW (6.0.1)) date 2022-02-05 20:40:31*
%MOMM*%
%LPD*%
G01*
G04 APERTURE LIST*
G04 Aperture macros list*
%AMRotRect*
0 Rectangle, with rotation*
0 The origin of the aperture is its center*
0 $1 length*
0 $2 width*
0 $3 Rotation angle, in degrees counterclockwise*
0 Add horizontal line*
21,1,$1,$2,0,0,$3*%
G04 Aperture macros list end*
%TA.AperFunction,ComponentPad*%
%ADD10R,1.700000X1.700000*%
%TD*%
%TA.AperFunction,ComponentPad*%
%ADD11O,1.700000X1.700000*%
%TD*%
%TA.AperFunction,ComponentPad*%
%ADD12C,3.800000*%
%TD*%
%TA.AperFunction,ComponentPad*%
%ADD13R,3.800000X3.800000*%
%TD*%
%TA.AperFunction,ComponentPad*%
%ADD14C,2.900000*%
%TD*%
%TA.AperFunction,ComponentPad*%
%ADD15RotRect,2.000000X2.000000X325.000000*%
%TD*%
%TA.AperFunction,ComponentPad*%
%ADD16C,2.000000*%
%TD*%
%TA.AperFunction,ComponentPad*%
%ADD17C,1.600000*%
%TD*%
%TA.AperFunction,ViaPad*%
%ADD18C,0.800000*%
%TD*%
%TA.AperFunction,Conductor*%
%ADD19C,2.500000*%
%TD*%
%TA.AperFunction,Conductor*%
%ADD20C,1.270000*%
%TD*%
%TA.AperFunction,Conductor*%
%ADD21C,0.330200*%
%TD*%
%TA.AperFunction,Conductor*%
%ADD22C,0.635000*%
%TD*%
G04 APERTURE END LIST*
D10*
%TO.N,+BATT*%
%TO.C,JP1*%
X151530000Y-68075000D03*
D11*
%TO.N,Net-(J18-Pad2)*%
X151530000Y-65535000D03*
%TO.N,+AUX*%
X151530000Y-62995000D03*
%TD*%
D10*
%TO.N,+3V3*%
%TO.C,J29*%
X147932000Y-44800000D03*
D11*
%TO.N,Net-(J29-Pad2)*%
X147932000Y-47340000D03*
%TO.N,SW2*%
X147932000Y-49880000D03*
%TO.N,GND*%
X147932000Y-52420000D03*
%TD*%
D12*
%TO.N,Net-(J4-Pad2)*%
%TO.C,J4*%
X73900000Y-46200000D03*
D13*
%TO.N,GND*%
X78900000Y-46200000D03*
%TD*%
D14*
%TO.N,N/C*%
%TO.C,REF\u002A\u002A*%
X159397200Y-43351000D03*
%TD*%
D10*
%TO.N,M8*%
%TO.C,J9*%
X113299929Y-71375000D03*
D11*
%TO.N,+BATT*%
X113299929Y-73915000D03*
%TO.N,GND*%
X113299929Y-76455000D03*
%TD*%
D10*
%TO.N,+5V*%
%TO.C,J33*%
X111018400Y-44813600D03*
D11*
%TO.N,Net-(J33-Pad2)*%
X113558400Y-44813600D03*
%TO.N,Net-(J33-Pad3)*%
X116098400Y-44813600D03*
%TO.N,GND*%
X118638400Y-44813600D03*
%TD*%
D10*
%TO.N,AUX_M3*%
%TO.C,J22*%
X154200000Y-71375000D03*
D11*
%TO.N,Net-(J22-Pad2)*%
X154200000Y-73915000D03*
%TO.N,GND*%
X154200000Y-76455000D03*
%TD*%
D10*
%TO.N,M6*%
%TO.C,J7*%
X97043929Y-71375000D03*
D11*
%TO.N,+BATT*%
X97043929Y-73915000D03*
%TO.N,GND*%
X97043929Y-76455000D03*
%TD*%
D15*
%TO.N,+BATT*%
%TO.C,C2*%
X82698998Y-73779830D03*
D16*
%TO.N,GND*%
X86794758Y-76647712D03*
%TD*%
D10*
%TO.N,+BATT*%
%TO.C,J15*%
X86256800Y-44780000D03*
D11*
%TO.N,GND*%
X86256800Y-47320000D03*
%TD*%
D10*
%TO.N,+5V*%
%TO.C,J16*%
X100843000Y-44780000D03*
D11*
%TO.N,GND*%
X100843000Y-47320000D03*
%TD*%
D10*
%TO.N,+3V3*%
%TO.C,J30*%
X133600000Y-44800000D03*
D11*
%TO.N,SDA1*%
X136140000Y-44800000D03*
%TO.N,SDL1*%
X138680000Y-44800000D03*
%TO.N,GND*%
X141220000Y-44800000D03*
%TD*%
D17*
%TO.N,GND*%
%TO.C,U2*%
X96954602Y-66799400D03*
%TO.N,M1*%
X99494602Y-66799400D03*
%TO.N,M2*%
X102034602Y-66799400D03*
%TO.N,M3*%
X104574602Y-66799400D03*
%TO.N,M4*%
X107114602Y-66799400D03*
%TO.N,M5*%
X109654602Y-66799400D03*
%TO.N,M6*%
X112194602Y-66799400D03*
%TO.N,M7*%
X114734602Y-66799400D03*
%TO.N,M8*%
X117274602Y-66799400D03*
%TO.N,M9*%
X119814602Y-66799400D03*
%TO.N,M10*%
X122354602Y-66799400D03*
%TO.N,M11*%
X124894602Y-66799400D03*
%TO.N,M12*%
X127434602Y-66799400D03*
%TO.N,AUX_M1*%
X129974602Y-66799400D03*
%TO.N,unconnected-(U2-Pad15)*%
X129974602Y-64259400D03*
%TO.N,unconnected-(U2-Pad16)*%
X129974602Y-61719400D03*
%TO.N,GND*%
X129974602Y-59179400D03*
%TO.N,unconnected-(U2-Pad18)*%
X129974602Y-56639400D03*
%TO.N,unconnected-(U2-Pad19)*%
X129974602Y-54099400D03*
%TO.N,unconnected-(U2-Pad20)*%
X129974602Y-51559400D03*
%TO.N,OUT4*%
X127434602Y-51559400D03*
%TO.N,OUT3*%
X124894602Y-51559400D03*
%TO.N,OUT2*%
X122354602Y-51559400D03*
%TO.N,OUT1*%
X119814602Y-51559400D03*
%TO.N,SDA0*%
X117274602Y-51559400D03*
%TO.N,SCL0*%
X114734602Y-51559400D03*
%TO.N,TX*%
X112194602Y-51559400D03*
%TO.N,RX*%
X109654602Y-51559400D03*
%TO.N,CSENSE*%
X107114602Y-51559400D03*
%TO.N,VSENSE*%
X104574602Y-51559400D03*
%TO.N,+3V3*%
X102034602Y-51559400D03*
%TO.N,GND*%
X99494602Y-51559400D03*
%TO.N,+5V*%
X96954602Y-51559400D03*
%TO.N,unconnected-(U2-Pad34)*%
X99494602Y-54099400D03*
%TO.N,SDL1*%
X124894602Y-54099400D03*
%TO.N,SDA1*%
X122354602Y-54099400D03*
%TO.N,NEO2*%
X124894602Y-56639400D03*
%TO.N,NEO1*%
X122354602Y-56639400D03*
%TO.N,SW1*%
X124894602Y-59179400D03*
%TO.N,AUX_M3*%
X122354602Y-59179400D03*
%TO.N,SW3*%
X124894602Y-61719400D03*
%TO.N,SW2*%
X122354602Y-61719400D03*
%TO.N,SW4*%
X124894602Y-64259400D03*
%TO.N,AUX_M2*%
X122354602Y-64259400D03*
%TD*%
D10*
%TO.N,+3V3*%
%TO.C,J31*%
X150726000Y-44800000D03*
D11*
%TO.N,Net-(J31-Pad2)*%
X150726000Y-47340000D03*
%TO.N,SW3*%
X150726000Y-49880000D03*
%TO.N,GND*%
X150726000Y-52420000D03*
%TD*%
D10*
%TO.N,M5*%
%TO.C,J6*%
X94376929Y-71375000D03*
D11*
%TO.N,+BATT*%
X94376929Y-73915000D03*
%TO.N,GND*%
X94376929Y-76455000D03*
%TD*%
D10*
%TO.N,+BATT*%
%TO.C,J21*%
X89000000Y-44780000D03*
D11*
%TO.N,GND*%
X89000000Y-47320000D03*
%TD*%
D10*
%TO.N,AUX_M2*%
%TO.C,J18*%
X151533000Y-71375000D03*
D11*
%TO.N,Net-(J18-Pad2)*%
X151533000Y-73915000D03*
%TO.N,GND*%
X151533000Y-76455000D03*
%TD*%
D10*
%TO.N,+5V*%
%TO.C,J19*%
X98143000Y-44780000D03*
D11*
%TO.N,GND*%
X98143000Y-47320000D03*
%TD*%
D10*
%TO.N,+5V*%
%TO.C,J26*%
X149935000Y-56340000D03*
D11*
%TO.N,Net-(J26-Pad2)*%
X152475000Y-56340000D03*
%TO.N,GND*%
X155015000Y-56340000D03*
%TD*%
D15*
%TO.N,+BATT*%
%TO.C,C1*%
X139588934Y-73779830D03*
D16*
%TO.N,GND*%
X143684694Y-76647712D03*
%TD*%
D10*
%TO.N,M2*%
%TO.C,J2*%
X75453929Y-71375000D03*
D11*
%TO.N,+BATT*%
X75453929Y-73915000D03*
%TO.N,GND*%
X75453929Y-76455000D03*
%TD*%
D10*
%TO.N,M11*%
%TO.C,J12*%
X132222929Y-71375000D03*
D11*
%TO.N,+BATT*%
X132222929Y-73915000D03*
%TO.N,GND*%
X132222929Y-76455000D03*
%TD*%
D10*
%TO.N,+5V*%
%TO.C,J14*%
X95443000Y-44780000D03*
D11*
%TO.N,GND*%
X95443000Y-47320000D03*
%TD*%
D10*
%TO.N,+BATT*%
%TO.C,JP2*%
X148860000Y-68085000D03*
D11*
%TO.N,Net-(J17-Pad2)*%
X148860000Y-65545000D03*
%TO.N,+AUX*%
X148860000Y-63005000D03*
%TD*%
D10*
%TO.N,+BATT*%
%TO.C,J23*%
X91743200Y-44780000D03*
D11*
%TO.N,GND*%
X91743200Y-47320000D03*
%TD*%
D10*
%TO.N,+BATT*%
%TO.C,JP3*%
X154200000Y-68085000D03*
D11*
%TO.N,Net-(J22-Pad2)*%
X154200000Y-65545000D03*
%TO.N,+AUX*%
X154200000Y-63005000D03*
%TD*%
D10*
%TO.N,M4*%
%TO.C,J5*%
X91709929Y-71375000D03*
D11*
%TO.N,+BATT*%
X91709929Y-73915000D03*
%TO.N,GND*%
X91709929Y-76455000D03*
%TD*%
D10*
%TO.N,+5V*%
%TO.C,J25*%
X149940000Y-59070000D03*
D11*
%TO.N,Net-(J25-Pad2)*%
X152480000Y-59070000D03*
%TO.N,GND*%
X155020000Y-59070000D03*
%TD*%
D10*
%TO.N,M9*%
%TO.C,J10*%
X115966929Y-71390011D03*
D11*
%TO.N,+BATT*%
X115966929Y-73930011D03*
%TO.N,GND*%
X115966929Y-76470011D03*
%TD*%
D14*
%TO.N,N/C*%
%TO.C,REF\u002A\u002A*%
X159397200Y-77851000D03*
%TD*%
D10*
%TO.N,+3V3*%
%TO.C,J27*%
X145138000Y-44800000D03*
D11*
%TO.N,Net-(J27-Pad2)*%
X145138000Y-47340000D03*
%TO.N,SW1*%
X145138000Y-49880000D03*
%TO.N,GND*%
X145138000Y-52420000D03*
%TD*%
D10*
%TO.N,+3V3*%
%TO.C,J24*%
X122300000Y-44800000D03*
D11*
%TO.N,SDA0*%
X124840000Y-44800000D03*
%TO.N,SCL0*%
X127380000Y-44800000D03*
%TO.N,GND*%
X129920000Y-44800000D03*
%TD*%
D10*
%TO.N,+3V3*%
%TO.C,J32*%
X153520000Y-44800000D03*
D11*
%TO.N,Net-(J32-Pad2)*%
X153520000Y-47340000D03*
%TO.N,SW4*%
X153520000Y-49880000D03*
%TO.N,GND*%
X153520000Y-52420000D03*
%TD*%
D10*
%TO.N,M7*%
%TO.C,J8*%
X110632929Y-71359989D03*
D11*
%TO.N,+BATT*%
X110632929Y-73899989D03*
%TO.N,GND*%
X110632929Y-76439989D03*
%TD*%
D10*
%TO.N,+3V3*%
%TO.C,J28*%
X133600000Y-47490000D03*
D11*
%TO.N,SDA1*%
X136140000Y-47490000D03*
%TO.N,SDL1*%
X138680000Y-47490000D03*
%TO.N,GND*%
X141220000Y-47490000D03*
%TD*%
D10*
%TO.N,M1*%
%TO.C,J1*%
X72786929Y-71375000D03*
D11*
%TO.N,+BATT*%
X72786929Y-73915000D03*
%TO.N,GND*%
X72786929Y-76455000D03*
%TD*%
D10*
%TO.N,+AUX*%
%TO.C,J34*%
X107243000Y-44800000D03*
D11*
%TO.N,GND*%
X107243000Y-47340000D03*
%TD*%
D10*
%TO.N,AUX_M1*%
%TO.C,J17*%
X148866000Y-71375000D03*
D11*
%TO.N,Net-(J17-Pad2)*%
X148866000Y-73915000D03*
%TO.N,GND*%
X148866000Y-76455000D03*
%TD*%
D15*
%TO.N,+BATT*%
%TO.C,C4*%
X101621998Y-73788000D03*
D16*
%TO.N,GND*%
X105717758Y-76655882D03*
%TD*%
D15*
%TO.N,+BATT*%
%TO.C,C3*%
X120538934Y-73779830D03*
D16*
%TO.N,GND*%
X124634694Y-76647712D03*
%TD*%
D14*
%TO.N,N/C*%
%TO.C,REF\u002A\u002A*%
X64897200Y-77851000D03*
%TD*%
D10*
%TO.N,+AUX*%
%TO.C,J20*%
X104543000Y-44775000D03*
D11*
%TO.N,GND*%
X104543000Y-47315000D03*
%TD*%
D10*
%TO.N,M3*%
%TO.C,J3*%
X78120929Y-71390011D03*
D11*
%TO.N,+BATT*%
X78120929Y-73930011D03*
%TO.N,GND*%
X78120929Y-76470011D03*
%TD*%
D14*
%TO.N,N/C*%
%TO.C,REF\u002A\u002A*%
X64897200Y-43351000D03*
%TD*%
D10*
%TO.N,M10*%
%TO.C,J11*%
X129555929Y-71375000D03*
D11*
%TO.N,+BATT*%
X129555929Y-73915000D03*
%TO.N,GND*%
X129555929Y-76455000D03*
%TD*%
D10*
%TO.N,M12*%
%TO.C,J13*%
X134889929Y-71375000D03*
D11*
%TO.N,+BATT*%
X134889929Y-73915000D03*
%TO.N,GND*%
X134889929Y-76455000D03*
%TD*%
D18*
%TO.N,+BATT*%
X80235000Y-73915000D03*
X69610000Y-68090000D03*
X125135000Y-73915000D03*
X99095000Y-73915000D03*
X105895000Y-73915000D03*
X69610000Y-62090000D03*
X69610000Y-66000000D03*
X69610000Y-70290000D03*
X127075000Y-73915000D03*
X67840000Y-60300000D03*
X137215000Y-73915000D03*
X104215000Y-73915000D03*
X86985000Y-73915000D03*
X123275000Y-73915000D03*
X69610000Y-72210000D03*
X69610000Y-64130000D03*
X118255000Y-73915000D03*
X89055000Y-73915000D03*
X85275000Y-73915000D03*
X108095000Y-73915000D03*
X70875000Y-73275000D03*
%TO.N,M1*%
X85800000Y-65700000D03*
X78500000Y-65700000D03*
%TO.N,GND*%
X87650000Y-69280000D03*
X66050000Y-53840000D03*
X70070000Y-76970000D03*
X157740000Y-69530000D03*
X77040000Y-43230000D03*
X120960000Y-69100000D03*
X67950000Y-46200000D03*
X75937500Y-62100000D03*
X66000000Y-69180000D03*
X65900000Y-48450000D03*
X65980000Y-62010000D03*
X117910000Y-63190000D03*
X90070000Y-67580000D03*
X92470000Y-54710000D03*
X117890000Y-61670000D03*
X69900000Y-43500000D03*
X160290000Y-73380000D03*
X160260000Y-47950000D03*
X66170000Y-73460000D03*
X65980000Y-64580000D03*
X77499997Y-56100000D03*
X144434992Y-62654993D03*
X67900000Y-75240000D03*
%TO.N,M2*%
X87300000Y-64800000D03*
X81800000Y-64800000D03*
%TO.N,+5V*%
X112010000Y-59650000D03*
X104460000Y-59640000D03*
%TO.N,+3V3*%
X140580000Y-53660000D03*
X101260000Y-61540000D03*
X135090000Y-53590000D03*
%TO.N,Net-(J27-Pad2)*%
X133605000Y-55885000D03*
%TO.N,SW3*%
X132030000Y-61730000D03*
%TO.N,SW4*%
X135830000Y-64460000D03*
%TO.N,RX*%
X114010000Y-61520000D03*
%TO.N,Net-(J4-Pad2)*%
X69520000Y-53290000D03*
X69400000Y-50760000D03*
X67780000Y-57450000D03*
X69560000Y-55435000D03*
X70600000Y-48890000D03*
%TO.N,VSENSE*%
X89220000Y-54710000D03*
%TO.N,CSENSE*%
X88300000Y-59020000D03*
%TO.N,NEO1*%
X141830000Y-66630000D03*
%TO.N,OUT2*%
X132030000Y-56040000D03*
%TO.N,OUT3*%
X134927917Y-59783789D03*
%TO.N,OUT4*%
X136510000Y-59700000D03*
%TD*%
D19*
%TO.N,Net-(J4-Pad2)*%
X73310000Y-46090000D02*
X69560000Y-49840000D01*
X73360000Y-46090000D02*
X73310000Y-46090000D01*
X69560000Y-49840000D02*
X69560000Y-55435000D01*
%TO.N,+BATT*%
X67840000Y-60300000D02*
X67840000Y-60320000D01*
X82698998Y-73779830D02*
X72922099Y-73779830D01*
D20*
X71340000Y-63620000D02*
X69660000Y-63620000D01*
X84130000Y-48577544D02*
X80117544Y-52590000D01*
X80117544Y-52590000D02*
X74660000Y-52590000D01*
X86256800Y-44780000D02*
X84940000Y-44780000D01*
D19*
X71315000Y-73915000D02*
X72786929Y-73915000D01*
X69610000Y-72210000D02*
X71315000Y-73915000D01*
X69610000Y-62090000D02*
X69610000Y-72210000D01*
X139588934Y-73779830D02*
X82698998Y-73779830D01*
D20*
X84940000Y-44780000D02*
X84130000Y-45590000D01*
D19*
X67840000Y-60320000D02*
X69610000Y-62090000D01*
D20*
X74660000Y-52590000D02*
X72180000Y-55070000D01*
X84130000Y-45590000D02*
X84130000Y-48577544D01*
X72180000Y-62780000D02*
X71340000Y-63620000D01*
D19*
X72922099Y-73779830D02*
X72786929Y-73915000D01*
D20*
X72180000Y-55070000D02*
X72180000Y-62780000D01*
D21*
%TO.N,M1*%
X78499995Y-65699996D02*
X85800006Y-65699996D01*
%TO.N,M2*%
X81799989Y-64799997D02*
X87300003Y-64799997D01*
D20*
%TO.N,+5V*%
X156980000Y-45160000D02*
X156980000Y-59496785D01*
X149940000Y-59070000D02*
X149940000Y-56300009D01*
X110740000Y-42070000D02*
X107990000Y-42070000D01*
X100843000Y-43177000D02*
X100843000Y-44780000D01*
X95443000Y-44780000D02*
X98143000Y-44780000D01*
X110740000Y-42070000D02*
X153890000Y-42070000D01*
X98143000Y-44780000D02*
X100843000Y-44780000D01*
X107980000Y-42060000D02*
X101960000Y-42060000D01*
X110740000Y-42070000D02*
X111018400Y-42348400D01*
X107990000Y-42070000D02*
X107980000Y-42060000D01*
X153890000Y-42070000D02*
X156980000Y-45160000D01*
X151627711Y-60757711D02*
X149940000Y-59070000D01*
X111018400Y-42348400D02*
X111018400Y-44813600D01*
X101960000Y-42060000D02*
X100843000Y-43177000D01*
X156980000Y-59496785D02*
X155719074Y-60757711D01*
X155719074Y-60757711D02*
X151627711Y-60757711D01*
D21*
%TO.N,AUX_M1*%
X132289400Y-66799400D02*
X135240000Y-69750000D01*
X135240000Y-69750000D02*
X136890000Y-69750000D01*
X138515000Y-71375000D02*
X148866000Y-71375000D01*
X136890000Y-69750000D02*
X138515000Y-71375000D01*
X129974602Y-66799400D02*
X132289400Y-66799400D01*
D22*
%TO.N,+3V3*%
X143140000Y-46798000D02*
X143140000Y-47507772D01*
X145138000Y-44800000D02*
X147932000Y-44800000D01*
D20*
X122300000Y-47370000D02*
X122300000Y-44800000D01*
D21*
X140580000Y-53660000D02*
X140580000Y-52850000D01*
X133600000Y-52100000D02*
X133600000Y-47490000D01*
D20*
X133600000Y-47490000D02*
X133590000Y-47490000D01*
D22*
X153520000Y-44800000D02*
X150726000Y-44800000D01*
X134040000Y-47820000D02*
X134040000Y-46120000D01*
X135610000Y-49390000D02*
X134040000Y-47820000D01*
D20*
X104044002Y-49550000D02*
X120120000Y-49550000D01*
X133600000Y-46560000D02*
X133600000Y-44800000D01*
D22*
X143140000Y-47507772D02*
X141257772Y-49390000D01*
D20*
X120120000Y-49550000D02*
X122300000Y-47370000D01*
D21*
X101219991Y-61499991D02*
X101219991Y-52374011D01*
X140580000Y-52850000D02*
X139910000Y-52180000D01*
X133730000Y-52180000D02*
X133705000Y-52205000D01*
D20*
X131530000Y-49550000D02*
X120120000Y-49550000D01*
X133600000Y-47490000D02*
X133600000Y-46560000D01*
D21*
X101219991Y-52374011D02*
X102034602Y-51559400D01*
X139910000Y-52180000D02*
X133730000Y-52180000D01*
X134040000Y-46120000D02*
X133600000Y-46560000D01*
X133705000Y-52205000D02*
X133600000Y-52100000D01*
D22*
X147932000Y-44800000D02*
X150726000Y-44800000D01*
D20*
X102034602Y-51559400D02*
X104044002Y-49550000D01*
D22*
X145138000Y-44800000D02*
X143140000Y-46798000D01*
X141257772Y-49390000D02*
X135610000Y-49390000D01*
D21*
X135090000Y-53590000D02*
X133705000Y-52205000D01*
D20*
X133590000Y-47490000D02*
X131530000Y-49550000D01*
D21*
%TO.N,Net-(J27-Pad2)*%
X133605000Y-55885000D02*
X142215000Y-55885000D01*
X142215000Y-55885000D02*
X143060000Y-55040000D01*
X143060000Y-55040000D02*
X143060000Y-49418000D01*
X143060000Y-49418000D02*
X145138000Y-47340000D01*
%TO.N,SW1*%
X143920189Y-55433473D02*
X141342073Y-58011589D01*
X143920189Y-51097811D02*
X143920189Y-55433473D01*
X141342073Y-58011589D02*
X126062413Y-58011589D01*
X126062413Y-58011589D02*
X124894602Y-59179400D01*
X145138000Y-49880000D02*
X143920189Y-51097811D01*
%TO.N,SW2*%
X146355811Y-51456189D02*
X146355811Y-53751513D01*
X123522413Y-60551589D02*
X122354602Y-61719400D01*
X147932000Y-49880000D02*
X146355811Y-51456189D01*
X139555735Y-60551589D02*
X123522413Y-60551589D01*
X146355811Y-53751513D02*
X139555735Y-60551589D01*
%TO.N,SW3*%
X149149811Y-52924435D02*
X140344246Y-61730000D01*
X140344246Y-61730000D02*
X132030000Y-61730000D01*
X150726000Y-49880000D02*
X149149811Y-51456189D01*
X149149811Y-51456189D02*
X149149811Y-52924435D01*
%TO.N,SW4*%
X150120000Y-54920000D02*
X148450000Y-54920000D01*
X153520000Y-49880000D02*
X151943811Y-51456189D01*
X148450000Y-54920000D02*
X138910000Y-64460000D01*
X151943811Y-51456189D02*
X151943811Y-53096189D01*
X151943811Y-53096189D02*
X150120000Y-54920000D01*
X138910000Y-64460000D02*
X135830000Y-64460000D01*
%TO.N,RX*%
X114010000Y-55914798D02*
X109654602Y-51559400D01*
X114010000Y-61520000D02*
X114010000Y-55914798D01*
%TO.N,AUX_M2*%
X138480000Y-69970000D02*
X150128000Y-69970000D01*
X133937211Y-65427211D02*
X138480000Y-69970000D01*
X122354602Y-64259400D02*
X122354602Y-65004602D01*
X122354602Y-65004602D02*
X122777211Y-65427211D01*
X150128000Y-69970000D02*
X151533000Y-71375000D01*
X122777211Y-65427211D02*
X133937211Y-65427211D01*
%TO.N,AUX_M3*%
X153740000Y-69380000D02*
X139140000Y-69380000D01*
X154200000Y-69840000D02*
X153740000Y-69380000D01*
X120440000Y-61094002D02*
X122354602Y-59179400D01*
X154200000Y-71375000D02*
X154200000Y-69840000D01*
X120440000Y-62990000D02*
X120440000Y-61094002D01*
X132750000Y-62990000D02*
X120440000Y-62990000D01*
X139140000Y-69380000D02*
X132750000Y-62990000D01*
D19*
%TO.N,Net-(J4-Pad2)*%
X69560000Y-55670000D02*
X67780000Y-57450000D01*
X69560000Y-55435000D02*
X69560000Y-55670000D01*
D21*
%TO.N,OUT2*%
X123630000Y-52834798D02*
X122354602Y-51559400D01*
X131461589Y-55471589D02*
X124431589Y-55471589D01*
X132030000Y-56040000D02*
X131461589Y-55471589D01*
X123630000Y-54670000D02*
X123630000Y-52834798D01*
X124431589Y-55471589D02*
X123630000Y-54670000D01*
%TD*%
%TA.AperFunction,Conductor*%
%TO.N,GND*%
G36*
X64697822Y-41173002D02*
G01*
X64744315Y-41226658D01*
X64754419Y-41296932D01*
X64724925Y-41361512D01*
X64665199Y-41399896D01*
X64651080Y-41402841D01*
X64651108Y-41402980D01*
X64383456Y-41456219D01*
X64383451Y-41456220D01*
X64379084Y-41457089D01*
X64374881Y-41458565D01*
X64121607Y-41547508D01*
X64121604Y-41547509D01*
X64117399Y-41548986D01*
X64113446Y-41551039D01*
X64113440Y-41551042D01*
X63973934Y-41623510D01*
X63871273Y-41676838D01*
X63867658Y-41679421D01*
X63867652Y-41679425D01*
X63724871Y-41781458D01*
X63645616Y-41838095D01*
X63444932Y-42029538D01*
X63273225Y-42247348D01*
X63270993Y-42251190D01*
X63270990Y-42251195D01*
X63136158Y-42483324D01*
X63136155Y-42483330D01*
X63133920Y-42487178D01*
X63132246Y-42491311D01*
X63031471Y-42740112D01*
X63031468Y-42740120D01*
X63029798Y-42744244D01*
X63010484Y-42821999D01*
X62981611Y-42938234D01*
X62962935Y-43013417D01*
X62956693Y-43074340D01*
X62940386Y-43233502D01*
X62934666Y-43289325D01*
X62936589Y-43338279D01*
X62943512Y-43514456D01*
X62945555Y-43566464D01*
X62956277Y-43625171D01*
X62993110Y-43826849D01*
X62995384Y-43839303D01*
X63083160Y-44102400D01*
X63085152Y-44106387D01*
X63085153Y-44106389D01*
X63166796Y-44269782D01*
X63207130Y-44350504D01*
X63364823Y-44578666D01*
X63380959Y-44596122D01*
X63550074Y-44779070D01*
X63550079Y-44779075D01*
X63553090Y-44782332D01*
X63768175Y-44957439D01*
X63771993Y-44959738D01*
X63771995Y-44959739D01*
X63914802Y-45045716D01*
X64005788Y-45100494D01*
X64009883Y-45102228D01*
X64009885Y-45102229D01*
X64257086Y-45206905D01*
X64257093Y-45206907D01*
X64261187Y-45208641D01*
X64318412Y-45223814D01*
X64524979Y-45278585D01*
X64524984Y-45278586D01*
X64529276Y-45279724D01*
X64533685Y-45280246D01*
X64533691Y-45280247D01*
X64711403Y-45301280D01*
X64804706Y-45312323D01*
X65081982Y-45305789D01*
X65190780Y-45287680D01*
X65351181Y-45260982D01*
X65351185Y-45260981D01*
X65355571Y-45260251D01*
X65359812Y-45258910D01*
X65359815Y-45258909D01*
X65615768Y-45177962D01*
X65615770Y-45177961D01*
X65620014Y-45176619D01*
X65624025Y-45174693D01*
X65624030Y-45174691D01*
X65866016Y-45058491D01*
X65866017Y-45058490D01*
X65870035Y-45056561D01*
X66025477Y-44952698D01*
X66096937Y-44904950D01*
X66096941Y-44904947D01*
X66100645Y-44902472D01*
X66245788Y-44772471D01*
X66303925Y-44720399D01*
X66303926Y-44720398D01*
X66307243Y-44717427D01*
X66485707Y-44505118D01*
X66632476Y-44269782D01*
X66744622Y-44016113D01*
X66752841Y-43986973D01*
X66789116Y-43858350D01*
X66819907Y-43749173D01*
X66833697Y-43646507D01*
X66856401Y-43477471D01*
X66856402Y-43477463D01*
X66856828Y-43474289D01*
X66857473Y-43453765D01*
X66860602Y-43354222D01*
X66860602Y-43354217D01*
X66860703Y-43351000D01*
X66841114Y-43074340D01*
X66808712Y-42923834D01*
X66783676Y-42807547D01*
X66783675Y-42807545D01*
X66782740Y-42803200D01*
X66686743Y-42542990D01*
X66658859Y-42491311D01*
X66557153Y-42302818D01*
X66555040Y-42298902D01*
X66390259Y-42075807D01*
X66387140Y-42072638D01*
X66387136Y-42072634D01*
X66294315Y-41978343D01*
X66195688Y-41878155D01*
X66192148Y-41875453D01*
X65978753Y-41712595D01*
X65978749Y-41712592D01*
X65975208Y-41709890D01*
X65733219Y-41574369D01*
X65729070Y-41572764D01*
X65729066Y-41572762D01*
X65573864Y-41512720D01*
X65474549Y-41474298D01*
X65470224Y-41473295D01*
X65470219Y-41473294D01*
X65361929Y-41448194D01*
X65204360Y-41411671D01*
X65121910Y-41404530D01*
X65055769Y-41378725D01*
X65014079Y-41321257D01*
X65010077Y-41250374D01*
X65045032Y-41188579D01*
X65107848Y-41155492D01*
X65132782Y-41153000D01*
X100945657Y-41153000D01*
X101013778Y-41173002D01*
X101060271Y-41226658D01*
X101070375Y-41296932D01*
X101040881Y-41361512D01*
X101034752Y-41368095D01*
X100064696Y-42338151D01*
X100058678Y-42343788D01*
X100009981Y-42386494D01*
X100006406Y-42391029D01*
X100006405Y-42391030D01*
X99955202Y-42455982D01*
X99953124Y-42458547D01*
X99900266Y-42522100D01*
X99900262Y-42522105D01*
X99896574Y-42526540D01*
X99893755Y-42531574D01*
X99891686Y-42534584D01*
X99885492Y-42543854D01*
X99883449Y-42546999D01*
X99879872Y-42551537D01*
X99877184Y-42556645D01*
X99877182Y-42556649D01*
X99838688Y-42629816D01*
X99837118Y-42632706D01*
X99793885Y-42709904D01*
X99792028Y-42715376D01*
X99790514Y-42718776D01*
X99786127Y-42728987D01*
X99784705Y-42732421D01*
X99782018Y-42737527D01*
X99780306Y-42743041D01*
X99780305Y-42743043D01*
X99755788Y-42821999D01*
X99754769Y-42825135D01*
X99726331Y-42908912D01*
X99725502Y-42914625D01*
X99724659Y-42918138D01*
X99722167Y-42929151D01*
X99721409Y-42932718D01*
X99719696Y-42938234D01*
X99719018Y-42943962D01*
X99719017Y-42943967D01*
X99709297Y-43026098D01*
X99708870Y-43029340D01*
X99696175Y-43116897D01*
X99696402Y-43122665D01*
X99699403Y-43199054D01*
X99699500Y-43204001D01*
X99699500Y-43451429D01*
X99679498Y-43519550D01*
X99649065Y-43552255D01*
X99629739Y-43566739D01*
X99624358Y-43573919D01*
X99615255Y-43586065D01*
X99558396Y-43628580D01*
X99514429Y-43636500D01*
X99471571Y-43636500D01*
X99403450Y-43616498D01*
X99370745Y-43586065D01*
X99361642Y-43573919D01*
X99356261Y-43566739D01*
X99239705Y-43479385D01*
X99103316Y-43428255D01*
X99041134Y-43421500D01*
X97244866Y-43421500D01*
X97182684Y-43428255D01*
X97046295Y-43479385D01*
X96929739Y-43566739D01*
X96924358Y-43573919D01*
X96915255Y-43586065D01*
X96858396Y-43628580D01*
X96814429Y-43636500D01*
X96771571Y-43636500D01*
X96703450Y-43616498D01*
X96670745Y-43586065D01*
X96661642Y-43573919D01*
X96656261Y-43566739D01*
X96539705Y-43479385D01*
X96403316Y-43428255D01*
X96341134Y-43421500D01*
X94544866Y-43421500D01*
X94482684Y-43428255D01*
X94346295Y-43479385D01*
X94229739Y-43566739D01*
X94142385Y-43683295D01*
X94091255Y-43819684D01*
X94084500Y-43881866D01*
X94084500Y-45678134D01*
X94091255Y-45740316D01*
X94142385Y-45876705D01*
X94229739Y-45993261D01*
X94346295Y-46080615D01*
X94482684Y-46131745D01*
X94544866Y-46138500D01*
X96341134Y-46138500D01*
X96403316Y-46131745D01*
X96539705Y-46080615D01*
X96656261Y-45993261D01*
X96670745Y-45973935D01*
X96727604Y-45931420D01*
X96771571Y-45923500D01*
X96814429Y-45923500D01*
X96882550Y-45943502D01*
X96915255Y-45973935D01*
X96929739Y-45993261D01*
X97046295Y-46080615D01*
X97182684Y-46131745D01*
X97244866Y-46138500D01*
X99041134Y-46138500D01*
X99103316Y-46131745D01*
X99239705Y-46080615D01*
X99356261Y-45993261D01*
X99370745Y-45973935D01*
X99427604Y-45931420D01*
X99471571Y-45923500D01*
X99514429Y-45923500D01*
X99582550Y-45943502D01*
X99615255Y-45973935D01*
X99629739Y-45993261D01*
X99746295Y-46080615D01*
X99882684Y-46131745D01*
X99944866Y-46138500D01*
X101741134Y-46138500D01*
X101803316Y-46131745D01*
X101939705Y-46080615D01*
X102056261Y-45993261D01*
X102143615Y-45876705D01*
X102194745Y-45740316D01*
X102201500Y-45678134D01*
X102201500Y-43881866D01*
X102194745Y-43819684D01*
X102143615Y-43683295D01*
X102127837Y-43662243D01*
X102102990Y-43595738D01*
X102118043Y-43526356D01*
X102139569Y-43497584D01*
X102396748Y-43240405D01*
X102459060Y-43206379D01*
X102485843Y-43203500D01*
X103473829Y-43203500D01*
X103541950Y-43223502D01*
X103588443Y-43277158D01*
X103598547Y-43347432D01*
X103569053Y-43412012D01*
X103518058Y-43447482D01*
X103454705Y-43471232D01*
X103454704Y-43471233D01*
X103446295Y-43474385D01*
X103329739Y-43561739D01*
X103242385Y-43678295D01*
X103191255Y-43814684D01*
X103184500Y-43876866D01*
X103184500Y-45673134D01*
X103191255Y-45735316D01*
X103242385Y-45871705D01*
X103329739Y-45988261D01*
X103446295Y-46075615D01*
X103582684Y-46126745D01*
X103644866Y-46133500D01*
X105441134Y-46133500D01*
X105503316Y-46126745D01*
X105639705Y-46075615D01*
X105756261Y-45988261D01*
X105782806Y-45952842D01*
X105839665Y-45910327D01*
X105910484Y-45905301D01*
X105972777Y-45939361D01*
X105984453Y-45952836D01*
X106029739Y-46013261D01*
X106146295Y-46100615D01*
X106282684Y-46151745D01*
X106344866Y-46158500D01*
X108141134Y-46158500D01*
X108203316Y-46151745D01*
X108339705Y-46100615D01*
X108456261Y-46013261D01*
X108543615Y-45896705D01*
X108594745Y-45760316D01*
X108601500Y-45698134D01*
X108601500Y-43901866D01*
X108594745Y-43839684D01*
X108543615Y-43703295D01*
X108456261Y-43586739D01*
X108339705Y-43499385D01*
X108227929Y-43457482D01*
X108171165Y-43414840D01*
X108146465Y-43348279D01*
X108161672Y-43278930D01*
X108211958Y-43228812D01*
X108272159Y-43213500D01*
X109748900Y-43213500D01*
X109817021Y-43233502D01*
X109863514Y-43287158D01*
X109874900Y-43339500D01*
X109874900Y-43485029D01*
X109854898Y-43553150D01*
X109824465Y-43585855D01*
X109805139Y-43600339D01*
X109717785Y-43716895D01*
X109666655Y-43853284D01*
X109659900Y-43915466D01*
X109659900Y-45711734D01*
X109666655Y-45773916D01*
X109717785Y-45910305D01*
X109805139Y-46026861D01*
X109921695Y-46114215D01*
X110058084Y-46165345D01*
X110120266Y-46172100D01*
X111916534Y-46172100D01*
X111978716Y-46165345D01*
X112115105Y-46114215D01*
X112231661Y-46026861D01*
X112319015Y-45910305D01*
X112343808Y-45844171D01*
X112362998Y-45792982D01*
X112405640Y-45736218D01*
X112472202Y-45711518D01*
X112541550Y-45726726D01*
X112576217Y-45754714D01*
X112604650Y-45787538D01*
X112776526Y-45930232D01*
X112969400Y-46042938D01*
X113178092Y-46122630D01*
X113183160Y-46123661D01*
X113183163Y-46123662D01*
X113254281Y-46138131D01*
X113396997Y-46167167D01*
X113402172Y-46167357D01*
X113402174Y-46167357D01*
X113615073Y-46175164D01*
X113615077Y-46175164D01*
X113620237Y-46175353D01*
X113625357Y-46174697D01*
X113625359Y-46174697D01*
X113836688Y-46147625D01*
X113836689Y-46147625D01*
X113841816Y-46146968D01*
X113887937Y-46133131D01*
X114050829Y-46084261D01*
X114050834Y-46084259D01*
X114055784Y-46082774D01*
X114256394Y-45984496D01*
X114438260Y-45854773D01*
X114455565Y-45837529D01*
X114566755Y-45726726D01*
X114596496Y-45697089D01*
X114607676Y-45681531D01*
X114726853Y-45515677D01*
X114728176Y-45516628D01*
X114775045Y-45473457D01*
X114844980Y-45461225D01*
X114910426Y-45488744D01*
X114938275Y-45520594D01*
X114998387Y-45618688D01*
X115144650Y-45787538D01*
X115316526Y-45930232D01*
X115509400Y-46042938D01*
X115718092Y-46122630D01*
X115723160Y-46123661D01*
X115723163Y-46123662D01*
X115794281Y-46138131D01*
X115936997Y-46167167D01*
X115942172Y-46167357D01*
X115942174Y-46167357D01*
X116155073Y-46175164D01*
X116155077Y-46175164D01*
X116160237Y-46175353D01*
X116165357Y-46174697D01*
X116165359Y-46174697D01*
X116376688Y-46147625D01*
X116376689Y-46147625D01*
X116381816Y-46146968D01*
X116427937Y-46133131D01*
X116590829Y-46084261D01*
X116590834Y-46084259D01*
X116595784Y-46082774D01*
X116796394Y-45984496D01*
X116978260Y-45854773D01*
X116995565Y-45837529D01*
X117106755Y-45726726D01*
X117136496Y-45697089D01*
X117147676Y-45681531D01*
X117263835Y-45519877D01*
X117266853Y-45515677D01*
X117271145Y-45506994D01*
X117363536Y-45320053D01*
X117363537Y-45320051D01*
X117365830Y-45315411D01*
X117415926Y-45150527D01*
X117429265Y-45106623D01*
X117429265Y-45106621D01*
X117430770Y-45101669D01*
X117459929Y-44880190D01*
X117460343Y-44863240D01*
X117461474Y-44816965D01*
X117461474Y-44816961D01*
X117461556Y-44813600D01*
X117443252Y-44590961D01*
X117388831Y-44374302D01*
X117299754Y-44169440D01*
X117203203Y-44020195D01*
X117181222Y-43986217D01*
X117181220Y-43986214D01*
X117178414Y-43981877D01*
X117028070Y-43816651D01*
X117024019Y-43813452D01*
X117024015Y-43813448D01*
X116856814Y-43681400D01*
X116856810Y-43681398D01*
X116852759Y-43678198D01*
X116839918Y-43671109D01*
X116791023Y-43644118D01*
X116657189Y-43570238D01*
X116652320Y-43568514D01*
X116652316Y-43568512D01*
X116451487Y-43497395D01*
X116451483Y-43497394D01*
X116446612Y-43495669D01*
X116441519Y-43494762D01*
X116441516Y-43494761D01*
X116266279Y-43463547D01*
X116202721Y-43431909D01*
X116166358Y-43370932D01*
X116168735Y-43299975D01*
X116209096Y-43241567D01*
X116274628Y-43214252D01*
X116288375Y-43213500D01*
X121270841Y-43213500D01*
X121338962Y-43233502D01*
X121385455Y-43287158D01*
X121395559Y-43357432D01*
X121366065Y-43422012D01*
X121315071Y-43457482D01*
X121203295Y-43499385D01*
X121086739Y-43586739D01*
X120999385Y-43703295D01*
X120948255Y-43839684D01*
X120941500Y-43901866D01*
X120941500Y-45698134D01*
X120948255Y-45760316D01*
X120999385Y-45896705D01*
X121086739Y-46013261D01*
X121093919Y-46018642D01*
X121106065Y-46027745D01*
X121148580Y-46084604D01*
X121156500Y-46128571D01*
X121156500Y-46844157D01*
X121136498Y-46912278D01*
X121119595Y-46933252D01*
X119683252Y-48369595D01*
X119620940Y-48403621D01*
X119594157Y-48406500D01*
X104086807Y-48406500D01*
X104078566Y-48406230D01*
X104069454Y-48405633D01*
X104013941Y-48401994D01*
X103926043Y-48412398D01*
X103922775Y-48412740D01*
X103834723Y-48420831D01*
X103829157Y-48422401D01*
X103825461Y-48423086D01*
X103814612Y-48425244D01*
X103810976Y-48426017D01*
X103805237Y-48426696D01*
X103720746Y-48452931D01*
X103717610Y-48453860D01*
X103681877Y-48463938D01*
X103632453Y-48477877D01*
X103627265Y-48480435D01*
X103623814Y-48481760D01*
X103613436Y-48485901D01*
X103610049Y-48487304D01*
X103604529Y-48489018D01*
X103599415Y-48491709D01*
X103599414Y-48491709D01*
X103526257Y-48530198D01*
X103523321Y-48531695D01*
X103443965Y-48570829D01*
X103439334Y-48574287D01*
X103436131Y-48576250D01*
X103426744Y-48582173D01*
X103423651Y-48584182D01*
X103418539Y-48586871D01*
X103349046Y-48641656D01*
X103346476Y-48643627D01*
X103280201Y-48693116D01*
X103280194Y-48693123D01*
X103275573Y-48696573D01*
X103271659Y-48700807D01*
X103271657Y-48700809D01*
X103219740Y-48756973D01*
X103216310Y-48760539D01*
X101699902Y-50276947D01*
X101643418Y-50309559D01*
X101585359Y-50325116D01*
X101488193Y-50370425D01*
X101382840Y-50419551D01*
X101382835Y-50419554D01*
X101377853Y-50421877D01*
X101328588Y-50456373D01*
X101194813Y-50550043D01*
X101194810Y-50550045D01*
X101190302Y-50553202D01*
X101028404Y-50715100D01*
X101025247Y-50719608D01*
X101025245Y-50719611D01*
X100991967Y-50767137D01*
X100897079Y-50902651D01*
X100894756Y-50907633D01*
X100894753Y-50907638D01*
X100802641Y-51105175D01*
X100800318Y-51110157D01*
X100798896Y-51115465D01*
X100798895Y-51115467D01*
X100742483Y-51325998D01*
X100741059Y-51331313D01*
X100721104Y-51559400D01*
X100741059Y-51787487D01*
X100742482Y-51792798D01*
X100742484Y-51792809D01*
X100745184Y-51802885D01*
X100743493Y-51873862D01*
X100718305Y-51917730D01*
X100715732Y-51919974D01*
X100680883Y-51969559D01*
X100676972Y-51974825D01*
X100639586Y-52022505D01*
X100636460Y-52029428D01*
X100633343Y-52034575D01*
X100629198Y-52041843D01*
X100626355Y-52047145D01*
X100621985Y-52053363D01*
X100611264Y-52080862D01*
X100599978Y-52109808D01*
X100597423Y-52115886D01*
X100572494Y-52171098D01*
X100571110Y-52178568D01*
X100569323Y-52184270D01*
X100567016Y-52192367D01*
X100565522Y-52198184D01*
X100562762Y-52205263D01*
X100561771Y-52212792D01*
X100561770Y-52212795D01*
X100554854Y-52265329D01*
X100553824Y-52271831D01*
X100542783Y-52331404D01*
X100543220Y-52338984D01*
X100543220Y-52338985D01*
X100546182Y-52390354D01*
X100546391Y-52397607D01*
X100546391Y-52997724D01*
X100526389Y-53065845D01*
X100472733Y-53112338D01*
X100402459Y-53122442D01*
X100340387Y-53094687D01*
X100338902Y-53093202D01*
X100151351Y-52961877D01*
X100146369Y-52959554D01*
X100146364Y-52959551D01*
X99948827Y-52867439D01*
X99948826Y-52867439D01*
X99943845Y-52865116D01*
X99938537Y-52863694D01*
X99938535Y-52863693D01*
X99728004Y-52807281D01*
X99728002Y-52807281D01*
X99722689Y-52805857D01*
X99494602Y-52785902D01*
X99266515Y-52805857D01*
X99261202Y-52807281D01*
X99261200Y-52807281D01*
X99050669Y-52863693D01*
X99050667Y-52863694D01*
X99045359Y-52865116D01*
X99040378Y-52867439D01*
X99040377Y-52867439D01*
X98842840Y-52959551D01*
X98842835Y-52959554D01*
X98837853Y-52961877D01*
X98759157Y-53016981D01*
X98654813Y-53090043D01*
X98654810Y-53090045D01*
X98650302Y-53093202D01*
X98488404Y-53255100D01*
X98485247Y-53259608D01*
X98485245Y-53259611D01*
X98466820Y-53285925D01*
X98357079Y-53442651D01*
X98354756Y-53447633D01*
X98354753Y-53447638D01*
X98279136Y-53609802D01*
X98260318Y-53650157D01*
X98258896Y-53655465D01*
X98258895Y-53655467D01*
X98223863Y-53786207D01*
X98201059Y-53871313D01*
X98181104Y-54099400D01*
X98201059Y-54327487D01*
X98202483Y-54332800D01*
X98202483Y-54332802D01*
X98234906Y-54453803D01*
X98260318Y-54548643D01*
X98262641Y-54553624D01*
X98262641Y-54553625D01*
X98354753Y-54751162D01*
X98354756Y-54751167D01*
X98357079Y-54756149D01*
X98406842Y-54827218D01*
X98480560Y-54932497D01*
X98488404Y-54943700D01*
X98650302Y-55105598D01*
X98654808Y-55108753D01*
X98654813Y-55108757D01*
X98689253Y-55132872D01*
X98837853Y-55236923D01*
X98842835Y-55239246D01*
X98842840Y-55239249D01*
X99010716Y-55317530D01*
X99045359Y-55333684D01*
X99050667Y-55335106D01*
X99050669Y-55335107D01*
X99261200Y-55391519D01*
X99261202Y-55391519D01*
X99266515Y-55392943D01*
X99494602Y-55412898D01*
X99722689Y-55392943D01*
X99728002Y-55391519D01*
X99728004Y-55391519D01*
X99938535Y-55335107D01*
X99938537Y-55335106D01*
X99943845Y-55333684D01*
X99978488Y-55317530D01*
X100146364Y-55239249D01*
X100146369Y-55239246D01*
X100151351Y-55236923D01*
X100338902Y-55105598D01*
X100340370Y-55104130D01*
X100404439Y-55076090D01*
X100474544Y-55087307D01*
X100527456Y-55134644D01*
X100546391Y-55201076D01*
X100546391Y-60928288D01*
X100526389Y-60996409D01*
X100524633Y-60998976D01*
X100520960Y-61003056D01*
X100425473Y-61168444D01*
X100366458Y-61350072D01*
X100346496Y-61540000D01*
X100347186Y-61546565D01*
X100361101Y-61678955D01*
X100366458Y-61729928D01*
X100425473Y-61911556D01*
X100520960Y-62076944D01*
X100525378Y-62081851D01*
X100525379Y-62081852D01*
X100611606Y-62177617D01*
X100648747Y-62218866D01*
X100803248Y-62331118D01*
X100809276Y-62333802D01*
X100809278Y-62333803D01*
X100955860Y-62399065D01*
X100977712Y-62408794D01*
X101047378Y-62423602D01*
X101158056Y-62447128D01*
X101158061Y-62447128D01*
X101164513Y-62448500D01*
X101355487Y-62448500D01*
X101361939Y-62447128D01*
X101361944Y-62447128D01*
X101472622Y-62423602D01*
X101542288Y-62408794D01*
X101564140Y-62399065D01*
X101710722Y-62333803D01*
X101710724Y-62333802D01*
X101716752Y-62331118D01*
X101871253Y-62218866D01*
X101908394Y-62177617D01*
X101994621Y-62081852D01*
X101994622Y-62081851D01*
X101999040Y-62076944D01*
X102094527Y-61911556D01*
X102153542Y-61729928D01*
X102158900Y-61678955D01*
X102172814Y-61546565D01*
X102173504Y-61540000D01*
X102153542Y-61350072D01*
X102094527Y-61168444D01*
X101999040Y-61003056D01*
X101925954Y-60921886D01*
X101895238Y-60857880D01*
X101893591Y-60837577D01*
X101893591Y-59640000D01*
X103546496Y-59640000D01*
X103547186Y-59646565D01*
X103563768Y-59804331D01*
X103566458Y-59829928D01*
X103625473Y-60011556D01*
X103628776Y-60017278D01*
X103628777Y-60017279D01*
X103631768Y-60022460D01*
X103720960Y-60176944D01*
X103725378Y-60181851D01*
X103725379Y-60181852D01*
X103816688Y-60283261D01*
X103848747Y-60318866D01*
X104003248Y-60431118D01*
X104009276Y-60433802D01*
X104009278Y-60433803D01*
X104080258Y-60465405D01*
X104177712Y-60508794D01*
X104271112Y-60528647D01*
X104358056Y-60547128D01*
X104358061Y-60547128D01*
X104364513Y-60548500D01*
X104555487Y-60548500D01*
X104561939Y-60547128D01*
X104561944Y-60547128D01*
X104648888Y-60528647D01*
X104742288Y-60508794D01*
X104839742Y-60465405D01*
X104910722Y-60433803D01*
X104910724Y-60433802D01*
X104916752Y-60431118D01*
X105071253Y-60318866D01*
X105103312Y-60283261D01*
X105194621Y-60181852D01*
X105194622Y-60181851D01*
X105199040Y-60176944D01*
X105288232Y-60022460D01*
X105291223Y-60017279D01*
X105291224Y-60017278D01*
X105294527Y-60011556D01*
X105353542Y-59829928D01*
X105356233Y-59804331D01*
X105372453Y-59650000D01*
X111096496Y-59650000D01*
X111097186Y-59656565D01*
X111112717Y-59804331D01*
X111116458Y-59839928D01*
X111175473Y-60021556D01*
X111178776Y-60027278D01*
X111178777Y-60027279D01*
X111184802Y-60037715D01*
X111270960Y-60186944D01*
X111275378Y-60191851D01*
X111275379Y-60191852D01*
X111357684Y-60283261D01*
X111398747Y-60328866D01*
X111460548Y-60373767D01*
X111534143Y-60427237D01*
X111553248Y-60441118D01*
X111559276Y-60443802D01*
X111559278Y-60443803D01*
X111708333Y-60510166D01*
X111727712Y-60518794D01*
X111821112Y-60538647D01*
X111908056Y-60557128D01*
X111908061Y-60557128D01*
X111914513Y-60558500D01*
X112105487Y-60558500D01*
X112111939Y-60557128D01*
X112111944Y-60557128D01*
X112198888Y-60538647D01*
X112292288Y-60518794D01*
X112311667Y-60510166D01*
X112460722Y-60443803D01*
X112460724Y-60443802D01*
X112466752Y-60441118D01*
X112485858Y-60427237D01*
X112559452Y-60373767D01*
X112621253Y-60328866D01*
X112662316Y-60283261D01*
X112744621Y-60191852D01*
X112744622Y-60191851D01*
X112749040Y-60186944D01*
X112835198Y-60037715D01*
X112841223Y-60027279D01*
X112841224Y-60027278D01*
X112844527Y-60021556D01*
X112903542Y-59839928D01*
X112907284Y-59804331D01*
X112922814Y-59656565D01*
X112923504Y-59650000D01*
X112920701Y-59623333D01*
X112904232Y-59466635D01*
X112904232Y-59466633D01*
X112903542Y-59460072D01*
X112844527Y-59278444D01*
X112838754Y-59268444D01*
X112801180Y-59203365D01*
X112749040Y-59113056D01*
X112714791Y-59075018D01*
X112625675Y-58976045D01*
X112625674Y-58976044D01*
X112621253Y-58971134D01*
X112489334Y-58875289D01*
X112472094Y-58862763D01*
X112472093Y-58862762D01*
X112466752Y-58858882D01*
X112460724Y-58856198D01*
X112460722Y-58856197D01*
X112298319Y-58783891D01*
X112298318Y-58783891D01*
X112292288Y-58781206D01*
X112175934Y-58756474D01*
X112111944Y-58742872D01*
X112111939Y-58742872D01*
X112105487Y-58741500D01*
X111914513Y-58741500D01*
X111908061Y-58742872D01*
X111908056Y-58742872D01*
X111844066Y-58756474D01*
X111727712Y-58781206D01*
X111721682Y-58783891D01*
X111721681Y-58783891D01*
X111559278Y-58856197D01*
X111559276Y-58856198D01*
X111553248Y-58858882D01*
X111547907Y-58862762D01*
X111547906Y-58862763D01*
X111530666Y-58875289D01*
X111398747Y-58971134D01*
X111394326Y-58976044D01*
X111394325Y-58976045D01*
X111305210Y-59075018D01*
X111270960Y-59113056D01*
X111218820Y-59203365D01*
X111181247Y-59268444D01*
X111175473Y-59278444D01*
X111116458Y-59460072D01*
X111115768Y-59466633D01*
X111115768Y-59466635D01*
X111099299Y-59623333D01*
X111096496Y-59650000D01*
X105372453Y-59650000D01*
X105372814Y-59646565D01*
X105373504Y-59640000D01*
X105371752Y-59623333D01*
X105354232Y-59456635D01*
X105354232Y-59456633D01*
X105353542Y-59450072D01*
X105294527Y-59268444D01*
X105199040Y-59103056D01*
X105173795Y-59075018D01*
X105075675Y-58966045D01*
X105075674Y-58966044D01*
X105071253Y-58961134D01*
X104936803Y-58863450D01*
X104922094Y-58852763D01*
X104922093Y-58852762D01*
X104916752Y-58848882D01*
X104910724Y-58846198D01*
X104910722Y-58846197D01*
X104748319Y-58773891D01*
X104748318Y-58773891D01*
X104742288Y-58771206D01*
X104648887Y-58751353D01*
X104561944Y-58732872D01*
X104561939Y-58732872D01*
X104555487Y-58731500D01*
X104364513Y-58731500D01*
X104358061Y-58732872D01*
X104358056Y-58732872D01*
X104271113Y-58751353D01*
X104177712Y-58771206D01*
X104171682Y-58773891D01*
X104171681Y-58773891D01*
X104009278Y-58846197D01*
X104009276Y-58846198D01*
X104003248Y-58848882D01*
X103997907Y-58852762D01*
X103997906Y-58852763D01*
X103983197Y-58863450D01*
X103848747Y-58961134D01*
X103844326Y-58966044D01*
X103844325Y-58966045D01*
X103746206Y-59075018D01*
X103720960Y-59103056D01*
X103625473Y-59268444D01*
X103566458Y-59450072D01*
X103565768Y-59456633D01*
X103565768Y-59456635D01*
X103548248Y-59623333D01*
X103546496Y-59640000D01*
X101893591Y-59640000D01*
X101893591Y-52998067D01*
X101913593Y-52929946D01*
X101967249Y-52883453D01*
X102023620Y-52873740D01*
X102023620Y-52872419D01*
X102029127Y-52872419D01*
X102034602Y-52872898D01*
X102262689Y-52852943D01*
X102268002Y-52851519D01*
X102268004Y-52851519D01*
X102478535Y-52795107D01*
X102478537Y-52795106D01*
X102483845Y-52793684D01*
X102488827Y-52791361D01*
X102686364Y-52699249D01*
X102686369Y-52699246D01*
X102691351Y-52696923D01*
X102839767Y-52593001D01*
X102874391Y-52568757D01*
X102874394Y-52568755D01*
X102878902Y-52565598D01*
X103040800Y-52403700D01*
X103045067Y-52397607D01*
X103128435Y-52278545D01*
X103172125Y-52216149D01*
X103174448Y-52211167D01*
X103174451Y-52211162D01*
X103190407Y-52176943D01*
X103237324Y-52123658D01*
X103305601Y-52104197D01*
X103373561Y-52124739D01*
X103418797Y-52176943D01*
X103434753Y-52211162D01*
X103434756Y-52211167D01*
X103437079Y-52216149D01*
X103480769Y-52278545D01*
X103564138Y-52397607D01*
X103568404Y-52403700D01*
X103730302Y-52565598D01*
X103734810Y-52568755D01*
X103734813Y-52568757D01*
X103769437Y-52593001D01*
X103917853Y-52696923D01*
X103922835Y-52699246D01*
X103922840Y-52699249D01*
X104120377Y-52791361D01*
X104125359Y-52793684D01*
X104130667Y-52795106D01*
X104130669Y-52795107D01*
X104341200Y-52851519D01*
X104341202Y-52851519D01*
X104346515Y-52852943D01*
X104574602Y-52872898D01*
X104802689Y-52852943D01*
X104808002Y-52851519D01*
X104808004Y-52851519D01*
X105018535Y-52795107D01*
X105018537Y-52795106D01*
X105023845Y-52793684D01*
X105028827Y-52791361D01*
X105226364Y-52699249D01*
X105226369Y-52699246D01*
X105231351Y-52696923D01*
X105379767Y-52593001D01*
X105414391Y-52568757D01*
X105414394Y-52568755D01*
X105418902Y-52565598D01*
X105580800Y-52403700D01*
X105585067Y-52397607D01*
X105668435Y-52278545D01*
X105712125Y-52216149D01*
X105714448Y-52211167D01*
X105714451Y-52211162D01*
X105730407Y-52176943D01*
X105777324Y-52123658D01*
X105845601Y-52104197D01*
X105913561Y-52124739D01*
X105958797Y-52176943D01*
X105974753Y-52211162D01*
X105974756Y-52211167D01*
X105977079Y-52216149D01*
X106020769Y-52278545D01*
X106104138Y-52397607D01*
X106108404Y-52403700D01*
X106270302Y-52565598D01*
X106274810Y-52568755D01*
X106274813Y-52568757D01*
X106309437Y-52593001D01*
X106457853Y-52696923D01*
X106462835Y-52699246D01*
X106462840Y-52699249D01*
X106660377Y-52791361D01*
X106665359Y-52793684D01*
X106670667Y-52795106D01*
X106670669Y-52795107D01*
X106881200Y-52851519D01*
X106881202Y-52851519D01*
X106886515Y-52852943D01*
X107114602Y-52872898D01*
X107342689Y-52852943D01*
X107348002Y-52851519D01*
X107348004Y-52851519D01*
X107558535Y-52795107D01*
X107558537Y-52795106D01*
X107563845Y-52793684D01*
X107568827Y-52791361D01*
X107766364Y-52699249D01*
X107766369Y-52699246D01*
X107771351Y-52696923D01*
X107919767Y-52593001D01*
X107954391Y-52568757D01*
X107954394Y-52568755D01*
X107958902Y-52565598D01*
X108120800Y-52403700D01*
X108125067Y-52397607D01*
X108208435Y-52278545D01*
X108252125Y-52216149D01*
X108254448Y-52211167D01*
X108254451Y-52211162D01*
X108270407Y-52176943D01*
X108317324Y-52123658D01*
X108385601Y-52104197D01*
X108453561Y-52124739D01*
X108498797Y-52176943D01*
X108514753Y-52211162D01*
X108514756Y-52211167D01*
X108517079Y-52216149D01*
X108560769Y-52278545D01*
X108644138Y-52397607D01*
X108648404Y-52403700D01*
X108810302Y-52565598D01*
X108814810Y-52568755D01*
X108814813Y-52568757D01*
X108849437Y-52593001D01*
X108997853Y-52696923D01*
X109002835Y-52699246D01*
X109002840Y-52699249D01*
X109200377Y-52791361D01*
X109205359Y-52793684D01*
X109210667Y-52795106D01*
X109210669Y-52795107D01*
X109421200Y-52851519D01*
X109421202Y-52851519D01*
X109426515Y-52852943D01*
X109654602Y-52872898D01*
X109882689Y-52852943D01*
X109888000Y-52851520D01*
X109888011Y-52851518D01*
X109901420Y-52847925D01*
X109972397Y-52849616D01*
X110023124Y-52880537D01*
X113299495Y-56156907D01*
X113333521Y-56219219D01*
X113336400Y-56246002D01*
X113336400Y-60862010D01*
X113316398Y-60930131D01*
X113304037Y-60946320D01*
X113281189Y-60971696D01*
X113270960Y-60983056D01*
X113267658Y-60988775D01*
X113267656Y-60988778D01*
X113193282Y-61117598D01*
X113175473Y-61148444D01*
X113116458Y-61330072D01*
X113096496Y-61520000D01*
X113097186Y-61526565D01*
X113113372Y-61680562D01*
X113116458Y-61709928D01*
X113175473Y-61891556D01*
X113178776Y-61897278D01*
X113178777Y-61897279D01*
X113193568Y-61922897D01*
X113270960Y-62056944D01*
X113275378Y-62061851D01*
X113275379Y-62061852D01*
X113379614Y-62177617D01*
X113398747Y-62198866D01*
X113553248Y-62311118D01*
X113559276Y-62313802D01*
X113559278Y-62313803D01*
X113721681Y-62386109D01*
X113727712Y-62388794D01*
X113821112Y-62408647D01*
X113908056Y-62427128D01*
X113908061Y-62427128D01*
X113914513Y-62428500D01*
X114105487Y-62428500D01*
X114111939Y-62427128D01*
X114111944Y-62427128D01*
X114198888Y-62408647D01*
X114292288Y-62388794D01*
X114298319Y-62386109D01*
X114460722Y-62313803D01*
X114460724Y-62313802D01*
X114466752Y-62311118D01*
X114621253Y-62198866D01*
X114640386Y-62177617D01*
X114744621Y-62061852D01*
X114744622Y-62061851D01*
X114749040Y-62056944D01*
X114826432Y-61922897D01*
X114841223Y-61897279D01*
X114841224Y-61897278D01*
X114844527Y-61891556D01*
X114903542Y-61709928D01*
X114906629Y-61680562D01*
X114922814Y-61526565D01*
X114923504Y-61520000D01*
X114903542Y-61330072D01*
X114844527Y-61148444D01*
X114826718Y-61117598D01*
X114752344Y-60988778D01*
X114752342Y-60988775D01*
X114749040Y-60983056D01*
X114738812Y-60971696D01*
X114715963Y-60946320D01*
X114685246Y-60882312D01*
X114683600Y-60862010D01*
X114683600Y-55942507D01*
X114683892Y-55933936D01*
X114684352Y-55927184D01*
X114687618Y-55879286D01*
X114677196Y-55819573D01*
X114676234Y-55813051D01*
X114668960Y-55752942D01*
X114666272Y-55745830D01*
X114664833Y-55739969D01*
X114662621Y-55731883D01*
X114660893Y-55726159D01*
X114659587Y-55718676D01*
X114635217Y-55663162D01*
X114632751Y-55657119D01*
X114611331Y-55600430D01*
X114607027Y-55594168D01*
X114604264Y-55588883D01*
X114600164Y-55581515D01*
X114597109Y-55576349D01*
X114594054Y-55569390D01*
X114557175Y-55521328D01*
X114553300Y-55515994D01*
X114523291Y-55472329D01*
X114523285Y-55472322D01*
X114518986Y-55466067D01*
X114474890Y-55426779D01*
X114469614Y-55421797D01*
X113304548Y-54256731D01*
X112133814Y-53085998D01*
X112099789Y-53023686D01*
X112104853Y-52952871D01*
X112147400Y-52896035D01*
X112211927Y-52871382D01*
X112283551Y-52865116D01*
X112417208Y-52853423D01*
X112417213Y-52853422D01*
X112422689Y-52852943D01*
X112428002Y-52851519D01*
X112428004Y-52851519D01*
X112638535Y-52795107D01*
X112638537Y-52795106D01*
X112643845Y-52793684D01*
X112648827Y-52791361D01*
X112846364Y-52699249D01*
X112846369Y-52699246D01*
X112851351Y-52696923D01*
X112999767Y-52593001D01*
X113034391Y-52568757D01*
X113034394Y-52568755D01*
X113038902Y-52565598D01*
X113200800Y-52403700D01*
X113205067Y-52397607D01*
X113288435Y-52278545D01*
X113332125Y-52216149D01*
X113334448Y-52211167D01*
X113334451Y-52211162D01*
X113350407Y-52176943D01*
X113397324Y-52123658D01*
X113465601Y-52104197D01*
X113533561Y-52124739D01*
X113578797Y-52176943D01*
X113594753Y-52211162D01*
X113594756Y-52211167D01*
X113597079Y-52216149D01*
X113640769Y-52278545D01*
X113724138Y-52397607D01*
X113728404Y-52403700D01*
X113890302Y-52565598D01*
X113894810Y-52568755D01*
X113894813Y-52568757D01*
X113929437Y-52593001D01*
X114077853Y-52696923D01*
X114082835Y-52699246D01*
X114082840Y-52699249D01*
X114280377Y-52791361D01*
X114285359Y-52793684D01*
X114290667Y-52795106D01*
X114290669Y-52795107D01*
X114501200Y-52851519D01*
X114501202Y-52851519D01*
X114506515Y-52852943D01*
X114734602Y-52872898D01*
X114962689Y-52852943D01*
X114968002Y-52851519D01*
X114968004Y-52851519D01*
X115178535Y-52795107D01*
X115178537Y-52795106D01*
X115183845Y-52793684D01*
X115188827Y-52791361D01*
X115386364Y-52699249D01*
X115386369Y-52699246D01*
X115391351Y-52696923D01*
X115539767Y-52593001D01*
X115574391Y-52568757D01*
X115574394Y-52568755D01*
X115578902Y-52565598D01*
X115740800Y-52403700D01*
X115745067Y-52397607D01*
X115828435Y-52278545D01*
X115872125Y-52216149D01*
X115874448Y-52211167D01*
X115874451Y-52211162D01*
X115890407Y-52176943D01*
X115937324Y-52123658D01*
X116005601Y-52104197D01*
X116073561Y-52124739D01*
X116118797Y-52176943D01*
X116134753Y-52211162D01*
X116134756Y-52211167D01*
X116137079Y-52216149D01*
X116180769Y-52278545D01*
X116264138Y-52397607D01*
X116268404Y-52403700D01*
X116430302Y-52565598D01*
X116434810Y-52568755D01*
X116434813Y-52568757D01*
X116469437Y-52593001D01*
X116617853Y-52696923D01*
X116622835Y-52699246D01*
X116622840Y-52699249D01*
X116820377Y-52791361D01*
X116825359Y-52793684D01*
X116830667Y-52795106D01*
X116830669Y-52795107D01*
X117041200Y-52851519D01*
X117041202Y-52851519D01*
X117046515Y-52852943D01*
X117274602Y-52872898D01*
X117502689Y-52852943D01*
X117508002Y-52851519D01*
X117508004Y-52851519D01*
X117718535Y-52795107D01*
X117718537Y-52795106D01*
X117723845Y-52793684D01*
X117728827Y-52791361D01*
X117926364Y-52699249D01*
X117926369Y-52699246D01*
X117931351Y-52696923D01*
X118079767Y-52593001D01*
X118114391Y-52568757D01*
X118114394Y-52568755D01*
X118118902Y-52565598D01*
X118280800Y-52403700D01*
X118285067Y-52397607D01*
X118368435Y-52278545D01*
X118412125Y-52216149D01*
X118414448Y-52211167D01*
X118414451Y-52211162D01*
X118430407Y-52176943D01*
X118477324Y-52123658D01*
X118545601Y-52104197D01*
X118613561Y-52124739D01*
X118658797Y-52176943D01*
X118674753Y-52211162D01*
X118674756Y-52211167D01*
X118677079Y-52216149D01*
X118720769Y-52278545D01*
X118804138Y-52397607D01*
X118808404Y-52403700D01*
X118970302Y-52565598D01*
X118974810Y-52568755D01*
X118974813Y-52568757D01*
X119009437Y-52593001D01*
X119157853Y-52696923D01*
X119162835Y-52699246D01*
X119162840Y-52699249D01*
X119360377Y-52791361D01*
X119365359Y-52793684D01*
X119370667Y-52795106D01*
X119370669Y-52795107D01*
X119581200Y-52851519D01*
X119581202Y-52851519D01*
X119586515Y-52852943D01*
X119814602Y-52872898D01*
X120042689Y-52852943D01*
X120048002Y-52851519D01*
X120048004Y-52851519D01*
X120258535Y-52795107D01*
X120258537Y-52795106D01*
X120263845Y-52793684D01*
X120268827Y-52791361D01*
X120466364Y-52699249D01*
X120466369Y-52699246D01*
X120471351Y-52696923D01*
X120619767Y-52593001D01*
X120654391Y-52568757D01*
X120654394Y-52568755D01*
X120658902Y-52565598D01*
X120820800Y-52403700D01*
X120825067Y-52397607D01*
X120908435Y-52278545D01*
X120952125Y-52216149D01*
X120954448Y-52211167D01*
X120954451Y-52211162D01*
X120970407Y-52176943D01*
X121017324Y-52123658D01*
X121085601Y-52104197D01*
X121153561Y-52124739D01*
X121198797Y-52176943D01*
X121214753Y-52211162D01*
X121214756Y-52211167D01*
X121217079Y-52216149D01*
X121260769Y-52278545D01*
X121344138Y-52397607D01*
X121348404Y-52403700D01*
X121510302Y-52565598D01*
X121514810Y-52568755D01*
X121514813Y-52568757D01*
X121549437Y-52593001D01*
X121697853Y-52696923D01*
X121702835Y-52699246D01*
X121702840Y-52699249D01*
X121737059Y-52715205D01*
X121790344Y-52762122D01*
X121809805Y-52830399D01*
X121789263Y-52898359D01*
X121737059Y-52943595D01*
X121702840Y-52959551D01*
X121702835Y-52959554D01*
X121697853Y-52961877D01*
X121619157Y-53016981D01*
X121514813Y-53090043D01*
X121514810Y-53090045D01*
X121510302Y-53093202D01*
X121348404Y-53255100D01*
X121345247Y-53259608D01*
X121345245Y-53259611D01*
X121326820Y-53285925D01*
X121217079Y-53442651D01*
X121214756Y-53447633D01*
X121214753Y-53447638D01*
X121139136Y-53609802D01*
X121120318Y-53650157D01*
X121118896Y-53655465D01*
X121118895Y-53655467D01*
X121083863Y-53786207D01*
X121061059Y-53871313D01*
X121041104Y-54099400D01*
X121061059Y-54327487D01*
X121062483Y-54332800D01*
X121062483Y-54332802D01*
X121094906Y-54453803D01*
X121120318Y-54548643D01*
X121122641Y-54553624D01*
X121122641Y-54553625D01*
X121214753Y-54751162D01*
X121214756Y-54751167D01*
X121217079Y-54756149D01*
X121266842Y-54827218D01*
X121340560Y-54932497D01*
X121348404Y-54943700D01*
X121510302Y-55105598D01*
X121514808Y-55108753D01*
X121514813Y-55108757D01*
X121549253Y-55132872D01*
X121697853Y-55236923D01*
X121702835Y-55239246D01*
X121702840Y-55239249D01*
X121737059Y-55255205D01*
X121790344Y-55302122D01*
X121809805Y-55370399D01*
X121789263Y-55438359D01*
X121737059Y-55483595D01*
X121702840Y-55499551D01*
X121702835Y-55499554D01*
X121697853Y-55501877D01*
X121601435Y-55569390D01*
X121514813Y-55630043D01*
X121514810Y-55630045D01*
X121510302Y-55633202D01*
X121348404Y-55795100D01*
X121345247Y-55799608D01*
X121345245Y-55799611D01*
X121294692Y-55871808D01*
X121217079Y-55982651D01*
X121214756Y-55987633D01*
X121214753Y-55987638D01*
X121131960Y-56165191D01*
X121120318Y-56190157D01*
X121061059Y-56411313D01*
X121041104Y-56639400D01*
X121061059Y-56867487D01*
X121062483Y-56872800D01*
X121062483Y-56872802D01*
X121107841Y-57042077D01*
X121120318Y-57088643D01*
X121122641Y-57093624D01*
X121122641Y-57093625D01*
X121214753Y-57291162D01*
X121214756Y-57291167D01*
X121217079Y-57296149D01*
X121276614Y-57381173D01*
X121329451Y-57456632D01*
X121348404Y-57483700D01*
X121510302Y-57645598D01*
X121514810Y-57648755D01*
X121514813Y-57648757D01*
X121578809Y-57693567D01*
X121697853Y-57776923D01*
X121702835Y-57779246D01*
X121702840Y-57779249D01*
X121737059Y-57795205D01*
X121790344Y-57842122D01*
X121809805Y-57910399D01*
X121789263Y-57978359D01*
X121737059Y-58023595D01*
X121702840Y-58039551D01*
X121702835Y-58039554D01*
X121697853Y-58041877D01*
X121653332Y-58073051D01*
X121514813Y-58170043D01*
X121514810Y-58170045D01*
X121510302Y-58173202D01*
X121348404Y-58335100D01*
X121217079Y-58522651D01*
X121214756Y-58527633D01*
X121214753Y-58527638D01*
X121188699Y-58583512D01*
X121120318Y-58730157D01*
X121118896Y-58735465D01*
X121118895Y-58735467D01*
X121066832Y-58929769D01*
X121061059Y-58951313D01*
X121041104Y-59179400D01*
X121061059Y-59407487D01*
X121062482Y-59412798D01*
X121062484Y-59412809D01*
X121066077Y-59426218D01*
X121064386Y-59497195D01*
X121033465Y-59547922D01*
X119983291Y-60598097D01*
X119977026Y-60603950D01*
X119935741Y-60639965D01*
X119900892Y-60689550D01*
X119896981Y-60694816D01*
X119859595Y-60742496D01*
X119856469Y-60749419D01*
X119853352Y-60754566D01*
X119849207Y-60761834D01*
X119846364Y-60767136D01*
X119841994Y-60773354D01*
X119825948Y-60814510D01*
X119819987Y-60829799D01*
X119817431Y-60835879D01*
X119805633Y-60862010D01*
X119792503Y-60891089D01*
X119791119Y-60898559D01*
X119789332Y-60904261D01*
X119787025Y-60912358D01*
X119785531Y-60918175D01*
X119782771Y-60925254D01*
X119781780Y-60932783D01*
X119781779Y-60932786D01*
X119774863Y-60985320D01*
X119773833Y-60991822D01*
X119762792Y-61051395D01*
X119763229Y-61058975D01*
X119763229Y-61058976D01*
X119766191Y-61110345D01*
X119766400Y-61117598D01*
X119766400Y-62981804D01*
X119766398Y-62982464D01*
X119765950Y-63067990D01*
X119767722Y-63075372D01*
X119767723Y-63075378D01*
X119774218Y-63102431D01*
X119776784Y-63116690D01*
X119781040Y-63151856D01*
X119783724Y-63158959D01*
X119792070Y-63181046D01*
X119796723Y-63196170D01*
X119804010Y-63226523D01*
X119807494Y-63233273D01*
X119807495Y-63233276D01*
X119820254Y-63257997D01*
X119826150Y-63271239D01*
X119838669Y-63304368D01*
X119842968Y-63310623D01*
X119842970Y-63310627D01*
X119856350Y-63330094D01*
X119864467Y-63343656D01*
X119878787Y-63371400D01*
X119896807Y-63392057D01*
X119902069Y-63398090D01*
X119910955Y-63409546D01*
X119931014Y-63438731D01*
X119936682Y-63443781D01*
X119936683Y-63443782D01*
X119954317Y-63459493D01*
X119965447Y-63470741D01*
X119985963Y-63494259D01*
X119992181Y-63498629D01*
X120014934Y-63514620D01*
X120026303Y-63523630D01*
X120052744Y-63547188D01*
X120059455Y-63550741D01*
X120059456Y-63550742D01*
X120080319Y-63561788D01*
X120093812Y-63570056D01*
X120113135Y-63583637D01*
X120113137Y-63583638D01*
X120119352Y-63588006D01*
X120152362Y-63600876D01*
X120165530Y-63606905D01*
X120196831Y-63623478D01*
X120204193Y-63625327D01*
X120204200Y-63625330D01*
X120227102Y-63631083D01*
X120242171Y-63635892D01*
X120261539Y-63643442D01*
X120271252Y-63647229D01*
X120278781Y-63648220D01*
X120278784Y-63648221D01*
X120297668Y-63650707D01*
X120306364Y-63651852D01*
X120320603Y-63654567D01*
X120354956Y-63663196D01*
X120362554Y-63663236D01*
X120362556Y-63663236D01*
X120393114Y-63663396D01*
X120394393Y-63663441D01*
X120395600Y-63663600D01*
X120431804Y-63663600D01*
X120432464Y-63663602D01*
X120513777Y-63664028D01*
X120513778Y-63664028D01*
X120517990Y-63664050D01*
X120519442Y-63663701D01*
X120521201Y-63663600D01*
X120995381Y-63663600D01*
X121063502Y-63683602D01*
X121109995Y-63737258D01*
X121120099Y-63807532D01*
X121117088Y-63822211D01*
X121090067Y-63923056D01*
X121061059Y-64031313D01*
X121041104Y-64259400D01*
X121061059Y-64487487D01*
X121062483Y-64492800D01*
X121062483Y-64492802D01*
X121117857Y-64699457D01*
X121120318Y-64708643D01*
X121122641Y-64713624D01*
X121122641Y-64713625D01*
X121214753Y-64911162D01*
X121214756Y-64911167D01*
X121217079Y-64916149D01*
X121264144Y-64983365D01*
X121342804Y-65095702D01*
X121348404Y-65103700D01*
X121510302Y-65265598D01*
X121514810Y-65268755D01*
X121514813Y-65268757D01*
X121537422Y-65284588D01*
X121697853Y-65396923D01*
X121737061Y-65415206D01*
X121790345Y-65462122D01*
X121809806Y-65530399D01*
X121789264Y-65598359D01*
X121737059Y-65643595D01*
X121702844Y-65659549D01*
X121702841Y-65659551D01*
X121697853Y-65661877D01*
X121652784Y-65693435D01*
X121514813Y-65790043D01*
X121514810Y-65790045D01*
X121510302Y-65793202D01*
X121348404Y-65955100D01*
X121217079Y-66142651D01*
X121214756Y-66147633D01*
X121214753Y-66147638D01*
X121198797Y-66181857D01*
X121151880Y-66235142D01*
X121083603Y-66254603D01*
X121015643Y-66234061D01*
X120970407Y-66181857D01*
X120954451Y-66147638D01*
X120954448Y-66147633D01*
X120952125Y-66142651D01*
X120820800Y-65955100D01*
X120658902Y-65793202D01*
X120654394Y-65790045D01*
X120654391Y-65790043D01*
X120516420Y-65693435D01*
X120471351Y-65661877D01*
X120466369Y-65659554D01*
X120466364Y-65659551D01*
X120268827Y-65567439D01*
X120268826Y-65567439D01*
X120263845Y-65565116D01*
X120258537Y-65563694D01*
X120258535Y-65563693D01*
X120048004Y-65507281D01*
X120048002Y-65507281D01*
X120042689Y-65505857D01*
X119814602Y-65485902D01*
X119586515Y-65505857D01*
X119581202Y-65507281D01*
X119581200Y-65507281D01*
X119370669Y-65563693D01*
X119370667Y-65563694D01*
X119365359Y-65565116D01*
X119360378Y-65567439D01*
X119360377Y-65567439D01*
X119162840Y-65659551D01*
X119162835Y-65659554D01*
X119157853Y-65661877D01*
X119112784Y-65693435D01*
X118974813Y-65790043D01*
X118974810Y-65790045D01*
X118970302Y-65793202D01*
X118808404Y-65955100D01*
X118677079Y-66142651D01*
X118674756Y-66147633D01*
X118674753Y-66147638D01*
X118658797Y-66181857D01*
X118611880Y-66235142D01*
X118543603Y-66254603D01*
X118475643Y-66234061D01*
X118430407Y-66181857D01*
X118414451Y-66147638D01*
X118414448Y-66147633D01*
X118412125Y-66142651D01*
X118280800Y-65955100D01*
X118118902Y-65793202D01*
X118114394Y-65790045D01*
X118114391Y-65790043D01*
X117976420Y-65693435D01*
X117931351Y-65661877D01*
X117926369Y-65659554D01*
X117926364Y-65659551D01*
X117728827Y-65567439D01*
X117728826Y-65567439D01*
X117723845Y-65565116D01*
X117718537Y-65563694D01*
X117718535Y-65563693D01*
X117508004Y-65507281D01*
X117508002Y-65507281D01*
X117502689Y-65505857D01*
X117274602Y-65485902D01*
X117046515Y-65505857D01*
X117041202Y-65507281D01*
X117041200Y-65507281D01*
X116830669Y-65563693D01*
X116830667Y-65563694D01*
X116825359Y-65565116D01*
X116820378Y-65567439D01*
X116820377Y-65567439D01*
X116622840Y-65659551D01*
X116622835Y-65659554D01*
X116617853Y-65661877D01*
X116572784Y-65693435D01*
X116434813Y-65790043D01*
X116434810Y-65790045D01*
X116430302Y-65793202D01*
X116268404Y-65955100D01*
X116137079Y-66142651D01*
X116134756Y-66147633D01*
X116134753Y-66147638D01*
X116118797Y-66181857D01*
X116071880Y-66235142D01*
X116003603Y-66254603D01*
X115935643Y-66234061D01*
X115890407Y-66181857D01*
X115874451Y-66147638D01*
X115874448Y-66147633D01*
X115872125Y-66142651D01*
X115740800Y-65955100D01*
X115578902Y-65793202D01*
X115574394Y-65790045D01*
X115574391Y-65790043D01*
X115436420Y-65693435D01*
X115391351Y-65661877D01*
X115386369Y-65659554D01*
X115386364Y-65659551D01*
X115188827Y-65567439D01*
X115188826Y-65567439D01*
X115183845Y-65565116D01*
X115178537Y-65563694D01*
X115178535Y-65563693D01*
X114968004Y-65507281D01*
X114968002Y-65507281D01*
X114962689Y-65505857D01*
X114734602Y-65485902D01*
X114506515Y-65505857D01*
X114501202Y-65507281D01*
X114501200Y-65507281D01*
X114290669Y-65563693D01*
X114290667Y-65563694D01*
X114285359Y-65565116D01*
X114280378Y-65567439D01*
X114280377Y-65567439D01*
X114082840Y-65659551D01*
X114082835Y-65659554D01*
X114077853Y-65661877D01*
X114032784Y-65693435D01*
X113894813Y-65790043D01*
X113894810Y-65790045D01*
X113890302Y-65793202D01*
X113728404Y-65955100D01*
X113597079Y-66142651D01*
X113594756Y-66147633D01*
X113594753Y-66147638D01*
X113578797Y-66181857D01*
X113531880Y-66235142D01*
X113463603Y-66254603D01*
X113395643Y-66234061D01*
X113350407Y-66181857D01*
X113334451Y-66147638D01*
X113334448Y-66147633D01*
X113332125Y-66142651D01*
X113200800Y-65955100D01*
X113038902Y-65793202D01*
X113034394Y-65790045D01*
X113034391Y-65790043D01*
X112896420Y-65693435D01*
X112851351Y-65661877D01*
X112846369Y-65659554D01*
X112846364Y-65659551D01*
X112648827Y-65567439D01*
X112648826Y-65567439D01*
X112643845Y-65565116D01*
X112638537Y-65563694D01*
X112638535Y-65563693D01*
X112428004Y-65507281D01*
X112428002Y-65507281D01*
X112422689Y-65505857D01*
X112194602Y-65485902D01*
X111966515Y-65505857D01*
X111961202Y-65507281D01*
X111961200Y-65507281D01*
X111750669Y-65563693D01*
X111750667Y-65563694D01*
X111745359Y-65565116D01*
X111740378Y-65567439D01*
X111740377Y-65567439D01*
X111542840Y-65659551D01*
X111542835Y-65659554D01*
X111537853Y-65661877D01*
X111492784Y-65693435D01*
X111354813Y-65790043D01*
X111354810Y-65790045D01*
X111350302Y-65793202D01*
X111188404Y-65955100D01*
X111057079Y-66142651D01*
X111054756Y-66147633D01*
X111054753Y-66147638D01*
X111038797Y-66181857D01*
X110991880Y-66235142D01*
X110923603Y-66254603D01*
X110855643Y-66234061D01*
X110810407Y-66181857D01*
X110794451Y-66147638D01*
X110794448Y-66147633D01*
X110792125Y-66142651D01*
X110660800Y-65955100D01*
X110498902Y-65793202D01*
X110494394Y-65790045D01*
X110494391Y-65790043D01*
X110356420Y-65693435D01*
X110311351Y-65661877D01*
X110306369Y-65659554D01*
X110306364Y-65659551D01*
X110108827Y-65567439D01*
X110108826Y-65567439D01*
X110103845Y-65565116D01*
X110098537Y-65563694D01*
X110098535Y-65563693D01*
X109888004Y-65507281D01*
X109888002Y-65507281D01*
X109882689Y-65505857D01*
X109654602Y-65485902D01*
X109426515Y-65505857D01*
X109421202Y-65507281D01*
X109421200Y-65507281D01*
X109210669Y-65563693D01*
X109210667Y-65563694D01*
X109205359Y-65565116D01*
X109200378Y-65567439D01*
X109200377Y-65567439D01*
X109002840Y-65659551D01*
X109002835Y-65659554D01*
X108997853Y-65661877D01*
X108952784Y-65693435D01*
X108814813Y-65790043D01*
X108814810Y-65790045D01*
X108810302Y-65793202D01*
X108648404Y-65955100D01*
X108517079Y-66142651D01*
X108514756Y-66147633D01*
X108514753Y-66147638D01*
X108498797Y-66181857D01*
X108451880Y-66235142D01*
X108383603Y-66254603D01*
X108315643Y-66234061D01*
X108270407Y-66181857D01*
X108254451Y-66147638D01*
X108254448Y-66147633D01*
X108252125Y-66142651D01*
X108120800Y-65955100D01*
X107958902Y-65793202D01*
X107954394Y-65790045D01*
X107954391Y-65790043D01*
X107816420Y-65693435D01*
X107771351Y-65661877D01*
X107766369Y-65659554D01*
X107766364Y-65659551D01*
X107568827Y-65567439D01*
X107568826Y-65567439D01*
X107563845Y-65565116D01*
X107558537Y-65563694D01*
X107558535Y-65563693D01*
X107348004Y-65507281D01*
X107348002Y-65507281D01*
X107342689Y-65505857D01*
X107114602Y-65485902D01*
X106886515Y-65505857D01*
X106881202Y-65507281D01*
X106881200Y-65507281D01*
X106670669Y-65563693D01*
X106670667Y-65563694D01*
X106665359Y-65565116D01*
X106660378Y-65567439D01*
X106660377Y-65567439D01*
X106462840Y-65659551D01*
X106462835Y-65659554D01*
X106457853Y-65661877D01*
X106412784Y-65693435D01*
X106274813Y-65790043D01*
X106274810Y-65790045D01*
X106270302Y-65793202D01*
X106108404Y-65955100D01*
X105977079Y-66142651D01*
X105974756Y-66147633D01*
X105974753Y-66147638D01*
X105958797Y-66181857D01*
X105911880Y-66235142D01*
X105843603Y-66254603D01*
X105775643Y-66234061D01*
X105730407Y-66181857D01*
X105714451Y-66147638D01*
X105714448Y-66147633D01*
X105712125Y-66142651D01*
X105580800Y-65955100D01*
X105418902Y-65793202D01*
X105414394Y-65790045D01*
X105414391Y-65790043D01*
X105276420Y-65693435D01*
X105231351Y-65661877D01*
X105226369Y-65659554D01*
X105226364Y-65659551D01*
X105028827Y-65567439D01*
X105028826Y-65567439D01*
X105023845Y-65565116D01*
X105018537Y-65563694D01*
X105018535Y-65563693D01*
X104808004Y-65507281D01*
X104808002Y-65507281D01*
X104802689Y-65505857D01*
X104574602Y-65485902D01*
X104346515Y-65505857D01*
X104341202Y-65507281D01*
X104341200Y-65507281D01*
X104130669Y-65563693D01*
X104130667Y-65563694D01*
X104125359Y-65565116D01*
X104120378Y-65567439D01*
X104120377Y-65567439D01*
X103922840Y-65659551D01*
X103922835Y-65659554D01*
X103917853Y-65661877D01*
X103872784Y-65693435D01*
X103734813Y-65790043D01*
X103734810Y-65790045D01*
X103730302Y-65793202D01*
X103568404Y-65955100D01*
X103437079Y-66142651D01*
X103434756Y-66147633D01*
X103434753Y-66147638D01*
X103418797Y-66181857D01*
X103371880Y-66235142D01*
X103303603Y-66254603D01*
X103235643Y-66234061D01*
X103190407Y-66181857D01*
X103174451Y-66147638D01*
X103174448Y-66147633D01*
X103172125Y-66142651D01*
X103040800Y-65955100D01*
X102878902Y-65793202D01*
X102874394Y-65790045D01*
X102874391Y-65790043D01*
X102736420Y-65693435D01*
X102691351Y-65661877D01*
X102686369Y-65659554D01*
X102686364Y-65659551D01*
X102488827Y-65567439D01*
X102488826Y-65567439D01*
X102483845Y-65565116D01*
X102478537Y-65563694D01*
X102478535Y-65563693D01*
X102268004Y-65507281D01*
X102268002Y-65507281D01*
X102262689Y-65505857D01*
X102034602Y-65485902D01*
X101806515Y-65505857D01*
X101801202Y-65507281D01*
X101801200Y-65507281D01*
X101590669Y-65563693D01*
X101590667Y-65563694D01*
X101585359Y-65565116D01*
X101580378Y-65567439D01*
X101580377Y-65567439D01*
X101382840Y-65659551D01*
X101382835Y-65659554D01*
X101377853Y-65661877D01*
X101332784Y-65693435D01*
X101194813Y-65790043D01*
X101194810Y-65790045D01*
X101190302Y-65793202D01*
X101028404Y-65955100D01*
X100897079Y-66142651D01*
X100894756Y-66147633D01*
X100894753Y-66147638D01*
X100878797Y-66181857D01*
X100831880Y-66235142D01*
X100763603Y-66254603D01*
X100695643Y-66234061D01*
X100650407Y-66181857D01*
X100634451Y-66147638D01*
X100634448Y-66147633D01*
X100632125Y-66142651D01*
X100500800Y-65955100D01*
X100338902Y-65793202D01*
X100334394Y-65790045D01*
X100334391Y-65790043D01*
X100196420Y-65693435D01*
X100151351Y-65661877D01*
X100146369Y-65659554D01*
X100146364Y-65659551D01*
X99948827Y-65567439D01*
X99948826Y-65567439D01*
X99943845Y-65565116D01*
X99938537Y-65563694D01*
X99938535Y-65563693D01*
X99728004Y-65507281D01*
X99728002Y-65507281D01*
X99722689Y-65505857D01*
X99494602Y-65485902D01*
X99266515Y-65505857D01*
X99261202Y-65507281D01*
X99261200Y-65507281D01*
X99050669Y-65563693D01*
X99050667Y-65563694D01*
X99045359Y-65565116D01*
X99040378Y-65567439D01*
X99040377Y-65567439D01*
X98842840Y-65659551D01*
X98842835Y-65659554D01*
X98837853Y-65661877D01*
X98792784Y-65693435D01*
X98654813Y-65790043D01*
X98654810Y-65790045D01*
X98650302Y-65793202D01*
X98488404Y-65955100D01*
X98357079Y-66142651D01*
X98354756Y-66147633D01*
X98354753Y-66147638D01*
X98306426Y-66251277D01*
X98260318Y-66350157D01*
X98258896Y-66355465D01*
X98258895Y-66355467D01*
X98203713Y-66561408D01*
X98201059Y-66571313D01*
X98181104Y-66799400D01*
X98201059Y-67027487D01*
X98202483Y-67032800D01*
X98202483Y-67032802D01*
X98242855Y-67183469D01*
X98260318Y-67248643D01*
X98262641Y-67253624D01*
X98262641Y-67253625D01*
X98354753Y-67451162D01*
X98354756Y-67451167D01*
X98357079Y-67456149D01*
X98488404Y-67643700D01*
X98650302Y-67805598D01*
X98654810Y-67808755D01*
X98654813Y-67808757D01*
X98732991Y-67863498D01*
X98837853Y-67936923D01*
X98842835Y-67939246D01*
X98842840Y-67939249D01*
X99040377Y-68031361D01*
X99045359Y-68033684D01*
X99050667Y-68035106D01*
X99050669Y-68035107D01*
X99261200Y-68091519D01*
X99261202Y-68091519D01*
X99266515Y-68092943D01*
X99494602Y-68112898D01*
X99722689Y-68092943D01*
X99728002Y-68091519D01*
X99728004Y-68091519D01*
X99938535Y-68035107D01*
X99938537Y-68035106D01*
X99943845Y-68033684D01*
X99948827Y-68031361D01*
X100146364Y-67939249D01*
X100146369Y-67939246D01*
X100151351Y-67936923D01*
X100256213Y-67863498D01*
X100334391Y-67808757D01*
X100334394Y-67808755D01*
X100338902Y-67805598D01*
X100500800Y-67643700D01*
X100632125Y-67456149D01*
X100634448Y-67451167D01*
X100634451Y-67451162D01*
X100650407Y-67416943D01*
X100697324Y-67363658D01*
X100765601Y-67344197D01*
X100833561Y-67364739D01*
X100878797Y-67416943D01*
X100894753Y-67451162D01*
X100894756Y-67451167D01*
X100897079Y-67456149D01*
X101028404Y-67643700D01*
X101190302Y-67805598D01*
X101194810Y-67808755D01*
X101194813Y-67808757D01*
X101272991Y-67863498D01*
X101377853Y-67936923D01*
X101382835Y-67939246D01*
X101382840Y-67939249D01*
X101580377Y-68031361D01*
X101585359Y-68033684D01*
X101590667Y-68035106D01*
X101590669Y-68035107D01*
X101801200Y-68091519D01*
X101801202Y-68091519D01*
X101806515Y-68092943D01*
X102034602Y-68112898D01*
X102262689Y-68092943D01*
X102268002Y-68091519D01*
X102268004Y-68091519D01*
X102478535Y-68035107D01*
X102478537Y-68035106D01*
X102483845Y-68033684D01*
X102488827Y-68031361D01*
X102686364Y-67939249D01*
X102686369Y-67939246D01*
X102691351Y-67936923D01*
X102796213Y-67863498D01*
X102874391Y-67808757D01*
X102874394Y-67808755D01*
X102878902Y-67805598D01*
X103040800Y-67643700D01*
X103172125Y-67456149D01*
X103174448Y-67451167D01*
X103174451Y-67451162D01*
X103190407Y-67416943D01*
X103237324Y-67363658D01*
X103305601Y-67344197D01*
X103373561Y-67364739D01*
X103418797Y-67416943D01*
X103434753Y-67451162D01*
X103434756Y-67451167D01*
X103437079Y-67456149D01*
X103568404Y-67643700D01*
X103730302Y-67805598D01*
X103734810Y-67808755D01*
X103734813Y-67808757D01*
X103812991Y-67863498D01*
X103917853Y-67936923D01*
X103922835Y-67939246D01*
X103922840Y-67939249D01*
X104120377Y-68031361D01*
X104125359Y-68033684D01*
X104130667Y-68035106D01*
X104130669Y-68035107D01*
X104341200Y-68091519D01*
X104341202Y-68091519D01*
X104346515Y-68092943D01*
X104574602Y-68112898D01*
X104802689Y-68092943D01*
X104808002Y-68091519D01*
X104808004Y-68091519D01*
X105018535Y-68035107D01*
X105018537Y-68035106D01*
X105023845Y-68033684D01*
X105028827Y-68031361D01*
X105226364Y-67939249D01*
X105226369Y-67939246D01*
X105231351Y-67936923D01*
X105336213Y-67863498D01*
X105414391Y-67808757D01*
X105414394Y-67808755D01*
X105418902Y-67805598D01*
X105580800Y-67643700D01*
X105712125Y-67456149D01*
X105714448Y-67451167D01*
X105714451Y-67451162D01*
X105730407Y-67416943D01*
X105777324Y-67363658D01*
X105845601Y-67344197D01*
X105913561Y-67364739D01*
X105958797Y-67416943D01*
X105974753Y-67451162D01*
X105974756Y-67451167D01*
X105977079Y-67456149D01*
X106108404Y-67643700D01*
X106270302Y-67805598D01*
X106274810Y-67808755D01*
X106274813Y-67808757D01*
X106352991Y-67863498D01*
X106457853Y-67936923D01*
X106462835Y-67939246D01*
X106462840Y-67939249D01*
X106660377Y-68031361D01*
X106665359Y-68033684D01*
X106670667Y-68035106D01*
X106670669Y-68035107D01*
X106881200Y-68091519D01*
X106881202Y-68091519D01*
X106886515Y-68092943D01*
X107114602Y-68112898D01*
X107342689Y-68092943D01*
X107348002Y-68091519D01*
X107348004Y-68091519D01*
X107558535Y-68035107D01*
X107558537Y-68035106D01*
X107563845Y-68033684D01*
X107568827Y-68031361D01*
X107766364Y-67939249D01*
X107766369Y-67939246D01*
X107771351Y-67936923D01*
X107876213Y-67863498D01*
X107954391Y-67808757D01*
X107954394Y-67808755D01*
X107958902Y-67805598D01*
X108120800Y-67643700D01*
X108252125Y-67456149D01*
X108254448Y-67451167D01*
X108254451Y-67451162D01*
X108270407Y-67416943D01*
X108317324Y-67363658D01*
X108385601Y-67344197D01*
X108453561Y-67364739D01*
X108498797Y-67416943D01*
X108514753Y-67451162D01*
X108514756Y-67451167D01*
X108517079Y-67456149D01*
X108648404Y-67643700D01*
X108810302Y-67805598D01*
X108814810Y-67808755D01*
X108814813Y-67808757D01*
X108892991Y-67863498D01*
X108997853Y-67936923D01*
X109002835Y-67939246D01*
X109002840Y-67939249D01*
X109200377Y-68031361D01*
X109205359Y-68033684D01*
X109210667Y-68035106D01*
X109210669Y-68035107D01*
X109421200Y-68091519D01*
X109421202Y-68091519D01*
X109426515Y-68092943D01*
X109654602Y-68112898D01*
X109882689Y-68092943D01*
X109888002Y-68091519D01*
X109888004Y-68091519D01*
X110098535Y-68035107D01*
X110098537Y-68035106D01*
X110103845Y-68033684D01*
X110108827Y-68031361D01*
X110306364Y-67939249D01*
X110306369Y-67939246D01*
X110311351Y-67936923D01*
X110416213Y-67863498D01*
X110494391Y-67808757D01*
X110494394Y-67808755D01*
X110498902Y-67805598D01*
X110660800Y-67643700D01*
X110792125Y-67456149D01*
X110794448Y-67451167D01*
X110794451Y-67451162D01*
X110810407Y-67416943D01*
X110857324Y-67363658D01*
X110925601Y-67344197D01*
X110993561Y-67364739D01*
X111038797Y-67416943D01*
X111054753Y-67451162D01*
X111054756Y-67451167D01*
X111057079Y-67456149D01*
X111188404Y-67643700D01*
X111350302Y-67805598D01*
X111354810Y-67808755D01*
X111354813Y-67808757D01*
X111432991Y-67863498D01*
X111537853Y-67936923D01*
X111542835Y-67939246D01*
X111542840Y-67939249D01*
X111740377Y-68031361D01*
X111745359Y-68033684D01*
X111750667Y-68035106D01*
X111750669Y-68035107D01*
X111961200Y-68091519D01*
X111961202Y-68091519D01*
X111966515Y-68092943D01*
X112194602Y-68112898D01*
X112422689Y-68092943D01*
X112428002Y-68091519D01*
X112428004Y-68091519D01*
X112638535Y-68035107D01*
X112638537Y-68035106D01*
X112643845Y-68033684D01*
X112648827Y-68031361D01*
X112846364Y-67939249D01*
X112846369Y-67939246D01*
X112851351Y-67936923D01*
X112956213Y-67863498D01*
X113034391Y-67808757D01*
X113034394Y-67808755D01*
X113038902Y-67805598D01*
X113200800Y-67643700D01*
X113332125Y-67456149D01*
X113334448Y-67451167D01*
X113334451Y-67451162D01*
X113350407Y-67416943D01*
X113397324Y-67363658D01*
X113465601Y-67344197D01*
X113533561Y-67364739D01*
X113578797Y-67416943D01*
X113594753Y-67451162D01*
X113594756Y-67451167D01*
X113597079Y-67456149D01*
X113728404Y-67643700D01*
X113890302Y-67805598D01*
X113894810Y-67808755D01*
X113894813Y-67808757D01*
X113972991Y-67863498D01*
X114077853Y-67936923D01*
X114082835Y-67939246D01*
X114082840Y-67939249D01*
X114280377Y-68031361D01*
X114285359Y-68033684D01*
X114290667Y-68035106D01*
X114290669Y-68035107D01*
X114501200Y-68091519D01*
X114501202Y-68091519D01*
X114506515Y-68092943D01*
X114734602Y-68112898D01*
X114962689Y-68092943D01*
X114968002Y-68091519D01*
X114968004Y-68091519D01*
X115178535Y-68035107D01*
X115178537Y-68035106D01*
X115183845Y-68033684D01*
X115188827Y-68031361D01*
X115386364Y-67939249D01*
X115386369Y-67939246D01*
X115391351Y-67936923D01*
X115496213Y-67863498D01*
X115574391Y-67808757D01*
X115574394Y-67808755D01*
X115578902Y-67805598D01*
X115740800Y-67643700D01*
X115872125Y-67456149D01*
X115874448Y-67451167D01*
X115874451Y-67451162D01*
X115890407Y-67416943D01*
X115937324Y-67363658D01*
X116005601Y-67344197D01*
X116073561Y-67364739D01*
X116118797Y-67416943D01*
X116134753Y-67451162D01*
X116134756Y-67451167D01*
X116137079Y-67456149D01*
X116268404Y-67643700D01*
X116430302Y-67805598D01*
X116434810Y-67808755D01*
X116434813Y-67808757D01*
X116512991Y-67863498D01*
X116617853Y-67936923D01*
X116622835Y-67939246D01*
X116622840Y-67939249D01*
X116820377Y-68031361D01*
X116825359Y-68033684D01*
X116830667Y-68035106D01*
X116830669Y-68035107D01*
X117041200Y-68091519D01*
X117041202Y-68091519D01*
X117046515Y-68092943D01*
X117274602Y-68112898D01*
X117502689Y-68092943D01*
X117508002Y-68091519D01*
X117508004Y-68091519D01*
X117718535Y-68035107D01*
X117718537Y-68035106D01*
X117723845Y-68033684D01*
X117728827Y-68031361D01*
X117926364Y-67939249D01*
X117926369Y-67939246D01*
X117931351Y-67936923D01*
X118036213Y-67863498D01*
X118114391Y-67808757D01*
X118114394Y-67808755D01*
X118118902Y-67805598D01*
X118280800Y-67643700D01*
X118412125Y-67456149D01*
X118414448Y-67451167D01*
X118414451Y-67451162D01*
X118430407Y-67416943D01*
X118477324Y-67363658D01*
X118545601Y-67344197D01*
X118613561Y-67364739D01*
X118658797Y-67416943D01*
X118674753Y-67451162D01*
X118674756Y-67451167D01*
X118677079Y-67456149D01*
X118808404Y-67643700D01*
X118970302Y-67805598D01*
X118974810Y-67808755D01*
X118974813Y-67808757D01*
X119052991Y-67863498D01*
X119157853Y-67936923D01*
X119162835Y-67939246D01*
X119162840Y-67939249D01*
X119360377Y-68031361D01*
X119365359Y-68033684D01*
X119370667Y-68035106D01*
X119370669Y-68035107D01*
X119581200Y-68091519D01*
X119581202Y-68091519D01*
X119586515Y-68092943D01*
X119814602Y-68112898D01*
X120042689Y-68092943D01*
X120048002Y-68091519D01*
X120048004Y-68091519D01*
X120258535Y-68035107D01*
X120258537Y-68035106D01*
X120263845Y-68033684D01*
X120268827Y-68031361D01*
X120466364Y-67939249D01*
X120466369Y-67939246D01*
X120471351Y-67936923D01*
X120576213Y-67863498D01*
X120654391Y-67808757D01*
X120654394Y-67808755D01*
X120658902Y-67805598D01*
X120820800Y-67643700D01*
X120952125Y-67456149D01*
X120954448Y-67451167D01*
X120954451Y-67451162D01*
X120970407Y-67416943D01*
X121017324Y-67363658D01*
X121085601Y-67344197D01*
X121153561Y-67364739D01*
X121198797Y-67416943D01*
X121214753Y-67451162D01*
X121214756Y-67451167D01*
X121217079Y-67456149D01*
X121348404Y-67643700D01*
X121510302Y-67805598D01*
X121514810Y-67808755D01*
X121514813Y-67808757D01*
X121592991Y-67863498D01*
X121697853Y-67936923D01*
X121702835Y-67939246D01*
X121702840Y-67939249D01*
X121900377Y-68031361D01*
X121905359Y-68033684D01*
X121910667Y-68035106D01*
X121910669Y-68035107D01*
X122121200Y-68091519D01*
X122121202Y-68091519D01*
X122126515Y-68092943D01*
X122354602Y-68112898D01*
X122582689Y-68092943D01*
X122588002Y-68091519D01*
X122588004Y-68091519D01*
X122798535Y-68035107D01*
X122798537Y-68035106D01*
X122803845Y-68033684D01*
X122808827Y-68031361D01*
X123006364Y-67939249D01*
X123006369Y-67939246D01*
X123011351Y-67936923D01*
X123116213Y-67863498D01*
X123194391Y-67808757D01*
X123194394Y-67808755D01*
X123198902Y-67805598D01*
X123360800Y-67643700D01*
X123492125Y-67456149D01*
X123494448Y-67451167D01*
X123494451Y-67451162D01*
X123510407Y-67416943D01*
X123557324Y-67363658D01*
X123625601Y-67344197D01*
X123693561Y-67364739D01*
X123738797Y-67416943D01*
X123754753Y-67451162D01*
X123754756Y-67451167D01*
X123757079Y-67456149D01*
X123888404Y-67643700D01*
X124050302Y-67805598D01*
X124054810Y-67808755D01*
X124054813Y-67808757D01*
X124132991Y-67863498D01*
X124237853Y-67936923D01*
X124242835Y-67939246D01*
X124242840Y-67939249D01*
X124440377Y-68031361D01*
X124445359Y-68033684D01*
X124450667Y-68035106D01*
X124450669Y-68035107D01*
X124661200Y-68091519D01*
X124661202Y-68091519D01*
X124666515Y-68092943D01*
X124894602Y-68112898D01*
X125122689Y-68092943D01*
X125128002Y-68091519D01*
X125128004Y-68091519D01*
X125338535Y-68035107D01*
X125338537Y-68035106D01*
X125343845Y-68033684D01*
X125348827Y-68031361D01*
X125546364Y-67939249D01*
X125546369Y-67939246D01*
X125551351Y-67936923D01*
X125656213Y-67863498D01*
X125734391Y-67808757D01*
X125734394Y-67808755D01*
X125738902Y-67805598D01*
X125900800Y-67643700D01*
X126032125Y-67456149D01*
X126034448Y-67451167D01*
X126034451Y-67451162D01*
X126050407Y-67416943D01*
X126097324Y-67363658D01*
X126165601Y-67344197D01*
X126233561Y-67364739D01*
X126278797Y-67416943D01*
X126294753Y-67451162D01*
X126294756Y-67451167D01*
X126297079Y-67456149D01*
X126428404Y-67643700D01*
X126590302Y-67805598D01*
X126594810Y-67808755D01*
X126594813Y-67808757D01*
X126672991Y-67863498D01*
X126777853Y-67936923D01*
X126782835Y-67939246D01*
X126782840Y-67939249D01*
X126980377Y-68031361D01*
X126985359Y-68033684D01*
X126990667Y-68035106D01*
X126990669Y-68035107D01*
X127201200Y-68091519D01*
X127201202Y-68091519D01*
X127206515Y-68092943D01*
X127434602Y-68112898D01*
X127662689Y-68092943D01*
X127668002Y-68091519D01*
X127668004Y-68091519D01*
X127878535Y-68035107D01*
X127878537Y-68035106D01*
X127883845Y-68033684D01*
X127888827Y-68031361D01*
X128086364Y-67939249D01*
X128086369Y-67939246D01*
X128091351Y-67936923D01*
X128196213Y-67863498D01*
X128274391Y-67808757D01*
X128274394Y-67808755D01*
X128278902Y-67805598D01*
X128440800Y-67643700D01*
X128572125Y-67456149D01*
X128574448Y-67451167D01*
X128574451Y-67451162D01*
X128590407Y-67416943D01*
X128637324Y-67363658D01*
X128705601Y-67344197D01*
X128773561Y-67364739D01*
X128818797Y-67416943D01*
X128834753Y-67451162D01*
X128834756Y-67451167D01*
X128837079Y-67456149D01*
X128968404Y-67643700D01*
X129130302Y-67805598D01*
X129134810Y-67808755D01*
X129134813Y-67808757D01*
X129212991Y-67863498D01*
X129317853Y-67936923D01*
X129322835Y-67939246D01*
X129322840Y-67939249D01*
X129520377Y-68031361D01*
X129525359Y-68033684D01*
X129530667Y-68035106D01*
X129530669Y-68035107D01*
X129741200Y-68091519D01*
X129741202Y-68091519D01*
X129746515Y-68092943D01*
X129974602Y-68112898D01*
X130202689Y-68092943D01*
X130208002Y-68091519D01*
X130208004Y-68091519D01*
X130418535Y-68035107D01*
X130418537Y-68035106D01*
X130423845Y-68033684D01*
X130428827Y-68031361D01*
X130626364Y-67939249D01*
X130626369Y-67939246D01*
X130631351Y-67936923D01*
X130736213Y-67863498D01*
X130814391Y-67808757D01*
X130814394Y-67808755D01*
X130818902Y-67805598D01*
X130980800Y-67643700D01*
X131062705Y-67526728D01*
X131118161Y-67482401D01*
X131165917Y-67473000D01*
X131958195Y-67473000D01*
X132026316Y-67493002D01*
X132047290Y-67509905D01*
X133243786Y-68706400D01*
X134338791Y-69801405D01*
X134372816Y-69863717D01*
X134367752Y-69934532D01*
X134325205Y-69991368D01*
X134258685Y-70016179D01*
X134249696Y-70016500D01*
X133991795Y-70016500D01*
X133929613Y-70023255D01*
X133793224Y-70074385D01*
X133676668Y-70161739D01*
X133657259Y-70187637D01*
X133657256Y-70187641D01*
X133600396Y-70230157D01*
X133529578Y-70235183D01*
X133467285Y-70201123D01*
X133455602Y-70187641D01*
X133455600Y-70187637D01*
X133436190Y-70161739D01*
X133319634Y-70074385D01*
X133183245Y-70023255D01*
X133121063Y-70016500D01*
X131324795Y-70016500D01*
X131262613Y-70023255D01*
X131126224Y-70074385D01*
X131009668Y-70161739D01*
X130990259Y-70187637D01*
X130990256Y-70187641D01*
X130933396Y-70230157D01*
X130862578Y-70235183D01*
X130800285Y-70201123D01*
X130788602Y-70187641D01*
X130788600Y-70187637D01*
X130769190Y-70161739D01*
X130652634Y-70074385D01*
X130516245Y-70023255D01*
X130454063Y-70016500D01*
X128657795Y-70016500D01*
X128595613Y-70023255D01*
X128459224Y-70074385D01*
X128342668Y-70161739D01*
X128255314Y-70278295D01*
X128204184Y-70414684D01*
X128197429Y-70476866D01*
X128197429Y-71895330D01*
X128177427Y-71963451D01*
X128123771Y-72009944D01*
X128071429Y-72021330D01*
X120697253Y-72021330D01*
X120624983Y-71998543D01*
X120588512Y-71973006D01*
X120545593Y-71942954D01*
X120490782Y-71912821D01*
X120349732Y-71876475D01*
X120276941Y-71878827D01*
X120213123Y-71880888D01*
X120213122Y-71880888D01*
X120204150Y-71881178D01*
X120195621Y-71883974D01*
X120195620Y-71883974D01*
X120074271Y-71923753D01*
X120074268Y-71923754D01*
X120065740Y-71926550D01*
X120012975Y-71962747D01*
X119959790Y-71999232D01*
X119888513Y-72021330D01*
X117451429Y-72021330D01*
X117383308Y-72001328D01*
X117336815Y-71947672D01*
X117325429Y-71895330D01*
X117325429Y-70491877D01*
X117318674Y-70429695D01*
X117267544Y-70293306D01*
X117180190Y-70176750D01*
X117063634Y-70089396D01*
X116927245Y-70038266D01*
X116865063Y-70031511D01*
X115068795Y-70031511D01*
X115006613Y-70038266D01*
X114870224Y-70089396D01*
X114753668Y-70176750D01*
X114739879Y-70195149D01*
X114683020Y-70237662D01*
X114612201Y-70242687D01*
X114549908Y-70208627D01*
X114538228Y-70195147D01*
X114518572Y-70168920D01*
X114518570Y-70168918D01*
X114513190Y-70161739D01*
X114396634Y-70074385D01*
X114260245Y-70023255D01*
X114198063Y-70016500D01*
X112401795Y-70016500D01*
X112339613Y-70023255D01*
X112203224Y-70074385D01*
X112086668Y-70161739D01*
X112072879Y-70180138D01*
X112016020Y-70222651D01*
X111945201Y-70227676D01*
X111882908Y-70193616D01*
X111871228Y-70180136D01*
X111851572Y-70153909D01*
X111851571Y-70153908D01*
X111846190Y-70146728D01*
X111729634Y-70059374D01*
X111593245Y-70008244D01*
X111531063Y-70001489D01*
X109734795Y-70001489D01*
X109672613Y-70008244D01*
X109536224Y-70059374D01*
X109419668Y-70146728D01*
X109332314Y-70263284D01*
X109281184Y-70399673D01*
X109274429Y-70461855D01*
X109274429Y-71895330D01*
X109254427Y-71963451D01*
X109200771Y-72009944D01*
X109148429Y-72021330D01*
X101768649Y-72021330D01*
X101696379Y-71998543D01*
X101659908Y-71973006D01*
X101628657Y-71951124D01*
X101573846Y-71920991D01*
X101432796Y-71884645D01*
X101360005Y-71886997D01*
X101296187Y-71889058D01*
X101296186Y-71889058D01*
X101287214Y-71889348D01*
X101278685Y-71892144D01*
X101278684Y-71892144D01*
X101157335Y-71931923D01*
X101157332Y-71931924D01*
X101148804Y-71934720D01*
X101106922Y-71963451D01*
X101054763Y-71999232D01*
X100983486Y-72021330D01*
X98528429Y-72021330D01*
X98460308Y-72001328D01*
X98413815Y-71947672D01*
X98402429Y-71895330D01*
X98402429Y-70476866D01*
X98395674Y-70414684D01*
X98344544Y-70278295D01*
X98257190Y-70161739D01*
X98140634Y-70074385D01*
X98004245Y-70023255D01*
X97942063Y-70016500D01*
X96145795Y-70016500D01*
X96083613Y-70023255D01*
X95947224Y-70074385D01*
X95830668Y-70161739D01*
X95811259Y-70187637D01*
X95811256Y-70187641D01*
X95754396Y-70230157D01*
X95683578Y-70235183D01*
X95621285Y-70201123D01*
X95609602Y-70187641D01*
X95609600Y-70187637D01*
X95590190Y-70161739D01*
X95473634Y-70074385D01*
X95337245Y-70023255D01*
X95275063Y-70016500D01*
X93478795Y-70016500D01*
X93416613Y-70023255D01*
X93280224Y-70074385D01*
X93163668Y-70161739D01*
X93144259Y-70187637D01*
X93144256Y-70187641D01*
X93087396Y-70230157D01*
X93016578Y-70235183D01*
X92954285Y-70201123D01*
X92942602Y-70187641D01*
X92942600Y-70187637D01*
X92923190Y-70161739D01*
X92806634Y-70074385D01*
X92670245Y-70023255D01*
X92608063Y-70016500D01*
X90811795Y-70016500D01*
X90749613Y-70023255D01*
X90613224Y-70074385D01*
X90496668Y-70161739D01*
X90409314Y-70278295D01*
X90358184Y-70414684D01*
X90351429Y-70476866D01*
X90351429Y-71895330D01*
X90331427Y-71963451D01*
X90277771Y-72009944D01*
X90225429Y-72021330D01*
X82857317Y-72021330D01*
X82785047Y-71998543D01*
X82748576Y-71973006D01*
X82705657Y-71942954D01*
X82650846Y-71912821D01*
X82509796Y-71876475D01*
X82437005Y-71878827D01*
X82373187Y-71880888D01*
X82373186Y-71880888D01*
X82364214Y-71881178D01*
X82355685Y-71883974D01*
X82355684Y-71883974D01*
X82234335Y-71923753D01*
X82234332Y-71923754D01*
X82225804Y-71926550D01*
X82173039Y-71962747D01*
X82119854Y-71999232D01*
X82048577Y-72021330D01*
X79605429Y-72021330D01*
X79537308Y-72001328D01*
X79490815Y-71947672D01*
X79479429Y-71895330D01*
X79479429Y-70491877D01*
X79472674Y-70429695D01*
X79421544Y-70293306D01*
X79334190Y-70176750D01*
X79217634Y-70089396D01*
X79081245Y-70038266D01*
X79019063Y-70031511D01*
X77222795Y-70031511D01*
X77160613Y-70038266D01*
X77024224Y-70089396D01*
X76907668Y-70176750D01*
X76893879Y-70195149D01*
X76837020Y-70237662D01*
X76766201Y-70242687D01*
X76703908Y-70208627D01*
X76692228Y-70195147D01*
X76672572Y-70168920D01*
X76672570Y-70168918D01*
X76667190Y-70161739D01*
X76550634Y-70074385D01*
X76414245Y-70023255D01*
X76352063Y-70016500D01*
X74555795Y-70016500D01*
X74493613Y-70023255D01*
X74357224Y-70074385D01*
X74240668Y-70161739D01*
X74221259Y-70187637D01*
X74221256Y-70187641D01*
X74164396Y-70230157D01*
X74093578Y-70235183D01*
X74031285Y-70201123D01*
X74019602Y-70187641D01*
X74019600Y-70187637D01*
X74000190Y-70161739D01*
X73883634Y-70074385D01*
X73747245Y-70023255D01*
X73685063Y-70016500D01*
X71888795Y-70016500D01*
X71826613Y-70023255D01*
X71690224Y-70074385D01*
X71573668Y-70161739D01*
X71572228Y-70159818D01*
X71521283Y-70187637D01*
X71450468Y-70182572D01*
X71393632Y-70140025D01*
X71368821Y-70073505D01*
X71368500Y-70064516D01*
X71368500Y-65700000D01*
X77586496Y-65700000D01*
X77587186Y-65706565D01*
X77601003Y-65838023D01*
X77606458Y-65889928D01*
X77665473Y-66071556D01*
X77668776Y-66077278D01*
X77668777Y-66077279D01*
X77676160Y-66090067D01*
X77760960Y-66236944D01*
X77765378Y-66241851D01*
X77765379Y-66241852D01*
X77867678Y-66355467D01*
X77888747Y-66378866D01*
X78043248Y-66491118D01*
X78049276Y-66493802D01*
X78049278Y-66493803D01*
X78211432Y-66565998D01*
X78217712Y-66568794D01*
X78311112Y-66588647D01*
X78398056Y-66607128D01*
X78398061Y-66607128D01*
X78404513Y-66608500D01*
X78595487Y-66608500D01*
X78601939Y-66607128D01*
X78601944Y-66607128D01*
X78688888Y-66588647D01*
X78782288Y-66568794D01*
X78788568Y-66565998D01*
X78950722Y-66493803D01*
X78950724Y-66493802D01*
X78956752Y-66491118D01*
X79085386Y-66397660D01*
X79152252Y-66373802D01*
X79159446Y-66373596D01*
X85140554Y-66373596D01*
X85208675Y-66393598D01*
X85214608Y-66397656D01*
X85343248Y-66491118D01*
X85349276Y-66493802D01*
X85349278Y-66493803D01*
X85511432Y-66565998D01*
X85517712Y-66568794D01*
X85611112Y-66588647D01*
X85698056Y-66607128D01*
X85698061Y-66607128D01*
X85704513Y-66608500D01*
X85895487Y-66608500D01*
X85901939Y-66607128D01*
X85901944Y-66607128D01*
X85988888Y-66588647D01*
X86082288Y-66568794D01*
X86088568Y-66565998D01*
X86250722Y-66493803D01*
X86250724Y-66493802D01*
X86256752Y-66491118D01*
X86411253Y-66378866D01*
X86432322Y-66355467D01*
X86534621Y-66241852D01*
X86534622Y-66241851D01*
X86539040Y-66236944D01*
X86623840Y-66090067D01*
X86631223Y-66077279D01*
X86631224Y-66077278D01*
X86634527Y-66071556D01*
X86693542Y-65889928D01*
X86698907Y-65838882D01*
X86712109Y-65713276D01*
X86739122Y-65647619D01*
X86797344Y-65606990D01*
X86868289Y-65604287D01*
X86888666Y-65611339D01*
X87017712Y-65668794D01*
X87111113Y-65688647D01*
X87198056Y-65707128D01*
X87198061Y-65707128D01*
X87204513Y-65708500D01*
X87395487Y-65708500D01*
X87401939Y-65707128D01*
X87401944Y-65707128D01*
X87488887Y-65688647D01*
X87582288Y-65668794D01*
X87588319Y-65666109D01*
X87750722Y-65593803D01*
X87750724Y-65593802D01*
X87756752Y-65591118D01*
X87911253Y-65478866D01*
X88039040Y-65336944D01*
X88134527Y-65171556D01*
X88193542Y-64989928D01*
X88201297Y-64916149D01*
X88212814Y-64806565D01*
X88212814Y-64806564D01*
X88213504Y-64800000D01*
X88201465Y-64685453D01*
X88194232Y-64616635D01*
X88194232Y-64616633D01*
X88193542Y-64610072D01*
X88134527Y-64428444D01*
X88119722Y-64402800D01*
X88055542Y-64291638D01*
X88039040Y-64263056D01*
X88030819Y-64253925D01*
X87915675Y-64126045D01*
X87915674Y-64126044D01*
X87911253Y-64121134D01*
X87789299Y-64032529D01*
X87762094Y-64012763D01*
X87762093Y-64012762D01*
X87756752Y-64008882D01*
X87750724Y-64006198D01*
X87750722Y-64006197D01*
X87588319Y-63933891D01*
X87588318Y-63933891D01*
X87582288Y-63931206D01*
X87488888Y-63911353D01*
X87401944Y-63892872D01*
X87401939Y-63892872D01*
X87395487Y-63891500D01*
X87204513Y-63891500D01*
X87198061Y-63892872D01*
X87198056Y-63892872D01*
X87111112Y-63911353D01*
X87017712Y-63931206D01*
X87011682Y-63933891D01*
X87011681Y-63933891D01*
X86849278Y-64006197D01*
X86849276Y-64006198D01*
X86843248Y-64008882D01*
X86837907Y-64012762D01*
X86837906Y-64012763D01*
X86714624Y-64102333D01*
X86647756Y-64126191D01*
X86640563Y-64126397D01*
X82459437Y-64126397D01*
X82391316Y-64106395D01*
X82385376Y-64102333D01*
X82262094Y-64012763D01*
X82262093Y-64012762D01*
X82256752Y-64008882D01*
X82250724Y-64006198D01*
X82250722Y-64006197D01*
X82088319Y-63933891D01*
X82088318Y-63933891D01*
X82082288Y-63931206D01*
X81988888Y-63911353D01*
X81901944Y-63892872D01*
X81901939Y-63892872D01*
X81895487Y-63891500D01*
X81704513Y-63891500D01*
X81698061Y-63892872D01*
X81698056Y-63892872D01*
X81611112Y-63911353D01*
X81517712Y-63931206D01*
X81511682Y-63933891D01*
X81511681Y-63933891D01*
X81349278Y-64006197D01*
X81349276Y-64006198D01*
X81343248Y-64008882D01*
X81337907Y-64012762D01*
X81337906Y-64012763D01*
X81310701Y-64032529D01*
X81188747Y-64121134D01*
X81184326Y-64126044D01*
X81184325Y-64126045D01*
X81069182Y-64253925D01*
X81060960Y-64263056D01*
X81044458Y-64291638D01*
X80980279Y-64402800D01*
X80965473Y-64428444D01*
X80906458Y-64610072D01*
X80905768Y-64616633D01*
X80905768Y-64616635D01*
X80898535Y-64685453D01*
X80886496Y-64800000D01*
X80894982Y-64880733D01*
X80895664Y-64887225D01*
X80882892Y-64957064D01*
X80834390Y-65008910D01*
X80770354Y-65026396D01*
X79159435Y-65026396D01*
X79091314Y-65006394D01*
X79085374Y-65002332D01*
X79076943Y-64996206D01*
X78978785Y-64924890D01*
X78962094Y-64912763D01*
X78962093Y-64912762D01*
X78956752Y-64908882D01*
X78950724Y-64906198D01*
X78950722Y-64906197D01*
X78788319Y-64833891D01*
X78788318Y-64833891D01*
X78782288Y-64831206D01*
X78666362Y-64806565D01*
X78601944Y-64792872D01*
X78601939Y-64792872D01*
X78595487Y-64791500D01*
X78404513Y-64791500D01*
X78398061Y-64792872D01*
X78398056Y-64792872D01*
X78333638Y-64806565D01*
X78217712Y-64831206D01*
X78211682Y-64833891D01*
X78211681Y-64833891D01*
X78049278Y-64906197D01*
X78049276Y-64906198D01*
X78043248Y-64908882D01*
X78037907Y-64912762D01*
X78037906Y-64912763D01*
X78021215Y-64924890D01*
X77888747Y-65021134D01*
X77884326Y-65026044D01*
X77884325Y-65026045D01*
X77793247Y-65127198D01*
X77760960Y-65163056D01*
X77665473Y-65328444D01*
X77606458Y-65510072D01*
X77605768Y-65516633D01*
X77605768Y-65516635D01*
X77590747Y-65659551D01*
X77586496Y-65700000D01*
X71368500Y-65700000D01*
X71368500Y-64880733D01*
X71388502Y-64812612D01*
X71442158Y-64766119D01*
X71482970Y-64755262D01*
X71549279Y-64749169D01*
X71554839Y-64747601D01*
X71558412Y-64746939D01*
X71569415Y-64744750D01*
X71573028Y-64743982D01*
X71578765Y-64743303D01*
X71663276Y-64717062D01*
X71666373Y-64716146D01*
X71751549Y-64692123D01*
X71756737Y-64689565D01*
X71760188Y-64688240D01*
X71770566Y-64684099D01*
X71773953Y-64682696D01*
X71779473Y-64680982D01*
X71786780Y-64677138D01*
X71857745Y-64639802D01*
X71860682Y-64638305D01*
X71940037Y-64599171D01*
X71944668Y-64595713D01*
X71947871Y-64593750D01*
X71957258Y-64587827D01*
X71960351Y-64585818D01*
X71965463Y-64583129D01*
X72034956Y-64528344D01*
X72037526Y-64526373D01*
X72103801Y-64476884D01*
X72103808Y-64476877D01*
X72108429Y-64473427D01*
X72164263Y-64413026D01*
X72167692Y-64409461D01*
X72958304Y-63618849D01*
X72964322Y-63613212D01*
X72979148Y-63600210D01*
X73013019Y-63570506D01*
X73067793Y-63501027D01*
X73069853Y-63498483D01*
X73122728Y-63434908D01*
X73122735Y-63434898D01*
X73126425Y-63430461D01*
X73129250Y-63425417D01*
X73131351Y-63422359D01*
X73137552Y-63413079D01*
X73139555Y-63409995D01*
X73143128Y-63405463D01*
X73145812Y-63400362D01*
X73145815Y-63400357D01*
X73184319Y-63327171D01*
X73185894Y-63324271D01*
X73226290Y-63252140D01*
X73226291Y-63252138D01*
X73229114Y-63247097D01*
X73230972Y-63241622D01*
X73232481Y-63238233D01*
X73236889Y-63227972D01*
X73238292Y-63224586D01*
X73240982Y-63219473D01*
X73267224Y-63134960D01*
X73268244Y-63131822D01*
X73294812Y-63053556D01*
X73294812Y-63053555D01*
X73296668Y-63048088D01*
X73297497Y-63042373D01*
X73298366Y-63038752D01*
X73300836Y-63027837D01*
X73301592Y-63024279D01*
X73303304Y-63018766D01*
X73313708Y-62930866D01*
X73314131Y-62927654D01*
X73326825Y-62840103D01*
X73323597Y-62757946D01*
X73323500Y-62752999D01*
X73323500Y-59020000D01*
X87386496Y-59020000D01*
X87387186Y-59026565D01*
X87402133Y-59168774D01*
X87406458Y-59209928D01*
X87465473Y-59391556D01*
X87468776Y-59397278D01*
X87468777Y-59397279D01*
X87485485Y-59426218D01*
X87560960Y-59556944D01*
X87565378Y-59561851D01*
X87565379Y-59561852D01*
X87609931Y-59611332D01*
X87688747Y-59698866D01*
X87779991Y-59765159D01*
X87833907Y-59804331D01*
X87843248Y-59811118D01*
X87849276Y-59813802D01*
X87849278Y-59813803D01*
X87984421Y-59873972D01*
X88017712Y-59888794D01*
X88111112Y-59908647D01*
X88198056Y-59927128D01*
X88198061Y-59927128D01*
X88204513Y-59928500D01*
X88395487Y-59928500D01*
X88401939Y-59927128D01*
X88401944Y-59927128D01*
X88488888Y-59908647D01*
X88582288Y-59888794D01*
X88615579Y-59873972D01*
X88750722Y-59813803D01*
X88750724Y-59813802D01*
X88756752Y-59811118D01*
X88766094Y-59804331D01*
X88820009Y-59765159D01*
X88911253Y-59698866D01*
X88990069Y-59611332D01*
X89034621Y-59561852D01*
X89034622Y-59561851D01*
X89039040Y-59556944D01*
X89114515Y-59426218D01*
X89131223Y-59397279D01*
X89131224Y-59397278D01*
X89134527Y-59391556D01*
X89193542Y-59209928D01*
X89197868Y-59168774D01*
X89212814Y-59026565D01*
X89213504Y-59020000D01*
X89204316Y-58932584D01*
X89194232Y-58836635D01*
X89194232Y-58836633D01*
X89193542Y-58830072D01*
X89134527Y-58648444D01*
X89039040Y-58483056D01*
X88991800Y-58430590D01*
X88915675Y-58346045D01*
X88915674Y-58346044D01*
X88911253Y-58341134D01*
X88769683Y-58238277D01*
X88762094Y-58232763D01*
X88762093Y-58232762D01*
X88756752Y-58228882D01*
X88750724Y-58226198D01*
X88750722Y-58226197D01*
X88588319Y-58153891D01*
X88588318Y-58153891D01*
X88582288Y-58151206D01*
X88488887Y-58131353D01*
X88401944Y-58112872D01*
X88401939Y-58112872D01*
X88395487Y-58111500D01*
X88204513Y-58111500D01*
X88198061Y-58112872D01*
X88198056Y-58112872D01*
X88111113Y-58131353D01*
X88017712Y-58151206D01*
X88011682Y-58153891D01*
X88011681Y-58153891D01*
X87849278Y-58226197D01*
X87849276Y-58226198D01*
X87843248Y-58228882D01*
X87837907Y-58232762D01*
X87837906Y-58232763D01*
X87830317Y-58238277D01*
X87688747Y-58341134D01*
X87684326Y-58346044D01*
X87684325Y-58346045D01*
X87608201Y-58430590D01*
X87560960Y-58483056D01*
X87465473Y-58648444D01*
X87406458Y-58830072D01*
X87405768Y-58836633D01*
X87405768Y-58836635D01*
X87395684Y-58932584D01*
X87386496Y-59020000D01*
X73323500Y-59020000D01*
X73323500Y-55595843D01*
X73343502Y-55527722D01*
X73360405Y-55506748D01*
X74157153Y-54710000D01*
X88306496Y-54710000D01*
X88307186Y-54716565D01*
X88317465Y-54814360D01*
X88326458Y-54899928D01*
X88385473Y-55081556D01*
X88388776Y-55087278D01*
X88388777Y-55087279D01*
X88408453Y-55121359D01*
X88480960Y-55246944D01*
X88485378Y-55251851D01*
X88485379Y-55251852D01*
X88588194Y-55366040D01*
X88608747Y-55388866D01*
X88676868Y-55438359D01*
X88723624Y-55472329D01*
X88763248Y-55501118D01*
X88769276Y-55503802D01*
X88769278Y-55503803D01*
X88916590Y-55569390D01*
X88937712Y-55578794D01*
X89017921Y-55595843D01*
X89118056Y-55617128D01*
X89118061Y-55617128D01*
X89124513Y-55618500D01*
X89315487Y-55618500D01*
X89321939Y-55617128D01*
X89321944Y-55617128D01*
X89422079Y-55595843D01*
X89502288Y-55578794D01*
X89523410Y-55569390D01*
X89670722Y-55503803D01*
X89670724Y-55503802D01*
X89676752Y-55501118D01*
X89716377Y-55472329D01*
X89763132Y-55438359D01*
X89831253Y-55388866D01*
X89851806Y-55366040D01*
X89954621Y-55251852D01*
X89954622Y-55251851D01*
X89959040Y-55246944D01*
X90031547Y-55121359D01*
X90051223Y-55087279D01*
X90051224Y-55087278D01*
X90054527Y-55081556D01*
X90113542Y-54899928D01*
X90122536Y-54814360D01*
X90132814Y-54716565D01*
X90133504Y-54710000D01*
X90118488Y-54567128D01*
X90114232Y-54526635D01*
X90114232Y-54526633D01*
X90113542Y-54520072D01*
X90054527Y-54338444D01*
X89959040Y-54173056D01*
X89831253Y-54031134D01*
X89676752Y-53918882D01*
X89670724Y-53916198D01*
X89670722Y-53916197D01*
X89508319Y-53843891D01*
X89508318Y-53843891D01*
X89502288Y-53841206D01*
X89408887Y-53821353D01*
X89321944Y-53802872D01*
X89321939Y-53802872D01*
X89315487Y-53801500D01*
X89124513Y-53801500D01*
X89118061Y-53802872D01*
X89118056Y-53802872D01*
X89031113Y-53821353D01*
X88937712Y-53841206D01*
X88931682Y-53843891D01*
X88931681Y-53843891D01*
X88769278Y-53916197D01*
X88769276Y-53916198D01*
X88763248Y-53918882D01*
X88608747Y-54031134D01*
X88480960Y-54173056D01*
X88385473Y-54338444D01*
X88326458Y-54520072D01*
X88325768Y-54526633D01*
X88325768Y-54526635D01*
X88321512Y-54567128D01*
X88306496Y-54710000D01*
X74157153Y-54710000D01*
X75096748Y-53770405D01*
X75159060Y-53736379D01*
X75185843Y-53733500D01*
X80074739Y-53733500D01*
X80082980Y-53733770D01*
X80147605Y-53738006D01*
X80235517Y-53727601D01*
X80238730Y-53727264D01*
X80326823Y-53719169D01*
X80332383Y-53717601D01*
X80335956Y-53716939D01*
X80346959Y-53714750D01*
X80350572Y-53713982D01*
X80356309Y-53713303D01*
X80440820Y-53687062D01*
X80443917Y-53686146D01*
X80529093Y-53662123D01*
X80534281Y-53659565D01*
X80537732Y-53658240D01*
X80548110Y-53654099D01*
X80551497Y-53652696D01*
X80557017Y-53650982D01*
X80635290Y-53609801D01*
X80638226Y-53608305D01*
X80675344Y-53590000D01*
X80717581Y-53569171D01*
X80722212Y-53565713D01*
X80725415Y-53563750D01*
X80734802Y-53557827D01*
X80737895Y-53555818D01*
X80743007Y-53553129D01*
X80812500Y-53498344D01*
X80815070Y-53496373D01*
X80881345Y-53446884D01*
X80881352Y-53446877D01*
X80885973Y-53443427D01*
X80890858Y-53438143D01*
X80941806Y-53383027D01*
X80945236Y-53379461D01*
X82765297Y-51559400D01*
X95641104Y-51559400D01*
X95661059Y-51787487D01*
X95662483Y-51792800D01*
X95662483Y-51792802D01*
X95709840Y-51969537D01*
X95720318Y-52008643D01*
X95722641Y-52013624D01*
X95722641Y-52013625D01*
X95814753Y-52211162D01*
X95814756Y-52211167D01*
X95817079Y-52216149D01*
X95860769Y-52278545D01*
X95944138Y-52397607D01*
X95948404Y-52403700D01*
X96110302Y-52565598D01*
X96114810Y-52568755D01*
X96114813Y-52568757D01*
X96149437Y-52593001D01*
X96297853Y-52696923D01*
X96302835Y-52699246D01*
X96302840Y-52699249D01*
X96500377Y-52791361D01*
X96505359Y-52793684D01*
X96510667Y-52795106D01*
X96510669Y-52795107D01*
X96721200Y-52851519D01*
X96721202Y-52851519D01*
X96726515Y-52852943D01*
X96954602Y-52872898D01*
X97182689Y-52852943D01*
X97188002Y-52851519D01*
X97188004Y-52851519D01*
X97398535Y-52795107D01*
X97398537Y-52795106D01*
X97403845Y-52793684D01*
X97408827Y-52791361D01*
X97606364Y-52699249D01*
X97606369Y-52699246D01*
X97611351Y-52696923D01*
X97759767Y-52593001D01*
X97794391Y-52568757D01*
X97794394Y-52568755D01*
X97798902Y-52565598D01*
X97960800Y-52403700D01*
X97965067Y-52397607D01*
X98048435Y-52278545D01*
X98092125Y-52216149D01*
X98094448Y-52211167D01*
X98094451Y-52211162D01*
X98186563Y-52013625D01*
X98186563Y-52013624D01*
X98188886Y-52008643D01*
X98199365Y-51969537D01*
X98246721Y-51792802D01*
X98246721Y-51792800D01*
X98248145Y-51787487D01*
X98268100Y-51559400D01*
X98248145Y-51331313D01*
X98246721Y-51325998D01*
X98190309Y-51115467D01*
X98190308Y-51115465D01*
X98188886Y-51110157D01*
X98186563Y-51105175D01*
X98094451Y-50907638D01*
X98094448Y-50907633D01*
X98092125Y-50902651D01*
X97997237Y-50767137D01*
X97963959Y-50719611D01*
X97963957Y-50719608D01*
X97960800Y-50715100D01*
X97798902Y-50553202D01*
X97794394Y-50550045D01*
X97794391Y-50550043D01*
X97660616Y-50456373D01*
X97611351Y-50421877D01*
X97606369Y-50419554D01*
X97606364Y-50419551D01*
X97408827Y-50327439D01*
X97408826Y-50327439D01*
X97403845Y-50325116D01*
X97398537Y-50323694D01*
X97398535Y-50323693D01*
X97188004Y-50267281D01*
X97188002Y-50267281D01*
X97182689Y-50265857D01*
X96954602Y-50245902D01*
X96726515Y-50265857D01*
X96721202Y-50267281D01*
X96721200Y-50267281D01*
X96510669Y-50323693D01*
X96510667Y-50323694D01*
X96505359Y-50325116D01*
X96500378Y-50327439D01*
X96500377Y-50327439D01*
X96302840Y-50419551D01*
X96302835Y-50419554D01*
X96297853Y-50421877D01*
X96248588Y-50456373D01*
X96114813Y-50550043D01*
X96114810Y-50550045D01*
X96110302Y-50553202D01*
X95948404Y-50715100D01*
X95945247Y-50719608D01*
X95945245Y-50719611D01*
X95911967Y-50767137D01*
X95817079Y-50902651D01*
X95814756Y-50907633D01*
X95814753Y-50907638D01*
X95722641Y-51105175D01*
X95720318Y-51110157D01*
X95718896Y-51115465D01*
X95718895Y-51115467D01*
X95662483Y-51325998D01*
X95661059Y-51331313D01*
X95641104Y-51559400D01*
X82765297Y-51559400D01*
X84908304Y-49416393D01*
X84914322Y-49410756D01*
X84936652Y-49391173D01*
X84963019Y-49368050D01*
X85017798Y-49298562D01*
X85019876Y-49295997D01*
X85072734Y-49232444D01*
X85072738Y-49232439D01*
X85076426Y-49228004D01*
X85079245Y-49222970D01*
X85081314Y-49219960D01*
X85087508Y-49210690D01*
X85089551Y-49207545D01*
X85093128Y-49203007D01*
X85134318Y-49124718D01*
X85135887Y-49121828D01*
X85176291Y-49049683D01*
X85176292Y-49049681D01*
X85179115Y-49044640D01*
X85180972Y-49039168D01*
X85182486Y-49035768D01*
X85186873Y-49025557D01*
X85188295Y-49022123D01*
X85190982Y-49017017D01*
X85217212Y-48932545D01*
X85218231Y-48929409D01*
X85244813Y-48851099D01*
X85246669Y-48845632D01*
X85247498Y-48839919D01*
X85248341Y-48836406D01*
X85250833Y-48825393D01*
X85251591Y-48821826D01*
X85253304Y-48816310D01*
X85256292Y-48791071D01*
X85263701Y-48728464D01*
X85264132Y-48725193D01*
X85264625Y-48721797D01*
X85276826Y-48637646D01*
X85273597Y-48555474D01*
X85273500Y-48550527D01*
X85273500Y-46264500D01*
X85293502Y-46196379D01*
X85347158Y-46149886D01*
X85399500Y-46138500D01*
X87154934Y-46138500D01*
X87217116Y-46131745D01*
X87353505Y-46080615D01*
X87470061Y-45993261D01*
X87476630Y-45984496D01*
X87527574Y-45916522D01*
X87584433Y-45874007D01*
X87655252Y-45868981D01*
X87717545Y-45903041D01*
X87729226Y-45916522D01*
X87780170Y-45984496D01*
X87786739Y-45993261D01*
X87903295Y-46080615D01*
X88039684Y-46131745D01*
X88101866Y-46138500D01*
X89898134Y-46138500D01*
X89960316Y-46131745D01*
X90096705Y-46080615D01*
X90213261Y-45993261D01*
X90219830Y-45984496D01*
X90270774Y-45916522D01*
X90327633Y-45874007D01*
X90398452Y-45868981D01*
X90460745Y-45903041D01*
X90472426Y-45916522D01*
X90523370Y-45984496D01*
X90529939Y-45993261D01*
X90646495Y-46080615D01*
X90782884Y-46131745D01*
X90845066Y-46138500D01*
X92641334Y-46138500D01*
X92703516Y-46131745D01*
X92839905Y-46080615D01*
X92956461Y-45993261D01*
X93043815Y-45876705D01*
X93094945Y-45740316D01*
X93101700Y-45678134D01*
X93101700Y-43881866D01*
X93094945Y-43819684D01*
X93043815Y-43683295D01*
X92956461Y-43566739D01*
X92839905Y-43479385D01*
X92703516Y-43428255D01*
X92641334Y-43421500D01*
X90845066Y-43421500D01*
X90782884Y-43428255D01*
X90646495Y-43479385D01*
X90529939Y-43566739D01*
X90524558Y-43573919D01*
X90524557Y-43573920D01*
X90472426Y-43643478D01*
X90415567Y-43685993D01*
X90344748Y-43691019D01*
X90282455Y-43656959D01*
X90270774Y-43643478D01*
X90218643Y-43573920D01*
X90218642Y-43573919D01*
X90213261Y-43566739D01*
X90096705Y-43479385D01*
X89960316Y-43428255D01*
X89898134Y-43421500D01*
X88101866Y-43421500D01*
X88039684Y-43428255D01*
X87903295Y-43479385D01*
X87786739Y-43566739D01*
X87781358Y-43573919D01*
X87781357Y-43573920D01*
X87729226Y-43643478D01*
X87672367Y-43685993D01*
X87601548Y-43691019D01*
X87539255Y-43656959D01*
X87527574Y-43643478D01*
X87475443Y-43573920D01*
X87475442Y-43573919D01*
X87470061Y-43566739D01*
X87353505Y-43479385D01*
X87217116Y-43428255D01*
X87154934Y-43421500D01*
X85358666Y-43421500D01*
X85296484Y-43428255D01*
X85160095Y-43479385D01*
X85043539Y-43566739D01*
X85038158Y-43573919D01*
X85038157Y-43573920D01*
X85031608Y-43582658D01*
X84974748Y-43625171D01*
X84922544Y-43632820D01*
X84915706Y-43632372D01*
X84909939Y-43631994D01*
X84822027Y-43642399D01*
X84818814Y-43642736D01*
X84730721Y-43650831D01*
X84725161Y-43652399D01*
X84721588Y-43653061D01*
X84710585Y-43655250D01*
X84706972Y-43656018D01*
X84701235Y-43656697D01*
X84616724Y-43682938D01*
X84613627Y-43683854D01*
X84528451Y-43707877D01*
X84523263Y-43710435D01*
X84519812Y-43711760D01*
X84509434Y-43715901D01*
X84506047Y-43717304D01*
X84500527Y-43719018D01*
X84495413Y-43721709D01*
X84495412Y-43721709D01*
X84422255Y-43760198D01*
X84419319Y-43761695D01*
X84339963Y-43800829D01*
X84335332Y-43804287D01*
X84332129Y-43806250D01*
X84322742Y-43812173D01*
X84319649Y-43814182D01*
X84314537Y-43816871D01*
X84245044Y-43871656D01*
X84242474Y-43873627D01*
X84176199Y-43923116D01*
X84176192Y-43923123D01*
X84171571Y-43926573D01*
X84167657Y-43930807D01*
X84167655Y-43930809D01*
X84115738Y-43986973D01*
X84112308Y-43990539D01*
X83351696Y-44751151D01*
X83345678Y-44756788D01*
X83296981Y-44799494D01*
X83293406Y-44804029D01*
X83293405Y-44804030D01*
X83242202Y-44868982D01*
X83240124Y-44871547D01*
X83187266Y-44935100D01*
X83187262Y-44935105D01*
X83183574Y-44939540D01*
X83180755Y-44944574D01*
X83178686Y-44947584D01*
X83172492Y-44956854D01*
X83170449Y-44959999D01*
X83166872Y-44964537D01*
X83164184Y-44969645D01*
X83164182Y-44969649D01*
X83153286Y-44990360D01*
X83126938Y-45040441D01*
X83125688Y-45042816D01*
X83124118Y-45045706D01*
X83080885Y-45122904D01*
X83079028Y-45128376D01*
X83077514Y-45131776D01*
X83073127Y-45141987D01*
X83071705Y-45145421D01*
X83069018Y-45150527D01*
X83067306Y-45156041D01*
X83067305Y-45156043D01*
X83042788Y-45234999D01*
X83041769Y-45238135D01*
X83027652Y-45279724D01*
X83013331Y-45321912D01*
X83012502Y-45327625D01*
X83011659Y-45331138D01*
X83009167Y-45342151D01*
X83008409Y-45345718D01*
X83006696Y-45351234D01*
X83006018Y-45356962D01*
X83006017Y-45356967D01*
X82996297Y-45439098D01*
X82995870Y-45442340D01*
X82983175Y-45529897D01*
X82983402Y-45535665D01*
X82986403Y-45612054D01*
X82986500Y-45617001D01*
X82986500Y-48051701D01*
X82966498Y-48119822D01*
X82949595Y-48140796D01*
X79680796Y-51409595D01*
X79618484Y-51443621D01*
X79591701Y-51446500D01*
X74702805Y-51446500D01*
X74694564Y-51446230D01*
X74685452Y-51445633D01*
X74629939Y-51441994D01*
X74542041Y-51452398D01*
X74538773Y-51452740D01*
X74450721Y-51460831D01*
X74445155Y-51462401D01*
X74441459Y-51463086D01*
X74430610Y-51465244D01*
X74426974Y-51466017D01*
X74421235Y-51466696D01*
X74336744Y-51492931D01*
X74333608Y-51493860D01*
X74297031Y-51504176D01*
X74248451Y-51517877D01*
X74243263Y-51520435D01*
X74239812Y-51521760D01*
X74229434Y-51525901D01*
X74226047Y-51527304D01*
X74220527Y-51529018D01*
X74215413Y-51531709D01*
X74215412Y-51531709D01*
X74142255Y-51570198D01*
X74139319Y-51571695D01*
X74059963Y-51610829D01*
X74055332Y-51614287D01*
X74052129Y-51616250D01*
X74042742Y-51622173D01*
X74039649Y-51624182D01*
X74034537Y-51626871D01*
X73965044Y-51681656D01*
X73962474Y-51683627D01*
X73896199Y-51733116D01*
X73896192Y-51733123D01*
X73891571Y-51736573D01*
X73887657Y-51740807D01*
X73887655Y-51740809D01*
X73835738Y-51796973D01*
X73832308Y-51800539D01*
X71533595Y-54099252D01*
X71471283Y-54133278D01*
X71400468Y-54128213D01*
X71343632Y-54085666D01*
X71318821Y-54019146D01*
X71318500Y-54010157D01*
X71318500Y-50620585D01*
X71338502Y-50552464D01*
X71355405Y-50531490D01*
X73292409Y-48594486D01*
X73354721Y-48560460D01*
X73412840Y-48561540D01*
X73443965Y-48569532D01*
X73443975Y-48569534D01*
X73447800Y-48570516D01*
X73748470Y-48608500D01*
X74051530Y-48608500D01*
X74352200Y-48570516D01*
X74645739Y-48495149D01*
X74649409Y-48493696D01*
X74923843Y-48385040D01*
X74923848Y-48385038D01*
X74927517Y-48383585D01*
X74930986Y-48381678D01*
X75189618Y-48239493D01*
X75189621Y-48239491D01*
X75193090Y-48237584D01*
X75438271Y-48059450D01*
X75461712Y-48037438D01*
X75656305Y-47854703D01*
X75659192Y-47851992D01*
X75840339Y-47633023D01*
X75849848Y-47621529D01*
X75849851Y-47621525D01*
X75852370Y-47618480D01*
X76014758Y-47362598D01*
X76143794Y-47088381D01*
X76237445Y-46800154D01*
X76294233Y-46502462D01*
X76313262Y-46200000D01*
X76294233Y-45897538D01*
X76237445Y-45599846D01*
X76156666Y-45351234D01*
X76145020Y-45315392D01*
X76145020Y-45315391D01*
X76143794Y-45311619D01*
X76128786Y-45279724D01*
X76061713Y-45137187D01*
X76014758Y-45037402D01*
X75852370Y-44781520D01*
X75659192Y-44548008D01*
X75438271Y-44340550D01*
X75416877Y-44325006D01*
X75340867Y-44269782D01*
X75193090Y-44162416D01*
X75185460Y-44158221D01*
X74930986Y-44018322D01*
X74930985Y-44018321D01*
X74927517Y-44016415D01*
X74923848Y-44014962D01*
X74923843Y-44014960D01*
X74649409Y-43906304D01*
X74649408Y-43906304D01*
X74645739Y-43904851D01*
X74352200Y-43829484D01*
X74051530Y-43791500D01*
X73748470Y-43791500D01*
X73447800Y-43829484D01*
X73154261Y-43904851D01*
X73150592Y-43906304D01*
X73150591Y-43906304D01*
X72876157Y-44014960D01*
X72876152Y-44014962D01*
X72872483Y-44016415D01*
X72869015Y-44018321D01*
X72869014Y-44018322D01*
X72614541Y-44158221D01*
X72606910Y-44162416D01*
X72459133Y-44269782D01*
X72383124Y-44325006D01*
X72361729Y-44340550D01*
X72140808Y-44548008D01*
X71947630Y-44781520D01*
X71785242Y-45037402D01*
X71732010Y-45150527D01*
X71714204Y-45188367D01*
X71689291Y-45223814D01*
X68355378Y-48557727D01*
X68350184Y-48562635D01*
X68298042Y-48609174D01*
X68291494Y-48615018D01*
X68220143Y-48700809D01*
X68218455Y-48702838D01*
X68217057Y-48704490D01*
X68142454Y-48791071D01*
X68139959Y-48795026D01*
X68138635Y-48797124D01*
X68128949Y-48810455D01*
X68127352Y-48812375D01*
X68127346Y-48812383D01*
X68124363Y-48815970D01*
X68121942Y-48819960D01*
X68065071Y-48913679D01*
X68063914Y-48915548D01*
X68053190Y-48932545D01*
X68002983Y-49012119D01*
X68001101Y-49016396D01*
X68001100Y-49016398D01*
X68000099Y-49018673D01*
X67992490Y-49033290D01*
X67988771Y-49039419D01*
X67986962Y-49043733D01*
X67944603Y-49144748D01*
X67943735Y-49146769D01*
X67897716Y-49251355D01*
X67896487Y-49255862D01*
X67896484Y-49255871D01*
X67895830Y-49258271D01*
X67890467Y-49273848D01*
X67887697Y-49280455D01*
X67886547Y-49284983D01*
X67886546Y-49284986D01*
X67859578Y-49391173D01*
X67859020Y-49393291D01*
X67828968Y-49503521D01*
X67828419Y-49508161D01*
X67828418Y-49508166D01*
X67828127Y-49510627D01*
X67825122Y-49526843D01*
X67823359Y-49533783D01*
X67822891Y-49538434D01*
X67811915Y-49647428D01*
X67811676Y-49649613D01*
X67806066Y-49697015D01*
X67798247Y-49763080D01*
X67800802Y-49846695D01*
X67801441Y-49867606D01*
X67801500Y-49871454D01*
X67801500Y-54889415D01*
X67781498Y-54957536D01*
X67764595Y-54978510D01*
X66489633Y-56253472D01*
X66362454Y-56401071D01*
X66222983Y-56622119D01*
X66117716Y-56861355D01*
X66048968Y-57113521D01*
X66048420Y-57118153D01*
X66048419Y-57118157D01*
X66036449Y-57219292D01*
X66018247Y-57373080D01*
X66026230Y-57634329D01*
X66027063Y-57638934D01*
X66027063Y-57638937D01*
X66040656Y-57714110D01*
X66072738Y-57891528D01*
X66074241Y-57895955D01*
X66155249Y-58134598D01*
X66155252Y-58134604D01*
X66156753Y-58139027D01*
X66276428Y-58371390D01*
X66279161Y-58375187D01*
X66279162Y-58375188D01*
X66413544Y-58561857D01*
X66429133Y-58583512D01*
X66611515Y-58770732D01*
X66615242Y-58773566D01*
X66615243Y-58773567D01*
X66652323Y-58801763D01*
X66694440Y-58858917D01*
X66698971Y-58929769D01*
X66659958Y-58996061D01*
X66571494Y-59075018D01*
X66404363Y-59275970D01*
X66401934Y-59279973D01*
X66283762Y-59474715D01*
X66268771Y-59499419D01*
X66167697Y-59740455D01*
X66103359Y-59993783D01*
X66099986Y-60027279D01*
X66096257Y-60064313D01*
X66094251Y-60077346D01*
X66091655Y-60089826D01*
X66091390Y-60094501D01*
X66089182Y-60133374D01*
X66088751Y-60138853D01*
X66083909Y-60186944D01*
X66081500Y-60210867D01*
X66081500Y-60265103D01*
X66081297Y-60272246D01*
X66077103Y-60346100D01*
X66077103Y-60346107D01*
X66076838Y-60350776D01*
X66085928Y-60449703D01*
X66087287Y-60464489D01*
X66087469Y-60466668D01*
X66095939Y-60580652D01*
X66096971Y-60585211D01*
X66097516Y-60587619D01*
X66100097Y-60603911D01*
X66100753Y-60611050D01*
X66101865Y-60615594D01*
X66127914Y-60722051D01*
X66128418Y-60724190D01*
X66135292Y-60754566D01*
X66153623Y-60835577D01*
X66155314Y-60839926D01*
X66155317Y-60839935D01*
X66156218Y-60842251D01*
X66161172Y-60857964D01*
X66162877Y-60864930D01*
X66164652Y-60869267D01*
X66164652Y-60869269D01*
X66206141Y-60970683D01*
X66206956Y-60972725D01*
X66239496Y-61056400D01*
X66248353Y-61079177D01*
X66250674Y-61083238D01*
X66251910Y-61085401D01*
X66259131Y-61100206D01*
X66261845Y-61106839D01*
X66320288Y-61205075D01*
X66321352Y-61206899D01*
X66373905Y-61298847D01*
X66378049Y-61306098D01*
X66382481Y-61311720D01*
X66391809Y-61325291D01*
X66395481Y-61331463D01*
X66398428Y-61335071D01*
X66398433Y-61335077D01*
X66467790Y-61419965D01*
X66469166Y-61421680D01*
X66528381Y-61496793D01*
X66539862Y-61511357D01*
X66616052Y-61583029D01*
X66618814Y-61585709D01*
X67814595Y-62781490D01*
X67848621Y-62843802D01*
X67851500Y-62870585D01*
X67851500Y-72155103D01*
X67851297Y-72162246D01*
X67847103Y-72236100D01*
X67847103Y-72236107D01*
X67846838Y-72240776D01*
X67854803Y-72327460D01*
X67857287Y-72354489D01*
X67857469Y-72356668D01*
X67865939Y-72470652D01*
X67866971Y-72475211D01*
X67867516Y-72477619D01*
X67870097Y-72493911D01*
X67870753Y-72501050D01*
X67871865Y-72505594D01*
X67897914Y-72612051D01*
X67898418Y-72614190D01*
X67923623Y-72725577D01*
X67925314Y-72729926D01*
X67925317Y-72729935D01*
X67926218Y-72732251D01*
X67931172Y-72747964D01*
X67932877Y-72754930D01*
X67934652Y-72759267D01*
X67934652Y-72759269D01*
X67976141Y-72860683D01*
X67976956Y-72862725D01*
X68002787Y-72929148D01*
X68018353Y-72969177D01*
X68020674Y-72973238D01*
X68021910Y-72975401D01*
X68029131Y-72990206D01*
X68031845Y-72996839D01*
X68090288Y-73095075D01*
X68091352Y-73096899D01*
X68139603Y-73181320D01*
X68148049Y-73196098D01*
X68152481Y-73201720D01*
X68161809Y-73215291D01*
X68165481Y-73221463D01*
X68168428Y-73225071D01*
X68168433Y-73225077D01*
X68237790Y-73309965D01*
X68239166Y-73311680D01*
X68298009Y-73386321D01*
X68309862Y-73401357D01*
X68313264Y-73404557D01*
X68386052Y-73473029D01*
X68388814Y-73475709D01*
X70032727Y-75119622D01*
X70037635Y-75124816D01*
X70090018Y-75183506D01*
X70166221Y-75246883D01*
X70177838Y-75256545D01*
X70179490Y-75257943D01*
X70266071Y-75332546D01*
X70272124Y-75336365D01*
X70285455Y-75346051D01*
X70287375Y-75347648D01*
X70287383Y-75347654D01*
X70290970Y-75350637D01*
X70294960Y-75353058D01*
X70388679Y-75409929D01*
X70390548Y-75411086D01*
X70437109Y-75440463D01*
X70487119Y-75472017D01*
X70491396Y-75473899D01*
X70491398Y-75473900D01*
X70493673Y-75474901D01*
X70508290Y-75482510D01*
X70514419Y-75486229D01*
X70518733Y-75488038D01*
X70619748Y-75530397D01*
X70621769Y-75531265D01*
X70726355Y-75577284D01*
X70730862Y-75578513D01*
X70730871Y-75578516D01*
X70733271Y-75579170D01*
X70748848Y-75584533D01*
X70755455Y-75587303D01*
X70759983Y-75588453D01*
X70759986Y-75588454D01*
X70866173Y-75615422D01*
X70868291Y-75615980D01*
X70978521Y-75646032D01*
X70983161Y-75646581D01*
X70983166Y-75646582D01*
X70985627Y-75646873D01*
X71001843Y-75649878D01*
X71008783Y-75651641D01*
X71048676Y-75655658D01*
X71122428Y-75663085D01*
X71124613Y-75663324D01*
X71212310Y-75673703D01*
X71238080Y-75676753D01*
X71342606Y-75673559D01*
X71346454Y-75673500D01*
X72732032Y-75673500D01*
X72739175Y-75673703D01*
X72813029Y-75677897D01*
X72813036Y-75677897D01*
X72817705Y-75678162D01*
X72931432Y-75667712D01*
X72933597Y-75667531D01*
X73047581Y-75659061D01*
X73054553Y-75657483D01*
X73070840Y-75654903D01*
X73077979Y-75654247D01*
X73104146Y-75647844D01*
X73188980Y-75627086D01*
X73191119Y-75626582D01*
X73243420Y-75614747D01*
X73302506Y-75601377D01*
X73306855Y-75599686D01*
X73306864Y-75599683D01*
X73309180Y-75598782D01*
X73324893Y-75593828D01*
X73327304Y-75593238D01*
X73327309Y-75593236D01*
X73331859Y-75592123D01*
X73336198Y-75590348D01*
X73437612Y-75548859D01*
X73439647Y-75548047D01*
X73442596Y-75546900D01*
X73488270Y-75538330D01*
X82540679Y-75538330D01*
X82612950Y-75561117D01*
X82692339Y-75616706D01*
X82747150Y-75646839D01*
X82888200Y-75683185D01*
X82960991Y-75680833D01*
X83024809Y-75678772D01*
X83024810Y-75678772D01*
X83033782Y-75678482D01*
X83042311Y-75675686D01*
X83042312Y-75675686D01*
X83163661Y-75635907D01*
X83163664Y-75635906D01*
X83172192Y-75633110D01*
X83278142Y-75560428D01*
X83349419Y-75538330D01*
X101452011Y-75538330D01*
X101524282Y-75561117D01*
X101606018Y-75618349D01*
X101615339Y-75624876D01*
X101618333Y-75626522D01*
X101660819Y-75649879D01*
X101670150Y-75655009D01*
X101811200Y-75691355D01*
X101883991Y-75689003D01*
X101947809Y-75686942D01*
X101947810Y-75686942D01*
X101956782Y-75686652D01*
X101965311Y-75683856D01*
X101965312Y-75683856D01*
X102086661Y-75644077D01*
X102086664Y-75644076D01*
X102095192Y-75641280D01*
X102192046Y-75574838D01*
X102213052Y-75560428D01*
X102284329Y-75538330D01*
X120380615Y-75538330D01*
X120452886Y-75561117D01*
X120532275Y-75616706D01*
X120587086Y-75646839D01*
X120728136Y-75683185D01*
X120800927Y-75680833D01*
X120864745Y-75678772D01*
X120864746Y-75678772D01*
X120873718Y-75678482D01*
X120882247Y-75675686D01*
X120882248Y-75675686D01*
X121003597Y-75635907D01*
X121003600Y-75635906D01*
X121012128Y-75633110D01*
X121118078Y-75560428D01*
X121189355Y-75538330D01*
X139430615Y-75538330D01*
X139502886Y-75561117D01*
X139582275Y-75616706D01*
X139637086Y-75646839D01*
X139778136Y-75683185D01*
X139850927Y-75680833D01*
X139914745Y-75678772D01*
X139914746Y-75678772D01*
X139923718Y-75678482D01*
X139932247Y-75675686D01*
X139932248Y-75675686D01*
X140053597Y-75635907D01*
X140053600Y-75635906D01*
X140062128Y-75633110D01*
X140182240Y-75550713D01*
X140200026Y-75530397D01*
X140221200Y-75506210D01*
X140221202Y-75506207D01*
X140223440Y-75503651D01*
X140225396Y-75500858D01*
X140282047Y-75419952D01*
X140339594Y-75374789D01*
X140343748Y-75373174D01*
X140343752Y-75373172D01*
X140348111Y-75371477D01*
X140384574Y-75350637D01*
X140432351Y-75323330D01*
X140575032Y-75241781D01*
X140780291Y-75079968D01*
X140959377Y-74889593D01*
X141074261Y-74723990D01*
X141105693Y-74678681D01*
X141105695Y-74678678D01*
X141108358Y-74674839D01*
X141136843Y-74617077D01*
X141221894Y-74444611D01*
X141221895Y-74444608D01*
X141223959Y-74440423D01*
X141303641Y-74191495D01*
X141345655Y-73933523D01*
X141345699Y-73930157D01*
X141367878Y-73869226D01*
X141423845Y-73789296D01*
X141423849Y-73789290D01*
X141425810Y-73786489D01*
X141455943Y-73731678D01*
X141492289Y-73590628D01*
X141489937Y-73517837D01*
X141487876Y-73454019D01*
X141487876Y-73454018D01*
X141487586Y-73445046D01*
X141484790Y-73436516D01*
X141445011Y-73315167D01*
X141445010Y-73315164D01*
X141442214Y-73306636D01*
X141359817Y-73186524D01*
X141312755Y-73145324D01*
X141309978Y-73143380D01*
X141309971Y-73143374D01*
X141222706Y-73082271D01*
X141180551Y-73031809D01*
X141166281Y-73000855D01*
X141131266Y-72924902D01*
X141068218Y-72828738D01*
X140990524Y-72710234D01*
X140990520Y-72710229D01*
X140987958Y-72706321D01*
X140813916Y-72511324D01*
X140612964Y-72344193D01*
X140510997Y-72282318D01*
X140463138Y-72229880D01*
X140451226Y-72159889D01*
X140479044Y-72094570D01*
X140537761Y-72054659D01*
X140576364Y-72048600D01*
X147381500Y-72048600D01*
X147449621Y-72068602D01*
X147496114Y-72122258D01*
X147507500Y-72174600D01*
X147507500Y-72273134D01*
X147514255Y-72335316D01*
X147565385Y-72471705D01*
X147652739Y-72588261D01*
X147769295Y-72675615D01*
X147777704Y-72678767D01*
X147777705Y-72678768D01*
X147886451Y-72719535D01*
X147943216Y-72762176D01*
X147967916Y-72828738D01*
X147952709Y-72898087D01*
X147933316Y-72924568D01*
X147806629Y-73057138D01*
X147803715Y-73061410D01*
X147803714Y-73061411D01*
X147791409Y-73079450D01*
X147680743Y-73241680D01*
X147665006Y-73275583D01*
X147590304Y-73436516D01*
X147586688Y-73444305D01*
X147526989Y-73659570D01*
X147503251Y-73881695D01*
X147503548Y-73886848D01*
X147503548Y-73886851D01*
X147509011Y-73981590D01*
X147516110Y-74104715D01*
X147517247Y-74109761D01*
X147517248Y-74109767D01*
X147533916Y-74183727D01*
X147565222Y-74322639D01*
X147603461Y-74416811D01*
X147645447Y-74520210D01*
X147649266Y-74529616D01*
X147765987Y-74720088D01*
X147912250Y-74888938D01*
X148084126Y-75031632D01*
X148277000Y-75144338D01*
X148485692Y-75224030D01*
X148490760Y-75225061D01*
X148490763Y-75225062D01*
X148598017Y-75246883D01*
X148704597Y-75268567D01*
X148709772Y-75268757D01*
X148709774Y-75268757D01*
X148922673Y-75276564D01*
X148922677Y-75276564D01*
X148927837Y-75276753D01*
X148932957Y-75276097D01*
X148932959Y-75276097D01*
X149144288Y-75249025D01*
X149144289Y-75249025D01*
X149149416Y-75248368D01*
X149163642Y-75244100D01*
X149358429Y-75185661D01*
X149358434Y-75185659D01*
X149363384Y-75184174D01*
X149563994Y-75085896D01*
X149745860Y-74956173D01*
X149904096Y-74798489D01*
X149963594Y-74715689D01*
X150031435Y-74621277D01*
X150034453Y-74617077D01*
X150084436Y-74515944D01*
X150132548Y-74463738D01*
X150201249Y-74445831D01*
X150268726Y-74467909D01*
X150311137Y-74520640D01*
X150311989Y-74520210D01*
X150314012Y-74524215D01*
X150314135Y-74524368D01*
X150316266Y-74529616D01*
X150432987Y-74720088D01*
X150579250Y-74888938D01*
X150751126Y-75031632D01*
X150944000Y-75144338D01*
X151152692Y-75224030D01*
X151157760Y-75225061D01*
X151157763Y-75225062D01*
X151265017Y-75246883D01*
X151371597Y-75268567D01*
X151376772Y-75268757D01*
X151376774Y-75268757D01*
X151589673Y-75276564D01*
X151589677Y-75276564D01*
X151594837Y-75276753D01*
X151599957Y-75276097D01*
X151599959Y-75276097D01*
X151811288Y-75249025D01*
X151811289Y-75249025D01*
X151816416Y-75248368D01*
X151830642Y-75244100D01*
X152025429Y-75185661D01*
X152025434Y-75185659D01*
X152030384Y-75184174D01*
X152230994Y-75085896D01*
X152412860Y-74956173D01*
X152571096Y-74798489D01*
X152630594Y-74715689D01*
X152698435Y-74621277D01*
X152701453Y-74617077D01*
X152751436Y-74515944D01*
X152799548Y-74463738D01*
X152868249Y-74445831D01*
X152935726Y-74467909D01*
X152978137Y-74520640D01*
X152978989Y-74520210D01*
X152981012Y-74524215D01*
X152981135Y-74524368D01*
X152983266Y-74529616D01*
X153099987Y-74720088D01*
X153246250Y-74888938D01*
X153418126Y-75031632D01*
X153611000Y-75144338D01*
X153819692Y-75224030D01*
X153824760Y-75225061D01*
X153824763Y-75225062D01*
X153932017Y-75246883D01*
X154038597Y-75268567D01*
X154043772Y-75268757D01*
X154043774Y-75268757D01*
X154256673Y-75276564D01*
X154256677Y-75276564D01*
X154261837Y-75276753D01*
X154266957Y-75276097D01*
X154266959Y-75276097D01*
X154478288Y-75249025D01*
X154478289Y-75249025D01*
X154483416Y-75248368D01*
X154497642Y-75244100D01*
X154692429Y-75185661D01*
X154692434Y-75185659D01*
X154697384Y-75184174D01*
X154897994Y-75085896D01*
X155079860Y-74956173D01*
X155238096Y-74798489D01*
X155297594Y-74715689D01*
X155365435Y-74621277D01*
X155368453Y-74617077D01*
X155414273Y-74524368D01*
X155465136Y-74421453D01*
X155465137Y-74421451D01*
X155467430Y-74416811D01*
X155532370Y-74203069D01*
X155561529Y-73981590D01*
X155562591Y-73938140D01*
X155563074Y-73918365D01*
X155563074Y-73918361D01*
X155563156Y-73915000D01*
X155544852Y-73692361D01*
X155490431Y-73475702D01*
X155401354Y-73270840D01*
X155318893Y-73143374D01*
X155282822Y-73087617D01*
X155282820Y-73087614D01*
X155280014Y-73083277D01*
X155261324Y-73062737D01*
X155132798Y-72921488D01*
X155101746Y-72857642D01*
X155110141Y-72787143D01*
X155155317Y-72732375D01*
X155181761Y-72718706D01*
X155288297Y-72678767D01*
X155296705Y-72675615D01*
X155413261Y-72588261D01*
X155500615Y-72471705D01*
X155551745Y-72335316D01*
X155558500Y-72273134D01*
X155558500Y-70476866D01*
X155551745Y-70414684D01*
X155500615Y-70278295D01*
X155413261Y-70161739D01*
X155296705Y-70074385D01*
X155160316Y-70023255D01*
X155098134Y-70016500D01*
X154999600Y-70016500D01*
X154931479Y-69996498D01*
X154884986Y-69942842D01*
X154873600Y-69890500D01*
X154873600Y-69867698D01*
X154873892Y-69859128D01*
X154877101Y-69812064D01*
X154877101Y-69812060D01*
X154877617Y-69804488D01*
X154876312Y-69797012D01*
X154876312Y-69797008D01*
X154867199Y-69744794D01*
X154866236Y-69738269D01*
X154859872Y-69685683D01*
X154858960Y-69678144D01*
X154856276Y-69671041D01*
X154854862Y-69665282D01*
X154852613Y-69657061D01*
X154850893Y-69651364D01*
X154849586Y-69643878D01*
X154839168Y-69620145D01*
X154830101Y-69549732D01*
X154860543Y-69485593D01*
X154920829Y-69448094D01*
X154954541Y-69443500D01*
X155098134Y-69443500D01*
X155160316Y-69436745D01*
X155296705Y-69385615D01*
X155413261Y-69298261D01*
X155500615Y-69181705D01*
X155551745Y-69045316D01*
X155558500Y-68983134D01*
X155558500Y-67186866D01*
X155551745Y-67124684D01*
X155500615Y-66988295D01*
X155413261Y-66871739D01*
X155296705Y-66784385D01*
X155261622Y-66771233D01*
X155178203Y-66739960D01*
X155121439Y-66697318D01*
X155096739Y-66630756D01*
X155111947Y-66561408D01*
X155133493Y-66532727D01*
X155179142Y-66487237D01*
X155238096Y-66428489D01*
X155242661Y-66422137D01*
X155365435Y-66251277D01*
X155368453Y-66247077D01*
X155371036Y-66241852D01*
X155465136Y-66051453D01*
X155465137Y-66051451D01*
X155467430Y-66046811D01*
X155499900Y-65939940D01*
X155530865Y-65838023D01*
X155530865Y-65838021D01*
X155532370Y-65833069D01*
X155561529Y-65611590D01*
X155561611Y-65608240D01*
X155563074Y-65548365D01*
X155563074Y-65548361D01*
X155563156Y-65545000D01*
X155544852Y-65322361D01*
X155490431Y-65105702D01*
X155401354Y-64900840D01*
X155308568Y-64757415D01*
X155282822Y-64717617D01*
X155282820Y-64717614D01*
X155280014Y-64713277D01*
X155129670Y-64548051D01*
X155125619Y-64544852D01*
X155125615Y-64544848D01*
X154958414Y-64412800D01*
X154958410Y-64412798D01*
X154954359Y-64409598D01*
X154913053Y-64386796D01*
X154863084Y-64336364D01*
X154848312Y-64266921D01*
X154873428Y-64200516D01*
X154900780Y-64173909D01*
X154967883Y-64126045D01*
X155079860Y-64046173D01*
X155238096Y-63888489D01*
X155242661Y-63882137D01*
X155365435Y-63711277D01*
X155368453Y-63707077D01*
X155373396Y-63697077D01*
X155465136Y-63511453D01*
X155465137Y-63511451D01*
X155467430Y-63506811D01*
X155522890Y-63324271D01*
X155530865Y-63298023D01*
X155530865Y-63298021D01*
X155532370Y-63293069D01*
X155561529Y-63071590D01*
X155562103Y-63048088D01*
X155563074Y-63008365D01*
X155563074Y-63008361D01*
X155563156Y-63005000D01*
X155544852Y-62782361D01*
X155490431Y-62565702D01*
X155401354Y-62360840D01*
X155306330Y-62213955D01*
X155282822Y-62177617D01*
X155282820Y-62177614D01*
X155280014Y-62173277D01*
X155276538Y-62169457D01*
X155276533Y-62169450D01*
X155224267Y-62112011D01*
X155193215Y-62048165D01*
X155201610Y-61977666D01*
X155246786Y-61922898D01*
X155317460Y-61901211D01*
X155676269Y-61901211D01*
X155684510Y-61901481D01*
X155749135Y-61905717D01*
X155837047Y-61895312D01*
X155840260Y-61894975D01*
X155928353Y-61886880D01*
X155933913Y-61885312D01*
X155937486Y-61884650D01*
X155948489Y-61882461D01*
X155952102Y-61881693D01*
X155957839Y-61881014D01*
X156042350Y-61854773D01*
X156045447Y-61853857D01*
X156130623Y-61829834D01*
X156135811Y-61827276D01*
X156139262Y-61825951D01*
X156149640Y-61821810D01*
X156153027Y-61820407D01*
X156158547Y-61818693D01*
X156236820Y-61777512D01*
X156239756Y-61776016D01*
X156272411Y-61759912D01*
X156319111Y-61736882D01*
X156323742Y-61733424D01*
X156326945Y-61731461D01*
X156336332Y-61725538D01*
X156339425Y-61723529D01*
X156344537Y-61720840D01*
X156414030Y-61666055D01*
X156416600Y-61664084D01*
X156482875Y-61614595D01*
X156482882Y-61614588D01*
X156487503Y-61611138D01*
X156510385Y-61586385D01*
X156543336Y-61550738D01*
X156546766Y-61547172D01*
X157758304Y-60335634D01*
X157764322Y-60329997D01*
X157772587Y-60322749D01*
X157813019Y-60287291D01*
X157867798Y-60217803D01*
X157869876Y-60215238D01*
X157922734Y-60151685D01*
X157922738Y-60151680D01*
X157926426Y-60147245D01*
X157929245Y-60142211D01*
X157931314Y-60139201D01*
X157937508Y-60129931D01*
X157939551Y-60126786D01*
X157943128Y-60122248D01*
X157957727Y-60094501D01*
X157984312Y-60043969D01*
X157985887Y-60041069D01*
X157987766Y-60037715D01*
X158012369Y-59993783D01*
X158026291Y-59968924D01*
X158026292Y-59968922D01*
X158029115Y-59963881D01*
X158030972Y-59958409D01*
X158032486Y-59955009D01*
X158036873Y-59944798D01*
X158038295Y-59941364D01*
X158040982Y-59936258D01*
X158059010Y-59878199D01*
X158067212Y-59851786D01*
X158068231Y-59848650D01*
X158094813Y-59770340D01*
X158096669Y-59764873D01*
X158097498Y-59759160D01*
X158098341Y-59755647D01*
X158100833Y-59744634D01*
X158101591Y-59741067D01*
X158103304Y-59735551D01*
X158107187Y-59702749D01*
X158110163Y-59677603D01*
X158113704Y-59647686D01*
X158114132Y-59644434D01*
X158125998Y-59562601D01*
X158125998Y-59562596D01*
X158126826Y-59556887D01*
X158123597Y-59474715D01*
X158123500Y-59469768D01*
X158123500Y-45202805D01*
X158123770Y-45194564D01*
X158126295Y-45156043D01*
X158128006Y-45129939D01*
X158127173Y-45122904D01*
X158125499Y-45108755D01*
X158137356Y-45038755D01*
X158185176Y-44986278D01*
X158253775Y-44967985D01*
X158315614Y-44986000D01*
X158505788Y-45100494D01*
X158509883Y-45102228D01*
X158509885Y-45102229D01*
X158757086Y-45206905D01*
X158757093Y-45206907D01*
X158761187Y-45208641D01*
X158818412Y-45223814D01*
X159024979Y-45278585D01*
X159024984Y-45278586D01*
X159029276Y-45279724D01*
X159033685Y-45280246D01*
X159033691Y-45280247D01*
X159211403Y-45301280D01*
X159304706Y-45312323D01*
X159581982Y-45305789D01*
X159690780Y-45287680D01*
X159851181Y-45260982D01*
X159851185Y-45260981D01*
X159855571Y-45260251D01*
X159859812Y-45258910D01*
X159859815Y-45258909D01*
X160115768Y-45177962D01*
X160115770Y-45177961D01*
X160120014Y-45176619D01*
X160124025Y-45174693D01*
X160124030Y-45174691D01*
X160366016Y-45058491D01*
X160366017Y-45058490D01*
X160370035Y-45056561D01*
X160525477Y-44952698D01*
X160596937Y-44904950D01*
X160596941Y-44904947D01*
X160600645Y-44902472D01*
X160745788Y-44772471D01*
X160803925Y-44720399D01*
X160803926Y-44720398D01*
X160807243Y-44717427D01*
X160985707Y-44505118D01*
X161132476Y-44269782D01*
X161244622Y-44016113D01*
X161252841Y-43986973D01*
X161289116Y-43858350D01*
X161319907Y-43749173D01*
X161333697Y-43646507D01*
X161356401Y-43477471D01*
X161356402Y-43477463D01*
X161356828Y-43474289D01*
X161357473Y-43453765D01*
X161360602Y-43354222D01*
X161360602Y-43354217D01*
X161360703Y-43351000D01*
X161341114Y-43074340D01*
X161308712Y-42923834D01*
X161283676Y-42807547D01*
X161283675Y-42807545D01*
X161282740Y-42803200D01*
X161186743Y-42542990D01*
X161158859Y-42491311D01*
X161057153Y-42302818D01*
X161055040Y-42298902D01*
X160890259Y-42075807D01*
X160887140Y-42072638D01*
X160887136Y-42072634D01*
X160794315Y-41978343D01*
X160695688Y-41878155D01*
X160692148Y-41875453D01*
X160478753Y-41712595D01*
X160478749Y-41712592D01*
X160475208Y-41709890D01*
X160233219Y-41574369D01*
X160229070Y-41572764D01*
X160229066Y-41572762D01*
X160073864Y-41512720D01*
X159974549Y-41474298D01*
X159970224Y-41473295D01*
X159970219Y-41473294D01*
X159861929Y-41448194D01*
X159704360Y-41411671D01*
X159621910Y-41404530D01*
X159555769Y-41378725D01*
X159514079Y-41321257D01*
X159510077Y-41250374D01*
X159545032Y-41188579D01*
X159607848Y-41155492D01*
X159632782Y-41153000D01*
X161494400Y-41153000D01*
X161562521Y-41173002D01*
X161609014Y-41226658D01*
X161620400Y-41279000D01*
X161620400Y-80011000D01*
X161600398Y-80079121D01*
X161546742Y-80125614D01*
X161494400Y-80137000D01*
X62762400Y-80137000D01*
X62694279Y-80116998D01*
X62647786Y-80063342D01*
X62636400Y-80011000D01*
X62636400Y-77789325D01*
X62934666Y-77789325D01*
X62945555Y-78066464D01*
X62995384Y-78339303D01*
X63083160Y-78602400D01*
X63085152Y-78606387D01*
X63085153Y-78606389D01*
X63166796Y-78769782D01*
X63207130Y-78850504D01*
X63364823Y-79078666D01*
X63367845Y-79081935D01*
X63550074Y-79279070D01*
X63550079Y-79279075D01*
X63553090Y-79282332D01*
X63768175Y-79457439D01*
X64005788Y-79600494D01*
X64009883Y-79602228D01*
X64009885Y-79602229D01*
X64257086Y-79706905D01*
X64257093Y-79706907D01*
X64261187Y-79708641D01*
X64359960Y-79734830D01*
X64524979Y-79778585D01*
X64524984Y-79778586D01*
X64529276Y-79779724D01*
X64533685Y-79780246D01*
X64533691Y-79780247D01*
X64713863Y-79801571D01*
X64804706Y-79812323D01*
X65081982Y-79805789D01*
X65168218Y-79791435D01*
X65351181Y-79760982D01*
X65351185Y-79760981D01*
X65355571Y-79760251D01*
X65359812Y-79758910D01*
X65359815Y-79758909D01*
X65615768Y-79677962D01*
X65615770Y-79677961D01*
X65620014Y-79676619D01*
X65624025Y-79674693D01*
X65624030Y-79674691D01*
X65866016Y-79558491D01*
X65866017Y-79558490D01*
X65870035Y-79556561D01*
X66022593Y-79454625D01*
X66096937Y-79404950D01*
X66096941Y-79404947D01*
X66100645Y-79402472D01*
X66307243Y-79217427D01*
X66485707Y-79005118D01*
X66632476Y-78769782D01*
X66744622Y-78516113D01*
X66819907Y-78249173D01*
X66856828Y-77974289D01*
X66860703Y-77851000D01*
X66856336Y-77789325D01*
X157434666Y-77789325D01*
X157445555Y-78066464D01*
X157495384Y-78339303D01*
X157583160Y-78602400D01*
X157585152Y-78606387D01*
X157585153Y-78606389D01*
X157666796Y-78769782D01*
X157707130Y-78850504D01*
X157864823Y-79078666D01*
X157867845Y-79081935D01*
X158050074Y-79279070D01*
X158050079Y-79279075D01*
X158053090Y-79282332D01*
X158268175Y-79457439D01*
X158505788Y-79600494D01*
X158509883Y-79602228D01*
X158509885Y-79602229D01*
X158757086Y-79706905D01*
X158757093Y-79706907D01*
X158761187Y-79708641D01*
X158859960Y-79734830D01*
X159024979Y-79778585D01*
X159024984Y-79778586D01*
X159029276Y-79779724D01*
X159033685Y-79780246D01*
X159033691Y-79780247D01*
X159213863Y-79801571D01*
X159304706Y-79812323D01*
X159581982Y-79805789D01*
X159668218Y-79791435D01*
X159851181Y-79760982D01*
X159851185Y-79760981D01*
X159855571Y-79760251D01*
X159859812Y-79758910D01*
X159859815Y-79758909D01*
X160115768Y-79677962D01*
X160115770Y-79677961D01*
X160120014Y-79676619D01*
X160124025Y-79674693D01*
X160124030Y-79674691D01*
X160366016Y-79558491D01*
X160366017Y-79558490D01*
X160370035Y-79556561D01*
X160522593Y-79454625D01*
X160596937Y-79404950D01*
X160596941Y-79404947D01*
X160600645Y-79402472D01*
X160807243Y-79217427D01*
X160985707Y-79005118D01*
X161132476Y-78769782D01*
X161244622Y-78516113D01*
X161319907Y-78249173D01*
X161356828Y-77974289D01*
X161360703Y-77851000D01*
X161341114Y-77574340D01*
X161282740Y-77303200D01*
X161186743Y-77042990D01*
X161158859Y-76991311D01*
X161057153Y-76802818D01*
X161055040Y-76798902D01*
X160890259Y-76575807D01*
X160887140Y-76572638D01*
X160887136Y-76572634D01*
X160794315Y-76478343D01*
X160695688Y-76378155D01*
X160692148Y-76375453D01*
X160478753Y-76212595D01*
X160478749Y-76212592D01*
X160475208Y-76209890D01*
X160233219Y-76074369D01*
X160229070Y-76072764D01*
X160229066Y-76072762D01*
X160073864Y-76012720D01*
X159974549Y-75974298D01*
X159970224Y-75973295D01*
X159970219Y-75973294D01*
X159861929Y-75948194D01*
X159704360Y-75911671D01*
X159428041Y-75887739D01*
X159423606Y-75887983D01*
X159423602Y-75887983D01*
X159155551Y-75902735D01*
X159155544Y-75902736D01*
X159151108Y-75902980D01*
X159016117Y-75929831D01*
X158883456Y-75956219D01*
X158883451Y-75956220D01*
X158879084Y-75957089D01*
X158874881Y-75958565D01*
X158621607Y-76047508D01*
X158621604Y-76047509D01*
X158617399Y-76048986D01*
X158613446Y-76051039D01*
X158613440Y-76051042D01*
X158473934Y-76123510D01*
X158371273Y-76176838D01*
X158367658Y-76179421D01*
X158367652Y-76179425D01*
X158224871Y-76281458D01*
X158145616Y-76338095D01*
X157944932Y-76529538D01*
X157773225Y-76747348D01*
X157770993Y-76751190D01*
X157770990Y-76751195D01*
X157636158Y-76983324D01*
X157636155Y-76983330D01*
X157633920Y-76987178D01*
X157632246Y-76991311D01*
X157531471Y-77240112D01*
X157531468Y-77240120D01*
X157529798Y-77244244D01*
X157462935Y-77513417D01*
X157434666Y-77789325D01*
X66856336Y-77789325D01*
X66841114Y-77574340D01*
X66782740Y-77303200D01*
X66686743Y-77042990D01*
X66658859Y-76991311D01*
X66557153Y-76802818D01*
X66555040Y-76798902D01*
X66390259Y-76575807D01*
X66387140Y-76572638D01*
X66387136Y-76572634D01*
X66294315Y-76478343D01*
X66195688Y-76378155D01*
X66192148Y-76375453D01*
X65978753Y-76212595D01*
X65978749Y-76212592D01*
X65975208Y-76209890D01*
X65733219Y-76074369D01*
X65729070Y-76072764D01*
X65729066Y-76072762D01*
X65573864Y-76012720D01*
X65474549Y-75974298D01*
X65470224Y-75973295D01*
X65470219Y-75973294D01*
X65361929Y-75948194D01*
X65204360Y-75911671D01*
X64928041Y-75887739D01*
X64923606Y-75887983D01*
X64923602Y-75887983D01*
X64655551Y-75902735D01*
X64655544Y-75902736D01*
X64651108Y-75902980D01*
X64516117Y-75929831D01*
X64383456Y-75956219D01*
X64383451Y-75956220D01*
X64379084Y-75957089D01*
X64374881Y-75958565D01*
X64121607Y-76047508D01*
X64121604Y-76047509D01*
X64117399Y-76048986D01*
X64113446Y-76051039D01*
X64113440Y-76051042D01*
X63973934Y-76123510D01*
X63871273Y-76176838D01*
X63867658Y-76179421D01*
X63867652Y-76179425D01*
X63724871Y-76281458D01*
X63645616Y-76338095D01*
X63444932Y-76529538D01*
X63273225Y-76747348D01*
X63270993Y-76751190D01*
X63270990Y-76751195D01*
X63136158Y-76983324D01*
X63136155Y-76983330D01*
X63133920Y-76987178D01*
X63132246Y-76991311D01*
X63031471Y-77240112D01*
X63031468Y-77240120D01*
X63029798Y-77244244D01*
X62962935Y-77513417D01*
X62934666Y-77789325D01*
X62636400Y-77789325D01*
X62636400Y-41279000D01*
X62656402Y-41210879D01*
X62710058Y-41164386D01*
X62762400Y-41153000D01*
X64629701Y-41153000D01*
X64697822Y-41173002D01*
G37*
%TD.AperFunction*%
%TA.AperFunction,Conductor*%
G36*
X148494532Y-55932249D02*
G01*
X148551368Y-55974796D01*
X148576179Y-56041316D01*
X148576500Y-56050305D01*
X148576500Y-57238134D01*
X148583255Y-57300316D01*
X148634385Y-57436705D01*
X148721739Y-57553261D01*
X148746065Y-57571492D01*
X148788580Y-57628350D01*
X148796500Y-57672318D01*
X148796500Y-57741429D01*
X148776498Y-57809550D01*
X148746065Y-57842255D01*
X148726739Y-57856739D01*
X148639385Y-57973295D01*
X148588255Y-58109684D01*
X148581500Y-58171866D01*
X148581500Y-59968134D01*
X148588255Y-60030316D01*
X148639385Y-60166705D01*
X148726739Y-60283261D01*
X148843295Y-60370615D01*
X148979684Y-60421745D01*
X149041866Y-60428500D01*
X149629157Y-60428500D01*
X149697278Y-60448502D01*
X149718252Y-60465405D01*
X150788862Y-61536015D01*
X150794499Y-61542033D01*
X150837205Y-61590730D01*
X150841739Y-61594304D01*
X150841745Y-61594310D01*
X150862335Y-61610541D01*
X150903449Y-61668421D01*
X150906744Y-61739341D01*
X150871174Y-61800784D01*
X150842517Y-61821252D01*
X150803607Y-61841507D01*
X150799474Y-61844610D01*
X150799471Y-61844612D01*
X150629100Y-61972530D01*
X150624965Y-61975635D01*
X150470629Y-62137138D01*
X150467715Y-62141410D01*
X150467714Y-62141411D01*
X150445977Y-62173277D01*
X150344743Y-62321680D01*
X150342567Y-62326369D01*
X150342563Y-62326375D01*
X150307670Y-62401547D01*
X150260846Y-62454914D01*
X150192602Y-62474495D01*
X150124607Y-62454071D01*
X150077833Y-62398739D01*
X150061354Y-62360840D01*
X149966330Y-62213955D01*
X149942822Y-62177617D01*
X149942820Y-62177614D01*
X149940014Y-62173277D01*
X149789670Y-62008051D01*
X149785619Y-62004852D01*
X149785615Y-62004848D01*
X149618414Y-61872800D01*
X149618410Y-61872798D01*
X149614359Y-61869598D01*
X149586649Y-61854301D01*
X149559155Y-61839124D01*
X149418789Y-61761638D01*
X149413920Y-61759914D01*
X149413916Y-61759912D01*
X149213087Y-61688795D01*
X149213083Y-61688794D01*
X149208212Y-61687069D01*
X149203119Y-61686162D01*
X149203116Y-61686161D01*
X148993373Y-61648800D01*
X148993367Y-61648799D01*
X148988284Y-61647894D01*
X148914452Y-61646992D01*
X148770081Y-61645228D01*
X148770079Y-61645228D01*
X148764911Y-61645165D01*
X148544091Y-61678955D01*
X148331756Y-61748357D01*
X148301443Y-61764137D01*
X148182700Y-61825951D01*
X148133607Y-61851507D01*
X148129474Y-61854610D01*
X148129471Y-61854612D01*
X147963305Y-61979373D01*
X147954965Y-61985635D01*
X147800629Y-62147138D01*
X147797715Y-62151410D01*
X147797714Y-62151411D01*
X147751699Y-62218866D01*
X147674743Y-62331680D01*
X147659003Y-62365590D01*
X147603231Y-62485741D01*
X147580688Y-62534305D01*
X147520989Y-62749570D01*
X147497251Y-62971695D01*
X147497548Y-62976848D01*
X147497548Y-62976851D01*
X147506665Y-63134960D01*
X147510110Y-63194715D01*
X147511247Y-63199761D01*
X147511248Y-63199767D01*
X147530022Y-63283069D01*
X147559222Y-63412639D01*
X147611805Y-63542137D01*
X147640666Y-63613212D01*
X147643266Y-63619616D01*
X147682477Y-63683602D01*
X147739865Y-63777251D01*
X147759987Y-63810088D01*
X147906250Y-63978938D01*
X148078126Y-64121632D01*
X148095734Y-64131921D01*
X148151445Y-64164476D01*
X148200169Y-64216114D01*
X148213240Y-64285897D01*
X148186509Y-64351669D01*
X148146055Y-64385027D01*
X148133607Y-64391507D01*
X148129474Y-64394610D01*
X148129471Y-64394612D01*
X147963305Y-64519373D01*
X147954965Y-64525635D01*
X147800629Y-64687138D01*
X147797715Y-64691410D01*
X147797714Y-64691411D01*
X147758314Y-64749169D01*
X147674743Y-64871680D01*
X147656416Y-64911162D01*
X147591904Y-65050143D01*
X147580688Y-65074305D01*
X147520989Y-65289570D01*
X147497251Y-65511695D01*
X147497548Y-65516848D01*
X147497548Y-65516851D01*
X147502996Y-65611340D01*
X147510110Y-65734715D01*
X147511247Y-65739761D01*
X147511248Y-65739767D01*
X147516080Y-65761206D01*
X147559222Y-65952639D01*
X147607509Y-66071556D01*
X147634531Y-66138103D01*
X147643266Y-66159616D01*
X147645965Y-66164020D01*
X147735201Y-66309640D01*
X147759987Y-66350088D01*
X147906250Y-66518938D01*
X147910230Y-66522242D01*
X147914981Y-66526187D01*
X147954616Y-66585090D01*
X147956113Y-66656071D01*
X147918997Y-66716593D01*
X147878724Y-66741112D01*
X147763295Y-66784385D01*
X147646739Y-66871739D01*
X147559385Y-66988295D01*
X147508255Y-67124684D01*
X147501500Y-67186866D01*
X147501500Y-68580400D01*
X147481498Y-68648521D01*
X147427842Y-68695014D01*
X147375500Y-68706400D01*
X139471204Y-68706400D01*
X139403083Y-68686398D01*
X139382109Y-68669495D01*
X137342614Y-66630000D01*
X140916496Y-66630000D01*
X140936458Y-66819928D01*
X140995473Y-67001556D01*
X141090960Y-67166944D01*
X141095378Y-67171851D01*
X141095379Y-67171852D01*
X141159741Y-67243333D01*
X141218747Y-67308866D01*
X141295649Y-67364739D01*
X141367502Y-67416943D01*
X141373248Y-67421118D01*
X141379276Y-67423802D01*
X141379278Y-67423803D01*
X141534703Y-67493002D01*
X141547712Y-67498794D01*
X141641112Y-67518647D01*
X141728056Y-67537128D01*
X141728061Y-67537128D01*
X141734513Y-67538500D01*
X141925487Y-67538500D01*
X141931939Y-67537128D01*
X141931944Y-67537128D01*
X142018888Y-67518647D01*
X142112288Y-67498794D01*
X142125297Y-67493002D01*
X142280722Y-67423803D01*
X142280724Y-67423802D01*
X142286752Y-67421118D01*
X142292499Y-67416943D01*
X142364351Y-67364739D01*
X142441253Y-67308866D01*
X142500259Y-67243333D01*
X142564621Y-67171852D01*
X142564622Y-67171851D01*
X142569040Y-67166944D01*
X142664527Y-67001556D01*
X142723542Y-66819928D01*
X142743504Y-66630000D01*
X142731542Y-66516187D01*
X142724232Y-66446635D01*
X142724232Y-66446633D01*
X142723542Y-66440072D01*
X142664527Y-66258444D01*
X142650450Y-66234061D01*
X142610011Y-66164020D01*
X142569040Y-66093056D01*
X142554835Y-66077279D01*
X142445675Y-65956045D01*
X142445674Y-65956044D01*
X142441253Y-65951134D01*
X142286752Y-65838882D01*
X142280724Y-65836198D01*
X142280722Y-65836197D01*
X142118319Y-65763891D01*
X142118318Y-65763891D01*
X142112288Y-65761206D01*
X142011426Y-65739767D01*
X141931944Y-65722872D01*
X141931939Y-65722872D01*
X141925487Y-65721500D01*
X141734513Y-65721500D01*
X141728061Y-65722872D01*
X141728056Y-65722872D01*
X141648574Y-65739767D01*
X141547712Y-65761206D01*
X141541682Y-65763891D01*
X141541681Y-65763891D01*
X141379278Y-65836197D01*
X141379276Y-65836198D01*
X141373248Y-65838882D01*
X141218747Y-65951134D01*
X141214326Y-65956044D01*
X141214325Y-65956045D01*
X141105166Y-66077279D01*
X141090960Y-66093056D01*
X141049989Y-66164020D01*
X141009551Y-66234061D01*
X140995473Y-66258444D01*
X140936458Y-66440072D01*
X140935768Y-66446633D01*
X140935768Y-66446635D01*
X140928458Y-66516187D01*
X140916496Y-66630000D01*
X137342614Y-66630000D01*
X136192879Y-65480265D01*
X136158853Y-65417953D01*
X136163918Y-65347138D01*
X136206465Y-65290302D01*
X136230725Y-65276063D01*
X136280722Y-65253803D01*
X136280724Y-65253802D01*
X136286752Y-65251118D01*
X136407959Y-65163056D01*
X136415380Y-65157664D01*
X136482248Y-65133806D01*
X136489441Y-65133600D01*
X138882291Y-65133600D01*
X138890862Y-65133892D01*
X138945512Y-65137618D01*
X139005235Y-65127194D01*
X139011725Y-65126237D01*
X139071856Y-65118960D01*
X139078965Y-65116274D01*
X139084762Y-65114850D01*
X139092917Y-65112620D01*
X139098641Y-65110892D01*
X139106122Y-65109586D01*
X139161594Y-65085235D01*
X139167699Y-65082744D01*
X139217263Y-65064016D01*
X139217265Y-65064015D01*
X139224368Y-65061331D01*
X139230627Y-65057030D01*
X139235894Y-65054276D01*
X139243319Y-65050143D01*
X139248451Y-65047108D01*
X139255408Y-65044054D01*
X139261434Y-65039430D01*
X139261436Y-65039429D01*
X139303466Y-65007178D01*
X139308804Y-65003300D01*
X139352469Y-64973291D01*
X139352476Y-64973285D01*
X139358731Y-64968986D01*
X139398019Y-64924890D01*
X139403001Y-64919614D01*
X148361405Y-55961210D01*
X148423717Y-55927184D01*
X148494532Y-55932249D01*
G37*
%TD.AperFunction*%
%TA.AperFunction,Conductor*%
G36*
X134637118Y-58705191D02*
G01*
X134683611Y-58758847D01*
X134693715Y-58829121D01*
X134664221Y-58893701D01*
X134620246Y-58926296D01*
X134477195Y-58989986D01*
X134477193Y-58989987D01*
X134471165Y-58992671D01*
X134316664Y-59104923D01*
X134312246Y-59109830D01*
X134312242Y-59109834D01*
X134203933Y-59230124D01*
X134188877Y-59246845D01*
X134172778Y-59274729D01*
X134108957Y-59385271D01*
X134093390Y-59412233D01*
X134034375Y-59593861D01*
X134033685Y-59600422D01*
X134033685Y-59600424D01*
X134016371Y-59765159D01*
X133989358Y-59830816D01*
X133931136Y-59871446D01*
X133891061Y-59877989D01*
X126210395Y-59877989D01*
X126142274Y-59857987D01*
X126095781Y-59804331D01*
X126085677Y-59734057D01*
X126096200Y-59698740D01*
X126126561Y-59633630D01*
X126126563Y-59633625D01*
X126128886Y-59628643D01*
X126162340Y-59503794D01*
X126186721Y-59412802D01*
X126186721Y-59412800D01*
X126188145Y-59407487D01*
X126208100Y-59179400D01*
X126188145Y-58951313D01*
X126183127Y-58932584D01*
X126184817Y-58861608D01*
X126215738Y-58810879D01*
X126304522Y-58722094D01*
X126366834Y-58688069D01*
X126393618Y-58685189D01*
X134568997Y-58685189D01*
X134637118Y-58705191D01*
G37*
%TD.AperFunction*%
%TA.AperFunction,Conductor*%
G36*
X155087012Y-44884619D02*
G01*
X155093595Y-44890748D01*
X155799595Y-45596748D01*
X155833621Y-45659060D01*
X155836500Y-45685843D01*
X155836500Y-58970942D01*
X155816498Y-59039063D01*
X155799595Y-59060037D01*
X155282326Y-59577306D01*
X155220014Y-59611332D01*
X155193231Y-59614211D01*
X153904516Y-59614211D01*
X153836395Y-59594209D01*
X153789902Y-59540553D01*
X153779798Y-59470279D01*
X153783958Y-59451582D01*
X153786325Y-59443794D01*
X153812370Y-59358069D01*
X153841529Y-59136590D01*
X153842303Y-59104923D01*
X153843074Y-59073365D01*
X153843074Y-59073361D01*
X153843156Y-59070000D01*
X153824852Y-58847361D01*
X153770431Y-58630702D01*
X153681354Y-58425840D01*
X153560014Y-58238277D01*
X153409670Y-58073051D01*
X153405619Y-58069852D01*
X153405615Y-58069848D01*
X153238414Y-57937800D01*
X153238410Y-57937798D01*
X153234359Y-57934598D01*
X153038789Y-57826638D01*
X153033472Y-57824755D01*
X153025137Y-57821803D01*
X152967601Y-57780208D01*
X152941687Y-57714110D01*
X152955622Y-57644494D01*
X153004982Y-57593464D01*
X153011730Y-57589899D01*
X153172994Y-57510896D01*
X153354860Y-57381173D01*
X153362982Y-57373080D01*
X153498616Y-57237918D01*
X153513096Y-57223489D01*
X153643453Y-57042077D01*
X153668852Y-56990687D01*
X153740136Y-56846453D01*
X153740137Y-56846451D01*
X153742430Y-56841811D01*
X153784746Y-56702532D01*
X153805865Y-56633023D01*
X153805865Y-56633021D01*
X153807370Y-56628069D01*
X153836529Y-56406590D01*
X153836664Y-56401071D01*
X153838074Y-56343365D01*
X153838074Y-56343361D01*
X153838156Y-56340000D01*
X153819852Y-56117361D01*
X153765431Y-55900702D01*
X153676354Y-55695840D01*
X153633788Y-55630043D01*
X153557822Y-55512617D01*
X153557820Y-55512614D01*
X153555014Y-55508277D01*
X153404670Y-55343051D01*
X153400619Y-55339852D01*
X153400615Y-55339848D01*
X153233414Y-55207800D01*
X153233410Y-55207798D01*
X153229359Y-55204598D01*
X153223974Y-55201625D01*
X153102637Y-55134644D01*
X153033789Y-55096638D01*
X153028920Y-55094914D01*
X153028916Y-55094912D01*
X152828087Y-55023795D01*
X152828083Y-55023794D01*
X152823212Y-55022069D01*
X152818119Y-55021162D01*
X152818116Y-55021161D01*
X152608373Y-54983800D01*
X152608367Y-54983799D01*
X152603284Y-54982894D01*
X152529452Y-54981992D01*
X152385081Y-54980228D01*
X152385079Y-54980228D01*
X152379911Y-54980165D01*
X152159091Y-55013955D01*
X151946756Y-55083357D01*
X151748607Y-55186507D01*
X151744474Y-55189610D01*
X151744471Y-55189612D01*
X151594622Y-55302122D01*
X151569965Y-55320635D01*
X151513537Y-55379684D01*
X151489283Y-55405064D01*
X151427759Y-55440494D01*
X151356846Y-55437037D01*
X151299060Y-55395791D01*
X151280207Y-55362243D01*
X151238767Y-55251703D01*
X151235615Y-55243295D01*
X151148261Y-55126739D01*
X151103141Y-55092923D01*
X151060626Y-55036066D01*
X151055600Y-54965247D01*
X151089611Y-54903003D01*
X152400520Y-53592094D01*
X152406786Y-53586240D01*
X152448070Y-53550226D01*
X152482917Y-53500644D01*
X152486850Y-53495349D01*
X152519525Y-53453676D01*
X152524215Y-53447695D01*
X152527344Y-53440765D01*
X152530451Y-53435635D01*
X152534625Y-53428319D01*
X152537450Y-53423051D01*
X152541817Y-53416837D01*
X152548354Y-53400072D01*
X152563822Y-53360398D01*
X152566378Y-53354317D01*
X152588184Y-53306022D01*
X152591308Y-53299103D01*
X152592692Y-53291638D01*
X152594482Y-53285925D01*
X152596783Y-53277848D01*
X152598281Y-53272014D01*
X152601040Y-53264937D01*
X152602143Y-53256565D01*
X152608948Y-53204873D01*
X152609980Y-53198359D01*
X152619635Y-53146264D01*
X152621019Y-53138796D01*
X152620112Y-53123056D01*
X152617620Y-53079846D01*
X152617411Y-53072593D01*
X152617411Y-51787395D01*
X152637413Y-51719274D01*
X152654315Y-51698300D01*
X152880083Y-51472532D01*
X153111672Y-51240942D01*
X153173985Y-51206917D01*
X153225889Y-51206567D01*
X153358597Y-51233567D01*
X153363772Y-51233757D01*
X153363774Y-51233757D01*
X153576673Y-51241564D01*
X153576677Y-51241564D01*
X153581837Y-51241753D01*
X153586957Y-51241097D01*
X153586959Y-51241097D01*
X153798288Y-51214025D01*
X153798289Y-51214025D01*
X153803416Y-51213368D01*
X153871076Y-51193069D01*
X154012429Y-51150661D01*
X154012434Y-51150659D01*
X154017384Y-51149174D01*
X154217994Y-51050896D01*
X154399860Y-50921173D01*
X154413443Y-50907638D01*
X154554435Y-50767137D01*
X154558096Y-50763489D01*
X154641748Y-50647075D01*
X154685435Y-50586277D01*
X154688453Y-50582077D01*
X154713455Y-50531490D01*
X154785136Y-50386453D01*
X154785137Y-50386451D01*
X154787430Y-50381811D01*
X154828722Y-50245902D01*
X154850865Y-50173023D01*
X154850865Y-50173021D01*
X154852370Y-50168069D01*
X154881529Y-49946590D01*
X154883156Y-49880000D01*
X154864852Y-49657361D01*
X154810431Y-49440702D01*
X154721354Y-49235840D01*
X154662424Y-49144748D01*
X154602822Y-49052617D01*
X154602820Y-49052614D01*
X154600014Y-49048277D01*
X154449670Y-48883051D01*
X154445619Y-48879852D01*
X154445615Y-48879848D01*
X154278414Y-48747800D01*
X154278410Y-48747798D01*
X154274359Y-48744598D01*
X154233053Y-48721796D01*
X154183084Y-48671364D01*
X154168312Y-48601921D01*
X154193428Y-48535516D01*
X154220780Y-48508909D01*
X154283827Y-48463938D01*
X154399860Y-48381173D01*
X154416618Y-48364474D01*
X154542036Y-48239493D01*
X154558096Y-48223489D01*
X154577135Y-48196994D01*
X154685435Y-48046277D01*
X154688453Y-48042077D01*
X154696943Y-48024900D01*
X154785136Y-47846453D01*
X154785137Y-47846451D01*
X154787430Y-47841811D01*
X154852370Y-47628069D01*
X154881529Y-47406590D01*
X154882604Y-47362598D01*
X154883074Y-47343365D01*
X154883074Y-47343361D01*
X154883156Y-47340000D01*
X154864852Y-47117361D01*
X154810431Y-46900702D01*
X154721354Y-46695840D01*
X154618945Y-46537540D01*
X154602822Y-46512617D01*
X154602820Y-46512614D01*
X154600014Y-46508277D01*
X154591117Y-46498499D01*
X154452798Y-46346488D01*
X154421746Y-46282642D01*
X154430141Y-46212143D01*
X154475317Y-46157375D01*
X154501761Y-46143706D01*
X154608297Y-46103767D01*
X154616705Y-46100615D01*
X154733261Y-46013261D01*
X154820615Y-45896705D01*
X154871745Y-45760316D01*
X154878500Y-45698134D01*
X154878500Y-44979843D01*
X154898502Y-44911722D01*
X154952158Y-44865229D01*
X155022432Y-44855125D01*
X155087012Y-44884619D01*
G37*
%TD.AperFunction*%
%TA.AperFunction,Conductor*%
G36*
X145664526Y-51217333D02*
G01*
X145694398Y-51281739D01*
X145694710Y-51316849D01*
X145690674Y-51347506D01*
X145689644Y-51354009D01*
X145678603Y-51413582D01*
X145679040Y-51421162D01*
X145679040Y-51421163D01*
X145682002Y-51472532D01*
X145682211Y-51479785D01*
X145682211Y-53420309D01*
X145662209Y-53488430D01*
X145645306Y-53509404D01*
X144808884Y-54345826D01*
X144746572Y-54379852D01*
X144675757Y-54374787D01*
X144618921Y-54332240D01*
X144594110Y-54265720D01*
X144593789Y-54256731D01*
X144593789Y-51429017D01*
X144613791Y-51360896D01*
X144630693Y-51339922D01*
X144673779Y-51296835D01*
X144729673Y-51240942D01*
X144791984Y-51206917D01*
X144843889Y-51206567D01*
X144976597Y-51233567D01*
X144981772Y-51233757D01*
X144981774Y-51233757D01*
X145194673Y-51241564D01*
X145194677Y-51241564D01*
X145199837Y-51241753D01*
X145204957Y-51241097D01*
X145204959Y-51241097D01*
X145416288Y-51214025D01*
X145416289Y-51214025D01*
X145421416Y-51213368D01*
X145533580Y-51179717D01*
X145604576Y-51179301D01*
X145664526Y-51217333D01*
G37*
%TD.AperFunction*%
%TA.AperFunction,Conductor*%
G36*
X151252526Y-51217333D02*
G01*
X151282398Y-51281739D01*
X151282710Y-51316849D01*
X151278674Y-51347506D01*
X151277644Y-51354009D01*
X151266603Y-51413582D01*
X151267040Y-51421162D01*
X151267040Y-51421163D01*
X151270002Y-51472532D01*
X151270211Y-51479785D01*
X151270211Y-52764985D01*
X151250209Y-52833106D01*
X151233306Y-52854080D01*
X149877891Y-54209495D01*
X149815579Y-54243521D01*
X149788796Y-54246400D01*
X149084651Y-54246400D01*
X149016530Y-54226398D01*
X148970037Y-54172742D01*
X148959933Y-54102468D01*
X148989427Y-54037888D01*
X148995556Y-54031305D01*
X149606528Y-53420333D01*
X149612794Y-53414479D01*
X149648343Y-53383468D01*
X149654070Y-53378472D01*
X149688915Y-53328892D01*
X149692826Y-53323625D01*
X149730215Y-53275941D01*
X149733344Y-53269011D01*
X149736451Y-53263881D01*
X149740625Y-53256565D01*
X149743450Y-53251297D01*
X149747817Y-53245083D01*
X149763495Y-53204873D01*
X149769822Y-53188644D01*
X149772378Y-53182563D01*
X149794184Y-53134268D01*
X149797308Y-53127349D01*
X149798692Y-53119884D01*
X149800482Y-53114171D01*
X149802783Y-53106094D01*
X149804281Y-53100260D01*
X149807040Y-53093183D01*
X149810640Y-53065845D01*
X149814948Y-53033119D01*
X149815980Y-53026605D01*
X149825635Y-52974510D01*
X149827019Y-52967042D01*
X149823620Y-52908098D01*
X149823411Y-52900844D01*
X149823411Y-51787395D01*
X149843413Y-51719274D01*
X149860315Y-51698300D01*
X150086083Y-51472532D01*
X150317672Y-51240942D01*
X150379985Y-51206917D01*
X150431889Y-51206567D01*
X150564597Y-51233567D01*
X150569772Y-51233757D01*
X150569774Y-51233757D01*
X150782673Y-51241564D01*
X150782677Y-51241564D01*
X150787837Y-51241753D01*
X150792957Y-51241097D01*
X150792959Y-51241097D01*
X151004288Y-51214025D01*
X151004289Y-51214025D01*
X151009416Y-51213368D01*
X151121580Y-51179717D01*
X151192576Y-51179301D01*
X151252526Y-51217333D01*
G37*
%TD.AperFunction*%
%TA.AperFunction,Conductor*%
G36*
X148458526Y-51217333D02*
G01*
X148488398Y-51281739D01*
X148488710Y-51316849D01*
X148484674Y-51347506D01*
X148483644Y-51354009D01*
X148472603Y-51413582D01*
X148473040Y-51421162D01*
X148473040Y-51421163D01*
X148476002Y-51472532D01*
X148476211Y-51479785D01*
X148476211Y-52593231D01*
X148456209Y-52661352D01*
X148439306Y-52682326D01*
X147247783Y-53873849D01*
X147185471Y-53907875D01*
X147114656Y-53902810D01*
X147057820Y-53860263D01*
X147032897Y-53792007D01*
X147029620Y-53735170D01*
X147029411Y-53727917D01*
X147029411Y-51787395D01*
X147049413Y-51719274D01*
X147066315Y-51698300D01*
X147292083Y-51472532D01*
X147523672Y-51240942D01*
X147585985Y-51206917D01*
X147637889Y-51206567D01*
X147770597Y-51233567D01*
X147775772Y-51233757D01*
X147775774Y-51233757D01*
X147988673Y-51241564D01*
X147988677Y-51241564D01*
X147993837Y-51241753D01*
X147998957Y-51241097D01*
X147998959Y-51241097D01*
X148210288Y-51214025D01*
X148210289Y-51214025D01*
X148215416Y-51213368D01*
X148327580Y-51179717D01*
X148398576Y-51179301D01*
X148458526Y-51217333D01*
G37*
%TD.AperFunction*%
%TA.AperFunction,Conductor*%
G36*
X144176962Y-43233502D02*
G01*
X144223455Y-43287158D01*
X144233559Y-43357432D01*
X144204065Y-43422012D01*
X144153071Y-43457482D01*
X144041295Y-43499385D01*
X143924739Y-43586739D01*
X143837385Y-43703295D01*
X143786255Y-43839684D01*
X143779500Y-43901866D01*
X143779500Y-44938170D01*
X143759498Y-45006291D01*
X143742595Y-45027265D01*
X142584245Y-46185615D01*
X142576478Y-46192758D01*
X142538307Y-46225015D01*
X142534164Y-46230434D01*
X142534163Y-46230435D01*
X142490869Y-46287062D01*
X142488971Y-46289482D01*
X142440031Y-46350350D01*
X142436998Y-46356460D01*
X142435696Y-46358496D01*
X142435377Y-46358952D01*
X142434967Y-46359610D01*
X142434698Y-46360100D01*
X142433447Y-46362166D01*
X142429303Y-46367586D01*
X142423189Y-46380698D01*
X142396305Y-46438351D01*
X142394971Y-46441122D01*
X142360233Y-46511102D01*
X142358581Y-46517727D01*
X142357747Y-46519994D01*
X142357528Y-46520519D01*
X142357279Y-46521223D01*
X142357117Y-46521773D01*
X142356339Y-46524057D01*
X142353457Y-46530239D01*
X142351969Y-46536897D01*
X142351966Y-46536905D01*
X142336419Y-46606458D01*
X142335711Y-46609454D01*
X142318467Y-46678615D01*
X142316816Y-46685238D01*
X142316625Y-46692059D01*
X142316297Y-46694456D01*
X142316096Y-46695570D01*
X142315434Y-46700344D01*
X142314307Y-46705384D01*
X142314000Y-46710875D01*
X142314000Y-46784289D01*
X142313951Y-46787807D01*
X142311805Y-46864635D01*
X142313084Y-46871342D01*
X142313594Y-46877677D01*
X142314000Y-46887784D01*
X142314000Y-47113441D01*
X142293998Y-47181562D01*
X142277095Y-47202536D01*
X140952537Y-48527095D01*
X140890225Y-48561120D01*
X140863442Y-48564000D01*
X139826897Y-48564000D01*
X139758776Y-48543998D01*
X139712283Y-48490342D01*
X139702179Y-48420068D01*
X139724574Y-48364474D01*
X139845435Y-48196277D01*
X139848453Y-48192077D01*
X139862174Y-48164316D01*
X139945136Y-47996453D01*
X139945137Y-47996451D01*
X139947430Y-47991811D01*
X140012370Y-47778069D01*
X140041529Y-47556590D01*
X140042440Y-47519300D01*
X140043074Y-47493365D01*
X140043074Y-47493361D01*
X140043156Y-47490000D01*
X140024852Y-47267361D01*
X139970431Y-47050702D01*
X139881354Y-46845840D01*
X139777456Y-46685238D01*
X139762822Y-46662617D01*
X139762820Y-46662614D01*
X139760014Y-46658277D01*
X139609670Y-46493051D01*
X139605619Y-46489852D01*
X139605615Y-46489848D01*
X139438414Y-46357800D01*
X139438410Y-46357798D01*
X139434359Y-46354598D01*
X139397260Y-46334118D01*
X139251495Y-46253652D01*
X139201524Y-46203219D01*
X139186752Y-46133776D01*
X139211868Y-46067371D01*
X139256956Y-46030192D01*
X139373346Y-45973173D01*
X139377994Y-45970896D01*
X139559860Y-45841173D01*
X139617603Y-45783632D01*
X139665182Y-45736218D01*
X139718096Y-45683489D01*
X139848453Y-45502077D01*
X139869320Y-45459857D01*
X139945136Y-45306453D01*
X139945137Y-45306451D01*
X139947430Y-45301811D01*
X140001786Y-45122904D01*
X140010865Y-45093023D01*
X140010865Y-45093021D01*
X140012370Y-45088069D01*
X140041529Y-44866590D01*
X140041809Y-44855125D01*
X140043074Y-44803365D01*
X140043074Y-44803361D01*
X140043156Y-44800000D01*
X140024852Y-44577361D01*
X139970431Y-44360702D01*
X139881354Y-44155840D01*
X139771620Y-43986217D01*
X139762822Y-43972617D01*
X139762820Y-43972614D01*
X139760014Y-43968277D01*
X139609670Y-43803051D01*
X139605619Y-43799852D01*
X139605615Y-43799848D01*
X139438414Y-43667800D01*
X139438410Y-43667798D01*
X139434359Y-43664598D01*
X139420047Y-43656697D01*
X139357477Y-43622157D01*
X139238789Y-43556638D01*
X139233920Y-43554914D01*
X139233916Y-43554912D01*
X139033087Y-43483795D01*
X139033083Y-43483794D01*
X139028212Y-43482069D01*
X139023119Y-43481162D01*
X139023116Y-43481161D01*
X138924230Y-43463547D01*
X138860672Y-43431909D01*
X138824309Y-43370932D01*
X138826686Y-43299975D01*
X138867047Y-43241567D01*
X138932579Y-43214252D01*
X138946326Y-43213500D01*
X144108841Y-43213500D01*
X144176962Y-43233502D01*
G37*
%TD.AperFunction*%
%TA.AperFunction,Conductor*%
G36*
X132638962Y-43233502D02*
G01*
X132685455Y-43287158D01*
X132695559Y-43357432D01*
X132666065Y-43422012D01*
X132615071Y-43457482D01*
X132503295Y-43499385D01*
X132386739Y-43586739D01*
X132299385Y-43703295D01*
X132248255Y-43839684D01*
X132241500Y-43901866D01*
X132241500Y-45698134D01*
X132248255Y-45760316D01*
X132299385Y-45896705D01*
X132386739Y-46013261D01*
X132393919Y-46018642D01*
X132406065Y-46027745D01*
X132448580Y-46084604D01*
X132456500Y-46128571D01*
X132456500Y-46161429D01*
X132436498Y-46229550D01*
X132406065Y-46262255D01*
X132386739Y-46276739D01*
X132299385Y-46393295D01*
X132248255Y-46529684D01*
X132241500Y-46591866D01*
X132241500Y-47169157D01*
X132221498Y-47237278D01*
X132204595Y-47258252D01*
X131093252Y-48369595D01*
X131030940Y-48403621D01*
X131004157Y-48406500D01*
X123187290Y-48406500D01*
X123119169Y-48386498D01*
X123072676Y-48332842D01*
X123062572Y-48262568D01*
X123092066Y-48197988D01*
X123104213Y-48185768D01*
X123127730Y-48165144D01*
X123133019Y-48160506D01*
X123145174Y-48145088D01*
X123187798Y-48091018D01*
X123189876Y-48088453D01*
X123242734Y-48024900D01*
X123242738Y-48024895D01*
X123246426Y-48020460D01*
X123249245Y-48015426D01*
X123251314Y-48012416D01*
X123257508Y-48003146D01*
X123259551Y-48000001D01*
X123263128Y-47995463D01*
X123282302Y-47959020D01*
X123304312Y-47917184D01*
X123305887Y-47914284D01*
X123346291Y-47842139D01*
X123346292Y-47842137D01*
X123349115Y-47837096D01*
X123350972Y-47831624D01*
X123352486Y-47828224D01*
X123356873Y-47818013D01*
X123358295Y-47814579D01*
X123360982Y-47809473D01*
X123369195Y-47783023D01*
X123387212Y-47725001D01*
X123388231Y-47721865D01*
X123414813Y-47643555D01*
X123416669Y-47638088D01*
X123417498Y-47632375D01*
X123418341Y-47628862D01*
X123420833Y-47617849D01*
X123421591Y-47614282D01*
X123423304Y-47608766D01*
X123433704Y-47520901D01*
X123434132Y-47517649D01*
X123445998Y-47435816D01*
X123445998Y-47435811D01*
X123446826Y-47430102D01*
X123443597Y-47347930D01*
X123443500Y-47342983D01*
X123443500Y-46128571D01*
X123463502Y-46060450D01*
X123493935Y-46027745D01*
X123506081Y-46018642D01*
X123513261Y-46013261D01*
X123600615Y-45896705D01*
X123622799Y-45837529D01*
X123644598Y-45779382D01*
X123687240Y-45722618D01*
X123753802Y-45697918D01*
X123823150Y-45713126D01*
X123857817Y-45741114D01*
X123886250Y-45773938D01*
X123990052Y-45860116D01*
X124050532Y-45910327D01*
X124058126Y-45916632D01*
X124251000Y-46029338D01*
X124255825Y-46031180D01*
X124255826Y-46031181D01*
X124260789Y-46033076D01*
X124459692Y-46109030D01*
X124464760Y-46110061D01*
X124464763Y-46110062D01*
X124571339Y-46131745D01*
X124678597Y-46153567D01*
X124683772Y-46153757D01*
X124683774Y-46153757D01*
X124896673Y-46161564D01*
X124896677Y-46161564D01*
X124901837Y-46161753D01*
X124906957Y-46161097D01*
X124906959Y-46161097D01*
X125118288Y-46134025D01*
X125118289Y-46134025D01*
X125123416Y-46133368D01*
X125139405Y-46128571D01*
X125332429Y-46070661D01*
X125332434Y-46070659D01*
X125337384Y-46069174D01*
X125537994Y-45970896D01*
X125719860Y-45841173D01*
X125777603Y-45783632D01*
X125825182Y-45736218D01*
X125878096Y-45683489D01*
X126008453Y-45502077D01*
X126009776Y-45503028D01*
X126056645Y-45459857D01*
X126126580Y-45447625D01*
X126192026Y-45475144D01*
X126219875Y-45506994D01*
X126233910Y-45529897D01*
X126279987Y-45605088D01*
X126426250Y-45773938D01*
X126530052Y-45860116D01*
X126590532Y-45910327D01*
X126598126Y-45916632D01*
X126791000Y-46029338D01*
X126795825Y-46031180D01*
X126795826Y-46031181D01*
X126800789Y-46033076D01*
X126999692Y-46109030D01*
X127004760Y-46110061D01*
X127004763Y-46110062D01*
X127111339Y-46131745D01*
X127218597Y-46153567D01*
X127223772Y-46153757D01*
X127223774Y-46153757D01*
X127436673Y-46161564D01*
X127436677Y-46161564D01*
X127441837Y-46161753D01*
X127446957Y-46161097D01*
X127446959Y-46161097D01*
X127658288Y-46134025D01*
X127658289Y-46134025D01*
X127663416Y-46133368D01*
X127679405Y-46128571D01*
X127872429Y-46070661D01*
X127872434Y-46070659D01*
X127877384Y-46069174D01*
X128077994Y-45970896D01*
X128259860Y-45841173D01*
X128317603Y-45783632D01*
X128365182Y-45736218D01*
X128418096Y-45683489D01*
X128548453Y-45502077D01*
X128569320Y-45459857D01*
X128645136Y-45306453D01*
X128645137Y-45306451D01*
X128647430Y-45301811D01*
X128701786Y-45122904D01*
X128710865Y-45093023D01*
X128710865Y-45093021D01*
X128712370Y-45088069D01*
X128741529Y-44866590D01*
X128741809Y-44855125D01*
X128743074Y-44803365D01*
X128743074Y-44803361D01*
X128743156Y-44800000D01*
X128724852Y-44577361D01*
X128670431Y-44360702D01*
X128581354Y-44155840D01*
X128471620Y-43986217D01*
X128462822Y-43972617D01*
X128462820Y-43972614D01*
X128460014Y-43968277D01*
X128309670Y-43803051D01*
X128305619Y-43799852D01*
X128305615Y-43799848D01*
X128138414Y-43667800D01*
X128138410Y-43667798D01*
X128134359Y-43664598D01*
X128120047Y-43656697D01*
X128057477Y-43622157D01*
X127938789Y-43556638D01*
X127933920Y-43554914D01*
X127933916Y-43554912D01*
X127733087Y-43483795D01*
X127733083Y-43483794D01*
X127728212Y-43482069D01*
X127723119Y-43481162D01*
X127723116Y-43481161D01*
X127624230Y-43463547D01*
X127560672Y-43431909D01*
X127524309Y-43370932D01*
X127526686Y-43299975D01*
X127567047Y-43241567D01*
X127632579Y-43214252D01*
X127646326Y-43213500D01*
X132570841Y-43213500D01*
X132638962Y-43233502D01*
G37*
%TD.AperFunction*%
%TD*%
M02*
