M48
; DRILL file {KiCad (6.0.1)} date Sun Feb  6 20:19:17 2022
; FORMAT={-:-/ absolute / inch / decimal}
; #@! TF.CreationDate,2022-02-06T20:19:17-05:00
; #@! TF.GenerationSoftware,Kicad,Pcbnew,(6.0.1)
; #@! TF.FileFunction,Plated,1,4,PTH
FMAT,2
INCH
; #@! TA.AperFunction,Plated,PTH,ViaDrill
T1C0.0157
; #@! TA.AperFunction,Plated,PTH,ComponentDrill
T2C0.0394
; #@! TA.AperFunction,Plated,PTH,ComponentDrill
T3C0.0433
; #@! TA.AperFunction,Plated,PTH,ComponentDrill
T4C0.0984
; #@! TA.AperFunction,Plated,PTH,ComponentDrill
T5C0.1063
%
G90
G05
T1
X2.5945Y-1.9075
X2.5976Y-2.4413
X2.5976Y-2.5425
X2.5984Y-2.7236
X2.6004Y-2.1197
X2.6051Y-2.8921
X2.6685Y-2.2618
X2.6709Y-2.374
X2.6732Y-2.9622
X2.6752Y-1.8189
X2.7323Y-1.9984
X2.737Y-2.098
X2.7386Y-2.1825
X2.7406Y-2.4445
X2.7406Y-2.5248
X2.7406Y-2.5984
X2.7406Y-2.6807
X2.7406Y-2.7673
X2.7406Y-2.8429
X2.752Y-1.7126
X2.7587Y-3.0303
X2.7795Y-1.9248
X2.7904Y-2.8848
X2.9897Y-2.4449
X3.0331Y-1.702
X3.0512Y-2.2087
X3.0906Y-2.5866
X3.1589Y-2.91
X3.2205Y-2.5512
X3.3573Y-2.91
X3.4246Y-2.91
X3.4508Y-2.7276
X3.4764Y-2.3236
X3.5061Y-2.91
X3.5126Y-2.1539
X3.5461Y-2.6606
X3.6406Y-2.1539
X3.9014Y-2.91
X3.9866Y-2.4228
X4.103Y-2.91
X4.1126Y-2.348
X4.1691Y-2.91
X4.2557Y-2.91
X4.4098Y-2.3484
X4.4886Y-2.422
X4.6413Y-2.428
X4.6421Y-2.4878
X4.6557Y-2.91
X4.7622Y-2.7205
X4.8425Y-2.7224
X4.8533Y-2.91
X4.9266Y-2.91
X5.003Y-2.91
X5.1909Y-2.5217
X5.198Y-2.4303
X5.26Y-2.2002
X5.2618Y-2.6299
X5.3091Y-2.4001
X5.3185Y-2.1098
X5.3476Y-2.5378
X5.3602Y-2.4001
X5.4022Y-2.91
X5.4094Y-2.3753
X5.5346Y-2.1126
X5.5839Y-2.6232
X5.6864Y-2.4667
X5.7756Y-2.498
X5.7854Y-2.376
X6.187Y-2.5118
X6.2102Y-2.7374
X6.2283Y-2.5453
X6.2382Y-2.628
X6.3106Y-2.889
X6.3268Y-1.8346
T2
X2.8656Y-2.81
X2.8656Y-2.91
X2.8656Y-3.01
X2.9706Y-2.81
X2.9706Y-2.91
X2.9706Y-3.01
X3.0756Y-2.8106
X3.0756Y-2.9106
X3.0756Y-3.0106
X3.2559Y-2.9047
X3.3959Y-1.763
X3.3959Y-1.863
X3.4171Y-3.0176
X3.5039Y-1.763
X3.5039Y-1.863
X3.6106Y-2.81
X3.6106Y-2.91
X3.6106Y-3.01
X3.6119Y-1.763
X3.6119Y-1.863
X3.7156Y-2.81
X3.7156Y-2.91
X3.7156Y-3.01
X3.7576Y-1.763
X3.7576Y-1.863
X3.8206Y-2.81
X3.8206Y-2.91
X3.8206Y-3.01
X3.8639Y-1.763
X3.8639Y-1.863
X3.9702Y-1.763
X3.9702Y-1.863
X4.0009Y-2.905
X4.1159Y-1.7628
X4.1159Y-1.8628
X4.1621Y-3.0179
X4.2222Y-1.7638
X4.2222Y-1.8638
X4.3556Y-2.8094
X4.3556Y-2.9094
X4.3556Y-3.0094
X4.3708Y-1.7643
X4.4606Y-2.81
X4.4606Y-2.91
X4.4606Y-3.01
X4.4708Y-1.7643
X4.5656Y-2.8106
X4.5656Y-2.9106
X4.5656Y-3.0106
X4.5708Y-1.7643
X4.6708Y-1.7643
X4.7456Y-2.9047
X4.815Y-1.7638
X4.9069Y-3.0176
X4.915Y-1.7638
X5.015Y-1.7638
X5.1006Y-2.81
X5.1006Y-2.91
X5.1006Y-3.01
X5.115Y-1.7638
X5.2056Y-2.81
X5.2056Y-2.91
X5.2056Y-3.01
X5.2598Y-1.7638
X5.2598Y-1.8697
X5.3106Y-2.81
X5.3106Y-2.91
X5.3106Y-3.01
X5.3598Y-1.7638
X5.3598Y-1.8697
X5.4598Y-1.7638
X5.4598Y-1.8697
X5.4956Y-2.9047
X5.5598Y-1.7638
X5.5598Y-1.8697
X5.6569Y-3.0176
X5.7141Y-1.7638
X5.7141Y-1.8638
X5.7141Y-1.9638
X5.7141Y-2.0638
X5.8241Y-1.7638
X5.8241Y-1.8638
X5.8241Y-1.9638
X5.8241Y-2.0638
X5.8606Y-2.4805
X5.8606Y-2.5805
X5.8606Y-2.6805
X5.8609Y-2.81
X5.8609Y-2.91
X5.8609Y-3.01
X5.903Y-2.2181
X5.9031Y-2.3256
X5.9341Y-1.7638
X5.9341Y-1.8638
X5.9341Y-1.9638
X5.9341Y-2.0638
X5.9657Y-2.4801
X5.9657Y-2.5801
X5.9657Y-2.6801
X5.9659Y-2.81
X5.9659Y-2.91
X5.9659Y-3.01
X6.003Y-2.2181
X6.0031Y-2.3256
X6.0441Y-1.7638
X6.0441Y-1.8638
X6.0441Y-1.9638
X6.0441Y-2.0638
X6.0709Y-2.4805
X6.0709Y-2.5805
X6.0709Y-2.6805
X6.0709Y-2.81
X6.0709Y-2.91
X6.0709Y-3.01
X6.103Y-2.2181
X6.1031Y-2.3256
X6.315Y-1.9764
X6.315Y-2.0764
X6.315Y-2.1764
X6.315Y-2.2764
X6.315Y-2.3764
X6.315Y-2.4764
T3
X3.8171Y-2.0299
X3.8171Y-2.6299
X3.9171Y-2.0299
X3.9171Y-2.1299
X3.9171Y-2.6299
X4.0171Y-2.0299
X4.0171Y-2.6299
X4.1171Y-2.0299
X4.1171Y-2.6299
X4.2171Y-2.0299
X4.2171Y-2.6299
X4.3171Y-2.0299
X4.3171Y-2.6299
X4.4171Y-2.0299
X4.4171Y-2.6299
X4.5171Y-2.0299
X4.5171Y-2.6299
X4.6171Y-2.0299
X4.6171Y-2.6299
X4.7171Y-2.0299
X4.7171Y-2.6299
X4.8171Y-2.0299
X4.8171Y-2.1299
X4.8171Y-2.2299
X4.8171Y-2.3299
X4.8171Y-2.4299
X4.8171Y-2.5299
X4.8171Y-2.6299
X4.9171Y-2.0299
X4.9171Y-2.1299
X4.9171Y-2.2299
X4.9171Y-2.3299
X4.9171Y-2.4299
X4.9171Y-2.5299
X4.9171Y-2.6299
X5.0171Y-2.0299
X5.0171Y-2.6299
X5.1171Y-2.0299
X5.1171Y-2.1299
X5.1171Y-2.2299
X5.1171Y-2.3299
X5.1171Y-2.4299
X5.1171Y-2.5299
X5.1171Y-2.6299
T4
X2.555Y-1.7067
X2.555Y-3.065
X6.2755Y-1.7067
X6.2755Y-3.065
T5
X2.9094Y-1.8189
X3.1063Y-1.8189
T0
M30
