%TF.GenerationSoftware,KiCad,Pcbnew,(6.0.1)*%
%TF.CreationDate,2022-02-05T20:40:31-05:00*%
%TF.ProjectId,motor-controller,6d6f746f-722d-4636-9f6e-74726f6c6c65,rev?*%
%TF.SameCoordinates,Original*%
%TF.FileFunction,Soldermask,Bot*%
%TF.FilePolarity,Negative*%
%FSLAX46Y46*%
G04 Gerber Fmt 4.6, Leading zero omitted, Abs format (unit mm)*
G04 Created by KiCad (PCBNEW (6.0.1)) date 2022-02-05 20:40:31*
%MOMM*%
%LPD*%
G01*
G04 APERTURE LIST*
G04 Aperture macros list*
%AMRotRect*
0 Rectangle, with rotation*
0 The origin of the aperture is its center*
0 $1 length*
0 $2 width*
0 $3 Rotation angle, in degrees counterclockwise*
0 Add horizontal line*
21,1,$1,$2,0,0,$3*%
G04 Aperture macros list end*
%ADD10R,1.700000X1.700000*%
%ADD11O,1.700000X1.700000*%
%ADD12C,3.800000*%
%ADD13R,3.800000X3.800000*%
%ADD14C,2.900000*%
%ADD15RotRect,2.000000X2.000000X325.000000*%
%ADD16C,2.000000*%
%ADD17C,1.600000*%
G04 APERTURE END LIST*
D10*
%TO.C,JP1*%
X151530000Y-68075000D03*
D11*
X151530000Y-65535000D03*
X151530000Y-62995000D03*
%TD*%
D10*
%TO.C,J29*%
X147932000Y-44800000D03*
D11*
X147932000Y-47340000D03*
X147932000Y-49880000D03*
X147932000Y-52420000D03*
%TD*%
D12*
%TO.C,J4*%
X73900000Y-46200000D03*
D13*
X78900000Y-46200000D03*
%TD*%
D14*
%TO.C,REF\u002A\u002A*%
X159397200Y-43351000D03*
%TD*%
D10*
%TO.C,J9*%
X113299929Y-71375000D03*
D11*
X113299929Y-73915000D03*
X113299929Y-76455000D03*
%TD*%
D10*
%TO.C,J33*%
X111018400Y-44813600D03*
D11*
X113558400Y-44813600D03*
X116098400Y-44813600D03*
X118638400Y-44813600D03*
%TD*%
D10*
%TO.C,J22*%
X154200000Y-71375000D03*
D11*
X154200000Y-73915000D03*
X154200000Y-76455000D03*
%TD*%
D10*
%TO.C,J7*%
X97043929Y-71375000D03*
D11*
X97043929Y-73915000D03*
X97043929Y-76455000D03*
%TD*%
D15*
%TO.C,C2*%
X82698998Y-73779830D03*
D16*
X86794758Y-76647712D03*
%TD*%
D10*
%TO.C,J15*%
X86256800Y-44780000D03*
D11*
X86256800Y-47320000D03*
%TD*%
D10*
%TO.C,J16*%
X100843000Y-44780000D03*
D11*
X100843000Y-47320000D03*
%TD*%
D10*
%TO.C,J30*%
X133600000Y-44800000D03*
D11*
X136140000Y-44800000D03*
X138680000Y-44800000D03*
X141220000Y-44800000D03*
%TD*%
D17*
%TO.C,U2*%
X96954602Y-66799400D03*
X99494602Y-66799400D03*
X102034602Y-66799400D03*
X104574602Y-66799400D03*
X107114602Y-66799400D03*
X109654602Y-66799400D03*
X112194602Y-66799400D03*
X114734602Y-66799400D03*
X117274602Y-66799400D03*
X119814602Y-66799400D03*
X122354602Y-66799400D03*
X124894602Y-66799400D03*
X127434602Y-66799400D03*
X129974602Y-66799400D03*
X129974602Y-64259400D03*
X129974602Y-61719400D03*
X129974602Y-59179400D03*
X129974602Y-56639400D03*
X129974602Y-54099400D03*
X129974602Y-51559400D03*
X127434602Y-51559400D03*
X124894602Y-51559400D03*
X122354602Y-51559400D03*
X119814602Y-51559400D03*
X117274602Y-51559400D03*
X114734602Y-51559400D03*
X112194602Y-51559400D03*
X109654602Y-51559400D03*
X107114602Y-51559400D03*
X104574602Y-51559400D03*
X102034602Y-51559400D03*
X99494602Y-51559400D03*
X96954602Y-51559400D03*
X99494602Y-54099400D03*
X124894602Y-54099400D03*
X122354602Y-54099400D03*
X124894602Y-56639400D03*
X122354602Y-56639400D03*
X124894602Y-59179400D03*
X122354602Y-59179400D03*
X124894602Y-61719400D03*
X122354602Y-61719400D03*
X124894602Y-64259400D03*
X122354602Y-64259400D03*
%TD*%
D10*
%TO.C,J31*%
X150726000Y-44800000D03*
D11*
X150726000Y-47340000D03*
X150726000Y-49880000D03*
X150726000Y-52420000D03*
%TD*%
D10*
%TO.C,J6*%
X94376929Y-71375000D03*
D11*
X94376929Y-73915000D03*
X94376929Y-76455000D03*
%TD*%
D10*
%TO.C,J21*%
X89000000Y-44780000D03*
D11*
X89000000Y-47320000D03*
%TD*%
D10*
%TO.C,J18*%
X151533000Y-71375000D03*
D11*
X151533000Y-73915000D03*
X151533000Y-76455000D03*
%TD*%
D10*
%TO.C,J19*%
X98143000Y-44780000D03*
D11*
X98143000Y-47320000D03*
%TD*%
D10*
%TO.C,J26*%
X149935000Y-56340000D03*
D11*
X152475000Y-56340000D03*
X155015000Y-56340000D03*
%TD*%
D15*
%TO.C,C1*%
X139588934Y-73779830D03*
D16*
X143684694Y-76647712D03*
%TD*%
D10*
%TO.C,J2*%
X75453929Y-71375000D03*
D11*
X75453929Y-73915000D03*
X75453929Y-76455000D03*
%TD*%
D10*
%TO.C,J12*%
X132222929Y-71375000D03*
D11*
X132222929Y-73915000D03*
X132222929Y-76455000D03*
%TD*%
D10*
%TO.C,J14*%
X95443000Y-44780000D03*
D11*
X95443000Y-47320000D03*
%TD*%
D10*
%TO.C,JP2*%
X148860000Y-68085000D03*
D11*
X148860000Y-65545000D03*
X148860000Y-63005000D03*
%TD*%
D10*
%TO.C,J23*%
X91743200Y-44780000D03*
D11*
X91743200Y-47320000D03*
%TD*%
D10*
%TO.C,JP3*%
X154200000Y-68085000D03*
D11*
X154200000Y-65545000D03*
X154200000Y-63005000D03*
%TD*%
D10*
%TO.C,J5*%
X91709929Y-71375000D03*
D11*
X91709929Y-73915000D03*
X91709929Y-76455000D03*
%TD*%
D10*
%TO.C,J25*%
X149940000Y-59070000D03*
D11*
X152480000Y-59070000D03*
X155020000Y-59070000D03*
%TD*%
D10*
%TO.C,J10*%
X115966929Y-71390011D03*
D11*
X115966929Y-73930011D03*
X115966929Y-76470011D03*
%TD*%
D14*
%TO.C,REF\u002A\u002A*%
X159397200Y-77851000D03*
%TD*%
D10*
%TO.C,J27*%
X145138000Y-44800000D03*
D11*
X145138000Y-47340000D03*
X145138000Y-49880000D03*
X145138000Y-52420000D03*
%TD*%
D10*
%TO.C,J24*%
X122300000Y-44800000D03*
D11*
X124840000Y-44800000D03*
X127380000Y-44800000D03*
X129920000Y-44800000D03*
%TD*%
D10*
%TO.C,J32*%
X153520000Y-44800000D03*
D11*
X153520000Y-47340000D03*
X153520000Y-49880000D03*
X153520000Y-52420000D03*
%TD*%
D10*
%TO.C,J8*%
X110632929Y-71359989D03*
D11*
X110632929Y-73899989D03*
X110632929Y-76439989D03*
%TD*%
D10*
%TO.C,J28*%
X133600000Y-47490000D03*
D11*
X136140000Y-47490000D03*
X138680000Y-47490000D03*
X141220000Y-47490000D03*
%TD*%
D10*
%TO.C,J1*%
X72786929Y-71375000D03*
D11*
X72786929Y-73915000D03*
X72786929Y-76455000D03*
%TD*%
D10*
%TO.C,J34*%
X107243000Y-44800000D03*
D11*
X107243000Y-47340000D03*
%TD*%
D10*
%TO.C,J17*%
X148866000Y-71375000D03*
D11*
X148866000Y-73915000D03*
X148866000Y-76455000D03*
%TD*%
D15*
%TO.C,C4*%
X101621998Y-73788000D03*
D16*
X105717758Y-76655882D03*
%TD*%
D15*
%TO.C,C3*%
X120538934Y-73779830D03*
D16*
X124634694Y-76647712D03*
%TD*%
D14*
%TO.C,REF\u002A\u002A*%
X64897200Y-77851000D03*
%TD*%
D10*
%TO.C,J20*%
X104543000Y-44775000D03*
D11*
X104543000Y-47315000D03*
%TD*%
D10*
%TO.C,J3*%
X78120929Y-71390011D03*
D11*
X78120929Y-73930011D03*
X78120929Y-76470011D03*
%TD*%
D14*
%TO.C,REF\u002A\u002A*%
X64897200Y-43351000D03*
%TD*%
D10*
%TO.C,J11*%
X129555929Y-71375000D03*
D11*
X129555929Y-73915000D03*
X129555929Y-76455000D03*
%TD*%
D10*
%TO.C,J13*%
X134889929Y-71375000D03*
D11*
X134889929Y-73915000D03*
X134889929Y-76455000D03*
%TD*%
M02*
