%TF.GenerationSoftware,KiCad,Pcbnew,(6.0.2)*%
%TF.CreationDate,2022-02-28T14:06:29-05:00*%
%TF.ProjectId,expansion-board,65787061-6e73-4696-9f6e-2d626f617264,rev?*%
%TF.SameCoordinates,Original*%
%TF.FileFunction,Soldermask,Bot*%
%TF.FilePolarity,Negative*%
%FSLAX46Y46*%
G04 Gerber Fmt 4.6, Leading zero omitted, Abs format (unit mm)*
G04 Created by KiCad (PCBNEW (6.0.2)) date 2022-02-28 14:06:29*
%MOMM*%
%LPD*%
G01*
G04 APERTURE LIST*
G04 Aperture macros list*
%AMRotRect*
0 Rectangle, with rotation*
0 The origin of the aperture is its center*
0 $1 length*
0 $2 width*
0 $3 Rotation angle, in degrees counterclockwise*
0 Add horizontal line*
21,1,$1,$2,0,0,$3*%
%AMFreePoly0*
4,1,22,0.550000,-0.750000,0.000000,-0.750000,0.000000,-0.745033,-0.079941,-0.743568,-0.215256,-0.701293,-0.333266,-0.622738,-0.424486,-0.514219,-0.481581,-0.384460,-0.499164,-0.250000,-0.500000,-0.250000,-0.500000,0.250000,-0.499164,0.250000,-0.499963,0.256109,-0.478152,0.396186,-0.417904,0.524511,-0.324060,0.630769,-0.204165,0.706417,-0.067858,0.745374,0.000000,0.744959,0.000000,0.750000,
0.550000,0.750000,0.550000,-0.750000,0.550000,-0.750000,$1*%
%AMFreePoly1*
4,1,20,0.000000,0.744959,0.073905,0.744508,0.209726,0.703889,0.328688,0.626782,0.421226,0.519385,0.479903,0.390333,0.500000,0.250000,0.500000,-0.250000,0.499851,-0.262216,0.476331,-0.402017,0.414519,-0.529596,0.319384,-0.634700,0.198574,-0.708877,0.061801,-0.746166,0.000000,-0.745033,0.000000,-0.750000,-0.550000,-0.750000,-0.550000,0.750000,0.000000,0.750000,0.000000,0.744959,
0.000000,0.744959,$1*%
G04 Aperture macros list end*
%ADD10R,1.700000X1.700000*%
%ADD11O,1.700000X1.700000*%
%ADD12R,3.800000X3.800000*%
%ADD13C,3.800000*%
%ADD14C,1.700000*%
%ADD15RotRect,2.000000X2.000000X325.000000*%
%ADD16C,2.000000*%
%ADD17C,6.200000*%
%ADD18C,1.524000*%
%ADD19C,0.965200*%
%ADD20C,1.778000*%
%ADD21FreePoly0,270.000000*%
%ADD22R,1.500000X1.000000*%
%ADD23FreePoly1,270.000000*%
G04 APERTURE END LIST*
D10*
%TO.C,J9*%
X85097216Y-44112405D03*
D11*
X85097216Y-46652405D03*
X85097216Y-49192405D03*
X85097216Y-51732405D03*
%TD*%
D12*
%TO.C,J2*%
X71775000Y-77525000D03*
D13*
X71775000Y-72525000D03*
%TD*%
D10*
%TO.C,J14*%
X132750000Y-44107000D03*
D11*
X135290000Y-44107000D03*
X137830000Y-44107000D03*
X140370000Y-44107000D03*
%TD*%
D14*
%TO.C,U10*%
X120425000Y-71385000D03*
X120425000Y-73925000D03*
X120425000Y-76465000D03*
X122965000Y-71385000D03*
X122965000Y-73925000D03*
X122965000Y-76465000D03*
X125505000Y-71385000D03*
X125505000Y-73925000D03*
X125505000Y-76465000D03*
%TD*%
D10*
%TO.C,J15*%
X104470000Y-44107000D03*
D11*
X107010000Y-44107000D03*
X109550000Y-44107000D03*
X112090000Y-44107000D03*
X114630000Y-44107000D03*
X117170000Y-44107000D03*
%TD*%
D10*
%TO.C,J4*%
X69000000Y-66500000D03*
D11*
X66460000Y-66500000D03*
X69000000Y-63960000D03*
X66460000Y-63960000D03*
X69000000Y-61420000D03*
X66460000Y-61420000D03*
%TD*%
D15*
%TO.C,C8*%
X92175000Y-73750000D03*
D16*
X96270760Y-76617882D03*
%TD*%
D10*
%TO.C,J13*%
X121200000Y-44107000D03*
D11*
X123740000Y-44107000D03*
X126280000Y-44107000D03*
X128820000Y-44107000D03*
%TD*%
D10*
%TO.C,J6*%
X133360000Y-48730000D03*
D11*
X133360000Y-51270000D03*
X133360000Y-53810000D03*
%TD*%
D17*
%TO.C,H2*%
X101250000Y-34559200D03*
%TD*%
D10*
%TO.C,J10*%
X87891216Y-44112405D03*
D11*
X87891216Y-46652405D03*
X87891216Y-49192405D03*
X87891216Y-51732405D03*
%TD*%
D14*
%TO.C,U11*%
X73286216Y-44125405D03*
X73286216Y-46665405D03*
X73286216Y-49205405D03*
X75826216Y-44125405D03*
X75826216Y-46665405D03*
X75826216Y-49205405D03*
X78366216Y-44125405D03*
X78366216Y-46665405D03*
X78366216Y-49205405D03*
%TD*%
D15*
%TO.C,C6*%
X149650000Y-73750000D03*
D16*
X153745760Y-76617882D03*
%TD*%
D17*
%TO.C,H3*%
X65750000Y-43550000D03*
%TD*%
D18*
%TO.C,RV1*%
X147574000Y-52950008D03*
X150114000Y-52950008D03*
X152654000Y-52950008D03*
%TD*%
D10*
%TO.C,J1*%
X68900000Y-56875000D03*
D11*
X68900000Y-54335000D03*
%TD*%
D17*
%TO.C,H6*%
X159752600Y-77561400D03*
%TD*%
D18*
%TO.C,MOD1*%
X122475000Y-49837500D03*
X119935000Y-49837500D03*
X117395000Y-49837500D03*
X114855000Y-49837500D03*
X112315000Y-49837500D03*
X109775000Y-49837500D03*
X112315000Y-67617500D03*
X114855000Y-67617500D03*
X117395000Y-67617500D03*
X119935000Y-67617500D03*
%TD*%
D17*
%TO.C,H5*%
X159752600Y-43550800D03*
%TD*%
%TO.C,H1*%
X159244600Y-34533800D03*
%TD*%
D14*
%TO.C,U8*%
X82100414Y-71385000D03*
X82100414Y-73925000D03*
X82100414Y-76465000D03*
X84640414Y-71385000D03*
X84640414Y-73925000D03*
X84640414Y-76465000D03*
X87180414Y-71385000D03*
X87180414Y-73925000D03*
X87180414Y-76465000D03*
%TD*%
%TO.C,U12*%
X139575000Y-71385000D03*
X139575000Y-73925000D03*
X139575000Y-76465000D03*
X142115000Y-71385000D03*
X142115000Y-73925000D03*
X142115000Y-76465000D03*
X144655000Y-71385000D03*
X144655000Y-73925000D03*
X144655000Y-76465000D03*
%TD*%
D10*
%TO.C,J8*%
X82303216Y-44112405D03*
D11*
X82303216Y-46652405D03*
X82303216Y-49192405D03*
X82303216Y-51732405D03*
%TD*%
D10*
%TO.C,J3*%
X142748000Y-51308000D03*
D11*
X142748000Y-53848000D03*
X140208000Y-51308000D03*
X140208000Y-53848000D03*
X137668000Y-51308000D03*
X137668000Y-53848000D03*
%TD*%
D10*
%TO.C,J11*%
X90685216Y-44112405D03*
D11*
X90685216Y-46652405D03*
X90685216Y-49192405D03*
X90685216Y-51732405D03*
%TD*%
D14*
%TO.C,U9*%
X101225394Y-71385000D03*
X101225394Y-73925000D03*
X101225394Y-76465000D03*
X103765394Y-71385000D03*
X103765394Y-73925000D03*
X103765394Y-76465000D03*
X106305394Y-71385000D03*
X106305394Y-73925000D03*
X106305394Y-76465000D03*
%TD*%
D15*
%TO.C,C10*%
X111300000Y-73750000D03*
D16*
X115395760Y-76617882D03*
%TD*%
D10*
%TO.C,J7*%
X95160000Y-46657000D03*
D11*
X95160000Y-44117000D03*
X97700000Y-46657000D03*
X97700000Y-44117000D03*
X100240000Y-46657000D03*
X100240000Y-44117000D03*
%TD*%
D15*
%TO.C,C9*%
X130527120Y-73818982D03*
D16*
X134622880Y-76686864D03*
%TD*%
D19*
%TO.C,J12*%
X146747800Y-33289200D03*
X113727800Y-33289200D03*
X118807800Y-35829200D03*
X136587800Y-33289200D03*
D20*
X153097800Y-34559200D03*
D19*
X154367800Y-35829200D03*
X116267800Y-35829200D03*
X144207800Y-35829200D03*
X121347800Y-35829200D03*
X123887800Y-35829200D03*
X136587800Y-35829200D03*
X149287800Y-35829200D03*
X108647800Y-35829200D03*
X126427800Y-33289200D03*
X131507800Y-35829200D03*
X151827800Y-35829200D03*
X146747800Y-35829200D03*
X111187800Y-35829200D03*
X111187800Y-33289200D03*
X128967800Y-33289200D03*
X128967800Y-35829200D03*
X139127800Y-35829200D03*
X139127800Y-33289200D03*
X149287800Y-33289200D03*
X144207800Y-33289200D03*
X106107800Y-33289200D03*
X151827800Y-33289200D03*
X123887800Y-33289200D03*
D20*
X107377800Y-34559200D03*
D19*
X141667800Y-35829200D03*
X134047800Y-35829200D03*
X116267800Y-33289200D03*
X154367800Y-33289200D03*
X141667800Y-33289200D03*
X121347800Y-33289200D03*
X118807800Y-33289200D03*
X106107800Y-35829200D03*
X113727800Y-35829200D03*
X126427800Y-35829200D03*
X134047800Y-33289200D03*
X108647800Y-33289200D03*
X131507800Y-33289200D03*
%TD*%
D10*
%TO.C,J5*%
X69000000Y-50150000D03*
D11*
X66460000Y-50150000D03*
%TD*%
D17*
%TO.C,H4*%
X65750000Y-77550000D03*
%TD*%
D21*
%TO.C,JP7*%
X78666213Y-52355417D03*
D22*
X78666213Y-53655417D03*
D23*
X78666213Y-54955417D03*
%TD*%
D22*
%TO.C,JP1*%
X81916216Y-56155405D03*
X81916216Y-54855405D03*
%TD*%
D21*
%TO.C,JP6*%
X75666219Y-52355417D03*
D22*
X75666219Y-53655417D03*
D23*
X75666219Y-54955417D03*
%TD*%
D22*
%TO.C,JP2*%
X84966226Y-56155401D03*
X84966226Y-54855401D03*
%TD*%
D21*
%TO.C,JP5*%
X72666225Y-52355417D03*
D22*
X72666225Y-53655417D03*
D23*
X72666225Y-54955417D03*
%TD*%
D22*
%TO.C,JP4*%
X91066216Y-56155405D03*
X91066216Y-54855405D03*
%TD*%
%TO.C,JP3*%
X88016207Y-56155401D03*
X88016207Y-54855401D03*
%TD*%
M02*
