%TF.GenerationSoftware,KiCad,Pcbnew,(6.0.1)*%
%TF.CreationDate,2022-02-06T20:19:19-05:00*%
%TF.ProjectId,motor-controller,6d6f746f-722d-4636-9f6e-74726f6c6c65,rev?*%
%TF.SameCoordinates,Original*%
%TF.FileFunction,Legend,Bot*%
%TF.FilePolarity,Positive*%
%FSLAX46Y46*%
G04 Gerber Fmt 4.6, Leading zero omitted, Abs format (unit mm)*
G04 Created by KiCad (PCBNEW (6.0.1)) date 2022-02-06 20:19:19*
%MOMM*%
%LPD*%
G01*
G04 APERTURE LIST*
%ADD10C,0.381000*%
G04 APERTURE END LIST*
D10*
X115130000Y-60311785D02*
X115130000Y-58406785D01*
X115130000Y-59313928D02*
X114041428Y-59313928D01*
X114041428Y-60311785D02*
X114041428Y-58406785D01*
X112771428Y-58406785D02*
X112408571Y-58406785D01*
X112227142Y-58497500D01*
X112045714Y-58678928D01*
X111955000Y-59041785D01*
X111955000Y-59676785D01*
X112045714Y-60039642D01*
X112227142Y-60221071D01*
X112408571Y-60311785D01*
X112771428Y-60311785D01*
X112952857Y-60221071D01*
X113134285Y-60039642D01*
X113225000Y-59676785D01*
X113225000Y-59041785D01*
X113134285Y-58678928D01*
X112952857Y-58497500D01*
X112771428Y-58406785D01*
X111138571Y-60311785D02*
X111138571Y-58406785D01*
X110050000Y-60311785D01*
X110050000Y-58406785D01*
X109142857Y-59313928D02*
X108507857Y-59313928D01*
X108235714Y-60311785D02*
X109142857Y-60311785D01*
X109142857Y-58406785D01*
X108235714Y-58406785D01*
X107056428Y-59404642D02*
X107056428Y-60311785D01*
X107691428Y-58406785D02*
X107056428Y-59404642D01*
X106421428Y-58406785D01*
X103700000Y-59313928D02*
X103427857Y-59404642D01*
X103337142Y-59495357D01*
X103246428Y-59676785D01*
X103246428Y-59948928D01*
X103337142Y-60130357D01*
X103427857Y-60221071D01*
X103609285Y-60311785D01*
X104335000Y-60311785D01*
X104335000Y-58406785D01*
X103700000Y-58406785D01*
X103518571Y-58497500D01*
X103427857Y-58588214D01*
X103337142Y-58769642D01*
X103337142Y-58951071D01*
X103427857Y-59132500D01*
X103518571Y-59223214D01*
X103700000Y-59313928D01*
X104335000Y-59313928D01*
X102430000Y-59313928D02*
X101795000Y-59313928D01*
X101522857Y-60311785D02*
X102430000Y-60311785D01*
X102430000Y-58406785D01*
X101522857Y-58406785D01*
X100706428Y-59313928D02*
X100071428Y-59313928D01*
X99799285Y-60311785D02*
X100706428Y-60311785D01*
X100706428Y-58406785D01*
X99799285Y-58406785D01*
X99073571Y-60221071D02*
X98801428Y-60311785D01*
X98347857Y-60311785D01*
X98166428Y-60221071D01*
X98075714Y-60130357D01*
X97985000Y-59948928D01*
X97985000Y-59767500D01*
X98075714Y-59586071D01*
X98166428Y-59495357D01*
X98347857Y-59404642D01*
X98710714Y-59313928D01*
X98892142Y-59223214D01*
X98982857Y-59132500D01*
X99073571Y-58951071D01*
X99073571Y-58769642D01*
X98982857Y-58588214D01*
X98892142Y-58497500D01*
X98710714Y-58406785D01*
X98257142Y-58406785D01*
X97985000Y-58497500D01*
X95807857Y-59767500D02*
X94900714Y-59767500D01*
X95989285Y-60311785D02*
X95354285Y-58406785D01*
X94719285Y-60311785D01*
X94356428Y-58406785D02*
X93267857Y-58406785D01*
X93812142Y-60311785D02*
X93812142Y-58406785D01*
X92632857Y-59313928D02*
X91997857Y-59313928D01*
X91725714Y-60311785D02*
X92632857Y-60311785D01*
X92632857Y-58406785D01*
X91725714Y-58406785D01*
X89457857Y-60311785D02*
X89457857Y-58406785D01*
X88822857Y-59767500D01*
X88187857Y-58406785D01*
X88187857Y-60311785D01*
X86917857Y-59404642D02*
X86917857Y-60311785D01*
X87552857Y-58406785D02*
X86917857Y-59404642D01*
X86282857Y-58406785D01*
X84196428Y-60311785D02*
X84196428Y-58406785D01*
X83470714Y-58406785D01*
X83289285Y-58497500D01*
X83198571Y-58588214D01*
X83107857Y-58769642D01*
X83107857Y-59041785D01*
X83198571Y-59223214D01*
X83289285Y-59313928D01*
X83470714Y-59404642D01*
X84196428Y-59404642D01*
X82291428Y-59313928D02*
X81656428Y-59313928D01*
X81384285Y-60311785D02*
X82291428Y-60311785D01*
X82291428Y-58406785D01*
X81384285Y-58406785D01*
X80840000Y-58406785D02*
X79751428Y-58406785D01*
X80295714Y-60311785D02*
X80295714Y-58406785D01*
X76576428Y-60311785D02*
X77211428Y-59404642D01*
X77665000Y-60311785D02*
X77665000Y-58406785D01*
X76939285Y-58406785D01*
X76757857Y-58497500D01*
X76667142Y-58588214D01*
X76576428Y-58769642D01*
X76576428Y-59041785D01*
X76667142Y-59223214D01*
X76757857Y-59313928D01*
X76939285Y-59404642D01*
X77665000Y-59404642D01*
X75850714Y-59767500D02*
X74943571Y-59767500D01*
X76032142Y-60311785D02*
X75397142Y-58406785D01*
X74762142Y-60311785D01*
X74127142Y-60311785D02*
X74127142Y-58406785D01*
X73401428Y-58406785D01*
X73220000Y-58497500D01*
X73129285Y-58588214D01*
X73038571Y-58769642D01*
X73038571Y-59041785D01*
X73129285Y-59223214D01*
X73220000Y-59313928D01*
X73401428Y-59404642D01*
X74127142Y-59404642D01*
X72494285Y-58406785D02*
X71405714Y-58406785D01*
X71950000Y-60311785D02*
X71950000Y-58406785D01*
X70407857Y-58406785D02*
X70045000Y-58406785D01*
X69863571Y-58497500D01*
X69682142Y-58678928D01*
X69591428Y-59041785D01*
X69591428Y-59676785D01*
X69682142Y-60039642D01*
X69863571Y-60221071D01*
X70045000Y-60311785D01*
X70407857Y-60311785D01*
X70589285Y-60221071D01*
X70770714Y-60039642D01*
X70861428Y-59676785D01*
X70861428Y-59041785D01*
X70770714Y-58678928D01*
X70589285Y-58497500D01*
X70407857Y-58406785D01*
X67686428Y-60311785D02*
X68321428Y-59404642D01*
X68775000Y-60311785D02*
X68775000Y-58406785D01*
X68049285Y-58406785D01*
X67867857Y-58497500D01*
X67777142Y-58588214D01*
X67686428Y-58769642D01*
X67686428Y-59041785D01*
X67777142Y-59223214D01*
X67867857Y-59313928D01*
X68049285Y-59404642D01*
X68775000Y-59404642D01*
X66870000Y-60130357D02*
X66779285Y-60221071D01*
X66870000Y-60311785D01*
X66960714Y-60221071D01*
X66870000Y-60130357D01*
X66870000Y-60311785D01*
X66870000Y-59586071D02*
X66960714Y-58497500D01*
X66870000Y-58406785D01*
X66779285Y-58497500D01*
X66870000Y-59586071D01*
X66870000Y-58406785D01*
M02*
