M48
; DRILL file {KiCad (6.0.2)} date Mon Feb 28 14:06:25 2022
; FORMAT={-:-/ absolute / inch / decimal}
; #@! TF.CreationDate,2022-02-28T14:06:25-05:00
; #@! TF.GenerationSoftware,Kicad,Pcbnew,(6.0.2)
; #@! TF.FileFunction,Plated,1,4,PTH
FMAT,2
INCH
; #@! TA.AperFunction,Plated,PTH,ViaDrill
T1C0.0157
; #@! TA.AperFunction,Plated,PTH,ComponentDrill
T2C0.0300
; #@! TA.AperFunction,Plated,PTH,ComponentDrill
T3C0.0394
; #@! TA.AperFunction,Plated,PTH,ComponentDrill
T4C0.1063
%
G90
G05
T1
X2.918Y-2.1124
X2.9402Y-2.6724
X2.9409Y-2.9055
X2.979Y-2.2423
X2.9811Y-2.8402
X3.0039Y-2.9528
X3.0291Y-2.8409
X3.04Y-2.1124
X3.0807Y-2.8409
X3.1303Y-2.8413
X3.1535Y-2.0673
X3.1543Y-2.5026
X3.164Y-2.1597
X3.1791Y-2.7008
X3.2087Y-2.4508
X3.225Y-2.264
X3.25Y-2.3196
X3.287Y-2.1602
X3.3215Y-2.264
X3.3622Y-2.6811
X3.3701Y-2.6319
X3.4016Y-2.1646
X3.5098Y-2.2795
X3.522Y-2.1661
X3.561Y-2.4961
X3.5833Y-2.266
X3.6457Y-2.5217
X3.69Y-2.62
X3.872Y-2.5984
X3.8937Y-2.5315
X3.9154Y-2.1634
X3.9921Y-1.9469
X4.0039Y-1.5512
X4.0531Y-2.0768
X4.0531Y-2.3602
X4.0551Y-2.2539
X4.0551Y-2.3091
X4.1427Y-1.2528
X4.1824Y-1.622
X4.2165Y-2.0118
X4.2205Y-1.8123
X4.2303Y-1.2736
X4.2303Y-2.4823
X4.2638Y-1.9587
X4.2638Y-2.5807
X4.2657Y-1.7894
X4.2992Y-2.2205
X4.3248Y-2.189
X4.3327Y-1.4488
X4.3543Y-2.1555
X4.4114Y-2.6004
X4.4432Y-1.4685
X4.4646Y-1.6772
X4.5335Y-2.4488
X4.5453Y-1.5531
X4.5669Y-1.6791
X4.5817Y-2.4422
X4.6224Y-2.4426
X4.624Y-1.2815
X4.6358Y-2.2205
X4.6555Y-1.5453
X4.695Y-1.5453
X4.7119Y-1.4665
X4.7303Y-2.2795
X4.7638Y-2.4272
X4.7697Y-2.5039
X4.7913Y-2.2717
X4.8307Y-1.2677
X4.9161Y-2.1024
X4.9898Y-2.0816
X5.0098Y-2.2283
X5.0472Y-1.582
X5.0768Y-1.6437
X5.1142Y-1.6122
X5.1575Y-1.7441
X5.185Y-2.4882
X5.2146Y-1.3602
X5.2802Y-1.6115
X5.3189Y-1.2539
X5.3748Y-2.3531
X5.4094Y-1.6161
X5.4291Y-1.4016
X5.4311Y-1.2539
X5.4764Y-1.5472
X5.4957Y-2.5772
X5.5091Y-1.3767
X5.5295Y-1.2933
X5.5663Y-2.3175
X5.64Y-1.88
X5.6417Y-1.2539
X5.6516Y-2.4181
X5.6516Y-2.5606
X5.678Y-2.6878
X5.6949Y-2.3504
X5.7255Y-1.2792
X5.802Y-2.2283
X5.8406Y-1.6772
X5.8488Y-2.7228
X5.878Y-1.5177
X5.9185Y-1.6
X5.9301Y-2.4222
X5.9366Y-2.3036
X5.9409Y-2.5591
X6.0217Y-1.8425
X6.0268Y-1.4933
X6.0472Y-2.3425
X6.0472Y-2.4173
X6.0472Y-2.4882
X6.0472Y-2.563
X6.0472Y-2.6398
X6.0669Y-1.8898
X6.0772Y-2.1909
X6.1122Y-1.2539
X6.126Y-2.3425
X6.126Y-2.4173
X6.126Y-2.4882
X6.126Y-2.563
X6.126Y-2.6398
X6.128Y-1.9252
X6.1685Y-2.7559
X6.2047Y-2.3425
X6.2047Y-2.4173
X6.2047Y-2.4902
X6.2047Y-2.565
X6.2047Y-2.6398
X6.2835Y-2.3425
X6.2835Y-2.4173
X6.2835Y-2.4882
X6.2835Y-2.563
X6.2835Y-2.6398
T2
X4.3219Y-1.9621
X4.4219Y-1.9621
X4.4219Y-2.6621
X4.5219Y-1.9621
X4.5219Y-2.6621
X4.6219Y-1.9621
X4.6219Y-2.6621
X4.7219Y-1.9621
X4.7219Y-2.6621
X4.8219Y-1.9621
X5.81Y-2.0846
X5.91Y-2.0846
X6.01Y-2.0846
T3
X2.6165Y-1.9744
X2.6165Y-2.4181
X2.6165Y-2.5181
X2.6165Y-2.6181
X2.7126Y-2.1392
X2.7126Y-2.2392
X2.7165Y-1.9744
X2.7165Y-2.4181
X2.7165Y-2.5181
X2.7165Y-2.6181
X2.8853Y-1.7372
X2.8853Y-1.8372
X2.8853Y-1.9372
X2.9853Y-1.7372
X2.9853Y-1.8372
X2.9853Y-1.9372
X3.0853Y-1.7372
X3.0853Y-1.8372
X3.0853Y-1.9372
X3.2323Y-2.8104
X3.2323Y-2.9104
X3.2323Y-3.0104
X3.2403Y-1.7367
X3.2403Y-1.8367
X3.2403Y-1.9367
X3.2403Y-2.0367
X3.3323Y-2.8104
X3.3323Y-2.9104
X3.3323Y-3.0104
X3.3503Y-1.7367
X3.3503Y-1.8367
X3.3503Y-1.9367
X3.3503Y-2.0367
X3.4323Y-2.8104
X3.4323Y-2.9104
X3.4323Y-3.0104
X3.4603Y-1.7367
X3.4603Y-1.8367
X3.4603Y-1.9367
X3.4603Y-2.0367
X3.5703Y-1.7367
X3.5703Y-1.8367
X3.5703Y-1.9367
X3.5703Y-2.0367
X3.6289Y-2.9035
X3.7465Y-1.7369
X3.7465Y-1.8369
X3.7902Y-3.0165
X3.8465Y-1.7369
X3.8465Y-1.8369
X3.9465Y-1.7369
X3.9465Y-1.8369
X3.9853Y-2.8104
X3.9853Y-2.9104
X3.9853Y-3.0104
X4.0853Y-2.8104
X4.0853Y-2.9104
X4.0853Y-3.0104
X4.113Y-1.7365
X4.1853Y-2.8104
X4.1853Y-2.9104
X4.1853Y-3.0104
X4.213Y-1.7365
X4.313Y-1.7365
X4.3819Y-2.9035
X4.413Y-1.7365
X4.513Y-1.7365
X4.5431Y-3.0165
X4.613Y-1.7365
X4.7411Y-2.8104
X4.7411Y-2.9104
X4.7411Y-3.0104
X4.7717Y-1.7365
X4.8411Y-2.8104
X4.8411Y-2.9104
X4.8411Y-3.0104
X4.8717Y-1.7365
X4.9411Y-2.8104
X4.9411Y-2.9104
X4.9411Y-3.0104
X4.9717Y-1.7365
X5.0717Y-1.7365
X5.1389Y-2.9063
X5.2264Y-1.7365
X5.2504Y-1.9185
X5.2504Y-2.0185
X5.2504Y-2.1185
X5.3001Y-3.0192
X5.3264Y-1.7365
X5.42Y-2.02
X5.42Y-2.12
X5.4264Y-1.7365
X5.4951Y-2.8104
X5.4951Y-2.9104
X5.4951Y-3.0104
X5.52Y-2.02
X5.52Y-2.12
X5.5264Y-1.7365
X5.5951Y-2.8104
X5.5951Y-2.9104
X5.5951Y-3.0104
X5.62Y-2.02
X5.62Y-2.12
X5.6951Y-2.8104
X5.6951Y-2.9104
X5.6951Y-3.0104
X5.8917Y-2.9035
X6.053Y-3.0165
T4
X2.8258Y-2.8553
X2.8258Y-3.0522
T0
M30
