M48
; DRILL file {KiCad (6.0.2)} date Mon Feb 28 14:06:25 2022
; FORMAT={-:-/ absolute / inch / decimal}
; #@! TF.CreationDate,2022-02-28T14:06:25-05:00
; #@! TF.GenerationSoftware,Kicad,Pcbnew,(6.0.2)
; #@! TF.FileFunction,NonPlated,1,4,NPTH
FMAT,2
INCH
; #@! TA.AperFunction,NonPlated,NPTH,ComponentDrill
T1C0.0380
; #@! TA.AperFunction,NonPlated,NPTH,ComponentDrill
T2C0.0700
; #@! TA.AperFunction,NonPlated,NPTH,ComponentDrill
T3C0.1083
%
G90
G05
T1
X4.1775Y-1.3106
X4.1775Y-1.4106
X4.2775Y-1.3106
X4.2775Y-1.4106
X4.3775Y-1.3106
X4.3775Y-1.4106
X4.4775Y-1.3106
X4.4775Y-1.4106
X4.5775Y-1.3106
X4.5775Y-1.4106
X4.6775Y-1.3106
X4.6775Y-1.4106
X4.7775Y-1.3106
X4.7775Y-1.4106
X4.8775Y-1.3106
X4.8775Y-1.4106
X4.9775Y-1.3106
X4.9775Y-1.4106
X5.0775Y-1.3106
X5.0775Y-1.4106
X5.1775Y-1.3106
X5.1775Y-1.4106
X5.2775Y-1.3106
X5.2775Y-1.4106
X5.3775Y-1.3106
X5.3775Y-1.4106
X5.4775Y-1.3106
X5.4775Y-1.4106
X5.5775Y-1.3106
X5.5775Y-1.4106
X5.6775Y-1.3106
X5.6775Y-1.4106
X5.7775Y-1.3106
X5.7775Y-1.4106
X5.8775Y-1.3106
X5.8775Y-1.4106
X5.9775Y-1.3106
X5.9775Y-1.4106
X6.0775Y-1.3106
X6.0775Y-1.4106
T2
X4.2275Y-1.3606
X6.0275Y-1.3606
T3
X2.5886Y-1.7146
X2.5886Y-3.0531
X3.9862Y-1.3606
X6.2695Y-1.3596
X6.2895Y-1.7146
X6.2895Y-3.0536
T0
M30
