%TF.GenerationSoftware,KiCad,Pcbnew,(6.0.2)*%
%TF.CreationDate,2022-02-28T14:06:29-05:00*%
%TF.ProjectId,expansion-board,65787061-6e73-4696-9f6e-2d626f617264,rev?*%
%TF.SameCoordinates,Original*%
%TF.FileFunction,Soldermask,Top*%
%TF.FilePolarity,Negative*%
%FSLAX46Y46*%
G04 Gerber Fmt 4.6, Leading zero omitted, Abs format (unit mm)*
G04 Created by KiCad (PCBNEW (6.0.2)) date 2022-02-28 14:06:29*
%MOMM*%
%LPD*%
G01*
G04 APERTURE LIST*
G04 Aperture macros list*
%AMRoundRect*
0 Rectangle with rounded corners*
0 $1 Rounding radius*
0 $2 $3 $4 $5 $6 $7 $8 $9 X,Y pos of 4 corners*
0 Add a 4 corners polygon primitive as box body*
4,1,4,$2,$3,$4,$5,$6,$7,$8,$9,$2,$3,0*
0 Add four circle primitives for the rounded corners*
1,1,$1+$1,$2,$3*
1,1,$1+$1,$4,$5*
1,1,$1+$1,$6,$7*
1,1,$1+$1,$8,$9*
0 Add four rect primitives between the rounded corners*
20,1,$1+$1,$2,$3,$4,$5,0*
20,1,$1+$1,$4,$5,$6,$7,0*
20,1,$1+$1,$6,$7,$8,$9,0*
20,1,$1+$1,$8,$9,$2,$3,0*%
%AMRotRect*
0 Rectangle, with rotation*
0 The origin of the aperture is its center*
0 $1 length*
0 $2 width*
0 $3 Rotation angle, in degrees counterclockwise*
0 Add horizontal line*
21,1,$1,$2,0,0,$3*%
G04 Aperture macros list end*
%ADD10RoundRect,0.250000X0.450000X-0.262500X0.450000X0.262500X-0.450000X0.262500X-0.450000X-0.262500X0*%
%ADD11RoundRect,0.150000X0.825000X0.150000X-0.825000X0.150000X-0.825000X-0.150000X0.825000X-0.150000X0*%
%ADD12RoundRect,0.150000X0.150000X-0.825000X0.150000X0.825000X-0.150000X0.825000X-0.150000X-0.825000X0*%
%ADD13RoundRect,0.250000X0.250000X0.475000X-0.250000X0.475000X-0.250000X-0.475000X0.250000X-0.475000X0*%
%ADD14R,1.700000X1.700000*%
%ADD15O,1.700000X1.700000*%
%ADD16R,3.800000X3.800000*%
%ADD17C,3.800000*%
%ADD18C,1.700000*%
%ADD19RoundRect,0.250000X0.262500X0.450000X-0.262500X0.450000X-0.262500X-0.450000X0.262500X-0.450000X0*%
%ADD20RoundRect,0.250000X-0.450000X0.262500X-0.450000X-0.262500X0.450000X-0.262500X0.450000X0.262500X0*%
%ADD21RotRect,2.000000X2.000000X325.000000*%
%ADD22C,2.000000*%
%ADD23RoundRect,0.250000X0.475000X-0.250000X0.475000X0.250000X-0.475000X0.250000X-0.475000X-0.250000X0*%
%ADD24R,3.300000X2.500000*%
%ADD25RoundRect,0.250000X-0.262500X-0.450000X0.262500X-0.450000X0.262500X0.450000X-0.262500X0.450000X0*%
%ADD26C,6.200000*%
%ADD27RoundRect,0.250000X-0.250000X-0.475000X0.250000X-0.475000X0.250000X0.475000X-0.250000X0.475000X0*%
%ADD28C,1.524000*%
%ADD29R,1.100000X0.250000*%
%ADD30RoundRect,0.243750X-0.243750X-0.456250X0.243750X-0.456250X0.243750X0.456250X-0.243750X0.456250X0*%
%ADD31R,5.400000X2.900000*%
%ADD32RoundRect,0.100000X-0.100000X0.637500X-0.100000X-0.637500X0.100000X-0.637500X0.100000X0.637500X0*%
%ADD33C,0.965200*%
%ADD34C,1.778000*%
%ADD35R,0.889000X1.676400*%
%ADD36RoundRect,0.250000X-1.750000X-1.000000X1.750000X-1.000000X1.750000X1.000000X-1.750000X1.000000X0*%
%ADD37RoundRect,0.150000X-0.825000X-0.150000X0.825000X-0.150000X0.825000X0.150000X-0.825000X0.150000X0*%
%ADD38RoundRect,0.150000X-0.150000X0.587500X-0.150000X-0.587500X0.150000X-0.587500X0.150000X0.587500X0*%
%ADD39R,4.600000X1.100000*%
%ADD40R,9.400000X10.800000*%
G04 APERTURE END LIST*
D10*
%TO.C,R5*%
X112644445Y-54050000D03*
X112644445Y-52225000D03*
%TD*%
D11*
%TO.C,U4*%
X101025000Y-60045000D03*
X101025000Y-58775000D03*
X101025000Y-57505000D03*
X101025000Y-56235000D03*
X101025000Y-54965000D03*
X101025000Y-53695000D03*
X101025000Y-52425000D03*
X101025000Y-51155000D03*
X96075000Y-51155000D03*
X96075000Y-52425000D03*
X96075000Y-53695000D03*
X96075000Y-54965000D03*
X96075000Y-56235000D03*
X96075000Y-57505000D03*
X96075000Y-58775000D03*
X96075000Y-60045000D03*
%TD*%
D12*
%TO.C,U3*%
X75695000Y-73825000D03*
X76965000Y-73825000D03*
X78235000Y-73825000D03*
X79505000Y-73825000D03*
X79505000Y-68875000D03*
X78235000Y-68875000D03*
X76965000Y-68875000D03*
X75695000Y-68875000D03*
%TD*%
D13*
%TO.C,C5*%
X86275000Y-63725000D03*
X88175000Y-63725000D03*
%TD*%
D14*
%TO.C,J9*%
X85097216Y-44112405D03*
D15*
X85097216Y-46652405D03*
X85097216Y-49192405D03*
X85097216Y-51732405D03*
%TD*%
D16*
%TO.C,J2*%
X71775000Y-77525000D03*
D17*
X71775000Y-72525000D03*
%TD*%
D14*
%TO.C,J14*%
X132750000Y-44107000D03*
D15*
X135290000Y-44107000D03*
X137830000Y-44107000D03*
X140370000Y-44107000D03*
%TD*%
D18*
%TO.C,U10*%
X120425000Y-71385000D03*
X120425000Y-73925000D03*
X120425000Y-76465000D03*
X122965000Y-71385000D03*
X122965000Y-73925000D03*
X122965000Y-76465000D03*
X125505000Y-71385000D03*
X125505000Y-73925000D03*
X125505000Y-76465000D03*
%TD*%
D19*
%TO.C,R18*%
X105612500Y-66700000D03*
X103787500Y-66700000D03*
%TD*%
D13*
%TO.C,C2*%
X84275000Y-63725000D03*
X82375000Y-63725000D03*
%TD*%
D19*
%TO.C,R15*%
X91075000Y-59600000D03*
X89250000Y-59600000D03*
%TD*%
D14*
%TO.C,J15*%
X104470000Y-44107000D03*
D15*
X107010000Y-44107000D03*
X109550000Y-44107000D03*
X112090000Y-44107000D03*
X114630000Y-44107000D03*
X117170000Y-44107000D03*
%TD*%
D14*
%TO.C,J4*%
X69000000Y-66500000D03*
D15*
X66460000Y-66500000D03*
X69000000Y-63960000D03*
X66460000Y-63960000D03*
X69000000Y-61420000D03*
X66460000Y-61420000D03*
%TD*%
D20*
%TO.C,R14*%
X128237500Y-58912500D03*
X128237500Y-60737500D03*
%TD*%
D19*
%TO.C,R19*%
X105462500Y-64250000D03*
X103637500Y-64250000D03*
%TD*%
%TO.C,R17*%
X160732500Y-70040000D03*
X158907500Y-70040000D03*
%TD*%
D21*
%TO.C,C8*%
X92175000Y-73750000D03*
D22*
X96270760Y-76617882D03*
%TD*%
D23*
%TO.C,C1*%
X119700000Y-63550000D03*
X119700000Y-61650000D03*
%TD*%
D19*
%TO.C,R7*%
X91075000Y-68000000D03*
X89250000Y-68000000D03*
%TD*%
D24*
%TO.C,D2*%
X159004000Y-55630000D03*
X159004000Y-48830000D03*
%TD*%
D14*
%TO.C,J13*%
X121200000Y-44107000D03*
D15*
X123740000Y-44107000D03*
X126280000Y-44107000D03*
X128820000Y-44107000D03*
%TD*%
D14*
%TO.C,J6*%
X133360000Y-48730000D03*
D15*
X133360000Y-51270000D03*
X133360000Y-53810000D03*
%TD*%
D25*
%TO.C,R1*%
X118300000Y-53900000D03*
X120125000Y-53900000D03*
%TD*%
D26*
%TO.C,H2*%
X101250000Y-34559200D03*
%TD*%
D14*
%TO.C,J10*%
X87891216Y-44112405D03*
D15*
X87891216Y-46652405D03*
X87891216Y-49192405D03*
X87891216Y-51732405D03*
%TD*%
D27*
%TO.C,C4*%
X73350000Y-65875000D03*
X75250000Y-65875000D03*
%TD*%
D18*
%TO.C,U11*%
X73286216Y-44125405D03*
X73286216Y-46665405D03*
X73286216Y-49205405D03*
X75826216Y-44125405D03*
X75826216Y-46665405D03*
X75826216Y-49205405D03*
X78366216Y-44125405D03*
X78366216Y-46665405D03*
X78366216Y-49205405D03*
%TD*%
D21*
%TO.C,C6*%
X149650000Y-73750000D03*
D22*
X153745760Y-76617882D03*
%TD*%
D25*
%TO.C,R10*%
X77075000Y-63550000D03*
X78900000Y-63550000D03*
%TD*%
%TO.C,R4*%
X65477500Y-72850000D03*
X67302500Y-72850000D03*
%TD*%
D26*
%TO.C,H3*%
X65750000Y-43550000D03*
%TD*%
D28*
%TO.C,RV1*%
X147574000Y-52950008D03*
X150114000Y-52950008D03*
X152654000Y-52950008D03*
%TD*%
D20*
%TO.C,R9*%
X126137500Y-58912500D03*
X126137500Y-60737500D03*
%TD*%
D19*
%TO.C,R16*%
X91062500Y-61750000D03*
X89237500Y-61750000D03*
%TD*%
D29*
%TO.C,U1*%
X83050000Y-65700000D03*
X83050000Y-66200000D03*
X83050000Y-66700000D03*
X83050000Y-67200000D03*
X83050000Y-67700000D03*
X87350000Y-67700000D03*
X87350000Y-67200000D03*
X87350000Y-66700000D03*
X87350000Y-66200000D03*
X87350000Y-65700000D03*
%TD*%
D14*
%TO.C,J1*%
X68900000Y-56875000D03*
D15*
X68900000Y-54335000D03*
%TD*%
D26*
%TO.C,H6*%
X159752600Y-77561400D03*
%TD*%
D28*
%TO.C,MOD1*%
X122475000Y-49837500D03*
X119935000Y-49837500D03*
X117395000Y-49837500D03*
X114855000Y-49837500D03*
X112315000Y-49837500D03*
X109775000Y-49837500D03*
X112315000Y-67617500D03*
X114855000Y-67617500D03*
X117395000Y-67617500D03*
X119935000Y-67617500D03*
%TD*%
D25*
%TO.C,R8*%
X73350000Y-63550000D03*
X75175000Y-63550000D03*
%TD*%
D26*
%TO.C,H5*%
X159752600Y-43550800D03*
%TD*%
%TO.C,H1*%
X159244600Y-34533800D03*
%TD*%
D30*
%TO.C,D1*%
X65462500Y-70630000D03*
X67337500Y-70630000D03*
%TD*%
D27*
%TO.C,C3*%
X77100000Y-65900000D03*
X79000000Y-65900000D03*
%TD*%
D18*
%TO.C,U8*%
X82100414Y-71385000D03*
X82100414Y-73925000D03*
X82100414Y-76465000D03*
X84640414Y-71385000D03*
X84640414Y-73925000D03*
X84640414Y-76465000D03*
X87180414Y-71385000D03*
X87180414Y-73925000D03*
X87180414Y-76465000D03*
%TD*%
%TO.C,U12*%
X139575000Y-71385000D03*
X139575000Y-73925000D03*
X139575000Y-76465000D03*
X142115000Y-71385000D03*
X142115000Y-73925000D03*
X142115000Y-76465000D03*
X144655000Y-71385000D03*
X144655000Y-73925000D03*
X144655000Y-76465000D03*
%TD*%
D14*
%TO.C,J8*%
X82303216Y-44112405D03*
D15*
X82303216Y-46652405D03*
X82303216Y-49192405D03*
X82303216Y-51732405D03*
%TD*%
D25*
%TO.C,R12*%
X73375000Y-61225000D03*
X75200000Y-61225000D03*
%TD*%
D14*
%TO.C,J3*%
X142748000Y-51308000D03*
D15*
X142748000Y-53848000D03*
X140208000Y-51308000D03*
X140208000Y-53848000D03*
X137668000Y-51308000D03*
X137668000Y-53848000D03*
%TD*%
D14*
%TO.C,J11*%
X90685216Y-44112405D03*
D15*
X90685216Y-46652405D03*
X90685216Y-49192405D03*
X90685216Y-51732405D03*
%TD*%
D18*
%TO.C,U9*%
X101225394Y-71385000D03*
X101225394Y-73925000D03*
X101225394Y-76465000D03*
X103765394Y-71385000D03*
X103765394Y-73925000D03*
X103765394Y-76465000D03*
X106305394Y-71385000D03*
X106305394Y-73925000D03*
X106305394Y-76465000D03*
%TD*%
D19*
%TO.C,R2*%
X123575000Y-53900000D03*
X121750000Y-53900000D03*
%TD*%
D31*
%TO.C,L1*%
X136520000Y-57600000D03*
X136520000Y-67500000D03*
%TD*%
D32*
%TO.C,U2*%
X117700000Y-58087500D03*
X117050000Y-58087500D03*
X116400000Y-58087500D03*
X115750000Y-58087500D03*
X115100000Y-58087500D03*
X114450000Y-58087500D03*
X113800000Y-58087500D03*
X113150000Y-58087500D03*
X112500000Y-58087500D03*
X111850000Y-58087500D03*
X111200000Y-58087500D03*
X110550000Y-58087500D03*
X109900000Y-58087500D03*
X109250000Y-58087500D03*
X109250000Y-63812500D03*
X109900000Y-63812500D03*
X110550000Y-63812500D03*
X111200000Y-63812500D03*
X111850000Y-63812500D03*
X112500000Y-63812500D03*
X113150000Y-63812500D03*
X113800000Y-63812500D03*
X114450000Y-63812500D03*
X115100000Y-63812500D03*
X115750000Y-63812500D03*
X116400000Y-63812500D03*
X117050000Y-63812500D03*
X117700000Y-63812500D03*
%TD*%
D25*
%TO.C,R13*%
X77075000Y-61200000D03*
X78900000Y-61200000D03*
%TD*%
D21*
%TO.C,C10*%
X111300000Y-73750000D03*
D22*
X115395760Y-76617882D03*
%TD*%
D14*
%TO.C,J7*%
X95160000Y-46657000D03*
D15*
X95160000Y-44117000D03*
X97700000Y-46657000D03*
X97700000Y-44117000D03*
X100240000Y-46657000D03*
X100240000Y-44117000D03*
%TD*%
D29*
%TO.C,U5*%
X83025000Y-59825000D03*
X83025000Y-60325000D03*
X83025000Y-60825000D03*
X83025000Y-61325000D03*
X83025000Y-61825000D03*
X87325000Y-61825000D03*
X87325000Y-61325000D03*
X87325000Y-60825000D03*
X87325000Y-60325000D03*
X87325000Y-59825000D03*
%TD*%
D10*
%TO.C,R3*%
X114700000Y-54050000D03*
X114700000Y-52225000D03*
%TD*%
D21*
%TO.C,C9*%
X130527120Y-73818982D03*
D22*
X134622880Y-76686864D03*
%TD*%
D33*
%TO.C,J12*%
X146747800Y-33289200D03*
X113727800Y-33289200D03*
X118807800Y-35829200D03*
X136587800Y-33289200D03*
D34*
X153097800Y-34559200D03*
D33*
X154367800Y-35829200D03*
X116267800Y-35829200D03*
X144207800Y-35829200D03*
X121347800Y-35829200D03*
X123887800Y-35829200D03*
X136587800Y-35829200D03*
X149287800Y-35829200D03*
X108647800Y-35829200D03*
X126427800Y-33289200D03*
X131507800Y-35829200D03*
X151827800Y-35829200D03*
X146747800Y-35829200D03*
X111187800Y-35829200D03*
X111187800Y-33289200D03*
X128967800Y-33289200D03*
X128967800Y-35829200D03*
X139127800Y-35829200D03*
X139127800Y-33289200D03*
X149287800Y-33289200D03*
X144207800Y-33289200D03*
X106107800Y-33289200D03*
X151827800Y-33289200D03*
X123887800Y-33289200D03*
D34*
X107377800Y-34559200D03*
D33*
X141667800Y-35829200D03*
X134047800Y-35829200D03*
X116267800Y-33289200D03*
X154367800Y-33289200D03*
X141667800Y-33289200D03*
X121347800Y-33289200D03*
X118807800Y-33289200D03*
X106107800Y-35829200D03*
X113727800Y-35829200D03*
X126427800Y-35829200D03*
X134047800Y-33289200D03*
X108647800Y-33289200D03*
X131507800Y-33289200D03*
D35*
X154367800Y-31841400D03*
X154367800Y-37277000D03*
X151827800Y-31841400D03*
X151827800Y-37277000D03*
X149287800Y-31841400D03*
X149287800Y-37277000D03*
X146747800Y-31841400D03*
X146747800Y-37277000D03*
X144207800Y-31841400D03*
X144207800Y-37277000D03*
X141667800Y-31841400D03*
X141667800Y-37277000D03*
X139127800Y-31841400D03*
X139127800Y-37277000D03*
X136587800Y-31841400D03*
X136587800Y-37277000D03*
X134047800Y-31841400D03*
X134047800Y-37277000D03*
X131507800Y-31841400D03*
X131507800Y-37277000D03*
X128967800Y-31841400D03*
X128967800Y-37277000D03*
X126427800Y-31841400D03*
X126427800Y-37277000D03*
X123887800Y-31841400D03*
X123887800Y-37277000D03*
X121347800Y-31841400D03*
X121347800Y-37277000D03*
X118807800Y-31841400D03*
X118807800Y-37277000D03*
X116267800Y-31841400D03*
X116267800Y-37277000D03*
X113727800Y-31841400D03*
X113727800Y-37277000D03*
X111187800Y-31841400D03*
X111187800Y-37277000D03*
X108647800Y-31841400D03*
X108647800Y-37277000D03*
X106107800Y-31841400D03*
X106107800Y-37277000D03*
%TD*%
D36*
%TO.C,C7*%
X145577500Y-44470000D03*
X153577500Y-44470000D03*
%TD*%
D14*
%TO.C,J5*%
X69000000Y-50150000D03*
D15*
X66460000Y-50150000D03*
%TD*%
D37*
%TO.C,U7*%
X96025000Y-63245000D03*
X96025000Y-64515000D03*
X96025000Y-65785000D03*
X96025000Y-67055000D03*
X100975000Y-67055000D03*
X100975000Y-65785000D03*
X100975000Y-64515000D03*
X100975000Y-63245000D03*
%TD*%
D26*
%TO.C,H4*%
X65750000Y-77550000D03*
%TD*%
D19*
%TO.C,R6*%
X91075000Y-65844440D03*
X89250000Y-65844440D03*
%TD*%
D25*
%TO.C,R11*%
X126475000Y-66575000D03*
X128300000Y-66575000D03*
%TD*%
D38*
%TO.C,Q1*%
X128250000Y-62662500D03*
X126350000Y-62662500D03*
X127300000Y-64537500D03*
%TD*%
D39*
%TO.C,U6*%
X147525000Y-59825000D03*
X147525000Y-61525000D03*
D40*
X156675000Y-63225000D03*
D39*
X147525000Y-63225000D03*
X147525000Y-64925000D03*
X147525000Y-66625000D03*
%TD*%
M02*
